<svg width="7519" height="4671" viewBox="0 0 7519 4671" fill="none" xmlns="http://www.w3.org/2000/svg">
<g id="American Flag">
<rect id="BG" x="0.000244141" y="2" width="7519" height="4669" fill="white"/>
<path id="Red" d="M7060 4270H5405C5405 4270 5861.09 3623.94 5927.58 2365.06C5994.07 1106.19 6388.86 403 6388.86 403H7060V4270Z" fill="#C1314A"/>
<g id="Stripes">
<path id="Red_2" d="M7072 4270H5417C5417 4270 5873.09 3623.94 5939.58 2365.06C6006.07 1106.19 6400.86 403 6400.86 403H7072V4270Z" fill="#C1314A"/>
<rect id="Rectangle 3" x="5333" y="898" width="1789" height="577" fill="white"/>
<rect id="Rectangle 4" x="5333" y="2048" width="1789" height="577" fill="white"/>
<rect id="Rectangle 5" x="5333" y="3198" width="1789" height="577" fill="white"/>
</g>
<g id="Color">
<rect id="Color_2" x="0.000244141" y="4210.99" width="7507" height="460" fill="#010C3A"/>
<rect id="Color_3" x="7060" y="4662.99" width="4662" height="459" transform="rotate(-90 7060 4662.99)" fill="#010C3A"/>
<rect id="Color_4" x="0.000488281" y="4671" width="4671" height="1355" transform="rotate(-90 0.000488281 4671)" fill="#010C3A"/>
<rect id="Color_5" x="0.000244141" y="2" width="7507" height="460" fill="#010C3A"/>
</g>
<path id="Blue" d="M1206 403H2861C2861 403 2404.91 1049.06 2338.42 2307.94C2271.93 3566.81 1877.14 4270 1877.14 4270H1206V403Z" fill="#010C3A"/>
<g id="Stars">
<g id="Star Row">
<path id="Star" d="M1505.5 773L1547.82 903.25L1684.77 903.25L1573.98 983.749L1616.3 1114L1505.5 1033.5L1394.7 1114L1437.02 983.749L1326.23 903.25L1463.18 903.25L1505.5 773Z" fill="white"/>
<path id="Star_2" d="M1915.5 773L1957.82 903.25L2094.77 903.25L1983.98 983.749L2026.3 1114L1915.5 1033.5L1804.7 1114L1847.02 983.749L1736.23 903.25L1873.18 903.25L1915.5 773Z" fill="white"/>
<path id="Star_3" d="M2325.5 773L2367.82 903.25L2504.77 903.25L2393.98 983.749L2436.3 1114L2325.5 1033.5L2214.7 1114L2257.02 983.749L2146.23 903.25L2283.18 903.25L2325.5 773Z" fill="white"/>
</g>
<g id="Star Row_2">
<path id="Star_4" d="M1505.5 1323L1547.82 1453.25L1684.77 1453.25L1573.98 1533.75L1616.3 1664L1505.5 1583.5L1394.7 1664L1437.02 1533.75L1326.23 1453.25L1463.18 1453.25L1505.5 1323Z" fill="white"/>
<path id="Star_5" d="M1915.5 1323L1957.82 1453.25L2094.77 1453.25L1983.98 1533.75L2026.3 1664L1915.5 1583.5L1804.7 1664L1847.02 1533.75L1736.23 1453.25L1873.18 1453.25L1915.5 1323Z" fill="white"/>
</g>
<g id="Star Row_3">
<path id="Star_6" d="M1505.5 1873L1547.82 2003.25L1684.77 2003.25L1573.98 2083.75L1616.3 2214L1505.5 2133.5L1394.7 2214L1437.02 2083.75L1326.23 2003.25L1463.18 2003.25L1505.5 1873Z" fill="white"/>
<path id="Star_7" d="M1915.5 1873L1957.82 2003.25L2094.77 2003.25L1983.98 2083.75L2026.3 2214L1915.5 2133.5L1804.7 2214L1847.02 2083.75L1736.23 2003.25L1873.18 2003.25L1915.5 1873Z" fill="white"/>
</g>
<g id="Star Row_4">
<path id="Star_8" d="M1505.5 2423L1547.82 2553.25L1684.77 2553.25L1573.98 2633.75L1616.3 2764L1505.5 2683.5L1394.7 2764L1437.02 2633.75L1326.23 2553.25L1463.18 2553.25L1505.5 2423Z" fill="white"/>
<path id="Star_9" d="M1915.5 2423L1957.82 2553.25L2094.77 2553.25L1983.98 2633.75L2026.3 2764L1915.5 2683.5L1804.7 2764L1847.02 2633.75L1736.23 2553.25L1873.18 2553.25L1915.5 2423Z" fill="white"/>
</g>
<path id="Star_10" d="M1505.5 2973L1547.82 3103.25L1684.77 3103.25L1573.98 3183.75L1616.3 3314L1505.5 3233.5L1394.7 3314L1437.02 3183.75L1326.23 3103.25L1463.18 3103.25L1505.5 2973Z" fill="white"/>
<path id="Star_11" d="M1505.5 3523L1547.82 3653.25L1684.77 3653.25L1573.98 3733.75L1616.3 3864L1505.5 3783.5L1394.7 3864L1437.02 3733.75L1326.23 3653.25L1463.18 3653.25L1505.5 3523Z" fill="white"/>
</g>
<g id="Bleed">
<g id="Bleed_2">
<rect id="Bleed_3" x="0.500244" y="2.5" width="7518" height="309" fill="#9A9A9A" stroke="#9A9A9A"/>
<rect id="Bleed_4" x="0.500244" y="4670.5" width="4668" height="1205" transform="rotate(-90 0.500244 4670.5)" fill="#9A9A9A" stroke="#9A9A9A"/>
<rect id="Bleed_5" x="7209.5" y="4670.5" width="4668" height="309" transform="rotate(-90 7209.5 4670.5)" fill="#9A9A9A" stroke="#9A9A9A"/>
<rect id="Bleed_6" x="0.500244" y="4361.5" width="7518" height="309" fill="#9A9A9A" stroke="#9A9A9A"/>
<path id="Bleed_7" d="M7060 462H7064V458H7060V462ZM7060 4211V4215H7064V4211H7060ZM1206 4211V4215H1216.02V4211V4207H1206V4211ZM1236.07 4211V4215H1256.12V4211V4207H1236.07V4211ZM1276.17 4211V4215H1296.22V4211V4207H1276.17V4211ZM1316.26 4211V4215H1336.31V4211V4207H1316.26V4211ZM1356.36 4211V4215H1376.41V4211V4207H1356.36V4211ZM1396.46 4211V4215H1416.5V4211V4207H1396.46V4211ZM1436.55 4211V4215H1456.6V4211V4207H1436.55V4211ZM1476.65 4211V4215H1496.7V4211V4207H1476.65V4211ZM1516.74 4211V4215H1536.79V4211V4207H1516.74V4211ZM1556.84 4211V4215H1576.89V4211V4207H1556.84V4211ZM1596.94 4211V4215H1616.98V4211V4207H1596.94V4211ZM1637.03 4211V4215H1657.08V4211V4207H1637.03V4211ZM1677.13 4211V4215H1697.17V4211V4207H1677.13V4211ZM1717.22 4211V4215H1737.27V4211V4207H1717.22V4211ZM1757.32 4211V4215H1777.37V4211V4207H1757.32V4211ZM1797.41 4211V4215H1817.46V4211V4207H1797.41V4211ZM1837.51 4211V4215H1857.56V4211V4207H1837.51V4211ZM1877.61 4211V4215H1897.65V4211V4207H1877.61V4211ZM1917.7 4211V4215H1937.75V4211V4207H1917.7V4211ZM1957.8 4211V4215H1977.85V4211V4207H1957.8V4211ZM1997.89 4211V4215H2017.94V4211V4207H1997.89V4211ZM2037.99 4211V4215H2058.04V4211V4207H2037.99V4211ZM2078.09 4211V4215H2098.13V4211V4207H2078.09V4211ZM2118.18 4211V4215H2138.23V4211V4207H2118.18V4211ZM2158.28 4211V4215H2178.33V4211V4207H2158.28V4211ZM2198.37 4211V4215H2218.42V4211V4207H2198.37V4211ZM2238.47 4211V4215H2258.52V4211V4207H2238.47V4211ZM2278.57 4211V4215H2298.61V4211V4207H2278.57V4211ZM2318.66 4211V4215H2338.71V4211V4207H2318.66V4211ZM2358.76 4211V4215H2378.81V4211V4207H2358.76V4211ZM2398.85 4211V4215H2418.9V4211V4207H2398.85V4211ZM2438.95 4211V4215H2459V4211V4207H2438.95V4211ZM2479.05 4211V4215H2499.09V4211V4207H2479.05V4211ZM2519.14 4211V4215H2539.19V4211V4207H2519.14V4211ZM2559.24 4211V4215H2579.29V4211V4207H2559.24V4211ZM2599.33 4211V4215H2619.38V4211V4207H2599.33V4211ZM2639.43 4211V4215H2659.48V4211V4207H2639.43V4211ZM2679.53 4211V4215H2699.57V4211V4207H2679.53V4211ZM2719.62 4211V4215H2739.67V4211V4207H2719.62V4211ZM2759.72 4211V4215H2779.77V4211V4207H2759.72V4211ZM2799.81 4211V4215H2819.86V4211V4207H2799.81V4211ZM2839.91 4211V4215H2859.96V4211V4207H2839.91V4211ZM2880.01 4211V4215H2900.05V4211V4207H2880.01V4211ZM2920.1 4211V4215H2940.15V4211V4207H2920.1V4211ZM2960.2 4211V4215H2980.25V4211V4207H2960.2V4211ZM3000.29 4211V4215H3020.34V4211V4207H3000.29V4211ZM3040.39 4211V4215H3060.44V4211V4207H3040.39V4211ZM3080.48 4211V4215H3100.53V4211V4207H3080.48V4211ZM3120.58 4211V4215H3140.63V4211V4207H3120.58V4211ZM3160.68 4211V4215H3180.72V4211V4207H3160.68V4211ZM3200.77 4211V4215H3220.82V4211V4207H3200.77V4211ZM3240.87 4211V4215H3260.92V4211V4207H3240.87V4211ZM3280.96 4211V4215H3301.01V4211V4207H3280.96V4211ZM3321.06 4211V4215H3341.11V4211V4207H3321.06V4211ZM3361.16 4211V4215H3381.2V4211V4207H3361.16V4211ZM3401.25 4211V4215H3421.3V4211V4207H3401.25V4211ZM3441.35 4211V4215H3461.4V4211V4207H3441.35V4211ZM3481.44 4211V4215H3501.49V4211V4207H3481.44V4211ZM3521.54 4211V4215H3541.59V4211V4207H3521.54V4211ZM3561.63 4211V4215H3581.68V4211V4207H3561.63V4211ZM3601.73 4211V4215H3621.78V4211V4207H3601.73V4211ZM3641.83 4211V4215H3661.87V4211V4207H3641.83V4211ZM3681.92 4211V4215H3701.97V4211V4207H3681.92V4211ZM3722.02 4211V4215H3742.07V4211V4207H3722.02V4211ZM3762.11 4211V4215H3782.16V4211V4207H3762.11V4211ZM3802.21 4211V4215H3822.26V4211V4207H3802.21V4211ZM3842.3 4211V4215H3862.35V4211V4207H3842.3V4211ZM3882.4 4211V4215H3902.45V4211V4207H3882.4V4211ZM3922.5 4211V4215H3942.54V4211V4207H3922.5V4211ZM3962.59 4211V4215H3982.64V4211V4207H3962.59V4211ZM4002.69 4211V4215H4022.74V4211V4207H4002.69V4211ZM4042.78 4211V4215H4062.83V4211V4207H4042.78V4211ZM4082.88 4211V4215H4102.93V4211V4207H4082.88V4211ZM4122.97 4211V4215H4143.02V4211V4207H4122.97V4211ZM4163.07 4211V4215H4183.12V4211V4207H4163.07V4211ZM4203.17 4211V4215H4223.21V4211V4207H4203.17V4211ZM4243.26 4211V4215H4263.31V4211V4207H4243.26V4211ZM4283.36 4211V4215H4303.41V4211V4207H4283.36V4211ZM4323.45 4211V4215H4343.5V4211V4207H4323.45V4211ZM4363.55 4211V4215H4383.6V4211V4207H4363.55V4211ZM4403.64 4211V4215H4423.69V4211V4207H4403.64V4211ZM4443.74 4211V4215H4463.79V4211V4207H4443.74V4211ZM4483.84 4211V4215H4503.88V4211V4207H4483.84V4211ZM4523.93 4211V4215H4543.98V4211V4207H4523.93V4211ZM4564.03 4211V4215H4584.07V4211V4207H4564.03V4211ZM4604.12 4211V4215H4624.17V4211V4207H4604.12V4211ZM4644.22 4211V4215H4664.27V4211V4207H4644.22V4211ZM4684.31 4211V4215H4704.36V4211V4207H4684.31V4211ZM4724.41 4211V4215H4744.46V4211V4207H4724.41V4211ZM4764.51 4211V4215H4784.55V4211V4207H4764.51V4211ZM4804.6 4211V4215H4824.65V4211V4207H4804.6V4211ZM4844.7 4211V4215H4864.75V4211V4207H4844.7V4211ZM4884.79 4211V4215H4904.84V4211V4207H4884.79V4211ZM4924.89 4211V4215H4944.94V4211V4207H4924.89V4211ZM4964.98 4211V4215H4985.03V4211V4207H4964.98V4211ZM5005.08 4211V4215H5025.13V4211V4207H5005.08V4211ZM5045.18 4211V4215H5065.22V4211V4207H5045.18V4211ZM5085.27 4211V4215H5105.32V4211V4207H5085.27V4211ZM5125.37 4211V4215H5145.41V4211V4207H5125.37V4211ZM5165.46 4211V4215H5185.51V4211V4207H5165.46V4211ZM5205.56 4211V4215H5225.61V4211V4207H5205.56V4211ZM5245.65 4211V4215H5265.7V4211V4207H5245.65V4211ZM5285.75 4211V4215H5305.8V4211V4207H5285.75V4211ZM5325.85 4211V4215H5345.89V4211V4207H5325.85V4211ZM5365.94 4211V4215H5385.99V4211V4207H5365.94V4211ZM5406.04 4211V4215H5426.08V4211V4207H5406.04V4211ZM5446.13 4211V4215H5466.18V4211V4207H5446.13V4211ZM5486.23 4211V4215H5506.28V4211V4207H5486.23V4211ZM5526.32 4211V4215H5546.37V4211V4207H5526.32V4211ZM5566.42 4211V4215H5586.47V4211V4207H5566.42V4211ZM5606.52 4211V4215H5626.56V4211V4207H5606.52V4211ZM5646.61 4211V4215H5666.66V4211V4207H5646.61V4211ZM5686.71 4211V4215H5706.75V4211V4207H5686.71V4211ZM5726.8 4211V4215H5746.85V4211V4207H5726.8V4211ZM5766.9 4211V4215H5786.95V4211V4207H5766.9V4211ZM5806.99 4211V4215H5827.04V4211V4207H5806.99V4211ZM5847.09 4211V4215H5867.14V4211V4207H5847.09V4211ZM5887.19 4211V4215H5907.23V4211V4207H5887.19V4211ZM5927.28 4211V4215H5947.33V4211V4207H5927.28V4211ZM5967.38 4211V4215H5987.42V4211V4207H5967.38V4211ZM6007.47 4211V4215H6027.52V4211V4207H6007.47V4211ZM6047.57 4211V4215H6067.62V4211V4207H6047.57V4211ZM6087.66 4211V4215H6107.71V4211V4207H6087.66V4211ZM6127.76 4211V4215H6147.81V4211V4207H6127.76V4211ZM6167.86 4211V4215H6187.9V4211V4207H6167.86V4211ZM6207.95 4211V4215H6228V4211V4207H6207.95V4211ZM6248.05 4211V4215H6268.09V4211V4207H6248.05V4211ZM6288.14 4211V4215H6308.19V4211V4207H6288.14V4211ZM6328.24 4211V4215H6348.29V4211V4207H6328.24V4211ZM6368.33 4211V4215H6388.38V4211V4207H6368.33V4211ZM6408.43 4211V4215H6428.48V4211V4207H6408.43V4211ZM6448.53 4211V4215H6468.57V4211V4207H6448.53V4211ZM6488.62 4211V4215H6508.67V4211V4207H6488.62V4211ZM6528.72 4211V4215H6548.76V4211V4207H6528.72V4211ZM6568.81 4211V4215H6588.86V4211V4207H6568.81V4211ZM6608.91 4211V4215H6628.96V4211V4207H6608.91V4211ZM6649 4211V4215H6669.05V4211V4207H6649V4211ZM6689.1 4211V4215H6709.15V4211V4207H6689.1V4211ZM6729.2 4211V4215H6749.24V4211V4207H6729.2V4211ZM6769.29 4211V4215H6789.34V4211V4207H6769.29V4211ZM6809.39 4211V4215H6829.43V4211V4207H6809.39V4211ZM6849.48 4211V4215H6869.53V4211V4207H6849.48V4211ZM6889.58 4211V4215H6909.63V4211V4207H6889.58V4211ZM6929.67 4211V4215H6949.72V4211V4207H6929.67V4211ZM6969.77 4211V4215H6989.82V4211V4207H6969.77V4211ZM7009.86 4211V4215H7029.91V4211V4207H7009.86V4211ZM7049.96 4211V4215H7060V4211V4207H7049.96V4211ZM7060 4211H7064V4201.03H7060H7056V4211H7060ZM7060 4181.09H7064V4161.15H7060H7056V4181.09H7060ZM7060 4141.2H7064V4121.26H7060H7056V4141.2H7060ZM7060 4101.32H7064V4081.38H7060H7056V4101.32H7060ZM7060 4061.44H7064V4041.5H7060H7056V4061.44H7060ZM7060 4021.56H7064V4001.61H7060H7056V4021.56H7060ZM7060 3981.67H7064V3961.73H7060H7056V3981.67H7060ZM7060 3941.79H7064V3921.85H7060H7056V3941.79H7060ZM7060 3901.91H7064V3881.97H7060H7056V3901.91H7060ZM7060 3862.02H7064V3842.08H7060H7056V3862.02H7060ZM7060 3822.14H7064V3802.2H7060H7056V3822.14H7060ZM7060 3782.26H7064V3762.32H7060H7056V3782.26H7060ZM7060 3742.37H7064V3722.43H7060H7056V3742.37H7060ZM7060 3702.49H7064V3682.55H7060H7056V3702.49H7060ZM7060 3662.61H7064V3642.67H7060H7056V3662.61H7060ZM7060 3622.73H7064V3602.78H7060H7056V3622.73H7060ZM7060 3582.84H7064V3562.9H7060H7056V3582.84H7060ZM7060 3542.96H7064V3523.02H7060H7056V3542.96H7060ZM7060 3503.08H7064V3483.14H7060H7056V3503.08H7060ZM7060 3463.19H7064V3443.25H7060H7056V3463.19H7060ZM7060 3423.31H7064V3403.37H7060H7056V3423.31H7060ZM7060 3383.43H7064V3363.49H7060H7056V3383.43H7060ZM7060 3343.55H7064V3323.6H7060H7056V3343.55H7060ZM7060 3303.66H7064V3283.72H7060H7056V3303.66H7060ZM7060 3263.78H7064V3243.84H7060H7056V3263.78H7060ZM7060 3223.9H7064V3203.96H7060H7056V3223.9H7060ZM7060 3184.01H7064V3164.07H7060H7056V3184.01H7060ZM7060 3144.13H7064V3124.19H7060H7056V3144.13H7060ZM7060 3104.25H7064V3084.31H7060H7056V3104.25H7060ZM7060 3064.36H7064V3044.42H7060H7056V3064.36H7060ZM7060 3024.48H7064V3004.54H7060H7056V3024.48H7060ZM7060 2984.6H7064V2964.66H7060H7056V2984.6H7060ZM7060 2944.72H7064V2924.77H7060H7056V2944.72H7060ZM7060 2904.83H7064V2884.89H7060H7056V2904.83H7060ZM7060 2864.95H7064V2845.01H7060H7056V2864.95H7060ZM7060 2825.07H7064V2805.12H7060H7056V2825.07H7060ZM7060 2785.18H7064V2765.24H7060H7056V2785.18H7060ZM7060 2745.3H7064V2725.36H7060H7056V2745.3H7060ZM7060 2705.42H7064V2685.48H7060H7056V2705.42H7060ZM7060 2665.53H7064V2645.59H7060H7056V2665.53H7060ZM7060 2625.65H7064V2605.71H7060H7056V2625.65H7060ZM7060 2585.77H7064V2565.83H7060H7056V2585.77H7060ZM7060 2545.88H7064V2525.94H7060H7056V2545.88H7060ZM7060 2506H7064V2486.06H7060H7056V2506H7060ZM7060 2466.12H7064V2446.18H7060H7056V2466.12H7060ZM7060 2426.24H7064V2406.29H7060H7056V2426.24H7060ZM7060 2386.35H7064V2366.41H7060H7056V2386.35H7060ZM7060 2346.47H7064V2326.53H7060H7056V2346.47H7060ZM7060 2306.59H7064V2286.65H7060H7056V2306.59H7060ZM7060 2266.7H7064V2246.76H7060H7056V2266.7H7060ZM7060 2226.82H7064V2206.88H7060H7056V2226.82H7060ZM7060 2186.94H7064V2167H7060H7056V2186.94H7060ZM7060 2147.05H7064V2127.11H7060H7056V2147.05H7060ZM7060 2107.17H7064V2087.23H7060H7056V2107.17H7060ZM7060 2067.29H7064V2047.35H7060H7056V2067.29H7060ZM7060 2027.41H7064V2007.46H7060H7056V2027.41H7060ZM7060 1987.52H7064V1967.58H7060H7056V1987.52H7060ZM7060 1947.64H7064V1927.7H7060H7056V1947.64H7060ZM7060 1907.76H7064V1887.82H7060H7056V1907.76H7060ZM7060 1867.87H7064V1847.93H7060H7056V1867.87H7060ZM7060 1827.99H7064V1808.05H7060H7056V1827.99H7060ZM7060 1788.11H7064V1768.17H7060H7056V1788.11H7060ZM7060 1748.23H7064V1728.28H7060H7056V1748.23H7060ZM7060 1708.34H7064V1688.4H7060H7056V1708.34H7060ZM7060 1668.46H7064V1648.52H7060H7056V1668.46H7060ZM7060 1628.58H7064V1608.64H7060H7056V1628.58H7060ZM7060 1588.69H7064V1568.75H7060H7056V1588.69H7060ZM7060 1548.81H7064V1528.87H7060H7056V1548.81H7060ZM7060 1508.93H7064V1488.99H7060H7056V1508.93H7060ZM7060 1469.05H7064V1449.1H7060H7056V1469.05H7060ZM7060 1429.16H7064V1409.22H7060H7056V1429.16H7060ZM7060 1389.28H7064V1369.34H7060H7056V1389.28H7060ZM7060 1349.4H7064V1329.46H7060H7056V1349.4H7060ZM7060 1309.52H7064V1289.57H7060H7056V1309.52H7060ZM7060 1269.63H7064V1249.69H7060H7056V1269.63H7060ZM7060 1229.75H7064V1209.81H7060H7056V1229.75H7060ZM7060 1189.87H7064V1169.93H7060H7056V1189.87H7060ZM7060 1149.98H7064V1130.04H7060H7056V1149.98H7060ZM7060 1110.1H7064V1090.16H7060H7056V1110.1H7060ZM7060 1070.22H7064V1050.28H7060H7056V1070.22H7060ZM7060 1030.34H7064V1010.39H7060H7056V1030.34H7060ZM7060 990.453H7064V970.511H7060H7056V990.453H7060ZM7060 950.57H7064V930.628H7060H7056V950.57H7060ZM7060 910.687H7064V890.746H7060H7056V910.687H7060ZM7060 870.804H7064V850.863H7060H7056V870.804H7060ZM7060 830.921H7064V810.98H7060H7056V830.921H7060ZM7060 791.039H7064V771.097H7060H7056V791.039H7060ZM7060 751.156H7064V731.214H7060H7056V751.156H7060ZM7060 711.273H7064V691.332H7060H7056V711.273H7060ZM7060 671.39H7064V651.449H7060H7056V671.39H7060ZM7060 631.507H7064V611.566H7060H7056V631.507H7060ZM7060 591.625H7064V571.683H7060H7056V591.625H7060ZM7060 551.742H7064V531.8H7060H7056V551.742H7060ZM7060 511.859H7064V491.917H7060H7056V511.859H7060ZM7060 471.976H7064V462H7060H7056V471.976H7060ZM7060 462V458H7049.98V462V466H7060V462ZM7029.93 462V458H7009.88V462V466H7029.93V462ZM6989.83 462V458H6969.78V462V466H6989.83V462ZM6949.74 462V458H6929.69V462V466H6949.74V462ZM6909.64 462V458H6889.59V462V466H6909.64V462ZM6869.54 462V458H6849.5V462V466H6869.54V462ZM6829.45 462V458H6809.4V462V466H6829.45V462ZM6789.35 462V458H6769.3V462V466H6789.35V462ZM6749.26 462V458H6729.21V462V466H6749.26V462ZM6709.16 462V458H6689.11V462V466H6709.16V462ZM6669.07 462V458H6649.02V462V466H6669.07V462ZM6628.97 462V458H6608.92V462V466H6628.97V462ZM6588.87 462V458H6568.83V462V466H6588.87V462ZM6548.78 462V458H6528.73V462V466H6548.78V462ZM6508.68 462V458H6488.63V462V466H6508.68V462ZM6468.59 462V458H6448.54V462V466H6468.59V462ZM6428.49 462V458H6408.44V462V466H6428.49V462ZM6388.39 462V458H6368.35V462V466H6388.39V462ZM6348.3 462V458H6328.25V462V466H6348.3V462ZM6308.2 462V458H6288.15V462V466H6308.2V462ZM6268.11 462V458H6248.06V462V466H6268.11V462ZM6228.01 462V458H6207.96V462V466H6228.01V462ZM6187.91 462V458H6167.87V462V466H6187.91V462ZM6147.82 462V458H6127.77V462V466H6147.82V462ZM6107.72 462V458H6087.67V462V466H6107.72V462ZM6067.63 462V458H6047.58V462V466H6067.63V462ZM6027.53 462V458H6007.48V462V466H6027.53V462ZM5987.43 462V458H5967.39V462V466H5987.43V462ZM5947.34 462V458H5927.29V462V466H5947.34V462ZM5907.24 462V458H5887.19V462V466H5907.24V462ZM5867.15 462V458H5847.1V462V466H5867.15V462ZM5827.05 462V458H5807V462V466H5827.05V462ZM5786.95 462V458H5766.91V462V466H5786.95V462ZM5746.86 462V458H5726.81V462V466H5746.86V462ZM5706.76 462V458H5686.72V462V466H5706.76V462ZM5666.67 462V458H5646.62V462V466H5666.67V462ZM5626.57 462V458H5606.52V462V466H5626.57V462ZM5586.47 462V458H5566.43V462V466H5586.47V462ZM5546.38 462V458H5526.33V462V466H5546.38V462ZM5506.28 462V458H5486.24V462V466H5506.28V462ZM5466.19 462V458H5446.14V462V466H5466.19V462ZM5426.09 462V458H5406.04V462V466H5426.09V462ZM5386 462V458H5365.95V462V466H5386V462ZM5345.9 462V458H5325.85V462V466H5345.9V462ZM5305.8 462V458H5285.76V462V466H5305.8V462ZM5265.71 462V458H5245.66V462V466H5265.71V462ZM5225.61 462V458H5205.56V462V466H5225.61V462ZM5185.52 462V458H5165.47V462V466H5185.52V462ZM5145.42 462V458H5125.37V462V466H5145.42V462ZM5105.32 462V458H5085.28V462V466H5105.32V462ZM5065.23 462V458H5045.18V462V466H5065.23V462ZM5025.13 462V458H5005.08V462V466H5025.13V462ZM4985.04 462V458H4964.99V462V466H4985.04V462ZM4944.94 462V458H4924.89V462V466H4944.94V462ZM4904.84 462V458H4884.8V462V466H4904.84V462ZM4864.75 462V458H4844.7V462V466H4864.75V462ZM4824.65 462V458H4804.61V462V466H4824.65V462ZM4784.56 462V458H4764.51V462V466H4784.56V462ZM4744.46 462V458H4724.41V462V466H4744.46V462ZM4704.37 462V458H4684.32V462V466H4704.37V462ZM4664.27 462V458H4644.22V462V466H4664.27V462ZM4624.17 462V458H4604.13V462V466H4624.17V462ZM4584.08 462V458H4564.03V462V466H4584.08V462ZM4543.98 462V458H4523.94V462V466H4543.98V462ZM4503.89 462V458H4483.84V462V466H4503.89V462ZM4463.79 462V458H4443.74V462V466H4463.79V462ZM4423.7 462V458H4403.65V462V466H4423.7V462ZM4383.6 462V458H4363.55V462V466H4383.6V462ZM4343.5 462V458H4323.46V462V466H4343.5V462ZM4303.41 462V458H4283.36V462V466H4303.41V462ZM4263.31 462V458H4243.27V462V466H4263.31V462ZM4223.22 462V458H4203.17V462V466H4223.22V462ZM4183.12 462V458H4163.07V462V466H4183.12V462ZM4143.03 462V458H4122.98V462V466H4143.03V462ZM4102.93 462V458H4082.88V462V466H4102.93V462ZM4062.83 462V458H4042.79V462V466H4062.83V462ZM4022.74 462V458H4002.69V462V466H4022.74V462ZM3982.64 462V458H3962.6V462V466H3982.64V462ZM3942.55 462V458H3922.5V462V466H3942.55V462ZM3902.45 462V458H3882.4V462V466H3902.45V462ZM3862.36 462V458H3842.31V462V466H3862.36V462ZM3822.26 462V458H3802.21V462V466H3822.26V462ZM3782.16 462V458H3762.12V462V466H3782.16V462ZM3742.07 462V458H3722.02V462V466H3742.07V462ZM3701.97 462V458H3681.93V462V466H3701.97V462ZM3661.88 462V458H3641.83V462V466H3661.88V462ZM3621.78 462V458H3601.73V462V466H3621.78V462ZM3581.69 462V458H3561.64V462V466H3581.69V462ZM3541.59 462V458H3521.54V462V466H3541.59V462ZM3501.49 462V458H3481.45V462V466H3501.49V462ZM3461.4 462V458H3441.35V462V466H3461.4V462ZM3421.3 462V458H3401.26V462V466H3421.3V462ZM3381.21 462V458H3361.16V462V466H3381.21V462ZM3341.11 462V458H3321.06V462V466H3341.11V462ZM3301.02 462V458H3280.97V462V466H3301.02V462ZM3260.92 462V458H3240.87V462V466H3260.92V462ZM3220.82 462V458H3200.78V462V466H3220.82V462ZM3180.73 462V458H3160.68V462V466H3180.73V462ZM3140.63 462V458H3120.59V462V466H3140.63V462ZM3100.54 462V458H3080.49V462V466H3100.54V462ZM3060.44 462V458H3040.39V462V466H3060.44V462ZM3020.35 462V458H3000.3V462V466H3020.35V462ZM2980.25 462V458H2960.2V462V466H2980.25V462ZM2940.16 462V458H2920.11V462V466H2940.16V462ZM2900.06 462V458H2880.01V462V466H2900.06V462ZM2859.96 462V458H2839.92V462V466H2859.96V462ZM2819.87 462V458H2799.82V462V466H2819.87V462ZM2779.77 462V458H2759.72V462V466H2779.77V462ZM2739.68 462V458H2719.63V462V466H2739.68V462ZM2699.58 462V458H2679.53V462V466H2699.58V462ZM2659.48 462V458H2639.44V462V466H2659.48V462ZM2619.39 462V458H2599.34V462V466H2619.39V462ZM2579.29 462V458H2559.25V462V466H2579.29V462ZM2539.2 462V458H2519.15V462V466H2539.2V462ZM2499.1 462V458H2479.05V462V466H2499.1V462ZM2459.01 462V458H2438.96V462V466H2459.01V462ZM2418.91 462V458H2398.86V462V466H2418.91V462ZM2378.82 462V458H2358.77V462V466H2378.82V462ZM2338.72 462V458H2318.67V462V466H2338.72V462ZM2298.62 462V458H2278.58V462V466H2298.62V462ZM2258.53 462V458H2238.48V462V466H2258.53V462ZM2218.43 462V458H2198.38V462V466H2218.43V462ZM2178.34 462V458H2158.29V462V466H2178.34V462ZM2138.24 462V458H2118.19V462V466H2138.24V462ZM2098.15 462V458H2078.1V462V466H2098.15V462ZM2058.05 462V458H2038V462V466H2058.05V462ZM2017.95 462V458H1997.91V462V466H2017.95V462ZM1977.86 462V458H1957.81V462V466H1977.86V462ZM1937.76 462V458H1917.71V462V466H1937.76V462ZM1897.67 462V458H1877.62V462V466H1897.67V462ZM1857.57 462V458H1837.52V462V466H1857.57V462ZM1817.48 462V458H1797.43V462V466H1817.48V462ZM1777.38 462V458H1757.33V462V466H1777.38V462ZM1737.28 462V458H1717.24V462V466H1737.28V462ZM1697.19 462V458H1677.14V462V466H1697.19V462ZM1657.09 462V458H1637.04V462V466H1657.09V462ZM1617 462V458H1596.95V462V466H1617V462ZM1576.9 462V458H1556.85V462V466H1576.9V462ZM1536.81 462V458H1516.76V462V466H1536.81V462ZM1496.71 462V458H1476.66V462V466H1496.71V462ZM1456.61 462V458H1436.57V462V466H1456.61V462ZM1416.52 462V458H1396.47V462V466H1416.52V462ZM1376.42 462V458H1356.37V462V466H1376.42V462ZM1336.33 462V458H1316.28V462V466H1336.33V462ZM1296.23 462V458H1276.18V462V466H1296.23V462ZM1256.14 462V458H1236.09V462V466H1256.14V462ZM1216.04 462V458H1206V462V466H1216.04V462Z" fill="#9A9A9A"/>
</g>
<g id="GolfStatus Tag">
<g id="Front - Dark Tag">
<path id="Vector" d="M6011.04 4053.7C6011.04 4030.42 6029.71 4011.87 6052.98 4011.87C6062.88 4011.87 6071.28 4013.73 6079.12 4018.54C6081.3 4019.91 6081.78 4021.89 6080.49 4024.32L6079.32 4026.26C6078.07 4028.81 6076.09 4029.13 6073.54 4027.76C6064.57 4022.91 6059.04 4022.78 6052.94 4022.78C6036.57 4022.78 6023.44 4036.36 6023.44 4053.54C6023.44 4068.98 6033.83 4084.06 6054.55 4084.06C6061.58 4084.06 6067.56 4082.32 6072.98 4078.88V4062.88H6054.8C6052.13 4062.88 6050.63 4061.26 6050.63 4058.64V4057.26C6050.63 4054.59 6052.13 4053.1 6054.8 4053.1H6080.01C6082.67 4053.1 6084.17 4054.59 6084.17 4057.26V4080.54C6084.17 4082.72 6083.24 4084.58 6080.61 4086.64C6071.4 4093.44 6061.38 4095.05 6054.03 4095.05C6029.02 4095.05 6011.08 4076.38 6011.08 4053.7" fill="white"/>
<path id="Vector_2" d="M6095.68 4053.46C6095.68 4030.54 6114.35 4011.87 6137.62 4011.87C6160.89 4011.87 6179.56 4030.54 6179.56 4053.46C6179.56 4076.38 6160.89 4095.05 6137.62 4095.05C6114.35 4095.05 6095.68 4076.38 6095.68 4053.46ZM6167.11 4053.46C6167.11 4036.08 6153.86 4022.82 6137.62 4022.82C6121.38 4022.82 6108.13 4036.08 6108.13 4053.46C6108.13 4070.84 6121.38 4084.1 6137.62 4084.1C6153.86 4084.1 6167.11 4070.84 6167.11 4053.46Z" fill="white"/>
<path id="Vector_3" d="M6193.33 4089.68V4017.33C6193.33 4014.66 6194.83 4013.17 6197.49 4013.17H6201.41C6204.08 4013.17 6205.57 4014.66 6205.57 4017.33V4083.82H6238.18C6240.84 4083.82 6242.42 4085.31 6242.42 4087.98V4089.72C6242.42 4092.39 6240.8 4093.88 6238.18 4093.88H6197.53C6194.87 4093.88 6193.37 4092.39 6193.37 4089.72" fill="white"/>
<path id="Vector_4" d="M6304.48 4017.28V4019.02C6304.48 4021.69 6302.98 4023.19 6300.32 4023.19H6265.09V4049.34H6295.27C6297.93 4049.34 6299.51 4050.83 6299.51 4053.5V4054.99C6299.51 4057.66 6297.89 4059.24 6295.27 4059.24H6265.09V4089.63C6265.09 4092.3 6263.59 4093.8 6260.93 4093.8H6257.01C6254.34 4093.8 6252.85 4092.3 6252.85 4089.63V4017.28C6252.85 4014.62 6254.34 4013.12 6257.01 4013.12H6300.32C6302.98 4013.12 6304.48 4014.62 6304.48 4017.28Z" fill="white"/>
<path id="Vector_5" d="M6312.52 4078.72C6311.39 4076.18 6312.76 4074.24 6315.27 4073.55L6318.62 4072.74C6321.17 4072.18 6322.54 4073.1 6323.79 4075.49C6326.66 4080.46 6332.76 4084.34 6340.84 4084.34C6351.22 4084.34 6357.53 4079.29 6357.53 4072.38C6357.53 4066.27 6352.48 4062.47 6345.89 4060.05L6333.93 4056.01C6318.74 4050.96 6315.06 4041.82 6315.06 4034.34C6315.06 4020.4 6327.27 4011.87 6341.2 4011.87C6353.89 4011.87 6362.86 4017.97 6366.54 4027.07C6367.59 4029.61 6366.29 4031.55 6363.79 4032.24L6360.92 4033.17C6358.37 4033.86 6356.76 4032.93 6355.63 4030.5C6352.96 4025.21 6348.03 4022.66 6341.37 4022.66C6333.77 4022.66 6327.43 4026.83 6327.43 4033.94C6327.43 4037.29 6328.48 4041.66 6337.69 4045.14L6349.65 4049.62C6363.22 4053.87 6369.44 4062.88 6369.44 4071.53C6369.44 4086.04 6357.93 4095.01 6341.12 4095.01C6326.86 4095.01 6316.72 4088.1 6312.56 4078.64" fill="white"/>
<path id="Vector_6" d="M6441.84 4017.28V4019.02C6441.84 4021.69 6440.35 4023.19 6437.68 4023.19H6415.22V4089.67C6415.22 4092.34 6413.72 4093.84 6411.06 4093.84H6407.26C6404.59 4093.84 6403.1 4092.34 6403.1 4089.67V4023.19H6380.63C6378.09 4023.19 6376.47 4021.69 6376.47 4019.02V4017.28C6376.47 4014.62 6378.09 4013.12 6380.63 4013.12H6437.64C6440.31 4013.12 6441.8 4014.62 6441.8 4017.28" fill="white"/>
<path id="Vector_7" d="M6438.53 4088.95L6466.29 4016.48C6467.1 4014.29 6468.83 4013.12 6471.14 4013.12H6477.8C6480.23 4013.12 6481.84 4014.29 6482.65 4016.48L6510.65 4088.95C6511.7 4091.82 6510.53 4093.8 6507.42 4093.8H6503.74C6501.32 4093.8 6499.7 4092.75 6498.77 4090.44L6493.8 4077.31H6455.34L6450.37 4090.44C6449.44 4092.75 6447.95 4093.8 6445.52 4093.8H6441.72C6438.61 4093.8 6437.36 4091.86 6438.49 4088.95M6490.33 4067.4L6474.45 4025L6458.77 4067.4H6490.33Z" fill="white"/>
<path id="Vector_8" d="M6572.46 4017.28V4019.02C6572.46 4021.69 6570.97 4023.19 6568.3 4023.19H6545.84V4089.67C6545.84 4092.34 6544.34 4093.84 6541.67 4093.84H6537.88C6535.21 4093.84 6533.72 4092.34 6533.72 4089.67V4023.19H6511.25C6508.71 4023.19 6507.09 4021.69 6507.09 4019.02V4017.28C6507.09 4014.62 6508.71 4013.12 6511.25 4013.12H6568.26C6570.93 4013.12 6572.42 4014.62 6572.42 4017.28" fill="white"/>
<path id="Vector_9" d="M6584.42 4063.85V4017.28C6584.42 4014.62 6586.03 4013.12 6588.58 4013.12H6592.5C6595.17 4013.12 6596.66 4014.62 6596.66 4017.28V4063.85C6596.66 4077.43 6605.87 4084.14 6616.46 4084.14C6627.04 4084.14 6636.37 4077.47 6636.37 4063.85V4017.28C6636.37 4014.62 6637.87 4013.12 6640.54 4013.12H6644.33C6647 4013.12 6648.62 4014.62 6648.62 4017.28V4063.85C6648.62 4084.34 6633.87 4095.09 6616.5 4095.09C6599.12 4095.09 6584.5 4084.38 6584.5 4063.85" fill="white"/>
<path id="Vector_10" d="M6661.22 4078.72C6660.09 4076.18 6661.47 4074.24 6663.97 4073.55L6667.32 4072.74C6669.87 4072.18 6671.24 4073.1 6672.5 4075.49C6675.36 4080.46 6681.46 4084.34 6689.54 4084.34C6699.93 4084.34 6706.23 4079.29 6706.23 4072.38C6706.23 4066.27 6701.18 4062.47 6694.59 4060.05L6682.64 4056.01C6667.44 4050.96 6663.77 4041.82 6663.77 4034.34C6663.77 4020.4 6675.97 4011.87 6689.91 4011.87C6702.59 4011.87 6711.56 4017.97 6715.24 4027.07C6716.29 4029.61 6715 4031.55 6712.49 4032.24L6709.62 4033.17C6707.08 4033.86 6705.46 4032.93 6704.33 4030.5C6701.67 4025.21 6696.74 4022.66 6690.07 4022.66C6682.47 4022.66 6676.13 4026.83 6676.13 4033.94C6676.13 4037.29 6677.18 4041.66 6686.39 4045.14L6698.35 4049.62C6711.93 4053.87 6718.15 4062.88 6718.15 4071.53C6718.15 4086.04 6706.63 4095.01 6689.83 4095.01C6675.57 4095.01 6665.42 4088.1 6661.26 4078.64" fill="white"/>
<path id="Vector_11" d="M6432.59 3979.94V3945.42H6440.03C6441.4 3945.42 6442.57 3945.58 6443.62 3945.94C6444.67 3946.31 6445.6 3946.91 6446.45 3947.84C6447.3 3948.73 6447.86 3949.82 6448.19 3951.04C6448.51 3952.25 6448.67 3953.91 6448.67 3955.97C6448.67 3957.5 6448.59 3958.84 6448.39 3959.89C6448.23 3960.94 6447.82 3961.95 6447.26 3962.88C6446.57 3964.01 6445.68 3964.9 6444.55 3965.51C6443.42 3966.15 6441.93 3966.44 6440.11 3966.44H6437.6V3979.94H6432.67H6432.59ZM6437.52 3950.07V3961.79H6439.91C6440.92 3961.79 6441.68 3961.63 6442.25 3961.34C6442.81 3961.06 6443.22 3960.66 6443.46 3960.13C6443.7 3959.65 6443.86 3959.04 6443.91 3958.35C6443.95 3957.62 6443.99 3956.86 6443.99 3955.97C6443.99 3955.16 6443.99 3954.39 6443.95 3953.66C6443.95 3952.94 6443.78 3952.29 6443.5 3951.76C6443.26 3951.2 6442.86 3950.79 6442.33 3950.51C6441.8 3950.23 6441.08 3950.07 6440.11 3950.07H6437.52Z" fill="white"/>
<path id="Vector_12" d="M6462.45 3953.59C6462.45 3952.22 6462.69 3950.96 6463.18 3949.91C6463.66 3948.86 6464.31 3947.97 6465.12 3947.24C6465.88 3946.56 6466.77 3946.03 6467.74 3945.71C6468.71 3945.35 6469.72 3945.18 6470.73 3945.18C6471.74 3945.18 6472.71 3945.35 6473.72 3945.71C6474.69 3946.07 6475.62 3946.6 6476.43 3947.24C6477.2 3947.97 6477.84 3948.86 6478.33 3949.91C6478.81 3950.96 6479.05 3952.22 6479.05 3953.59V3971.82C6479.05 3973.27 6478.81 3974.53 6478.33 3975.54C6477.84 3976.55 6477.2 3977.44 6476.43 3978.12C6475.62 3978.85 6474.73 3979.38 6473.72 3979.74C6472.71 3980.1 6471.74 3980.27 6470.73 3980.27C6469.72 3980.27 6468.75 3980.1 6467.74 3979.74C6466.77 3979.38 6465.88 3978.85 6465.12 3978.12C6464.31 3977.44 6463.66 3976.59 6463.18 3975.54C6462.69 3974.49 6462.45 3973.27 6462.45 3971.82V3953.59ZM6467.38 3971.82C6467.38 3973.03 6467.7 3973.88 6468.39 3974.45C6469.03 3975.01 6469.84 3975.3 6470.73 3975.3C6471.62 3975.3 6472.43 3975.01 6473.07 3974.45C6473.72 3973.88 6474.08 3972.99 6474.08 3971.82V3953.59C6474.08 3952.38 6473.76 3951.53 6473.07 3950.96C6472.43 3950.4 6471.62 3950.11 6470.73 3950.11C6469.84 3950.11 6469.03 3950.4 6468.39 3950.96C6467.74 3951.53 6467.38 3952.42 6467.38 3953.59V3971.82Z" fill="white"/>
<path id="Vector_13" d="M6518.89 3945.42L6513.76 3979.94H6509.11L6505.31 3957.54H6505.23L6501.52 3979.94H6496.87L6491.74 3945.42H6496.99L6499.46 3967.32H6499.54L6503.42 3945.42H6507.21L6511.25 3967.89H6511.33L6513.72 3945.42H6518.97H6518.89Z" fill="white"/>
<path id="Vector_14" d="M6532.38 3979.94V3945.42H6547.13V3950.07H6537.35V3960.21H6545.88V3964.86H6537.35V3975H6547.13V3979.94H6532.38Z" fill="white"/>
<path id="Vector_15" d="M6560.75 3979.94V3945.42H6568.7C6574.52 3945.42 6577.43 3948.81 6577.43 3955.56C6577.43 3957.58 6577.11 3959.32 6576.5 3960.74C6575.86 3962.15 6574.76 3963.32 6573.19 3964.17L6578.52 3979.94H6573.27L6568.66 3965.18H6565.71V3979.94H6560.79H6560.75ZM6565.71 3950.07V3960.82H6568.54C6569.43 3960.82 6570.12 3960.7 6570.64 3960.45C6571.17 3960.21 6571.57 3959.85 6571.86 3959.4C6572.1 3958.96 6572.3 3958.39 6572.38 3957.75C6572.46 3957.1 6572.54 3956.33 6572.54 3955.44C6572.54 3954.55 6572.5 3953.78 6572.38 3953.14C6572.3 3952.49 6572.1 3951.88 6571.82 3951.4C6571.21 3950.51 6570.04 3950.03 6568.34 3950.03H6565.76L6565.71 3950.07Z" fill="white"/>
<path id="Vector_16" d="M6591.86 3979.94V3945.42H6606.6V3950.07H6596.83V3960.21H6605.35V3964.86H6596.83V3975H6606.6V3979.94H6591.86Z" fill="white"/>
<path id="Vector_17" d="M6620.22 3979.94V3945.42H6627.53C6630.36 3945.42 6632.54 3946.19 6633.99 3947.76C6635.45 3949.3 6636.21 3951.52 6636.21 3954.35V3970.52C6636.21 3973.75 6635.45 3976.14 6633.87 3977.67C6632.3 3979.21 6630.03 3979.98 6627.12 3979.98H6620.26L6620.22 3979.94ZM6625.14 3950.07V3975.29H6627.41C6628.78 3975.29 6629.79 3974.92 6630.36 3974.24C6630.92 3973.55 6631.24 3972.46 6631.24 3970.96V3954.31C6631.24 3952.94 6630.96 3951.88 6630.44 3951.16C6629.87 3950.43 6628.9 3950.03 6627.45 3950.03H6625.18L6625.14 3950.07Z" fill="white"/>
<path id="Vector_18" d="M6670.72 3979.94V3945.42H6677.95C6679.52 3945.42 6680.9 3945.66 6681.99 3946.15C6683.12 3946.63 6684.01 3947.28 6684.74 3948.09C6685.46 3948.89 6685.95 3949.82 6686.27 3950.87C6686.59 3951.93 6686.72 3953.02 6686.72 3954.15V3955.4C6686.72 3956.33 6686.64 3957.14 6686.51 3957.79C6686.35 3958.43 6686.15 3959 6685.87 3959.48C6685.3 3960.37 6684.49 3961.18 6683.36 3961.83C6684.53 3962.39 6685.38 3963.2 6685.95 3964.25C6686.51 3965.3 6686.76 3966.76 6686.76 3968.62V3970.56C6686.76 3973.59 6686.03 3975.93 6684.53 3977.55C6683.08 3979.17 6680.7 3979.98 6677.46 3979.98H6670.72V3979.94ZM6675.65 3950.07V3959.56H6677.87C6679.52 3959.56 6680.62 3959.16 6681.18 3958.31C6681.75 3957.46 6682.03 3956.29 6682.03 3954.71C6682.03 3953.14 6681.71 3952.01 6681.1 3951.24C6680.45 3950.47 6679.32 3950.07 6677.67 3950.07H6675.65ZM6675.65 3963.93V3975H6677.79C6678.8 3975 6679.56 3974.84 6680.13 3974.56C6680.7 3974.28 6681.14 3973.87 6681.42 3973.35C6681.71 3972.82 6681.91 3972.22 6681.95 3971.49C6682.03 3970.76 6682.03 3969.99 6682.03 3969.14C6682.03 3968.29 6681.99 3967.53 6681.87 3966.88C6681.79 3966.23 6681.59 3965.67 6681.3 3965.22C6680.98 3964.78 6680.53 3964.45 6680.01 3964.21C6679.48 3963.97 6678.72 3963.89 6677.83 3963.89H6675.65V3963.93Z" fill="white"/>
<path id="Vector_19" d="M6706.39 3979.94V3965.34L6699.61 3945.42H6704.86L6708.82 3959.16H6708.9L6712.86 3945.42H6718.11L6711.32 3965.34V3979.94H6706.39Z" fill="white"/>
<g id="Layer_1">
<path id="Vector_20" d="M6933.73 4121H6797.62C6779.76 4121 6765.22 4106.45 6765.22 4088.58V3952.42C6765.22 3934.55 6779.76 3920 6797.62 3920H6933.73C6951.59 3920 6966.13 3934.55 6966.13 3952.42V4088.58C6966.13 4106.45 6951.59 4121 6933.73 4121ZM6797.66 3923.76C6781.86 3923.76 6768.97 3936.61 6768.97 3952.42V4088.58C6768.97 4104.39 6781.82 4117.24 6797.66 4117.24H6933.77C6949.57 4117.24 6962.46 4104.39 6962.46 4088.58V3952.42C6962.46 3936.61 6949.61 3923.76 6933.77 3923.76H6797.66Z" fill="white"/>
<path id="Vector_21" d="M6865.69 3946.76C6833.78 3946.76 6807.84 3972.91 6807.84 4005.08C6807.84 4016.48 6811.11 4027.51 6817.29 4037.01L6817.45 4037.25C6818.14 4038.3 6818.91 4039.39 6819.68 4040.4L6859.07 4091.53C6859.07 4091.53 6859.07 4091.53 6859.07 4091.57L6861.05 4094.28V4091.49C6861.05 4071.77 6855.11 4064.01 6853.01 4060.78C6852.6 4060.13 6852.73 4059.04 6852.68 4058.11C6852.68 4057.62 6853.09 4057.26 6853.53 4057.3C6857.49 4058.35 6861.57 4058.88 6865.73 4058.88C6869.9 4058.88 6874.02 4058.35 6877.98 4057.3C6878.38 4057.3 6878.7 4057.66 6878.7 4058.11C6878.7 4059 6878.82 4060.13 6878.38 4060.78C6876.28 4064.01 6870.34 4071.77 6870.34 4091.49V4094.08L6873.13 4090.44L6911.35 4040.77C6919.31 4030.46 6923.51 4018.09 6923.51 4005.04C6923.51 3972.91 6897.57 3946.71 6865.65 3946.71L6865.69 3946.76ZM6894.14 4042.99C6885.81 4049.13 6876 4052.37 6865.73 4052.37C6850.38 4052.37 6835.8 4044.89 6826.75 4032.4C6811.07 4010.78 6815.8 3980.3 6837.25 3964.5C6845.57 3958.36 6855.39 3955.12 6865.65 3955.12C6881.01 3955.12 6895.59 3962.6 6904.64 3975.09C6920.32 3996.71 6915.59 4027.19 6894.14 4042.99Z" fill="white"/>
</g>
</g>
<g id="Front - Light Tag">
<path id="Vector_22" d="M6011.04 4049.66C6011.04 4026.38 6029.71 4007.83 6052.98 4007.83C6062.88 4007.83 6071.28 4009.69 6079.12 4014.5C6081.3 4015.87 6081.78 4017.85 6080.49 4020.28L6079.32 4022.22C6078.07 4024.76 6076.09 4025.09 6073.54 4023.71C6064.57 4018.86 6059.04 4018.74 6052.94 4018.74C6036.57 4018.74 6023.44 4032.32 6023.44 4049.5C6023.44 4064.94 6033.83 4080.02 6054.55 4080.02C6061.58 4080.02 6067.56 4078.28 6072.98 4074.84V4058.84H6054.8C6052.13 4058.84 6050.63 4057.22 6050.63 4054.59V4053.22C6050.63 4050.55 6052.13 4049.05 6054.8 4049.05H6080.01C6082.67 4049.05 6084.17 4050.55 6084.17 4053.22V4076.5C6084.17 4078.68 6083.24 4080.54 6080.61 4082.6C6071.4 4089.39 6061.38 4091.01 6054.03 4091.01C6029.02 4091.01 6011.08 4072.34 6011.08 4049.66" fill="black"/>
<path id="Vector_23" d="M6095.68 4049.42C6095.68 4026.5 6114.35 4007.83 6137.62 4007.83C6160.89 4007.83 6179.56 4026.5 6179.56 4049.42C6179.56 4072.34 6160.89 4091.01 6137.62 4091.01C6114.35 4091.01 6095.68 4072.34 6095.68 4049.42ZM6167.11 4049.42C6167.11 4032.04 6153.86 4018.78 6137.62 4018.78C6121.38 4018.78 6108.13 4032.04 6108.13 4049.42C6108.13 4066.8 6121.38 4080.06 6137.62 4080.06C6153.86 4080.06 6167.11 4066.8 6167.11 4049.42Z" fill="black"/>
<path id="Vector_24" d="M6193.33 4085.64V4013.29C6193.33 4010.62 6194.83 4009.12 6197.49 4009.12H6201.41C6204.08 4009.12 6205.57 4010.62 6205.57 4013.29V4079.78H6238.18C6240.84 4079.78 6242.42 4081.27 6242.42 4083.94V4085.68C6242.42 4088.34 6240.8 4089.84 6238.18 4089.84H6197.53C6194.87 4089.84 6193.37 4088.34 6193.37 4085.68" fill="black"/>
<path id="Vector_25" d="M6304.48 4013.24V4014.98C6304.48 4017.65 6302.98 4019.14 6300.32 4019.14H6265.09V4045.29H6295.27C6297.93 4045.29 6299.51 4046.79 6299.51 4049.46V4050.95C6299.51 4053.62 6297.89 4055.2 6295.27 4055.2H6265.09V4085.59C6265.09 4088.26 6263.59 4089.75 6260.93 4089.75H6257.01C6254.34 4089.75 6252.85 4088.26 6252.85 4085.59V4013.24C6252.85 4010.57 6254.34 4009.08 6257.01 4009.08H6300.32C6302.98 4009.08 6304.48 4010.57 6304.48 4013.24Z" fill="black"/>
<path id="Vector_26" d="M6312.52 4074.68C6311.39 4072.13 6312.76 4070.19 6315.27 4069.51L6318.62 4068.7C6321.17 4068.13 6322.54 4069.06 6323.79 4071.45C6326.66 4076.42 6332.76 4080.3 6340.84 4080.3C6351.22 4080.3 6357.53 4075.25 6357.53 4068.33C6357.53 4062.23 6352.48 4058.43 6345.89 4056.01L6333.93 4051.96C6318.74 4046.91 6315.06 4037.78 6315.06 4030.3C6315.06 4016.36 6327.27 4007.83 6341.2 4007.83C6353.89 4007.83 6362.86 4013.93 6366.54 4023.03C6367.59 4025.57 6366.29 4027.51 6363.79 4028.2L6360.92 4029.13C6358.37 4029.82 6356.76 4028.89 6355.63 4026.46C6352.96 4021.17 6348.03 4018.62 6341.37 4018.62C6333.77 4018.62 6327.43 4022.78 6327.43 4029.9C6327.43 4033.25 6328.48 4037.62 6337.69 4041.09L6349.65 4045.58C6363.22 4049.82 6369.44 4058.84 6369.44 4067.49C6369.44 4082 6357.93 4090.97 6341.12 4090.97C6326.86 4090.97 6316.72 4084.06 6312.56 4074.6" fill="black"/>
<path id="Vector_27" d="M6441.84 4013.24V4014.98C6441.84 4017.65 6440.35 4019.14 6437.68 4019.14H6415.22V4085.63C6415.22 4088.3 6413.72 4089.79 6411.06 4089.79H6407.26C6404.59 4089.79 6403.1 4088.3 6403.1 4085.63V4019.14H6380.63C6378.09 4019.14 6376.47 4017.65 6376.47 4014.98V4013.24C6376.47 4010.57 6378.09 4009.08 6380.63 4009.08H6437.64C6440.31 4009.08 6441.8 4010.57 6441.8 4013.24" fill="black"/>
<path id="Vector_28" d="M6438.53 4084.9L6466.29 4012.43C6467.1 4010.25 6468.83 4009.08 6471.14 4009.08H6477.8C6480.23 4009.08 6481.84 4010.25 6482.65 4012.43L6510.65 4084.9C6511.7 4087.77 6510.53 4089.75 6507.42 4089.75H6503.74C6501.32 4089.75 6499.7 4088.7 6498.77 4086.4L6493.8 4073.26H6455.34L6450.37 4086.4C6449.44 4088.7 6447.95 4089.75 6445.52 4089.75H6441.72C6438.61 4089.75 6437.36 4087.81 6438.49 4084.9M6490.33 4063.36L6474.45 4020.96L6458.77 4063.36H6490.33Z" fill="black"/>
<path id="Vector_29" d="M6572.46 4013.24V4014.98C6572.46 4017.65 6570.97 4019.14 6568.3 4019.14H6545.84V4085.63C6545.84 4088.3 6544.34 4089.79 6541.67 4089.79H6537.88C6535.21 4089.79 6533.72 4088.3 6533.72 4085.63V4019.14H6511.25C6508.71 4019.14 6507.09 4017.65 6507.09 4014.98V4013.24C6507.09 4010.57 6508.71 4009.08 6511.25 4009.08H6568.26C6570.93 4009.08 6572.42 4010.57 6572.42 4013.24" fill="black"/>
<path id="Vector_30" d="M6584.42 4059.8V4013.24C6584.42 4010.57 6586.03 4009.08 6588.58 4009.08H6592.5C6595.17 4009.08 6596.66 4010.57 6596.66 4013.24V4059.8C6596.66 4073.38 6605.87 4080.09 6616.46 4080.09C6627.04 4080.09 6636.37 4073.42 6636.37 4059.8V4013.24C6636.37 4010.57 6637.87 4009.08 6640.54 4009.08H6644.33C6647 4009.08 6648.62 4010.57 6648.62 4013.24V4059.8C6648.62 4080.3 6633.87 4091.05 6616.5 4091.05C6599.12 4091.05 6584.5 4080.34 6584.5 4059.8" fill="black"/>
<path id="Vector_31" d="M6661.22 4074.68C6660.09 4072.13 6661.47 4070.19 6663.97 4069.51L6667.32 4068.7C6669.87 4068.13 6671.24 4069.06 6672.5 4071.45C6675.36 4076.42 6681.46 4080.3 6689.54 4080.3C6699.93 4080.3 6706.23 4075.25 6706.23 4068.33C6706.23 4062.23 6701.18 4058.43 6694.59 4056.01L6682.64 4051.96C6667.44 4046.91 6663.77 4037.78 6663.77 4030.3C6663.77 4016.36 6675.97 4007.83 6689.91 4007.83C6702.59 4007.83 6711.56 4013.93 6715.24 4023.03C6716.29 4025.57 6715 4027.51 6712.49 4028.2L6709.62 4029.13C6707.08 4029.82 6705.46 4028.89 6704.33 4026.46C6701.67 4021.17 6696.74 4018.62 6690.07 4018.62C6682.47 4018.62 6676.13 4022.78 6676.13 4029.9C6676.13 4033.25 6677.18 4037.62 6686.39 4041.09L6698.35 4045.58C6711.93 4049.82 6718.15 4058.84 6718.15 4067.49C6718.15 4082 6706.63 4090.97 6689.83 4090.97C6675.57 4090.97 6665.42 4084.06 6661.26 4074.6" fill="black"/>
<path id="Vector_32" d="M6432.59 3975.89V3941.38H6440.03C6441.4 3941.38 6442.57 3941.54 6443.62 3941.9C6444.67 3942.26 6445.6 3942.87 6446.45 3943.8C6447.3 3944.69 6447.86 3945.78 6448.19 3946.99C6448.51 3948.21 6448.67 3949.86 6448.67 3951.92C6448.67 3953.46 6448.59 3954.79 6448.39 3955.84C6448.23 3956.9 6447.82 3957.91 6447.26 3958.84C6446.57 3959.97 6445.68 3960.86 6444.55 3961.46C6443.42 3962.11 6441.93 3962.39 6440.11 3962.39H6437.6V3975.89H6432.67H6432.59ZM6437.52 3946.02V3957.74H6439.91C6440.92 3957.74 6441.68 3957.58 6442.25 3957.3C6442.81 3957.02 6443.22 3956.61 6443.46 3956.09C6443.7 3955.6 6443.86 3955 6443.91 3954.31C6443.95 3953.58 6443.99 3952.81 6443.99 3951.92C6443.99 3951.12 6443.99 3950.35 6443.95 3949.62C6443.95 3948.89 6443.78 3948.25 6443.5 3947.72C6443.26 3947.15 6442.86 3946.75 6442.33 3946.47C6441.8 3946.18 6441.08 3946.02 6440.11 3946.02H6437.52Z" fill="black"/>
<path id="Vector_33" d="M6462.45 3949.55C6462.45 3948.17 6462.69 3946.92 6463.18 3945.87C6463.66 3944.82 6464.31 3943.93 6465.12 3943.2C6465.88 3942.51 6466.77 3941.99 6467.74 3941.67C6468.71 3941.3 6469.72 3941.14 6470.73 3941.14C6471.74 3941.14 6472.71 3941.3 6473.72 3941.67C6474.69 3942.03 6475.62 3942.56 6476.43 3943.2C6477.2 3943.93 6477.84 3944.82 6478.33 3945.87C6478.81 3946.92 6479.05 3948.17 6479.05 3949.55V3967.78C6479.05 3969.23 6478.81 3970.48 6478.33 3971.49C6477.84 3972.51 6477.2 3973.39 6476.43 3974.08C6475.62 3974.81 6474.73 3975.33 6473.72 3975.7C6472.71 3976.06 6471.74 3976.22 6470.73 3976.22C6469.72 3976.22 6468.75 3976.06 6467.74 3975.7C6466.77 3975.33 6465.88 3974.81 6465.12 3974.08C6464.31 3973.39 6463.66 3972.55 6463.18 3971.49C6462.69 3970.44 6462.45 3969.23 6462.45 3967.78V3949.55ZM6467.38 3967.78C6467.38 3968.99 6467.7 3969.84 6468.39 3970.4C6469.03 3970.97 6469.84 3971.25 6470.73 3971.25C6471.62 3971.25 6472.43 3970.97 6473.07 3970.4C6473.72 3969.84 6474.08 3968.95 6474.08 3967.78V3949.55C6474.08 3948.34 6473.76 3947.49 6473.07 3946.92C6472.43 3946.35 6471.62 3946.07 6470.73 3946.07C6469.84 3946.07 6469.03 3946.35 6468.39 3946.92C6467.74 3947.49 6467.38 3948.38 6467.38 3949.55V3967.78Z" fill="black"/>
<path id="Vector_34" d="M6518.89 3941.38L6513.76 3975.89H6509.11L6505.31 3953.5H6505.23L6501.52 3975.89H6496.87L6491.74 3941.38H6496.99L6499.46 3963.28H6499.54L6503.42 3941.38H6507.21L6511.25 3963.85H6511.33L6513.72 3941.38H6518.97H6518.89Z" fill="black"/>
<path id="Vector_35" d="M6532.38 3975.89V3941.38H6547.13V3946.02H6537.35V3956.17H6545.88V3960.82H6537.35V3970.96H6547.13V3975.89H6532.38Z" fill="black"/>
<path id="Vector_36" d="M6560.75 3975.89V3941.38H6568.7C6574.52 3941.38 6577.43 3944.77 6577.43 3951.52C6577.43 3953.54 6577.11 3955.28 6576.5 3956.69C6575.86 3958.11 6574.76 3959.28 6573.19 3960.13L6578.52 3975.89H6573.27L6568.66 3961.14H6565.71V3975.89H6560.79H6560.75ZM6565.71 3946.02V3956.77H6568.54C6569.43 3956.77 6570.12 3956.65 6570.64 3956.41C6571.17 3956.17 6571.57 3955.8 6571.86 3955.36C6572.1 3954.92 6572.3 3954.35 6572.38 3953.7C6572.46 3953.06 6572.54 3952.29 6572.54 3951.4C6572.54 3950.51 6572.5 3949.74 6572.38 3949.09C6572.3 3948.45 6572.1 3947.84 6571.82 3947.36C6571.21 3946.47 6570.04 3945.98 6568.34 3945.98H6565.76L6565.71 3946.02Z" fill="black"/>
<path id="Vector_37" d="M6591.86 3975.89V3941.38H6606.6V3946.02H6596.83V3956.17H6605.35V3960.82H6596.83V3970.96H6606.6V3975.89H6591.86Z" fill="black"/>
<path id="Vector_38" d="M6620.22 3975.89V3941.38H6627.53C6630.36 3941.38 6632.54 3942.14 6633.99 3943.72C6635.45 3945.26 6636.21 3947.48 6636.21 3950.31V3966.47C6636.21 3969.71 6635.45 3972.09 6633.87 3973.63C6632.3 3975.16 6630.03 3975.93 6627.12 3975.93H6620.26L6620.22 3975.89ZM6625.14 3946.02V3971.24H6627.41C6628.78 3971.24 6629.79 3970.88 6630.36 3970.19C6630.92 3969.51 6631.24 3968.41 6631.24 3966.92V3950.27C6631.24 3948.89 6630.96 3947.84 6630.44 3947.11C6629.87 3946.39 6628.9 3945.98 6627.45 3945.98H6625.18L6625.14 3946.02Z" fill="black"/>
<path id="Vector_39" d="M6670.72 3975.89V3941.38H6677.95C6679.52 3941.38 6680.9 3941.62 6681.99 3942.1C6683.12 3942.59 6684.01 3943.23 6684.74 3944.04C6685.46 3944.85 6685.95 3945.78 6686.27 3946.83C6686.59 3947.88 6686.72 3948.97 6686.72 3950.11V3951.36C6686.72 3952.29 6686.64 3953.1 6686.51 3953.74C6686.35 3954.39 6686.15 3954.96 6685.87 3955.44C6685.3 3956.33 6684.49 3957.14 6683.36 3957.78C6684.53 3958.35 6685.38 3959.16 6685.95 3960.21C6686.51 3961.26 6686.76 3962.72 6686.76 3964.58V3966.52C6686.76 3969.55 6686.03 3971.89 6684.53 3973.51C6683.08 3975.12 6680.7 3975.93 6677.46 3975.93H6670.72V3975.89ZM6675.65 3946.02V3955.52H6677.87C6679.52 3955.52 6680.62 3955.12 6681.18 3954.27C6681.75 3953.42 6682.03 3952.25 6682.03 3950.67C6682.03 3949.09 6681.71 3947.96 6681.1 3947.2C6680.45 3946.43 6679.32 3946.02 6677.67 3946.02H6675.65ZM6675.65 3959.89V3970.96H6677.79C6678.8 3970.96 6679.56 3970.8 6680.13 3970.52C6680.7 3970.23 6681.14 3969.83 6681.42 3969.3C6681.71 3968.78 6681.91 3968.17 6681.95 3967.44C6682.03 3966.72 6682.03 3965.95 6682.03 3965.1C6682.03 3964.25 6681.99 3963.48 6681.87 3962.84C6681.79 3962.19 6681.59 3961.62 6681.3 3961.18C6680.98 3960.74 6680.53 3960.41 6680.01 3960.17C6679.48 3959.93 6678.72 3959.85 6677.83 3959.85H6675.65V3959.89Z" fill="black"/>
<path id="Vector_40" d="M6706.39 3975.89V3961.3L6699.61 3941.38H6704.86L6708.82 3955.12H6708.9L6712.86 3941.38H6718.11L6711.32 3961.3V3975.89H6706.39Z" fill="black"/>
<g id="Layer_1_2">
<path id="Vector_41" d="M6933.73 4116.96H6797.62C6779.76 4116.96 6765.22 4102.41 6765.22 4084.54V3948.37C6765.22 3930.51 6779.76 3915.96 6797.62 3915.96H6933.73C6951.59 3915.96 6966.13 3930.51 6966.13 3948.37V4084.54C6966.13 4102.41 6951.59 4116.96 6933.73 4116.96ZM6797.66 3919.72C6781.86 3919.72 6768.97 3932.57 6768.97 3948.37V4084.54C6768.97 4100.35 6781.82 4113.2 6797.66 4113.2H6933.77C6949.57 4113.2 6962.46 4100.35 6962.46 4084.54V3948.37C6962.46 3932.57 6949.61 3919.72 6933.77 3919.72H6797.66Z" fill="black"/>
<path id="Vector_42" d="M6865.69 3942.71C6833.78 3942.71 6807.84 3968.86 6807.84 4001.04C6807.84 4012.43 6811.11 4023.47 6817.29 4032.97L6817.45 4033.21C6818.14 4034.26 6818.91 4035.35 6819.68 4036.36L6859.07 4087.49C6859.07 4087.49 6859.07 4087.49 6859.07 4087.53L6861.05 4090.24V4087.45C6861.05 4067.73 6855.11 4059.97 6853.01 4056.73C6852.6 4056.09 6852.73 4054.99 6852.68 4054.06C6852.68 4053.58 6853.09 4053.22 6853.53 4053.26C6857.49 4054.31 6861.57 4054.83 6865.73 4054.83C6869.9 4054.83 6874.02 4054.31 6877.98 4053.26C6878.38 4053.26 6878.7 4053.62 6878.7 4054.06C6878.7 4054.95 6878.82 4056.09 6878.38 4056.73C6876.28 4059.97 6870.34 4067.73 6870.34 4087.45V4090.04L6873.13 4086.4L6911.35 4036.73C6919.31 4026.42 6923.51 4014.05 6923.51 4001C6923.51 3968.86 6897.57 3942.67 6865.65 3942.67L6865.69 3942.71ZM6894.14 4038.95C6885.81 4045.09 6876 4048.33 6865.73 4048.33C6850.38 4048.33 6835.8 4040.85 6826.75 4028.36C6811.07 4006.73 6815.8 3976.26 6837.25 3960.46C6845.57 3954.31 6855.39 3951.08 6865.65 3951.08C6881.01 3951.08 6895.59 3958.56 6904.64 3971.05C6920.32 3992.67 6915.59 4023.14 6894.14 4038.95Z" fill="black"/>
</g>
</g>
<g id="Back - Dark Tag">
<path id="Vector_43" d="M6257.89 4053.7C6257.89 4030.42 6276.56 4011.87 6299.83 4011.87C6309.73 4011.87 6318.13 4013.73 6325.97 4018.54C6328.15 4019.91 6328.63 4021.89 6327.34 4024.32L6326.17 4026.26C6324.92 4028.81 6322.94 4029.13 6320.39 4027.76C6311.42 4022.91 6305.89 4022.78 6299.79 4022.78C6283.43 4022.78 6270.3 4036.36 6270.3 4053.54C6270.3 4068.98 6280.68 4084.06 6301.4 4084.06C6308.43 4084.06 6314.41 4082.32 6319.83 4078.88V4062.88H6301.65C6298.98 4062.88 6297.49 4061.26 6297.49 4058.64V4057.26C6297.49 4054.59 6298.98 4053.1 6301.65 4053.1H6326.86C6329.52 4053.1 6331.02 4054.59 6331.02 4057.26V4080.54C6331.02 4082.72 6330.09 4084.58 6327.46 4086.64C6318.25 4093.44 6308.23 4095.05 6300.88 4095.05C6275.87 4095.05 6257.93 4076.38 6257.93 4053.7" fill="white"/>
<path id="Vector_44" d="M6342.53 4053.46C6342.53 4030.54 6361.2 4011.87 6384.47 4011.87C6407.74 4011.87 6426.41 4030.54 6426.41 4053.46C6426.41 4076.38 6407.74 4095.05 6384.47 4095.05C6361.2 4095.05 6342.53 4076.38 6342.53 4053.46ZM6413.92 4053.46C6413.92 4036.08 6400.67 4022.82 6384.43 4022.82C6368.19 4022.82 6354.94 4036.08 6354.94 4053.46C6354.94 4070.84 6368.19 4084.1 6384.43 4084.1C6400.67 4084.1 6413.92 4070.84 6413.92 4053.46Z" fill="white"/>
<path id="Vector_45" d="M6440.18 4089.68V4017.33C6440.18 4014.66 6441.68 4013.17 6444.35 4013.17H6448.26C6450.93 4013.17 6452.43 4014.66 6452.43 4017.33V4083.82H6485.03C6487.7 4083.82 6489.27 4085.31 6489.27 4087.98V4089.72C6489.27 4092.39 6487.66 4093.88 6485.03 4093.88H6444.39C6441.72 4093.88 6440.22 4092.39 6440.22 4089.72" fill="white"/>
<path id="Vector_46" d="M6551.33 4017.28V4019.02C6551.33 4021.69 6549.84 4023.19 6547.17 4023.19H6511.94V4049.34H6542.12C6544.79 4049.34 6546.36 4050.83 6546.36 4053.5V4054.99C6546.36 4057.66 6544.75 4059.24 6542.12 4059.24H6511.94V4089.63C6511.94 4092.3 6510.44 4093.8 6507.78 4093.8H6503.86C6501.19 4093.8 6499.7 4092.3 6499.7 4089.63V4017.28C6499.7 4014.62 6501.19 4013.12 6503.86 4013.12H6547.17C6549.84 4013.12 6551.33 4014.62 6551.33 4017.28Z" fill="white"/>
<path id="Vector_47" d="M6559.37 4078.72C6558.24 4076.18 6559.61 4074.24 6562.12 4073.55L6565.47 4072.74C6568.02 4072.18 6569.39 4073.1 6570.64 4075.49C6573.51 4080.46 6579.61 4084.34 6587.69 4084.34C6598.08 4084.34 6604.38 4079.29 6604.38 4072.38C6604.38 4066.27 6599.33 4062.47 6592.74 4060.05L6580.78 4056.01C6565.59 4050.96 6561.92 4041.82 6561.92 4034.34C6561.92 4020.4 6574.12 4011.87 6588.06 4011.87C6600.74 4011.87 6609.71 4017.97 6613.39 4027.07C6614.44 4029.61 6613.15 4031.55 6610.64 4032.24L6607.77 4033.17C6605.23 4033.86 6603.61 4032.93 6602.48 4030.5C6599.81 4025.21 6594.88 4022.66 6588.22 4022.66C6580.62 4022.66 6574.28 4026.83 6574.28 4033.94C6574.28 4037.29 6575.33 4041.66 6584.54 4045.14L6596.5 4049.62C6610.07 4053.87 6616.3 4062.88 6616.3 4071.53C6616.3 4086.04 6604.78 4095.01 6587.97 4095.01C6573.71 4095.01 6563.57 4088.1 6559.41 4078.64" fill="white"/>
<path id="Vector_48" d="M6688.69 4017.28V4019.02C6688.69 4021.69 6687.2 4023.19 6684.53 4023.19H6662.07V4089.67C6662.07 4092.34 6660.57 4093.84 6657.91 4093.84H6654.11C6651.44 4093.84 6649.95 4092.34 6649.95 4089.67V4023.19H6627.49C6624.94 4023.19 6623.32 4021.69 6623.32 4019.02V4017.28C6623.32 4014.62 6624.94 4013.12 6627.49 4013.12H6684.49C6687.16 4013.12 6688.65 4014.62 6688.65 4017.28" fill="white"/>
<path id="Vector_49" d="M6685.34 4088.95L6713.1 4016.48C6713.9 4014.29 6715.64 4013.12 6717.94 4013.12H6724.61C6727.03 4013.12 6728.65 4014.29 6729.46 4016.48L6757.46 4088.95C6758.51 4091.82 6757.33 4093.8 6754.22 4093.8H6750.55C6748.12 4093.8 6746.51 4092.75 6745.58 4090.44L6740.61 4077.31H6702.15L6697.18 4090.44C6696.25 4092.75 6694.75 4093.8 6692.33 4093.8H6688.53C6685.42 4093.8 6684.17 4091.86 6685.3 4088.95M6737.17 4067.4L6721.3 4025L6705.62 4067.4H6737.17Z" fill="white"/>
<path id="Vector_50" d="M6819.27 4017.28V4019.02C6819.27 4021.69 6817.78 4023.19 6815.11 4023.19H6792.65V4089.67C6792.65 4092.34 6791.15 4093.84 6788.49 4093.84H6784.69C6782.02 4093.84 6780.53 4092.34 6780.53 4089.67V4023.19H6758.06C6755.52 4023.19 6753.9 4021.69 6753.9 4019.02V4017.28C6753.9 4014.62 6755.52 4013.12 6758.06 4013.12H6815.07C6817.74 4013.12 6819.23 4014.62 6819.23 4017.28" fill="white"/>
<path id="Vector_51" d="M6831.27 4063.85V4017.28C6831.27 4014.62 6832.89 4013.12 6835.43 4013.12H6839.35C6842.02 4013.12 6843.51 4014.62 6843.51 4017.28V4063.85C6843.51 4077.43 6852.72 4084.14 6863.31 4084.14C6873.89 4084.14 6883.23 4077.47 6883.23 4063.85V4017.28C6883.23 4014.62 6884.72 4013.12 6887.39 4013.12H6891.19C6893.85 4013.12 6895.47 4014.62 6895.47 4017.28V4063.85C6895.47 4084.34 6880.72 4095.09 6863.35 4095.09C6845.98 4095.09 6831.35 4084.38 6831.35 4063.85" fill="white"/>
<path id="Vector_52" d="M6908.07 4078.72C6906.94 4076.18 6908.32 4074.24 6910.82 4073.55L6914.18 4072.74C6916.72 4072.18 6918.09 4073.1 6919.35 4075.49C6922.22 4080.46 6928.32 4084.34 6936.4 4084.34C6946.78 4084.34 6953.08 4079.29 6953.08 4072.38C6953.08 4066.27 6948.03 4062.47 6941.45 4060.05L6929.49 4056.01C6914.3 4050.96 6910.62 4041.82 6910.62 4034.34C6910.62 4020.4 6922.82 4011.87 6936.76 4011.87C6949.45 4011.87 6958.41 4017.97 6962.09 4027.07C6963.14 4029.61 6961.85 4031.55 6959.34 4032.24L6956.48 4033.17C6953.93 4033.86 6952.31 4032.93 6951.18 4030.5C6948.52 4025.21 6943.59 4022.66 6936.92 4022.66C6929.33 4022.66 6922.98 4026.83 6922.98 4033.94C6922.98 4037.29 6924.03 4041.66 6933.24 4045.14L6945.2 4049.62C6958.78 4053.87 6965 4062.88 6965 4071.53C6965 4086.04 6953.49 4095.01 6936.68 4095.01C6922.42 4095.01 6912.28 4088.1 6908.12 4078.64" fill="white"/>
<path id="Vector_53" d="M6258.78 3979.94V3945.42H6266.22C6267.59 3945.42 6268.76 3945.58 6269.81 3945.94C6270.86 3946.31 6271.79 3946.91 6272.64 3947.84C6273.49 3948.73 6274.06 3949.82 6274.38 3951.04C6274.7 3952.25 6274.86 3953.91 6274.86 3955.97C6274.86 3957.5 6274.78 3958.84 6274.58 3959.89C6274.42 3960.94 6274.01 3961.95 6273.45 3962.88C6272.76 3964.01 6271.87 3964.9 6270.74 3965.51C6269.61 3966.15 6268.12 3966.44 6266.3 3966.44H6263.79V3979.94H6258.86H6258.78ZM6263.71 3950.07V3961.79H6266.1C6267.11 3961.79 6267.87 3961.63 6268.44 3961.34C6269.01 3961.06 6269.41 3960.66 6269.65 3960.13C6269.89 3959.65 6270.06 3959.04 6270.1 3958.35C6270.14 3957.62 6270.18 3956.86 6270.18 3955.97C6270.18 3955.16 6270.18 3954.39 6270.14 3953.66C6270.14 3952.94 6269.97 3952.29 6269.69 3951.76C6269.45 3951.2 6269.05 3950.79 6268.52 3950.51C6267.99 3950.23 6267.27 3950.07 6266.3 3950.07H6263.71Z" fill="white"/>
<path id="Vector_54" d="M6288.64 3953.59C6288.64 3952.22 6288.88 3950.96 6289.37 3949.91C6289.85 3948.86 6290.5 3947.97 6291.31 3947.24C6292.07 3946.56 6292.96 3946.03 6293.93 3945.71C6294.9 3945.35 6295.91 3945.18 6296.92 3945.18C6297.93 3945.18 6298.9 3945.35 6299.91 3945.71C6300.88 3946.07 6301.81 3946.6 6302.62 3947.24C6303.39 3947.97 6304.03 3948.86 6304.52 3949.91C6305 3950.96 6305.24 3952.22 6305.24 3953.59V3971.82C6305.24 3973.27 6305 3974.53 6304.52 3975.54C6304.03 3976.55 6303.39 3977.44 6302.62 3978.12C6301.81 3978.85 6300.92 3979.38 6299.91 3979.74C6298.9 3980.1 6297.93 3980.27 6296.92 3980.27C6295.91 3980.27 6294.94 3980.1 6293.93 3979.74C6292.96 3979.38 6292.07 3978.85 6291.31 3978.12C6290.5 3977.44 6289.85 3976.59 6289.37 3975.54C6288.88 3974.49 6288.64 3973.27 6288.64 3971.82V3953.59ZM6293.57 3971.82C6293.57 3973.03 6293.89 3973.88 6294.58 3974.45C6295.22 3975.01 6296.03 3975.3 6296.92 3975.3C6297.81 3975.3 6298.62 3975.01 6299.26 3974.45C6299.91 3973.88 6300.27 3972.99 6300.27 3971.82V3953.59C6300.27 3952.38 6299.95 3951.53 6299.26 3950.96C6298.62 3950.4 6297.81 3950.11 6296.92 3950.11C6296.03 3950.11 6295.22 3950.4 6294.58 3950.96C6293.93 3951.53 6293.57 3952.42 6293.57 3953.59V3971.82Z" fill="white"/>
<path id="Vector_55" d="M6345.08 3945.42L6339.95 3979.94H6335.3L6331.5 3957.54H6331.42L6327.71 3979.94H6323.06L6317.93 3945.42H6323.18L6325.65 3967.32H6325.73L6329.61 3945.42H6333.4L6337.44 3967.89H6337.52L6339.91 3945.42H6345.16H6345.08Z" fill="white"/>
<path id="Vector_56" d="M6358.62 3979.94V3945.42H6373.36V3950.07H6363.58V3960.21H6372.11V3964.86H6363.58V3975H6373.36V3979.94H6358.62Z" fill="white"/>
<path id="Vector_57" d="M6386.98 3979.94V3945.42H6394.93C6400.75 3945.42 6403.66 3948.81 6403.66 3955.56C6403.66 3957.58 6403.34 3959.32 6402.73 3960.74C6402.09 3962.15 6401 3963.32 6399.42 3964.17L6404.75 3979.94H6399.5L6394.89 3965.18H6391.95V3979.94H6387.02H6386.98ZM6391.9 3950.07V3960.82H6394.73C6395.62 3960.82 6396.31 3960.7 6396.83 3960.45C6397.36 3960.21 6397.76 3959.85 6398.05 3959.4C6398.29 3958.96 6398.49 3958.39 6398.57 3957.75C6398.65 3957.1 6398.73 3956.33 6398.73 3955.44C6398.73 3954.55 6398.69 3953.78 6398.57 3953.14C6398.49 3952.49 6398.29 3951.88 6398.01 3951.4C6397.4 3950.51 6396.23 3950.03 6394.53 3950.03H6391.95L6391.9 3950.07Z" fill="white"/>
<path id="Vector_58" d="M6418.05 3979.94V3945.42H6432.79V3950.07H6423.02V3960.21H6431.54V3964.86H6423.02V3975H6432.79V3979.94H6418.05Z" fill="white"/>
<path id="Vector_59" d="M6446.41 3979.94V3945.42H6453.72C6456.55 3945.42 6458.73 3946.19 6460.18 3947.76C6461.64 3949.3 6462.41 3951.52 6462.41 3954.35V3970.52C6462.41 3973.75 6461.64 3976.14 6460.06 3977.67C6458.49 3979.21 6456.22 3979.98 6453.32 3979.98H6446.45L6446.41 3979.94ZM6451.34 3950.07V3975.29H6453.6C6454.97 3975.29 6455.98 3974.92 6456.55 3974.24C6457.11 3973.55 6457.44 3972.46 6457.44 3970.96V3954.31C6457.44 3952.94 6457.15 3951.88 6456.63 3951.16C6456.06 3950.43 6455.09 3950.03 6453.64 3950.03H6451.38L6451.34 3950.07Z" fill="white"/>
<path id="Vector_60" d="M6496.91 3979.94V3945.42H6504.14C6505.72 3945.42 6507.09 3945.66 6508.18 3946.15C6509.31 3946.63 6510.2 3947.28 6510.93 3948.09C6511.65 3948.89 6512.14 3949.82 6512.46 3950.87C6512.79 3951.93 6512.91 3953.02 6512.91 3954.15V3955.4C6512.91 3956.33 6512.83 3957.14 6512.7 3957.79C6512.54 3958.43 6512.34 3959 6512.06 3959.48C6511.49 3960.37 6510.68 3961.18 6509.55 3961.83C6510.72 3962.39 6511.57 3963.2 6512.14 3964.25C6512.7 3965.3 6512.95 3966.76 6512.95 3968.62V3970.56C6512.95 3973.59 6512.22 3975.93 6510.72 3977.55C6509.27 3979.17 6506.89 3979.98 6503.65 3979.98H6496.91V3979.94ZM6501.88 3950.07V3959.56H6504.1C6505.76 3959.56 6506.85 3959.16 6507.41 3958.31C6507.98 3957.46 6508.26 3956.29 6508.26 3954.71C6508.26 3953.14 6507.94 3952.01 6507.33 3951.24C6506.68 3950.47 6505.55 3950.07 6503.9 3950.07H6501.88ZM6501.88 3963.93V3975H6504.02C6505.03 3975 6505.8 3974.84 6506.36 3974.56C6506.93 3974.28 6507.37 3973.87 6507.65 3973.35C6507.94 3972.82 6508.14 3972.22 6508.18 3971.49C6508.26 3970.76 6508.26 3969.99 6508.26 3969.14C6508.26 3968.29 6508.22 3967.53 6508.1 3966.88C6508.02 3966.23 6507.82 3965.67 6507.53 3965.22C6507.21 3964.78 6506.77 3964.45 6506.24 3964.21C6505.71 3963.97 6504.95 3963.89 6504.06 3963.89H6501.88V3963.93Z" fill="white"/>
<path id="Vector_61" d="M6532.58 3979.94V3965.34L6525.8 3945.42H6531.05L6535.01 3959.16H6535.09L6539.05 3945.42H6544.3L6537.51 3965.34V3979.94H6532.58Z" fill="white"/>
<g id="Layer_1-2">
<path id="Vector_62" d="M6179.56 4121H6043.44C6025.58 4121 6011.04 4106.45 6011.04 4088.58V3952.42C6011.04 3934.55 6025.58 3920 6043.44 3920H6179.56C6197.41 3920 6211.96 3934.55 6211.96 3952.42V4088.58C6211.96 4106.45 6197.41 4121 6179.56 4121ZM6043.44 3923.76C6027.65 3923.76 6014.8 3936.61 6014.8 3952.42V4088.58C6014.8 4104.39 6027.65 4117.24 6043.48 4117.24H6179.6C6195.39 4117.24 6208.28 4104.39 6208.28 4088.58V3952.42C6208.28 3936.61 6195.43 3923.76 6179.6 3923.76H6043.44Z" fill="white"/>
<path id="Vector_63" d="M6111.52 3946.76C6079.6 3946.76 6053.66 3972.91 6053.66 4005.08C6053.66 4016.48 6056.94 4027.51 6063.12 4037.01L6063.28 4037.25C6063.97 4038.3 6064.73 4039.39 6065.5 4040.4L6104.89 4091.53C6104.89 4091.53 6104.89 4091.53 6104.89 4091.57L6106.87 4094.28V4091.49C6106.87 4071.77 6100.93 4064.01 6098.83 4060.78C6098.43 4060.13 6098.55 4059.04 6098.51 4058.11C6098.51 4057.62 6098.91 4057.26 6099.36 4057.3C6103.32 4058.35 6107.4 4058.88 6111.56 4058.88C6115.72 4058.88 6119.84 4058.35 6123.8 4057.3C6124.21 4057.3 6124.53 4057.66 6124.53 4058.11C6124.53 4059 6124.65 4060.13 6124.21 4060.78C6122.1 4064.01 6116.17 4071.77 6116.17 4091.49V4094.08L6118.95 4090.44L6157.17 4040.77C6165.13 4030.46 6169.33 4018.09 6169.33 4005.04C6169.33 3972.91 6143.4 3946.71 6111.48 3946.71L6111.52 3946.76ZM6139.96 4042.99C6131.64 4049.13 6121.82 4052.37 6111.56 4052.37C6096.21 4052.37 6081.62 4044.89 6072.57 4032.4C6056.9 4010.78 6061.62 3980.3 6083.08 3964.5C6091.4 3958.36 6101.22 3955.12 6111.48 3955.12C6126.83 3955.12 6141.42 3962.6 6150.47 3975.09C6166.14 3996.71 6161.42 4027.19 6139.96 4042.99Z" fill="white"/>
</g>
</g>
<g id="Back - Light Tag">
<path id="Vector_64" d="M6257.89 4053.7C6257.89 4030.42 6276.56 4011.87 6299.83 4011.87C6309.73 4011.87 6318.13 4013.73 6325.97 4018.54C6328.15 4019.91 6328.63 4021.89 6327.34 4024.32L6326.17 4026.26C6324.92 4028.81 6322.94 4029.13 6320.39 4027.76C6311.42 4022.91 6305.89 4022.78 6299.79 4022.78C6283.43 4022.78 6270.3 4036.36 6270.3 4053.54C6270.3 4068.98 6280.68 4084.06 6301.4 4084.06C6308.43 4084.06 6314.41 4082.32 6319.83 4078.88V4062.88H6301.65C6298.98 4062.88 6297.49 4061.26 6297.49 4058.64V4057.26C6297.49 4054.59 6298.98 4053.1 6301.65 4053.1H6326.86C6329.52 4053.1 6331.02 4054.59 6331.02 4057.26V4080.54C6331.02 4082.72 6330.09 4084.58 6327.46 4086.64C6318.25 4093.44 6308.23 4095.05 6300.88 4095.05C6275.87 4095.05 6257.93 4076.38 6257.93 4053.7" fill="black"/>
<path id="Vector_65" d="M6342.53 4053.46C6342.53 4030.54 6361.2 4011.87 6384.47 4011.87C6407.74 4011.87 6426.41 4030.54 6426.41 4053.46C6426.41 4076.38 6407.74 4095.05 6384.47 4095.05C6361.2 4095.05 6342.53 4076.38 6342.53 4053.46ZM6413.92 4053.46C6413.92 4036.08 6400.67 4022.82 6384.43 4022.82C6368.19 4022.82 6354.94 4036.08 6354.94 4053.46C6354.94 4070.84 6368.19 4084.1 6384.43 4084.1C6400.67 4084.1 6413.92 4070.84 6413.92 4053.46Z" fill="black"/>
<path id="Vector_66" d="M6440.18 4089.68V4017.33C6440.18 4014.66 6441.68 4013.17 6444.35 4013.17H6448.26C6450.93 4013.17 6452.43 4014.66 6452.43 4017.33V4083.82H6485.03C6487.7 4083.82 6489.27 4085.31 6489.27 4087.98V4089.72C6489.27 4092.39 6487.66 4093.88 6485.03 4093.88H6444.39C6441.72 4093.88 6440.22 4092.39 6440.22 4089.72" fill="black"/>
<path id="Vector_67" d="M6551.33 4017.28V4019.02C6551.33 4021.69 6549.84 4023.19 6547.17 4023.19H6511.94V4049.34H6542.12C6544.79 4049.34 6546.36 4050.83 6546.36 4053.5V4054.99C6546.36 4057.66 6544.75 4059.24 6542.12 4059.24H6511.94V4089.63C6511.94 4092.3 6510.44 4093.8 6507.78 4093.8H6503.86C6501.19 4093.8 6499.7 4092.3 6499.7 4089.63V4017.28C6499.7 4014.62 6501.19 4013.12 6503.86 4013.12H6547.17C6549.84 4013.12 6551.33 4014.62 6551.33 4017.28Z" fill="black"/>
<path id="Vector_68" d="M6559.37 4078.72C6558.24 4076.18 6559.61 4074.24 6562.12 4073.55L6565.47 4072.74C6568.02 4072.18 6569.39 4073.1 6570.64 4075.49C6573.51 4080.46 6579.61 4084.34 6587.69 4084.34C6598.08 4084.34 6604.38 4079.29 6604.38 4072.38C6604.38 4066.27 6599.33 4062.47 6592.74 4060.05L6580.78 4056.01C6565.59 4050.96 6561.92 4041.82 6561.92 4034.34C6561.92 4020.4 6574.12 4011.87 6588.06 4011.87C6600.74 4011.87 6609.71 4017.97 6613.39 4027.07C6614.44 4029.61 6613.15 4031.55 6610.64 4032.24L6607.77 4033.17C6605.23 4033.86 6603.61 4032.93 6602.48 4030.5C6599.81 4025.21 6594.88 4022.66 6588.22 4022.66C6580.62 4022.66 6574.28 4026.83 6574.28 4033.94C6574.28 4037.29 6575.33 4041.66 6584.54 4045.14L6596.5 4049.62C6610.07 4053.87 6616.3 4062.88 6616.3 4071.53C6616.3 4086.04 6604.78 4095.01 6587.97 4095.01C6573.71 4095.01 6563.57 4088.1 6559.41 4078.64" fill="black"/>
<path id="Vector_69" d="M6688.69 4017.28V4019.02C6688.69 4021.69 6687.2 4023.19 6684.53 4023.19H6662.07V4089.67C6662.07 4092.34 6660.57 4093.84 6657.91 4093.84H6654.11C6651.44 4093.84 6649.95 4092.34 6649.95 4089.67V4023.19H6627.49C6624.94 4023.19 6623.32 4021.69 6623.32 4019.02V4017.28C6623.32 4014.62 6624.94 4013.12 6627.49 4013.12H6684.49C6687.16 4013.12 6688.65 4014.62 6688.65 4017.28" fill="black"/>
<path id="Vector_70" d="M6685.34 4088.95L6713.1 4016.48C6713.9 4014.29 6715.64 4013.12 6717.94 4013.12H6724.61C6727.03 4013.12 6728.65 4014.29 6729.46 4016.48L6757.46 4088.95C6758.51 4091.82 6757.33 4093.8 6754.22 4093.8H6750.55C6748.12 4093.8 6746.51 4092.75 6745.58 4090.44L6740.61 4077.31H6702.15L6697.18 4090.44C6696.25 4092.75 6694.75 4093.8 6692.33 4093.8H6688.53C6685.42 4093.8 6684.17 4091.86 6685.3 4088.95M6737.17 4067.4L6721.3 4025L6705.62 4067.4H6737.17Z" fill="black"/>
<path id="Vector_71" d="M6819.27 4017.28V4019.02C6819.27 4021.69 6817.78 4023.19 6815.11 4023.19H6792.65V4089.67C6792.65 4092.34 6791.15 4093.84 6788.49 4093.84H6784.69C6782.02 4093.84 6780.53 4092.34 6780.53 4089.67V4023.19H6758.06C6755.52 4023.19 6753.9 4021.69 6753.9 4019.02V4017.28C6753.9 4014.62 6755.52 4013.12 6758.06 4013.12H6815.07C6817.74 4013.12 6819.23 4014.62 6819.23 4017.28" fill="black"/>
<path id="Vector_72" d="M6831.27 4063.85V4017.28C6831.27 4014.62 6832.89 4013.12 6835.43 4013.12H6839.35C6842.02 4013.12 6843.51 4014.62 6843.51 4017.28V4063.85C6843.51 4077.43 6852.72 4084.14 6863.31 4084.14C6873.89 4084.14 6883.23 4077.47 6883.23 4063.85V4017.28C6883.23 4014.62 6884.72 4013.12 6887.39 4013.12H6891.19C6893.85 4013.12 6895.47 4014.62 6895.47 4017.28V4063.85C6895.47 4084.34 6880.72 4095.09 6863.35 4095.09C6845.98 4095.09 6831.35 4084.38 6831.35 4063.85" fill="black"/>
<path id="Vector_73" d="M6908.07 4078.72C6906.94 4076.18 6908.32 4074.24 6910.82 4073.55L6914.18 4072.74C6916.72 4072.18 6918.09 4073.1 6919.35 4075.49C6922.22 4080.46 6928.32 4084.34 6936.4 4084.34C6946.78 4084.34 6953.08 4079.29 6953.08 4072.38C6953.08 4066.27 6948.03 4062.47 6941.45 4060.05L6929.49 4056.01C6914.3 4050.96 6910.62 4041.82 6910.62 4034.34C6910.62 4020.4 6922.82 4011.87 6936.76 4011.87C6949.45 4011.87 6958.41 4017.97 6962.09 4027.07C6963.14 4029.61 6961.85 4031.55 6959.34 4032.24L6956.48 4033.17C6953.93 4033.86 6952.31 4032.93 6951.18 4030.5C6948.52 4025.21 6943.59 4022.66 6936.92 4022.66C6929.33 4022.66 6922.98 4026.83 6922.98 4033.94C6922.98 4037.29 6924.03 4041.66 6933.24 4045.14L6945.2 4049.62C6958.78 4053.87 6965 4062.88 6965 4071.53C6965 4086.04 6953.49 4095.01 6936.68 4095.01C6922.42 4095.01 6912.28 4088.1 6908.12 4078.64" fill="black"/>
<path id="Vector_74" d="M6258.78 3979.94V3945.42H6266.22C6267.59 3945.42 6268.76 3945.58 6269.81 3945.94C6270.86 3946.31 6271.79 3946.91 6272.64 3947.84C6273.49 3948.73 6274.06 3949.82 6274.38 3951.04C6274.7 3952.25 6274.86 3953.91 6274.86 3955.97C6274.86 3957.5 6274.78 3958.84 6274.58 3959.89C6274.42 3960.94 6274.01 3961.95 6273.45 3962.88C6272.76 3964.01 6271.87 3964.9 6270.74 3965.51C6269.61 3966.15 6268.12 3966.44 6266.3 3966.44H6263.79V3979.94H6258.86H6258.78ZM6263.71 3950.07V3961.79H6266.1C6267.11 3961.79 6267.87 3961.63 6268.44 3961.34C6269.01 3961.06 6269.41 3960.66 6269.65 3960.13C6269.89 3959.65 6270.06 3959.04 6270.1 3958.35C6270.14 3957.62 6270.18 3956.86 6270.18 3955.97C6270.18 3955.16 6270.18 3954.39 6270.14 3953.66C6270.14 3952.94 6269.97 3952.29 6269.69 3951.76C6269.45 3951.2 6269.05 3950.79 6268.52 3950.51C6267.99 3950.23 6267.27 3950.07 6266.3 3950.07H6263.71Z" fill="black"/>
<path id="Vector_75" d="M6288.64 3953.59C6288.64 3952.22 6288.88 3950.96 6289.37 3949.91C6289.85 3948.86 6290.5 3947.97 6291.31 3947.24C6292.07 3946.56 6292.96 3946.03 6293.93 3945.71C6294.9 3945.35 6295.91 3945.18 6296.92 3945.18C6297.93 3945.18 6298.9 3945.35 6299.91 3945.71C6300.88 3946.07 6301.81 3946.6 6302.62 3947.24C6303.39 3947.97 6304.03 3948.86 6304.52 3949.91C6305 3950.96 6305.24 3952.22 6305.24 3953.59V3971.82C6305.24 3973.27 6305 3974.53 6304.52 3975.54C6304.03 3976.55 6303.39 3977.44 6302.62 3978.12C6301.81 3978.85 6300.92 3979.38 6299.91 3979.74C6298.9 3980.1 6297.93 3980.27 6296.92 3980.27C6295.91 3980.27 6294.94 3980.1 6293.93 3979.74C6292.96 3979.38 6292.07 3978.85 6291.31 3978.12C6290.5 3977.44 6289.85 3976.59 6289.37 3975.54C6288.88 3974.49 6288.64 3973.27 6288.64 3971.82V3953.59ZM6293.57 3971.82C6293.57 3973.03 6293.89 3973.88 6294.58 3974.45C6295.22 3975.01 6296.03 3975.3 6296.92 3975.3C6297.81 3975.3 6298.62 3975.01 6299.26 3974.45C6299.91 3973.88 6300.27 3972.99 6300.27 3971.82V3953.59C6300.27 3952.38 6299.95 3951.53 6299.26 3950.96C6298.62 3950.4 6297.81 3950.11 6296.92 3950.11C6296.03 3950.11 6295.22 3950.4 6294.58 3950.96C6293.93 3951.53 6293.57 3952.42 6293.57 3953.59V3971.82Z" fill="black"/>
<path id="Vector_76" d="M6345.08 3945.42L6339.95 3979.94H6335.3L6331.5 3957.54H6331.42L6327.71 3979.94H6323.06L6317.93 3945.42H6323.18L6325.65 3967.32H6325.73L6329.61 3945.42H6333.4L6337.44 3967.89H6337.52L6339.91 3945.42H6345.16H6345.08Z" fill="black"/>
<path id="Vector_77" d="M6358.62 3979.94V3945.42H6373.36V3950.07H6363.58V3960.21H6372.11V3964.86H6363.58V3975H6373.36V3979.94H6358.62Z" fill="black"/>
<path id="Vector_78" d="M6386.98 3979.94V3945.42H6394.93C6400.75 3945.42 6403.66 3948.81 6403.66 3955.56C6403.66 3957.58 6403.34 3959.32 6402.73 3960.74C6402.09 3962.15 6401 3963.32 6399.42 3964.17L6404.75 3979.94H6399.5L6394.89 3965.18H6391.95V3979.94H6387.02H6386.98ZM6391.9 3950.07V3960.82H6394.73C6395.62 3960.82 6396.31 3960.7 6396.83 3960.45C6397.36 3960.21 6397.76 3959.85 6398.05 3959.4C6398.29 3958.96 6398.49 3958.39 6398.57 3957.75C6398.65 3957.1 6398.73 3956.33 6398.73 3955.44C6398.73 3954.55 6398.69 3953.78 6398.57 3953.14C6398.49 3952.49 6398.29 3951.88 6398.01 3951.4C6397.4 3950.51 6396.23 3950.03 6394.53 3950.03H6391.95L6391.9 3950.07Z" fill="black"/>
<path id="Vector_79" d="M6418.05 3979.94V3945.42H6432.79V3950.07H6423.02V3960.21H6431.54V3964.86H6423.02V3975H6432.79V3979.94H6418.05Z" fill="black"/>
<path id="Vector_80" d="M6446.41 3979.94V3945.42H6453.72C6456.55 3945.42 6458.73 3946.19 6460.18 3947.76C6461.64 3949.3 6462.41 3951.52 6462.41 3954.35V3970.52C6462.41 3973.75 6461.64 3976.14 6460.06 3977.67C6458.49 3979.21 6456.22 3979.98 6453.32 3979.98H6446.45L6446.41 3979.94ZM6451.34 3950.07V3975.29H6453.6C6454.97 3975.29 6455.98 3974.92 6456.55 3974.24C6457.11 3973.55 6457.44 3972.46 6457.44 3970.96V3954.31C6457.44 3952.94 6457.15 3951.88 6456.63 3951.16C6456.06 3950.43 6455.09 3950.03 6453.64 3950.03H6451.38L6451.34 3950.07Z" fill="black"/>
<path id="Vector_81" d="M6496.91 3979.94V3945.42H6504.14C6505.72 3945.42 6507.09 3945.66 6508.18 3946.15C6509.31 3946.63 6510.2 3947.28 6510.93 3948.09C6511.65 3948.89 6512.14 3949.82 6512.46 3950.87C6512.79 3951.93 6512.91 3953.02 6512.91 3954.15V3955.4C6512.91 3956.33 6512.83 3957.14 6512.7 3957.79C6512.54 3958.43 6512.34 3959 6512.06 3959.48C6511.49 3960.37 6510.68 3961.18 6509.55 3961.83C6510.72 3962.39 6511.57 3963.2 6512.14 3964.25C6512.7 3965.3 6512.95 3966.76 6512.95 3968.62V3970.56C6512.95 3973.59 6512.22 3975.93 6510.72 3977.55C6509.27 3979.17 6506.89 3979.98 6503.65 3979.98H6496.91V3979.94ZM6501.88 3950.07V3959.56H6504.1C6505.76 3959.56 6506.85 3959.16 6507.41 3958.31C6507.98 3957.46 6508.26 3956.29 6508.26 3954.71C6508.26 3953.14 6507.94 3952.01 6507.33 3951.24C6506.68 3950.47 6505.55 3950.07 6503.9 3950.07H6501.88ZM6501.88 3963.93V3975H6504.02C6505.03 3975 6505.8 3974.84 6506.36 3974.56C6506.93 3974.28 6507.37 3973.87 6507.65 3973.35C6507.94 3972.82 6508.14 3972.22 6508.18 3971.49C6508.26 3970.76 6508.26 3969.99 6508.26 3969.14C6508.26 3968.29 6508.22 3967.53 6508.1 3966.88C6508.02 3966.23 6507.82 3965.67 6507.53 3965.22C6507.21 3964.78 6506.77 3964.45 6506.24 3964.21C6505.71 3963.97 6504.95 3963.89 6504.06 3963.89H6501.88V3963.93Z" fill="black"/>
<path id="Vector_82" d="M6532.58 3979.94V3965.34L6525.8 3945.42H6531.05L6535.01 3959.16H6535.09L6539.05 3945.42H6544.3L6537.51 3965.34V3979.94H6532.58Z" fill="black"/>
<g id="Layer_1-2_2">
<path id="Vector_83" d="M6179.56 4121H6043.44C6025.58 4121 6011.04 4106.45 6011.04 4088.58V3952.42C6011.04 3934.55 6025.58 3920 6043.44 3920H6179.56C6197.41 3920 6211.96 3934.55 6211.96 3952.42V4088.58C6211.96 4106.45 6197.41 4121 6179.56 4121ZM6043.44 3923.76C6027.65 3923.76 6014.8 3936.61 6014.8 3952.42V4088.58C6014.8 4104.39 6027.65 4117.24 6043.48 4117.24H6179.6C6195.39 4117.24 6208.28 4104.39 6208.28 4088.58V3952.42C6208.28 3936.61 6195.43 3923.76 6179.6 3923.76H6043.44Z" fill="black"/>
<path id="Vector_84" d="M6111.52 3946.76C6079.6 3946.76 6053.66 3972.91 6053.66 4005.08C6053.66 4016.48 6056.94 4027.51 6063.12 4037.01L6063.28 4037.25C6063.97 4038.3 6064.73 4039.39 6065.5 4040.4L6104.89 4091.53C6104.89 4091.53 6104.89 4091.53 6104.89 4091.57L6106.87 4094.28V4091.49C6106.87 4071.77 6100.93 4064.01 6098.83 4060.78C6098.43 4060.13 6098.55 4059.04 6098.51 4058.11C6098.51 4057.62 6098.91 4057.26 6099.36 4057.3C6103.32 4058.35 6107.4 4058.88 6111.56 4058.88C6115.72 4058.88 6119.84 4058.35 6123.8 4057.3C6124.21 4057.3 6124.53 4057.66 6124.53 4058.11C6124.53 4059 6124.65 4060.13 6124.21 4060.78C6122.1 4064.01 6116.17 4071.77 6116.17 4091.49V4094.08L6118.95 4090.44L6157.17 4040.77C6165.13 4030.46 6169.33 4018.09 6169.33 4005.04C6169.33 3972.91 6143.4 3946.71 6111.48 3946.71L6111.52 3946.76ZM6139.96 4042.99C6131.64 4049.13 6121.82 4052.37 6111.56 4052.37C6096.21 4052.37 6081.62 4044.89 6072.57 4032.4C6056.9 4010.78 6061.62 3980.3 6083.08 3964.5C6091.4 3958.36 6101.22 3955.12 6111.48 3955.12C6126.83 3955.12 6141.42 3962.6 6150.47 3975.09C6166.14 3996.71 6161.42 4027.19 6139.96 4042.99Z" fill="black"/>
</g>
</g>
</g>
</g>
<g id="#logo-placement">
<g id="Area">
<rect width="5710" height="3604" transform="translate(1278 534)" fill="#2063D6"/>
</g>
</g>
</g>
</svg>
