<svg width="7519" height="4670" viewBox="0 0 7519 4670" fill="none" xmlns="http://www.w3.org/2000/svg">
<g id="Ascot">
<rect id="zone-primary" y="1.00037" width="7519" height="4669" fill="#D9D9D9"/>
<g id="zone-secondary">
<rect id="zone-secondary_2" y="4210" width="7507" height="460" fill="#FC0101"/>
<rect id="zone-secondary_3" x="7060" y="4662" width="4662" height="459" transform="rotate(-90 7060 4662)" fill="#FC0101"/>
<rect id="zone-secondary_4" y="4662" width="4662" height="4207" transform="rotate(-90 0 4662)" fill="#FC0101"/>
<rect id="zone-secondary_5" y="1.00037" width="7507" height="460" fill="#FC0101"/>
</g>
<g id="Bleed">
<g id="Bleed_2">
<rect id="Bleed_3" x="0.5" y="1.50037" width="7518" height="309" fill="#9A9A9A" stroke="#9A9A9A"/>
<rect id="Bleed_4" x="0.5" y="4669.5" width="4668" height="1205" transform="rotate(-90 0.5 4669.5)" fill="#9A9A9A" stroke="#9A9A9A"/>
<rect id="Bleed_5" x="7209.5" y="4669.5" width="4668" height="309" transform="rotate(-90 7209.5 4669.5)" fill="#9A9A9A" stroke="#9A9A9A"/>
<rect id="Bleed_6" x="0.5" y="4360.5" width="7518" height="309" fill="#9A9A9A" stroke="#9A9A9A"/>
<path id="Bleed_7" d="M7060 461H7064V457H7060V461ZM7060 4210V4214H7064V4210H7060ZM1206 4210V4214H1216.02V4210V4206H1206V4210ZM1236.07 4210V4214H1256.12V4210V4206H1236.07V4210ZM1276.17 4210V4214H1296.22V4210V4206H1276.17V4210ZM1316.26 4210V4214H1336.31V4210V4206H1316.26V4210ZM1356.36 4210V4214H1376.41V4210V4206H1356.36V4210ZM1396.46 4210V4214H1416.5V4210V4206H1396.46V4210ZM1436.55 4210V4214H1456.6V4210V4206H1436.55V4210ZM1476.65 4210V4214H1496.7V4210V4206H1476.65V4210ZM1516.74 4210V4214H1536.79V4210V4206H1516.74V4210ZM1556.84 4210V4214H1576.89V4210V4206H1556.84V4210ZM1596.93 4210V4214H1616.98V4210V4206H1596.93V4210ZM1637.03 4210V4214H1657.08V4210V4206H1637.03V4210ZM1677.13 4210V4214H1697.17V4210V4206H1677.13V4210ZM1717.22 4210V4214H1737.27V4210V4206H1717.22V4210ZM1757.32 4210V4214H1777.37V4210V4206H1757.32V4210ZM1797.41 4210V4214H1817.46V4210V4206H1797.41V4210ZM1837.51 4210V4214H1857.56V4210V4206H1837.51V4210ZM1877.61 4210V4214H1897.65V4210V4206H1877.61V4210ZM1917.7 4210V4214H1937.75V4210V4206H1917.7V4210ZM1957.8 4210V4214H1977.85V4210V4206H1957.8V4210ZM1997.89 4210V4214H2017.94V4210V4206H1997.89V4210ZM2037.99 4210V4214H2058.04V4210V4206H2037.99V4210ZM2078.09 4210V4214H2098.13V4210V4206H2078.09V4210ZM2118.18 4210V4214H2138.23V4210V4206H2118.18V4210ZM2158.28 4210V4214H2178.33V4210V4206H2158.28V4210ZM2198.37 4210V4214H2218.42V4210V4206H2198.37V4210ZM2238.47 4210V4214H2258.52V4210V4206H2238.47V4210ZM2278.57 4210V4214H2298.61V4210V4206H2278.57V4210ZM2318.66 4210V4214H2338.71V4210V4206H2318.66V4210ZM2358.76 4210V4214H2378.81V4210V4206H2358.76V4210ZM2398.85 4210V4214H2418.9V4210V4206H2398.85V4210ZM2438.95 4210V4214H2459V4210V4206H2438.95V4210ZM2479.05 4210V4214H2499.09V4210V4206H2479.05V4210ZM2519.14 4210V4214H2539.19V4210V4206H2519.14V4210ZM2559.24 4210V4214H2579.29V4210V4206H2559.24V4210ZM2599.33 4210V4214H2619.38V4210V4206H2599.33V4210ZM2639.43 4210V4214H2659.48V4210V4206H2639.43V4210ZM2679.53 4210V4214H2699.57V4210V4206H2679.53V4210ZM2719.62 4210V4214H2739.67V4210V4206H2719.62V4210ZM2759.72 4210V4214H2779.77V4210V4206H2759.72V4210ZM2799.81 4210V4214H2819.86V4210V4206H2799.81V4210ZM2839.91 4210V4214H2859.96V4210V4206H2839.91V4210ZM2880.01 4210V4214H2900.05V4210V4206H2880.01V4210ZM2920.1 4210V4214H2940.15V4210V4206H2920.1V4210ZM2960.2 4210V4214H2980.24V4210V4206H2960.2V4210ZM3000.29 4210V4214H3020.34V4210V4206H3000.29V4210ZM3040.39 4210V4214H3060.44V4210V4206H3040.39V4210ZM3080.48 4210V4214H3100.53V4210V4206H3080.48V4210ZM3120.58 4210V4214H3140.63V4210V4206H3120.58V4210ZM3160.68 4210V4214H3180.72V4210V4206H3160.68V4210ZM3200.77 4210V4214H3220.82V4210V4206H3200.77V4210ZM3240.87 4210V4214H3260.92V4210V4206H3240.87V4210ZM3280.96 4210V4214H3301.01V4210V4206H3280.96V4210ZM3321.06 4210V4214H3341.11V4210V4206H3321.06V4210ZM3361.16 4210V4214H3381.2V4210V4206H3361.16V4210ZM3401.25 4210V4214H3421.3V4210V4206H3401.25V4210ZM3441.35 4210V4214H3461.4V4210V4206H3441.35V4210ZM3481.44 4210V4214H3501.49V4210V4206H3481.44V4210ZM3521.54 4210V4214H3541.59V4210V4206H3521.54V4210ZM3561.63 4210V4214H3581.68V4210V4206H3561.63V4210ZM3601.73 4210V4214H3621.78V4210V4206H3601.73V4210ZM3641.83 4210V4214H3661.87V4210V4206H3641.83V4210ZM3681.92 4210V4214H3701.97V4210V4206H3681.92V4210ZM3722.02 4210V4214H3742.06V4210V4206H3722.02V4210ZM3762.11 4210V4214H3782.16V4210V4206H3762.11V4210ZM3802.21 4210V4214H3822.26V4210V4206H3802.21V4210ZM3842.3 4210V4214H3862.35V4210V4206H3842.3V4210ZM3882.4 4210V4214H3902.45V4210V4206H3882.4V4210ZM3922.5 4210V4214H3942.54V4210V4206H3922.5V4210ZM3962.59 4210V4214H3982.64V4210V4206H3962.59V4210ZM4002.69 4210V4214H4022.73V4210V4206H4002.69V4210ZM4042.78 4210V4214H4062.83V4210V4206H4042.78V4210ZM4082.88 4210V4214H4102.93V4210V4206H4082.88V4210ZM4122.97 4210V4214H4143.02V4210V4206H4122.97V4210ZM4163.07 4210V4214H4183.12V4210V4206H4163.07V4210ZM4203.17 4210V4214H4223.21V4210V4206H4203.17V4210ZM4243.26 4210V4214H4263.31V4210V4206H4243.26V4210ZM4283.36 4210V4214H4303.4V4210V4206H4283.36V4210ZM4323.45 4210V4214H4343.5V4210V4206H4323.45V4210ZM4363.55 4210V4214H4383.6V4210V4206H4363.55V4210ZM4403.64 4210V4214H4423.69V4210V4206H4403.64V4210ZM4443.74 4210V4214H4463.79V4210V4206H4443.74V4210ZM4483.84 4210V4214H4503.88V4210V4206H4483.84V4210ZM4523.93 4210V4214H4543.98V4210V4206H4523.93V4210ZM4564.03 4210V4214H4584.07V4210V4206H4564.03V4210ZM4604.12 4210V4214H4624.17V4210V4206H4604.12V4210ZM4644.22 4210V4214H4664.27V4210V4206H4644.22V4210ZM4684.31 4210V4214H4704.36V4210V4206H4684.31V4210ZM4724.41 4210V4214H4744.46V4210V4206H4724.41V4210ZM4764.51 4210V4214H4784.55V4210V4206H4764.51V4210ZM4804.6 4210V4214H4824.65V4210V4206H4804.6V4210ZM4844.7 4210V4214H4864.74V4210V4206H4844.7V4210ZM4884.79 4210V4214H4904.84V4210V4206H4884.79V4210ZM4924.89 4210V4214H4944.94V4210V4206H4924.89V4210ZM4964.98 4210V4214H4985.03V4210V4206H4964.98V4210ZM5005.08 4210V4214H5025.13V4210V4206H5005.08V4210ZM5045.18 4210V4214H5065.22V4210V4206H5045.18V4210ZM5085.27 4210V4214H5105.32V4210V4206H5085.27V4210ZM5125.37 4210V4214H5145.41V4210V4206H5125.37V4210ZM5165.46 4210V4214H5185.51V4210V4206H5165.46V4210ZM5205.56 4210V4214H5225.61V4210V4206H5205.56V4210ZM5245.65 4210V4214H5265.7V4210V4206H5245.65V4210ZM5285.75 4210V4214H5305.8V4210V4206H5285.75V4210ZM5325.85 4210V4214H5345.89V4210V4206H5325.85V4210ZM5365.94 4210V4214H5385.99V4210V4206H5365.94V4210ZM5406.04 4210V4214H5426.08V4210V4206H5406.04V4210ZM5446.13 4210V4214H5466.18V4210V4206H5446.13V4210ZM5486.23 4210V4214H5506.28V4210V4206H5486.23V4210ZM5526.32 4210V4214H5546.37V4210V4206H5526.32V4210ZM5566.42 4210V4214H5586.47V4210V4206H5566.42V4210ZM5606.52 4210V4214H5626.56V4210V4206H5606.52V4210ZM5646.61 4210V4214H5666.66V4210V4206H5646.61V4210ZM5686.71 4210V4214H5706.75V4210V4206H5686.71V4210ZM5726.8 4210V4214H5746.85V4210V4206H5726.8V4210ZM5766.9 4210V4214H5786.95V4210V4206H5766.9V4210ZM5806.99 4210V4214H5827.04V4210V4206H5806.99V4210ZM5847.09 4210V4214H5867.14V4210V4206H5847.09V4210ZM5887.19 4210V4214H5907.23V4210V4206H5887.19V4210ZM5927.28 4210V4214H5947.33V4210V4206H5927.28V4210ZM5967.38 4210V4214H5987.42V4210V4206H5967.38V4210ZM6007.47 4210V4214H6027.52V4210V4206H6007.47V4210ZM6047.57 4210V4214H6067.62V4210V4206H6047.57V4210ZM6087.66 4210V4214H6107.71V4210V4206H6087.66V4210ZM6127.76 4210V4214H6147.81V4210V4206H6127.76V4210ZM6167.85 4210V4214H6187.9V4210V4206H6167.85V4210ZM6207.95 4210V4214H6228V4210V4206H6207.95V4210ZM6248.05 4210V4214H6268.09V4210V4206H6248.05V4210ZM6288.14 4210V4214H6308.19V4210V4206H6288.14V4210ZM6328.24 4210V4214H6348.29V4210V4206H6328.24V4210ZM6368.33 4210V4214H6388.38V4210V4206H6368.33V4210ZM6408.43 4210V4214H6428.48V4210V4206H6408.43V4210ZM6448.52 4210V4214H6468.57V4210V4206H6448.52V4210ZM6488.62 4210V4214H6508.67V4210V4206H6488.62V4210ZM6528.72 4210V4214H6548.76V4210V4206H6528.72V4210ZM6568.81 4210V4214H6588.86V4210V4206H6568.81V4210ZM6608.91 4210V4214H6628.96V4210V4206H6608.91V4210ZM6649 4210V4214H6669.05V4210V4206H6649V4210ZM6689.1 4210V4214H6709.15V4210V4206H6689.1V4210ZM6729.19 4210V4214H6749.24V4210V4206H6729.19V4210ZM6769.29 4210V4214H6789.34V4210V4206H6769.29V4210ZM6809.39 4210V4214H6829.43V4210V4206H6809.39V4210ZM6849.48 4210V4214H6869.53V4210V4206H6849.48V4210ZM6889.58 4210V4214H6909.63V4210V4206H6889.58V4210ZM6929.67 4210V4214H6949.72V4210V4206H6929.67V4210ZM6969.77 4210V4214H6989.82V4210V4206H6969.77V4210ZM7009.86 4210V4214H7029.91V4210V4206H7009.86V4210ZM7049.96 4210V4214H7060V4210V4206H7049.96V4210ZM7060 4210H7064V4200.03H7060H7056V4210H7060ZM7060 4180.09H7064V4160.15H7060H7056V4180.09H7060ZM7060 4140.21H7064V4120.26H7060H7056V4140.21H7060ZM7060 4100.32H7064V4080.38H7060H7056V4100.32H7060ZM7060 4060.44H7064V4040.5H7060H7056V4060.44H7060ZM7060 4020.56H7064V4000.61H7060H7056V4020.56H7060ZM7060 3980.67H7064V3960.73H7060H7056V3980.67H7060ZM7060 3940.79H7064V3920.85H7060H7056V3940.79H7060ZM7060 3900.91H7064V3880.97H7060H7056V3900.91H7060ZM7060 3861.02H7064V3841.08H7060H7056V3861.02H7060ZM7060 3821.14H7064V3801.2H7060H7056V3821.14H7060ZM7060 3781.26H7064V3761.32H7060H7056V3781.26H7060ZM7060 3741.38H7064V3721.43H7060H7056V3741.38H7060ZM7060 3701.49H7064V3681.55H7060H7056V3701.49H7060ZM7060 3661.61H7064V3641.67H7060H7056V3661.61H7060ZM7060 3621.73H7064V3601.78H7060H7056V3621.73H7060ZM7060 3581.84H7064V3561.9H7060H7056V3581.84H7060ZM7060 3541.96H7064V3522.02H7060H7056V3541.96H7060ZM7060 3502.08H7064V3482.14H7060H7056V3502.08H7060ZM7060 3462.19H7064V3442.25H7060H7056V3462.19H7060ZM7060 3422.31H7064V3402.37H7060H7056V3422.31H7060ZM7060 3382.43H7064V3362.49H7060H7056V3382.43H7060ZM7060 3342.55H7064V3322.6H7060H7056V3342.55H7060ZM7060 3302.66H7064V3282.72H7060H7056V3302.66H7060ZM7060 3262.78H7064V3242.84H7060H7056V3262.78H7060ZM7060 3222.9H7064V3202.96H7060H7056V3222.9H7060ZM7060 3183.01H7064V3163.07H7060H7056V3183.01H7060ZM7060 3143.13H7064V3123.19H7060H7056V3143.13H7060ZM7060 3103.25H7064V3083.31H7060H7056V3103.25H7060ZM7060 3063.36H7064V3043.42H7060H7056V3063.36H7060ZM7060 3023.48H7064V3003.54H7060H7056V3023.48H7060ZM7060 2983.6H7064V2963.66H7060H7056V2983.6H7060ZM7060 2943.72H7064V2923.77H7060H7056V2943.72H7060ZM7060 2903.83H7064V2883.89H7060H7056V2903.83H7060ZM7060 2863.95H7064V2844.01H7060H7056V2863.95H7060ZM7060 2824.07H7064V2804.13H7060H7056V2824.07H7060ZM7060 2784.18H7064V2764.24H7060H7056V2784.18H7060ZM7060 2744.3H7064V2724.36H7060H7056V2744.3H7060ZM7060 2704.42H7064V2684.48H7060H7056V2704.42H7060ZM7060 2664.53H7064V2644.59H7060H7056V2664.53H7060ZM7060 2624.65H7064V2604.71H7060H7056V2624.65H7060ZM7060 2584.77H7064V2564.83H7060H7056V2584.77H7060ZM7060 2544.89H7064V2524.94H7060H7056V2544.89H7060ZM7060 2505H7064V2485.06H7060H7056V2505H7060ZM7060 2465.12H7064V2445.18H7060H7056V2465.12H7060ZM7060 2425.24H7064V2405.29H7060H7056V2425.24H7060ZM7060 2385.35H7064V2365.41H7060H7056V2385.35H7060ZM7060 2345.47H7064V2325.53H7060H7056V2345.47H7060ZM7060 2305.59H7064V2285.65H7060H7056V2305.59H7060ZM7060 2265.7H7064V2245.76H7060H7056V2265.7H7060ZM7060 2225.82H7064V2205.88H7060H7056V2225.82H7060ZM7060 2185.94H7064V2166H7060H7056V2185.94H7060ZM7060 2146.05H7064V2126.11H7060H7056V2146.05H7060ZM7060 2106.17H7064V2086.23H7060H7056V2106.17H7060ZM7060 2066.29H7064V2046.35H7060H7056V2066.29H7060ZM7060 2026.41H7064V2006.46H7060H7056V2026.41H7060ZM7060 1986.52H7064V1966.58H7060H7056V1986.52H7060ZM7060 1946.64H7064V1926.7H7060H7056V1946.64H7060ZM7060 1906.76H7064V1886.82H7060H7056V1906.76H7060ZM7060 1866.87H7064V1846.93H7060H7056V1866.87H7060ZM7060 1826.99H7064V1807.05H7060H7056V1826.99H7060ZM7060 1787.11H7064V1767.17H7060H7056V1787.11H7060ZM7060 1747.23H7064V1727.29H7060H7056V1747.23H7060ZM7060 1707.34H7064V1687.4H7060H7056V1707.34H7060ZM7060 1667.46H7064V1647.52H7060H7056V1667.46H7060ZM7060 1627.58H7064V1607.64H7060H7056V1627.58H7060ZM7060 1587.7H7064V1567.75H7060H7056V1587.7H7060ZM7060 1547.81H7064V1527.87H7060H7056V1547.81H7060ZM7060 1507.93H7064V1487.99H7060H7056V1507.93H7060ZM7060 1468.05H7064V1448.11H7060H7056V1468.05H7060ZM7060 1428.16H7064V1408.22H7060H7056V1428.16H7060ZM7060 1388.28H7064V1368.34H7060H7056V1388.28H7060ZM7060 1348.4H7064V1328.46H7060H7056V1348.4H7060ZM7060 1308.52H7064V1288.57H7060H7056V1308.52H7060ZM7060 1268.63H7064V1248.69H7060H7056V1268.63H7060ZM7060 1228.75H7064V1208.81H7060H7056V1228.75H7060ZM7060 1188.87H7064V1168.93H7060H7056V1188.87H7060ZM7060 1148.98H7064V1129.04H7060H7056V1148.98H7060ZM7060 1109.1H7064V1089.16H7060H7056V1109.1H7060ZM7060 1069.22H7064V1049.28H7060H7056V1069.22H7060ZM7060 1029.34H7064V1009.39H7060H7056V1029.34H7060ZM7060 989.453H7064V969.512H7060H7056V989.453H7060ZM7060 949.57H7064V929.629H7060H7056V949.57H7060ZM7060 909.687H7064V889.746H7060H7056V909.687H7060ZM7060 869.805H7064V849.863H7060H7056V869.805H7060ZM7060 829.922H7064V809.98H7060H7056V829.922H7060ZM7060 790.039H7064V770.098H7060H7056V790.039H7060ZM7060 750.156H7064V730.215H7060H7056V750.156H7060ZM7060 710.273H7064V690.332H7060H7056V710.273H7060ZM7060 670.39H7064V650.449H7060H7056V670.39H7060ZM7060 630.508H7064V610.566H7060H7056V630.508H7060ZM7060 590.625H7064V570.684H7060H7056V590.625H7060ZM7060 550.742H7064V530.801H7060H7056V550.742H7060ZM7060 510.859H7064V490.918H7060H7056V510.859H7060ZM7060 470.976H7064V461H7060H7056V470.976H7060ZM7060 461V457H7049.98V461V465H7060V461ZM7029.93 461V457H7009.88V461V465H7029.93V461ZM6989.83 461V457H6969.78V461V465H6989.83V461ZM6949.74 461V457H6929.69V461V465H6949.74V461ZM6909.64 461V457H6889.59V461V465H6909.64V461ZM6869.54 461V457H6849.5V461V465H6869.54V461ZM6829.45 461V457H6809.4V461V465H6829.45V461ZM6789.35 461V457H6769.3V461V465H6789.35V461ZM6749.26 461V457H6729.21V461V465H6749.26V461ZM6709.16 461V457H6689.11V461V465H6709.16V461ZM6669.06 461V457H6649.02V461V465H6669.06V461ZM6628.97 461V457H6608.92V461V465H6628.97V461ZM6588.87 461V457H6568.83V461V465H6588.87V461ZM6548.78 461V457H6528.73V461V465H6548.78V461ZM6508.68 461V457H6488.63V461V465H6508.68V461ZM6468.59 461V457H6448.54V461V465H6468.59V461ZM6428.49 461V457H6408.44V461V465H6428.49V461ZM6388.39 461V457H6368.35V461V465H6388.39V461ZM6348.3 461V457H6328.25V461V465H6348.3V461ZM6308.2 461V457H6288.15V461V465H6308.2V461ZM6268.11 461V457H6248.06V461V465H6268.11V461ZM6228.01 461V457H6207.96V461V465H6228.01V461ZM6187.91 461V457H6167.87V461V465H6187.91V461ZM6147.82 461V457H6127.77V461V465H6147.82V461ZM6107.72 461V457H6087.67V461V465H6107.72V461ZM6067.63 461V457H6047.58V461V465H6067.63V461ZM6027.53 461V457H6007.48V461V465H6027.53V461ZM5987.43 461V457H5967.39V461V465H5987.43V461ZM5947.34 461V457H5927.29V461V465H5947.34V461ZM5907.24 461V457H5887.19V461V465H5907.24V461ZM5867.15 461V457H5847.1V461V465H5867.15V461ZM5827.05 461V457H5807V461V465H5827.05V461ZM5786.95 461V457H5766.91V461V465H5786.95V461ZM5746.86 461V457H5726.81V461V465H5746.86V461ZM5706.76 461V457H5686.71V461V465H5706.76V461ZM5666.67 461V457H5646.62V461V465H5666.67V461ZM5626.57 461V457H5606.52V461V465H5626.57V461ZM5586.47 461V457H5566.43V461V465H5586.47V461ZM5546.38 461V457H5526.33V461V465H5546.38V461ZM5506.28 461V457H5486.23V461V465H5506.28V461ZM5466.19 461V457H5446.14V461V465H5466.19V461ZM5426.09 461V457H5406.04V461V465H5426.09V461ZM5386 461V457H5365.95V461V465H5386V461ZM5345.9 461V457H5325.85V461V465H5345.9V461ZM5305.8 461V457H5285.76V461V465H5305.8V461ZM5265.71 461V457H5245.66V461V465H5265.71V461ZM5225.61 461V457H5205.56V461V465H5225.61V461ZM5185.52 461V457H5165.47V461V465H5185.52V461ZM5145.42 461V457H5125.37V461V465H5145.42V461ZM5105.32 461V457H5085.28V461V465H5105.32V461ZM5065.23 461V457H5045.18V461V465H5065.23V461ZM5025.13 461V457H5005.08V461V465H5025.13V461ZM4985.04 461V457H4964.99V461V465H4985.04V461ZM4944.94 461V457H4924.89V461V465H4944.94V461ZM4904.84 461V457H4884.8V461V465H4904.84V461ZM4864.75 461V457H4844.7V461V465H4864.75V461ZM4824.65 461V457H4804.6V461V465H4824.65V461ZM4784.56 461V457H4764.51V461V465H4784.56V461ZM4744.46 461V457H4724.41V461V465H4744.46V461ZM4704.37 461V457H4684.32V461V465H4704.37V461ZM4664.27 461V457H4644.22V461V465H4664.27V461ZM4624.17 461V457H4604.13V461V465H4624.17V461ZM4584.08 461V457H4564.03V461V465H4584.08V461ZM4543.98 461V457H4523.94V461V465H4543.98V461ZM4503.89 461V457H4483.84V461V465H4503.89V461ZM4463.79 461V457H4443.74V461V465H4463.79V461ZM4423.7 461V457H4403.65V461V465H4423.7V461ZM4383.6 461V457H4363.55V461V465H4383.6V461ZM4343.5 461V457H4323.46V461V465H4343.5V461ZM4303.41 461V457H4283.36V461V465H4303.41V461ZM4263.31 461V457H4243.27V461V465H4263.31V461ZM4223.22 461V457H4203.17V461V465H4223.22V461ZM4183.12 461V457H4163.07V461V465H4183.12V461ZM4143.03 461V457H4122.98V461V465H4143.03V461ZM4102.93 461V457H4082.88V461V465H4102.93V461ZM4062.83 461V457H4042.79V461V465H4062.83V461ZM4022.74 461V457H4002.69V461V465H4022.74V461ZM3982.64 461V457H3962.6V461V465H3982.64V461ZM3942.55 461V457H3922.5V461V465H3942.55V461ZM3902.45 461V457H3882.4V461V465H3902.45V461ZM3862.36 461V457H3842.31V461V465H3862.36V461ZM3822.26 461V457H3802.21V461V465H3822.26V461ZM3782.16 461V457H3762.12V461V465H3782.16V461ZM3742.07 461V457H3722.02V461V465H3742.07V461ZM3701.97 461V457H3681.93V461V465H3701.97V461ZM3661.88 461V457H3641.83V461V465H3661.88V461ZM3621.78 461V457H3601.73V461V465H3621.78V461ZM3581.69 461V457H3561.64V461V465H3581.69V461ZM3541.59 461V457H3521.54V461V465H3541.59V461ZM3501.49 461V457H3481.45V461V465H3501.49V461ZM3461.4 461V457H3441.35V461V465H3461.4V461ZM3421.3 461V457H3401.26V461V465H3421.3V461ZM3381.21 461V457H3361.16V461V465H3381.21V461ZM3341.11 461V457H3321.06V461V465H3341.11V461ZM3301.02 461V457H3280.97V461V465H3301.02V461ZM3260.92 461V457H3240.87V461V465H3260.92V461ZM3220.82 461V457H3200.78V461V465H3220.82V461ZM3180.73 461V457H3160.68V461V465H3180.73V461ZM3140.63 461V457H3120.59V461V465H3140.63V461ZM3100.54 461V457H3080.49V461V465H3100.54V461ZM3060.44 461V457H3040.39V461V465H3060.44V461ZM3020.35 461V457H3000.3V461V465H3020.35V461ZM2980.25 461V457H2960.2V461V465H2980.25V461ZM2940.15 461V457H2920.11V461V465H2940.15V461ZM2900.06 461V457H2880.01V461V465H2900.06V461ZM2859.96 461V457H2839.92V461V465H2859.96V461ZM2819.87 461V457H2799.82V461V465H2819.87V461ZM2779.77 461V457H2759.72V461V465H2779.77V461ZM2739.68 461V457H2719.63V461V465H2739.68V461ZM2699.58 461V457H2679.53V461V465H2699.58V461ZM2659.48 461V457H2639.44V461V465H2659.48V461ZM2619.39 461V457H2599.34V461V465H2619.39V461ZM2579.29 461V457H2559.25V461V465H2579.29V461ZM2539.2 461V457H2519.15V461V465H2539.2V461ZM2499.1 461V457H2479.05V461V465H2499.1V461ZM2459.01 461V457H2438.96V461V465H2459.01V461ZM2418.91 461V457H2398.86V461V465H2418.91V461ZM2378.81 461V457H2358.77V461V465H2378.81V461ZM2338.72 461V457H2318.67V461V465H2338.72V461ZM2298.62 461V457H2278.58V461V465H2298.62V461ZM2258.53 461V457H2238.48V461V465H2258.53V461ZM2218.43 461V457H2198.38V461V465H2218.43V461ZM2178.34 461V457H2158.29V461V465H2178.34V461ZM2138.24 461V457H2118.19V461V465H2138.24V461ZM2098.15 461V457H2078.1V461V465H2098.15V461ZM2058.05 461V457H2038V461V465H2058.05V461ZM2017.95 461V457H1997.91V461V465H2017.95V461ZM1977.86 461V457H1957.81V461V465H1977.86V461ZM1937.76 461V457H1917.71V461V465H1937.76V461ZM1897.67 461V457H1877.62V461V465H1897.67V461ZM1857.57 461V457H1837.52V461V465H1857.57V461ZM1817.47 461V457H1797.43V461V465H1817.47V461ZM1777.38 461V457H1757.33V461V465H1777.38V461ZM1737.28 461V457H1717.24V461V465H1737.28V461ZM1697.19 461V457H1677.14V461V465H1697.19V461ZM1657.09 461V457H1637.04V461V465H1657.09V461ZM1617 461V457H1596.95V461V465H1617V461ZM1576.9 461V457H1556.85V461V465H1576.9V461ZM1536.81 461V457H1516.76V461V465H1536.81V461ZM1496.71 461V457H1476.66V461V465H1496.71V461ZM1456.61 461V457H1436.57V461V465H1456.61V461ZM1416.52 461V457H1396.47V461V465H1416.52V461ZM1376.42 461V457H1356.37V461V465H1376.42V461ZM1336.33 461V457H1316.28V461V465H1336.33V461ZM1296.23 461V457H1276.18V461V465H1296.23V461ZM1256.14 461V457H1236.09V461V465H1256.14V461ZM1216.04 461V457H1206V461V465H1216.04V461Z" fill="#9A9A9A"/>
</g>
</g>
<g id="logo-placement">
<rect id="Logo 1" x="1278" y="4137" width="3604" height="2857" transform="rotate(-90 1278 4137)" fill="#2063D6"/>
<rect id="Logo 2" x="4279" y="4137" width="3604" height="2709" transform="rotate(-90 4279 4137)" fill="#2063D6"/>
</g>
</g>
</svg>
