<svg width="7519" height="4671" viewBox="0 0 7519 4671" fill="none" xmlns="http://www.w3.org/2000/svg">
<g id="Checkered">
<rect id="zone-primary" y="2" width="7519" height="4669" fill="#D9D9D9"/>
<g id="zone-secondary">
<rect id="zone-secondary_2" y="4210.99" width="7507" height="460" fill="#FC0101"/>
<rect id="zone-secondary_3" x="7060" y="4662.99" width="4662" height="459" transform="rotate(-90 7060 4662.99)" fill="#FC0101"/>
<rect id="zone-secondary_4" x="0.000976562" y="4671" width="4671" height="1355" transform="rotate(-90 0.000976562 4671)" fill="#FC0101"/>
<g id="Frame 2">
<g id="Frame 3">
<rect id="zone-secondary_5" x="1355" y="1399.25" width="937.25" height="1141" transform="rotate(-90 1355 1399.25)" fill="#FC0101"/>
<rect id="zone-secondary_6" x="3637" y="1399.25" width="937.25" height="1141" transform="rotate(-90 3637 1399.25)" fill="#FC0101"/>
<rect id="zone-secondary_7" x="5919" y="1399.25" width="937.25" height="1141" transform="rotate(-90 5919 1399.25)" fill="#FC0101"/>
</g>
<g id="Frame 9">
<rect id="zone-secondary_8" x="2496" y="2336.5" width="937.25" height="1141" transform="rotate(-90 2496 2336.5)" fill="#FC0101"/>
<rect id="zone-secondary_9" x="4778" y="2336.5" width="937.25" height="1141" transform="rotate(-90 4778 2336.5)" fill="#FC0101"/>
</g>
<g id="Frame 8">
<rect id="zone-secondary_10" x="1355" y="3273.75" width="937.25" height="1141" transform="rotate(-90 1355 3273.75)" fill="#FC0101"/>
<rect id="zone-secondary_11" x="3637" y="3273.75" width="937.25" height="1141" transform="rotate(-90 3637 3273.75)" fill="#FC0101"/>
<rect id="zone-secondary_12" x="5919" y="3273.75" width="937.25" height="1141" transform="rotate(-90 5919 3273.75)" fill="#FC0101"/>
</g>
<g id="Frame 7">
<rect id="zone-secondary_13" x="2496" y="4211" width="937.25" height="1141" transform="rotate(-90 2496 4211)" fill="#FC0101"/>
<rect id="zone-secondary_14" x="4778" y="4211" width="937.25" height="1141" transform="rotate(-90 4778 4211)" fill="#FC0101"/>
</g>
</g>
<rect id="zone-secondary_15" y="2" width="7507" height="460" fill="#FC0101"/>
</g>
<g id="#logo-placement">
<rect id="Logo 1" x="1278" y="4138" width="3604" height="5710" transform="rotate(-90 1278 4138)" fill="#2063D6"/>
</g>
<g id="Bleed">
<g id="Bleed_2">
<rect id="Bleed_3" x="0.5" y="2.5" width="7518" height="309" fill="#9A9A9A" stroke="#9A9A9A"/>
<rect id="Bleed_4" x="0.5" y="4670.5" width="4668" height="1205" transform="rotate(-90 0.5 4670.5)" fill="#9A9A9A" stroke="#9A9A9A"/>
<rect id="Bleed_5" x="7209.5" y="4670.5" width="4668" height="309" transform="rotate(-90 7209.5 4670.5)" fill="#9A9A9A" stroke="#9A9A9A"/>
<rect id="Bleed_6" x="0.5" y="4361.5" width="7518" height="309" fill="#9A9A9A" stroke="#9A9A9A"/>
<path id="Bleed_7" d="M7060 462H7064V458H7060V462ZM7060 4211V4215H7064V4211H7060ZM1206 4211V4215H1216.02V4211V4207H1206V4211ZM1236.07 4211V4215H1256.12V4211V4207H1236.07V4211ZM1276.17 4211V4215H1296.22V4211V4207H1276.17V4211ZM1316.26 4211V4215H1336.31V4211V4207H1316.26V4211ZM1356.36 4211V4215H1376.41V4211V4207H1356.36V4211ZM1396.46 4211V4215H1416.5V4211V4207H1396.46V4211ZM1436.55 4211V4215H1456.6V4211V4207H1436.55V4211ZM1476.65 4211V4215H1496.7V4211V4207H1476.65V4211ZM1516.74 4211V4215H1536.79V4211V4207H1516.74V4211ZM1556.84 4211V4215H1576.89V4211V4207H1556.84V4211ZM1596.93 4211V4215H1616.98V4211V4207H1596.93V4211ZM1637.03 4211V4215H1657.08V4211V4207H1637.03V4211ZM1677.13 4211V4215H1697.17V4211V4207H1677.13V4211ZM1717.22 4211V4215H1737.27V4211V4207H1717.22V4211ZM1757.32 4211V4215H1777.37V4211V4207H1757.32V4211ZM1797.41 4211V4215H1817.46V4211V4207H1797.41V4211ZM1837.51 4211V4215H1857.56V4211V4207H1837.51V4211ZM1877.61 4211V4215H1897.65V4211V4207H1877.61V4211ZM1917.7 4211V4215H1937.75V4211V4207H1917.7V4211ZM1957.8 4211V4215H1977.85V4211V4207H1957.8V4211ZM1997.89 4211V4215H2017.94V4211V4207H1997.89V4211ZM2037.99 4211V4215H2058.04V4211V4207H2037.99V4211ZM2078.09 4211V4215H2098.13V4211V4207H2078.09V4211ZM2118.18 4211V4215H2138.23V4211V4207H2118.18V4211ZM2158.28 4211V4215H2178.33V4211V4207H2158.28V4211ZM2198.37 4211V4215H2218.42V4211V4207H2198.37V4211ZM2238.47 4211V4215H2258.52V4211V4207H2238.47V4211ZM2278.57 4211V4215H2298.61V4211V4207H2278.57V4211ZM2318.66 4211V4215H2338.71V4211V4207H2318.66V4211ZM2358.76 4211V4215H2378.81V4211V4207H2358.76V4211ZM2398.85 4211V4215H2418.9V4211V4207H2398.85V4211ZM2438.95 4211V4215H2459V4211V4207H2438.95V4211ZM2479.05 4211V4215H2499.09V4211V4207H2479.05V4211ZM2519.14 4211V4215H2539.19V4211V4207H2519.14V4211ZM2559.24 4211V4215H2579.29V4211V4207H2559.24V4211ZM2599.33 4211V4215H2619.38V4211V4207H2599.33V4211ZM2639.43 4211V4215H2659.48V4211V4207H2639.43V4211ZM2679.53 4211V4215H2699.57V4211V4207H2679.53V4211ZM2719.62 4211V4215H2739.67V4211V4207H2719.62V4211ZM2759.72 4211V4215H2779.77V4211V4207H2759.72V4211ZM2799.81 4211V4215H2819.86V4211V4207H2799.81V4211ZM2839.91 4211V4215H2859.96V4211V4207H2839.91V4211ZM2880.01 4211V4215H2900.05V4211V4207H2880.01V4211ZM2920.1 4211V4215H2940.15V4211V4207H2920.1V4211ZM2960.2 4211V4215H2980.24V4211V4207H2960.2V4211ZM3000.29 4211V4215H3020.34V4211V4207H3000.29V4211ZM3040.39 4211V4215H3060.44V4211V4207H3040.39V4211ZM3080.48 4211V4215H3100.53V4211V4207H3080.48V4211ZM3120.58 4211V4215H3140.63V4211V4207H3120.58V4211ZM3160.68 4211V4215H3180.72V4211V4207H3160.68V4211ZM3200.77 4211V4215H3220.82V4211V4207H3200.77V4211ZM3240.87 4211V4215H3260.92V4211V4207H3240.87V4211ZM3280.96 4211V4215H3301.01V4211V4207H3280.96V4211ZM3321.06 4211V4215H3341.11V4211V4207H3321.06V4211ZM3361.16 4211V4215H3381.2V4211V4207H3361.16V4211ZM3401.25 4211V4215H3421.3V4211V4207H3401.25V4211ZM3441.35 4211V4215H3461.4V4211V4207H3441.35V4211ZM3481.44 4211V4215H3501.49V4211V4207H3481.44V4211ZM3521.54 4211V4215H3541.59V4211V4207H3521.54V4211ZM3561.63 4211V4215H3581.68V4211V4207H3561.63V4211ZM3601.73 4211V4215H3621.78V4211V4207H3601.73V4211ZM3641.83 4211V4215H3661.87V4211V4207H3641.83V4211ZM3681.92 4211V4215H3701.97V4211V4207H3681.92V4211ZM3722.02 4211V4215H3742.06V4211V4207H3722.02V4211ZM3762.11 4211V4215H3782.16V4211V4207H3762.11V4211ZM3802.21 4211V4215H3822.26V4211V4207H3802.21V4211ZM3842.3 4211V4215H3862.35V4211V4207H3842.3V4211ZM3882.4 4211V4215H3902.45V4211V4207H3882.4V4211ZM3922.5 4211V4215H3942.54V4211V4207H3922.5V4211ZM3962.59 4211V4215H3982.64V4211V4207H3962.59V4211ZM4002.69 4211V4215H4022.73V4211V4207H4002.69V4211ZM4042.78 4211V4215H4062.83V4211V4207H4042.78V4211ZM4082.88 4211V4215H4102.93V4211V4207H4082.88V4211ZM4122.97 4211V4215H4143.02V4211V4207H4122.97V4211ZM4163.07 4211V4215H4183.12V4211V4207H4163.07V4211ZM4203.17 4211V4215H4223.21V4211V4207H4203.17V4211ZM4243.26 4211V4215H4263.31V4211V4207H4243.26V4211ZM4283.36 4211V4215H4303.4V4211V4207H4283.36V4211ZM4323.45 4211V4215H4343.5V4211V4207H4323.45V4211ZM4363.55 4211V4215H4383.6V4211V4207H4363.55V4211ZM4403.64 4211V4215H4423.69V4211V4207H4403.64V4211ZM4443.74 4211V4215H4463.79V4211V4207H4443.74V4211ZM4483.84 4211V4215H4503.88V4211V4207H4483.84V4211ZM4523.93 4211V4215H4543.98V4211V4207H4523.93V4211ZM4564.03 4211V4215H4584.07V4211V4207H4564.03V4211ZM4604.12 4211V4215H4624.17V4211V4207H4604.12V4211ZM4644.22 4211V4215H4664.27V4211V4207H4644.22V4211ZM4684.31 4211V4215H4704.36V4211V4207H4684.31V4211ZM4724.41 4211V4215H4744.46V4211V4207H4724.41V4211ZM4764.51 4211V4215H4784.55V4211V4207H4764.51V4211ZM4804.6 4211V4215H4824.65V4211V4207H4804.6V4211ZM4844.7 4211V4215H4864.74V4211V4207H4844.7V4211ZM4884.79 4211V4215H4904.84V4211V4207H4884.79V4211ZM4924.89 4211V4215H4944.94V4211V4207H4924.89V4211ZM4964.98 4211V4215H4985.03V4211V4207H4964.98V4211ZM5005.08 4211V4215H5025.13V4211V4207H5005.08V4211ZM5045.18 4211V4215H5065.22V4211V4207H5045.18V4211ZM5085.27 4211V4215H5105.32V4211V4207H5085.27V4211ZM5125.37 4211V4215H5145.41V4211V4207H5125.37V4211ZM5165.46 4211V4215H5185.51V4211V4207H5165.46V4211ZM5205.56 4211V4215H5225.61V4211V4207H5205.56V4211ZM5245.65 4211V4215H5265.7V4211V4207H5245.65V4211ZM5285.75 4211V4215H5305.8V4211V4207H5285.75V4211ZM5325.85 4211V4215H5345.89V4211V4207H5325.85V4211ZM5365.94 4211V4215H5385.99V4211V4207H5365.94V4211ZM5406.04 4211V4215H5426.08V4211V4207H5406.04V4211ZM5446.13 4211V4215H5466.18V4211V4207H5446.13V4211ZM5486.23 4211V4215H5506.28V4211V4207H5486.23V4211ZM5526.32 4211V4215H5546.37V4211V4207H5526.32V4211ZM5566.42 4211V4215H5586.47V4211V4207H5566.42V4211ZM5606.52 4211V4215H5626.56V4211V4207H5606.52V4211ZM5646.61 4211V4215H5666.66V4211V4207H5646.61V4211ZM5686.71 4211V4215H5706.75V4211V4207H5686.71V4211ZM5726.8 4211V4215H5746.85V4211V4207H5726.8V4211ZM5766.9 4211V4215H5786.95V4211V4207H5766.9V4211ZM5806.99 4211V4215H5827.04V4211V4207H5806.99V4211ZM5847.09 4211V4215H5867.14V4211V4207H5847.09V4211ZM5887.19 4211V4215H5907.23V4211V4207H5887.19V4211ZM5927.28 4211V4215H5947.33V4211V4207H5927.28V4211ZM5967.38 4211V4215H5987.42V4211V4207H5967.38V4211ZM6007.47 4211V4215H6027.52V4211V4207H6007.47V4211ZM6047.57 4211V4215H6067.62V4211V4207H6047.57V4211ZM6087.66 4211V4215H6107.71V4211V4207H6087.66V4211ZM6127.76 4211V4215H6147.81V4211V4207H6127.76V4211ZM6167.85 4211V4215H6187.9V4211V4207H6167.85V4211ZM6207.95 4211V4215H6228V4211V4207H6207.95V4211ZM6248.05 4211V4215H6268.09V4211V4207H6248.05V4211ZM6288.14 4211V4215H6308.19V4211V4207H6288.14V4211ZM6328.24 4211V4215H6348.29V4211V4207H6328.24V4211ZM6368.33 4211V4215H6388.38V4211V4207H6368.33V4211ZM6408.43 4211V4215H6428.48V4211V4207H6408.43V4211ZM6448.52 4211V4215H6468.57V4211V4207H6448.52V4211ZM6488.62 4211V4215H6508.67V4211V4207H6488.62V4211ZM6528.72 4211V4215H6548.76V4211V4207H6528.72V4211ZM6568.81 4211V4215H6588.86V4211V4207H6568.81V4211ZM6608.91 4211V4215H6628.96V4211V4207H6608.91V4211ZM6649 4211V4215H6669.05V4211V4207H6649V4211ZM6689.1 4211V4215H6709.15V4211V4207H6689.1V4211ZM6729.19 4211V4215H6749.24V4211V4207H6729.19V4211ZM6769.29 4211V4215H6789.34V4211V4207H6769.29V4211ZM6809.39 4211V4215H6829.43V4211V4207H6809.39V4211ZM6849.48 4211V4215H6869.53V4211V4207H6849.48V4211ZM6889.58 4211V4215H6909.63V4211V4207H6889.58V4211ZM6929.67 4211V4215H6949.72V4211V4207H6929.67V4211ZM6969.77 4211V4215H6989.82V4211V4207H6969.77V4211ZM7009.86 4211V4215H7029.91V4211V4207H7009.86V4211ZM7049.96 4211V4215H7060V4211V4207H7049.96V4211ZM7060 4211H7064V4201.03H7060H7056V4211H7060ZM7060 4181.09H7064V4161.15H7060H7056V4181.09H7060ZM7060 4141.2H7064V4121.26H7060H7056V4141.2H7060ZM7060 4101.32H7064V4081.38H7060H7056V4101.32H7060ZM7060 4061.44H7064V4041.5H7060H7056V4061.44H7060ZM7060 4021.56H7064V4001.61H7060H7056V4021.56H7060ZM7060 3981.67H7064V3961.73H7060H7056V3981.67H7060ZM7060 3941.79H7064V3921.85H7060H7056V3941.79H7060ZM7060 3901.91H7064V3881.97H7060H7056V3901.91H7060ZM7060 3862.02H7064V3842.08H7060H7056V3862.02H7060ZM7060 3822.14H7064V3802.2H7060H7056V3822.14H7060ZM7060 3782.26H7064V3762.32H7060H7056V3782.26H7060ZM7060 3742.37H7064V3722.43H7060H7056V3742.37H7060ZM7060 3702.49H7064V3682.55H7060H7056V3702.49H7060ZM7060 3662.61H7064V3642.67H7060H7056V3662.61H7060ZM7060 3622.73H7064V3602.78H7060H7056V3622.73H7060ZM7060 3582.84H7064V3562.9H7060H7056V3582.84H7060ZM7060 3542.96H7064V3523.02H7060H7056V3542.96H7060ZM7060 3503.08H7064V3483.14H7060H7056V3503.08H7060ZM7060 3463.19H7064V3443.25H7060H7056V3463.19H7060ZM7060 3423.31H7064V3403.37H7060H7056V3423.31H7060ZM7060 3383.43H7064V3363.49H7060H7056V3383.43H7060ZM7060 3343.55H7064V3323.6H7060H7056V3343.55H7060ZM7060 3303.66H7064V3283.72H7060H7056V3303.66H7060ZM7060 3263.78H7064V3243.84H7060H7056V3263.78H7060ZM7060 3223.9H7064V3203.96H7060H7056V3223.9H7060ZM7060 3184.01H7064V3164.07H7060H7056V3184.01H7060ZM7060 3144.13H7064V3124.19H7060H7056V3144.13H7060ZM7060 3104.25H7064V3084.31H7060H7056V3104.25H7060ZM7060 3064.36H7064V3044.42H7060H7056V3064.36H7060ZM7060 3024.48H7064V3004.54H7060H7056V3024.48H7060ZM7060 2984.6H7064V2964.66H7060H7056V2984.6H7060ZM7060 2944.72H7064V2924.77H7060H7056V2944.72H7060ZM7060 2904.83H7064V2884.89H7060H7056V2904.83H7060ZM7060 2864.95H7064V2845.01H7060H7056V2864.95H7060ZM7060 2825.07H7064V2805.12H7060H7056V2825.07H7060ZM7060 2785.18H7064V2765.24H7060H7056V2785.18H7060ZM7060 2745.3H7064V2725.36H7060H7056V2745.3H7060ZM7060 2705.42H7064V2685.48H7060H7056V2705.42H7060ZM7060 2665.53H7064V2645.59H7060H7056V2665.53H7060ZM7060 2625.65H7064V2605.71H7060H7056V2625.65H7060ZM7060 2585.77H7064V2565.83H7060H7056V2585.77H7060ZM7060 2545.88H7064V2525.94H7060H7056V2545.88H7060ZM7060 2506H7064V2486.06H7060H7056V2506H7060ZM7060 2466.12H7064V2446.18H7060H7056V2466.12H7060ZM7060 2426.24H7064V2406.29H7060H7056V2426.24H7060ZM7060 2386.35H7064V2366.41H7060H7056V2386.35H7060ZM7060 2346.47H7064V2326.53H7060H7056V2346.47H7060ZM7060 2306.59H7064V2286.65H7060H7056V2306.59H7060ZM7060 2266.7H7064V2246.76H7060H7056V2266.7H7060ZM7060 2226.82H7064V2206.88H7060H7056V2226.82H7060ZM7060 2186.94H7064V2167H7060H7056V2186.94H7060ZM7060 2147.05H7064V2127.11H7060H7056V2147.05H7060ZM7060 2107.17H7064V2087.23H7060H7056V2107.17H7060ZM7060 2067.29H7064V2047.35H7060H7056V2067.29H7060ZM7060 2027.41H7064V2007.46H7060H7056V2027.41H7060ZM7060 1987.52H7064V1967.58H7060H7056V1987.52H7060ZM7060 1947.64H7064V1927.7H7060H7056V1947.64H7060ZM7060 1907.76H7064V1887.82H7060H7056V1907.76H7060ZM7060 1867.87H7064V1847.93H7060H7056V1867.87H7060ZM7060 1827.99H7064V1808.05H7060H7056V1827.99H7060ZM7060 1788.11H7064V1768.17H7060H7056V1788.11H7060ZM7060 1748.23H7064V1728.28H7060H7056V1748.23H7060ZM7060 1708.34H7064V1688.4H7060H7056V1708.34H7060ZM7060 1668.46H7064V1648.52H7060H7056V1668.46H7060ZM7060 1628.58H7064V1608.64H7060H7056V1628.58H7060ZM7060 1588.69H7064V1568.75H7060H7056V1588.69H7060ZM7060 1548.81H7064V1528.87H7060H7056V1548.81H7060ZM7060 1508.93H7064V1488.99H7060H7056V1508.93H7060ZM7060 1469.05H7064V1449.1H7060H7056V1469.05H7060ZM7060 1429.16H7064V1409.22H7060H7056V1429.16H7060ZM7060 1389.28H7064V1369.34H7060H7056V1389.28H7060ZM7060 1349.4H7064V1329.46H7060H7056V1349.4H7060ZM7060 1309.52H7064V1289.57H7060H7056V1309.52H7060ZM7060 1269.63H7064V1249.69H7060H7056V1269.63H7060ZM7060 1229.75H7064V1209.81H7060H7056V1229.75H7060ZM7060 1189.87H7064V1169.93H7060H7056V1189.87H7060ZM7060 1149.98H7064V1130.04H7060H7056V1149.98H7060ZM7060 1110.1H7064V1090.16H7060H7056V1110.1H7060ZM7060 1070.22H7064V1050.28H7060H7056V1070.22H7060ZM7060 1030.34H7064V1010.39H7060H7056V1030.34H7060ZM7060 990.453H7064V970.511H7060H7056V990.453H7060ZM7060 950.57H7064V930.628H7060H7056V950.57H7060ZM7060 910.687H7064V890.746H7060H7056V910.687H7060ZM7060 870.804H7064V850.863H7060H7056V870.804H7060ZM7060 830.921H7064V810.98H7060H7056V830.921H7060ZM7060 791.039H7064V771.097H7060H7056V791.039H7060ZM7060 751.156H7064V731.214H7060H7056V751.156H7060ZM7060 711.273H7064V691.332H7060H7056V711.273H7060ZM7060 671.39H7064V651.449H7060H7056V671.39H7060ZM7060 631.507H7064V611.566H7060H7056V631.507H7060ZM7060 591.625H7064V571.683H7060H7056V591.625H7060ZM7060 551.742H7064V531.8H7060H7056V551.742H7060ZM7060 511.859H7064V491.917H7060H7056V511.859H7060ZM7060 471.976H7064V462H7060H7056V471.976H7060ZM7060 462V458H7049.98V462V466H7060V462ZM7029.93 462V458H7009.88V462V466H7029.93V462ZM6989.83 462V458H6969.78V462V466H6989.83V462ZM6949.74 462V458H6929.69V462V466H6949.74V462ZM6909.64 462V458H6889.59V462V466H6909.64V462ZM6869.54 462V458H6849.5V462V466H6869.54V462ZM6829.45 462V458H6809.4V462V466H6829.45V462ZM6789.35 462V458H6769.3V462V466H6789.35V462ZM6749.26 462V458H6729.21V462V466H6749.26V462ZM6709.16 462V458H6689.11V462V466H6709.16V462ZM6669.06 462V458H6649.02V462V466H6669.06V462ZM6628.97 462V458H6608.92V462V466H6628.97V462ZM6588.87 462V458H6568.83V462V466H6588.87V462ZM6548.78 462V458H6528.73V462V466H6548.78V462ZM6508.68 462V458H6488.63V462V466H6508.68V462ZM6468.59 462V458H6448.54V462V466H6468.59V462ZM6428.49 462V458H6408.44V462V466H6428.49V462ZM6388.39 462V458H6368.35V462V466H6388.39V462ZM6348.3 462V458H6328.25V462V466H6348.3V462ZM6308.2 462V458H6288.15V462V466H6308.2V462ZM6268.11 462V458H6248.06V462V466H6268.11V462ZM6228.01 462V458H6207.96V462V466H6228.01V462ZM6187.91 462V458H6167.87V462V466H6187.91V462ZM6147.82 462V458H6127.77V462V466H6147.82V462ZM6107.72 462V458H6087.67V462V466H6107.72V462ZM6067.63 462V458H6047.58V462V466H6067.63V462ZM6027.53 462V458H6007.48V462V466H6027.53V462ZM5987.43 462V458H5967.39V462V466H5987.43V462ZM5947.34 462V458H5927.29V462V466H5947.34V462ZM5907.24 462V458H5887.19V462V466H5907.24V462ZM5867.15 462V458H5847.1V462V466H5867.15V462ZM5827.05 462V458H5807V462V466H5827.05V462ZM5786.95 462V458H5766.91V462V466H5786.95V462ZM5746.86 462V458H5726.81V462V466H5746.86V462ZM5706.76 462V458H5686.71V462V466H5706.76V462ZM5666.67 462V458H5646.62V462V466H5666.67V462ZM5626.57 462V458H5606.52V462V466H5626.57V462ZM5586.47 462V458H5566.43V462V466H5586.47V462ZM5546.38 462V458H5526.33V462V466H5546.38V462ZM5506.28 462V458H5486.23V462V466H5506.28V462ZM5466.19 462V458H5446.14V462V466H5466.19V462ZM5426.09 462V458H5406.04V462V466H5426.09V462ZM5386 462V458H5365.95V462V466H5386V462ZM5345.9 462V458H5325.85V462V466H5345.9V462ZM5305.8 462V458H5285.76V462V466H5305.8V462ZM5265.71 462V458H5245.66V462V466H5265.71V462ZM5225.61 462V458H5205.56V462V466H5225.61V462ZM5185.52 462V458H5165.47V462V466H5185.52V462ZM5145.42 462V458H5125.37V462V466H5145.42V462ZM5105.32 462V458H5085.28V462V466H5105.32V462ZM5065.23 462V458H5045.18V462V466H5065.23V462ZM5025.13 462V458H5005.08V462V466H5025.13V462ZM4985.04 462V458H4964.99V462V466H4985.04V462ZM4944.94 462V458H4924.89V462V466H4944.94V462ZM4904.84 462V458H4884.8V462V466H4904.84V462ZM4864.75 462V458H4844.7V462V466H4864.75V462ZM4824.65 462V458H4804.6V462V466H4824.65V462ZM4784.56 462V458H4764.51V462V466H4784.56V462ZM4744.46 462V458H4724.41V462V466H4744.46V462ZM4704.37 462V458H4684.32V462V466H4704.37V462ZM4664.27 462V458H4644.22V462V466H4664.27V462ZM4624.17 462V458H4604.13V462V466H4624.17V462ZM4584.08 462V458H4564.03V462V466H4584.08V462ZM4543.98 462V458H4523.94V462V466H4543.98V462ZM4503.89 462V458H4483.84V462V466H4503.89V462ZM4463.79 462V458H4443.74V462V466H4463.79V462ZM4423.7 462V458H4403.65V462V466H4423.7V462ZM4383.6 462V458H4363.55V462V466H4383.6V462ZM4343.5 462V458H4323.46V462V466H4343.5V462ZM4303.41 462V458H4283.36V462V466H4303.41V462ZM4263.31 462V458H4243.27V462V466H4263.31V462ZM4223.22 462V458H4203.17V462V466H4223.22V462ZM4183.12 462V458H4163.07V462V466H4183.12V462ZM4143.03 462V458H4122.98V462V466H4143.03V462ZM4102.93 462V458H4082.88V462V466H4102.93V462ZM4062.83 462V458H4042.79V462V466H4062.83V462ZM4022.74 462V458H4002.69V462V466H4022.74V462ZM3982.64 462V458H3962.6V462V466H3982.64V462ZM3942.55 462V458H3922.5V462V466H3942.55V462ZM3902.45 462V458H3882.4V462V466H3902.45V462ZM3862.36 462V458H3842.31V462V466H3862.36V462ZM3822.26 462V458H3802.21V462V466H3822.26V462ZM3782.16 462V458H3762.12V462V466H3782.16V462ZM3742.07 462V458H3722.02V462V466H3742.07V462ZM3701.97 462V458H3681.93V462V466H3701.97V462ZM3661.88 462V458H3641.83V462V466H3661.88V462ZM3621.78 462V458H3601.73V462V466H3621.78V462ZM3581.69 462V458H3561.64V462V466H3581.69V462ZM3541.59 462V458H3521.54V462V466H3541.59V462ZM3501.49 462V458H3481.45V462V466H3501.49V462ZM3461.4 462V458H3441.35V462V466H3461.4V462ZM3421.3 462V458H3401.26V462V466H3421.3V462ZM3381.21 462V458H3361.16V462V466H3381.21V462ZM3341.11 462V458H3321.06V462V466H3341.11V462ZM3301.02 462V458H3280.97V462V466H3301.02V462ZM3260.92 462V458H3240.87V462V466H3260.92V462ZM3220.82 462V458H3200.78V462V466H3220.82V462ZM3180.73 462V458H3160.68V462V466H3180.73V462ZM3140.63 462V458H3120.59V462V466H3140.63V462ZM3100.54 462V458H3080.49V462V466H3100.54V462ZM3060.44 462V458H3040.39V462V466H3060.44V462ZM3020.35 462V458H3000.3V462V466H3020.35V462ZM2980.25 462V458H2960.2V462V466H2980.25V462ZM2940.15 462V458H2920.11V462V466H2940.15V462ZM2900.06 462V458H2880.01V462V466H2900.06V462ZM2859.96 462V458H2839.92V462V466H2859.96V462ZM2819.87 462V458H2799.82V462V466H2819.87V462ZM2779.77 462V458H2759.72V462V466H2779.77V462ZM2739.68 462V458H2719.63V462V466H2739.68V462ZM2699.58 462V458H2679.53V462V466H2699.58V462ZM2659.48 462V458H2639.44V462V466H2659.48V462ZM2619.39 462V458H2599.34V462V466H2619.39V462ZM2579.29 462V458H2559.25V462V466H2579.29V462ZM2539.2 462V458H2519.15V462V466H2539.2V462ZM2499.1 462V458H2479.05V462V466H2499.1V462ZM2459.01 462V458H2438.96V462V466H2459.01V462ZM2418.91 462V458H2398.86V462V466H2418.91V462ZM2378.81 462V458H2358.77V462V466H2378.81V462ZM2338.72 462V458H2318.67V462V466H2338.72V462ZM2298.62 462V458H2278.58V462V466H2298.62V462ZM2258.53 462V458H2238.48V462V466H2258.53V462ZM2218.43 462V458H2198.38V462V466H2218.43V462ZM2178.34 462V458H2158.29V462V466H2178.34V462ZM2138.24 462V458H2118.19V462V466H2138.24V462ZM2098.15 462V458H2078.1V462V466H2098.15V462ZM2058.05 462V458H2038V462V466H2058.05V462ZM2017.95 462V458H1997.91V462V466H2017.95V462ZM1977.86 462V458H1957.81V462V466H1977.86V462ZM1937.76 462V458H1917.71V462V466H1937.76V462ZM1897.67 462V458H1877.62V462V466H1897.67V462ZM1857.57 462V458H1837.52V462V466H1857.57V462ZM1817.47 462V458H1797.43V462V466H1817.47V462ZM1777.38 462V458H1757.33V462V466H1777.38V462ZM1737.28 462V458H1717.24V462V466H1737.28V462ZM1697.19 462V458H1677.14V462V466H1697.19V462ZM1657.09 462V458H1637.04V462V466H1657.09V462ZM1617 462V458H1596.95V462V466H1617V462ZM1576.9 462V458H1556.85V462V466H1576.9V462ZM1536.81 462V458H1516.76V462V466H1536.81V462ZM1496.71 462V458H1476.66V462V466H1496.71V462ZM1456.61 462V458H1436.57V462V466H1456.61V462ZM1416.52 462V458H1396.47V462V466H1416.52V462ZM1376.42 462V458H1356.37V462V466H1376.42V462ZM1336.33 462V458H1316.28V462V466H1336.33V462ZM1296.23 462V458H1276.18V462V466H1296.23V462ZM1256.14 462V458H1236.09V462V466H1256.14V462ZM1216.04 462V458H1206V462V466H1216.04V462Z" fill="#9A9A9A"/>
</g>
</g>
</g>
</svg>
