<svg width="7519" height="4670" viewBox="0 0 7519 4670" fill="none" xmlns="http://www.w3.org/2000/svg">
<g id="Diagonal">
<rect id="zone-primary" y="1" width="7519" height="4669" fill="white"/>
<g id="zone-secondary">
<rect id="zone-secondary_2" y="4210" width="7507" height="460" fill="#373737"/>
<rect id="zone-secondary_3" x="7060" y="4662" width="4662" height="459" transform="rotate(-90 7060 4662)" fill="#373737"/>
<path id="Vector 1" d="M1123.5 4360L7209 363H1123.5V4360Z" fill="#373737"/>
<rect id="zone-secondary_4" y="1" width="7507" height="460" fill="#373737"/>
<rect id="Rectangle 1" y="1" width="1355" height="4661" fill="#373737"/>
</g>
<g id="Bleed">
<g id="Bleed_2">
<rect id="Bleed_3" x="0.5" y="1.5" width="7518" height="309" fill="#9A9A9A" stroke="#9A9A9A"/>
<rect id="Bleed_4" x="0.5" y="4669.5" width="4668" height="1205" transform="rotate(-90 0.5 4669.5)" fill="#9A9A9A" stroke="#9A9A9A"/>
<rect id="Bleed_5" x="7209.5" y="4669.5" width="4668" height="309" transform="rotate(-90 7209.5 4669.5)" fill="#9A9A9A" stroke="#9A9A9A"/>
<rect id="Bleed_6" x="0.5" y="4360.5" width="7518" height="309" fill="#9A9A9A" stroke="#9A9A9A"/>
<path id="Bleed_7" d="M7060 461H7064V457H7060V461ZM7060 4210V4214H7064V4210H7060ZM1206 4210V4214H1216.02V4210V4206H1206V4210ZM1236.07 4210V4214H1256.12V4210V4206H1236.07V4210ZM1276.17 4210V4214H1296.22V4210V4206H1276.17V4210ZM1316.26 4210V4214H1336.31V4210V4206H1316.26V4210ZM1356.36 4210V4214H1376.41V4210V4206H1356.36V4210ZM1396.46 4210V4214H1416.5V4210V4206H1396.46V4210ZM1436.55 4210V4214H1456.6V4210V4206H1436.55V4210ZM1476.65 4210V4214H1496.7V4210V4206H1476.65V4210ZM1516.74 4210V4214H1536.79V4210V4206H1516.74V4210ZM1556.84 4210V4214H1576.89V4210V4206H1556.84V4210ZM1596.93 4210V4214H1616.98V4210V4206H1596.93V4210ZM1637.03 4210V4214H1657.08V4210V4206H1637.03V4210ZM1677.13 4210V4214H1697.17V4210V4206H1677.13V4210ZM1717.22 4210V4214H1737.27V4210V4206H1717.22V4210ZM1757.32 4210V4214H1777.37V4210V4206H1757.32V4210ZM1797.41 4210V4214H1817.46V4210V4206H1797.41V4210ZM1837.51 4210V4214H1857.56V4210V4206H1837.51V4210ZM1877.61 4210V4214H1897.65V4210V4206H1877.61V4210ZM1917.7 4210V4214H1937.75V4210V4206H1917.7V4210ZM1957.8 4210V4214H1977.85V4210V4206H1957.8V4210ZM1997.89 4210V4214H2017.94V4210V4206H1997.89V4210ZM2037.99 4210V4214H2058.04V4210V4206H2037.99V4210ZM2078.09 4210V4214H2098.13V4210V4206H2078.09V4210ZM2118.18 4210V4214H2138.23V4210V4206H2118.18V4210ZM2158.28 4210V4214H2178.33V4210V4206H2158.28V4210ZM2198.37 4210V4214H2218.42V4210V4206H2198.37V4210ZM2238.47 4210V4214H2258.52V4210V4206H2238.47V4210ZM2278.57 4210V4214H2298.61V4210V4206H2278.57V4210ZM2318.66 4210V4214H2338.71V4210V4206H2318.66V4210ZM2358.76 4210V4214H2378.81V4210V4206H2358.76V4210ZM2398.85 4210V4214H2418.9V4210V4206H2398.85V4210ZM2438.95 4210V4214H2459V4210V4206H2438.95V4210ZM2479.05 4210V4214H2499.09V4210V4206H2479.05V4210ZM2519.14 4210V4214H2539.19V4210V4206H2519.14V4210ZM2559.24 4210V4214H2579.29V4210V4206H2559.24V4210ZM2599.33 4210V4214H2619.38V4210V4206H2599.33V4210ZM2639.43 4210V4214H2659.48V4210V4206H2639.43V4210ZM2679.53 4210V4214H2699.57V4210V4206H2679.53V4210ZM2719.62 4210V4214H2739.67V4210V4206H2719.62V4210ZM2759.72 4210V4214H2779.77V4210V4206H2759.72V4210ZM2799.81 4210V4214H2819.86V4210V4206H2799.81V4210ZM2839.91 4210V4214H2859.96V4210V4206H2839.91V4210ZM2880.01 4210V4214H2900.05V4210V4206H2880.01V4210ZM2920.1 4210V4214H2940.15V4210V4206H2920.1V4210ZM2960.2 4210V4214H2980.24V4210V4206H2960.2V4210ZM3000.29 4210V4214H3020.34V4210V4206H3000.29V4210ZM3040.39 4210V4214H3060.44V4210V4206H3040.39V4210ZM3080.48 4210V4214H3100.53V4210V4206H3080.48V4210ZM3120.58 4210V4214H3140.63V4210V4206H3120.58V4210ZM3160.68 4210V4214H3180.72V4210V4206H3160.68V4210ZM3200.77 4210V4214H3220.82V4210V4206H3200.77V4210ZM3240.87 4210V4214H3260.92V4210V4206H3240.87V4210ZM3280.96 4210V4214H3301.01V4210V4206H3280.96V4210ZM3321.06 4210V4214H3341.11V4210V4206H3321.06V4210ZM3361.16 4210V4214H3381.2V4210V4206H3361.16V4210ZM3401.25 4210V4214H3421.3V4210V4206H3401.25V4210ZM3441.35 4210V4214H3461.4V4210V4206H3441.35V4210ZM3481.44 4210V4214H3501.49V4210V4206H3481.44V4210ZM3521.54 4210V4214H3541.59V4210V4206H3521.54V4210ZM3561.63 4210V4214H3581.68V4210V4206H3561.63V4210ZM3601.73 4210V4214H3621.78V4210V4206H3601.73V4210ZM3641.83 4210V4214H3661.87V4210V4206H3641.83V4210ZM3681.92 4210V4214H3701.97V4210V4206H3681.92V4210ZM3722.02 4210V4214H3742.06V4210V4206H3722.02V4210ZM3762.11 4210V4214H3782.16V4210V4206H3762.11V4210ZM3802.21 4210V4214H3822.26V4210V4206H3802.21V4210ZM3842.3 4210V4214H3862.35V4210V4206H3842.3V4210ZM3882.4 4210V4214H3902.45V4210V4206H3882.4V4210ZM3922.5 4210V4214H3942.54V4210V4206H3922.5V4210ZM3962.59 4210V4214H3982.64V4210V4206H3962.59V4210ZM4002.69 4210V4214H4022.73V4210V4206H4002.69V4210ZM4042.78 4210V4214H4062.83V4210V4206H4042.78V4210ZM4082.88 4210V4214H4102.93V4210V4206H4082.88V4210ZM4122.97 4210V4214H4143.02V4210V4206H4122.97V4210ZM4163.07 4210V4214H4183.12V4210V4206H4163.07V4210ZM4203.17 4210V4214H4223.21V4210V4206H4203.17V4210ZM4243.26 4210V4214H4263.31V4210V4206H4243.26V4210ZM4283.36 4210V4214H4303.4V4210V4206H4283.36V4210ZM4323.45 4210V4214H4343.5V4210V4206H4323.45V4210ZM4363.55 4210V4214H4383.6V4210V4206H4363.55V4210ZM4403.64 4210V4214H4423.69V4210V4206H4403.64V4210ZM4443.74 4210V4214H4463.79V4210V4206H4443.74V4210ZM4483.84 4210V4214H4503.88V4210V4206H4483.84V4210ZM4523.93 4210V4214H4543.98V4210V4206H4523.93V4210ZM4564.03 4210V4214H4584.07V4210V4206H4564.03V4210ZM4604.12 4210V4214H4624.17V4210V4206H4604.12V4210ZM4644.22 4210V4214H4664.27V4210V4206H4644.22V4210ZM4684.31 4210V4214H4704.36V4210V4206H4684.31V4210ZM4724.41 4210V4214H4744.46V4210V4206H4724.41V4210ZM4764.51 4210V4214H4784.55V4210V4206H4764.51V4210ZM4804.6 4210V4214H4824.65V4210V4206H4804.6V4210ZM4844.7 4210V4214H4864.74V4210V4206H4844.7V4210ZM4884.79 4210V4214H4904.84V4210V4206H4884.79V4210ZM4924.89 4210V4214H4944.94V4210V4206H4924.89V4210ZM4964.98 4210V4214H4985.03V4210V4206H4964.98V4210ZM5005.08 4210V4214H5025.13V4210V4206H5005.08V4210ZM5045.18 4210V4214H5065.22V4210V4206H5045.18V4210ZM5085.27 4210V4214H5105.32V4210V4206H5085.27V4210ZM5125.37 4210V4214H5145.41V4210V4206H5125.37V4210ZM5165.46 4210V4214H5185.51V4210V4206H5165.46V4210ZM5205.56 4210V4214H5225.61V4210V4206H5205.56V4210ZM5245.65 4210V4214H5265.7V4210V4206H5245.65V4210ZM5285.75 4210V4214H5305.8V4210V4206H5285.75V4210ZM5325.85 4210V4214H5345.89V4210V4206H5325.85V4210ZM5365.94 4210V4214H5385.99V4210V4206H5365.94V4210ZM5406.04 4210V4214H5426.08V4210V4206H5406.04V4210ZM5446.13 4210V4214H5466.18V4210V4206H5446.13V4210ZM5486.23 4210V4214H5506.28V4210V4206H5486.23V4210ZM5526.32 4210V4214H5546.37V4210V4206H5526.32V4210ZM5566.42 4210V4214H5586.47V4210V4206H5566.42V4210ZM5606.52 4210V4214H5626.56V4210V4206H5606.52V4210ZM5646.61 4210V4214H5666.66V4210V4206H5646.61V4210ZM5686.71 4210V4214H5706.75V4210V4206H5686.71V4210ZM5726.8 4210V4214H5746.85V4210V4206H5726.8V4210ZM5766.9 4210V4214H5786.95V4210V4206H5766.9V4210ZM5806.99 4210V4214H5827.04V4210V4206H5806.99V4210ZM5847.09 4210V4214H5867.14V4210V4206H5847.09V4210ZM5887.19 4210V4214H5907.23V4210V4206H5887.19V4210ZM5927.28 4210V4214H5947.33V4210V4206H5927.28V4210ZM5967.38 4210V4214H5987.42V4210V4206H5967.38V4210ZM6007.47 4210V4214H6027.52V4210V4206H6007.47V4210ZM6047.57 4210V4214H6067.62V4210V4206H6047.57V4210ZM6087.66 4210V4214H6107.71V4210V4206H6087.66V4210ZM6127.76 4210V4214H6147.81V4210V4206H6127.76V4210ZM6167.85 4210V4214H6187.9V4210V4206H6167.85V4210ZM6207.95 4210V4214H6228V4210V4206H6207.95V4210ZM6248.05 4210V4214H6268.09V4210V4206H6248.05V4210ZM6288.14 4210V4214H6308.19V4210V4206H6288.14V4210ZM6328.24 4210V4214H6348.29V4210V4206H6328.24V4210ZM6368.33 4210V4214H6388.38V4210V4206H6368.33V4210ZM6408.43 4210V4214H6428.48V4210V4206H6408.43V4210ZM6448.52 4210V4214H6468.57V4210V4206H6448.52V4210ZM6488.62 4210V4214H6508.67V4210V4206H6488.62V4210ZM6528.72 4210V4214H6548.76V4210V4206H6528.72V4210ZM6568.81 4210V4214H6588.86V4210V4206H6568.81V4210ZM6608.91 4210V4214H6628.96V4210V4206H6608.91V4210ZM6649 4210V4214H6669.05V4210V4206H6649V4210ZM6689.1 4210V4214H6709.15V4210V4206H6689.1V4210ZM6729.19 4210V4214H6749.24V4210V4206H6729.19V4210ZM6769.29 4210V4214H6789.34V4210V4206H6769.29V4210ZM6809.39 4210V4214H6829.43V4210V4206H6809.39V4210ZM6849.48 4210V4214H6869.53V4210V4206H6849.48V4210ZM6889.58 4210V4214H6909.63V4210V4206H6889.58V4210ZM6929.67 4210V4214H6949.72V4210V4206H6929.67V4210ZM6969.77 4210V4214H6989.82V4210V4206H6969.77V4210ZM7009.86 4210V4214H7029.91V4210V4206H7009.86V4210ZM7049.96 4210V4214H7060V4210V4206H7049.96V4210ZM7060 4210H7064V4200.03H7060H7056V4210H7060ZM7060 4180.09H7064V4160.15H7060H7056V4180.09H7060ZM7060 4140.2H7064V4120.26H7060H7056V4140.2H7060ZM7060 4100.32H7064V4080.38H7060H7056V4100.32H7060ZM7060 4060.44H7064V4040.5H7060H7056V4060.44H7060ZM7060 4020.56H7064V4000.61H7060H7056V4020.56H7060ZM7060 3980.67H7064V3960.73H7060H7056V3980.67H7060ZM7060 3940.79H7064V3920.85H7060H7056V3940.79H7060ZM7060 3900.91H7064V3880.97H7060H7056V3900.91H7060ZM7060 3861.02H7064V3841.08H7060H7056V3861.02H7060ZM7060 3821.14H7064V3801.2H7060H7056V3821.14H7060ZM7060 3781.26H7064V3761.32H7060H7056V3781.26H7060ZM7060 3741.37H7064V3721.43H7060H7056V3741.37H7060ZM7060 3701.49H7064V3681.55H7060H7056V3701.49H7060ZM7060 3661.61H7064V3641.67H7060H7056V3661.61H7060ZM7060 3621.73H7064V3601.78H7060H7056V3621.73H7060ZM7060 3581.84H7064V3561.9H7060H7056V3581.84H7060ZM7060 3541.96H7064V3522.02H7060H7056V3541.96H7060ZM7060 3502.08H7064V3482.14H7060H7056V3502.08H7060ZM7060 3462.19H7064V3442.25H7060H7056V3462.19H7060ZM7060 3422.31H7064V3402.37H7060H7056V3422.31H7060ZM7060 3382.43H7064V3362.49H7060H7056V3382.43H7060ZM7060 3342.55H7064V3322.6H7060H7056V3342.55H7060ZM7060 3302.66H7064V3282.72H7060H7056V3302.66H7060ZM7060 3262.78H7064V3242.84H7060H7056V3262.78H7060ZM7060 3222.9H7064V3202.96H7060H7056V3222.9H7060ZM7060 3183.01H7064V3163.07H7060H7056V3183.01H7060ZM7060 3143.13H7064V3123.19H7060H7056V3143.13H7060ZM7060 3103.25H7064V3083.31H7060H7056V3103.25H7060ZM7060 3063.36H7064V3043.42H7060H7056V3063.36H7060ZM7060 3023.48H7064V3003.54H7060H7056V3023.48H7060ZM7060 2983.6H7064V2963.66H7060H7056V2983.6H7060ZM7060 2943.72H7064V2923.77H7060H7056V2943.72H7060ZM7060 2903.83H7064V2883.89H7060H7056V2903.83H7060ZM7060 2863.95H7064V2844.01H7060H7056V2863.95H7060ZM7060 2824.07H7064V2804.12H7060H7056V2824.07H7060ZM7060 2784.18H7064V2764.24H7060H7056V2784.18H7060ZM7060 2744.3H7064V2724.36H7060H7056V2744.3H7060ZM7060 2704.42H7064V2684.48H7060H7056V2704.42H7060ZM7060 2664.53H7064V2644.59H7060H7056V2664.53H7060ZM7060 2624.65H7064V2604.71H7060H7056V2624.65H7060ZM7060 2584.77H7064V2564.83H7060H7056V2584.77H7060ZM7060 2544.88H7064V2524.94H7060H7056V2544.88H7060ZM7060 2505H7064V2485.06H7060H7056V2505H7060ZM7060 2465.12H7064V2445.18H7060H7056V2465.12H7060ZM7060 2425.24H7064V2405.29H7060H7056V2425.24H7060ZM7060 2385.35H7064V2365.41H7060H7056V2385.35H7060ZM7060 2345.47H7064V2325.53H7060H7056V2345.47H7060ZM7060 2305.59H7064V2285.65H7060H7056V2305.59H7060ZM7060 2265.7H7064V2245.76H7060H7056V2265.7H7060ZM7060 2225.82H7064V2205.88H7060H7056V2225.82H7060ZM7060 2185.94H7064V2166H7060H7056V2185.94H7060ZM7060 2146.05H7064V2126.11H7060H7056V2146.05H7060ZM7060 2106.17H7064V2086.23H7060H7056V2106.17H7060ZM7060 2066.29H7064V2046.35H7060H7056V2066.29H7060ZM7060 2026.41H7064V2006.46H7060H7056V2026.41H7060ZM7060 1986.52H7064V1966.58H7060H7056V1986.52H7060ZM7060 1946.64H7064V1926.7H7060H7056V1946.64H7060ZM7060 1906.76H7064V1886.82H7060H7056V1906.76H7060ZM7060 1866.87H7064V1846.93H7060H7056V1866.87H7060ZM7060 1826.99H7064V1807.05H7060H7056V1826.99H7060ZM7060 1787.11H7064V1767.17H7060H7056V1787.11H7060ZM7060 1747.23H7064V1727.28H7060H7056V1747.23H7060ZM7060 1707.34H7064V1687.4H7060H7056V1707.34H7060ZM7060 1667.46H7064V1647.52H7060H7056V1667.46H7060ZM7060 1627.58H7064V1607.64H7060H7056V1627.58H7060ZM7060 1587.69H7064V1567.75H7060H7056V1587.69H7060ZM7060 1547.81H7064V1527.87H7060H7056V1547.81H7060ZM7060 1507.93H7064V1487.99H7060H7056V1507.93H7060ZM7060 1468.05H7064V1448.1H7060H7056V1468.05H7060ZM7060 1428.16H7064V1408.22H7060H7056V1428.16H7060ZM7060 1388.28H7064V1368.34H7060H7056V1388.28H7060ZM7060 1348.4H7064V1328.46H7060H7056V1348.4H7060ZM7060 1308.52H7064V1288.57H7060H7056V1308.52H7060ZM7060 1268.63H7064V1248.69H7060H7056V1268.63H7060ZM7060 1228.75H7064V1208.81H7060H7056V1228.75H7060ZM7060 1188.87H7064V1168.93H7060H7056V1188.87H7060ZM7060 1148.98H7064V1129.04H7060H7056V1148.98H7060ZM7060 1109.1H7064V1089.16H7060H7056V1109.1H7060ZM7060 1069.22H7064V1049.28H7060H7056V1069.22H7060ZM7060 1029.34H7064V1009.39H7060H7056V1029.34H7060ZM7060 989.453H7064V969.511H7060H7056V989.453H7060ZM7060 949.57H7064V929.628H7060H7056V949.57H7060ZM7060 909.687H7064V889.746H7060H7056V909.687H7060ZM7060 869.804H7064V849.863H7060H7056V869.804H7060ZM7060 829.921H7064V809.98H7060H7056V829.921H7060ZM7060 790.039H7064V770.097H7060H7056V790.039H7060ZM7060 750.156H7064V730.214H7060H7056V750.156H7060ZM7060 710.273H7064V690.332H7060H7056V710.273H7060ZM7060 670.39H7064V650.449H7060H7056V670.39H7060ZM7060 630.507H7064V610.566H7060H7056V630.507H7060ZM7060 590.625H7064V570.683H7060H7056V590.625H7060ZM7060 550.742H7064V530.8H7060H7056V550.742H7060ZM7060 510.859H7064V490.917H7060H7056V510.859H7060ZM7060 470.976H7064V461H7060H7056V470.976H7060ZM7060 461V457H7049.98V461V465H7060V461ZM7029.93 461V457H7009.88V461V465H7029.93V461ZM6989.83 461V457H6969.78V461V465H6989.83V461ZM6949.74 461V457H6929.69V461V465H6949.74V461ZM6909.64 461V457H6889.59V461V465H6909.64V461ZM6869.54 461V457H6849.5V461V465H6869.54V461ZM6829.45 461V457H6809.4V461V465H6829.45V461ZM6789.35 461V457H6769.3V461V465H6789.35V461ZM6749.26 461V457H6729.21V461V465H6749.26V461ZM6709.16 461V457H6689.11V461V465H6709.16V461ZM6669.06 461V457H6649.02V461V465H6669.06V461ZM6628.97 461V457H6608.92V461V465H6628.97V461ZM6588.87 461V457H6568.83V461V465H6588.87V461ZM6548.78 461V457H6528.73V461V465H6548.78V461ZM6508.68 461V457H6488.63V461V465H6508.68V461ZM6468.59 461V457H6448.54V461V465H6468.59V461ZM6428.49 461V457H6408.44V461V465H6428.49V461ZM6388.39 461V457H6368.35V461V465H6388.39V461ZM6348.3 461V457H6328.25V461V465H6348.3V461ZM6308.2 461V457H6288.15V461V465H6308.2V461ZM6268.11 461V457H6248.06V461V465H6268.11V461ZM6228.01 461V457H6207.96V461V465H6228.01V461ZM6187.91 461V457H6167.87V461V465H6187.91V461ZM6147.82 461V457H6127.77V461V465H6147.82V461ZM6107.72 461V457H6087.67V461V465H6107.72V461ZM6067.63 461V457H6047.58V461V465H6067.63V461ZM6027.53 461V457H6007.48V461V465H6027.53V461ZM5987.43 461V457H5967.39V461V465H5987.43V461ZM5947.34 461V457H5927.29V461V465H5947.34V461ZM5907.24 461V457H5887.19V461V465H5907.24V461ZM5867.15 461V457H5847.1V461V465H5867.15V461ZM5827.05 461V457H5807V461V465H5827.05V461ZM5786.95 461V457H5766.91V461V465H5786.95V461ZM5746.86 461V457H5726.81V461V465H5746.86V461ZM5706.76 461V457H5686.71V461V465H5706.76V461ZM5666.67 461V457H5646.62V461V465H5666.67V461ZM5626.57 461V457H5606.52V461V465H5626.57V461ZM5586.47 461V457H5566.43V461V465H5586.47V461ZM5546.38 461V457H5526.33V461V465H5546.38V461ZM5506.28 461V457H5486.23V461V465H5506.28V461ZM5466.19 461V457H5446.14V461V465H5466.19V461ZM5426.09 461V457H5406.04V461V465H5426.09V461ZM5386 461V457H5365.95V461V465H5386V461ZM5345.9 461V457H5325.85V461V465H5345.9V461ZM5305.8 461V457H5285.76V461V465H5305.8V461ZM5265.71 461V457H5245.66V461V465H5265.71V461ZM5225.61 461V457H5205.56V461V465H5225.61V461ZM5185.52 461V457H5165.47V461V465H5185.52V461ZM5145.42 461V457H5125.37V461V465H5145.42V461ZM5105.32 461V457H5085.28V461V465H5105.32V461ZM5065.23 461V457H5045.18V461V465H5065.23V461ZM5025.13 461V457H5005.08V461V465H5025.13V461ZM4985.04 461V457H4964.99V461V465H4985.04V461ZM4944.94 461V457H4924.89V461V465H4944.94V461ZM4904.84 461V457H4884.8V461V465H4904.84V461ZM4864.75 461V457H4844.7V461V465H4864.75V461ZM4824.65 461V457H4804.6V461V465H4824.65V461ZM4784.56 461V457H4764.51V461V465H4784.56V461ZM4744.46 461V457H4724.41V461V465H4744.46V461ZM4704.37 461V457H4684.32V461V465H4704.37V461ZM4664.27 461V457H4644.22V461V465H4664.27V461ZM4624.17 461V457H4604.13V461V465H4624.17V461ZM4584.08 461V457H4564.03V461V465H4584.08V461ZM4543.98 461V457H4523.94V461V465H4543.98V461ZM4503.89 461V457H4483.84V461V465H4503.89V461ZM4463.79 461V457H4443.74V461V465H4463.79V461ZM4423.7 461V457H4403.65V461V465H4423.7V461ZM4383.6 461V457H4363.55V461V465H4383.6V461ZM4343.5 461V457H4323.46V461V465H4343.5V461ZM4303.41 461V457H4283.36V461V465H4303.41V461ZM4263.31 461V457H4243.27V461V465H4263.31V461ZM4223.22 461V457H4203.17V461V465H4223.22V461ZM4183.12 461V457H4163.07V461V465H4183.12V461ZM4143.03 461V457H4122.98V461V465H4143.03V461ZM4102.93 461V457H4082.88V461V465H4102.93V461ZM4062.83 461V457H4042.79V461V465H4062.83V461ZM4022.74 461V457H4002.69V461V465H4022.74V461ZM3982.64 461V457H3962.6V461V465H3982.64V461ZM3942.55 461V457H3922.5V461V465H3942.55V461ZM3902.45 461V457H3882.4V461V465H3902.45V461ZM3862.36 461V457H3842.31V461V465H3862.36V461ZM3822.26 461V457H3802.21V461V465H3822.26V461ZM3782.16 461V457H3762.12V461V465H3782.16V461ZM3742.07 461V457H3722.02V461V465H3742.07V461ZM3701.97 461V457H3681.93V461V465H3701.97V461ZM3661.88 461V457H3641.83V461V465H3661.88V461ZM3621.78 461V457H3601.73V461V465H3621.78V461ZM3581.69 461V457H3561.64V461V465H3581.69V461ZM3541.59 461V457H3521.54V461V465H3541.59V461ZM3501.49 461V457H3481.45V461V465H3501.49V461ZM3461.4 461V457H3441.35V461V465H3461.4V461ZM3421.3 461V457H3401.26V461V465H3421.3V461ZM3381.21 461V457H3361.16V461V465H3381.21V461ZM3341.11 461V457H3321.06V461V465H3341.11V461ZM3301.02 461V457H3280.97V461V465H3301.02V461ZM3260.92 461V457H3240.87V461V465H3260.92V461ZM3220.82 461V457H3200.78V461V465H3220.82V461ZM3180.73 461V457H3160.68V461V465H3180.73V461ZM3140.63 461V457H3120.59V461V465H3140.63V461ZM3100.54 461V457H3080.49V461V465H3100.54V461ZM3060.44 461V457H3040.39V461V465H3060.44V461ZM3020.35 461V457H3000.3V461V465H3020.35V461ZM2980.25 461V457H2960.2V461V465H2980.25V461ZM2940.15 461V457H2920.11V461V465H2940.15V461ZM2900.06 461V457H2880.01V461V465H2900.06V461ZM2859.96 461V457H2839.92V461V465H2859.96V461ZM2819.87 461V457H2799.82V461V465H2819.87V461ZM2779.77 461V457H2759.72V461V465H2779.77V461ZM2739.68 461V457H2719.63V461V465H2739.68V461ZM2699.58 461V457H2679.53V461V465H2699.58V461ZM2659.48 461V457H2639.44V461V465H2659.48V461ZM2619.39 461V457H2599.34V461V465H2619.39V461ZM2579.29 461V457H2559.25V461V465H2579.29V461ZM2539.2 461V457H2519.15V461V465H2539.2V461ZM2499.1 461V457H2479.05V461V465H2499.1V461ZM2459.01 461V457H2438.96V461V465H2459.01V461ZM2418.91 461V457H2398.86V461V465H2418.91V461ZM2378.81 461V457H2358.77V461V465H2378.81V461ZM2338.72 461V457H2318.67V461V465H2338.72V461ZM2298.62 461V457H2278.58V461V465H2298.62V461ZM2258.53 461V457H2238.48V461V465H2258.53V461ZM2218.43 461V457H2198.38V461V465H2218.43V461ZM2178.34 461V457H2158.29V461V465H2178.34V461ZM2138.24 461V457H2118.19V461V465H2138.24V461ZM2098.15 461V457H2078.1V461V465H2098.15V461ZM2058.05 461V457H2038V461V465H2058.05V461ZM2017.95 461V457H1997.91V461V465H2017.95V461ZM1977.86 461V457H1957.81V461V465H1977.86V461ZM1937.76 461V457H1917.71V461V465H1937.76V461ZM1897.67 461V457H1877.62V461V465H1897.67V461ZM1857.57 461V457H1837.52V461V465H1857.57V461ZM1817.47 461V457H1797.43V461V465H1817.47V461ZM1777.38 461V457H1757.33V461V465H1777.38V461ZM1737.28 461V457H1717.24V461V465H1737.28V461ZM1697.19 461V457H1677.14V461V465H1697.19V461ZM1657.09 461V457H1637.04V461V465H1657.09V461ZM1617 461V457H1596.95V461V465H1617V461ZM1576.9 461V457H1556.85V461V465H1576.9V461ZM1536.81 461V457H1516.76V461V465H1536.81V461ZM1496.71 461V457H1476.66V461V465H1496.71V461ZM1456.61 461V457H1436.57V461V465H1456.61V461ZM1416.52 461V457H1396.47V461V465H1416.52V461ZM1376.42 461V457H1356.37V461V465H1376.42V461ZM1336.33 461V457H1316.28V461V465H1336.33V461ZM1296.23 461V457H1276.18V461V465H1296.23V461ZM1256.14 461V457H1236.09V461V465H1256.14V461ZM1216.04 461V457H1206V461V465H1216.04V461Z" fill="#9A9A9A"/>
</g>
<g id="GolfStatus Tag">
<g id="Front - Dark Tag">
<path id="Vector" d="M6011.04 4052.71C6011.04 4029.43 6029.71 4010.87 6052.98 4010.87C6062.88 4010.87 6071.28 4012.73 6079.12 4017.54C6081.3 4018.92 6081.78 4020.9 6080.49 4023.32L6079.32 4025.26C6078.07 4027.81 6076.09 4028.13 6073.54 4026.76C6064.57 4021.91 6059.04 4021.79 6052.94 4021.79C6036.57 4021.79 6023.44 4035.37 6023.44 4052.54C6023.44 4067.98 6033.83 4083.06 6054.55 4083.06C6061.58 4083.06 6067.56 4081.32 6072.98 4077.89V4061.88H6054.8C6052.13 4061.88 6050.63 4060.26 6050.63 4057.64V4056.26C6050.63 4053.6 6052.13 4052.1 6054.8 4052.1H6080.01C6082.67 4052.1 6084.17 4053.6 6084.17 4056.26V4079.54C6084.17 4081.73 6083.24 4083.59 6080.61 4085.65C6071.4 4092.44 6061.38 4094.05 6054.03 4094.05C6029.02 4094.05 6011.08 4075.38 6011.08 4052.71" fill="white"/>
<path id="Vector_2" d="M6095.68 4052.46C6095.68 4029.55 6114.35 4010.87 6137.62 4010.87C6160.89 4010.87 6179.56 4029.55 6179.56 4052.46C6179.56 4075.38 6160.89 4094.05 6137.62 4094.05C6114.35 4094.05 6095.68 4075.38 6095.68 4052.46ZM6167.11 4052.46C6167.11 4035.08 6153.86 4021.83 6137.62 4021.83C6121.38 4021.83 6108.13 4035.08 6108.13 4052.46C6108.13 4069.84 6121.38 4083.1 6137.62 4083.1C6153.86 4083.1 6167.11 4069.84 6167.11 4052.46Z" fill="white"/>
<path id="Vector_3" d="M6193.33 4088.68V4016.33C6193.33 4013.66 6194.83 4012.17 6197.5 4012.17H6201.41C6204.08 4012.17 6205.58 4013.66 6205.58 4016.33V4082.82H6238.18C6240.85 4082.82 6242.42 4084.31 6242.42 4086.98V4088.72C6242.42 4091.39 6240.81 4092.88 6238.18 4092.88H6197.54C6194.87 4092.88 6193.37 4091.39 6193.37 4088.72" fill="white"/>
<path id="Vector_4" d="M6304.48 4016.28V4018.02C6304.48 4020.69 6302.98 4022.18 6300.32 4022.18H6265.09V4048.33H6295.27C6297.93 4048.33 6299.51 4049.83 6299.51 4052.5V4053.99C6299.51 4056.66 6297.89 4058.24 6295.27 4058.24H6265.09V4088.63C6265.09 4091.3 6263.59 4092.79 6260.93 4092.79H6257.01C6254.34 4092.79 6252.85 4091.3 6252.85 4088.63V4016.28C6252.85 4013.62 6254.34 4012.12 6257.01 4012.12H6300.32C6302.98 4012.12 6304.48 4013.62 6304.48 4016.28Z" fill="white"/>
<path id="Vector_5" d="M6312.52 4077.72C6311.39 4075.18 6312.76 4073.24 6315.27 4072.55L6318.62 4071.74C6321.17 4071.18 6322.54 4072.11 6323.79 4074.49C6326.66 4079.46 6332.76 4083.34 6340.84 4083.34C6351.22 4083.34 6357.53 4078.29 6357.53 4071.38C6357.53 4065.28 6352.48 4061.48 6345.89 4059.05L6333.93 4055.01C6318.74 4049.96 6315.07 4040.82 6315.07 4033.35C6315.07 4019.4 6327.27 4010.87 6341.2 4010.87C6353.89 4010.87 6362.86 4016.98 6366.54 4026.07C6367.59 4028.62 6366.29 4030.56 6363.79 4031.24L6360.92 4032.17C6358.38 4032.86 6356.76 4031.93 6355.63 4029.51C6352.96 4024.21 6348.03 4021.66 6341.37 4021.66C6333.77 4021.66 6327.43 4025.83 6327.43 4032.94C6327.43 4036.3 6328.48 4040.66 6337.69 4044.14L6349.65 4048.62C6363.22 4052.87 6369.45 4061.88 6369.45 4070.53C6369.45 4085.04 6357.93 4094.01 6341.12 4094.01C6326.86 4094.01 6316.72 4087.1 6312.56 4077.64" fill="white"/>
<path id="Vector_6" d="M6441.84 4016.28V4018.02C6441.84 4020.69 6440.35 4022.18 6437.68 4022.18H6415.22V4088.67C6415.22 4091.34 6413.72 4092.84 6411.06 4092.84H6407.26C6404.59 4092.84 6403.1 4091.34 6403.1 4088.67V4022.18H6380.63C6378.09 4022.18 6376.47 4020.69 6376.47 4018.02V4016.28C6376.47 4013.62 6378.09 4012.12 6380.63 4012.12H6437.64C6440.31 4012.12 6441.8 4013.62 6441.8 4016.28" fill="white"/>
<path id="Vector_7" d="M6438.53 4087.94L6466.29 4015.47C6467.1 4013.29 6468.83 4012.12 6471.14 4012.12H6477.8C6480.23 4012.12 6481.84 4013.29 6482.65 4015.47L6510.65 4087.94C6511.7 4090.81 6510.53 4092.79 6507.42 4092.79H6503.74C6501.32 4092.79 6499.7 4091.74 6498.77 4089.44L6493.8 4076.3H6455.34L6450.37 4089.44C6449.44 4091.74 6447.95 4092.79 6445.52 4092.79H6441.72C6438.61 4092.79 6437.36 4090.85 6438.49 4087.94M6490.33 4066.4L6474.45 4024L6458.77 4066.4H6490.33Z" fill="white"/>
<path id="Vector_8" d="M6572.46 4016.28V4018.02C6572.46 4020.69 6570.97 4022.18 6568.3 4022.18H6545.84V4088.67C6545.84 4091.34 6544.34 4092.84 6541.68 4092.84H6537.88C6535.21 4092.84 6533.72 4091.34 6533.72 4088.67V4022.18H6511.25C6508.71 4022.18 6507.09 4020.69 6507.09 4018.02V4016.28C6507.09 4013.62 6508.71 4012.12 6511.25 4012.12H6568.26C6570.93 4012.12 6572.42 4013.62 6572.42 4016.28" fill="white"/>
<path id="Vector_9" d="M6584.42 4062.85V4016.28C6584.42 4013.62 6586.04 4012.12 6588.58 4012.12H6592.5C6595.17 4012.12 6596.66 4013.62 6596.66 4016.28V4062.85C6596.66 4076.43 6605.87 4083.13 6616.46 4083.13C6627.04 4083.13 6636.38 4076.47 6636.38 4062.85V4016.28C6636.38 4013.62 6637.87 4012.12 6640.54 4012.12H6644.34C6647 4012.12 6648.62 4013.62 6648.62 4016.28V4062.85C6648.62 4083.34 6633.87 4094.09 6616.5 4094.09C6599.13 4094.09 6584.5 4083.38 6584.5 4062.85" fill="white"/>
<path id="Vector_10" d="M6661.22 4077.72C6660.09 4075.18 6661.47 4073.24 6663.97 4072.55L6667.32 4071.74C6669.87 4071.18 6671.24 4072.11 6672.49 4074.49C6675.36 4079.46 6681.46 4083.34 6689.54 4083.34C6699.93 4083.34 6706.23 4078.29 6706.23 4071.38C6706.23 4065.28 6701.18 4061.48 6694.59 4059.05L6682.64 4055.01C6667.44 4049.96 6663.77 4040.82 6663.77 4033.35C6663.77 4019.4 6675.97 4010.87 6689.91 4010.87C6702.59 4010.87 6711.56 4016.98 6715.24 4026.07C6716.29 4028.62 6715 4030.56 6712.49 4031.24L6709.62 4032.17C6707.08 4032.86 6705.46 4031.93 6704.33 4029.51C6701.66 4024.21 6696.74 4021.66 6690.07 4021.66C6682.47 4021.66 6676.13 4025.83 6676.13 4032.94C6676.13 4036.3 6677.18 4040.66 6686.39 4044.14L6698.35 4048.62C6711.93 4052.87 6718.15 4061.88 6718.15 4070.53C6718.15 4085.04 6706.63 4094.01 6689.83 4094.01C6675.57 4094.01 6665.42 4087.1 6661.26 4077.64" fill="white"/>
<path id="Vector_11" d="M6432.59 3978.94V3944.42H6440.03C6441.4 3944.42 6442.57 3944.58 6443.62 3944.94C6444.67 3945.31 6445.6 3945.91 6446.45 3946.84C6447.3 3947.73 6447.87 3948.82 6448.19 3950.04C6448.51 3951.25 6448.67 3952.91 6448.67 3954.97C6448.67 3956.5 6448.59 3957.84 6448.39 3958.89C6448.23 3959.94 6447.83 3960.95 6447.26 3961.88C6446.57 3963.01 6445.68 3963.9 6444.55 3964.51C6443.42 3965.15 6441.93 3965.44 6440.11 3965.44H6437.6V3978.94H6432.67H6432.59ZM6437.52 3949.07V3960.79H6439.91C6440.92 3960.79 6441.68 3960.63 6442.25 3960.34C6442.82 3960.06 6443.22 3959.66 6443.46 3959.13C6443.7 3958.65 6443.87 3958.04 6443.91 3957.35C6443.95 3956.63 6443.99 3955.86 6443.99 3954.97C6443.99 3954.16 6443.99 3953.39 6443.95 3952.66C6443.95 3951.94 6443.79 3951.29 6443.5 3950.76C6443.26 3950.2 6442.86 3949.79 6442.33 3949.51C6441.81 3949.23 6441.08 3949.07 6440.11 3949.07H6437.52Z" fill="white"/>
<path id="Vector_12" d="M6462.45 3952.59C6462.45 3951.22 6462.69 3949.96 6463.18 3948.91C6463.66 3947.86 6464.31 3946.97 6465.12 3946.24C6465.88 3945.56 6466.77 3945.03 6467.74 3944.71C6468.71 3944.34 6469.72 3944.18 6470.73 3944.18C6471.74 3944.18 6472.71 3944.34 6473.72 3944.71C6474.69 3945.07 6475.62 3945.6 6476.43 3946.24C6477.2 3946.97 6477.84 3947.86 6478.33 3948.91C6478.81 3949.96 6479.05 3951.22 6479.05 3952.59V3970.82C6479.05 3972.27 6478.81 3973.53 6478.33 3974.54C6477.84 3975.55 6477.2 3976.44 6476.43 3977.12C6475.62 3977.85 6474.73 3978.38 6473.72 3978.74C6472.71 3979.1 6471.74 3979.27 6470.73 3979.27C6469.72 3979.27 6468.75 3979.1 6467.74 3978.74C6466.77 3978.38 6465.88 3977.85 6465.12 3977.12C6464.31 3976.44 6463.66 3975.59 6463.18 3974.54C6462.69 3973.49 6462.45 3972.27 6462.45 3970.82V3952.59ZM6467.38 3970.82C6467.38 3972.03 6467.7 3972.88 6468.39 3973.45C6469.03 3974.01 6469.84 3974.29 6470.73 3974.29C6471.62 3974.29 6472.43 3974.01 6473.07 3973.45C6473.72 3972.88 6474.08 3971.99 6474.08 3970.82V3952.59C6474.08 3951.38 6473.76 3950.53 6473.07 3949.96C6472.43 3949.4 6471.62 3949.11 6470.73 3949.11C6469.84 3949.11 6469.03 3949.4 6468.39 3949.96C6467.74 3950.53 6467.38 3951.42 6467.38 3952.59V3970.82Z" fill="white"/>
<path id="Vector_13" d="M6518.89 3944.42L6513.76 3978.94H6509.11L6505.32 3956.54H6505.23L6501.52 3978.94H6496.87L6491.74 3944.42H6496.99L6499.46 3966.33H6499.54L6503.42 3944.42H6507.21L6511.25 3966.89H6511.33L6513.72 3944.42H6518.97H6518.89Z" fill="white"/>
<path id="Vector_14" d="M6532.38 3978.94V3944.42H6547.13V3949.07H6537.35V3959.21H6545.88V3963.86H6537.35V3974.01H6547.13V3978.94H6532.38Z" fill="white"/>
<path id="Vector_15" d="M6560.75 3978.94V3944.42H6568.71C6574.52 3944.42 6577.43 3947.81 6577.43 3954.56C6577.43 3956.58 6577.11 3958.32 6576.5 3959.74C6575.86 3961.15 6574.77 3962.32 6573.19 3963.17L6578.52 3978.94H6573.27L6568.66 3964.18H6565.72V3978.94H6560.79H6560.75ZM6565.72 3949.07V3959.82H6568.54C6569.43 3959.82 6570.12 3959.7 6570.64 3959.45C6571.17 3959.21 6571.57 3958.85 6571.86 3958.4C6572.1 3957.96 6572.3 3957.39 6572.38 3956.75C6572.46 3956.1 6572.54 3955.33 6572.54 3954.44C6572.54 3953.55 6572.5 3952.79 6572.38 3952.14C6572.3 3951.49 6572.1 3950.89 6571.82 3950.4C6571.21 3949.51 6570.04 3949.03 6568.34 3949.03H6565.76L6565.72 3949.07Z" fill="white"/>
<path id="Vector_16" d="M6591.86 3978.94V3944.42H6606.6V3949.07H6596.82V3959.21H6605.35V3963.86H6596.82V3974.01H6606.6V3978.94H6591.86Z" fill="white"/>
<path id="Vector_17" d="M6620.22 3978.94V3944.42H6627.53C6630.36 3944.42 6632.54 3945.19 6633.99 3946.76C6635.45 3948.3 6636.22 3950.52 6636.22 3953.35V3969.52C6636.22 3972.75 6635.45 3975.14 6633.87 3976.67C6632.3 3978.21 6630.03 3978.98 6627.13 3978.98H6620.26L6620.22 3978.94ZM6625.15 3949.07V3974.29H6627.41C6628.78 3974.29 6629.79 3973.92 6630.36 3973.24C6630.92 3972.55 6631.25 3971.46 6631.25 3969.96V3953.31C6631.25 3951.94 6630.96 3950.89 6630.44 3950.16C6629.87 3949.43 6628.9 3949.03 6627.45 3949.03H6625.19L6625.15 3949.07Z" fill="white"/>
<path id="Vector_18" d="M6670.72 3978.94V3944.42H6677.95C6679.53 3944.42 6680.9 3944.66 6681.99 3945.15C6683.12 3945.63 6684.01 3946.28 6684.74 3947.09C6685.47 3947.89 6685.95 3948.82 6686.27 3949.88C6686.6 3950.93 6686.72 3952.02 6686.72 3953.15V3954.4C6686.72 3955.33 6686.64 3956.14 6686.52 3956.79C6686.35 3957.43 6686.15 3958 6685.87 3958.48C6685.3 3959.37 6684.5 3960.18 6683.36 3960.83C6684.54 3961.39 6685.38 3962.2 6685.95 3963.25C6686.52 3964.3 6686.76 3965.76 6686.76 3967.62V3969.56C6686.76 3972.59 6686.03 3974.93 6684.54 3976.55C6683.08 3978.17 6680.7 3978.98 6677.47 3978.98H6670.72V3978.94ZM6675.65 3949.07V3958.57H6677.87C6679.53 3958.57 6680.62 3958.16 6681.18 3957.31C6681.75 3956.46 6682.03 3955.29 6682.03 3953.72C6682.03 3952.14 6681.71 3951.01 6681.1 3950.24C6680.46 3949.47 6679.32 3949.07 6677.67 3949.07H6675.65ZM6675.65 3962.93V3974.01H6677.79C6678.8 3974.01 6679.57 3973.84 6680.13 3973.56C6680.7 3973.28 6681.14 3972.87 6681.43 3972.35C6681.71 3971.82 6681.91 3971.22 6681.95 3970.49C6682.03 3969.76 6682.03 3968.99 6682.03 3968.14C6682.03 3967.3 6681.99 3966.53 6681.87 3965.88C6681.79 3965.23 6681.59 3964.67 6681.3 3964.22C6680.98 3963.78 6680.54 3963.46 6680.01 3963.21C6679.49 3962.97 6678.72 3962.89 6677.83 3962.89H6675.65V3962.93Z" fill="white"/>
<path id="Vector_19" d="M6706.39 3978.94V3964.35L6699.61 3944.42H6704.86L6708.82 3958.16H6708.9L6712.86 3944.42H6718.11L6711.32 3964.35V3978.94H6706.39Z" fill="white"/>
<g id="Layer_1">
<path id="Vector_20" d="M6933.73 4120H6797.62C6779.76 4120 6765.21 4105.45 6765.21 4087.58V3951.42C6765.21 3933.55 6779.76 3919 6797.62 3919H6933.73C6951.59 3919 6966.13 3933.55 6966.13 3951.42V4087.58C6966.13 4105.45 6951.59 4120 6933.73 4120ZM6797.66 3922.76C6781.86 3922.76 6768.97 3935.61 6768.97 3951.42V4087.58C6768.97 4103.39 6781.82 4116.24 6797.66 4116.24H6933.77C6949.57 4116.24 6962.46 4103.39 6962.46 4087.58V3951.42C6962.46 3935.61 6949.61 3922.76 6933.77 3922.76H6797.66Z" fill="white"/>
<path id="Vector_21" d="M6865.69 3945.76C6833.78 3945.76 6807.84 3971.91 6807.84 4004.08C6807.84 4015.48 6811.11 4026.51 6817.29 4036.01L6817.45 4036.25C6818.14 4037.3 6818.91 4038.4 6819.68 4039.41L6859.07 4090.54C6859.07 4090.54 6859.07 4090.54 6859.07 4090.58L6861.05 4093.28V4090.5C6861.05 4070.77 6855.11 4063.01 6853.01 4059.78C6852.6 4059.13 6852.72 4058.04 6852.68 4057.11C6852.68 4056.62 6853.09 4056.26 6853.53 4056.3C6857.49 4057.35 6861.57 4057.88 6865.73 4057.88C6869.89 4057.88 6874.02 4057.35 6877.97 4056.3C6878.38 4056.3 6878.7 4056.66 6878.7 4057.11C6878.7 4058 6878.82 4059.13 6878.38 4059.78C6876.28 4063.01 6870.34 4070.77 6870.34 4090.5V4093.08L6873.13 4089.44L6911.35 4039.77C6919.31 4029.46 6923.51 4017.1 6923.51 4004.04C6923.51 3971.91 6897.57 3945.72 6865.65 3945.72L6865.69 3945.76ZM6894.14 4041.99C6885.81 4048.14 6876 4051.37 6865.73 4051.37C6850.38 4051.37 6835.8 4043.89 6826.75 4031.4C6811.07 4009.78 6815.8 3979.3 6837.25 3963.5C6845.57 3957.36 6855.39 3954.12 6865.65 3954.12C6881.01 3954.12 6895.59 3961.6 6904.64 3974.09C6920.32 3995.71 6915.59 4026.19 6894.14 4041.99Z" fill="white"/>
</g>
</g>
<g id="Front - Light Tag">
<path id="Vector_22" d="M6011.04 4048.66C6011.04 4025.38 6029.71 4006.83 6052.98 4006.83C6062.88 4006.83 6071.28 4008.69 6079.12 4013.5C6081.3 4014.87 6081.78 4016.85 6080.49 4019.28L6079.32 4021.22C6078.07 4023.77 6076.09 4024.09 6073.54 4022.72C6064.57 4017.87 6059.04 4017.74 6052.94 4017.74C6036.57 4017.74 6023.44 4031.32 6023.44 4048.5C6023.44 4063.94 6033.83 4079.02 6054.55 4079.02C6061.58 4079.02 6067.56 4077.28 6072.98 4073.84V4057.84H6054.8C6052.13 4057.84 6050.63 4056.22 6050.63 4053.59V4052.22C6050.63 4049.55 6052.13 4048.06 6054.8 4048.06H6080.01C6082.67 4048.06 6084.17 4049.55 6084.17 4052.22V4075.5C6084.17 4077.68 6083.24 4079.54 6080.61 4081.6C6071.4 4088.4 6061.38 4090.01 6054.03 4090.01C6029.02 4090.01 6011.08 4071.34 6011.08 4048.66" fill="black"/>
<path id="Vector_23" d="M6095.68 4048.42C6095.68 4025.5 6114.35 4006.83 6137.62 4006.83C6160.89 4006.83 6179.56 4025.5 6179.56 4048.42C6179.56 4071.34 6160.89 4090.01 6137.62 4090.01C6114.35 4090.01 6095.68 4071.34 6095.68 4048.42ZM6167.11 4048.42C6167.11 4031.04 6153.86 4017.78 6137.62 4017.78C6121.38 4017.78 6108.13 4031.04 6108.13 4048.42C6108.13 4065.8 6121.38 4079.06 6137.62 4079.06C6153.86 4079.06 6167.11 4065.8 6167.11 4048.42Z" fill="black"/>
<path id="Vector_24" d="M6193.33 4084.64V4012.29C6193.33 4009.62 6194.83 4008.12 6197.5 4008.12H6201.41C6204.08 4008.12 6205.58 4009.62 6205.58 4012.29V4078.78H6238.18C6240.85 4078.78 6242.42 4080.27 6242.42 4082.94V4084.68C6242.42 4087.34 6240.81 4088.84 6238.18 4088.84H6197.54C6194.87 4088.84 6193.37 4087.34 6193.37 4084.68" fill="black"/>
<path id="Vector_25" d="M6304.48 4012.24V4013.98C6304.48 4016.65 6302.98 4018.14 6300.32 4018.14H6265.09V4044.29H6295.27C6297.93 4044.29 6299.51 4045.79 6299.51 4048.46V4049.95C6299.51 4052.62 6297.89 4054.2 6295.27 4054.2H6265.09V4084.59C6265.09 4087.26 6263.59 4088.75 6260.93 4088.75H6257.01C6254.34 4088.75 6252.85 4087.26 6252.85 4084.59V4012.24C6252.85 4009.57 6254.34 4008.08 6257.01 4008.08H6300.32C6302.98 4008.08 6304.48 4009.57 6304.48 4012.24Z" fill="black"/>
<path id="Vector_26" d="M6312.52 4073.68C6311.39 4071.14 6312.76 4069.2 6315.27 4068.51L6318.62 4067.7C6321.17 4067.14 6322.54 4068.06 6323.79 4070.45C6326.66 4075.42 6332.76 4079.3 6340.84 4079.3C6351.22 4079.3 6357.53 4074.25 6357.53 4067.34C6357.53 4061.23 6352.48 4057.43 6345.89 4055.01L6333.93 4050.97C6318.74 4045.92 6315.07 4036.78 6315.07 4029.3C6315.07 4015.36 6327.27 4006.83 6341.2 4006.83C6353.89 4006.83 6362.86 4012.93 6366.54 4022.03C6367.59 4024.57 6366.29 4026.51 6363.79 4027.2L6360.92 4028.13C6358.38 4028.82 6356.76 4027.89 6355.63 4025.46C6352.96 4020.17 6348.03 4017.62 6341.37 4017.62C6333.77 4017.62 6327.43 4021.79 6327.43 4028.9C6327.43 4032.25 6328.48 4036.62 6337.69 4040.1L6349.65 4044.58C6363.22 4048.83 6369.45 4057.84 6369.45 4066.49C6369.45 4081 6357.93 4089.97 6341.12 4089.97C6326.86 4089.97 6316.72 4083.06 6312.56 4073.6" fill="black"/>
<path id="Vector_27" d="M6441.84 4012.24V4013.98C6441.84 4016.65 6440.35 4018.14 6437.68 4018.14H6415.22V4084.63C6415.22 4087.3 6413.72 4088.79 6411.06 4088.79H6407.26C6404.59 4088.79 6403.1 4087.3 6403.1 4084.63V4018.14H6380.63C6378.09 4018.14 6376.47 4016.65 6376.47 4013.98V4012.24C6376.47 4009.57 6378.09 4008.08 6380.63 4008.08H6437.64C6440.31 4008.08 6441.8 4009.57 6441.8 4012.24" fill="black"/>
<path id="Vector_28" d="M6438.53 4083.9L6466.29 4011.43C6467.1 4009.25 6468.83 4008.08 6471.14 4008.08H6477.8C6480.23 4008.08 6481.84 4009.25 6482.65 4011.43L6510.65 4083.9C6511.7 4086.77 6510.53 4088.75 6507.42 4088.75H6503.74C6501.32 4088.75 6499.7 4087.7 6498.77 4085.4L6493.8 4072.26H6455.34L6450.37 4085.4C6449.44 4087.7 6447.95 4088.75 6445.52 4088.75H6441.72C6438.61 4088.75 6437.36 4086.81 6438.49 4083.9M6490.33 4062.36L6474.45 4019.96L6458.77 4062.36H6490.33Z" fill="black"/>
<path id="Vector_29" d="M6572.46 4012.24V4013.98C6572.46 4016.65 6570.97 4018.14 6568.3 4018.14H6545.84V4084.63C6545.84 4087.3 6544.34 4088.79 6541.68 4088.79H6537.88C6535.21 4088.79 6533.72 4087.3 6533.72 4084.63V4018.14H6511.25C6508.71 4018.14 6507.09 4016.65 6507.09 4013.98V4012.24C6507.09 4009.57 6508.71 4008.08 6511.25 4008.08H6568.26C6570.93 4008.08 6572.42 4009.57 6572.42 4012.24" fill="black"/>
<path id="Vector_30" d="M6584.42 4058.8V4012.24C6584.42 4009.57 6586.04 4008.08 6588.58 4008.08H6592.5C6595.17 4008.08 6596.66 4009.57 6596.66 4012.24V4058.8C6596.66 4072.38 6605.87 4079.09 6616.46 4079.09C6627.04 4079.09 6636.38 4072.42 6636.38 4058.8V4012.24C6636.38 4009.57 6637.87 4008.08 6640.54 4008.08H6644.34C6647 4008.08 6648.62 4009.57 6648.62 4012.24V4058.8C6648.62 4079.3 6633.87 4090.05 6616.5 4090.05C6599.13 4090.05 6584.5 4079.34 6584.5 4058.8" fill="black"/>
<path id="Vector_31" d="M6661.22 4073.68C6660.09 4071.14 6661.47 4069.2 6663.97 4068.51L6667.32 4067.7C6669.87 4067.14 6671.24 4068.06 6672.49 4070.45C6675.36 4075.42 6681.46 4079.3 6689.54 4079.3C6699.93 4079.3 6706.23 4074.25 6706.23 4067.34C6706.23 4061.23 6701.18 4057.43 6694.59 4055.01L6682.64 4050.97C6667.44 4045.92 6663.77 4036.78 6663.77 4029.3C6663.77 4015.36 6675.97 4006.83 6689.91 4006.83C6702.59 4006.83 6711.56 4012.93 6715.24 4022.03C6716.29 4024.57 6715 4026.51 6712.49 4027.2L6709.62 4028.13C6707.08 4028.82 6705.46 4027.89 6704.33 4025.46C6701.66 4020.17 6696.74 4017.62 6690.07 4017.62C6682.47 4017.62 6676.13 4021.79 6676.13 4028.9C6676.13 4032.25 6677.18 4036.62 6686.39 4040.1L6698.35 4044.58C6711.93 4048.83 6718.15 4057.84 6718.15 4066.49C6718.15 4081 6706.63 4089.97 6689.83 4089.97C6675.57 4089.97 6665.42 4083.06 6661.26 4073.6" fill="black"/>
<path id="Vector_32" d="M6432.59 3974.89V3940.38H6440.03C6441.4 3940.38 6442.57 3940.54 6443.62 3940.9C6444.67 3941.27 6445.6 3941.87 6446.45 3942.8C6447.3 3943.69 6447.87 3944.78 6448.19 3946C6448.51 3947.21 6448.67 3948.86 6448.67 3950.93C6448.67 3952.46 6448.59 3953.8 6448.39 3954.85C6448.23 3955.9 6447.83 3956.91 6447.26 3957.84C6446.57 3958.97 6445.68 3959.86 6444.55 3960.46C6443.42 3961.11 6441.93 3961.39 6440.11 3961.39H6437.6V3974.89H6432.67H6432.59ZM6437.52 3945.03V3956.75H6439.91C6440.92 3956.75 6441.68 3956.58 6442.25 3956.3C6442.82 3956.02 6443.22 3955.61 6443.46 3955.09C6443.7 3954.6 6443.87 3954 6443.91 3953.31C6443.95 3952.58 6443.99 3951.82 6443.99 3950.93C6443.99 3950.12 6443.99 3949.35 6443.95 3948.62C6443.95 3947.89 6443.79 3947.25 6443.5 3946.72C6443.26 3946.16 6442.86 3945.75 6442.33 3945.47C6441.81 3945.19 6441.08 3945.03 6440.11 3945.03H6437.52Z" fill="black"/>
<path id="Vector_33" d="M6462.45 3948.55C6462.45 3947.17 6462.69 3945.92 6463.18 3944.87C6463.66 3943.82 6464.31 3942.93 6465.12 3942.2C6465.88 3941.51 6466.77 3940.99 6467.74 3940.67C6468.71 3940.3 6469.72 3940.14 6470.73 3940.14C6471.74 3940.14 6472.71 3940.3 6473.72 3940.67C6474.69 3941.03 6475.62 3941.56 6476.43 3942.2C6477.2 3942.93 6477.84 3943.82 6478.33 3944.87C6478.81 3945.92 6479.05 3947.17 6479.05 3948.55V3966.78C6479.05 3968.23 6478.81 3969.48 6478.33 3970.49C6477.84 3971.51 6477.2 3972.39 6476.43 3973.08C6475.62 3973.81 6474.73 3974.33 6473.72 3974.7C6472.71 3975.06 6471.74 3975.22 6470.73 3975.22C6469.72 3975.22 6468.75 3975.06 6467.74 3974.7C6466.77 3974.33 6465.88 3973.81 6465.12 3973.08C6464.31 3972.39 6463.66 3971.55 6463.18 3970.49C6462.69 3969.44 6462.45 3968.23 6462.45 3966.78V3948.55ZM6467.38 3966.78C6467.38 3967.99 6467.7 3968.84 6468.39 3969.4C6469.03 3969.97 6469.84 3970.25 6470.73 3970.25C6471.62 3970.25 6472.43 3969.97 6473.07 3969.4C6473.72 3968.84 6474.08 3967.95 6474.08 3966.78V3948.55C6474.08 3947.34 6473.76 3946.49 6473.07 3945.92C6472.43 3945.35 6471.62 3945.07 6470.73 3945.07C6469.84 3945.07 6469.03 3945.35 6468.39 3945.92C6467.74 3946.49 6467.38 3947.38 6467.38 3948.55V3966.78Z" fill="black"/>
<path id="Vector_34" d="M6518.89 3940.38L6513.76 3974.89H6509.11L6505.32 3952.5H6505.23L6501.52 3974.89H6496.87L6491.74 3940.38H6496.99L6499.46 3962.28H6499.54L6503.42 3940.38H6507.21L6511.25 3962.85H6511.33L6513.72 3940.38H6518.97H6518.89Z" fill="black"/>
<path id="Vector_35" d="M6532.38 3974.89V3940.38H6547.13V3945.03H6537.35V3955.17H6545.88V3959.82H6537.35V3969.96H6547.13V3974.89H6532.38Z" fill="black"/>
<path id="Vector_36" d="M6560.75 3974.89V3940.38H6568.71C6574.52 3940.38 6577.43 3943.77 6577.43 3950.52C6577.43 3952.54 6577.11 3954.28 6576.5 3955.7C6575.86 3957.11 6574.77 3958.28 6573.19 3959.13L6578.52 3974.89H6573.27L6568.66 3960.14H6565.72V3974.89H6560.79H6560.75ZM6565.72 3945.03V3955.78H6568.54C6569.43 3955.78 6570.12 3955.66 6570.64 3955.41C6571.17 3955.17 6571.57 3954.81 6571.86 3954.36C6572.1 3953.92 6572.3 3953.35 6572.38 3952.7C6572.46 3952.06 6572.54 3951.29 6572.54 3950.4C6572.54 3949.51 6572.5 3948.74 6572.38 3948.1C6572.3 3947.45 6572.1 3946.84 6571.82 3946.36C6571.21 3945.47 6570.04 3944.98 6568.34 3944.98H6565.76L6565.72 3945.03Z" fill="black"/>
<path id="Vector_37" d="M6591.86 3974.89V3940.38H6606.6V3945.03H6596.82V3955.17H6605.35V3959.82H6596.82V3969.96H6606.6V3974.89H6591.86Z" fill="black"/>
<path id="Vector_38" d="M6620.22 3974.89V3940.38H6627.53C6630.36 3940.38 6632.54 3941.14 6633.99 3942.72C6635.45 3944.26 6636.22 3946.48 6636.22 3949.31V3965.48C6636.22 3968.71 6635.45 3971.09 6633.87 3972.63C6632.3 3974.17 6630.03 3974.93 6627.13 3974.93H6620.26L6620.22 3974.89ZM6625.15 3945.03V3970.25H6627.41C6628.78 3970.25 6629.79 3969.88 6630.36 3969.2C6630.92 3968.51 6631.25 3967.42 6631.25 3965.92V3949.27C6631.25 3947.89 6630.96 3946.84 6630.44 3946.12C6629.87 3945.39 6628.9 3944.98 6627.45 3944.98H6625.19L6625.15 3945.03Z" fill="black"/>
<path id="Vector_39" d="M6670.72 3974.89V3940.38H6677.95C6679.53 3940.38 6680.9 3940.62 6681.99 3941.1C6683.12 3941.59 6684.01 3942.24 6684.74 3943.04C6685.47 3943.85 6685.95 3944.78 6686.27 3945.83C6686.6 3946.88 6686.72 3947.98 6686.72 3949.11V3950.36C6686.72 3951.29 6686.64 3952.1 6686.52 3952.74C6686.35 3953.39 6686.15 3953.96 6685.87 3954.44C6685.3 3955.33 6684.5 3956.14 6683.36 3956.79C6684.54 3957.35 6685.38 3958.16 6685.95 3959.21C6686.52 3960.26 6686.76 3961.72 6686.76 3963.58V3965.52C6686.76 3968.55 6686.03 3970.89 6684.54 3972.51C6683.08 3974.13 6680.7 3974.93 6677.47 3974.93H6670.72V3974.89ZM6675.65 3945.03V3954.52H6677.87C6679.53 3954.52 6680.62 3954.12 6681.18 3953.27C6681.75 3952.42 6682.03 3951.25 6682.03 3949.67C6682.03 3948.1 6681.71 3946.97 6681.1 3946.2C6680.46 3945.43 6679.32 3945.03 6677.67 3945.03H6675.65ZM6675.65 3958.89V3969.96H6677.79C6678.8 3969.96 6679.57 3969.8 6680.13 3969.52C6680.7 3969.24 6681.14 3968.83 6681.43 3968.31C6681.71 3967.78 6681.91 3967.17 6681.95 3966.45C6682.03 3965.72 6682.03 3964.95 6682.03 3964.1C6682.03 3963.25 6681.99 3962.49 6681.87 3961.84C6681.79 3961.19 6681.59 3960.63 6681.3 3960.18C6680.98 3959.74 6680.54 3959.41 6680.01 3959.17C6679.49 3958.93 6678.72 3958.85 6677.83 3958.85H6675.65V3958.89Z" fill="black"/>
<path id="Vector_40" d="M6706.39 3974.89V3960.3L6699.61 3940.38H6704.86L6708.82 3954.12H6708.9L6712.86 3940.38H6718.11L6711.32 3960.3V3974.89H6706.39Z" fill="black"/>
<g id="Layer_1_2">
<path id="Vector_41" d="M6933.73 4115.96H6797.62C6779.76 4115.96 6765.21 4101.41 6765.21 4083.54V3947.37C6765.21 3929.51 6779.76 3914.96 6797.62 3914.96H6933.73C6951.59 3914.96 6966.13 3929.51 6966.13 3947.37V4083.54C6966.13 4101.41 6951.59 4115.96 6933.73 4115.96ZM6797.66 3918.72C6781.86 3918.72 6768.97 3931.57 6768.97 3947.37V4083.54C6768.97 4099.35 6781.82 4112.2 6797.66 4112.2H6933.77C6949.57 4112.2 6962.46 4099.35 6962.46 4083.54V3947.37C6962.46 3931.57 6949.61 3918.72 6933.77 3918.72H6797.66Z" fill="black"/>
<path id="Vector_42" d="M6865.69 3941.72C6833.78 3941.72 6807.84 3967.87 6807.84 4000.04C6807.84 4011.44 6811.11 4022.47 6817.29 4031.97L6817.45 4032.21C6818.14 4033.26 6818.91 4034.35 6819.68 4035.36L6859.07 4086.49C6859.07 4086.49 6859.07 4086.49 6859.07 4086.53L6861.05 4089.24V4086.45C6861.05 4066.73 6855.11 4058.97 6853.01 4055.74C6852.6 4055.09 6852.72 4054 6852.68 4053.07C6852.68 4052.58 6853.09 4052.22 6853.53 4052.26C6857.49 4053.31 6861.57 4053.84 6865.73 4053.84C6869.89 4053.84 6874.02 4053.31 6877.97 4052.26C6878.38 4052.26 6878.7 4052.62 6878.7 4053.07C6878.7 4053.96 6878.82 4055.09 6878.38 4055.74C6876.28 4058.97 6870.34 4066.73 6870.34 4086.45V4089.04L6873.13 4085.4L6911.35 4035.73C6919.31 4025.42 6923.51 4013.05 6923.51 4000C6923.51 3967.87 6897.57 3941.67 6865.65 3941.67L6865.69 3941.72ZM6894.14 4037.95C6885.81 4044.09 6876 4047.33 6865.73 4047.33C6850.38 4047.33 6835.8 4039.85 6826.75 4027.36C6811.07 4005.74 6815.8 3975.26 6837.25 3959.46C6845.57 3953.32 6855.39 3950.08 6865.65 3950.08C6881.01 3950.08 6895.59 3957.56 6904.64 3970.05C6920.32 3991.67 6915.59 4022.15 6894.14 4037.95Z" fill="black"/>
</g>
</g>
<g id="Back - Dark Tag">
<path id="Vector_43" d="M6257.89 4052.71C6257.89 4029.43 6276.56 4010.87 6299.83 4010.87C6309.73 4010.87 6318.13 4012.73 6325.97 4017.54C6328.15 4018.92 6328.64 4020.9 6327.34 4023.32L6326.17 4025.26C6324.92 4027.81 6322.94 4028.13 6320.39 4026.76C6311.42 4021.91 6305.89 4021.79 6299.79 4021.79C6283.43 4021.79 6270.3 4035.37 6270.3 4052.54C6270.3 4067.98 6280.68 4083.06 6301.41 4083.06C6308.43 4083.06 6314.41 4081.32 6319.83 4077.89V4061.88H6301.65C6298.98 4061.88 6297.49 4060.26 6297.49 4057.64V4056.26C6297.49 4053.6 6298.98 4052.1 6301.65 4052.1H6326.86C6329.52 4052.1 6331.02 4053.6 6331.02 4056.26V4079.54C6331.02 4081.73 6330.09 4083.59 6327.46 4085.65C6318.25 4092.44 6308.23 4094.05 6300.88 4094.05C6275.87 4094.05 6257.93 4075.38 6257.93 4052.71" fill="white"/>
<path id="Vector_44" d="M6342.54 4052.46C6342.54 4029.55 6361.2 4010.87 6384.47 4010.87C6407.74 4010.87 6426.41 4029.55 6426.41 4052.46C6426.41 4075.38 6407.74 4094.05 6384.47 4094.05C6361.2 4094.05 6342.54 4075.38 6342.54 4052.46ZM6413.92 4052.46C6413.92 4035.08 6400.67 4021.83 6384.43 4021.83C6368.19 4021.83 6354.94 4035.08 6354.94 4052.46C6354.94 4069.84 6368.19 4083.1 6384.43 4083.1C6400.67 4083.1 6413.92 4069.84 6413.92 4052.46Z" fill="white"/>
<path id="Vector_45" d="M6440.19 4088.68V4016.33C6440.19 4013.66 6441.68 4012.17 6444.35 4012.17H6448.27C6450.93 4012.17 6452.43 4013.66 6452.43 4016.33V4082.82H6485.03C6487.7 4082.82 6489.27 4084.31 6489.27 4086.98V4088.72C6489.27 4091.39 6487.66 4092.88 6485.03 4092.88H6444.39C6441.72 4092.88 6440.23 4091.39 6440.23 4088.72" fill="white"/>
<path id="Vector_46" d="M6551.33 4016.28V4018.02C6551.33 4020.69 6549.84 4022.18 6547.17 4022.18H6511.94V4048.33H6542.12C6544.79 4048.33 6546.36 4049.83 6546.36 4052.5V4053.99C6546.36 4056.66 6544.74 4058.24 6542.12 4058.24H6511.94V4088.63C6511.94 4091.3 6510.44 4092.79 6507.78 4092.79H6503.86C6501.19 4092.79 6499.7 4091.3 6499.7 4088.63V4016.28C6499.7 4013.62 6501.19 4012.12 6503.86 4012.12H6547.17C6549.84 4012.12 6551.33 4013.62 6551.33 4016.28Z" fill="white"/>
<path id="Vector_47" d="M6559.37 4077.72C6558.24 4075.18 6559.61 4073.24 6562.12 4072.55L6565.47 4071.74C6568.02 4071.18 6569.39 4072.11 6570.64 4074.49C6573.51 4079.46 6579.61 4083.34 6587.69 4083.34C6598.08 4083.34 6604.38 4078.29 6604.38 4071.38C6604.38 4065.28 6599.33 4061.48 6592.74 4059.05L6580.78 4055.01C6565.59 4049.96 6561.92 4040.82 6561.92 4033.35C6561.92 4019.4 6574.12 4010.87 6588.06 4010.87C6600.74 4010.87 6609.71 4016.98 6613.39 4026.07C6614.44 4028.62 6613.15 4030.56 6610.64 4031.24L6607.77 4032.17C6605.23 4032.86 6603.61 4031.93 6602.48 4029.51C6599.81 4024.21 6594.88 4021.66 6588.22 4021.66C6580.62 4021.66 6574.28 4025.83 6574.28 4032.94C6574.28 4036.3 6575.33 4040.66 6584.54 4044.14L6596.5 4048.62C6610.08 4052.87 6616.3 4061.88 6616.3 4070.53C6616.3 4085.04 6604.78 4094.01 6587.98 4094.01C6573.71 4094.01 6563.57 4087.1 6559.41 4077.64" fill="white"/>
<path id="Vector_48" d="M6688.69 4016.28V4018.02C6688.69 4020.69 6687.2 4022.18 6684.53 4022.18H6662.07V4088.67C6662.07 4091.34 6660.57 4092.84 6657.91 4092.84H6654.11C6651.44 4092.84 6649.95 4091.34 6649.95 4088.67V4022.18H6627.49C6624.94 4022.18 6623.32 4020.69 6623.32 4018.02V4016.28C6623.32 4013.62 6624.94 4012.12 6627.49 4012.12H6684.49C6687.16 4012.12 6688.65 4013.62 6688.65 4016.28" fill="white"/>
<path id="Vector_49" d="M6685.34 4087.94L6713.1 4015.47C6713.9 4013.29 6715.64 4012.12 6717.95 4012.12H6724.61C6727.04 4012.12 6728.65 4013.29 6729.46 4015.47L6757.46 4087.94C6758.51 4090.81 6757.34 4092.79 6754.23 4092.79H6750.55C6748.12 4092.79 6746.51 4091.74 6745.58 4089.44L6740.61 4076.3H6702.15L6697.18 4089.44C6696.25 4091.74 6694.75 4092.79 6692.33 4092.79H6688.53C6685.42 4092.79 6684.17 4090.85 6685.3 4087.94M6737.18 4066.4L6721.3 4024L6705.62 4066.4H6737.18Z" fill="white"/>
<path id="Vector_50" d="M6819.27 4016.28V4018.02C6819.27 4020.69 6817.78 4022.18 6815.11 4022.18H6792.65V4088.67C6792.65 4091.34 6791.15 4092.84 6788.49 4092.84H6784.69C6782.02 4092.84 6780.53 4091.34 6780.53 4088.67V4022.18H6758.07C6755.52 4022.18 6753.9 4020.69 6753.9 4018.02V4016.28C6753.9 4013.62 6755.52 4012.12 6758.07 4012.12H6815.07C6817.74 4012.12 6819.23 4013.62 6819.23 4016.28" fill="white"/>
<path id="Vector_51" d="M6831.27 4062.85V4016.28C6831.27 4013.62 6832.89 4012.12 6835.43 4012.12H6839.35C6842.02 4012.12 6843.51 4013.62 6843.51 4016.28V4062.85C6843.51 4076.43 6852.72 4083.13 6863.31 4083.13C6873.9 4083.13 6883.23 4076.47 6883.23 4062.85V4016.28C6883.23 4013.62 6884.72 4012.12 6887.39 4012.12H6891.19C6893.85 4012.12 6895.47 4013.62 6895.47 4016.28V4062.85C6895.47 4083.34 6880.72 4094.09 6863.35 4094.09C6845.98 4094.09 6831.35 4083.38 6831.35 4062.85" fill="white"/>
<path id="Vector_52" d="M6908.07 4077.72C6906.94 4075.18 6908.32 4073.24 6910.82 4072.55L6914.18 4071.74C6916.72 4071.18 6918.09 4072.11 6919.35 4074.49C6922.22 4079.46 6928.32 4083.34 6936.4 4083.34C6946.78 4083.34 6953.08 4078.29 6953.08 4071.38C6953.08 4065.28 6948.03 4061.48 6941.45 4059.05L6929.49 4055.01C6914.3 4049.96 6910.62 4040.82 6910.62 4033.35C6910.62 4019.4 6922.82 4010.87 6936.76 4010.87C6949.45 4010.87 6958.41 4016.98 6962.09 4026.07C6963.14 4028.62 6961.85 4030.56 6959.34 4031.24L6956.48 4032.17C6953.93 4032.86 6952.31 4031.93 6951.18 4029.51C6948.52 4024.21 6943.59 4021.66 6936.92 4021.66C6929.33 4021.66 6922.98 4025.83 6922.98 4032.94C6922.98 4036.3 6924.03 4040.66 6933.24 4044.14L6945.2 4048.62C6958.78 4052.87 6965 4061.88 6965 4070.53C6965 4085.04 6953.49 4094.01 6936.68 4094.01C6922.42 4094.01 6912.28 4087.1 6908.11 4077.64" fill="white"/>
<path id="Vector_53" d="M6258.79 3978.94V3944.42H6266.22C6267.59 3944.42 6268.76 3944.58 6269.81 3944.94C6270.87 3945.31 6271.79 3945.91 6272.64 3946.84C6273.49 3947.73 6274.06 3948.82 6274.38 3950.04C6274.7 3951.25 6274.86 3952.91 6274.86 3954.97C6274.86 3956.5 6274.78 3957.84 6274.58 3958.89C6274.42 3959.94 6274.02 3960.95 6273.45 3961.88C6272.76 3963.01 6271.88 3963.9 6270.74 3964.51C6269.61 3965.15 6268.12 3965.44 6266.3 3965.44H6263.79V3978.94H6258.87H6258.79ZM6263.71 3949.07V3960.79H6266.1C6267.11 3960.79 6267.88 3960.63 6268.44 3960.34C6269.01 3960.06 6269.41 3959.66 6269.65 3959.13C6269.9 3958.65 6270.06 3958.04 6270.1 3957.35C6270.14 3956.63 6270.18 3955.86 6270.18 3954.97C6270.18 3954.16 6270.18 3953.39 6270.14 3952.66C6270.14 3951.94 6269.98 3951.29 6269.69 3950.76C6269.45 3950.2 6269.05 3949.79 6268.52 3949.51C6268 3949.23 6267.27 3949.07 6266.3 3949.07H6263.71Z" fill="white"/>
<path id="Vector_54" d="M6288.64 3952.59C6288.64 3951.22 6288.88 3949.96 6289.37 3948.91C6289.85 3947.86 6290.5 3946.97 6291.31 3946.24C6292.07 3945.56 6292.96 3945.03 6293.93 3944.71C6294.9 3944.34 6295.91 3944.18 6296.92 3944.18C6297.93 3944.18 6298.9 3944.34 6299.91 3944.71C6300.88 3945.07 6301.81 3945.6 6302.62 3946.24C6303.39 3946.97 6304.03 3947.86 6304.52 3948.91C6305 3949.96 6305.25 3951.22 6305.25 3952.59V3970.82C6305.25 3972.27 6305 3973.53 6304.52 3974.54C6304.03 3975.55 6303.39 3976.44 6302.62 3977.12C6301.81 3977.85 6300.92 3978.38 6299.91 3978.74C6298.9 3979.1 6297.93 3979.27 6296.92 3979.27C6295.91 3979.27 6294.94 3979.1 6293.93 3978.74C6292.96 3978.38 6292.07 3977.85 6291.31 3977.12C6290.5 3976.44 6289.85 3975.59 6289.37 3974.54C6288.88 3973.49 6288.64 3972.27 6288.64 3970.82V3952.59ZM6293.57 3970.82C6293.57 3972.03 6293.89 3972.88 6294.58 3973.45C6295.23 3974.01 6296.03 3974.29 6296.92 3974.29C6297.81 3974.29 6298.62 3974.01 6299.27 3973.45C6299.91 3972.88 6300.28 3971.99 6300.28 3970.82V3952.59C6300.28 3951.38 6299.95 3950.53 6299.27 3949.96C6298.62 3949.4 6297.81 3949.11 6296.92 3949.11C6296.03 3949.11 6295.23 3949.4 6294.58 3949.96C6293.93 3950.53 6293.57 3951.42 6293.57 3952.59V3970.82Z" fill="white"/>
<path id="Vector_55" d="M6345.08 3944.42L6339.95 3978.94H6335.3L6331.51 3956.54H6331.43L6327.71 3978.94H6323.06L6317.93 3944.42H6323.18L6325.65 3966.33H6325.73L6329.61 3944.42H6333.41L6337.45 3966.89H6337.53L6339.91 3944.42H6345.16H6345.08Z" fill="white"/>
<path id="Vector_56" d="M6358.62 3978.94V3944.42H6373.36V3949.07H6363.59V3959.21H6372.11V3963.86H6363.59V3974.01H6373.36V3978.94H6358.62Z" fill="white"/>
<path id="Vector_57" d="M6386.98 3978.94V3944.42H6394.94C6400.75 3944.42 6403.66 3947.81 6403.66 3954.56C6403.66 3956.58 6403.34 3958.32 6402.73 3959.74C6402.09 3961.15 6401 3962.32 6399.42 3963.17L6404.75 3978.94H6399.5L6394.9 3964.18H6391.95V3978.94H6387.02H6386.98ZM6391.91 3949.07V3959.82H6394.73C6395.62 3959.82 6396.31 3959.7 6396.83 3959.45C6397.36 3959.21 6397.76 3958.85 6398.05 3958.4C6398.29 3957.96 6398.49 3957.39 6398.57 3956.75C6398.65 3956.1 6398.73 3955.33 6398.73 3954.44C6398.73 3953.55 6398.69 3952.79 6398.57 3952.14C6398.49 3951.49 6398.29 3950.89 6398.01 3950.4C6397.4 3949.51 6396.23 3949.03 6394.53 3949.03H6391.95L6391.91 3949.07Z" fill="white"/>
<path id="Vector_58" d="M6418.05 3978.94V3944.42H6432.79V3949.07H6423.02V3959.21H6431.54V3963.86H6423.02V3974.01H6432.79V3978.94H6418.05Z" fill="white"/>
<path id="Vector_59" d="M6446.41 3978.94V3944.42H6453.72C6456.55 3944.42 6458.73 3945.19 6460.18 3946.76C6461.64 3948.3 6462.41 3950.52 6462.41 3953.35V3969.52C6462.41 3972.75 6461.64 3975.14 6460.06 3976.67C6458.49 3978.21 6456.22 3978.98 6453.31 3978.98H6446.45L6446.41 3978.94ZM6451.34 3949.07V3974.29H6453.6C6454.97 3974.29 6455.98 3973.92 6456.55 3973.24C6457.11 3972.55 6457.44 3971.46 6457.44 3969.96V3953.31C6457.44 3951.94 6457.15 3950.89 6456.63 3950.16C6456.06 3949.43 6455.09 3949.03 6453.64 3949.03H6451.38L6451.34 3949.07Z" fill="white"/>
<path id="Vector_60" d="M6496.91 3978.94V3944.42H6504.14C6505.72 3944.42 6507.09 3944.66 6508.18 3945.15C6509.31 3945.63 6510.2 3946.28 6510.93 3947.09C6511.65 3947.89 6512.14 3948.82 6512.46 3949.88C6512.79 3950.93 6512.91 3952.02 6512.91 3953.15V3954.4C6512.91 3955.33 6512.83 3956.14 6512.71 3956.79C6512.54 3957.43 6512.34 3958 6512.06 3958.48C6511.49 3959.37 6510.69 3960.18 6509.55 3960.83C6510.73 3961.39 6511.57 3962.2 6512.14 3963.25C6512.71 3964.3 6512.95 3965.76 6512.95 3967.62V3969.56C6512.95 3972.59 6512.22 3974.93 6510.73 3976.55C6509.27 3978.17 6506.89 3978.98 6503.66 3978.98H6496.91V3978.94ZM6501.88 3949.07V3958.57H6504.1C6505.76 3958.57 6506.85 3958.16 6507.41 3957.31C6507.98 3956.46 6508.26 3955.29 6508.26 3953.72C6508.26 3952.14 6507.94 3951.01 6507.33 3950.24C6506.69 3949.47 6505.55 3949.07 6503.9 3949.07H6501.88ZM6501.88 3962.93V3974.01H6504.02C6505.03 3974.01 6505.8 3973.84 6506.36 3973.56C6506.93 3973.28 6507.37 3972.87 6507.65 3972.35C6507.94 3971.82 6508.14 3971.22 6508.18 3970.49C6508.26 3969.76 6508.26 3968.99 6508.26 3968.14C6508.26 3967.3 6508.22 3966.53 6508.1 3965.88C6508.02 3965.23 6507.82 3964.67 6507.53 3964.22C6507.21 3963.78 6506.77 3963.46 6506.24 3963.21C6505.72 3962.97 6504.95 3962.89 6504.06 3962.89H6501.88V3962.93Z" fill="white"/>
<path id="Vector_61" d="M6532.58 3978.94V3964.35L6525.8 3944.42H6531.05L6535.01 3958.16H6535.09L6539.05 3944.42H6544.3L6537.51 3964.35V3978.94H6532.58Z" fill="white"/>
<g id="Layer_1-2">
<path id="Vector_62" d="M6179.56 4120H6043.44C6025.59 4120 6011.04 4105.45 6011.04 4087.58V3951.42C6011.04 3933.55 6025.59 3919 6043.44 3919H6179.56C6197.41 3919 6211.96 3933.55 6211.96 3951.42V4087.58C6211.96 4105.45 6197.41 4120 6179.56 4120ZM6043.44 3922.76C6027.65 3922.76 6014.8 3935.61 6014.8 3951.42V4087.58C6014.8 4103.39 6027.65 4116.24 6043.48 4116.24H6179.6C6195.39 4116.24 6208.28 4103.39 6208.28 4087.58V3951.42C6208.28 3935.61 6195.43 3922.76 6179.6 3922.76H6043.44Z" fill="white"/>
<path id="Vector_63" d="M6111.52 3945.76C6079.6 3945.76 6053.66 3971.91 6053.66 4004.08C6053.66 4015.48 6056.94 4026.51 6063.12 4036.01L6063.28 4036.25C6063.97 4037.3 6064.73 4038.4 6065.5 4039.41L6104.89 4090.54C6104.89 4090.54 6104.89 4090.54 6104.89 4090.58L6106.87 4093.28V4090.5C6106.87 4070.77 6100.93 4063.01 6098.83 4059.78C6098.43 4059.13 6098.55 4058.04 6098.51 4057.11C6098.51 4056.62 6098.91 4056.26 6099.36 4056.3C6103.32 4057.35 6107.4 4057.88 6111.56 4057.88C6115.72 4057.88 6119.84 4057.35 6123.8 4056.3C6124.21 4056.3 6124.53 4056.66 6124.53 4057.11C6124.53 4058 6124.65 4059.13 6124.21 4059.78C6122.1 4063.01 6116.17 4070.77 6116.17 4090.5V4093.08L6118.95 4089.44L6157.17 4039.77C6165.13 4029.46 6169.33 4017.1 6169.33 4004.04C6169.33 3971.91 6143.4 3945.72 6111.48 3945.72L6111.52 3945.76ZM6139.96 4041.99C6131.64 4048.14 6121.82 4051.37 6111.56 4051.37C6096.21 4051.37 6081.62 4043.89 6072.57 4031.4C6056.9 4009.78 6061.62 3979.3 6083.08 3963.5C6091.4 3957.36 6101.22 3954.12 6111.48 3954.12C6126.83 3954.12 6141.42 3961.6 6150.47 3974.09C6166.14 3995.71 6161.41 4026.19 6139.96 4041.99Z" fill="white"/>
</g>
</g>
<g id="Back - Light Tag">
<path id="Vector_64" d="M6257.89 4052.71C6257.89 4029.43 6276.56 4010.87 6299.83 4010.87C6309.73 4010.87 6318.13 4012.73 6325.97 4017.54C6328.15 4018.92 6328.64 4020.9 6327.34 4023.32L6326.17 4025.26C6324.92 4027.81 6322.94 4028.13 6320.39 4026.76C6311.42 4021.91 6305.89 4021.79 6299.79 4021.79C6283.43 4021.79 6270.3 4035.37 6270.3 4052.54C6270.3 4067.98 6280.68 4083.06 6301.41 4083.06C6308.43 4083.06 6314.41 4081.32 6319.83 4077.89V4061.88H6301.65C6298.98 4061.88 6297.49 4060.26 6297.49 4057.64V4056.26C6297.49 4053.6 6298.98 4052.1 6301.65 4052.1H6326.86C6329.52 4052.1 6331.02 4053.6 6331.02 4056.26V4079.54C6331.02 4081.73 6330.09 4083.59 6327.46 4085.65C6318.25 4092.44 6308.23 4094.05 6300.88 4094.05C6275.87 4094.05 6257.93 4075.38 6257.93 4052.71" fill="black"/>
<path id="Vector_65" d="M6342.54 4052.46C6342.54 4029.55 6361.2 4010.87 6384.47 4010.87C6407.74 4010.87 6426.41 4029.55 6426.41 4052.46C6426.41 4075.38 6407.74 4094.05 6384.47 4094.05C6361.2 4094.05 6342.54 4075.38 6342.54 4052.46ZM6413.92 4052.46C6413.92 4035.08 6400.67 4021.83 6384.43 4021.83C6368.19 4021.83 6354.94 4035.08 6354.94 4052.46C6354.94 4069.84 6368.19 4083.1 6384.43 4083.1C6400.67 4083.1 6413.92 4069.84 6413.92 4052.46Z" fill="black"/>
<path id="Vector_66" d="M6440.19 4088.68V4016.33C6440.19 4013.66 6441.68 4012.17 6444.35 4012.17H6448.27C6450.93 4012.17 6452.43 4013.66 6452.43 4016.33V4082.82H6485.03C6487.7 4082.82 6489.27 4084.31 6489.27 4086.98V4088.72C6489.27 4091.39 6487.66 4092.88 6485.03 4092.88H6444.39C6441.72 4092.88 6440.23 4091.39 6440.23 4088.72" fill="black"/>
<path id="Vector_67" d="M6551.33 4016.28V4018.02C6551.33 4020.69 6549.84 4022.18 6547.17 4022.18H6511.94V4048.33H6542.12C6544.79 4048.33 6546.36 4049.83 6546.36 4052.5V4053.99C6546.36 4056.66 6544.74 4058.24 6542.12 4058.24H6511.94V4088.63C6511.94 4091.3 6510.44 4092.79 6507.78 4092.79H6503.86C6501.19 4092.79 6499.7 4091.3 6499.7 4088.63V4016.28C6499.7 4013.62 6501.19 4012.12 6503.86 4012.12H6547.17C6549.84 4012.12 6551.33 4013.62 6551.33 4016.28Z" fill="black"/>
<path id="Vector_68" d="M6559.37 4077.72C6558.24 4075.18 6559.61 4073.24 6562.12 4072.55L6565.47 4071.74C6568.02 4071.18 6569.39 4072.11 6570.64 4074.49C6573.51 4079.46 6579.61 4083.34 6587.69 4083.34C6598.08 4083.34 6604.38 4078.29 6604.38 4071.38C6604.38 4065.28 6599.33 4061.48 6592.74 4059.05L6580.78 4055.01C6565.59 4049.96 6561.92 4040.82 6561.92 4033.35C6561.92 4019.4 6574.12 4010.87 6588.06 4010.87C6600.74 4010.87 6609.71 4016.98 6613.39 4026.07C6614.44 4028.62 6613.15 4030.56 6610.64 4031.24L6607.77 4032.17C6605.23 4032.86 6603.61 4031.93 6602.48 4029.51C6599.81 4024.21 6594.88 4021.66 6588.22 4021.66C6580.62 4021.66 6574.28 4025.83 6574.28 4032.94C6574.28 4036.3 6575.33 4040.66 6584.54 4044.14L6596.5 4048.62C6610.08 4052.87 6616.3 4061.88 6616.3 4070.53C6616.3 4085.04 6604.78 4094.01 6587.98 4094.01C6573.71 4094.01 6563.57 4087.1 6559.41 4077.64" fill="black"/>
<path id="Vector_69" d="M6688.69 4016.28V4018.02C6688.69 4020.69 6687.2 4022.18 6684.53 4022.18H6662.07V4088.67C6662.07 4091.34 6660.57 4092.84 6657.91 4092.84H6654.11C6651.44 4092.84 6649.95 4091.34 6649.95 4088.67V4022.18H6627.49C6624.94 4022.18 6623.32 4020.69 6623.32 4018.02V4016.28C6623.32 4013.62 6624.94 4012.12 6627.49 4012.12H6684.49C6687.16 4012.12 6688.65 4013.62 6688.65 4016.28" fill="black"/>
<path id="Vector_70" d="M6685.34 4087.94L6713.1 4015.47C6713.9 4013.29 6715.64 4012.12 6717.95 4012.12H6724.61C6727.04 4012.12 6728.65 4013.29 6729.46 4015.47L6757.46 4087.94C6758.51 4090.81 6757.34 4092.79 6754.23 4092.79H6750.55C6748.12 4092.79 6746.51 4091.74 6745.58 4089.44L6740.61 4076.3H6702.15L6697.18 4089.44C6696.25 4091.74 6694.75 4092.79 6692.33 4092.79H6688.53C6685.42 4092.79 6684.17 4090.85 6685.3 4087.94M6737.18 4066.4L6721.3 4024L6705.62 4066.4H6737.18Z" fill="black"/>
<path id="Vector_71" d="M6819.27 4016.28V4018.02C6819.27 4020.69 6817.78 4022.18 6815.11 4022.18H6792.65V4088.67C6792.65 4091.34 6791.15 4092.84 6788.49 4092.84H6784.69C6782.02 4092.84 6780.53 4091.34 6780.53 4088.67V4022.18H6758.07C6755.52 4022.18 6753.9 4020.69 6753.9 4018.02V4016.28C6753.9 4013.62 6755.52 4012.12 6758.07 4012.12H6815.07C6817.74 4012.12 6819.23 4013.62 6819.23 4016.28" fill="black"/>
<path id="Vector_72" d="M6831.27 4062.85V4016.28C6831.27 4013.62 6832.89 4012.12 6835.43 4012.12H6839.35C6842.02 4012.12 6843.51 4013.62 6843.51 4016.28V4062.85C6843.51 4076.43 6852.72 4083.13 6863.31 4083.13C6873.9 4083.13 6883.23 4076.47 6883.23 4062.85V4016.28C6883.23 4013.62 6884.72 4012.12 6887.39 4012.12H6891.19C6893.85 4012.12 6895.47 4013.62 6895.47 4016.28V4062.85C6895.47 4083.34 6880.72 4094.09 6863.35 4094.09C6845.98 4094.09 6831.35 4083.38 6831.35 4062.85" fill="black"/>
<path id="Vector_73" d="M6908.07 4077.72C6906.94 4075.18 6908.32 4073.24 6910.82 4072.55L6914.18 4071.74C6916.72 4071.18 6918.09 4072.11 6919.35 4074.49C6922.22 4079.46 6928.32 4083.34 6936.4 4083.34C6946.78 4083.34 6953.08 4078.29 6953.08 4071.38C6953.08 4065.28 6948.03 4061.48 6941.45 4059.05L6929.49 4055.01C6914.3 4049.96 6910.62 4040.82 6910.62 4033.35C6910.62 4019.4 6922.82 4010.87 6936.76 4010.87C6949.45 4010.87 6958.41 4016.98 6962.09 4026.07C6963.14 4028.62 6961.85 4030.56 6959.34 4031.24L6956.48 4032.17C6953.93 4032.86 6952.31 4031.93 6951.18 4029.51C6948.52 4024.21 6943.59 4021.66 6936.92 4021.66C6929.33 4021.66 6922.98 4025.83 6922.98 4032.94C6922.98 4036.3 6924.03 4040.66 6933.24 4044.14L6945.2 4048.62C6958.78 4052.87 6965 4061.88 6965 4070.53C6965 4085.04 6953.49 4094.01 6936.68 4094.01C6922.42 4094.01 6912.28 4087.1 6908.11 4077.64" fill="black"/>
<path id="Vector_74" d="M6258.79 3978.94V3944.42H6266.22C6267.59 3944.42 6268.76 3944.58 6269.81 3944.94C6270.87 3945.31 6271.79 3945.91 6272.64 3946.84C6273.49 3947.73 6274.06 3948.82 6274.38 3950.04C6274.7 3951.25 6274.86 3952.91 6274.86 3954.97C6274.86 3956.5 6274.78 3957.84 6274.58 3958.89C6274.42 3959.94 6274.02 3960.95 6273.45 3961.88C6272.76 3963.01 6271.88 3963.9 6270.74 3964.51C6269.61 3965.15 6268.12 3965.44 6266.3 3965.44H6263.79V3978.94H6258.87H6258.79ZM6263.71 3949.07V3960.79H6266.1C6267.11 3960.79 6267.88 3960.63 6268.44 3960.34C6269.01 3960.06 6269.41 3959.66 6269.65 3959.13C6269.9 3958.65 6270.06 3958.04 6270.1 3957.35C6270.14 3956.63 6270.18 3955.86 6270.18 3954.97C6270.18 3954.16 6270.18 3953.39 6270.14 3952.66C6270.14 3951.94 6269.98 3951.29 6269.69 3950.76C6269.45 3950.2 6269.05 3949.79 6268.52 3949.51C6268 3949.23 6267.27 3949.07 6266.3 3949.07H6263.71Z" fill="black"/>
<path id="Vector_75" d="M6288.64 3952.59C6288.64 3951.22 6288.88 3949.96 6289.37 3948.91C6289.85 3947.86 6290.5 3946.97 6291.31 3946.24C6292.07 3945.56 6292.96 3945.03 6293.93 3944.71C6294.9 3944.34 6295.91 3944.18 6296.92 3944.18C6297.93 3944.18 6298.9 3944.34 6299.91 3944.71C6300.88 3945.07 6301.81 3945.6 6302.62 3946.24C6303.39 3946.97 6304.03 3947.86 6304.52 3948.91C6305 3949.96 6305.25 3951.22 6305.25 3952.59V3970.82C6305.25 3972.27 6305 3973.53 6304.52 3974.54C6304.03 3975.55 6303.39 3976.44 6302.62 3977.12C6301.81 3977.85 6300.92 3978.38 6299.91 3978.74C6298.9 3979.1 6297.93 3979.27 6296.92 3979.27C6295.91 3979.27 6294.94 3979.1 6293.93 3978.74C6292.96 3978.38 6292.07 3977.85 6291.31 3977.12C6290.5 3976.44 6289.85 3975.59 6289.37 3974.54C6288.88 3973.49 6288.64 3972.27 6288.64 3970.82V3952.59ZM6293.57 3970.82C6293.57 3972.03 6293.89 3972.88 6294.58 3973.45C6295.23 3974.01 6296.03 3974.29 6296.92 3974.29C6297.81 3974.29 6298.62 3974.01 6299.27 3973.45C6299.91 3972.88 6300.28 3971.99 6300.28 3970.82V3952.59C6300.28 3951.38 6299.95 3950.53 6299.27 3949.96C6298.62 3949.4 6297.81 3949.11 6296.92 3949.11C6296.03 3949.11 6295.23 3949.4 6294.58 3949.96C6293.93 3950.53 6293.57 3951.42 6293.57 3952.59V3970.82Z" fill="black"/>
<path id="Vector_76" d="M6345.08 3944.42L6339.95 3978.94H6335.3L6331.51 3956.54H6331.43L6327.71 3978.94H6323.06L6317.93 3944.42H6323.18L6325.65 3966.33H6325.73L6329.61 3944.42H6333.41L6337.45 3966.89H6337.53L6339.91 3944.42H6345.16H6345.08Z" fill="black"/>
<path id="Vector_77" d="M6358.62 3978.94V3944.42H6373.36V3949.07H6363.59V3959.21H6372.11V3963.86H6363.59V3974.01H6373.36V3978.94H6358.62Z" fill="black"/>
<path id="Vector_78" d="M6386.98 3978.94V3944.42H6394.94C6400.75 3944.42 6403.66 3947.81 6403.66 3954.56C6403.66 3956.58 6403.34 3958.32 6402.73 3959.74C6402.09 3961.15 6401 3962.32 6399.42 3963.17L6404.75 3978.94H6399.5L6394.9 3964.18H6391.95V3978.94H6387.02H6386.98ZM6391.91 3949.07V3959.82H6394.73C6395.62 3959.82 6396.31 3959.7 6396.83 3959.45C6397.36 3959.21 6397.76 3958.85 6398.05 3958.4C6398.29 3957.96 6398.49 3957.39 6398.57 3956.75C6398.65 3956.1 6398.73 3955.33 6398.73 3954.44C6398.73 3953.55 6398.69 3952.79 6398.57 3952.14C6398.49 3951.49 6398.29 3950.89 6398.01 3950.4C6397.4 3949.51 6396.23 3949.03 6394.53 3949.03H6391.95L6391.91 3949.07Z" fill="black"/>
<path id="Vector_79" d="M6418.05 3978.94V3944.42H6432.79V3949.07H6423.02V3959.21H6431.54V3963.86H6423.02V3974.01H6432.79V3978.94H6418.05Z" fill="black"/>
<path id="Vector_80" d="M6446.41 3978.94V3944.42H6453.72C6456.55 3944.42 6458.73 3945.19 6460.18 3946.76C6461.64 3948.3 6462.41 3950.52 6462.41 3953.35V3969.52C6462.41 3972.75 6461.64 3975.14 6460.06 3976.67C6458.49 3978.21 6456.22 3978.98 6453.31 3978.98H6446.45L6446.41 3978.94ZM6451.34 3949.07V3974.29H6453.6C6454.97 3974.29 6455.98 3973.92 6456.55 3973.24C6457.11 3972.55 6457.44 3971.46 6457.44 3969.96V3953.31C6457.44 3951.94 6457.15 3950.89 6456.63 3950.16C6456.06 3949.43 6455.09 3949.03 6453.64 3949.03H6451.38L6451.34 3949.07Z" fill="black"/>
<path id="Vector_81" d="M6496.91 3978.94V3944.42H6504.14C6505.72 3944.42 6507.09 3944.66 6508.18 3945.15C6509.31 3945.63 6510.2 3946.28 6510.93 3947.09C6511.65 3947.89 6512.14 3948.82 6512.46 3949.88C6512.79 3950.93 6512.91 3952.02 6512.91 3953.15V3954.4C6512.91 3955.33 6512.83 3956.14 6512.71 3956.79C6512.54 3957.43 6512.34 3958 6512.06 3958.48C6511.49 3959.37 6510.69 3960.18 6509.55 3960.83C6510.73 3961.39 6511.57 3962.2 6512.14 3963.25C6512.71 3964.3 6512.95 3965.76 6512.95 3967.62V3969.56C6512.95 3972.59 6512.22 3974.93 6510.73 3976.55C6509.27 3978.17 6506.89 3978.98 6503.66 3978.98H6496.91V3978.94ZM6501.88 3949.07V3958.57H6504.1C6505.76 3958.57 6506.85 3958.16 6507.41 3957.31C6507.98 3956.46 6508.26 3955.29 6508.26 3953.72C6508.26 3952.14 6507.94 3951.01 6507.33 3950.24C6506.69 3949.47 6505.55 3949.07 6503.9 3949.07H6501.88ZM6501.88 3962.93V3974.01H6504.02C6505.03 3974.01 6505.8 3973.84 6506.36 3973.56C6506.93 3973.28 6507.37 3972.87 6507.65 3972.35C6507.94 3971.82 6508.14 3971.22 6508.18 3970.49C6508.26 3969.76 6508.26 3968.99 6508.26 3968.14C6508.26 3967.3 6508.22 3966.53 6508.1 3965.88C6508.02 3965.23 6507.82 3964.67 6507.53 3964.22C6507.21 3963.78 6506.77 3963.46 6506.24 3963.21C6505.72 3962.97 6504.95 3962.89 6504.06 3962.89H6501.88V3962.93Z" fill="black"/>
<path id="Vector_82" d="M6532.58 3978.94V3964.35L6525.8 3944.42H6531.05L6535.01 3958.16H6535.09L6539.05 3944.42H6544.3L6537.51 3964.35V3978.94H6532.58Z" fill="black"/>
<g id="Layer_1-2_2">
<path id="Vector_83" d="M6179.56 4120H6043.44C6025.59 4120 6011.04 4105.45 6011.04 4087.58V3951.42C6011.04 3933.55 6025.59 3919 6043.44 3919H6179.56C6197.41 3919 6211.96 3933.55 6211.96 3951.42V4087.58C6211.96 4105.45 6197.41 4120 6179.56 4120ZM6043.44 3922.76C6027.65 3922.76 6014.8 3935.61 6014.8 3951.42V4087.58C6014.8 4103.39 6027.65 4116.24 6043.48 4116.24H6179.6C6195.39 4116.24 6208.28 4103.39 6208.28 4087.58V3951.42C6208.28 3935.61 6195.43 3922.76 6179.6 3922.76H6043.44Z" fill="black"/>
<path id="Vector_84" d="M6111.52 3945.76C6079.6 3945.76 6053.66 3971.91 6053.66 4004.08C6053.66 4015.48 6056.94 4026.51 6063.12 4036.01L6063.28 4036.25C6063.97 4037.3 6064.73 4038.4 6065.5 4039.41L6104.89 4090.54C6104.89 4090.54 6104.89 4090.54 6104.89 4090.58L6106.87 4093.28V4090.5C6106.87 4070.77 6100.93 4063.01 6098.83 4059.78C6098.43 4059.13 6098.55 4058.04 6098.51 4057.11C6098.51 4056.62 6098.91 4056.26 6099.36 4056.3C6103.32 4057.35 6107.4 4057.88 6111.56 4057.88C6115.72 4057.88 6119.84 4057.35 6123.8 4056.3C6124.21 4056.3 6124.53 4056.66 6124.53 4057.11C6124.53 4058 6124.65 4059.13 6124.21 4059.78C6122.1 4063.01 6116.17 4070.77 6116.17 4090.5V4093.08L6118.95 4089.44L6157.17 4039.77C6165.13 4029.46 6169.33 4017.1 6169.33 4004.04C6169.33 3971.91 6143.4 3945.72 6111.48 3945.72L6111.52 3945.76ZM6139.96 4041.99C6131.64 4048.14 6121.82 4051.37 6111.56 4051.37C6096.21 4051.37 6081.62 4043.89 6072.57 4031.4C6056.9 4009.78 6061.62 3979.3 6083.08 3963.5C6091.4 3957.36 6101.22 3954.12 6111.48 3954.12C6126.83 3954.12 6141.42 3961.6 6150.47 3974.09C6166.14 3995.71 6161.41 4026.19 6139.96 4041.99Z" fill="black"/>
</g>
</g>
</g>
</g>
<g id="#logo-placement">
<g id="Area">
<rect width="5501" height="3604" transform="translate(1455 533)" fill="#2063D6"/>
</g>
</g>
</g>
</svg>
