<svg width="7519" height="4669" viewBox="0 0 7519 4669" fill="none" xmlns="http://www.w3.org/2000/svg">
<g id="Diagonal">
<rect id="zone-primary" width="7519" height="4669" fill="white"/>
<g id="zone-secondary">
<path id="Vector 1" d="M1123.5 4359L7209 362H1123.5V4359Z" fill="#373737"/>
</g>
<g id="zone-border">
<rect id="Border" width="7519" height="460" fill="#373737"/>
<rect id="Border_2" y="4669" width="4669" height="1356" transform="rotate(-90 0 4669)" fill="#373737"/>
<rect id="Border_3" x="7059" y="4669" width="4669" height="460" transform="rotate(-90 7059 4669)" fill="#373737"/>
<rect id="Border_4" y="4209" width="7519" height="460" fill="#373737"/>
</g>
<g id="Bleed">
<g id="Bleed_2">
<rect id="Bleed_3" x="0.5" y="0.5" width="7518" height="309" fill="#9A9A9A" stroke="#9A9A9A"/>
<rect id="Bleed_4" x="0.5" y="4668.5" width="4668" height="1205" transform="rotate(-90 0.5 4668.5)" fill="#9A9A9A" stroke="#9A9A9A"/>
<rect id="Bleed_5" x="7209.5" y="4668.5" width="4668" height="309" transform="rotate(-90 7209.5 4668.5)" fill="#9A9A9A" stroke="#9A9A9A"/>
<rect id="Bleed_6" x="0.5" y="4359.5" width="7518" height="309" fill="#9A9A9A" stroke="#9A9A9A"/>
<path id="Bleed_7" d="M7060 460H7064V456H7060V460ZM7060 4209V4213H7064V4209H7060ZM1206 4209V4213H1216.02V4209V4205H1206V4209ZM1236.07 4209V4213H1256.12V4209V4205H1236.07V4209ZM1276.17 4209V4213H1296.22V4209V4205H1276.17V4209ZM1316.26 4209V4213H1336.31V4209V4205H1316.26V4209ZM1356.36 4209V4213H1376.41V4209V4205H1356.36V4209ZM1396.46 4209V4213H1416.5V4209V4205H1396.46V4209ZM1436.55 4209V4213H1456.6V4209V4205H1436.55V4209ZM1476.65 4209V4213H1496.7V4209V4205H1476.65V4209ZM1516.74 4209V4213H1536.79V4209V4205H1516.74V4209ZM1556.84 4209V4213H1576.89V4209V4205H1556.84V4209ZM1596.93 4209V4213H1616.98V4209V4205H1596.93V4209ZM1637.03 4209V4213H1657.08V4209V4205H1637.03V4209ZM1677.13 4209V4213H1697.17V4209V4205H1677.13V4209ZM1717.22 4209V4213H1737.27V4209V4205H1717.22V4209ZM1757.32 4209V4213H1777.37V4209V4205H1757.32V4209ZM1797.41 4209V4213H1817.46V4209V4205H1797.41V4209ZM1837.51 4209V4213H1857.56V4209V4205H1837.51V4209ZM1877.61 4209V4213H1897.65V4209V4205H1877.61V4209ZM1917.7 4209V4213H1937.75V4209V4205H1917.7V4209ZM1957.8 4209V4213H1977.85V4209V4205H1957.8V4209ZM1997.89 4209V4213H2017.94V4209V4205H1997.89V4209ZM2037.99 4209V4213H2058.04V4209V4205H2037.99V4209ZM2078.09 4209V4213H2098.13V4209V4205H2078.09V4209ZM2118.18 4209V4213H2138.23V4209V4205H2118.18V4209ZM2158.28 4209V4213H2178.33V4209V4205H2158.28V4209ZM2198.37 4209V4213H2218.42V4209V4205H2198.37V4209ZM2238.47 4209V4213H2258.52V4209V4205H2238.47V4209ZM2278.57 4209V4213H2298.61V4209V4205H2278.57V4209ZM2318.66 4209V4213H2338.71V4209V4205H2318.66V4209ZM2358.76 4209V4213H2378.81V4209V4205H2358.76V4209ZM2398.85 4209V4213H2418.9V4209V4205H2398.85V4209ZM2438.95 4209V4213H2459V4209V4205H2438.95V4209ZM2479.05 4209V4213H2499.09V4209V4205H2479.05V4209ZM2519.14 4209V4213H2539.19V4209V4205H2519.14V4209ZM2559.24 4209V4213H2579.29V4209V4205H2559.24V4209ZM2599.33 4209V4213H2619.38V4209V4205H2599.33V4209ZM2639.43 4209V4213H2659.48V4209V4205H2639.43V4209ZM2679.53 4209V4213H2699.57V4209V4205H2679.53V4209ZM2719.62 4209V4213H2739.67V4209V4205H2719.62V4209ZM2759.72 4209V4213H2779.77V4209V4205H2759.72V4209ZM2799.81 4209V4213H2819.86V4209V4205H2799.81V4209ZM2839.91 4209V4213H2859.96V4209V4205H2839.91V4209ZM2880.01 4209V4213H2900.05V4209V4205H2880.01V4209ZM2920.1 4209V4213H2940.15V4209V4205H2920.1V4209ZM2960.2 4209V4213H2980.24V4209V4205H2960.2V4209ZM3000.29 4209V4213H3020.34V4209V4205H3000.29V4209ZM3040.39 4209V4213H3060.44V4209V4205H3040.39V4209ZM3080.48 4209V4213H3100.53V4209V4205H3080.48V4209ZM3120.58 4209V4213H3140.63V4209V4205H3120.58V4209ZM3160.68 4209V4213H3180.72V4209V4205H3160.68V4209ZM3200.77 4209V4213H3220.82V4209V4205H3200.77V4209ZM3240.87 4209V4213H3260.92V4209V4205H3240.87V4209ZM3280.96 4209V4213H3301.01V4209V4205H3280.96V4209ZM3321.06 4209V4213H3341.11V4209V4205H3321.06V4209ZM3361.16 4209V4213H3381.2V4209V4205H3361.16V4209ZM3401.25 4209V4213H3421.3V4209V4205H3401.25V4209ZM3441.35 4209V4213H3461.4V4209V4205H3441.35V4209ZM3481.44 4209V4213H3501.49V4209V4205H3481.44V4209ZM3521.54 4209V4213H3541.59V4209V4205H3521.54V4209ZM3561.63 4209V4213H3581.68V4209V4205H3561.63V4209ZM3601.73 4209V4213H3621.78V4209V4205H3601.73V4209ZM3641.83 4209V4213H3661.87V4209V4205H3641.83V4209ZM3681.92 4209V4213H3701.97V4209V4205H3681.92V4209ZM3722.02 4209V4213H3742.06V4209V4205H3722.02V4209ZM3762.11 4209V4213H3782.16V4209V4205H3762.11V4209ZM3802.21 4209V4213H3822.26V4209V4205H3802.21V4209ZM3842.3 4209V4213H3862.35V4209V4205H3842.3V4209ZM3882.4 4209V4213H3902.45V4209V4205H3882.4V4209ZM3922.5 4209V4213H3942.54V4209V4205H3922.5V4209ZM3962.59 4209V4213H3982.64V4209V4205H3962.59V4209ZM4002.69 4209V4213H4022.73V4209V4205H4002.69V4209ZM4042.78 4209V4213H4062.83V4209V4205H4042.78V4209ZM4082.88 4209V4213H4102.93V4209V4205H4082.88V4209ZM4122.97 4209V4213H4143.02V4209V4205H4122.97V4209ZM4163.07 4209V4213H4183.12V4209V4205H4163.07V4209ZM4203.17 4209V4213H4223.21V4209V4205H4203.17V4209ZM4243.26 4209V4213H4263.31V4209V4205H4243.26V4209ZM4283.36 4209V4213H4303.4V4209V4205H4283.36V4209ZM4323.45 4209V4213H4343.5V4209V4205H4323.45V4209ZM4363.55 4209V4213H4383.6V4209V4205H4363.55V4209ZM4403.64 4209V4213H4423.69V4209V4205H4403.64V4209ZM4443.74 4209V4213H4463.79V4209V4205H4443.74V4209ZM4483.84 4209V4213H4503.88V4209V4205H4483.84V4209ZM4523.93 4209V4213H4543.98V4209V4205H4523.93V4209ZM4564.03 4209V4213H4584.07V4209V4205H4564.03V4209ZM4604.12 4209V4213H4624.17V4209V4205H4604.12V4209ZM4644.22 4209V4213H4664.27V4209V4205H4644.22V4209ZM4684.31 4209V4213H4704.36V4209V4205H4684.31V4209ZM4724.41 4209V4213H4744.46V4209V4205H4724.41V4209ZM4764.51 4209V4213H4784.55V4209V4205H4764.51V4209ZM4804.6 4209V4213H4824.65V4209V4205H4804.6V4209ZM4844.7 4209V4213H4864.74V4209V4205H4844.7V4209ZM4884.79 4209V4213H4904.84V4209V4205H4884.79V4209ZM4924.89 4209V4213H4944.94V4209V4205H4924.89V4209ZM4964.98 4209V4213H4985.03V4209V4205H4964.98V4209ZM5005.08 4209V4213H5025.13V4209V4205H5005.08V4209ZM5045.18 4209V4213H5065.22V4209V4205H5045.18V4209ZM5085.27 4209V4213H5105.32V4209V4205H5085.27V4209ZM5125.37 4209V4213H5145.41V4209V4205H5125.37V4209ZM5165.46 4209V4213H5185.51V4209V4205H5165.46V4209ZM5205.56 4209V4213H5225.61V4209V4205H5205.56V4209ZM5245.65 4209V4213H5265.7V4209V4205H5245.65V4209ZM5285.75 4209V4213H5305.8V4209V4205H5285.75V4209ZM5325.85 4209V4213H5345.89V4209V4205H5325.85V4209ZM5365.94 4209V4213H5385.99V4209V4205H5365.94V4209ZM5406.04 4209V4213H5426.08V4209V4205H5406.04V4209ZM5446.13 4209V4213H5466.18V4209V4205H5446.13V4209ZM5486.23 4209V4213H5506.28V4209V4205H5486.23V4209ZM5526.32 4209V4213H5546.37V4209V4205H5526.32V4209ZM5566.42 4209V4213H5586.47V4209V4205H5566.42V4209ZM5606.52 4209V4213H5626.56V4209V4205H5606.52V4209ZM5646.61 4209V4213H5666.66V4209V4205H5646.61V4209ZM5686.71 4209V4213H5706.75V4209V4205H5686.71V4209ZM5726.8 4209V4213H5746.85V4209V4205H5726.8V4209ZM5766.9 4209V4213H5786.95V4209V4205H5766.9V4209ZM5806.99 4209V4213H5827.04V4209V4205H5806.99V4209ZM5847.09 4209V4213H5867.14V4209V4205H5847.09V4209ZM5887.19 4209V4213H5907.23V4209V4205H5887.19V4209ZM5927.28 4209V4213H5947.33V4209V4205H5927.28V4209ZM5967.38 4209V4213H5987.42V4209V4205H5967.38V4209ZM6007.47 4209V4213H6027.52V4209V4205H6007.47V4209ZM6047.57 4209V4213H6067.62V4209V4205H6047.57V4209ZM6087.66 4209V4213H6107.71V4209V4205H6087.66V4209ZM6127.76 4209V4213H6147.81V4209V4205H6127.76V4209ZM6167.85 4209V4213H6187.9V4209V4205H6167.85V4209ZM6207.95 4209V4213H6228V4209V4205H6207.95V4209ZM6248.05 4209V4213H6268.09V4209V4205H6248.05V4209ZM6288.14 4209V4213H6308.19V4209V4205H6288.14V4209ZM6328.24 4209V4213H6348.29V4209V4205H6328.24V4209ZM6368.33 4209V4213H6388.38V4209V4205H6368.33V4209ZM6408.43 4209V4213H6428.48V4209V4205H6408.43V4209ZM6448.52 4209V4213H6468.57V4209V4205H6448.52V4209ZM6488.62 4209V4213H6508.67V4209V4205H6488.62V4209ZM6528.72 4209V4213H6548.76V4209V4205H6528.72V4209ZM6568.81 4209V4213H6588.86V4209V4205H6568.81V4209ZM6608.91 4209V4213H6628.96V4209V4205H6608.91V4209ZM6649 4209V4213H6669.05V4209V4205H6649V4209ZM6689.1 4209V4213H6709.15V4209V4205H6689.1V4209ZM6729.19 4209V4213H6749.24V4209V4205H6729.19V4209ZM6769.29 4209V4213H6789.34V4209V4205H6769.29V4209ZM6809.39 4209V4213H6829.43V4209V4205H6809.39V4209ZM6849.48 4209V4213H6869.53V4209V4205H6849.48V4209ZM6889.58 4209V4213H6909.63V4209V4205H6889.58V4209ZM6929.67 4209V4213H6949.72V4209V4205H6929.67V4209ZM6969.77 4209V4213H6989.82V4209V4205H6969.77V4209ZM7009.86 4209V4213H7029.91V4209V4205H7009.86V4209ZM7049.96 4209V4213H7060V4209V4205H7049.96V4209ZM7060 4209H7064V4199.03H7060H7056V4209H7060ZM7060 4179.09H7064V4159.15H7060H7056V4179.09H7060ZM7060 4139.2H7064V4119.26H7060H7056V4139.2H7060ZM7060 4099.32H7064V4079.38H7060H7056V4099.32H7060ZM7060 4059.44H7064V4039.5H7060H7056V4059.44H7060ZM7060 4019.56H7064V3999.61H7060H7056V4019.56H7060ZM7060 3979.67H7064V3959.73H7060H7056V3979.67H7060ZM7060 3939.79H7064V3919.85H7060H7056V3939.79H7060ZM7060 3899.91H7064V3879.97H7060H7056V3899.91H7060ZM7060 3860.02H7064V3840.08H7060H7056V3860.02H7060ZM7060 3820.14H7064V3800.2H7060H7056V3820.14H7060ZM7060 3780.26H7064V3760.32H7060H7056V3780.26H7060ZM7060 3740.37H7064V3720.43H7060H7056V3740.37H7060ZM7060 3700.49H7064V3680.55H7060H7056V3700.49H7060ZM7060 3660.61H7064V3640.67H7060H7056V3660.61H7060ZM7060 3620.73H7064V3600.78H7060H7056V3620.73H7060ZM7060 3580.84H7064V3560.9H7060H7056V3580.84H7060ZM7060 3540.96H7064V3521.02H7060H7056V3540.96H7060ZM7060 3501.08H7064V3481.14H7060H7056V3501.08H7060ZM7060 3461.19H7064V3441.25H7060H7056V3461.19H7060ZM7060 3421.31H7064V3401.37H7060H7056V3421.31H7060ZM7060 3381.43H7064V3361.49H7060H7056V3381.43H7060ZM7060 3341.55H7064V3321.6H7060H7056V3341.55H7060ZM7060 3301.66H7064V3281.72H7060H7056V3301.66H7060ZM7060 3261.78H7064V3241.84H7060H7056V3261.78H7060ZM7060 3221.9H7064V3201.96H7060H7056V3221.9H7060ZM7060 3182.01H7064V3162.07H7060H7056V3182.01H7060ZM7060 3142.13H7064V3122.19H7060H7056V3142.13H7060ZM7060 3102.25H7064V3082.31H7060H7056V3102.25H7060ZM7060 3062.36H7064V3042.42H7060H7056V3062.36H7060ZM7060 3022.48H7064V3002.54H7060H7056V3022.48H7060ZM7060 2982.6H7064V2962.66H7060H7056V2982.6H7060ZM7060 2942.72H7064V2922.77H7060H7056V2942.72H7060ZM7060 2902.83H7064V2882.89H7060H7056V2902.83H7060ZM7060 2862.95H7064V2843.01H7060H7056V2862.95H7060ZM7060 2823.07H7064V2803.12H7060H7056V2823.07H7060ZM7060 2783.18H7064V2763.24H7060H7056V2783.18H7060ZM7060 2743.3H7064V2723.36H7060H7056V2743.3H7060ZM7060 2703.42H7064V2683.48H7060H7056V2703.42H7060ZM7060 2663.53H7064V2643.59H7060H7056V2663.53H7060ZM7060 2623.65H7064V2603.71H7060H7056V2623.65H7060ZM7060 2583.77H7064V2563.83H7060H7056V2583.77H7060ZM7060 2543.88H7064V2523.94H7060H7056V2543.88H7060ZM7060 2504H7064V2484.06H7060H7056V2504H7060ZM7060 2464.12H7064V2444.18H7060H7056V2464.12H7060ZM7060 2424.24H7064V2404.29H7060H7056V2424.24H7060ZM7060 2384.35H7064V2364.41H7060H7056V2384.35H7060ZM7060 2344.47H7064V2324.53H7060H7056V2344.47H7060ZM7060 2304.59H7064V2284.65H7060H7056V2304.59H7060ZM7060 2264.7H7064V2244.76H7060H7056V2264.7H7060ZM7060 2224.82H7064V2204.88H7060H7056V2224.82H7060ZM7060 2184.94H7064V2165H7060H7056V2184.94H7060ZM7060 2145.05H7064V2125.11H7060H7056V2145.05H7060ZM7060 2105.17H7064V2085.23H7060H7056V2105.17H7060ZM7060 2065.29H7064V2045.35H7060H7056V2065.29H7060ZM7060 2025.41H7064V2005.46H7060H7056V2025.41H7060ZM7060 1985.52H7064V1965.58H7060H7056V1985.52H7060ZM7060 1945.64H7064V1925.7H7060H7056V1945.64H7060ZM7060 1905.76H7064V1885.82H7060H7056V1905.76H7060ZM7060 1865.87H7064V1845.93H7060H7056V1865.87H7060ZM7060 1825.99H7064V1806.05H7060H7056V1825.99H7060ZM7060 1786.11H7064V1766.17H7060H7056V1786.11H7060ZM7060 1746.23H7064V1726.28H7060H7056V1746.23H7060ZM7060 1706.34H7064V1686.4H7060H7056V1706.34H7060ZM7060 1666.46H7064V1646.52H7060H7056V1666.46H7060ZM7060 1626.58H7064V1606.64H7060H7056V1626.58H7060ZM7060 1586.69H7064V1566.75H7060H7056V1586.69H7060ZM7060 1546.81H7064V1526.87H7060H7056V1546.81H7060ZM7060 1506.93H7064V1486.99H7060H7056V1506.93H7060ZM7060 1467.05H7064V1447.1H7060H7056V1467.05H7060ZM7060 1427.16H7064V1407.22H7060H7056V1427.16H7060ZM7060 1387.28H7064V1367.34H7060H7056V1387.28H7060ZM7060 1347.4H7064V1327.46H7060H7056V1347.4H7060ZM7060 1307.52H7064V1287.57H7060H7056V1307.52H7060ZM7060 1267.63H7064V1247.69H7060H7056V1267.63H7060ZM7060 1227.75H7064V1207.81H7060H7056V1227.75H7060ZM7060 1187.87H7064V1167.93H7060H7056V1187.87H7060ZM7060 1147.98H7064V1128.04H7060H7056V1147.98H7060ZM7060 1108.1H7064V1088.16H7060H7056V1108.1H7060ZM7060 1068.22H7064V1048.28H7060H7056V1068.22H7060ZM7060 1028.34H7064V1008.39H7060H7056V1028.34H7060ZM7060 988.453H7064V968.511H7060H7056V988.453H7060ZM7060 948.57H7064V928.628H7060H7056V948.57H7060ZM7060 908.687H7064V888.746H7060H7056V908.687H7060ZM7060 868.804H7064V848.863H7060H7056V868.804H7060ZM7060 828.921H7064V808.98H7060H7056V828.921H7060ZM7060 789.039H7064V769.097H7060H7056V789.039H7060ZM7060 749.156H7064V729.214H7060H7056V749.156H7060ZM7060 709.273H7064V689.332H7060H7056V709.273H7060ZM7060 669.39H7064V649.449H7060H7056V669.39H7060ZM7060 629.507H7064V609.566H7060H7056V629.507H7060ZM7060 589.625H7064V569.683H7060H7056V589.625H7060ZM7060 549.742H7064V529.8H7060H7056V549.742H7060ZM7060 509.859H7064V489.917H7060H7056V509.859H7060ZM7060 469.976H7064V460H7060H7056V469.976H7060ZM7060 460V456H7049.98V460V464H7060V460ZM7029.93 460V456H7009.88V460V464H7029.93V460ZM6989.83 460V456H6969.78V460V464H6989.83V460ZM6949.74 460V456H6929.69V460V464H6949.74V460ZM6909.64 460V456H6889.59V460V464H6909.64V460ZM6869.54 460V456H6849.5V460V464H6869.54V460ZM6829.45 460V456H6809.4V460V464H6829.45V460ZM6789.35 460V456H6769.3V460V464H6789.35V460ZM6749.26 460V456H6729.21V460V464H6749.26V460ZM6709.16 460V456H6689.11V460V464H6709.16V460ZM6669.06 460V456H6649.02V460V464H6669.06V460ZM6628.97 460V456H6608.92V460V464H6628.97V460ZM6588.87 460V456H6568.83V460V464H6588.87V460ZM6548.78 460V456H6528.73V460V464H6548.78V460ZM6508.68 460V456H6488.63V460V464H6508.68V460ZM6468.59 460V456H6448.54V460V464H6468.59V460ZM6428.49 460V456H6408.44V460V464H6428.49V460ZM6388.39 460V456H6368.35V460V464H6388.39V460ZM6348.3 460V456H6328.25V460V464H6348.3V460ZM6308.2 460V456H6288.15V460V464H6308.2V460ZM6268.11 460V456H6248.06V460V464H6268.11V460ZM6228.01 460V456H6207.96V460V464H6228.01V460ZM6187.91 460V456H6167.87V460V464H6187.91V460ZM6147.82 460V456H6127.77V460V464H6147.82V460ZM6107.72 460V456H6087.67V460V464H6107.72V460ZM6067.63 460V456H6047.58V460V464H6067.63V460ZM6027.53 460V456H6007.48V460V464H6027.53V460ZM5987.43 460V456H5967.39V460V464H5987.43V460ZM5947.34 460V456H5927.29V460V464H5947.34V460ZM5907.24 460V456H5887.19V460V464H5907.24V460ZM5867.15 460V456H5847.1V460V464H5867.15V460ZM5827.05 460V456H5807V460V464H5827.05V460ZM5786.95 460V456H5766.91V460V464H5786.95V460ZM5746.86 460V456H5726.81V460V464H5746.86V460ZM5706.76 460V456H5686.71V460V464H5706.76V460ZM5666.67 460V456H5646.62V460V464H5666.67V460ZM5626.57 460V456H5606.52V460V464H5626.57V460ZM5586.47 460V456H5566.43V460V464H5586.47V460ZM5546.38 460V456H5526.33V460V464H5546.38V460ZM5506.28 460V456H5486.23V460V464H5506.28V460ZM5466.19 460V456H5446.14V460V464H5466.19V460ZM5426.09 460V456H5406.04V460V464H5426.09V460ZM5386 460V456H5365.95V460V464H5386V460ZM5345.9 460V456H5325.85V460V464H5345.9V460ZM5305.8 460V456H5285.76V460V464H5305.8V460ZM5265.71 460V456H5245.66V460V464H5265.71V460ZM5225.61 460V456H5205.56V460V464H5225.61V460ZM5185.52 460V456H5165.47V460V464H5185.52V460ZM5145.42 460V456H5125.37V460V464H5145.42V460ZM5105.32 460V456H5085.28V460V464H5105.32V460ZM5065.23 460V456H5045.18V460V464H5065.23V460ZM5025.13 460V456H5005.08V460V464H5025.13V460ZM4985.04 460V456H4964.99V460V464H4985.04V460ZM4944.94 460V456H4924.89V460V464H4944.94V460ZM4904.84 460V456H4884.8V460V464H4904.84V460ZM4864.75 460V456H4844.7V460V464H4864.75V460ZM4824.65 460V456H4804.6V460V464H4824.65V460ZM4784.56 460V456H4764.51V460V464H4784.56V460ZM4744.46 460V456H4724.41V460V464H4744.46V460ZM4704.37 460V456H4684.32V460V464H4704.37V460ZM4664.27 460V456H4644.22V460V464H4664.27V460ZM4624.17 460V456H4604.13V460V464H4624.17V460ZM4584.08 460V456H4564.03V460V464H4584.08V460ZM4543.98 460V456H4523.94V460V464H4543.98V460ZM4503.89 460V456H4483.84V460V464H4503.89V460ZM4463.79 460V456H4443.74V460V464H4463.79V460ZM4423.7 460V456H4403.65V460V464H4423.7V460ZM4383.6 460V456H4363.55V460V464H4383.6V460ZM4343.5 460V456H4323.46V460V464H4343.5V460ZM4303.41 460V456H4283.36V460V464H4303.41V460ZM4263.31 460V456H4243.27V460V464H4263.31V460ZM4223.22 460V456H4203.17V460V464H4223.22V460ZM4183.12 460V456H4163.07V460V464H4183.12V460ZM4143.03 460V456H4122.98V460V464H4143.03V460ZM4102.93 460V456H4082.88V460V464H4102.93V460ZM4062.83 460V456H4042.79V460V464H4062.83V460ZM4022.74 460V456H4002.69V460V464H4022.74V460ZM3982.64 460V456H3962.6V460V464H3982.64V460ZM3942.55 460V456H3922.5V460V464H3942.55V460ZM3902.45 460V456H3882.4V460V464H3902.45V460ZM3862.36 460V456H3842.31V460V464H3862.36V460ZM3822.26 460V456H3802.21V460V464H3822.26V460ZM3782.16 460V456H3762.12V460V464H3782.16V460ZM3742.07 460V456H3722.02V460V464H3742.07V460ZM3701.97 460V456H3681.93V460V464H3701.97V460ZM3661.88 460V456H3641.83V460V464H3661.88V460ZM3621.78 460V456H3601.73V460V464H3621.78V460ZM3581.69 460V456H3561.64V460V464H3581.69V460ZM3541.59 460V456H3521.54V460V464H3541.59V460ZM3501.49 460V456H3481.45V460V464H3501.49V460ZM3461.4 460V456H3441.35V460V464H3461.4V460ZM3421.3 460V456H3401.26V460V464H3421.3V460ZM3381.21 460V456H3361.16V460V464H3381.21V460ZM3341.11 460V456H3321.06V460V464H3341.11V460ZM3301.02 460V456H3280.97V460V464H3301.02V460ZM3260.92 460V456H3240.87V460V464H3260.92V460ZM3220.82 460V456H3200.78V460V464H3220.82V460ZM3180.73 460V456H3160.68V460V464H3180.73V460ZM3140.63 460V456H3120.59V460V464H3140.63V460ZM3100.54 460V456H3080.49V460V464H3100.54V460ZM3060.44 460V456H3040.39V460V464H3060.44V460ZM3020.35 460V456H3000.3V460V464H3020.35V460ZM2980.25 460V456H2960.2V460V464H2980.25V460ZM2940.15 460V456H2920.11V460V464H2940.15V460ZM2900.06 460V456H2880.01V460V464H2900.06V460ZM2859.96 460V456H2839.92V460V464H2859.96V460ZM2819.87 460V456H2799.82V460V464H2819.87V460ZM2779.77 460V456H2759.72V460V464H2779.77V460ZM2739.68 460V456H2719.63V460V464H2739.68V460ZM2699.58 460V456H2679.53V460V464H2699.58V460ZM2659.48 460V456H2639.44V460V464H2659.48V460ZM2619.39 460V456H2599.34V460V464H2619.39V460ZM2579.29 460V456H2559.25V460V464H2579.29V460ZM2539.2 460V456H2519.15V460V464H2539.2V460ZM2499.1 460V456H2479.05V460V464H2499.1V460ZM2459.01 460V456H2438.96V460V464H2459.01V460ZM2418.91 460V456H2398.86V460V464H2418.91V460ZM2378.81 460V456H2358.77V460V464H2378.81V460ZM2338.72 460V456H2318.67V460V464H2338.72V460ZM2298.62 460V456H2278.58V460V464H2298.62V460ZM2258.53 460V456H2238.48V460V464H2258.53V460ZM2218.43 460V456H2198.38V460V464H2218.43V460ZM2178.34 460V456H2158.29V460V464H2178.34V460ZM2138.24 460V456H2118.19V460V464H2138.24V460ZM2098.15 460V456H2078.1V460V464H2098.15V460ZM2058.05 460V456H2038V460V464H2058.05V460ZM2017.95 460V456H1997.91V460V464H2017.95V460ZM1977.86 460V456H1957.81V460V464H1977.86V460ZM1937.76 460V456H1917.71V460V464H1937.76V460ZM1897.67 460V456H1877.62V460V464H1897.67V460ZM1857.57 460V456H1837.52V460V464H1857.57V460ZM1817.47 460V456H1797.43V460V464H1817.47V460ZM1777.38 460V456H1757.33V460V464H1777.38V460ZM1737.28 460V456H1717.24V460V464H1737.28V460ZM1697.19 460V456H1677.14V460V464H1697.19V460ZM1657.09 460V456H1637.04V460V464H1657.09V460ZM1617 460V456H1596.95V460V464H1617V460ZM1576.9 460V456H1556.85V460V464H1576.9V460ZM1536.81 460V456H1516.76V460V464H1536.81V460ZM1496.71 460V456H1476.66V460V464H1496.71V460ZM1456.61 460V456H1436.57V460V464H1456.61V460ZM1416.52 460V456H1396.47V460V464H1416.52V460ZM1376.42 460V456H1356.37V460V464H1376.42V460ZM1336.33 460V456H1316.28V460V464H1336.33V460ZM1296.23 460V456H1276.18V460V464H1296.23V460ZM1256.14 460V456H1236.09V460V464H1256.14V460ZM1216.04 460V456H1206V460V464H1216.04V460Z" fill="#9A9A9A"/>
</g>
<g id="GolfStatus Tag">
<g id="Front Tag">
<path id="Vector" d="M6011.04 4051.71C6011.04 4028.43 6029.71 4009.87 6052.98 4009.87C6062.88 4009.87 6071.28 4011.73 6079.12 4016.54C6081.3 4017.92 6081.78 4019.9 6080.49 4022.32L6079.32 4024.26C6078.07 4026.81 6076.09 4027.13 6073.54 4025.76C6064.57 4020.91 6059.04 4020.79 6052.94 4020.79C6036.57 4020.79 6023.44 4034.37 6023.44 4051.54C6023.44 4066.98 6033.83 4082.06 6054.55 4082.06C6061.58 4082.06 6067.56 4080.32 6072.98 4076.89V4060.88H6054.8C6052.13 4060.88 6050.63 4059.26 6050.63 4056.64V4055.26C6050.63 4052.6 6052.13 4051.1 6054.8 4051.1H6080.01C6082.67 4051.1 6084.17 4052.6 6084.17 4055.26V4078.54C6084.17 4080.73 6083.24 4082.59 6080.61 4084.65C6071.4 4091.44 6061.38 4093.05 6054.03 4093.05C6029.02 4093.05 6011.08 4074.38 6011.08 4051.71" fill="white"/>
<path id="Vector_2" d="M6095.68 4051.46C6095.68 4028.55 6114.35 4009.87 6137.62 4009.87C6160.89 4009.87 6179.56 4028.55 6179.56 4051.46C6179.56 4074.38 6160.89 4093.05 6137.62 4093.05C6114.35 4093.05 6095.68 4074.38 6095.68 4051.46ZM6167.11 4051.46C6167.11 4034.08 6153.86 4020.83 6137.62 4020.83C6121.38 4020.83 6108.13 4034.08 6108.13 4051.46C6108.13 4068.84 6121.38 4082.1 6137.62 4082.1C6153.86 4082.1 6167.11 4068.84 6167.11 4051.46Z" fill="white"/>
<path id="Vector_3" d="M6193.33 4087.68V4015.33C6193.33 4012.66 6194.83 4011.17 6197.5 4011.17H6201.41C6204.08 4011.17 6205.58 4012.66 6205.58 4015.33V4081.82H6238.18C6240.85 4081.82 6242.42 4083.31 6242.42 4085.98V4087.72C6242.42 4090.39 6240.81 4091.88 6238.18 4091.88H6197.54C6194.87 4091.88 6193.37 4090.39 6193.37 4087.72" fill="white"/>
<path id="Vector_4" d="M6304.48 4015.28V4017.02C6304.48 4019.69 6302.98 4021.18 6300.32 4021.18H6265.09V4047.33H6295.27C6297.93 4047.33 6299.51 4048.83 6299.51 4051.5V4052.99C6299.51 4055.66 6297.89 4057.24 6295.27 4057.24H6265.09V4087.63C6265.09 4090.3 6263.59 4091.79 6260.93 4091.79H6257.01C6254.34 4091.79 6252.85 4090.3 6252.85 4087.63V4015.28C6252.85 4012.62 6254.34 4011.12 6257.01 4011.12H6300.32C6302.98 4011.12 6304.48 4012.62 6304.48 4015.28Z" fill="white"/>
<path id="Vector_5" d="M6312.52 4076.72C6311.39 4074.18 6312.76 4072.24 6315.27 4071.55L6318.62 4070.74C6321.17 4070.18 6322.54 4071.11 6323.79 4073.49C6326.66 4078.46 6332.76 4082.34 6340.84 4082.34C6351.22 4082.34 6357.53 4077.29 6357.53 4070.38C6357.53 4064.28 6352.48 4060.48 6345.89 4058.05L6333.93 4054.01C6318.74 4048.96 6315.07 4039.82 6315.07 4032.35C6315.07 4018.4 6327.27 4009.87 6341.2 4009.87C6353.89 4009.87 6362.86 4015.98 6366.54 4025.07C6367.59 4027.62 6366.29 4029.56 6363.79 4030.24L6360.92 4031.17C6358.38 4031.86 6356.76 4030.93 6355.63 4028.51C6352.96 4023.21 6348.03 4020.66 6341.37 4020.66C6333.77 4020.66 6327.43 4024.83 6327.43 4031.94C6327.43 4035.3 6328.48 4039.66 6337.69 4043.14L6349.65 4047.62C6363.22 4051.87 6369.45 4060.88 6369.45 4069.53C6369.45 4084.04 6357.93 4093.01 6341.12 4093.01C6326.86 4093.01 6316.72 4086.1 6312.56 4076.64" fill="white"/>
<path id="Vector_6" d="M6441.84 4015.28V4017.02C6441.84 4019.69 6440.35 4021.18 6437.68 4021.18H6415.22V4087.67C6415.22 4090.34 6413.72 4091.84 6411.06 4091.84H6407.26C6404.59 4091.84 6403.1 4090.34 6403.1 4087.67V4021.18H6380.63C6378.09 4021.18 6376.47 4019.69 6376.47 4017.02V4015.28C6376.47 4012.62 6378.09 4011.12 6380.63 4011.12H6437.64C6440.31 4011.12 6441.8 4012.62 6441.8 4015.28" fill="white"/>
<path id="Vector_7" d="M6438.53 4086.94L6466.29 4014.47C6467.1 4012.29 6468.83 4011.12 6471.14 4011.12H6477.8C6480.23 4011.12 6481.84 4012.29 6482.65 4014.47L6510.65 4086.94C6511.7 4089.81 6510.53 4091.79 6507.42 4091.79H6503.74C6501.32 4091.79 6499.7 4090.74 6498.77 4088.44L6493.8 4075.3H6455.34L6450.37 4088.44C6449.44 4090.74 6447.95 4091.79 6445.52 4091.79H6441.72C6438.61 4091.79 6437.36 4089.85 6438.49 4086.94M6490.33 4065.4L6474.45 4023L6458.77 4065.4H6490.33Z" fill="white"/>
<path id="Vector_8" d="M6572.46 4015.28V4017.02C6572.46 4019.69 6570.97 4021.18 6568.3 4021.18H6545.84V4087.67C6545.84 4090.34 6544.34 4091.84 6541.68 4091.84H6537.88C6535.21 4091.84 6533.72 4090.34 6533.72 4087.67V4021.18H6511.25C6508.71 4021.18 6507.09 4019.69 6507.09 4017.02V4015.28C6507.09 4012.62 6508.71 4011.12 6511.25 4011.12H6568.26C6570.93 4011.12 6572.42 4012.62 6572.42 4015.28" fill="white"/>
<path id="Vector_9" d="M6584.42 4061.85V4015.28C6584.42 4012.62 6586.04 4011.12 6588.58 4011.12H6592.5C6595.17 4011.12 6596.66 4012.62 6596.66 4015.28V4061.85C6596.66 4075.43 6605.87 4082.13 6616.46 4082.13C6627.04 4082.13 6636.38 4075.47 6636.38 4061.85V4015.28C6636.38 4012.62 6637.87 4011.12 6640.54 4011.12H6644.34C6647 4011.12 6648.62 4012.62 6648.62 4015.28V4061.85C6648.62 4082.34 6633.87 4093.09 6616.5 4093.09C6599.13 4093.09 6584.5 4082.38 6584.5 4061.85" fill="white"/>
<path id="Vector_10" d="M6661.22 4076.72C6660.09 4074.18 6661.47 4072.24 6663.97 4071.55L6667.32 4070.74C6669.87 4070.18 6671.24 4071.11 6672.49 4073.49C6675.36 4078.46 6681.46 4082.34 6689.54 4082.34C6699.93 4082.34 6706.23 4077.29 6706.23 4070.38C6706.23 4064.28 6701.18 4060.48 6694.59 4058.05L6682.64 4054.01C6667.44 4048.96 6663.77 4039.82 6663.77 4032.35C6663.77 4018.4 6675.97 4009.87 6689.91 4009.87C6702.59 4009.87 6711.56 4015.98 6715.24 4025.07C6716.29 4027.62 6715 4029.56 6712.49 4030.24L6709.62 4031.17C6707.08 4031.86 6705.46 4030.93 6704.33 4028.51C6701.66 4023.21 6696.74 4020.66 6690.07 4020.66C6682.47 4020.66 6676.13 4024.83 6676.13 4031.94C6676.13 4035.3 6677.18 4039.66 6686.39 4043.14L6698.35 4047.62C6711.93 4051.87 6718.15 4060.88 6718.15 4069.53C6718.15 4084.04 6706.63 4093.01 6689.83 4093.01C6675.57 4093.01 6665.42 4086.1 6661.26 4076.64" fill="white"/>
<path id="Vector_11" d="M6432.59 3977.94V3943.42H6440.03C6441.4 3943.42 6442.57 3943.58 6443.62 3943.94C6444.67 3944.31 6445.6 3944.91 6446.45 3945.84C6447.3 3946.73 6447.87 3947.82 6448.19 3949.04C6448.51 3950.25 6448.67 3951.91 6448.67 3953.97C6448.67 3955.5 6448.59 3956.84 6448.39 3957.89C6448.23 3958.94 6447.83 3959.95 6447.26 3960.88C6446.57 3962.01 6445.68 3962.9 6444.55 3963.51C6443.42 3964.15 6441.93 3964.44 6440.11 3964.44H6437.6V3977.94H6432.67H6432.59ZM6437.52 3948.07V3959.79H6439.91C6440.92 3959.79 6441.68 3959.63 6442.25 3959.34C6442.82 3959.06 6443.22 3958.66 6443.46 3958.13C6443.7 3957.65 6443.87 3957.04 6443.91 3956.35C6443.95 3955.63 6443.99 3954.86 6443.99 3953.97C6443.99 3953.16 6443.99 3952.39 6443.95 3951.66C6443.95 3950.94 6443.79 3950.29 6443.5 3949.76C6443.26 3949.2 6442.86 3948.79 6442.33 3948.51C6441.81 3948.23 6441.08 3948.07 6440.11 3948.07H6437.52Z" fill="white"/>
<path id="Vector_12" d="M6462.45 3951.59C6462.45 3950.22 6462.69 3948.96 6463.18 3947.91C6463.66 3946.86 6464.31 3945.97 6465.12 3945.24C6465.88 3944.56 6466.77 3944.03 6467.74 3943.71C6468.71 3943.34 6469.72 3943.18 6470.73 3943.18C6471.74 3943.18 6472.71 3943.34 6473.72 3943.71C6474.69 3944.07 6475.62 3944.6 6476.43 3945.24C6477.2 3945.97 6477.84 3946.86 6478.33 3947.91C6478.81 3948.96 6479.05 3950.22 6479.05 3951.59V3969.82C6479.05 3971.27 6478.81 3972.53 6478.33 3973.54C6477.84 3974.55 6477.2 3975.44 6476.43 3976.12C6475.62 3976.85 6474.73 3977.38 6473.72 3977.74C6472.71 3978.1 6471.74 3978.27 6470.73 3978.27C6469.72 3978.27 6468.75 3978.1 6467.74 3977.74C6466.77 3977.38 6465.88 3976.85 6465.12 3976.12C6464.31 3975.44 6463.66 3974.59 6463.18 3973.54C6462.69 3972.49 6462.45 3971.27 6462.45 3969.82V3951.59ZM6467.38 3969.82C6467.38 3971.03 6467.7 3971.88 6468.39 3972.45C6469.03 3973.01 6469.84 3973.29 6470.73 3973.29C6471.62 3973.29 6472.43 3973.01 6473.07 3972.45C6473.72 3971.88 6474.08 3970.99 6474.08 3969.82V3951.59C6474.08 3950.38 6473.76 3949.53 6473.07 3948.96C6472.43 3948.4 6471.62 3948.11 6470.73 3948.11C6469.84 3948.11 6469.03 3948.4 6468.39 3948.96C6467.74 3949.53 6467.38 3950.42 6467.38 3951.59V3969.82Z" fill="white"/>
<path id="Vector_13" d="M6518.89 3943.42L6513.76 3977.94H6509.11L6505.32 3955.54H6505.23L6501.52 3977.94H6496.87L6491.74 3943.42H6496.99L6499.46 3965.33H6499.54L6503.42 3943.42H6507.21L6511.25 3965.89H6511.33L6513.72 3943.42H6518.97H6518.89Z" fill="white"/>
<path id="Vector_14" d="M6532.38 3977.94V3943.42H6547.13V3948.07H6537.35V3958.21H6545.88V3962.86H6537.35V3973.01H6547.13V3977.94H6532.38Z" fill="white"/>
<path id="Vector_15" d="M6560.75 3977.94V3943.42H6568.71C6574.52 3943.42 6577.43 3946.81 6577.43 3953.56C6577.43 3955.58 6577.11 3957.32 6576.5 3958.74C6575.86 3960.15 6574.77 3961.32 6573.19 3962.17L6578.52 3977.94H6573.27L6568.66 3963.18H6565.72V3977.94H6560.79H6560.75ZM6565.72 3948.07V3958.82H6568.54C6569.43 3958.82 6570.12 3958.7 6570.64 3958.45C6571.17 3958.21 6571.57 3957.85 6571.86 3957.4C6572.1 3956.96 6572.3 3956.39 6572.38 3955.75C6572.46 3955.1 6572.54 3954.33 6572.54 3953.44C6572.54 3952.55 6572.5 3951.79 6572.38 3951.14C6572.3 3950.49 6572.1 3949.89 6571.82 3949.4C6571.21 3948.51 6570.04 3948.03 6568.34 3948.03H6565.76L6565.72 3948.07Z" fill="white"/>
<path id="Vector_16" d="M6591.86 3977.94V3943.42H6606.6V3948.07H6596.82V3958.21H6605.35V3962.86H6596.82V3973.01H6606.6V3977.94H6591.86Z" fill="white"/>
<path id="Vector_17" d="M6620.22 3977.94V3943.42H6627.53C6630.36 3943.42 6632.54 3944.19 6633.99 3945.76C6635.45 3947.3 6636.22 3949.52 6636.22 3952.35V3968.52C6636.22 3971.75 6635.45 3974.14 6633.87 3975.67C6632.3 3977.21 6630.03 3977.98 6627.13 3977.98H6620.26L6620.22 3977.94ZM6625.15 3948.07V3973.29H6627.41C6628.78 3973.29 6629.79 3972.92 6630.36 3972.24C6630.92 3971.55 6631.25 3970.46 6631.25 3968.96V3952.31C6631.25 3950.94 6630.96 3949.89 6630.44 3949.16C6629.87 3948.43 6628.9 3948.03 6627.45 3948.03H6625.19L6625.15 3948.07Z" fill="white"/>
<path id="Vector_18" d="M6670.72 3977.94V3943.42H6677.95C6679.53 3943.42 6680.9 3943.66 6681.99 3944.15C6683.12 3944.63 6684.01 3945.28 6684.74 3946.09C6685.47 3946.89 6685.95 3947.82 6686.27 3948.88C6686.6 3949.93 6686.72 3951.02 6686.72 3952.15V3953.4C6686.72 3954.33 6686.64 3955.14 6686.52 3955.79C6686.35 3956.43 6686.15 3957 6685.87 3957.48C6685.3 3958.37 6684.5 3959.18 6683.36 3959.83C6684.54 3960.39 6685.38 3961.2 6685.95 3962.25C6686.52 3963.3 6686.76 3964.76 6686.76 3966.62V3968.56C6686.76 3971.59 6686.03 3973.93 6684.54 3975.55C6683.08 3977.17 6680.7 3977.98 6677.47 3977.98H6670.72V3977.94ZM6675.65 3948.07V3957.57H6677.87C6679.53 3957.57 6680.62 3957.16 6681.18 3956.31C6681.75 3955.46 6682.03 3954.29 6682.03 3952.72C6682.03 3951.14 6681.71 3950.01 6681.1 3949.24C6680.46 3948.47 6679.32 3948.07 6677.67 3948.07H6675.65ZM6675.65 3961.93V3973.01H6677.79C6678.8 3973.01 6679.57 3972.84 6680.13 3972.56C6680.7 3972.28 6681.14 3971.87 6681.43 3971.35C6681.71 3970.82 6681.91 3970.22 6681.95 3969.49C6682.03 3968.76 6682.03 3967.99 6682.03 3967.14C6682.03 3966.3 6681.99 3965.53 6681.87 3964.88C6681.79 3964.23 6681.59 3963.67 6681.3 3963.22C6680.98 3962.78 6680.54 3962.46 6680.01 3962.21C6679.49 3961.97 6678.72 3961.89 6677.83 3961.89H6675.65V3961.93Z" fill="white"/>
<path id="Vector_19" d="M6706.39 3977.94V3963.35L6699.61 3943.42H6704.86L6708.82 3957.16H6708.9L6712.86 3943.42H6718.11L6711.32 3963.35V3977.94H6706.39Z" fill="white"/>
<g id="Layer_1">
<path id="Vector_20" d="M6933.73 4119H6797.62C6779.76 4119 6765.21 4104.45 6765.21 4086.58V3950.42C6765.21 3932.55 6779.76 3918 6797.62 3918H6933.73C6951.59 3918 6966.13 3932.55 6966.13 3950.42V4086.58C6966.13 4104.45 6951.59 4119 6933.73 4119ZM6797.66 3921.76C6781.86 3921.76 6768.97 3934.61 6768.97 3950.42V4086.58C6768.97 4102.39 6781.82 4115.24 6797.66 4115.24H6933.77C6949.57 4115.24 6962.46 4102.39 6962.46 4086.58V3950.42C6962.46 3934.61 6949.61 3921.76 6933.77 3921.76H6797.66Z" fill="white"/>
<path id="Vector_21" d="M6865.69 3944.76C6833.78 3944.76 6807.84 3970.91 6807.84 4003.08C6807.84 4014.48 6811.11 4025.51 6817.29 4035.01L6817.45 4035.25C6818.14 4036.3 6818.91 4037.4 6819.68 4038.41L6859.07 4089.54C6859.07 4089.54 6859.07 4089.54 6859.07 4089.58L6861.05 4092.28V4089.5C6861.05 4069.77 6855.11 4062.01 6853.01 4058.78C6852.6 4058.13 6852.72 4057.04 6852.68 4056.11C6852.68 4055.62 6853.09 4055.26 6853.53 4055.3C6857.49 4056.35 6861.57 4056.88 6865.73 4056.88C6869.89 4056.88 6874.02 4056.35 6877.97 4055.3C6878.38 4055.3 6878.7 4055.66 6878.7 4056.11C6878.7 4057 6878.82 4058.13 6878.38 4058.78C6876.28 4062.01 6870.34 4069.77 6870.34 4089.5V4092.08L6873.13 4088.44L6911.35 4038.77C6919.31 4028.46 6923.51 4016.1 6923.51 4003.04C6923.51 3970.91 6897.57 3944.72 6865.65 3944.72L6865.69 3944.76ZM6894.14 4040.99C6885.81 4047.14 6876 4050.37 6865.73 4050.37C6850.38 4050.37 6835.8 4042.89 6826.75 4030.4C6811.07 4008.78 6815.8 3978.3 6837.25 3962.5C6845.57 3956.36 6855.39 3953.12 6865.65 3953.12C6881.01 3953.12 6895.59 3960.6 6904.64 3973.09C6920.32 3994.71 6915.59 4025.19 6894.14 4040.99Z" fill="white"/>
</g>
</g>
<g id="Back Tag">
<path id="Vector_22" d="M6257.89 4051.71C6257.89 4028.43 6276.56 4009.87 6299.83 4009.87C6309.73 4009.87 6318.13 4011.73 6325.97 4016.54C6328.15 4017.92 6328.64 4019.9 6327.34 4022.32L6326.17 4024.26C6324.92 4026.81 6322.94 4027.13 6320.39 4025.76C6311.42 4020.91 6305.89 4020.79 6299.79 4020.79C6283.43 4020.79 6270.3 4034.37 6270.3 4051.54C6270.3 4066.98 6280.68 4082.06 6301.41 4082.06C6308.43 4082.06 6314.41 4080.32 6319.83 4076.89V4060.88H6301.65C6298.98 4060.88 6297.49 4059.26 6297.49 4056.64V4055.26C6297.49 4052.6 6298.98 4051.1 6301.65 4051.1H6326.86C6329.52 4051.1 6331.02 4052.6 6331.02 4055.26V4078.54C6331.02 4080.73 6330.09 4082.59 6327.46 4084.65C6318.25 4091.44 6308.23 4093.05 6300.88 4093.05C6275.87 4093.05 6257.93 4074.38 6257.93 4051.71" fill="white"/>
<path id="Vector_23" d="M6342.54 4051.46C6342.54 4028.55 6361.2 4009.87 6384.47 4009.87C6407.74 4009.87 6426.41 4028.55 6426.41 4051.46C6426.41 4074.38 6407.74 4093.05 6384.47 4093.05C6361.2 4093.05 6342.54 4074.38 6342.54 4051.46ZM6413.92 4051.46C6413.92 4034.08 6400.67 4020.83 6384.43 4020.83C6368.19 4020.83 6354.94 4034.08 6354.94 4051.46C6354.94 4068.84 6368.19 4082.1 6384.43 4082.1C6400.67 4082.1 6413.92 4068.84 6413.92 4051.46Z" fill="white"/>
<path id="Vector_24" d="M6440.19 4087.68V4015.33C6440.19 4012.66 6441.68 4011.17 6444.35 4011.17H6448.27C6450.93 4011.17 6452.43 4012.66 6452.43 4015.33V4081.82H6485.03C6487.7 4081.82 6489.27 4083.31 6489.27 4085.98V4087.72C6489.27 4090.39 6487.66 4091.88 6485.03 4091.88H6444.39C6441.72 4091.88 6440.23 4090.39 6440.23 4087.72" fill="white"/>
<path id="Vector_25" d="M6551.33 4015.28V4017.02C6551.33 4019.69 6549.84 4021.18 6547.17 4021.18H6511.94V4047.33H6542.12C6544.79 4047.33 6546.36 4048.83 6546.36 4051.5V4052.99C6546.36 4055.66 6544.74 4057.24 6542.12 4057.24H6511.94V4087.63C6511.94 4090.3 6510.44 4091.79 6507.78 4091.79H6503.86C6501.19 4091.79 6499.7 4090.3 6499.7 4087.63V4015.28C6499.7 4012.62 6501.19 4011.12 6503.86 4011.12H6547.17C6549.84 4011.12 6551.33 4012.62 6551.33 4015.28Z" fill="white"/>
<path id="Vector_26" d="M6559.37 4076.72C6558.24 4074.18 6559.61 4072.24 6562.12 4071.55L6565.47 4070.74C6568.02 4070.18 6569.39 4071.11 6570.64 4073.49C6573.51 4078.46 6579.61 4082.34 6587.69 4082.34C6598.08 4082.34 6604.38 4077.29 6604.38 4070.38C6604.38 4064.28 6599.33 4060.48 6592.74 4058.05L6580.78 4054.01C6565.59 4048.96 6561.92 4039.82 6561.92 4032.35C6561.92 4018.4 6574.12 4009.87 6588.06 4009.87C6600.74 4009.87 6609.71 4015.98 6613.39 4025.07C6614.44 4027.62 6613.15 4029.56 6610.64 4030.24L6607.77 4031.17C6605.23 4031.86 6603.61 4030.93 6602.48 4028.51C6599.81 4023.21 6594.88 4020.66 6588.22 4020.66C6580.62 4020.66 6574.28 4024.83 6574.28 4031.94C6574.28 4035.3 6575.33 4039.66 6584.54 4043.14L6596.5 4047.62C6610.08 4051.87 6616.3 4060.88 6616.3 4069.53C6616.3 4084.04 6604.78 4093.01 6587.98 4093.01C6573.71 4093.01 6563.57 4086.1 6559.41 4076.64" fill="white"/>
<path id="Vector_27" d="M6688.69 4015.28V4017.02C6688.69 4019.69 6687.2 4021.18 6684.53 4021.18H6662.07V4087.67C6662.07 4090.34 6660.57 4091.84 6657.91 4091.84H6654.11C6651.44 4091.84 6649.95 4090.34 6649.95 4087.67V4021.18H6627.49C6624.94 4021.18 6623.32 4019.69 6623.32 4017.02V4015.28C6623.32 4012.62 6624.94 4011.12 6627.49 4011.12H6684.49C6687.16 4011.12 6688.65 4012.62 6688.65 4015.28" fill="white"/>
<path id="Vector_28" d="M6685.34 4086.94L6713.1 4014.47C6713.9 4012.29 6715.64 4011.12 6717.95 4011.12H6724.61C6727.04 4011.12 6728.65 4012.29 6729.46 4014.47L6757.46 4086.94C6758.51 4089.81 6757.34 4091.79 6754.23 4091.79H6750.55C6748.12 4091.79 6746.51 4090.74 6745.58 4088.44L6740.61 4075.3H6702.15L6697.18 4088.44C6696.25 4090.74 6694.75 4091.79 6692.33 4091.79H6688.53C6685.42 4091.79 6684.17 4089.85 6685.3 4086.94M6737.18 4065.4L6721.3 4023L6705.62 4065.4H6737.18Z" fill="white"/>
<path id="Vector_29" d="M6819.27 4015.28V4017.02C6819.27 4019.69 6817.78 4021.18 6815.11 4021.18H6792.65V4087.67C6792.65 4090.34 6791.15 4091.84 6788.49 4091.84H6784.69C6782.02 4091.84 6780.53 4090.34 6780.53 4087.67V4021.18H6758.07C6755.52 4021.18 6753.9 4019.69 6753.9 4017.02V4015.28C6753.9 4012.62 6755.52 4011.12 6758.07 4011.12H6815.07C6817.74 4011.12 6819.23 4012.62 6819.23 4015.28" fill="white"/>
<path id="Vector_30" d="M6831.27 4061.85V4015.28C6831.27 4012.62 6832.89 4011.12 6835.43 4011.12H6839.35C6842.02 4011.12 6843.51 4012.62 6843.51 4015.28V4061.85C6843.51 4075.43 6852.72 4082.13 6863.31 4082.13C6873.9 4082.13 6883.23 4075.47 6883.23 4061.85V4015.28C6883.23 4012.62 6884.72 4011.12 6887.39 4011.12H6891.19C6893.85 4011.12 6895.47 4012.62 6895.47 4015.28V4061.85C6895.47 4082.34 6880.72 4093.09 6863.35 4093.09C6845.98 4093.09 6831.35 4082.38 6831.35 4061.85" fill="white"/>
<path id="Vector_31" d="M6908.07 4076.72C6906.94 4074.18 6908.32 4072.24 6910.82 4071.55L6914.18 4070.74C6916.72 4070.18 6918.09 4071.11 6919.35 4073.49C6922.22 4078.46 6928.32 4082.34 6936.4 4082.34C6946.78 4082.34 6953.08 4077.29 6953.08 4070.38C6953.08 4064.28 6948.03 4060.48 6941.45 4058.05L6929.49 4054.01C6914.3 4048.96 6910.62 4039.82 6910.62 4032.35C6910.62 4018.4 6922.82 4009.87 6936.76 4009.87C6949.45 4009.87 6958.41 4015.98 6962.09 4025.07C6963.14 4027.62 6961.85 4029.56 6959.34 4030.24L6956.48 4031.17C6953.93 4031.86 6952.31 4030.93 6951.18 4028.51C6948.52 4023.21 6943.59 4020.66 6936.92 4020.66C6929.33 4020.66 6922.98 4024.83 6922.98 4031.94C6922.98 4035.3 6924.03 4039.66 6933.24 4043.14L6945.2 4047.62C6958.78 4051.87 6965 4060.88 6965 4069.53C6965 4084.04 6953.49 4093.01 6936.68 4093.01C6922.42 4093.01 6912.28 4086.1 6908.11 4076.64" fill="white"/>
<path id="Vector_32" d="M6258.79 3977.94V3943.42H6266.22C6267.59 3943.42 6268.76 3943.58 6269.81 3943.94C6270.87 3944.31 6271.79 3944.91 6272.64 3945.84C6273.49 3946.73 6274.06 3947.82 6274.38 3949.04C6274.7 3950.25 6274.86 3951.91 6274.86 3953.97C6274.86 3955.5 6274.78 3956.84 6274.58 3957.89C6274.42 3958.94 6274.02 3959.95 6273.45 3960.88C6272.76 3962.01 6271.88 3962.9 6270.74 3963.51C6269.61 3964.15 6268.12 3964.44 6266.3 3964.44H6263.79V3977.94H6258.87H6258.79ZM6263.71 3948.07V3959.79H6266.1C6267.11 3959.79 6267.88 3959.63 6268.44 3959.34C6269.01 3959.06 6269.41 3958.66 6269.65 3958.13C6269.9 3957.65 6270.06 3957.04 6270.1 3956.35C6270.14 3955.63 6270.18 3954.86 6270.18 3953.97C6270.18 3953.16 6270.18 3952.39 6270.14 3951.66C6270.14 3950.94 6269.98 3950.29 6269.69 3949.76C6269.45 3949.2 6269.05 3948.79 6268.52 3948.51C6268 3948.23 6267.27 3948.07 6266.3 3948.07H6263.71Z" fill="white"/>
<path id="Vector_33" d="M6288.64 3951.59C6288.64 3950.22 6288.88 3948.96 6289.37 3947.91C6289.85 3946.86 6290.5 3945.97 6291.31 3945.24C6292.07 3944.56 6292.96 3944.03 6293.93 3943.71C6294.9 3943.34 6295.91 3943.18 6296.92 3943.18C6297.93 3943.18 6298.9 3943.34 6299.91 3943.71C6300.88 3944.07 6301.81 3944.6 6302.62 3945.24C6303.39 3945.97 6304.03 3946.86 6304.52 3947.91C6305 3948.96 6305.25 3950.22 6305.25 3951.59V3969.82C6305.25 3971.27 6305 3972.53 6304.52 3973.54C6304.03 3974.55 6303.39 3975.44 6302.62 3976.12C6301.81 3976.85 6300.92 3977.38 6299.91 3977.74C6298.9 3978.1 6297.93 3978.27 6296.92 3978.27C6295.91 3978.27 6294.94 3978.1 6293.93 3977.74C6292.96 3977.38 6292.07 3976.85 6291.31 3976.12C6290.5 3975.44 6289.85 3974.59 6289.37 3973.54C6288.88 3972.49 6288.64 3971.27 6288.64 3969.82V3951.59ZM6293.57 3969.82C6293.57 3971.03 6293.89 3971.88 6294.58 3972.45C6295.23 3973.01 6296.03 3973.29 6296.92 3973.29C6297.81 3973.29 6298.62 3973.01 6299.27 3972.45C6299.91 3971.88 6300.28 3970.99 6300.28 3969.82V3951.59C6300.28 3950.38 6299.95 3949.53 6299.27 3948.96C6298.62 3948.4 6297.81 3948.11 6296.92 3948.11C6296.03 3948.11 6295.23 3948.4 6294.58 3948.96C6293.93 3949.53 6293.57 3950.42 6293.57 3951.59V3969.82Z" fill="white"/>
<path id="Vector_34" d="M6345.08 3943.42L6339.95 3977.94H6335.3L6331.51 3955.54H6331.43L6327.71 3977.94H6323.06L6317.93 3943.42H6323.18L6325.65 3965.33H6325.73L6329.61 3943.42H6333.41L6337.45 3965.89H6337.53L6339.91 3943.42H6345.16H6345.08Z" fill="white"/>
<path id="Vector_35" d="M6358.62 3977.94V3943.42H6373.36V3948.07H6363.59V3958.21H6372.11V3962.86H6363.59V3973.01H6373.36V3977.94H6358.62Z" fill="white"/>
<path id="Vector_36" d="M6386.98 3977.94V3943.42H6394.94C6400.75 3943.42 6403.66 3946.81 6403.66 3953.56C6403.66 3955.58 6403.34 3957.32 6402.73 3958.74C6402.09 3960.15 6401 3961.32 6399.42 3962.17L6404.75 3977.94H6399.5L6394.9 3963.18H6391.95V3977.94H6387.02H6386.98ZM6391.91 3948.07V3958.82H6394.73C6395.62 3958.82 6396.31 3958.7 6396.83 3958.45C6397.36 3958.21 6397.76 3957.85 6398.05 3957.4C6398.29 3956.96 6398.49 3956.39 6398.57 3955.75C6398.65 3955.1 6398.73 3954.33 6398.73 3953.44C6398.73 3952.55 6398.69 3951.79 6398.57 3951.14C6398.49 3950.49 6398.29 3949.89 6398.01 3949.4C6397.4 3948.51 6396.23 3948.03 6394.53 3948.03H6391.95L6391.91 3948.07Z" fill="white"/>
<path id="Vector_37" d="M6418.05 3977.94V3943.42H6432.79V3948.07H6423.02V3958.21H6431.54V3962.86H6423.02V3973.01H6432.79V3977.94H6418.05Z" fill="white"/>
<path id="Vector_38" d="M6446.41 3977.94V3943.42H6453.72C6456.55 3943.42 6458.73 3944.19 6460.18 3945.76C6461.64 3947.3 6462.41 3949.52 6462.41 3952.35V3968.52C6462.41 3971.75 6461.64 3974.14 6460.06 3975.67C6458.49 3977.21 6456.22 3977.98 6453.31 3977.98H6446.45L6446.41 3977.94ZM6451.34 3948.07V3973.29H6453.6C6454.97 3973.29 6455.98 3972.92 6456.55 3972.24C6457.11 3971.55 6457.44 3970.46 6457.44 3968.96V3952.31C6457.44 3950.94 6457.15 3949.89 6456.63 3949.16C6456.06 3948.43 6455.09 3948.03 6453.64 3948.03H6451.38L6451.34 3948.07Z" fill="white"/>
<path id="Vector_39" d="M6496.91 3977.94V3943.42H6504.14C6505.72 3943.42 6507.09 3943.66 6508.18 3944.15C6509.31 3944.63 6510.2 3945.28 6510.93 3946.09C6511.65 3946.89 6512.14 3947.82 6512.46 3948.88C6512.79 3949.93 6512.91 3951.02 6512.91 3952.15V3953.4C6512.91 3954.33 6512.83 3955.14 6512.71 3955.79C6512.54 3956.43 6512.34 3957 6512.06 3957.48C6511.49 3958.37 6510.69 3959.18 6509.55 3959.83C6510.73 3960.39 6511.57 3961.2 6512.14 3962.25C6512.71 3963.3 6512.95 3964.76 6512.95 3966.62V3968.56C6512.95 3971.59 6512.22 3973.93 6510.73 3975.55C6509.27 3977.17 6506.89 3977.98 6503.66 3977.98H6496.91V3977.94ZM6501.88 3948.07V3957.57H6504.1C6505.76 3957.57 6506.85 3957.16 6507.41 3956.31C6507.98 3955.46 6508.26 3954.29 6508.26 3952.72C6508.26 3951.14 6507.94 3950.01 6507.33 3949.24C6506.69 3948.47 6505.55 3948.07 6503.9 3948.07H6501.88ZM6501.88 3961.93V3973.01H6504.02C6505.03 3973.01 6505.8 3972.84 6506.36 3972.56C6506.93 3972.28 6507.37 3971.87 6507.65 3971.35C6507.94 3970.82 6508.14 3970.22 6508.18 3969.49C6508.26 3968.76 6508.26 3967.99 6508.26 3967.14C6508.26 3966.3 6508.22 3965.53 6508.1 3964.88C6508.02 3964.23 6507.82 3963.67 6507.53 3963.22C6507.21 3962.78 6506.77 3962.46 6506.24 3962.21C6505.72 3961.97 6504.95 3961.89 6504.06 3961.89H6501.88V3961.93Z" fill="white"/>
<path id="Vector_40" d="M6532.58 3977.94V3963.35L6525.8 3943.42H6531.05L6535.01 3957.16H6535.09L6539.05 3943.42H6544.3L6537.51 3963.35V3977.94H6532.58Z" fill="white"/>
<g id="Layer_1-2">
<path id="Vector_41" d="M6179.56 4119H6043.44C6025.59 4119 6011.04 4104.45 6011.04 4086.58V3950.42C6011.04 3932.55 6025.59 3918 6043.44 3918H6179.56C6197.41 3918 6211.96 3932.55 6211.96 3950.42V4086.58C6211.96 4104.45 6197.41 4119 6179.56 4119ZM6043.44 3921.76C6027.65 3921.76 6014.8 3934.61 6014.8 3950.42V4086.58C6014.8 4102.39 6027.65 4115.24 6043.48 4115.24H6179.6C6195.39 4115.24 6208.28 4102.39 6208.28 4086.58V3950.42C6208.28 3934.61 6195.43 3921.76 6179.6 3921.76H6043.44Z" fill="white"/>
<path id="Vector_42" d="M6111.52 3944.76C6079.6 3944.76 6053.66 3970.91 6053.66 4003.08C6053.66 4014.48 6056.94 4025.51 6063.12 4035.01L6063.28 4035.25C6063.97 4036.3 6064.73 4037.4 6065.5 4038.41L6104.89 4089.54C6104.89 4089.54 6104.89 4089.54 6104.89 4089.58L6106.87 4092.28V4089.5C6106.87 4069.77 6100.93 4062.01 6098.83 4058.78C6098.43 4058.13 6098.55 4057.04 6098.51 4056.11C6098.51 4055.62 6098.91 4055.26 6099.36 4055.3C6103.32 4056.35 6107.4 4056.88 6111.56 4056.88C6115.72 4056.88 6119.84 4056.35 6123.8 4055.3C6124.21 4055.3 6124.53 4055.66 6124.53 4056.11C6124.53 4057 6124.65 4058.13 6124.21 4058.78C6122.1 4062.01 6116.17 4069.77 6116.17 4089.5V4092.08L6118.95 4088.44L6157.17 4038.77C6165.13 4028.46 6169.33 4016.1 6169.33 4003.04C6169.33 3970.91 6143.4 3944.72 6111.48 3944.72L6111.52 3944.76ZM6139.96 4040.99C6131.64 4047.14 6121.82 4050.37 6111.56 4050.37C6096.21 4050.37 6081.62 4042.89 6072.57 4030.4C6056.9 4008.78 6061.62 3978.3 6083.08 3962.5C6091.4 3956.36 6101.22 3953.12 6111.48 3953.12C6126.83 3953.12 6141.42 3960.6 6150.47 3973.09C6166.14 3994.71 6161.41 4025.19 6139.96 4040.99Z" fill="white"/>
</g>
</g>
</g>
</g>
<g id="#logo-placement">
<g id="Area">
<rect width="5501" height="3604" transform="translate(1455 532)" fill="#2063D6"/>
</g>
</g>
</g>
</svg>
