<svg width="7519" height="4670" viewBox="0 0 7519 4670" fill="none" xmlns="http://www.w3.org/2000/svg">
<g id="Edinburgh">
<rect id="zone-primary" y="1.00159" width="7519" height="4669" fill="#D9D9D9"/>
<g id="zone-secondary">
<rect id="zone-secondary_2" y="4210" width="7507" height="460" fill="#FC0101"/>
<rect id="zone-secondary_3" x="5280" y="4662" width="4662" height="2227" transform="rotate(-90 5280 4662)" fill="#FC0101"/>
<rect id="zone-secondary_4" y="1.00159" width="7507" height="460" fill="#FC0101"/>
</g>
<g id="Bleed">
<g id="Bleed_2">
<rect id="Bleed_3" x="0.5" y="1.50159" width="7518" height="309" fill="#9A9A9A" stroke="#9A9A9A"/>
<rect id="Bleed_4" x="0.5" y="4669.5" width="4668" height="1205" transform="rotate(-90 0.5 4669.5)" fill="#9A9A9A" stroke="#9A9A9A"/>
<rect id="Bleed_5" x="7209.5" y="4669.5" width="4668" height="309" transform="rotate(-90 7209.5 4669.5)" fill="#9A9A9A" stroke="#9A9A9A"/>
<rect id="Bleed_6" x="0.5" y="4360.5" width="7518" height="309" fill="#9A9A9A" stroke="#9A9A9A"/>
<path id="Bleed_7" d="M7060 461.002H7064V457.002H7060V461.002ZM7060 4210V4214H7064V4210H7060ZM1206 4210V4214H1216.02V4210V4206H1206V4210ZM1236.07 4210V4214H1256.12V4210V4206H1236.07V4210ZM1276.17 4210V4214H1296.22V4210V4206H1276.17V4210ZM1316.26 4210V4214H1336.31V4210V4206H1316.26V4210ZM1356.36 4210V4214H1376.41V4210V4206H1356.36V4210ZM1396.46 4210V4214H1416.5V4210V4206H1396.46V4210ZM1436.55 4210V4214H1456.6V4210V4206H1436.55V4210ZM1476.65 4210V4214H1496.7V4210V4206H1476.65V4210ZM1516.74 4210V4214H1536.79V4210V4206H1516.74V4210ZM1556.84 4210V4214H1576.89V4210V4206H1556.84V4210ZM1596.93 4210V4214H1616.98V4210V4206H1596.93V4210ZM1637.03 4210V4214H1657.08V4210V4206H1637.03V4210ZM1677.13 4210V4214H1697.17V4210V4206H1677.13V4210ZM1717.22 4210V4214H1737.27V4210V4206H1717.22V4210ZM1757.32 4210V4214H1777.37V4210V4206H1757.32V4210ZM1797.41 4210V4214H1817.46V4210V4206H1797.41V4210ZM1837.51 4210V4214H1857.56V4210V4206H1837.51V4210ZM1877.61 4210V4214H1897.65V4210V4206H1877.61V4210ZM1917.7 4210V4214H1937.75V4210V4206H1917.7V4210ZM1957.8 4210V4214H1977.85V4210V4206H1957.8V4210ZM1997.89 4210V4214H2017.94V4210V4206H1997.89V4210ZM2037.99 4210V4214H2058.04V4210V4206H2037.99V4210ZM2078.09 4210V4214H2098.13V4210V4206H2078.09V4210ZM2118.18 4210V4214H2138.23V4210V4206H2118.18V4210ZM2158.28 4210V4214H2178.33V4210V4206H2158.28V4210ZM2198.37 4210V4214H2218.42V4210V4206H2198.37V4210ZM2238.47 4210V4214H2258.52V4210V4206H2238.47V4210ZM2278.57 4210V4214H2298.61V4210V4206H2278.57V4210ZM2318.66 4210V4214H2338.71V4210V4206H2318.66V4210ZM2358.76 4210V4214H2378.81V4210V4206H2358.76V4210ZM2398.85 4210V4214H2418.9V4210V4206H2398.85V4210ZM2438.95 4210V4214H2459V4210V4206H2438.95V4210ZM2479.05 4210V4214H2499.09V4210V4206H2479.05V4210ZM2519.14 4210V4214H2539.19V4210V4206H2519.14V4210ZM2559.24 4210V4214H2579.29V4210V4206H2559.24V4210ZM2599.33 4210V4214H2619.38V4210V4206H2599.33V4210ZM2639.43 4210V4214H2659.48V4210V4206H2639.43V4210ZM2679.53 4210V4214H2699.57V4210V4206H2679.53V4210ZM2719.62 4210V4214H2739.67V4210V4206H2719.62V4210ZM2759.72 4210V4214H2779.77V4210V4206H2759.72V4210ZM2799.81 4210V4214H2819.86V4210V4206H2799.81V4210ZM2839.91 4210V4214H2859.96V4210V4206H2839.91V4210ZM2880.01 4210V4214H2900.05V4210V4206H2880.01V4210ZM2920.1 4210V4214H2940.15V4210V4206H2920.1V4210ZM2960.2 4210V4214H2980.24V4210V4206H2960.2V4210ZM3000.29 4210V4214H3020.34V4210V4206H3000.29V4210ZM3040.39 4210V4214H3060.44V4210V4206H3040.39V4210ZM3080.48 4210V4214H3100.53V4210V4206H3080.48V4210ZM3120.58 4210V4214H3140.63V4210V4206H3120.58V4210ZM3160.68 4210V4214H3180.72V4210V4206H3160.68V4210ZM3200.77 4210V4214H3220.82V4210V4206H3200.77V4210ZM3240.87 4210V4214H3260.92V4210V4206H3240.87V4210ZM3280.96 4210V4214H3301.01V4210V4206H3280.96V4210ZM3321.06 4210V4214H3341.11V4210V4206H3321.06V4210ZM3361.16 4210V4214H3381.2V4210V4206H3361.16V4210ZM3401.25 4210V4214H3421.3V4210V4206H3401.25V4210ZM3441.35 4210V4214H3461.4V4210V4206H3441.35V4210ZM3481.44 4210V4214H3501.49V4210V4206H3481.44V4210ZM3521.54 4210V4214H3541.59V4210V4206H3521.54V4210ZM3561.63 4210V4214H3581.68V4210V4206H3561.63V4210ZM3601.73 4210V4214H3621.78V4210V4206H3601.73V4210ZM3641.83 4210V4214H3661.87V4210V4206H3641.83V4210ZM3681.92 4210V4214H3701.97V4210V4206H3681.92V4210ZM3722.02 4210V4214H3742.06V4210V4206H3722.02V4210ZM3762.11 4210V4214H3782.16V4210V4206H3762.11V4210ZM3802.21 4210V4214H3822.26V4210V4206H3802.21V4210ZM3842.3 4210V4214H3862.35V4210V4206H3842.3V4210ZM3882.4 4210V4214H3902.45V4210V4206H3882.4V4210ZM3922.5 4210V4214H3942.54V4210V4206H3922.5V4210ZM3962.59 4210V4214H3982.64V4210V4206H3962.59V4210ZM4002.69 4210V4214H4022.73V4210V4206H4002.69V4210ZM4042.78 4210V4214H4062.83V4210V4206H4042.78V4210ZM4082.88 4210V4214H4102.93V4210V4206H4082.88V4210ZM4122.97 4210V4214H4143.02V4210V4206H4122.97V4210ZM4163.07 4210V4214H4183.12V4210V4206H4163.07V4210ZM4203.17 4210V4214H4223.21V4210V4206H4203.17V4210ZM4243.26 4210V4214H4263.31V4210V4206H4243.26V4210ZM4283.36 4210V4214H4303.4V4210V4206H4283.36V4210ZM4323.45 4210V4214H4343.5V4210V4206H4323.45V4210ZM4363.55 4210V4214H4383.6V4210V4206H4363.55V4210ZM4403.64 4210V4214H4423.69V4210V4206H4403.64V4210ZM4443.74 4210V4214H4463.79V4210V4206H4443.74V4210ZM4483.84 4210V4214H4503.88V4210V4206H4483.84V4210ZM4523.93 4210V4214H4543.98V4210V4206H4523.93V4210ZM4564.03 4210V4214H4584.07V4210V4206H4564.03V4210ZM4604.12 4210V4214H4624.17V4210V4206H4604.12V4210ZM4644.22 4210V4214H4664.27V4210V4206H4644.22V4210ZM4684.31 4210V4214H4704.36V4210V4206H4684.31V4210ZM4724.41 4210V4214H4744.46V4210V4206H4724.41V4210ZM4764.51 4210V4214H4784.55V4210V4206H4764.51V4210ZM4804.6 4210V4214H4824.65V4210V4206H4804.6V4210ZM4844.7 4210V4214H4864.74V4210V4206H4844.7V4210ZM4884.79 4210V4214H4904.84V4210V4206H4884.79V4210ZM4924.89 4210V4214H4944.94V4210V4206H4924.89V4210ZM4964.98 4210V4214H4985.03V4210V4206H4964.98V4210ZM5005.08 4210V4214H5025.13V4210V4206H5005.08V4210ZM5045.18 4210V4214H5065.22V4210V4206H5045.18V4210ZM5085.27 4210V4214H5105.32V4210V4206H5085.27V4210ZM5125.37 4210V4214H5145.41V4210V4206H5125.37V4210ZM5165.46 4210V4214H5185.51V4210V4206H5165.46V4210ZM5205.56 4210V4214H5225.61V4210V4206H5205.56V4210ZM5245.65 4210V4214H5265.7V4210V4206H5245.65V4210ZM5285.75 4210V4214H5305.8V4210V4206H5285.75V4210ZM5325.85 4210V4214H5345.89V4210V4206H5325.85V4210ZM5365.94 4210V4214H5385.99V4210V4206H5365.94V4210ZM5406.04 4210V4214H5426.08V4210V4206H5406.04V4210ZM5446.13 4210V4214H5466.18V4210V4206H5446.13V4210ZM5486.23 4210V4214H5506.28V4210V4206H5486.23V4210ZM5526.32 4210V4214H5546.37V4210V4206H5526.32V4210ZM5566.42 4210V4214H5586.47V4210V4206H5566.42V4210ZM5606.52 4210V4214H5626.56V4210V4206H5606.52V4210ZM5646.61 4210V4214H5666.66V4210V4206H5646.61V4210ZM5686.71 4210V4214H5706.75V4210V4206H5686.71V4210ZM5726.8 4210V4214H5746.85V4210V4206H5726.8V4210ZM5766.9 4210V4214H5786.95V4210V4206H5766.9V4210ZM5806.99 4210V4214H5827.04V4210V4206H5806.99V4210ZM5847.09 4210V4214H5867.14V4210V4206H5847.09V4210ZM5887.19 4210V4214H5907.23V4210V4206H5887.19V4210ZM5927.28 4210V4214H5947.33V4210V4206H5927.28V4210ZM5967.38 4210V4214H5987.42V4210V4206H5967.38V4210ZM6007.47 4210V4214H6027.52V4210V4206H6007.47V4210ZM6047.57 4210V4214H6067.62V4210V4206H6047.57V4210ZM6087.66 4210V4214H6107.71V4210V4206H6087.66V4210ZM6127.76 4210V4214H6147.81V4210V4206H6127.76V4210ZM6167.85 4210V4214H6187.9V4210V4206H6167.85V4210ZM6207.95 4210V4214H6228V4210V4206H6207.95V4210ZM6248.05 4210V4214H6268.09V4210V4206H6248.05V4210ZM6288.14 4210V4214H6308.19V4210V4206H6288.14V4210ZM6328.24 4210V4214H6348.29V4210V4206H6328.24V4210ZM6368.33 4210V4214H6388.38V4210V4206H6368.33V4210ZM6408.43 4210V4214H6428.48V4210V4206H6408.43V4210ZM6448.52 4210V4214H6468.57V4210V4206H6448.52V4210ZM6488.62 4210V4214H6508.67V4210V4206H6488.62V4210ZM6528.72 4210V4214H6548.76V4210V4206H6528.72V4210ZM6568.81 4210V4214H6588.86V4210V4206H6568.81V4210ZM6608.91 4210V4214H6628.96V4210V4206H6608.91V4210ZM6649 4210V4214H6669.05V4210V4206H6649V4210ZM6689.1 4210V4214H6709.15V4210V4206H6689.1V4210ZM6729.19 4210V4214H6749.24V4210V4206H6729.19V4210ZM6769.29 4210V4214H6789.34V4210V4206H6769.29V4210ZM6809.39 4210V4214H6829.43V4210V4206H6809.39V4210ZM6849.48 4210V4214H6869.53V4210V4206H6849.48V4210ZM6889.58 4210V4214H6909.63V4210V4206H6889.58V4210ZM6929.67 4210V4214H6949.72V4210V4206H6929.67V4210ZM6969.77 4210V4214H6989.82V4210V4206H6969.77V4210ZM7009.86 4210V4214H7029.91V4210V4206H7009.86V4210ZM7049.96 4210V4214H7060V4210V4206H7049.96V4210ZM7060 4210H7064V4200.03H7060H7056V4210H7060ZM7060 4180.09H7064V4160.15H7060H7056V4180.09H7060ZM7060 4140.21H7064V4120.26H7060H7056V4140.21H7060ZM7060 4100.32H7064V4080.38H7060H7056V4100.32H7060ZM7060 4060.44H7064V4040.5H7060H7056V4060.44H7060ZM7060 4020.56H7064V4000.62H7060H7056V4020.56H7060ZM7060 3980.67H7064V3960.73H7060H7056V3980.67H7060ZM7060 3940.79H7064V3920.85H7060H7056V3940.79H7060ZM7060 3900.91H7064V3880.97H7060H7056V3900.91H7060ZM7060 3861.03H7064V3841.08H7060H7056V3861.03H7060ZM7060 3821.14H7064V3801.2H7060H7056V3821.14H7060ZM7060 3781.26H7064V3761.32H7060H7056V3781.26H7060ZM7060 3741.38H7064V3721.43H7060H7056V3741.38H7060ZM7060 3701.49H7064V3681.55H7060H7056V3701.49H7060ZM7060 3661.61H7064V3641.67H7060H7056V3661.61H7060ZM7060 3621.73H7064V3601.79H7060H7056V3621.73H7060ZM7060 3581.84H7064V3561.9H7060H7056V3581.84H7060ZM7060 3541.96H7064V3522.02H7060H7056V3541.96H7060ZM7060 3502.08H7064V3482.14H7060H7056V3502.08H7060ZM7060 3462.2H7064V3442.25H7060H7056V3462.2H7060ZM7060 3422.31H7064V3402.37H7060H7056V3422.31H7060ZM7060 3382.43H7064V3362.49H7060H7056V3382.43H7060ZM7060 3342.55H7064V3322.61H7060H7056V3342.55H7060ZM7060 3302.66H7064V3282.72H7060H7056V3302.66H7060ZM7060 3262.78H7064V3242.84H7060H7056V3262.78H7060ZM7060 3222.9H7064V3202.96H7060H7056V3222.9H7060ZM7060 3183.02H7064V3163.07H7060H7056V3183.02H7060ZM7060 3143.13H7064V3123.19H7060H7056V3143.13H7060ZM7060 3103.25H7064V3083.31H7060H7056V3103.25H7060ZM7060 3063.37H7064V3043.42H7060H7056V3063.37H7060ZM7060 3023.48H7064V3003.54H7060H7056V3023.48H7060ZM7060 2983.6H7064V2963.66H7060H7056V2983.6H7060ZM7060 2943.72H7064V2923.78H7060H7056V2943.72H7060ZM7060 2903.83H7064V2883.89H7060H7056V2903.83H7060ZM7060 2863.95H7064V2844.01H7060H7056V2863.95H7060ZM7060 2824.07H7064V2804.13H7060H7056V2824.07H7060ZM7060 2784.18H7064V2764.24H7060H7056V2784.18H7060ZM7060 2744.3H7064V2724.36H7060H7056V2744.3H7060ZM7060 2704.42H7064V2684.48H7060H7056V2704.42H7060ZM7060 2664.54H7064V2644.59H7060H7056V2664.54H7060ZM7060 2624.65H7064V2604.71H7060H7056V2624.65H7060ZM7060 2584.77H7064V2564.83H7060H7056V2584.77H7060ZM7060 2544.89H7064V2524.94H7060H7056V2544.89H7060ZM7060 2505H7064V2485.06H7060H7056V2505H7060ZM7060 2465.12H7064V2445.18H7060H7056V2465.12H7060ZM7060 2425.24H7064V2405.3H7060H7056V2425.24H7060ZM7060 2385.35H7064V2365.41H7060H7056V2385.35H7060ZM7060 2345.47H7064V2325.53H7060H7056V2345.47H7060ZM7060 2305.59H7064V2285.65H7060H7056V2305.59H7060ZM7060 2265.7H7064V2245.76H7060H7056V2265.7H7060ZM7060 2225.82H7064V2205.88H7060H7056V2225.82H7060ZM7060 2185.94H7064V2166H7060H7056V2185.94H7060ZM7060 2146.06H7064V2126.11H7060H7056V2146.06H7060ZM7060 2106.17H7064V2086.23H7060H7056V2106.17H7060ZM7060 2066.29H7064V2046.35H7060H7056V2066.29H7060ZM7060 2026.41H7064V2006.47H7060H7056V2026.41H7060ZM7060 1986.52H7064V1966.58H7060H7056V1986.52H7060ZM7060 1946.64H7064V1926.7H7060H7056V1946.64H7060ZM7060 1906.76H7064V1886.82H7060H7056V1906.76H7060ZM7060 1866.88H7064V1846.93H7060H7056V1866.88H7060ZM7060 1826.99H7064V1807.05H7060H7056V1826.99H7060ZM7060 1787.11H7064V1767.17H7060H7056V1787.11H7060ZM7060 1747.23H7064V1727.29H7060H7056V1747.23H7060ZM7060 1707.34H7064V1687.4H7060H7056V1707.34H7060ZM7060 1667.46H7064V1647.52H7060H7056V1667.46H7060ZM7060 1627.58H7064V1607.64H7060H7056V1627.58H7060ZM7060 1587.7H7064V1567.76H7060H7056V1587.7H7060ZM7060 1547.81H7064V1527.87H7060H7056V1547.81H7060ZM7060 1507.93H7064V1487.99H7060H7056V1507.93H7060ZM7060 1468.05H7064V1448.11H7060H7056V1468.05H7060ZM7060 1428.17H7064V1408.22H7060H7056V1428.17H7060ZM7060 1388.28H7064V1368.34H7060H7056V1388.28H7060ZM7060 1348.4H7064V1328.46H7060H7056V1348.4H7060ZM7060 1308.52H7064V1288.58H7060H7056V1308.52H7060ZM7060 1268.63H7064V1248.69H7060H7056V1268.63H7060ZM7060 1228.75H7064V1208.81H7060H7056V1228.75H7060ZM7060 1188.87H7064V1168.93H7060H7056V1188.87H7060ZM7060 1148.99H7064V1129.04H7060H7056V1148.99H7060ZM7060 1109.1H7064V1089.16H7060H7056V1109.1H7060ZM7060 1069.22H7064V1049.28H7060H7056V1069.22H7060ZM7060 1029.34H7064V1009.4H7060H7056V1029.34H7060ZM7060 989.454H7064V969.513H7060H7056V989.454H7060ZM7060 949.571H7064V929.63H7060H7056V949.571H7060ZM7060 909.689H7064V889.747H7060H7056V909.689H7060ZM7060 869.806H7064V849.864H7060H7056V869.806H7060ZM7060 829.923H7064V809.981H7060H7056V829.923H7060ZM7060 790.04H7064V770.099H7060H7056V790.04H7060ZM7060 750.157H7064V730.216H7060H7056V750.157H7060ZM7060 710.275H7064V690.333H7060H7056V710.275H7060ZM7060 670.392H7064V650.45H7060H7056V670.392H7060ZM7060 630.509H7064V610.567H7060H7056V630.509H7060ZM7060 590.626H7064V570.685H7060H7056V590.626H7060ZM7060 550.743H7064V530.802H7060H7056V550.743H7060ZM7060 510.86H7064V490.919H7060H7056V510.86H7060ZM7060 470.978H7064V461.002H7060H7056V470.978H7060ZM7060 461.002V457.002H7049.98V461.002V465.002H7060V461.002ZM7029.93 461.002V457.002H7009.88V461.002V465.002H7029.93V461.002ZM6989.83 461.002V457.002H6969.78V461.002V465.002H6989.83V461.002ZM6949.74 461.002V457.002H6929.69V461.002V465.002H6949.74V461.002ZM6909.64 461.002V457.002H6889.59V461.002V465.002H6909.64V461.002ZM6869.54 461.002V457.002H6849.5V461.002V465.002H6869.54V461.002ZM6829.45 461.002V457.002H6809.4V461.002V465.002H6829.45V461.002ZM6789.35 461.002V457.002H6769.3V461.002V465.002H6789.35V461.002ZM6749.26 461.002V457.002H6729.21V461.002V465.002H6749.26V461.002ZM6709.16 461.002V457.002H6689.11V461.002V465.002H6709.16V461.002ZM6669.06 461.002V457.002H6649.02V461.002V465.002H6669.06V461.002ZM6628.97 461.002V457.002H6608.92V461.002V465.002H6628.97V461.002ZM6588.87 461.002V457.002H6568.83V461.002V465.002H6588.87V461.002ZM6548.78 461.002V457.002H6528.73V461.002V465.002H6548.78V461.002ZM6508.68 461.002V457.002H6488.63V461.002V465.002H6508.68V461.002ZM6468.59 461.002V457.002H6448.54V461.002V465.002H6468.59V461.002ZM6428.49 461.002V457.002H6408.44V461.002V465.002H6428.49V461.002ZM6388.39 461.002V457.002H6368.35V461.002V465.002H6388.39V461.002ZM6348.3 461.002V457.002H6328.25V461.002V465.002H6348.3V461.002ZM6308.2 461.002V457.002H6288.15V461.002V465.002H6308.2V461.002ZM6268.11 461.002V457.002H6248.06V461.002V465.002H6268.11V461.002ZM6228.01 461.002V457.002H6207.96V461.002V465.002H6228.01V461.002ZM6187.91 461.002V457.002H6167.87V461.002V465.002H6187.91V461.002ZM6147.82 461.002V457.002H6127.77V461.002V465.002H6147.82V461.002ZM6107.72 461.002V457.002H6087.67V461.002V465.002H6107.72V461.002ZM6067.63 461.002V457.002H6047.58V461.002V465.002H6067.63V461.002ZM6027.53 461.002V457.002H6007.48V461.002V465.002H6027.53V461.002ZM5987.43 461.002V457.002H5967.39V461.002V465.002H5987.43V461.002ZM5947.34 461.002V457.002H5927.29V461.002V465.002H5947.34V461.002ZM5907.24 461.002V457.002H5887.19V461.002V465.002H5907.24V461.002ZM5867.15 461.002V457.002H5847.1V461.002V465.002H5867.15V461.002ZM5827.05 461.002V457.002H5807V461.002V465.002H5827.05V461.002ZM5786.95 461.002V457.002H5766.91V461.002V465.002H5786.95V461.002ZM5746.86 461.002V457.002H5726.81V461.002V465.002H5746.86V461.002ZM5706.76 461.002V457.002H5686.71V461.002V465.002H5706.76V461.002ZM5666.67 461.002V457.002H5646.62V461.002V465.002H5666.67V461.002ZM5626.57 461.002V457.002H5606.52V461.002V465.002H5626.57V461.002ZM5586.47 461.002V457.002H5566.43V461.002V465.002H5586.47V461.002ZM5546.38 461.002V457.002H5526.33V461.002V465.002H5546.38V461.002ZM5506.28 461.002V457.002H5486.23V461.002V465.002H5506.28V461.002ZM5466.19 461.002V457.002H5446.14V461.002V465.002H5466.19V461.002ZM5426.09 461.002V457.002H5406.04V461.002V465.002H5426.09V461.002ZM5386 461.002V457.002H5365.95V461.002V465.002H5386V461.002ZM5345.9 461.002V457.002H5325.85V461.002V465.002H5345.9V461.002ZM5305.8 461.002V457.002H5285.76V461.002V465.002H5305.8V461.002ZM5265.71 461.002V457.002H5245.66V461.002V465.002H5265.71V461.002ZM5225.61 461.002V457.002H5205.56V461.002V465.002H5225.61V461.002ZM5185.52 461.002V457.002H5165.47V461.002V465.002H5185.52V461.002ZM5145.42 461.002V457.002H5125.37V461.002V465.002H5145.42V461.002ZM5105.32 461.002V457.002H5085.28V461.002V465.002H5105.32V461.002ZM5065.23 461.002V457.002H5045.18V461.002V465.002H5065.23V461.002ZM5025.13 461.002V457.002H5005.08V461.002V465.002H5025.13V461.002ZM4985.04 461.002V457.002H4964.99V461.002V465.002H4985.04V461.002ZM4944.94 461.002V457.002H4924.89V461.002V465.002H4944.94V461.002ZM4904.84 461.002V457.002H4884.8V461.002V465.002H4904.84V461.002ZM4864.75 461.002V457.002H4844.7V461.002V465.002H4864.75V461.002ZM4824.65 461.002V457.002H4804.6V461.002V465.002H4824.65V461.002ZM4784.56 461.002V457.002H4764.51V461.002V465.002H4784.56V461.002ZM4744.46 461.002V457.002H4724.41V461.002V465.002H4744.46V461.002ZM4704.37 461.002V457.002H4684.32V461.002V465.002H4704.37V461.002ZM4664.27 461.002V457.002H4644.22V461.002V465.002H4664.27V461.002ZM4624.17 461.002V457.002H4604.13V461.002V465.002H4624.17V461.002ZM4584.08 461.002V457.002H4564.03V461.002V465.002H4584.08V461.002ZM4543.98 461.002V457.002H4523.94V461.002V465.002H4543.98V461.002ZM4503.89 461.002V457.002H4483.84V461.002V465.002H4503.89V461.002ZM4463.79 461.002V457.002H4443.74V461.002V465.002H4463.79V461.002ZM4423.7 461.002V457.002H4403.65V461.002V465.002H4423.7V461.002ZM4383.6 461.002V457.002H4363.55V461.002V465.002H4383.6V461.002ZM4343.5 461.002V457.002H4323.46V461.002V465.002H4343.5V461.002ZM4303.41 461.002V457.002H4283.36V461.002V465.002H4303.41V461.002ZM4263.31 461.002V457.002H4243.27V461.002V465.002H4263.31V461.002ZM4223.22 461.002V457.002H4203.17V461.002V465.002H4223.22V461.002ZM4183.12 461.002V457.002H4163.07V461.002V465.002H4183.12V461.002ZM4143.03 461.002V457.002H4122.98V461.002V465.002H4143.03V461.002ZM4102.93 461.002V457.002H4082.88V461.002V465.002H4102.93V461.002ZM4062.83 461.002V457.002H4042.79V461.002V465.002H4062.83V461.002ZM4022.74 461.002V457.002H4002.69V461.002V465.002H4022.74V461.002ZM3982.64 461.002V457.002H3962.6V461.002V465.002H3982.64V461.002ZM3942.55 461.002V457.002H3922.5V461.002V465.002H3942.55V461.002ZM3902.45 461.002V457.002H3882.4V461.002V465.002H3902.45V461.002ZM3862.36 461.002V457.002H3842.31V461.002V465.002H3862.36V461.002ZM3822.26 461.002V457.002H3802.21V461.002V465.002H3822.26V461.002ZM3782.16 461.002V457.002H3762.12V461.002V465.002H3782.16V461.002ZM3742.07 461.002V457.002H3722.02V461.002V465.002H3742.07V461.002ZM3701.97 461.002V457.002H3681.93V461.002V465.002H3701.97V461.002ZM3661.88 461.002V457.002H3641.83V461.002V465.002H3661.88V461.002ZM3621.78 461.002V457.002H3601.73V461.002V465.002H3621.78V461.002ZM3581.69 461.002V457.002H3561.64V461.002V465.002H3581.69V461.002ZM3541.59 461.002V457.002H3521.54V461.002V465.002H3541.59V461.002ZM3501.49 461.002V457.002H3481.45V461.002V465.002H3501.49V461.002ZM3461.4 461.002V457.002H3441.35V461.002V465.002H3461.4V461.002ZM3421.3 461.002V457.002H3401.26V461.002V465.002H3421.3V461.002ZM3381.21 461.002V457.002H3361.16V461.002V465.002H3381.21V461.002ZM3341.11 461.002V457.002H3321.06V461.002V465.002H3341.11V461.002ZM3301.02 461.002V457.002H3280.97V461.002V465.002H3301.02V461.002ZM3260.92 461.002V457.002H3240.87V461.002V465.002H3260.92V461.002ZM3220.82 461.002V457.002H3200.78V461.002V465.002H3220.82V461.002ZM3180.73 461.002V457.002H3160.68V461.002V465.002H3180.73V461.002ZM3140.63 461.002V457.002H3120.59V461.002V465.002H3140.63V461.002ZM3100.54 461.002V457.002H3080.49V461.002V465.002H3100.54V461.002ZM3060.44 461.002V457.002H3040.39V461.002V465.002H3060.44V461.002ZM3020.35 461.002V457.002H3000.3V461.002V465.002H3020.35V461.002ZM2980.25 461.002V457.002H2960.2V461.002V465.002H2980.25V461.002ZM2940.15 461.002V457.002H2920.11V461.002V465.002H2940.15V461.002ZM2900.06 461.002V457.002H2880.01V461.002V465.002H2900.06V461.002ZM2859.96 461.002V457.002H2839.92V461.002V465.002H2859.96V461.002ZM2819.87 461.002V457.002H2799.82V461.002V465.002H2819.87V461.002ZM2779.77 461.002V457.002H2759.72V461.002V465.002H2779.77V461.002ZM2739.68 461.002V457.002H2719.63V461.002V465.002H2739.68V461.002ZM2699.58 461.002V457.002H2679.53V461.002V465.002H2699.58V461.002ZM2659.48 461.002V457.002H2639.44V461.002V465.002H2659.48V461.002ZM2619.39 461.002V457.002H2599.34V461.002V465.002H2619.39V461.002ZM2579.29 461.002V457.002H2559.25V461.002V465.002H2579.29V461.002ZM2539.2 461.002V457.002H2519.15V461.002V465.002H2539.2V461.002ZM2499.1 461.002V457.002H2479.05V461.002V465.002H2499.1V461.002ZM2459.01 461.002V457.002H2438.96V461.002V465.002H2459.01V461.002ZM2418.91 461.002V457.002H2398.86V461.002V465.002H2418.91V461.002ZM2378.81 461.002V457.002H2358.77V461.002V465.002H2378.81V461.002ZM2338.72 461.002V457.002H2318.67V461.002V465.002H2338.72V461.002ZM2298.62 461.002V457.002H2278.58V461.002V465.002H2298.62V461.002ZM2258.53 461.002V457.002H2238.48V461.002V465.002H2258.53V461.002ZM2218.43 461.002V457.002H2198.38V461.002V465.002H2218.43V461.002ZM2178.34 461.002V457.002H2158.29V461.002V465.002H2178.34V461.002ZM2138.24 461.002V457.002H2118.19V461.002V465.002H2138.24V461.002ZM2098.15 461.002V457.002H2078.1V461.002V465.002H2098.15V461.002ZM2058.05 461.002V457.002H2038V461.002V465.002H2058.05V461.002ZM2017.95 461.002V457.002H1997.91V461.002V465.002H2017.95V461.002ZM1977.86 461.002V457.002H1957.81V461.002V465.002H1977.86V461.002ZM1937.76 461.002V457.002H1917.71V461.002V465.002H1937.76V461.002ZM1897.67 461.002V457.002H1877.62V461.002V465.002H1897.67V461.002ZM1857.57 461.002V457.002H1837.52V461.002V465.002H1857.57V461.002ZM1817.47 461.002V457.002H1797.43V461.002V465.002H1817.47V461.002ZM1777.38 461.002V457.002H1757.33V461.002V465.002H1777.38V461.002ZM1737.28 461.002V457.002H1717.24V461.002V465.002H1737.28V461.002ZM1697.19 461.002V457.002H1677.14V461.002V465.002H1697.19V461.002ZM1657.09 461.002V457.002H1637.04V461.002V465.002H1657.09V461.002ZM1617 461.002V457.002H1596.95V461.002V465.002H1617V461.002ZM1576.9 461.002V457.002H1556.85V461.002V465.002H1576.9V461.002ZM1536.81 461.002V457.002H1516.76V461.002V465.002H1536.81V461.002ZM1496.71 461.002V457.002H1476.66V461.002V465.002H1496.71V461.002ZM1456.61 461.002V457.002H1436.57V461.002V465.002H1456.61V461.002ZM1416.52 461.002V457.002H1396.47V461.002V465.002H1416.52V461.002ZM1376.42 461.002V457.002H1356.37V461.002V465.002H1376.42V461.002ZM1336.33 461.002V457.002H1316.28V461.002V465.002H1336.33V461.002ZM1296.23 461.002V457.002H1276.18V461.002V465.002H1296.23V461.002ZM1256.14 461.002V457.002H1236.09V461.002V465.002H1256.14V461.002ZM1216.04 461.002V457.002H1206V461.002V465.002H1216.04V461.002Z" fill="#9A9A9A"/>
</g>
</g>
<g id="#logo-placement">
<rect id="Logo 1" x="1278" y="4137" width="3604" height="3933" transform="rotate(-90 1278 4137)" fill="#2063D6"/>
<rect id="Logo 2" x="5355" y="4137" width="3604" height="1633" transform="rotate(-90 5355 4137)" fill="#2063D6"/>
</g>
</g>
</svg>
