<svg width="238" height="50" viewBox="0 0 238 50" fill="none" xmlns="http://www.w3.org/2000/svg">
<g id="GolfStatus Tag">
<g id="Back - Dark Tag">
<path id="Vector" d="M1 33.0805C1 27.3205 5.62 22.7305 11.38 22.7305C13.83 22.7305 15.91 23.1905 17.85 24.3805C18.39 24.7205 18.51 25.2105 18.19 25.8105L17.9 26.2905C17.59 26.9205 17.1 27.0005 16.47 26.6605C14.25 25.4605 12.88 25.4305 11.37 25.4305C7.31999 25.4305 4.07001 28.7905 4.07001 33.0405C4.07001 36.8605 6.63999 40.5905 11.77 40.5905C13.51 40.5905 14.99 40.1605 16.33 39.3105V35.3505H11.83C11.17 35.3505 10.8 34.9505 10.8 34.3005V33.9605C10.8 33.3005 11.17 32.9305 11.83 32.9305H18.07C18.73 32.9305 19.1 33.3005 19.1 33.9605V39.7205C19.1 40.2605 18.87 40.7205 18.22 41.2305C15.94 42.9105 13.46 43.3105 11.64 43.3105C5.44998 43.3105 1.00998 38.6905 1.00998 33.0805" fill="white"/>
<path id="Vector_2" d="M21.9502 33.0205C21.9502 27.3505 26.5702 22.7305 32.3302 22.7305C38.0902 22.7305 42.7102 27.3505 42.7102 33.0205C42.7102 38.6905 38.0902 43.3105 32.3302 43.3105C26.5702 43.3105 21.9502 38.6905 21.9502 33.0205ZM39.6302 33.0205C39.6302 28.7205 36.3502 25.4405 32.3302 25.4405C28.3102 25.4405 25.0302 28.7205 25.0302 33.0205C25.0302 37.3205 28.3102 40.6005 32.3302 40.6005C36.3502 40.6005 39.6302 37.3205 39.6302 33.0205Z" fill="white"/>
<path id="Vector_3" d="M46.1201 41.9808V24.0808C46.1201 23.4208 46.4901 23.0508 47.1501 23.0508H48.1201C48.7801 23.0508 49.1501 23.4208 49.1501 24.0808V40.5308H57.2201C57.8801 40.5308 58.2701 40.9008 58.2701 41.5608V41.9908C58.2701 42.6508 57.8701 43.0208 57.2201 43.0208H47.1601C46.5001 43.0208 46.1301 42.6508 46.1301 41.9908" fill="white"/>
<path id="Vector_4" d="M73.6306 24.0691V24.4991C73.6306 25.1591 73.2606 25.5291 72.6006 25.5291H63.8806V31.9991H71.3506C72.0106 31.9991 72.4006 32.3691 72.4006 33.0291V33.3991C72.4006 34.0591 72.0006 34.4491 71.3506 34.4491H63.8806V41.9691C63.8806 42.6291 63.5106 42.9991 62.8506 42.9991H61.8806C61.2206 42.9991 60.8506 42.6291 60.8506 41.9691V24.0691C60.8506 23.4091 61.2206 23.0391 61.8806 23.0391H72.6006C73.2606 23.0391 73.6306 23.4091 73.6306 24.0691Z" fill="white"/>
<path id="Vector_5" d="M75.6207 39.2705C75.3407 38.6405 75.6806 38.1605 76.3006 37.9905L77.1307 37.7905C77.7607 37.6505 78.1007 37.8805 78.4107 38.4705C79.1207 39.7005 80.6307 40.6605 82.6307 40.6605C85.2007 40.6605 86.7606 39.4105 86.7606 37.7005C86.7606 36.1905 85.5107 35.2505 83.8807 34.6505L80.9206 33.6505C77.1606 32.4005 76.2507 30.1405 76.2507 28.2905C76.2507 24.8405 79.2707 22.7305 82.7207 22.7305C85.8607 22.7305 88.0807 24.2405 88.9907 26.4905C89.2507 27.1205 88.9307 27.6005 88.3107 27.7705L87.6007 28.0005C86.9707 28.1705 86.5707 27.9405 86.2907 27.3405C85.6307 26.0305 84.4106 25.4005 82.7606 25.4005C80.8806 25.4005 79.3107 26.4305 79.3107 28.1905C79.3107 29.0205 79.5707 30.1005 81.8507 30.9605L84.8107 32.0705C88.1707 33.1205 89.7107 35.3505 89.7107 37.4905C89.7107 41.0805 86.8606 43.3005 82.7006 43.3005C79.1706 43.3005 76.6607 41.5905 75.6307 39.2505" fill="white"/>
<path id="Vector_6" d="M107.63 24.0691V24.4991C107.63 25.1591 107.26 25.5291 106.6 25.5291H101.04V41.9791C101.04 42.6391 100.67 43.0091 100.01 43.0091H99.0702C98.4102 43.0091 98.0402 42.6391 98.0402 41.9791V25.5291H92.4802C91.8502 25.5291 91.4502 25.1591 91.4502 24.4991V24.0691C91.4502 23.4091 91.8502 23.0391 92.4802 23.0391H106.59C107.25 23.0391 107.62 23.4091 107.62 24.0691" fill="white"/>
<path id="Vector_7" d="M106.811 41.7991L113.681 23.8691C113.881 23.3291 114.311 23.0391 114.881 23.0391H116.531C117.131 23.0391 117.531 23.3291 117.731 23.8691L124.661 41.7991C124.921 42.5091 124.631 42.9991 123.861 42.9991H122.951C122.351 42.9991 121.951 42.7391 121.721 42.1691L120.491 38.9191H110.971L109.741 42.1691C109.511 42.7391 109.141 42.9991 108.541 42.9991H107.601C106.831 42.9991 106.521 42.5191 106.801 41.7991M119.631 36.4691L115.701 25.9791L111.821 36.4691H119.631Z" fill="white"/>
<path id="Vector_8" d="M139.96 24.0691V24.4991C139.96 25.1591 139.59 25.5291 138.93 25.5291H133.37V41.9791C133.37 42.6391 133 43.0091 132.34 43.0091H131.4C130.74 43.0091 130.37 42.6391 130.37 41.9791V25.5291H124.81C124.18 25.5291 123.78 25.1591 123.78 24.4991V24.0691C123.78 23.4091 124.18 23.0391 124.81 23.0391H138.92C139.58 23.0391 139.95 23.4091 139.95 24.0691" fill="white"/>
<path id="Vector_9" d="M142.92 35.5891V24.0691C142.92 23.4091 143.32 23.0391 143.95 23.0391H144.92C145.58 23.0391 145.95 23.4091 145.95 24.0691V35.5891C145.95 38.9491 148.23 40.6091 150.85 40.6091C153.47 40.6091 155.78 38.9591 155.78 35.5891V24.0691C155.78 23.4091 156.15 23.0391 156.81 23.0391H157.75C158.41 23.0391 158.81 23.4091 158.81 24.0691V35.5891C158.81 40.6591 155.16 43.3191 150.86 43.3191C146.56 43.3191 142.94 40.6691 142.94 35.5891" fill="white"/>
<path id="Vector_10" d="M161.93 39.2705C161.65 38.6405 161.99 38.1605 162.61 37.9905L163.44 37.7905C164.07 37.6505 164.41 37.8805 164.72 38.4705C165.43 39.7005 166.94 40.6605 168.94 40.6605C171.51 40.6605 173.07 39.4105 173.07 37.7005C173.07 36.1905 171.82 35.2505 170.19 34.6505L167.23 33.6505C163.47 32.4005 162.56 30.1405 162.56 28.2905C162.56 24.8405 165.58 22.7305 169.03 22.7305C172.17 22.7305 174.39 24.2405 175.3 26.4905C175.56 27.1205 175.24 27.6005 174.62 27.7705L173.91 28.0005C173.28 28.1705 172.88 27.9405 172.6 27.3405C171.94 26.0305 170.72 25.4005 169.07 25.4005C167.19 25.4005 165.62 26.4305 165.62 28.1905C165.62 29.0205 165.88 30.1005 168.16 30.9605L171.12 32.0705C174.48 33.1205 176.02 35.3505 176.02 37.4905C176.02 41.0805 173.17 43.3005 169.01 43.3005C165.48 43.3005 162.97 41.5905 161.94 39.2505" fill="white"/>
<path id="Vector_11" d="M105.341 14.8291V6.28906H107.181C107.521 6.28906 107.811 6.32906 108.071 6.41906C108.331 6.50906 108.561 6.65906 108.771 6.88906C108.981 7.10906 109.121 7.37906 109.201 7.67906C109.281 7.97906 109.321 8.38906 109.321 8.89906C109.321 9.27906 109.301 9.60906 109.251 9.86906C109.211 10.1291 109.111 10.3791 108.971 10.6091C108.801 10.8891 108.581 11.1091 108.301 11.2591C108.021 11.4191 107.651 11.4891 107.201 11.4891H106.581V14.8291H105.361H105.341ZM106.561 7.43906V10.3391H107.151C107.401 10.3391 107.591 10.2991 107.731 10.2291C107.871 10.1591 107.971 10.0591 108.031 9.92906C108.091 9.80906 108.131 9.65906 108.141 9.48906C108.151 9.30906 108.161 9.11906 108.161 8.89906C108.161 8.69906 108.161 8.50906 108.151 8.32906C108.151 8.14906 108.111 7.98906 108.041 7.85906C107.981 7.71906 107.881 7.61906 107.751 7.54906C107.621 7.47906 107.441 7.43906 107.201 7.43906H106.561Z" fill="white"/>
<path id="Vector_12" d="M112.73 8.31047C112.73 7.97047 112.79 7.66047 112.91 7.40047C113.03 7.14047 113.19 6.92047 113.39 6.74047C113.58 6.57047 113.8 6.44047 114.04 6.36047C114.28 6.27047 114.53 6.23047 114.78 6.23047C115.03 6.23047 115.27 6.27047 115.52 6.36047C115.76 6.45047 115.99 6.58047 116.19 6.74047C116.38 6.92047 116.54 7.14047 116.66 7.40047C116.78 7.66047 116.84 7.97047 116.84 8.31047V12.8205C116.84 13.1805 116.78 13.4905 116.66 13.7405C116.54 13.9905 116.38 14.2105 116.19 14.3805C115.99 14.5605 115.77 14.6905 115.52 14.7805C115.27 14.8705 115.03 14.9105 114.78 14.9105C114.53 14.9105 114.29 14.8705 114.04 14.7805C113.8 14.6905 113.58 14.5605 113.39 14.3805C113.19 14.2105 113.03 14.0005 112.91 13.7405C112.79 13.4805 112.73 13.1805 112.73 12.8205V8.31047ZM113.95 12.8205C113.95 13.1205 114.03 13.3305 114.2 13.4705C114.36 13.6105 114.56 13.6805 114.78 13.6805C115 13.6805 115.2 13.6105 115.36 13.4705C115.52 13.3305 115.61 13.1105 115.61 12.8205V8.31047C115.61 8.01047 115.53 7.80047 115.36 7.66047C115.2 7.52047 115 7.45047 114.78 7.45047C114.56 7.45047 114.36 7.52047 114.2 7.66047C114.04 7.80047 113.95 8.02047 113.95 8.31047V12.8205Z" fill="white"/>
<path id="Vector_13" d="M126.7 6.28906L125.43 14.8291H124.28L123.34 9.28906H123.32L122.4 14.8291H121.25L119.98 6.28906H121.28L121.89 11.7091H121.91L122.87 6.28906H123.81L124.81 11.8491H124.83L125.42 6.28906H126.72H126.7Z" fill="white"/>
<path id="Vector_14" d="M130.04 14.8291V6.28906H133.69V7.43906H131.27V9.94906H133.38V11.0991H131.27V13.6091H133.69V14.8291H130.04Z" fill="white"/>
<path id="Vector_15" d="M137.061 14.8291V6.28906H139.031C140.471 6.28906 141.191 7.12906 141.191 8.79906C141.191 9.29906 141.111 9.72906 140.961 10.0791C140.801 10.4291 140.531 10.7191 140.141 10.9291L141.461 14.8291H140.161L139.021 11.1791H138.291V14.8291H137.071H137.061ZM138.291 7.43906V10.0991H138.991C139.211 10.0991 139.381 10.0691 139.511 10.0091C139.641 9.94906 139.741 9.85906 139.811 9.74906C139.871 9.63906 139.921 9.49906 139.941 9.33906C139.961 9.17906 139.981 8.98906 139.981 8.76906C139.981 8.54906 139.971 8.35906 139.941 8.19906C139.921 8.03906 139.871 7.88906 139.801 7.76906C139.651 7.54906 139.361 7.42906 138.941 7.42906H138.301L138.291 7.43906Z" fill="white"/>
<path id="Vector_16" d="M144.761 14.8291V6.28906H148.411V7.43906H145.991V9.94906H148.101V11.0991H145.991V13.6091H148.411V14.8291H144.761Z" fill="white"/>
<path id="Vector_17" d="M151.78 14.8291V6.28906H153.59C154.29 6.28906 154.83 6.47906 155.19 6.86906C155.55 7.24906 155.74 7.79906 155.74 8.49906V12.4991C155.74 13.2991 155.55 13.8891 155.16 14.2691C154.77 14.6491 154.21 14.8391 153.49 14.8391H151.79L151.78 14.8291ZM153 7.43906V13.6791H153.56C153.9 13.6791 154.15 13.5891 154.29 13.4191C154.43 13.2491 154.51 12.9791 154.51 12.6091V8.48906C154.51 8.14906 154.44 7.88906 154.31 7.70906C154.17 7.52906 153.93 7.42906 153.57 7.42906H153.01L153 7.43906Z" fill="white"/>
<path id="Vector_18" d="M164.28 14.8291V6.28906H166.07C166.46 6.28906 166.8 6.34906 167.07 6.46906C167.35 6.58906 167.57 6.74906 167.75 6.94906C167.93 7.14906 168.05 7.37906 168.13 7.63906C168.21 7.89906 168.24 8.16906 168.24 8.44906V8.75906C168.24 8.98906 168.22 9.18906 168.19 9.34906C168.15 9.50906 168.1 9.64906 168.03 9.76906C167.89 9.98906 167.69 10.1891 167.41 10.3491C167.7 10.4891 167.91 10.6891 168.05 10.9491C168.19 11.2091 168.25 11.5691 168.25 12.0291V12.5091C168.25 13.2591 168.07 13.8391 167.7 14.2391C167.34 14.6391 166.75 14.8391 165.95 14.8391H164.28V14.8291ZM165.5 7.43906V9.78906H166.05C166.46 9.78906 166.73 9.68906 166.87 9.47906C167.01 9.26906 167.08 8.97906 167.08 8.58906C167.08 8.19906 167 7.91906 166.85 7.72906C166.69 7.53906 166.41 7.43906 166 7.43906H165.5ZM165.5 10.8691V13.6091H166.03C166.28 13.6091 166.47 13.5691 166.61 13.4991C166.75 13.4291 166.86 13.3291 166.93 13.1991C167 13.0691 167.05 12.9191 167.06 12.7391C167.08 12.5591 167.08 12.3691 167.08 12.1591C167.08 11.9491 167.07 11.7591 167.04 11.5991C167.02 11.4391 166.97 11.2991 166.9 11.1891C166.82 11.0791 166.71 10.9991 166.58 10.9391C166.45 10.8791 166.26 10.8591 166.04 10.8591H165.5V10.8691Z" fill="white"/>
<path id="Vector_19" d="M173.111 14.8291V11.2191L171.431 6.28906H172.731L173.711 9.68906H173.731L174.711 6.28906H176.011L174.331 11.2191V14.8291H173.111Z" fill="white"/>
<g id="Layer_1">
<path id="Vector_20" d="M229.38 49.73H195.69C191.27 49.73 187.67 46.13 187.67 41.71V8.02C187.67 3.6 191.27 0 195.69 0H229.38C233.8 0 237.4 3.6 237.4 8.02V41.71C237.4 46.13 233.8 49.73 229.38 49.73ZM195.7 0.93C191.79 0.93 188.6 4.11 188.6 8.02V41.71C188.6 45.62 191.78 48.8 195.7 48.8H229.39C233.3 48.8 236.49 45.62 236.49 41.71V8.02C236.49 4.11 233.31 0.93 229.39 0.93H195.7Z" fill="white"/>
<path id="Vector_21" d="M212.54 6.61937C204.64 6.61937 198.22 13.0894 198.22 21.0494C198.22 23.8694 199.03 26.5994 200.56 28.9494L200.6 29.0094C200.77 29.2694 200.96 29.5394 201.15 29.7894L210.9 42.4394C210.9 42.4394 210.9 42.4394 210.9 42.4494L211.39 43.1194V42.4294C211.39 37.5494 209.92 35.6294 209.4 34.8294C209.3 34.6694 209.33 34.3994 209.32 34.1694C209.32 34.0494 209.42 33.9594 209.53 33.9694C210.51 34.2294 211.52 34.3594 212.55 34.3594C213.58 34.3594 214.6 34.2294 215.58 33.9694C215.68 33.9694 215.76 34.0594 215.76 34.1694C215.76 34.3894 215.79 34.6694 215.68 34.8294C215.16 35.6294 213.69 37.5494 213.69 42.4294V43.0694L214.38 42.1694L223.84 29.8794C225.81 27.3294 226.85 24.2694 226.85 21.0394C226.85 13.0894 220.43 6.60938 212.53 6.60938L212.54 6.61937ZM219.58 30.4294C217.52 31.9494 215.09 32.7494 212.55 32.7494C208.75 32.7494 205.14 30.8994 202.9 27.8094C199.02 22.4594 200.19 14.9194 205.5 11.0094C207.56 9.48938 209.99 8.68937 212.53 8.68937C216.33 8.68937 219.94 10.5394 222.18 13.6294C226.06 18.9794 224.89 26.5194 219.58 30.4294Z" fill="white"/>
</g>
</g>
<g id="Back - Light Tag">
<path id="Vector_22" d="M1 33.0805C1 27.3205 5.62 22.7305 11.38 22.7305C13.83 22.7305 15.91 23.1905 17.85 24.3805C18.39 24.7205 18.51 25.2105 18.19 25.8105L17.9 26.2905C17.59 26.9205 17.1 27.0005 16.47 26.6605C14.25 25.4605 12.88 25.4305 11.37 25.4305C7.31999 25.4305 4.07001 28.7905 4.07001 33.0405C4.07001 36.8605 6.63999 40.5905 11.77 40.5905C13.51 40.5905 14.99 40.1605 16.33 39.3105V35.3505H11.83C11.17 35.3505 10.8 34.9505 10.8 34.3005V33.9605C10.8 33.3005 11.17 32.9305 11.83 32.9305H18.07C18.73 32.9305 19.1 33.3005 19.1 33.9605V39.7205C19.1 40.2605 18.87 40.7205 18.22 41.2305C15.94 42.9105 13.46 43.3105 11.64 43.3105C5.44998 43.3105 1.00998 38.6905 1.00998 33.0805" fill="black"/>
<path id="Vector_23" d="M21.9502 33.0205C21.9502 27.3505 26.5702 22.7305 32.3302 22.7305C38.0902 22.7305 42.7102 27.3505 42.7102 33.0205C42.7102 38.6905 38.0902 43.3105 32.3302 43.3105C26.5702 43.3105 21.9502 38.6905 21.9502 33.0205ZM39.6302 33.0205C39.6302 28.7205 36.3502 25.4405 32.3302 25.4405C28.3102 25.4405 25.0302 28.7205 25.0302 33.0205C25.0302 37.3205 28.3102 40.6005 32.3302 40.6005C36.3502 40.6005 39.6302 37.3205 39.6302 33.0205Z" fill="black"/>
<path id="Vector_24" d="M46.1201 41.9808V24.0808C46.1201 23.4208 46.4901 23.0508 47.1501 23.0508H48.1201C48.7801 23.0508 49.1501 23.4208 49.1501 24.0808V40.5308H57.2201C57.8801 40.5308 58.2701 40.9008 58.2701 41.5608V41.9908C58.2701 42.6508 57.8701 43.0208 57.2201 43.0208H47.1601C46.5001 43.0208 46.1301 42.6508 46.1301 41.9908" fill="black"/>
<path id="Vector_25" d="M73.6306 24.0691V24.4991C73.6306 25.1591 73.2606 25.5291 72.6006 25.5291H63.8806V31.9991H71.3506C72.0106 31.9991 72.4006 32.3691 72.4006 33.0291V33.3991C72.4006 34.0591 72.0006 34.4491 71.3506 34.4491H63.8806V41.9691C63.8806 42.6291 63.5106 42.9991 62.8506 42.9991H61.8806C61.2206 42.9991 60.8506 42.6291 60.8506 41.9691V24.0691C60.8506 23.4091 61.2206 23.0391 61.8806 23.0391H72.6006C73.2606 23.0391 73.6306 23.4091 73.6306 24.0691Z" fill="black"/>
<path id="Vector_26" d="M75.6207 39.2705C75.3407 38.6405 75.6806 38.1605 76.3006 37.9905L77.1307 37.7905C77.7607 37.6505 78.1007 37.8805 78.4107 38.4705C79.1207 39.7005 80.6307 40.6605 82.6307 40.6605C85.2007 40.6605 86.7606 39.4105 86.7606 37.7005C86.7606 36.1905 85.5107 35.2505 83.8807 34.6505L80.9206 33.6505C77.1606 32.4005 76.2507 30.1405 76.2507 28.2905C76.2507 24.8405 79.2707 22.7305 82.7207 22.7305C85.8607 22.7305 88.0807 24.2405 88.9907 26.4905C89.2507 27.1205 88.9307 27.6005 88.3107 27.7705L87.6007 28.0005C86.9707 28.1705 86.5707 27.9405 86.2907 27.3405C85.6307 26.0305 84.4106 25.4005 82.7606 25.4005C80.8806 25.4005 79.3107 26.4305 79.3107 28.1905C79.3107 29.0205 79.5707 30.1005 81.8507 30.9605L84.8107 32.0705C88.1707 33.1205 89.7107 35.3505 89.7107 37.4905C89.7107 41.0805 86.8606 43.3005 82.7006 43.3005C79.1706 43.3005 76.6607 41.5905 75.6307 39.2505" fill="black"/>
<path id="Vector_27" d="M107.63 24.0691V24.4991C107.63 25.1591 107.26 25.5291 106.6 25.5291H101.04V41.9791C101.04 42.6391 100.67 43.0091 100.01 43.0091H99.0702C98.4102 43.0091 98.0402 42.6391 98.0402 41.9791V25.5291H92.4802C91.8502 25.5291 91.4502 25.1591 91.4502 24.4991V24.0691C91.4502 23.4091 91.8502 23.0391 92.4802 23.0391H106.59C107.25 23.0391 107.62 23.4091 107.62 24.0691" fill="black"/>
<path id="Vector_28" d="M106.811 41.7991L113.681 23.8691C113.881 23.3291 114.311 23.0391 114.881 23.0391H116.531C117.131 23.0391 117.531 23.3291 117.731 23.8691L124.661 41.7991C124.921 42.5091 124.631 42.9991 123.861 42.9991H122.951C122.351 42.9991 121.951 42.7391 121.721 42.1691L120.491 38.9191H110.971L109.741 42.1691C109.511 42.7391 109.141 42.9991 108.541 42.9991H107.601C106.831 42.9991 106.521 42.5191 106.801 41.7991M119.631 36.4691L115.701 25.9791L111.821 36.4691H119.631Z" fill="black"/>
<path id="Vector_29" d="M139.96 24.0691V24.4991C139.96 25.1591 139.59 25.5291 138.93 25.5291H133.37V41.9791C133.37 42.6391 133 43.0091 132.34 43.0091H131.4C130.74 43.0091 130.37 42.6391 130.37 41.9791V25.5291H124.81C124.18 25.5291 123.78 25.1591 123.78 24.4991V24.0691C123.78 23.4091 124.18 23.0391 124.81 23.0391H138.92C139.58 23.0391 139.95 23.4091 139.95 24.0691" fill="black"/>
<path id="Vector_30" d="M142.92 35.5891V24.0691C142.92 23.4091 143.32 23.0391 143.95 23.0391H144.92C145.58 23.0391 145.95 23.4091 145.95 24.0691V35.5891C145.95 38.9491 148.23 40.6091 150.85 40.6091C153.47 40.6091 155.78 38.9591 155.78 35.5891V24.0691C155.78 23.4091 156.15 23.0391 156.81 23.0391H157.75C158.41 23.0391 158.81 23.4091 158.81 24.0691V35.5891C158.81 40.6591 155.16 43.3191 150.86 43.3191C146.56 43.3191 142.94 40.6691 142.94 35.5891" fill="black"/>
<path id="Vector_31" d="M161.93 39.2705C161.65 38.6405 161.99 38.1605 162.61 37.9905L163.44 37.7905C164.07 37.6505 164.41 37.8805 164.72 38.4705C165.43 39.7005 166.94 40.6605 168.94 40.6605C171.51 40.6605 173.07 39.4105 173.07 37.7005C173.07 36.1905 171.82 35.2505 170.19 34.6505L167.23 33.6505C163.47 32.4005 162.56 30.1405 162.56 28.2905C162.56 24.8405 165.58 22.7305 169.03 22.7305C172.17 22.7305 174.39 24.2405 175.3 26.4905C175.56 27.1205 175.24 27.6005 174.62 27.7705L173.91 28.0005C173.28 28.1705 172.88 27.9405 172.6 27.3405C171.94 26.0305 170.72 25.4005 169.07 25.4005C167.19 25.4005 165.62 26.4305 165.62 28.1905C165.62 29.0205 165.88 30.1005 168.16 30.9605L171.12 32.0705C174.48 33.1205 176.02 35.3505 176.02 37.4905C176.02 41.0805 173.17 43.3005 169.01 43.3005C165.48 43.3005 162.97 41.5905 161.94 39.2505" fill="black"/>
<path id="Vector_32" d="M105.341 14.8291V6.28906H107.181C107.521 6.28906 107.811 6.32906 108.071 6.41906C108.331 6.50906 108.561 6.65906 108.771 6.88906C108.981 7.10906 109.121 7.37906 109.201 7.67906C109.281 7.97906 109.321 8.38906 109.321 8.89906C109.321 9.27906 109.301 9.60906 109.251 9.86906C109.211 10.1291 109.111 10.3791 108.971 10.6091C108.801 10.8891 108.581 11.1091 108.301 11.2591C108.021 11.4191 107.651 11.4891 107.201 11.4891H106.581V14.8291H105.361H105.341ZM106.561 7.43906V10.3391H107.151C107.401 10.3391 107.591 10.2991 107.731 10.2291C107.871 10.1591 107.971 10.0591 108.031 9.92906C108.091 9.80906 108.131 9.65906 108.141 9.48906C108.151 9.30906 108.161 9.11906 108.161 8.89906C108.161 8.69906 108.161 8.50906 108.151 8.32906C108.151 8.14906 108.111 7.98906 108.041 7.85906C107.981 7.71906 107.881 7.61906 107.751 7.54906C107.621 7.47906 107.441 7.43906 107.201 7.43906H106.561Z" fill="black"/>
<path id="Vector_33" d="M112.73 8.31047C112.73 7.97047 112.79 7.66047 112.91 7.40047C113.03 7.14047 113.19 6.92047 113.39 6.74047C113.58 6.57047 113.8 6.44047 114.04 6.36047C114.28 6.27047 114.53 6.23047 114.78 6.23047C115.03 6.23047 115.27 6.27047 115.52 6.36047C115.76 6.45047 115.99 6.58047 116.19 6.74047C116.38 6.92047 116.54 7.14047 116.66 7.40047C116.78 7.66047 116.84 7.97047 116.84 8.31047V12.8205C116.84 13.1805 116.78 13.4905 116.66 13.7405C116.54 13.9905 116.38 14.2105 116.19 14.3805C115.99 14.5605 115.77 14.6905 115.52 14.7805C115.27 14.8705 115.03 14.9105 114.78 14.9105C114.53 14.9105 114.29 14.8705 114.04 14.7805C113.8 14.6905 113.58 14.5605 113.39 14.3805C113.19 14.2105 113.03 14.0005 112.91 13.7405C112.79 13.4805 112.73 13.1805 112.73 12.8205V8.31047ZM113.95 12.8205C113.95 13.1205 114.03 13.3305 114.2 13.4705C114.36 13.6105 114.56 13.6805 114.78 13.6805C115 13.6805 115.2 13.6105 115.36 13.4705C115.52 13.3305 115.61 13.1105 115.61 12.8205V8.31047C115.61 8.01047 115.53 7.80047 115.36 7.66047C115.2 7.52047 115 7.45047 114.78 7.45047C114.56 7.45047 114.36 7.52047 114.2 7.66047C114.04 7.80047 113.95 8.02047 113.95 8.31047V12.8205Z" fill="black"/>
<path id="Vector_34" d="M126.7 6.28906L125.43 14.8291H124.28L123.34 9.28906H123.32L122.4 14.8291H121.25L119.98 6.28906H121.28L121.89 11.7091H121.91L122.87 6.28906H123.81L124.81 11.8491H124.83L125.42 6.28906H126.72H126.7Z" fill="black"/>
<path id="Vector_35" d="M130.04 14.8291V6.28906H133.69V7.43906H131.27V9.94906H133.38V11.0991H131.27V13.6091H133.69V14.8291H130.04Z" fill="black"/>
<path id="Vector_36" d="M137.061 14.8291V6.28906H139.031C140.471 6.28906 141.191 7.12906 141.191 8.79906C141.191 9.29906 141.111 9.72906 140.961 10.0791C140.801 10.4291 140.531 10.7191 140.141 10.9291L141.461 14.8291H140.161L139.021 11.1791H138.291V14.8291H137.071H137.061ZM138.291 7.43906V10.0991H138.991C139.211 10.0991 139.381 10.0691 139.511 10.0091C139.641 9.94906 139.741 9.85906 139.811 9.74906C139.871 9.63906 139.921 9.49906 139.941 9.33906C139.961 9.17906 139.981 8.98906 139.981 8.76906C139.981 8.54906 139.971 8.35906 139.941 8.19906C139.921 8.03906 139.871 7.88906 139.801 7.76906C139.651 7.54906 139.361 7.42906 138.941 7.42906H138.301L138.291 7.43906Z" fill="black"/>
<path id="Vector_37" d="M144.761 14.8291V6.28906H148.411V7.43906H145.991V9.94906H148.101V11.0991H145.991V13.6091H148.411V14.8291H144.761Z" fill="black"/>
<path id="Vector_38" d="M151.78 14.8291V6.28906H153.59C154.29 6.28906 154.83 6.47906 155.19 6.86906C155.55 7.24906 155.74 7.79906 155.74 8.49906V12.4991C155.74 13.2991 155.55 13.8891 155.16 14.2691C154.77 14.6491 154.21 14.8391 153.49 14.8391H151.79L151.78 14.8291ZM153 7.43906V13.6791H153.56C153.9 13.6791 154.15 13.5891 154.29 13.4191C154.43 13.2491 154.51 12.9791 154.51 12.6091V8.48906C154.51 8.14906 154.44 7.88906 154.31 7.70906C154.17 7.52906 153.93 7.42906 153.57 7.42906H153.01L153 7.43906Z" fill="black"/>
<path id="Vector_39" d="M164.28 14.8291V6.28906H166.07C166.46 6.28906 166.8 6.34906 167.07 6.46906C167.35 6.58906 167.57 6.74906 167.75 6.94906C167.93 7.14906 168.05 7.37906 168.13 7.63906C168.21 7.89906 168.24 8.16906 168.24 8.44906V8.75906C168.24 8.98906 168.22 9.18906 168.19 9.34906C168.15 9.50906 168.1 9.64906 168.03 9.76906C167.89 9.98906 167.69 10.1891 167.41 10.3491C167.7 10.4891 167.91 10.6891 168.05 10.9491C168.19 11.2091 168.25 11.5691 168.25 12.0291V12.5091C168.25 13.2591 168.07 13.8391 167.7 14.2391C167.34 14.6391 166.75 14.8391 165.95 14.8391H164.28V14.8291ZM165.5 7.43906V9.78906H166.05C166.46 9.78906 166.73 9.68906 166.87 9.47906C167.01 9.26906 167.08 8.97906 167.08 8.58906C167.08 8.19906 167 7.91906 166.85 7.72906C166.69 7.53906 166.41 7.43906 166 7.43906H165.5ZM165.5 10.8691V13.6091H166.03C166.28 13.6091 166.47 13.5691 166.61 13.4991C166.75 13.4291 166.86 13.3291 166.93 13.1991C167 13.0691 167.05 12.9191 167.06 12.7391C167.08 12.5591 167.08 12.3691 167.08 12.1591C167.08 11.9491 167.07 11.7591 167.04 11.5991C167.02 11.4391 166.97 11.2991 166.9 11.1891C166.82 11.0791 166.71 10.9991 166.58 10.9391C166.45 10.8791 166.26 10.8591 166.04 10.8591H165.5V10.8691Z" fill="black"/>
<path id="Vector_40" d="M173.111 14.8291V11.2191L171.431 6.28906H172.731L173.711 9.68906H173.731L174.711 6.28906H176.011L174.331 11.2191V14.8291H173.111Z" fill="black"/>
<g id="Layer_1_2">
<path id="Vector_41" d="M229.38 49.73H195.69C191.27 49.73 187.67 46.13 187.67 41.71V8.02C187.67 3.6 191.27 0 195.69 0H229.38C233.8 0 237.4 3.6 237.4 8.02V41.71C237.4 46.13 233.8 49.73 229.38 49.73ZM195.7 0.93C191.79 0.93 188.6 4.11 188.6 8.02V41.71C188.6 45.62 191.78 48.8 195.7 48.8H229.39C233.3 48.8 236.49 45.62 236.49 41.71V8.02C236.49 4.11 233.31 0.93 229.39 0.93H195.7Z" fill="black"/>
<path id="Vector_42" d="M212.54 6.61937C204.64 6.61937 198.22 13.0894 198.22 21.0494C198.22 23.8694 199.03 26.5994 200.56 28.9494L200.6 29.0094C200.77 29.2694 200.96 29.5394 201.15 29.7894L210.9 42.4394C210.9 42.4394 210.9 42.4394 210.9 42.4494L211.39 43.1194V42.4294C211.39 37.5494 209.92 35.6294 209.4 34.8294C209.3 34.6694 209.33 34.3994 209.32 34.1694C209.32 34.0494 209.42 33.9594 209.53 33.9694C210.51 34.2294 211.52 34.3594 212.55 34.3594C213.58 34.3594 214.6 34.2294 215.58 33.9694C215.68 33.9694 215.76 34.0594 215.76 34.1694C215.76 34.3894 215.79 34.6694 215.68 34.8294C215.16 35.6294 213.69 37.5494 213.69 42.4294V43.0694L214.38 42.1694L223.84 29.8794C225.81 27.3294 226.85 24.2694 226.85 21.0394C226.85 13.0894 220.43 6.60938 212.53 6.60938L212.54 6.61937ZM219.58 30.4294C217.52 31.9494 215.09 32.7494 212.55 32.7494C208.75 32.7494 205.14 30.8994 202.9 27.8094C199.02 22.4594 200.19 14.9194 205.5 11.0094C207.56 9.48938 209.99 8.68937 212.53 8.68937C216.33 8.68937 219.94 10.5394 222.18 13.6294C226.06 18.9794 224.89 26.5194 219.58 30.4294Z" fill="black"/>
</g>
</g>
<g id="Front - Dark Tag">
<path id="Vector_43" d="M62.0996 33.0805C62.0996 27.3205 66.7196 22.7305 72.4796 22.7305C74.9296 22.7305 77.0096 23.1905 78.9496 24.3805C79.4896 24.7205 79.6096 25.2105 79.2896 25.8105L78.9996 26.2905C78.6896 26.9205 78.1996 27.0005 77.5696 26.6605C75.3496 25.4605 73.9796 25.4305 72.4696 25.4305C68.4196 25.4305 65.1696 28.7905 65.1696 33.0405C65.1696 36.8605 67.7396 40.5905 72.8696 40.5905C74.6096 40.5905 76.0896 40.1605 77.4296 39.3105V35.3505H72.9296C72.2696 35.3505 71.8996 34.9505 71.8996 34.3005V33.9605C71.8996 33.3005 72.2696 32.9305 72.9296 32.9305H79.1696C79.8296 32.9305 80.1996 33.3005 80.1996 33.9605V39.7205C80.1996 40.2605 79.9696 40.7205 79.3196 41.2305C77.0396 42.9105 74.5596 43.3105 72.7396 43.3105C66.5496 43.3105 62.1096 38.6905 62.1096 33.0805" fill="white"/>
<path id="Vector_44" d="M83.0498 33.0205C83.0498 27.3505 87.6698 22.7305 93.4298 22.7305C99.1898 22.7305 103.81 27.3505 103.81 33.0205C103.81 38.6905 99.1898 43.3105 93.4298 43.3105C87.6698 43.3105 83.0498 38.6905 83.0498 33.0205ZM100.72 33.0205C100.72 28.7205 97.4398 25.4405 93.4198 25.4405C89.3998 25.4405 86.1198 28.7205 86.1198 33.0205C86.1198 37.3205 89.3998 40.6005 93.4198 40.6005C97.4398 40.6005 100.72 37.3205 100.72 33.0205Z" fill="white"/>
<path id="Vector_45" d="M107.22 41.9808V24.0808C107.22 23.4208 107.59 23.0508 108.25 23.0508H109.22C109.88 23.0508 110.25 23.4208 110.25 24.0808V40.5308H118.32C118.98 40.5308 119.37 40.9008 119.37 41.5608V41.9908C119.37 42.6508 118.97 43.0208 118.32 43.0208H108.26C107.6 43.0208 107.23 42.6508 107.23 41.9908" fill="white"/>
<path id="Vector_46" d="M134.73 24.0691V24.4991C134.73 25.1591 134.36 25.5291 133.7 25.5291H124.98V31.9991H132.45C133.11 31.9991 133.5 32.3691 133.5 33.0291V33.3991C133.5 34.0591 133.1 34.4491 132.45 34.4491H124.98V41.9691C124.98 42.6291 124.61 42.9991 123.95 42.9991H122.98C122.32 42.9991 121.95 42.6291 121.95 41.9691V24.0691C121.95 23.4091 122.32 23.0391 122.98 23.0391H133.7C134.36 23.0391 134.73 23.4091 134.73 24.0691Z" fill="white"/>
<path id="Vector_47" d="M136.72 39.2705C136.44 38.6405 136.78 38.1605 137.4 37.9905L138.23 37.7905C138.86 37.6505 139.2 37.8805 139.51 38.4705C140.22 39.7005 141.73 40.6605 143.73 40.6605C146.3 40.6605 147.86 39.4105 147.86 37.7005C147.86 36.1905 146.61 35.2505 144.98 34.6505L142.02 33.6505C138.26 32.4005 137.35 30.1405 137.35 28.2905C137.35 24.8405 140.37 22.7305 143.82 22.7305C146.96 22.7305 149.18 24.2405 150.09 26.4905C150.35 27.1205 150.03 27.6005 149.41 27.7705L148.7 28.0005C148.07 28.1705 147.67 27.9405 147.39 27.3405C146.73 26.0305 145.51 25.4005 143.86 25.4005C141.98 25.4005 140.41 26.4305 140.41 28.1905C140.41 29.0205 140.67 30.1005 142.95 30.9605L145.91 32.0705C149.27 33.1205 150.81 35.3505 150.81 37.4905C150.81 41.0805 147.96 43.3005 143.8 43.3005C140.27 43.3005 137.76 41.5905 136.73 39.2505" fill="white"/>
<path id="Vector_48" d="M168.73 24.0691V24.4991C168.73 25.1591 168.36 25.5291 167.7 25.5291H162.14V41.9791C162.14 42.6391 161.77 43.0091 161.11 43.0091H160.17C159.51 43.0091 159.14 42.6391 159.14 41.9791V25.5291H153.58C152.95 25.5291 152.55 25.1591 152.55 24.4991V24.0691C152.55 23.4091 152.95 23.0391 153.58 23.0391H167.69C168.35 23.0391 168.72 23.4091 168.72 24.0691" fill="white"/>
<path id="Vector_49" d="M167.9 41.7991L174.77 23.8691C174.97 23.3291 175.4 23.0391 175.97 23.0391H177.62C178.22 23.0391 178.62 23.3291 178.82 23.8691L185.75 41.7991C186.01 42.5091 185.72 42.9991 184.95 42.9991H184.04C183.44 42.9991 183.04 42.7391 182.81 42.1691L181.58 38.9191H172.06L170.83 42.1691C170.6 42.7391 170.23 42.9991 169.63 42.9991H168.69C167.92 42.9991 167.61 42.5191 167.89 41.7991M180.73 36.4691L176.8 25.9791L172.92 36.4691H180.73Z" fill="white"/>
<path id="Vector_50" d="M201.05 24.0691V24.4991C201.05 25.1591 200.68 25.5291 200.02 25.5291H194.46V41.9791C194.46 42.6391 194.09 43.0091 193.43 43.0091H192.49C191.83 43.0091 191.46 42.6391 191.46 41.9791V25.5291H185.9C185.27 25.5291 184.87 25.1591 184.87 24.4991V24.0691C184.87 23.4091 185.27 23.0391 185.9 23.0391H200.01C200.67 23.0391 201.04 23.4091 201.04 24.0691" fill="white"/>
<path id="Vector_51" d="M204.02 35.5891V24.0691C204.02 23.4091 204.42 23.0391 205.05 23.0391H206.02C206.68 23.0391 207.05 23.4091 207.05 24.0691V35.5891C207.05 38.9491 209.33 40.6091 211.95 40.6091C214.57 40.6091 216.88 38.9591 216.88 35.5891V24.0691C216.88 23.4091 217.25 23.0391 217.91 23.0391H218.85C219.51 23.0391 219.91 23.4091 219.91 24.0691V35.5891C219.91 40.6591 216.26 43.3191 211.96 43.3191C207.66 43.3191 204.04 40.6691 204.04 35.5891" fill="white"/>
<path id="Vector_52" d="M223.03 39.2705C222.75 38.6405 223.09 38.1605 223.71 37.9905L224.54 37.7905C225.17 37.6505 225.51 37.8805 225.82 38.4705C226.53 39.7005 228.04 40.6605 230.04 40.6605C232.61 40.6605 234.17 39.4105 234.17 37.7005C234.17 36.1905 232.92 35.2505 231.29 34.6505L228.33 33.6505C224.57 32.4005 223.66 30.1405 223.66 28.2905C223.66 24.8405 226.68 22.7305 230.13 22.7305C233.27 22.7305 235.49 24.2405 236.4 26.4905C236.66 27.1205 236.34 27.6005 235.72 27.7705L235.01 28.0005C234.38 28.1705 233.98 27.9405 233.7 27.3405C233.04 26.0305 231.82 25.4005 230.17 25.4005C228.29 25.4005 226.72 26.4305 226.72 28.1905C226.72 29.0205 226.98 30.1005 229.26 30.9605L232.22 32.0705C235.58 33.1205 237.12 35.3505 237.12 37.4905C237.12 41.0805 234.27 43.3005 230.11 43.3005C226.58 43.3005 224.07 41.5905 223.04 39.2505" fill="white"/>
<path id="Vector_53" d="M62.3203 14.8291V6.28906H64.1603C64.5003 6.28906 64.7903 6.32906 65.0503 6.41906C65.3103 6.50906 65.5403 6.65906 65.7503 6.88906C65.9603 7.10906 66.1003 7.37906 66.1803 7.67906C66.2603 7.97906 66.3003 8.38906 66.3003 8.89906C66.3003 9.27906 66.2803 9.60906 66.2303 9.86906C66.1903 10.1291 66.0903 10.3791 65.9503 10.6091C65.7803 10.8891 65.5603 11.1091 65.2803 11.2591C65.0003 11.4191 64.6303 11.4891 64.1803 11.4891H63.5603V14.8291H62.3403H62.3203ZM63.5403 7.43906V10.3391H64.1303C64.3803 10.3391 64.5703 10.2991 64.7103 10.2291C64.8503 10.1591 64.9503 10.0591 65.0103 9.92906C65.0703 9.80906 65.1103 9.65906 65.1203 9.48906C65.1303 9.30906 65.1403 9.11906 65.1403 8.89906C65.1403 8.69906 65.1403 8.50906 65.1303 8.32906C65.1303 8.14906 65.0903 7.98906 65.0203 7.85906C64.9603 7.71906 64.8603 7.61906 64.7303 7.54906C64.6003 7.47906 64.4203 7.43906 64.1803 7.43906H63.5403Z" fill="white"/>
<path id="Vector_54" d="M69.71 8.31047C69.71 7.97047 69.77 7.66047 69.89 7.40047C70.01 7.14047 70.17 6.92047 70.37 6.74047C70.56 6.57047 70.78 6.44047 71.02 6.36047C71.26 6.27047 71.51 6.23047 71.76 6.23047C72.01 6.23047 72.25 6.27047 72.5 6.36047C72.74 6.45047 72.97 6.58047 73.17 6.74047C73.36 6.92047 73.52 7.14047 73.64 7.40047C73.76 7.66047 73.82 7.97047 73.82 8.31047V12.8205C73.82 13.1805 73.76 13.4905 73.64 13.7405C73.52 13.9905 73.36 14.2105 73.17 14.3805C72.97 14.5605 72.75 14.6905 72.5 14.7805C72.25 14.8705 72.01 14.9105 71.76 14.9105C71.51 14.9105 71.27 14.8705 71.02 14.7805C70.78 14.6905 70.56 14.5605 70.37 14.3805C70.17 14.2105 70.01 14.0005 69.89 13.7405C69.77 13.4805 69.71 13.1805 69.71 12.8205V8.31047ZM70.93 12.8205C70.93 13.1205 71.01 13.3305 71.18 13.4705C71.34 13.6105 71.54 13.6805 71.76 13.6805C71.98 13.6805 72.18 13.6105 72.34 13.4705C72.5 13.3305 72.59 13.1105 72.59 12.8205V8.31047C72.59 8.01047 72.51 7.80047 72.34 7.66047C72.18 7.52047 71.98 7.45047 71.76 7.45047C71.54 7.45047 71.34 7.52047 71.18 7.66047C71.02 7.80047 70.93 8.02047 70.93 8.31047V12.8205Z" fill="white"/>
<path id="Vector_55" d="M83.68 6.28906L82.41 14.8291H81.26L80.32 9.28906H80.3L79.38 14.8291H78.23L76.96 6.28906H78.26L78.87 11.7091H78.89L79.85 6.28906H80.79L81.79 11.8491H81.81L82.4 6.28906H83.7H83.68Z" fill="white"/>
<path id="Vector_56" d="M87.0303 14.8291V6.28906H90.6803V7.43906H88.2603V9.94906H90.3703V11.0991H88.2603V13.6091H90.6803V14.8291H87.0303Z" fill="white"/>
<path id="Vector_57" d="M94.0498 14.8291V6.28906H96.0198C97.4598 6.28906 98.1798 7.12906 98.1798 8.79906C98.1798 9.29906 98.0998 9.72906 97.9498 10.0791C97.7898 10.4291 97.5198 10.7191 97.1298 10.9291L98.4498 14.8291H97.1498L96.0098 11.1791H95.2798V14.8291H94.0598H94.0498ZM95.2698 7.43906V10.0991H95.9698C96.1898 10.0991 96.3598 10.0691 96.4898 10.0091C96.6198 9.94906 96.7198 9.85906 96.7898 9.74906C96.8498 9.63906 96.8998 9.49906 96.9198 9.33906C96.9398 9.17906 96.9598 8.98906 96.9598 8.76906C96.9598 8.54906 96.9498 8.35906 96.9198 8.19906C96.8998 8.03906 96.8498 7.88906 96.7798 7.76906C96.6298 7.54906 96.3398 7.42906 95.9198 7.42906H95.2798L95.2698 7.43906Z" fill="white"/>
<path id="Vector_58" d="M101.74 14.8291V6.28906H105.39V7.43906H102.97V9.94906H105.08V11.0991H102.97V13.6091H105.39V14.8291H101.74Z" fill="white"/>
<path id="Vector_59" d="M108.76 14.8291V6.28906H110.57C111.27 6.28906 111.81 6.47906 112.17 6.86906C112.53 7.24906 112.72 7.79906 112.72 8.49906V12.4991C112.72 13.2991 112.53 13.8891 112.14 14.2691C111.75 14.6491 111.19 14.8391 110.47 14.8391H108.77L108.76 14.8291ZM109.98 7.43906V13.6791H110.54C110.88 13.6791 111.13 13.5891 111.27 13.4191C111.41 13.2491 111.49 12.9791 111.49 12.6091V8.48906C111.49 8.14906 111.42 7.88906 111.29 7.70906C111.15 7.52906 110.91 7.42906 110.55 7.42906H109.99L109.98 7.43906Z" fill="white"/>
<path id="Vector_60" d="M121.26 14.8291V6.28906H123.05C123.44 6.28906 123.78 6.34906 124.05 6.46906C124.33 6.58906 124.55 6.74906 124.73 6.94906C124.91 7.14906 125.03 7.37906 125.11 7.63906C125.19 7.89906 125.22 8.16906 125.22 8.44906V8.75906C125.22 8.98906 125.2 9.18906 125.17 9.34906C125.13 9.50906 125.08 9.64906 125.01 9.76906C124.87 9.98906 124.67 10.1891 124.39 10.3491C124.68 10.4891 124.89 10.6891 125.03 10.9491C125.17 11.2091 125.23 11.5691 125.23 12.0291V12.5091C125.23 13.2591 125.05 13.8391 124.68 14.2391C124.32 14.6391 123.73 14.8391 122.93 14.8391H121.26V14.8291ZM122.49 7.43906V9.78906H123.04C123.45 9.78906 123.72 9.68906 123.86 9.47906C124 9.26906 124.07 8.97906 124.07 8.58906C124.07 8.19906 123.99 7.91906 123.84 7.72906C123.68 7.53906 123.4 7.43906 122.99 7.43906H122.49ZM122.49 10.8691V13.6091H123.02C123.27 13.6091 123.46 13.5691 123.6 13.4991C123.74 13.4291 123.85 13.3291 123.92 13.1991C123.99 13.0691 124.04 12.9191 124.05 12.7391C124.07 12.5591 124.07 12.3691 124.07 12.1591C124.07 11.9491 124.06 11.7591 124.03 11.5991C124.01 11.4391 123.96 11.2991 123.89 11.1891C123.81 11.0791 123.7 10.9991 123.57 10.9391C123.44 10.8791 123.25 10.8591 123.03 10.8591H122.49V10.8691Z" fill="white"/>
<path id="Vector_61" d="M130.09 14.8291V11.2191L128.41 6.28906H129.71L130.69 9.68906H130.71L131.69 6.28906H132.99L131.31 11.2191V14.8291H130.09Z" fill="white"/>
<g id="Layer_1-2">
<path id="Vector_62" d="M42.71 49.73H9.02C4.6 49.73 1 46.13 1 41.71V8.02C1 3.6 4.6 0 9.02 0H42.71C47.13 0 50.73 3.6 50.73 8.02V41.71C50.73 46.13 47.13 49.73 42.71 49.73ZM9.02 0.93C5.11 0.93 1.93 4.11 1.93 8.02V41.71C1.93 45.62 5.11 48.8 9.03 48.8H42.72C46.63 48.8 49.82 45.62 49.82 41.71V8.02C49.82 4.11 46.64 0.93 42.72 0.93H9.02Z" fill="white"/>
<path id="Vector_63" d="M25.8698 6.61937C17.9698 6.61937 11.5498 13.0894 11.5498 21.0494C11.5498 23.8694 12.3598 26.5994 13.8898 28.9494L13.9298 29.0094C14.0998 29.2694 14.2898 29.5394 14.4798 29.7894L24.2298 42.4394C24.2298 42.4394 24.2298 42.4394 24.2298 42.4494L24.7198 43.1194V42.4294C24.7198 37.5494 23.2498 35.6294 22.7298 34.8294C22.6298 34.6694 22.6598 34.3994 22.6498 34.1694C22.6498 34.0494 22.7498 33.9594 22.8598 33.9694C23.8398 34.2294 24.8498 34.3594 25.8798 34.3594C26.9098 34.3594 27.9298 34.2294 28.9098 33.9694C29.0098 33.9694 29.0898 34.0594 29.0898 34.1694C29.0898 34.3894 29.1198 34.6694 29.0098 34.8294C28.4898 35.6294 27.0198 37.5494 27.0198 42.4294V43.0694L27.7098 42.1694L37.1698 29.8794C39.1398 27.3294 40.1798 24.2694 40.1798 21.0394C40.1798 13.0894 33.7598 6.60938 25.8598 6.60938L25.8698 6.61937ZM32.9098 30.4294C30.8498 31.9494 28.4198 32.7494 25.8798 32.7494C22.0798 32.7494 18.4698 30.8994 16.2298 27.8094C12.3498 22.4594 13.5198 14.9194 18.8298 11.0094C20.8898 9.48938 23.3198 8.68937 25.8598 8.68937C29.6598 8.68937 33.2698 10.5394 35.5098 13.6294C39.3898 18.9794 38.2198 26.5194 32.9098 30.4294Z" fill="white"/>
</g>
</g>
<g id="Front - Light Tag">
<path id="Vector_64" d="M62.0996 33.0805C62.0996 27.3205 66.7196 22.7305 72.4796 22.7305C74.9296 22.7305 77.0096 23.1905 78.9496 24.3805C79.4896 24.7205 79.6096 25.2105 79.2896 25.8105L78.9996 26.2905C78.6896 26.9205 78.1996 27.0005 77.5696 26.6605C75.3496 25.4605 73.9796 25.4305 72.4696 25.4305C68.4196 25.4305 65.1696 28.7905 65.1696 33.0405C65.1696 36.8605 67.7396 40.5905 72.8696 40.5905C74.6096 40.5905 76.0896 40.1605 77.4296 39.3105V35.3505H72.9296C72.2696 35.3505 71.8996 34.9505 71.8996 34.3005V33.9605C71.8996 33.3005 72.2696 32.9305 72.9296 32.9305H79.1696C79.8296 32.9305 80.1996 33.3005 80.1996 33.9605V39.7205C80.1996 40.2605 79.9696 40.7205 79.3196 41.2305C77.0396 42.9105 74.5596 43.3105 72.7396 43.3105C66.5496 43.3105 62.1096 38.6905 62.1096 33.0805" fill="black"/>
<path id="Vector_65" d="M83.0498 33.0205C83.0498 27.3505 87.6698 22.7305 93.4298 22.7305C99.1898 22.7305 103.81 27.3505 103.81 33.0205C103.81 38.6905 99.1898 43.3105 93.4298 43.3105C87.6698 43.3105 83.0498 38.6905 83.0498 33.0205ZM100.72 33.0205C100.72 28.7205 97.4398 25.4405 93.4198 25.4405C89.3998 25.4405 86.1198 28.7205 86.1198 33.0205C86.1198 37.3205 89.3998 40.6005 93.4198 40.6005C97.4398 40.6005 100.72 37.3205 100.72 33.0205Z" fill="black"/>
<path id="Vector_66" d="M107.22 41.9808V24.0808C107.22 23.4208 107.59 23.0508 108.25 23.0508H109.22C109.88 23.0508 110.25 23.4208 110.25 24.0808V40.5308H118.32C118.98 40.5308 119.37 40.9008 119.37 41.5608V41.9908C119.37 42.6508 118.97 43.0208 118.32 43.0208H108.26C107.6 43.0208 107.23 42.6508 107.23 41.9908" fill="black"/>
<path id="Vector_67" d="M134.73 24.0691V24.4991C134.73 25.1591 134.36 25.5291 133.7 25.5291H124.98V31.9991H132.45C133.11 31.9991 133.5 32.3691 133.5 33.0291V33.3991C133.5 34.0591 133.1 34.4491 132.45 34.4491H124.98V41.9691C124.98 42.6291 124.61 42.9991 123.95 42.9991H122.98C122.32 42.9991 121.95 42.6291 121.95 41.9691V24.0691C121.95 23.4091 122.32 23.0391 122.98 23.0391H133.7C134.36 23.0391 134.73 23.4091 134.73 24.0691Z" fill="black"/>
<path id="Vector_68" d="M136.72 39.2705C136.44 38.6405 136.78 38.1605 137.4 37.9905L138.23 37.7905C138.86 37.6505 139.2 37.8805 139.51 38.4705C140.22 39.7005 141.73 40.6605 143.73 40.6605C146.3 40.6605 147.86 39.4105 147.86 37.7005C147.86 36.1905 146.61 35.2505 144.98 34.6505L142.02 33.6505C138.26 32.4005 137.35 30.1405 137.35 28.2905C137.35 24.8405 140.37 22.7305 143.82 22.7305C146.96 22.7305 149.18 24.2405 150.09 26.4905C150.35 27.1205 150.03 27.6005 149.41 27.7705L148.7 28.0005C148.07 28.1705 147.67 27.9405 147.39 27.3405C146.73 26.0305 145.51 25.4005 143.86 25.4005C141.98 25.4005 140.41 26.4305 140.41 28.1905C140.41 29.0205 140.67 30.1005 142.95 30.9605L145.91 32.0705C149.27 33.1205 150.81 35.3505 150.81 37.4905C150.81 41.0805 147.96 43.3005 143.8 43.3005C140.27 43.3005 137.76 41.5905 136.73 39.2505" fill="black"/>
<path id="Vector_69" d="M168.73 24.0691V24.4991C168.73 25.1591 168.36 25.5291 167.7 25.5291H162.14V41.9791C162.14 42.6391 161.77 43.0091 161.11 43.0091H160.17C159.51 43.0091 159.14 42.6391 159.14 41.9791V25.5291H153.58C152.95 25.5291 152.55 25.1591 152.55 24.4991V24.0691C152.55 23.4091 152.95 23.0391 153.58 23.0391H167.69C168.35 23.0391 168.72 23.4091 168.72 24.0691" fill="black"/>
<path id="Vector_70" d="M167.9 41.7991L174.77 23.8691C174.97 23.3291 175.4 23.0391 175.97 23.0391H177.62C178.22 23.0391 178.62 23.3291 178.82 23.8691L185.75 41.7991C186.01 42.5091 185.72 42.9991 184.95 42.9991H184.04C183.44 42.9991 183.04 42.7391 182.81 42.1691L181.58 38.9191H172.06L170.83 42.1691C170.6 42.7391 170.23 42.9991 169.63 42.9991H168.69C167.92 42.9991 167.61 42.5191 167.89 41.7991M180.73 36.4691L176.8 25.9791L172.92 36.4691H180.73Z" fill="black"/>
<path id="Vector_71" d="M201.05 24.0691V24.4991C201.05 25.1591 200.68 25.5291 200.02 25.5291H194.46V41.9791C194.46 42.6391 194.09 43.0091 193.43 43.0091H192.49C191.83 43.0091 191.46 42.6391 191.46 41.9791V25.5291H185.9C185.27 25.5291 184.87 25.1591 184.87 24.4991V24.0691C184.87 23.4091 185.27 23.0391 185.9 23.0391H200.01C200.67 23.0391 201.04 23.4091 201.04 24.0691" fill="black"/>
<path id="Vector_72" d="M204.02 35.5891V24.0691C204.02 23.4091 204.42 23.0391 205.05 23.0391H206.02C206.68 23.0391 207.05 23.4091 207.05 24.0691V35.5891C207.05 38.9491 209.33 40.6091 211.95 40.6091C214.57 40.6091 216.88 38.9591 216.88 35.5891V24.0691C216.88 23.4091 217.25 23.0391 217.91 23.0391H218.85C219.51 23.0391 219.91 23.4091 219.91 24.0691V35.5891C219.91 40.6591 216.26 43.3191 211.96 43.3191C207.66 43.3191 204.04 40.6691 204.04 35.5891" fill="black"/>
<path id="Vector_73" d="M223.03 39.2705C222.75 38.6405 223.09 38.1605 223.71 37.9905L224.54 37.7905C225.17 37.6505 225.51 37.8805 225.82 38.4705C226.53 39.7005 228.04 40.6605 230.04 40.6605C232.61 40.6605 234.17 39.4105 234.17 37.7005C234.17 36.1905 232.92 35.2505 231.29 34.6505L228.33 33.6505C224.57 32.4005 223.66 30.1405 223.66 28.2905C223.66 24.8405 226.68 22.7305 230.13 22.7305C233.27 22.7305 235.49 24.2405 236.4 26.4905C236.66 27.1205 236.34 27.6005 235.72 27.7705L235.01 28.0005C234.38 28.1705 233.98 27.9405 233.7 27.3405C233.04 26.0305 231.82 25.4005 230.17 25.4005C228.29 25.4005 226.72 26.4305 226.72 28.1905C226.72 29.0205 226.98 30.1005 229.26 30.9605L232.22 32.0705C235.58 33.1205 237.12 35.3505 237.12 37.4905C237.12 41.0805 234.27 43.3005 230.11 43.3005C226.58 43.3005 224.07 41.5905 223.04 39.2505" fill="black"/>
<path id="Vector_74" d="M62.3203 14.8291V6.28906H64.1603C64.5003 6.28906 64.7903 6.32906 65.0503 6.41906C65.3103 6.50906 65.5403 6.65906 65.7503 6.88906C65.9603 7.10906 66.1003 7.37906 66.1803 7.67906C66.2603 7.97906 66.3003 8.38906 66.3003 8.89906C66.3003 9.27906 66.2803 9.60906 66.2303 9.86906C66.1903 10.1291 66.0903 10.3791 65.9503 10.6091C65.7803 10.8891 65.5603 11.1091 65.2803 11.2591C65.0003 11.4191 64.6303 11.4891 64.1803 11.4891H63.5603V14.8291H62.3403H62.3203ZM63.5403 7.43906V10.3391H64.1303C64.3803 10.3391 64.5703 10.2991 64.7103 10.2291C64.8503 10.1591 64.9503 10.0591 65.0103 9.92906C65.0703 9.80906 65.1103 9.65906 65.1203 9.48906C65.1303 9.30906 65.1403 9.11906 65.1403 8.89906C65.1403 8.69906 65.1403 8.50906 65.1303 8.32906C65.1303 8.14906 65.0903 7.98906 65.0203 7.85906C64.9603 7.71906 64.8603 7.61906 64.7303 7.54906C64.6003 7.47906 64.4203 7.43906 64.1803 7.43906H63.5403Z" fill="black"/>
<path id="Vector_75" d="M69.71 8.31047C69.71 7.97047 69.77 7.66047 69.89 7.40047C70.01 7.14047 70.17 6.92047 70.37 6.74047C70.56 6.57047 70.78 6.44047 71.02 6.36047C71.26 6.27047 71.51 6.23047 71.76 6.23047C72.01 6.23047 72.25 6.27047 72.5 6.36047C72.74 6.45047 72.97 6.58047 73.17 6.74047C73.36 6.92047 73.52 7.14047 73.64 7.40047C73.76 7.66047 73.82 7.97047 73.82 8.31047V12.8205C73.82 13.1805 73.76 13.4905 73.64 13.7405C73.52 13.9905 73.36 14.2105 73.17 14.3805C72.97 14.5605 72.75 14.6905 72.5 14.7805C72.25 14.8705 72.01 14.9105 71.76 14.9105C71.51 14.9105 71.27 14.8705 71.02 14.7805C70.78 14.6905 70.56 14.5605 70.37 14.3805C70.17 14.2105 70.01 14.0005 69.89 13.7405C69.77 13.4805 69.71 13.1805 69.71 12.8205V8.31047ZM70.93 12.8205C70.93 13.1205 71.01 13.3305 71.18 13.4705C71.34 13.6105 71.54 13.6805 71.76 13.6805C71.98 13.6805 72.18 13.6105 72.34 13.4705C72.5 13.3305 72.59 13.1105 72.59 12.8205V8.31047C72.59 8.01047 72.51 7.80047 72.34 7.66047C72.18 7.52047 71.98 7.45047 71.76 7.45047C71.54 7.45047 71.34 7.52047 71.18 7.66047C71.02 7.80047 70.93 8.02047 70.93 8.31047V12.8205Z" fill="black"/>
<path id="Vector_76" d="M83.68 6.28906L82.41 14.8291H81.26L80.32 9.28906H80.3L79.38 14.8291H78.23L76.96 6.28906H78.26L78.87 11.7091H78.89L79.85 6.28906H80.79L81.79 11.8491H81.81L82.4 6.28906H83.7H83.68Z" fill="black"/>
<path id="Vector_77" d="M87.0303 14.8291V6.28906H90.6803V7.43906H88.2603V9.94906H90.3703V11.0991H88.2603V13.6091H90.6803V14.8291H87.0303Z" fill="black"/>
<path id="Vector_78" d="M94.0498 14.8291V6.28906H96.0198C97.4598 6.28906 98.1798 7.12906 98.1798 8.79906C98.1798 9.29906 98.0998 9.72906 97.9498 10.0791C97.7898 10.4291 97.5198 10.7191 97.1298 10.9291L98.4498 14.8291H97.1498L96.0098 11.1791H95.2798V14.8291H94.0598H94.0498ZM95.2698 7.43906V10.0991H95.9698C96.1898 10.0991 96.3598 10.0691 96.4898 10.0091C96.6198 9.94906 96.7198 9.85906 96.7898 9.74906C96.8498 9.63906 96.8998 9.49906 96.9198 9.33906C96.9398 9.17906 96.9598 8.98906 96.9598 8.76906C96.9598 8.54906 96.9498 8.35906 96.9198 8.19906C96.8998 8.03906 96.8498 7.88906 96.7798 7.76906C96.6298 7.54906 96.3398 7.42906 95.9198 7.42906H95.2798L95.2698 7.43906Z" fill="black"/>
<path id="Vector_79" d="M101.74 14.8291V6.28906H105.39V7.43906H102.97V9.94906H105.08V11.0991H102.97V13.6091H105.39V14.8291H101.74Z" fill="black"/>
<path id="Vector_80" d="M108.76 14.8291V6.28906H110.57C111.27 6.28906 111.81 6.47906 112.17 6.86906C112.53 7.24906 112.72 7.79906 112.72 8.49906V12.4991C112.72 13.2991 112.53 13.8891 112.14 14.2691C111.75 14.6491 111.19 14.8391 110.47 14.8391H108.77L108.76 14.8291ZM109.98 7.43906V13.6791H110.54C110.88 13.6791 111.13 13.5891 111.27 13.4191C111.41 13.2491 111.49 12.9791 111.49 12.6091V8.48906C111.49 8.14906 111.42 7.88906 111.29 7.70906C111.15 7.52906 110.91 7.42906 110.55 7.42906H109.99L109.98 7.43906Z" fill="black"/>
<path id="Vector_81" d="M121.26 14.8291V6.28906H123.05C123.44 6.28906 123.78 6.34906 124.05 6.46906C124.33 6.58906 124.55 6.74906 124.73 6.94906C124.91 7.14906 125.03 7.37906 125.11 7.63906C125.19 7.89906 125.22 8.16906 125.22 8.44906V8.75906C125.22 8.98906 125.2 9.18906 125.17 9.34906C125.13 9.50906 125.08 9.64906 125.01 9.76906C124.87 9.98906 124.67 10.1891 124.39 10.3491C124.68 10.4891 124.89 10.6891 125.03 10.9491C125.17 11.2091 125.23 11.5691 125.23 12.0291V12.5091C125.23 13.2591 125.05 13.8391 124.68 14.2391C124.32 14.6391 123.73 14.8391 122.93 14.8391H121.26V14.8291ZM122.49 7.43906V9.78906H123.04C123.45 9.78906 123.72 9.68906 123.86 9.47906C124 9.26906 124.07 8.97906 124.07 8.58906C124.07 8.19906 123.99 7.91906 123.84 7.72906C123.68 7.53906 123.4 7.43906 122.99 7.43906H122.49ZM122.49 10.8691V13.6091H123.02C123.27 13.6091 123.46 13.5691 123.6 13.4991C123.74 13.4291 123.85 13.3291 123.92 13.1991C123.99 13.0691 124.04 12.9191 124.05 12.7391C124.07 12.5591 124.07 12.3691 124.07 12.1591C124.07 11.9491 124.06 11.7591 124.03 11.5991C124.01 11.4391 123.96 11.2991 123.89 11.1891C123.81 11.0791 123.7 10.9991 123.57 10.9391C123.44 10.8791 123.25 10.8591 123.03 10.8591H122.49V10.8691Z" fill="black"/>
<path id="Vector_82" d="M130.09 14.8291V11.2191L128.41 6.28906H129.71L130.69 9.68906H130.71L131.69 6.28906H132.99L131.31 11.2191V14.8291H130.09Z" fill="black"/>
<g id="Layer_1-2_2">
<path id="Vector_83" d="M42.71 49.73H9.02C4.6 49.73 1 46.13 1 41.71V8.02C1 3.6 4.6 0 9.02 0H42.71C47.13 0 50.73 3.6 50.73 8.02V41.71C50.73 46.13 47.13 49.73 42.71 49.73ZM9.02 0.93C5.11 0.93 1.93 4.11 1.93 8.02V41.71C1.93 45.62 5.11 48.8 9.03 48.8H42.72C46.63 48.8 49.82 45.62 49.82 41.71V8.02C49.82 4.11 46.64 0.93 42.72 0.93H9.02Z" fill="black"/>
<path id="Vector_84" d="M25.8698 6.61937C17.9698 6.61937 11.5498 13.0894 11.5498 21.0494C11.5498 23.8694 12.3598 26.5994 13.8898 28.9494L13.9298 29.0094C14.0998 29.2694 14.2898 29.5394 14.4798 29.7894L24.2298 42.4394C24.2298 42.4394 24.2298 42.4394 24.2298 42.4494L24.7198 43.1194V42.4294C24.7198 37.5494 23.2498 35.6294 22.7298 34.8294C22.6298 34.6694 22.6598 34.3994 22.6498 34.1694C22.6498 34.0494 22.7498 33.9594 22.8598 33.9694C23.8398 34.2294 24.8498 34.3594 25.8798 34.3594C26.9098 34.3594 27.9298 34.2294 28.9098 33.9694C29.0098 33.9694 29.0898 34.0594 29.0898 34.1694C29.0898 34.3894 29.1198 34.6694 29.0098 34.8294C28.4898 35.6294 27.0198 37.5494 27.0198 42.4294V43.0694L27.7098 42.1694L37.1698 29.8794C39.1398 27.3294 40.1798 24.2694 40.1798 21.0394C40.1798 13.0894 33.7598 6.60938 25.8598 6.60938L25.8698 6.61937ZM32.9098 30.4294C30.8498 31.9494 28.4198 32.7494 25.8798 32.7494C22.0798 32.7494 18.4698 30.8994 16.2298 27.8094C12.3498 22.4594 13.5198 14.9194 18.8298 11.0094C20.8898 9.48938 23.3198 8.68937 25.8598 8.68937C29.6598 8.68937 33.2698 10.5394 35.5098 13.6294C39.3898 18.9794 38.2198 26.5194 32.9098 30.4294Z" fill="black"/>
</g>
</g>
</g>
</svg>
