<svg width="7519" height="4669" viewBox="0 0 7519 4669" fill="none" xmlns="http://www.w3.org/2000/svg">
<g id="Pennant">
<rect id="zone-primary" width="7519" height="4669" fill="white"/>
<g id="Bleed">
<g id="Bleed_2">
<path id="Bleed_3" d="M7518.5 0.5V2433.8L306.154 0.5H7518.5Z" fill="#9A9A9A" stroke="#9A9A9A"/>
<rect id="Bleed_4" x="0.5" y="4668.5" width="4668" height="1205" transform="rotate(-90 0.5 4668.5)" fill="#9A9A9A" stroke="#9A9A9A"/>
<path id="Bleed_5" d="M7518.5 4668.5V2235.2L306.154 4668.5H7518.5Z" fill="#9A9A9A" stroke="#9A9A9A"/>
<path id="Bleed_6" d="M1207 460L6744.5 2331L1207 4209" stroke="#9A9A9A" stroke-width="8" stroke-dasharray="20 20"/>
</g>
<g id="GolfStatus Tag">
<g id="Back - Dark Tag">
<path id="Vector" d="M1331.81 3580.98C1331.81 3553.3 1354.02 3531.24 1381.71 3531.24C1393.49 3531.24 1403.49 3533.45 1412.82 3539.17C1415.41 3540.81 1415.99 3543.16 1414.45 3546.04L1413.06 3548.35C1411.57 3551.38 1409.21 3551.76 1406.18 3550.13C1395.51 3544.36 1388.92 3544.22 1381.66 3544.22C1362.19 3544.22 1346.57 3560.37 1346.57 3580.79C1346.57 3599.15 1358.92 3617.08 1383.59 3617.08C1391.95 3617.08 1399.07 3615.01 1405.51 3610.92V3591.89H1383.87C1380.7 3591.89 1378.92 3589.97 1378.92 3586.85V3585.21C1378.92 3582.04 1380.7 3580.26 1383.87 3580.26H1413.88C1417.05 3580.26 1418.83 3582.04 1418.83 3585.21V3612.9C1418.83 3615.49 1417.72 3617.7 1414.6 3620.15C1403.63 3628.23 1391.71 3630.15 1382.96 3630.15C1353.2 3630.15 1331.86 3607.95 1331.86 3580.98" fill="white"/>
<path id="Vector_2" d="M1432.53 3580.7C1432.53 3553.45 1454.74 3531.24 1482.43 3531.24C1510.13 3531.24 1532.34 3553.45 1532.34 3580.7C1532.34 3607.95 1510.13 3630.15 1482.43 3630.15C1454.74 3630.15 1432.53 3607.95 1432.53 3580.7ZM1517.53 3580.7C1517.53 3560.03 1501.76 3544.27 1482.43 3544.27C1463.11 3544.27 1447.34 3560.03 1447.34 3580.7C1447.34 3601.36 1463.11 3617.12 1482.43 3617.12C1501.76 3617.12 1517.53 3601.36 1517.53 3580.7Z" fill="white"/>
<path id="Vector_3" d="M1548.73 3623.76V3537.73C1548.73 3534.56 1550.51 3532.78 1553.68 3532.78H1558.35C1561.52 3532.78 1563.3 3534.56 1563.3 3537.73V3616.79H1602.1C1605.27 3616.79 1607.14 3618.57 1607.14 3621.74V3623.81C1607.14 3626.98 1605.22 3628.76 1602.1 3628.76H1553.73C1550.56 3628.76 1548.78 3626.98 1548.78 3623.81" fill="white"/>
<path id="Vector_4" d="M1680.99 3537.67V3539.74C1680.99 3542.91 1679.21 3544.69 1676.04 3544.69H1634.12V3575.79H1670.03C1673.2 3575.79 1675.08 3577.56 1675.08 3580.74V3582.51C1675.08 3585.69 1673.16 3587.56 1670.03 3587.56H1634.12V3623.7C1634.12 3626.87 1632.34 3628.65 1629.17 3628.65H1624.5C1621.33 3628.65 1619.55 3626.87 1619.55 3623.7V3537.67C1619.55 3534.5 1621.33 3532.72 1624.5 3532.72H1676.04C1679.21 3532.72 1680.99 3534.5 1680.99 3537.67Z" fill="white"/>
<path id="Vector_5" d="M1690.56 3610.73C1689.21 3607.7 1690.85 3605.4 1693.83 3604.58L1697.82 3603.62C1700.85 3602.95 1702.48 3604.05 1703.97 3606.89C1707.39 3612.8 1714.65 3617.41 1724.26 3617.41C1736.62 3617.41 1744.12 3611.41 1744.12 3603.19C1744.12 3595.93 1738.11 3591.41 1730.27 3588.53L1716.04 3583.72C1697.96 3577.72 1693.59 3566.85 1693.59 3557.96C1693.59 3541.38 1708.11 3531.24 1724.7 3531.24C1739.79 3531.24 1750.46 3538.5 1754.84 3549.31C1756.09 3552.34 1754.55 3554.65 1751.57 3555.46L1748.16 3556.57C1745.13 3557.39 1743.21 3556.28 1741.86 3553.4C1738.69 3547.1 1732.82 3544.07 1724.89 3544.07C1715.85 3544.07 1708.3 3549.02 1708.3 3557.48C1708.3 3561.47 1709.55 3566.66 1720.51 3570.8L1734.74 3576.13C1750.9 3581.18 1758.3 3591.89 1758.3 3602.18C1758.3 3619.43 1744.6 3630.1 1724.6 3630.1C1707.63 3630.1 1695.56 3621.88 1690.61 3610.64" fill="white"/>
<path id="Vector_6" d="M1844.45 3537.67V3539.74C1844.45 3542.91 1842.67 3544.69 1839.5 3544.69H1812.77V3623.75C1812.77 3626.92 1810.99 3628.7 1807.82 3628.7H1803.3C1800.13 3628.7 1798.35 3626.92 1798.35 3623.75V3544.69H1771.62C1768.59 3544.69 1766.67 3542.91 1766.67 3539.74V3537.67C1766.67 3534.5 1768.59 3532.72 1771.62 3532.72H1839.45C1842.63 3532.72 1844.41 3534.5 1844.41 3537.67" fill="white"/>
<path id="Vector_7" d="M1840.51 3622.88L1873.54 3536.71C1874.5 3534.12 1876.57 3532.72 1879.31 3532.72H1887.24C1890.13 3532.72 1892.05 3534.12 1893.01 3536.71L1926.33 3622.88C1927.58 3626.3 1926.19 3628.65 1922.48 3628.65H1918.11C1915.23 3628.65 1913.3 3627.4 1912.2 3624.66L1906.28 3609.04H1860.51L1854.6 3624.66C1853.49 3627.4 1851.72 3628.65 1848.83 3628.65H1844.31C1840.61 3628.65 1839.12 3626.34 1840.47 3622.88M1902.15 3597.27L1883.25 3546.85L1864.6 3597.27H1902.15Z" fill="white"/>
<path id="Vector_8" d="M1999.89 3537.67V3539.74C1999.89 3542.91 1998.11 3544.69 1994.93 3544.69H1968.2V3623.75C1968.2 3626.92 1966.42 3628.7 1963.25 3628.7H1958.73C1955.56 3628.7 1953.78 3626.92 1953.78 3623.75V3544.69H1927.05C1924.02 3544.69 1922.1 3542.91 1922.1 3539.74V3537.67C1922.1 3534.5 1924.02 3532.72 1927.05 3532.72H1994.89C1998.06 3532.72 1999.84 3534.5 1999.84 3537.67" fill="white"/>
<path id="Vector_9" d="M2014.12 3593.04V3537.67C2014.12 3534.5 2016.04 3532.72 2019.07 3532.72H2023.73C2026.9 3532.72 2028.68 3534.5 2028.68 3537.67V3593.04C2028.68 3609.19 2039.64 3617.17 2052.24 3617.17C2064.84 3617.17 2075.94 3609.24 2075.94 3593.04V3537.67C2075.94 3534.5 2077.72 3532.72 2080.89 3532.72H2085.41C2088.59 3532.72 2090.51 3534.5 2090.51 3537.67V3593.04C2090.51 3617.41 2072.96 3630.19 2052.29 3630.19C2031.62 3630.19 2014.21 3617.45 2014.21 3593.04" fill="white"/>
<path id="Vector_10" d="M2105.51 3610.73C2104.16 3607.7 2105.8 3605.4 2108.78 3604.58L2112.77 3603.62C2115.8 3602.95 2117.43 3604.05 2118.92 3606.89C2122.34 3612.8 2129.6 3617.41 2139.21 3617.41C2151.57 3617.41 2159.07 3611.41 2159.07 3603.19C2159.07 3595.93 2153.06 3591.41 2145.22 3588.53L2130.99 3583.72C2112.91 3577.72 2108.54 3566.85 2108.54 3557.96C2108.54 3541.38 2123.06 3531.24 2139.65 3531.24C2154.74 3531.24 2165.41 3538.5 2169.79 3549.31C2171.04 3552.34 2169.5 3554.65 2166.52 3555.46L2163.11 3556.57C2160.08 3557.39 2158.16 3556.28 2156.81 3553.4C2153.64 3547.1 2147.77 3544.07 2139.84 3544.07C2130.8 3544.07 2123.25 3549.02 2123.25 3557.48C2123.25 3561.47 2124.5 3566.66 2135.46 3570.8L2149.69 3576.13C2165.85 3581.18 2173.25 3591.89 2173.25 3602.18C2173.25 3619.43 2159.55 3630.1 2139.55 3630.1C2122.58 3630.1 2110.51 3621.88 2105.56 3610.64" fill="white"/>
<path id="Vector_11" d="M1833.45 3493.27V3452.22H1842.29C1843.93 3452.22 1845.32 3452.42 1846.57 3452.85C1847.82 3453.28 1848.93 3454 1849.94 3455.11C1850.95 3456.17 1851.62 3457.46 1852 3458.9C1852.39 3460.35 1852.58 3462.32 1852.58 3464.77C1852.58 3466.59 1852.48 3468.18 1852.24 3469.43C1852.05 3470.68 1851.57 3471.88 1850.9 3472.99C1850.08 3474.33 1849.02 3475.39 1847.68 3476.11C1846.33 3476.88 1844.55 3477.22 1842.39 3477.22H1839.41V3493.27H1833.54H1833.45ZM1839.31 3457.75V3471.69H1842.15C1843.35 3471.69 1844.26 3471.5 1844.94 3471.16C1845.61 3470.82 1846.09 3470.34 1846.38 3469.72C1846.67 3469.14 1846.86 3468.42 1846.91 3467.6C1846.96 3466.74 1847 3465.83 1847 3464.77C1847 3463.81 1847 3462.89 1846.96 3462.03C1846.96 3461.16 1846.76 3460.39 1846.43 3459.77C1846.14 3459.1 1845.66 3458.62 1845.03 3458.28C1844.41 3457.94 1843.54 3457.75 1842.39 3457.75H1839.31Z" fill="white"/>
<path id="Vector_12" d="M1868.97 3461.94C1868.97 3460.31 1869.26 3458.82 1869.84 3457.57C1870.42 3456.32 1871.19 3455.26 1872.15 3454.39C1873.06 3453.58 1874.12 3452.95 1875.27 3452.57C1876.43 3452.14 1877.63 3451.94 1878.83 3451.94C1880.03 3451.94 1881.19 3452.14 1882.39 3452.57C1883.54 3453 1884.65 3453.63 1885.61 3454.39C1886.52 3455.26 1887.29 3456.32 1887.87 3457.57C1888.44 3458.82 1888.73 3460.31 1888.73 3461.94V3483.61C1888.73 3485.34 1888.44 3486.83 1887.87 3488.04C1887.29 3489.24 1886.52 3490.29 1885.61 3491.11C1884.65 3491.98 1883.59 3492.6 1882.39 3493.03C1881.19 3493.47 1880.03 3493.66 1878.83 3493.66C1877.63 3493.66 1876.47 3493.47 1875.27 3493.03C1874.12 3492.6 1873.06 3491.98 1872.15 3491.11C1871.19 3490.29 1870.42 3489.29 1869.84 3488.04C1869.26 3486.79 1868.97 3485.34 1868.97 3483.61V3461.94ZM1874.84 3483.61C1874.84 3485.06 1875.22 3486.07 1876.04 3486.74C1876.81 3487.41 1877.77 3487.75 1878.83 3487.75C1879.89 3487.75 1880.85 3487.41 1881.62 3486.74C1882.39 3486.07 1882.82 3485.01 1882.82 3483.61V3461.94C1882.82 3460.5 1882.44 3459.49 1881.62 3458.82C1880.85 3458.14 1879.89 3457.81 1878.83 3457.81C1877.77 3457.81 1876.81 3458.14 1876.04 3458.82C1875.27 3459.49 1874.84 3460.55 1874.84 3461.94V3483.61Z" fill="white"/>
<path id="Vector_13" d="M1936.14 3452.22L1930.03 3493.27H1924.5L1919.98 3466.64H1919.89L1915.46 3493.27H1909.93L1903.83 3452.22H1910.08L1913.01 3478.27H1913.11L1917.72 3452.22H1922.24L1927.05 3478.95H1927.15L1929.98 3452.22H1936.23H1936.14Z" fill="white"/>
<path id="Vector_14" d="M1952.19 3493.27V3452.22H1969.74V3457.75H1958.11V3469.81H1968.25V3475.34H1958.11V3487.4H1969.74V3493.27H1952.19Z" fill="white"/>
<path id="Vector_15" d="M1985.95 3493.27V3452.22H1995.42C2002.34 3452.22 2005.8 3456.26 2005.8 3464.29C2005.8 3466.69 2005.42 3468.76 2004.7 3470.44C2003.93 3472.12 2002.63 3473.51 2000.75 3474.52L2007.1 3493.27H2000.85L1995.37 3475.73H1991.86V3493.27H1985.99H1985.95ZM1991.86 3457.75V3470.54H1995.22C1996.28 3470.54 1997.1 3470.39 1997.72 3470.1C1998.35 3469.81 1998.83 3469.38 1999.17 3468.85C1999.45 3468.32 1999.7 3467.65 1999.79 3466.88C1999.89 3466.11 1999.98 3465.2 1999.98 3464.14C1999.98 3463.09 1999.94 3462.17 1999.79 3461.4C1999.7 3460.64 1999.45 3459.91 1999.12 3459.34C1998.4 3458.28 1997 3457.7 1994.98 3457.7H1991.91L1991.86 3457.75Z" fill="white"/>
<path id="Vector_16" d="M2022.97 3493.27V3452.22H2040.51V3457.75H2028.88V3469.81H2039.02V3475.34H2028.88V3487.4H2040.51V3493.27H2022.97Z" fill="white"/>
<path id="Vector_17" d="M2056.71 3493.27V3452.22H2065.41C2068.78 3452.22 2071.38 3453.14 2073.11 3455.01C2074.84 3456.84 2075.75 3459.48 2075.75 3462.85V3482.07C2075.75 3485.91 2074.84 3488.75 2072.96 3490.58C2071.09 3492.4 2068.4 3493.32 2064.93 3493.32H2056.76L2056.71 3493.27ZM2062.58 3457.75V3487.74H2065.27C2066.91 3487.74 2068.11 3487.31 2068.78 3486.49C2069.45 3485.67 2069.84 3484.38 2069.84 3482.6V3462.8C2069.84 3461.16 2069.5 3459.91 2068.88 3459.05C2068.2 3458.18 2067.05 3457.7 2065.32 3457.7H2062.63L2062.58 3457.75Z" fill="white"/>
<path id="Vector_18" d="M2116.81 3493.27V3452.22H2125.42C2127.29 3452.22 2128.93 3452.51 2130.22 3453.09C2131.57 3453.67 2132.63 3454.44 2133.49 3455.4C2134.36 3456.36 2134.93 3457.46 2135.32 3458.71C2135.7 3459.96 2135.85 3461.26 2135.85 3462.61V3464.1C2135.85 3465.2 2135.75 3466.16 2135.61 3466.93C2135.42 3467.7 2135.17 3468.37 2134.84 3468.95C2134.17 3470.01 2133.2 3470.97 2131.86 3471.74C2133.25 3472.41 2134.26 3473.37 2134.93 3474.62C2135.61 3475.87 2135.9 3477.6 2135.9 3479.81V3482.12C2135.9 3485.72 2135.03 3488.51 2133.25 3490.43C2131.52 3492.35 2128.68 3493.32 2124.84 3493.32H2116.81V3493.27ZM2122.67 3457.75V3469.05H2125.32C2127.29 3469.05 2128.59 3468.56 2129.26 3467.56C2129.93 3466.55 2130.27 3465.15 2130.27 3463.28C2130.27 3461.4 2129.89 3460.06 2129.17 3459.15C2128.4 3458.23 2127.05 3457.75 2125.08 3457.75H2122.67ZM2122.67 3474.24V3487.4H2125.22C2126.42 3487.4 2127.34 3487.21 2128.01 3486.88C2128.68 3486.54 2129.21 3486.06 2129.55 3485.43C2129.89 3484.81 2130.13 3484.09 2130.17 3483.22C2130.27 3482.36 2130.27 3481.44 2130.27 3480.44C2130.27 3479.43 2130.22 3478.51 2130.08 3477.74C2129.98 3476.98 2129.74 3476.3 2129.41 3475.77C2129.02 3475.25 2128.49 3474.86 2127.87 3474.57C2127.24 3474.28 2126.33 3474.19 2125.27 3474.19H2122.67V3474.24Z" fill="white"/>
<path id="Vector_19" d="M2159.26 3493.27V3475.92L2151.19 3452.22H2157.44L2162.15 3468.56H2162.24L2166.96 3452.22H2173.21L2165.13 3475.92V3493.27H2159.26Z" fill="white"/>
<g id="Layer_1">
<path id="Vector_20" d="M2429.79 3661H2267.82C2246.57 3661 2229.26 3643.7 2229.26 3622.46V3460.54C2229.26 3439.3 2246.57 3422 2267.82 3422H2429.79C2451.04 3422 2468.35 3439.3 2468.35 3460.54V3622.46C2468.35 3643.7 2451.04 3661 2429.79 3661ZM2267.87 3426.47C2249.07 3426.47 2233.73 3441.75 2233.73 3460.54V3622.46C2233.73 3641.25 2249.02 3656.53 2267.87 3656.53H2429.84C2448.63 3656.53 2463.97 3641.25 2463.97 3622.46V3460.54C2463.97 3441.75 2448.68 3426.47 2429.84 3426.47H2267.87Z" fill="white"/>
<path id="Vector_21" d="M2348.83 3453.82C2310.85 3453.82 2279.98 3484.91 2279.98 3523.17C2279.98 3536.72 2283.88 3549.84 2291.23 3561.13L2291.42 3561.42C2292.24 3562.67 2293.15 3563.97 2294.07 3565.17L2340.94 3625.96C2340.94 3625.96 2340.94 3625.96 2340.94 3626.01L2343.3 3629.23V3625.92C2343.3 3602.46 2336.23 3593.24 2333.73 3589.39C2333.25 3588.62 2333.39 3587.32 2333.35 3586.22C2333.35 3585.64 2333.83 3585.21 2334.36 3585.26C2339.07 3586.51 2343.92 3587.13 2348.88 3587.13C2353.83 3587.13 2358.73 3586.51 2363.44 3585.26C2363.92 3585.26 2364.31 3585.69 2364.31 3586.22C2364.31 3587.28 2364.45 3588.62 2363.92 3589.39C2361.42 3593.24 2354.36 3602.46 2354.36 3625.92V3628.99L2357.67 3624.67L2403.15 3565.6C2412.63 3553.35 2417.63 3538.64 2417.63 3523.12C2417.63 3484.91 2386.76 3453.77 2348.78 3453.77L2348.83 3453.82ZM2382.67 3568.25C2372.77 3575.55 2361.09 3579.4 2348.88 3579.4C2330.61 3579.4 2313.25 3570.5 2302.48 3555.65C2283.83 3529.94 2289.45 3493.71 2314.98 3474.91C2324.89 3467.61 2336.57 3463.76 2348.78 3463.76C2367.05 3463.76 2384.4 3472.65 2395.17 3487.51C2413.83 3513.22 2408.2 3549.45 2382.67 3568.25Z" fill="white"/>
</g>
</g>
<g id="Back - Light Tag">
<path id="Vector_22" d="M1331.81 3576.18C1331.81 3548.49 1354.02 3526.44 1381.71 3526.44C1393.49 3526.44 1403.49 3528.65 1412.82 3534.37C1415.41 3536 1415.99 3538.35 1414.45 3541.24L1413.06 3543.54C1411.57 3546.57 1409.21 3546.96 1406.18 3545.32C1395.51 3539.56 1388.92 3539.41 1381.66 3539.41C1362.19 3539.41 1346.57 3555.56 1346.57 3575.98C1346.57 3594.34 1358.92 3612.27 1383.59 3612.27C1391.95 3612.27 1399.07 3610.2 1405.51 3606.12V3587.09H1383.87C1380.7 3587.09 1378.92 3585.16 1378.92 3582.04V3580.41C1378.92 3577.23 1380.7 3575.46 1383.87 3575.46H1413.88C1417.05 3575.46 1418.83 3577.23 1418.83 3580.41V3608.09C1418.83 3610.68 1417.72 3612.89 1414.6 3615.35C1403.63 3623.42 1391.71 3625.34 1382.96 3625.34C1353.2 3625.34 1331.86 3603.14 1331.86 3576.18" fill="black"/>
<path id="Vector_23" d="M1432.53 3575.89C1432.53 3548.64 1454.74 3526.44 1482.43 3526.44C1510.13 3526.44 1532.34 3548.64 1532.34 3575.89C1532.34 3603.14 1510.13 3625.34 1482.43 3625.34C1454.74 3625.34 1432.53 3603.14 1432.53 3575.89ZM1517.53 3575.89C1517.53 3555.22 1501.76 3539.46 1482.43 3539.46C1463.11 3539.46 1447.34 3555.22 1447.34 3575.89C1447.34 3596.55 1463.11 3612.32 1482.43 3612.32C1501.76 3612.32 1517.53 3596.55 1517.53 3575.89Z" fill="black"/>
<path id="Vector_24" d="M1548.73 3618.95V3532.92C1548.73 3529.75 1550.51 3527.97 1553.68 3527.97H1558.35C1561.52 3527.97 1563.3 3529.75 1563.3 3532.92V3611.98H1602.1C1605.27 3611.98 1607.14 3613.76 1607.14 3616.93V3619C1607.14 3622.17 1605.22 3623.95 1602.1 3623.95H1553.73C1550.56 3623.95 1548.78 3622.17 1548.78 3619" fill="black"/>
<path id="Vector_25" d="M1680.99 3532.87V3534.93C1680.99 3538.11 1679.21 3539.88 1676.04 3539.88H1634.12V3570.98H1670.03C1673.2 3570.98 1675.08 3572.76 1675.08 3575.93V3577.71C1675.08 3580.88 1673.16 3582.75 1670.03 3582.75H1634.12V3618.89C1634.12 3622.07 1632.34 3623.84 1629.17 3623.84H1624.5C1621.33 3623.84 1619.55 3622.07 1619.55 3618.89V3532.87C1619.55 3529.7 1621.33 3527.92 1624.5 3527.92H1676.04C1679.21 3527.92 1680.99 3529.7 1680.99 3532.87Z" fill="black"/>
<path id="Vector_26" d="M1690.56 3605.93C1689.21 3602.9 1690.85 3600.59 1693.83 3599.77L1697.82 3598.81C1700.85 3598.14 1702.48 3599.25 1703.97 3602.08C1707.39 3607.99 1714.65 3612.61 1724.26 3612.61C1736.62 3612.61 1744.12 3606.6 1744.12 3598.38C1744.12 3591.12 1738.11 3586.61 1730.27 3583.72L1716.04 3578.92C1697.96 3572.91 1693.59 3562.05 1693.59 3553.16C1693.59 3536.58 1708.11 3526.44 1724.7 3526.44C1739.79 3526.44 1750.46 3533.69 1754.84 3544.51C1756.09 3547.53 1754.55 3549.84 1751.57 3550.66L1748.16 3551.76C1745.13 3552.58 1743.21 3551.47 1741.86 3548.59C1738.69 3542.3 1732.82 3539.27 1724.89 3539.27C1715.85 3539.27 1708.3 3544.22 1708.3 3552.68C1708.3 3556.66 1709.55 3561.86 1720.51 3565.99L1734.74 3571.32C1750.9 3576.37 1758.3 3587.09 1758.3 3597.37C1758.3 3614.62 1744.6 3625.29 1724.6 3625.29C1707.63 3625.29 1695.56 3617.08 1690.61 3605.83" fill="black"/>
<path id="Vector_27" d="M1844.45 3532.87V3534.93C1844.45 3538.11 1842.67 3539.88 1839.5 3539.88H1812.77V3618.94C1812.77 3622.11 1810.99 3623.89 1807.82 3623.89H1803.3C1800.13 3623.89 1798.35 3622.11 1798.35 3618.94V3539.88H1771.62C1768.59 3539.88 1766.67 3538.11 1766.67 3534.93V3532.87C1766.67 3529.7 1768.59 3527.92 1771.62 3527.92H1839.45C1842.63 3527.92 1844.41 3529.7 1844.41 3532.87" fill="black"/>
<path id="Vector_28" d="M1840.51 3618.08L1873.54 3531.91C1874.5 3529.31 1876.57 3527.92 1879.31 3527.92H1887.24C1890.13 3527.92 1892.05 3529.31 1893.01 3531.91L1926.33 3618.08C1927.58 3621.49 1926.19 3623.84 1922.48 3623.84H1918.11C1915.23 3623.84 1913.3 3622.6 1912.2 3619.86L1906.28 3604.24H1860.51L1854.6 3619.86C1853.49 3622.6 1851.72 3623.84 1848.83 3623.84H1844.31C1840.61 3623.84 1839.12 3621.54 1840.47 3618.08M1902.15 3592.46L1883.25 3542.05L1864.6 3592.46H1902.15Z" fill="black"/>
<path id="Vector_29" d="M1999.89 3532.87V3534.93C1999.89 3538.11 1998.11 3539.88 1994.93 3539.88H1968.2V3618.94C1968.2 3622.11 1966.42 3623.89 1963.25 3623.89H1958.73C1955.56 3623.89 1953.78 3622.11 1953.78 3618.94V3539.88H1927.05C1924.02 3539.88 1922.1 3538.11 1922.1 3534.93V3532.87C1922.1 3529.7 1924.02 3527.92 1927.05 3527.92H1994.89C1998.06 3527.92 1999.84 3529.7 1999.84 3532.87" fill="black"/>
<path id="Vector_30" d="M2014.12 3588.23V3532.87C2014.12 3529.7 2016.04 3527.92 2019.07 3527.92H2023.73C2026.9 3527.92 2028.68 3529.7 2028.68 3532.87V3588.23C2028.68 3604.38 2039.64 3612.36 2052.24 3612.36C2064.84 3612.36 2075.94 3604.43 2075.94 3588.23V3532.87C2075.94 3529.7 2077.72 3527.92 2080.89 3527.92H2085.41C2088.59 3527.92 2090.51 3529.7 2090.51 3532.87V3588.23C2090.51 3612.6 2072.96 3625.38 2052.29 3625.38C2031.62 3625.38 2014.21 3612.65 2014.21 3588.23" fill="black"/>
<path id="Vector_31" d="M2105.51 3605.93C2104.16 3602.9 2105.8 3600.59 2108.78 3599.77L2112.77 3598.81C2115.8 3598.14 2117.43 3599.25 2118.92 3602.08C2122.34 3607.99 2129.6 3612.61 2139.21 3612.61C2151.57 3612.61 2159.07 3606.6 2159.07 3598.38C2159.07 3591.12 2153.06 3586.61 2145.22 3583.72L2130.99 3578.92C2112.91 3572.91 2108.54 3562.05 2108.54 3553.16C2108.54 3536.58 2123.06 3526.44 2139.65 3526.44C2154.74 3526.44 2165.41 3533.69 2169.79 3544.51C2171.04 3547.53 2169.5 3549.84 2166.52 3550.66L2163.11 3551.76C2160.08 3552.58 2158.16 3551.47 2156.81 3548.59C2153.64 3542.3 2147.77 3539.27 2139.84 3539.27C2130.8 3539.27 2123.25 3544.22 2123.25 3552.68C2123.25 3556.66 2124.5 3561.86 2135.46 3565.99L2149.69 3571.32C2165.85 3576.37 2173.25 3587.09 2173.25 3597.37C2173.25 3614.62 2159.55 3625.29 2139.55 3625.29C2122.58 3625.29 2110.51 3617.08 2105.56 3605.83" fill="black"/>
<path id="Vector_32" d="M1833.45 3488.46V3447.42H1842.29C1843.93 3447.42 1845.32 3447.61 1846.57 3448.04C1847.82 3448.48 1848.93 3449.2 1849.94 3450.3C1850.95 3451.36 1851.62 3452.66 1852 3454.1C1852.39 3455.54 1852.58 3457.51 1852.58 3459.96C1852.58 3461.79 1852.48 3463.37 1852.24 3464.62C1852.05 3465.87 1851.57 3467.07 1850.9 3468.18C1850.08 3469.53 1849.02 3470.58 1847.68 3471.3C1846.33 3472.07 1844.55 3472.41 1842.39 3472.41H1839.41V3488.46H1833.54H1833.45ZM1839.31 3452.94V3466.88H1842.15C1843.35 3466.88 1844.26 3466.69 1844.94 3466.35C1845.61 3466.02 1846.09 3465.54 1846.38 3464.91C1846.67 3464.33 1846.86 3463.61 1846.91 3462.8C1846.96 3461.93 1847 3461.02 1847 3459.96C1847 3459 1847 3458.09 1846.96 3457.22C1846.96 3456.36 1846.76 3455.59 1846.43 3454.96C1846.14 3454.29 1845.66 3453.81 1845.03 3453.47C1844.41 3453.14 1843.54 3452.94 1842.39 3452.94H1839.31Z" fill="black"/>
<path id="Vector_33" d="M1868.97 3457.13C1868.97 3455.5 1869.26 3454.01 1869.84 3452.76C1870.42 3451.51 1871.19 3450.45 1872.15 3449.59C1873.06 3448.77 1874.12 3448.15 1875.27 3447.76C1876.43 3447.33 1877.63 3447.14 1878.83 3447.14C1880.03 3447.14 1881.19 3447.33 1882.39 3447.76C1883.54 3448.19 1884.65 3448.82 1885.61 3449.59C1886.52 3450.45 1887.29 3451.51 1887.87 3452.76C1888.44 3454.01 1888.73 3455.5 1888.73 3457.13V3478.81C1888.73 3480.54 1888.44 3482.03 1887.87 3483.23C1887.29 3484.43 1886.52 3485.49 1885.61 3486.31C1884.65 3487.17 1883.59 3487.8 1882.39 3488.23C1881.19 3488.66 1880.03 3488.85 1878.83 3488.85C1877.63 3488.85 1876.47 3488.66 1875.27 3488.23C1874.12 3487.8 1873.06 3487.17 1872.15 3486.31C1871.19 3485.49 1870.42 3484.48 1869.84 3483.23C1869.26 3481.98 1868.97 3480.54 1868.97 3478.81V3457.13ZM1874.84 3478.81C1874.84 3480.25 1875.22 3481.26 1876.04 3481.93C1876.81 3482.6 1877.77 3482.94 1878.83 3482.94C1879.89 3482.94 1880.85 3482.6 1881.62 3481.93C1882.39 3481.26 1882.82 3480.2 1882.82 3478.81V3457.13C1882.82 3455.69 1882.44 3454.68 1881.62 3454.01C1880.85 3453.34 1879.89 3453 1878.83 3453C1877.77 3453 1876.81 3453.34 1876.04 3454.01C1875.27 3454.68 1874.84 3455.74 1874.84 3457.13V3478.81Z" fill="black"/>
<path id="Vector_34" d="M1936.14 3447.42L1930.03 3488.46H1924.5L1919.98 3461.84H1919.89L1915.46 3488.46H1909.93L1903.83 3447.42H1910.08L1913.01 3473.47H1913.11L1917.72 3447.42H1922.24L1927.05 3474.14H1927.15L1929.98 3447.42H1936.23H1936.14Z" fill="black"/>
<path id="Vector_35" d="M1952.19 3488.46V3447.42H1969.74V3452.94H1958.11V3465.01H1968.25V3470.53H1958.11V3482.6H1969.74V3488.46H1952.19Z" fill="black"/>
<path id="Vector_36" d="M1985.95 3488.46V3447.42H1995.42C2002.34 3447.42 2005.8 3451.45 2005.8 3459.48C2005.8 3461.88 2005.42 3463.95 2004.7 3465.63C2003.93 3467.31 2002.63 3468.71 2000.75 3469.72L2007.1 3488.46H2000.85L1995.37 3470.92H1991.86V3488.46H1985.99H1985.95ZM1991.86 3452.94V3465.73H1995.22C1996.28 3465.73 1997.1 3465.58 1997.72 3465.3C1998.35 3465.01 1998.83 3464.58 1999.17 3464.05C1999.45 3463.52 1999.7 3462.85 1999.79 3462.08C1999.89 3461.31 1999.98 3460.39 1999.98 3459.34C1999.98 3458.28 1999.94 3457.37 1999.79 3456.6C1999.7 3455.83 1999.45 3455.11 1999.12 3454.53C1998.4 3453.47 1997 3452.9 1994.98 3452.9H1991.91L1991.86 3452.94Z" fill="black"/>
<path id="Vector_37" d="M2022.97 3488.46V3447.42H2040.51V3452.94H2028.88V3465.01H2039.02V3470.53H2028.88V3482.6H2040.51V3488.46H2022.97Z" fill="black"/>
<path id="Vector_38" d="M2056.71 3488.46V3447.42H2065.41C2068.78 3447.42 2071.38 3448.33 2073.11 3450.21C2074.84 3452.03 2075.75 3454.67 2075.75 3458.04V3477.26C2075.75 3481.11 2074.84 3483.94 2072.96 3485.77C2071.09 3487.6 2068.4 3488.51 2064.93 3488.51H2056.76L2056.71 3488.46ZM2062.58 3452.94V3482.93H2065.27C2066.91 3482.93 2068.11 3482.5 2068.78 3481.68C2069.45 3480.87 2069.84 3479.57 2069.84 3477.79V3457.99C2069.84 3456.36 2069.5 3455.11 2068.88 3454.24C2068.2 3453.38 2067.05 3452.9 2065.32 3452.9H2062.63L2062.58 3452.94Z" fill="black"/>
<path id="Vector_39" d="M2116.81 3488.46V3447.42H2125.42C2127.29 3447.42 2128.93 3447.71 2130.22 3448.28C2131.57 3448.86 2132.63 3449.63 2133.49 3450.59C2134.36 3451.55 2134.93 3452.66 2135.32 3453.91C2135.7 3455.16 2135.85 3456.45 2135.85 3457.8V3459.29C2135.85 3460.39 2135.75 3461.36 2135.61 3462.12C2135.42 3462.89 2135.17 3463.57 2134.84 3464.14C2134.17 3465.2 2133.2 3466.16 2131.86 3466.93C2133.25 3467.6 2134.26 3468.56 2134.93 3469.81C2135.61 3471.06 2135.9 3472.79 2135.9 3475V3477.31C2135.9 3480.92 2135.03 3483.7 2133.25 3485.63C2131.52 3487.55 2128.68 3488.51 2124.84 3488.51H2116.81V3488.46ZM2122.67 3452.94V3464.24H2125.32C2127.29 3464.24 2128.59 3463.76 2129.26 3462.75C2129.93 3461.74 2130.27 3460.35 2130.27 3458.47C2130.27 3456.6 2129.89 3455.25 2129.17 3454.34C2128.4 3453.43 2127.05 3452.94 2125.08 3452.94H2122.67ZM2122.67 3469.43V3482.6H2125.22C2126.42 3482.6 2127.34 3482.41 2128.01 3482.07C2128.68 3481.73 2129.21 3481.25 2129.55 3480.63C2129.89 3480 2130.13 3479.28 2130.17 3478.42C2130.27 3477.55 2130.27 3476.64 2130.27 3475.63C2130.27 3474.62 2130.22 3473.71 2130.08 3472.94C2129.98 3472.17 2129.74 3471.5 2129.41 3470.97C2129.02 3470.44 2128.49 3470.05 2127.87 3469.77C2127.24 3469.48 2126.33 3469.38 2125.27 3469.38H2122.67V3469.43Z" fill="black"/>
<path id="Vector_40" d="M2159.26 3488.46V3471.11L2151.19 3447.42H2157.44L2162.15 3463.76H2162.24L2166.96 3447.42H2173.21L2165.13 3471.11V3488.46H2159.26Z" fill="black"/>
<g id="Layer_1_2">
<path id="Vector_41" d="M2429.79 3656.19H2267.82C2246.57 3656.19 2229.26 3638.89 2229.26 3617.65V3455.74C2229.26 3434.49 2246.57 3417.19 2267.82 3417.19H2429.79C2451.04 3417.19 2468.35 3434.49 2468.35 3455.74V3617.65C2468.35 3638.89 2451.04 3656.19 2429.79 3656.19ZM2267.87 3421.66C2249.07 3421.66 2233.73 3436.95 2233.73 3455.74V3617.65C2233.73 3636.44 2249.02 3651.72 2267.87 3651.72H2429.84C2448.63 3651.72 2463.97 3636.44 2463.97 3617.65V3455.74C2463.97 3436.95 2448.68 3421.66 2429.84 3421.66H2267.87Z" fill="black"/>
<path id="Vector_42" d="M2348.83 3449.01C2310.85 3449.01 2279.98 3480.1 2279.98 3518.36C2279.98 3531.91 2283.88 3545.03 2291.23 3556.33L2291.42 3556.61C2292.24 3557.86 2293.15 3559.16 2294.07 3560.36L2340.94 3621.16C2340.94 3621.16 2340.94 3621.16 2340.94 3621.21L2343.3 3624.43V3621.11C2343.3 3597.66 2336.23 3588.43 2333.73 3584.58C2333.25 3583.82 2333.39 3582.52 2333.35 3581.41C2333.35 3580.84 2333.83 3580.4 2334.36 3580.45C2339.07 3581.7 2343.92 3582.33 2348.88 3582.33C2353.83 3582.33 2358.73 3581.7 2363.44 3580.45C2363.92 3580.45 2364.31 3580.88 2364.31 3581.41C2364.31 3582.47 2364.45 3583.82 2363.92 3584.58C2361.42 3588.43 2354.36 3597.66 2354.36 3621.11V3624.19L2357.67 3619.86L2403.15 3560.8C2412.63 3548.54 2417.63 3533.83 2417.63 3518.31C2417.63 3480.1 2386.76 3448.96 2348.78 3448.96L2348.83 3449.01ZM2382.67 3563.44C2372.77 3570.74 2361.09 3574.59 2348.88 3574.59C2330.61 3574.59 2313.25 3565.7 2302.48 3550.85C2283.83 3525.14 2289.45 3488.9 2314.98 3470.11C2324.89 3462.8 2336.57 3458.96 2348.78 3458.96C2367.05 3458.96 2384.4 3467.85 2395.17 3482.7C2413.83 3508.41 2408.2 3544.65 2382.67 3563.44Z" fill="black"/>
</g>
</g>
<g id="Front - Dark Tag">
<path id="Vector_43" d="M1625.56 3580.98C1625.56 3553.3 1647.77 3531.24 1675.46 3531.24C1687.24 3531.24 1697.24 3533.45 1706.57 3539.17C1709.16 3540.81 1709.74 3543.16 1708.2 3546.04L1706.81 3548.35C1705.32 3551.38 1702.96 3551.76 1699.93 3550.13C1689.26 3544.36 1682.67 3544.22 1675.41 3544.22C1655.94 3544.22 1640.32 3560.37 1640.32 3580.79C1640.32 3599.15 1652.67 3617.08 1677.33 3617.08C1685.7 3617.08 1692.82 3615.01 1699.26 3610.92V3591.89H1677.62C1674.45 3591.89 1672.67 3589.97 1672.67 3586.85V3585.21C1672.67 3582.04 1674.45 3580.26 1677.62 3580.26H1707.62C1710.8 3580.26 1712.57 3582.04 1712.57 3585.21V3612.9C1712.57 3615.49 1711.47 3617.7 1708.34 3620.15C1697.38 3628.23 1685.46 3630.15 1676.71 3630.15C1646.95 3630.15 1625.6 3607.95 1625.6 3580.98" fill="white"/>
<path id="Vector_44" d="M1726.28 3580.7C1726.28 3553.45 1748.49 3531.24 1776.18 3531.24C1803.87 3531.24 1826.09 3553.45 1826.09 3580.7C1826.09 3607.95 1803.87 3630.15 1776.18 3630.15C1748.49 3630.15 1726.28 3607.95 1726.28 3580.7ZM1811.23 3580.7C1811.23 3560.03 1795.46 3544.27 1776.13 3544.27C1756.81 3544.27 1741.04 3560.03 1741.04 3580.7C1741.04 3601.36 1756.81 3617.12 1776.13 3617.12C1795.46 3617.12 1811.23 3601.36 1811.23 3580.7Z" fill="white"/>
<path id="Vector_45" d="M1842.48 3623.76V3537.73C1842.48 3534.56 1844.26 3532.78 1847.43 3532.78H1852.09C1855.27 3532.78 1857.05 3534.56 1857.05 3537.73V3616.79H1895.84C1899.02 3616.79 1900.89 3618.57 1900.89 3621.74V3623.81C1900.89 3626.98 1898.97 3628.76 1895.84 3628.76H1847.48C1844.31 3628.76 1842.53 3626.98 1842.53 3623.81" fill="white"/>
<path id="Vector_46" d="M1974.74 3537.67V3539.74C1974.74 3542.91 1972.96 3544.69 1969.79 3544.69H1927.87V3575.79H1963.78C1966.95 3575.79 1968.83 3577.56 1968.83 3580.74V3582.51C1968.83 3585.69 1966.91 3587.56 1963.78 3587.56H1927.87V3623.7C1927.87 3626.87 1926.09 3628.65 1922.92 3628.65H1918.25C1915.08 3628.65 1913.3 3626.87 1913.3 3623.7V3537.67C1913.3 3534.5 1915.08 3532.72 1918.25 3532.72H1969.79C1972.96 3532.72 1974.74 3534.5 1974.74 3537.67Z" fill="white"/>
<path id="Vector_47" d="M1984.31 3610.73C1982.96 3607.7 1984.6 3605.4 1987.58 3604.58L1991.57 3603.62C1994.6 3602.95 1996.23 3604.05 1997.72 3606.89C2001.14 3612.8 2008.4 3617.41 2018.01 3617.41C2030.37 3617.41 2037.87 3611.41 2037.87 3603.19C2037.87 3595.93 2031.86 3591.41 2024.02 3588.53L2009.79 3583.72C1991.71 3577.72 1987.34 3566.85 1987.34 3557.96C1987.34 3541.38 2001.86 3531.24 2018.44 3531.24C2033.54 3531.24 2044.21 3538.5 2048.59 3549.31C2049.84 3552.34 2048.3 3554.65 2045.32 3555.46L2041.91 3556.57C2038.88 3557.39 2036.95 3556.28 2035.61 3553.4C2032.43 3547.1 2026.57 3544.07 2018.64 3544.07C2009.6 3544.07 2002.05 3549.02 2002.05 3557.48C2002.05 3561.47 2003.3 3566.66 2014.26 3570.8L2028.49 3576.13C2044.65 3581.18 2052.05 3591.89 2052.05 3602.18C2052.05 3619.43 2038.35 3630.1 2018.35 3630.1C2001.38 3630.1 1989.31 3621.88 1984.36 3610.64" fill="white"/>
<path id="Vector_48" d="M2138.2 3537.67V3539.74C2138.2 3542.91 2136.42 3544.69 2133.25 3544.69H2106.52V3623.75C2106.52 3626.92 2104.74 3628.7 2101.57 3628.7H2097.05C2093.87 3628.7 2092.1 3626.92 2092.1 3623.75V3544.69H2065.37C2062.34 3544.69 2060.41 3542.91 2060.41 3539.74V3537.67C2060.41 3534.5 2062.34 3532.72 2065.37 3532.72H2133.2C2136.37 3532.72 2138.15 3534.5 2138.15 3537.67" fill="white"/>
<path id="Vector_49" d="M2134.21 3622.88L2167.24 3536.71C2168.2 3534.12 2170.27 3532.72 2173.01 3532.72H2180.94C2183.83 3532.72 2185.75 3534.12 2186.71 3536.71L2220.03 3622.88C2221.28 3626.3 2219.88 3628.65 2216.18 3628.65H2211.81C2208.92 3628.65 2207 3627.4 2205.89 3624.66L2199.98 3609.04H2154.21L2148.3 3624.66C2147.19 3627.4 2145.41 3628.65 2142.53 3628.65H2138.01C2134.31 3628.65 2132.82 3626.34 2134.16 3622.88M2195.89 3597.27L2177 3546.85L2158.34 3597.27H2195.89Z" fill="white"/>
<path id="Vector_50" d="M2293.59 3537.67V3539.74C2293.59 3542.91 2291.81 3544.69 2288.64 3544.69H2261.9V3623.75C2261.9 3626.92 2260.13 3628.7 2256.95 3628.7H2252.43C2249.26 3628.7 2247.48 3626.92 2247.48 3623.75V3544.69H2220.75C2217.72 3544.69 2215.8 3542.91 2215.8 3539.74V3537.67C2215.8 3534.5 2217.72 3532.72 2220.75 3532.72H2288.59C2291.76 3532.72 2293.54 3534.5 2293.54 3537.67" fill="white"/>
<path id="Vector_51" d="M2307.86 3593.04V3537.67C2307.86 3534.5 2309.79 3532.72 2312.82 3532.72H2317.48C2320.65 3532.72 2322.43 3534.5 2322.43 3537.67V3593.04C2322.43 3609.19 2333.39 3617.17 2345.99 3617.17C2358.58 3617.17 2369.69 3609.24 2369.69 3593.04V3537.67C2369.69 3534.5 2371.47 3532.72 2374.64 3532.72H2379.16C2382.33 3532.72 2384.26 3534.5 2384.26 3537.67V3593.04C2384.26 3617.41 2366.71 3630.19 2346.04 3630.19C2325.36 3630.19 2307.96 3617.45 2307.96 3593.04" fill="white"/>
<path id="Vector_52" d="M2399.26 3610.73C2397.91 3607.7 2399.55 3605.4 2402.53 3604.58L2406.52 3603.62C2409.55 3602.95 2411.18 3604.05 2412.67 3606.89C2416.09 3612.8 2423.35 3617.41 2432.96 3617.41C2445.32 3617.41 2452.82 3611.41 2452.82 3603.19C2452.82 3595.93 2446.81 3591.41 2438.97 3588.53L2424.74 3583.72C2406.66 3577.72 2402.29 3566.85 2402.29 3557.96C2402.29 3541.38 2416.81 3531.24 2433.39 3531.24C2448.49 3531.24 2459.16 3538.5 2463.54 3549.31C2464.79 3552.34 2463.25 3554.65 2460.27 3555.46L2456.86 3556.57C2453.83 3557.39 2451.9 3556.28 2450.56 3553.4C2447.38 3547.1 2441.52 3544.07 2433.59 3544.07C2424.55 3544.07 2417 3549.02 2417 3557.48C2417 3561.47 2418.25 3566.66 2429.21 3570.8L2443.44 3576.13C2459.6 3581.18 2467 3591.89 2467 3602.18C2467 3619.43 2453.3 3630.1 2433.3 3630.1C2416.33 3630.1 2404.26 3621.88 2399.31 3610.64" fill="white"/>
<path id="Vector_53" d="M1626.62 3493.27V3452.22H1635.46C1637.1 3452.22 1638.49 3452.42 1639.74 3452.85C1640.99 3453.28 1642.1 3454 1643.11 3455.11C1644.12 3456.17 1644.79 3457.46 1645.17 3458.9C1645.56 3460.35 1645.75 3462.32 1645.75 3464.77C1645.75 3466.59 1645.66 3468.18 1645.42 3469.43C1645.22 3470.68 1644.74 3471.88 1644.07 3472.99C1643.25 3474.33 1642.19 3475.39 1640.85 3476.11C1639.5 3476.88 1637.72 3477.22 1635.56 3477.22H1632.58V3493.27H1626.71H1626.62ZM1632.48 3457.75V3471.69H1635.32C1636.52 3471.69 1637.43 3471.5 1638.11 3471.16C1638.78 3470.82 1639.26 3470.34 1639.55 3469.72C1639.84 3469.14 1640.03 3468.42 1640.08 3467.6C1640.13 3466.74 1640.17 3465.83 1640.17 3464.77C1640.17 3463.81 1640.17 3462.89 1640.13 3462.03C1640.13 3461.16 1639.93 3460.39 1639.6 3459.77C1639.31 3459.1 1638.83 3458.62 1638.2 3458.28C1637.58 3457.94 1636.71 3457.75 1635.56 3457.75H1632.48Z" fill="white"/>
<path id="Vector_54" d="M1662.14 3461.94C1662.14 3460.31 1662.43 3458.82 1663.01 3457.57C1663.59 3456.32 1664.36 3455.26 1665.32 3454.39C1666.23 3453.58 1667.29 3452.95 1668.44 3452.57C1669.6 3452.14 1670.8 3451.94 1672 3451.94C1673.2 3451.94 1674.36 3452.14 1675.56 3452.57C1676.71 3453 1677.82 3453.63 1678.78 3454.39C1679.69 3455.26 1680.46 3456.32 1681.04 3457.57C1681.62 3458.82 1681.9 3460.31 1681.9 3461.94V3483.61C1681.9 3485.34 1681.62 3486.83 1681.04 3488.04C1680.46 3489.24 1679.69 3490.29 1678.78 3491.11C1677.82 3491.98 1676.76 3492.6 1675.56 3493.03C1674.36 3493.47 1673.2 3493.66 1672 3493.66C1670.8 3493.66 1669.64 3493.47 1668.44 3493.03C1667.29 3492.6 1666.23 3491.98 1665.32 3491.11C1664.36 3490.29 1663.59 3489.29 1663.01 3488.04C1662.43 3486.79 1662.14 3485.34 1662.14 3483.61V3461.94ZM1668.01 3483.61C1668.01 3485.06 1668.39 3486.07 1669.21 3486.74C1669.98 3487.41 1670.94 3487.75 1672 3487.75C1673.06 3487.75 1674.02 3487.41 1674.79 3486.74C1675.56 3486.07 1675.99 3485.01 1675.99 3483.61V3461.94C1675.99 3460.5 1675.61 3459.49 1674.79 3458.82C1674.02 3458.14 1673.06 3457.81 1672 3457.81C1670.94 3457.81 1669.98 3458.14 1669.21 3458.82C1668.44 3459.49 1668.01 3460.55 1668.01 3461.94V3483.61Z" fill="white"/>
<path id="Vector_55" d="M1729.31 3452.22L1723.2 3493.27H1717.67L1713.15 3466.64H1713.06L1708.63 3493.27H1703.11L1697 3452.22H1703.25L1706.18 3478.27H1706.28L1710.89 3452.22H1715.41L1720.22 3478.95H1720.32L1723.15 3452.22H1729.4H1729.31Z" fill="white"/>
<path id="Vector_56" d="M1745.42 3493.27V3452.22H1762.96V3457.75H1751.33V3469.81H1761.47V3475.34H1751.33V3487.4H1762.96V3493.27H1745.42Z" fill="white"/>
<path id="Vector_57" d="M1779.16 3493.27V3452.22H1788.63C1795.56 3452.22 1799.02 3456.26 1799.02 3464.29C1799.02 3466.69 1798.63 3468.76 1797.91 3470.44C1797.14 3472.12 1795.85 3473.51 1793.97 3474.52L1800.32 3493.27H1794.07L1788.59 3475.73H1785.08V3493.27H1779.21H1779.16ZM1785.03 3457.75V3470.54H1788.39C1789.45 3470.54 1790.27 3470.39 1790.89 3470.1C1791.52 3469.81 1792 3469.38 1792.34 3468.85C1792.62 3468.32 1792.86 3467.65 1792.96 3466.88C1793.06 3466.11 1793.15 3465.2 1793.15 3464.14C1793.15 3463.09 1793.11 3462.17 1792.96 3461.4C1792.86 3460.64 1792.62 3459.91 1792.29 3459.34C1791.57 3458.28 1790.17 3457.7 1788.15 3457.7H1785.08L1785.03 3457.75Z" fill="white"/>
<path id="Vector_58" d="M1816.14 3493.27V3452.22H1833.68V3457.75H1822.05V3469.81H1832.19V3475.34H1822.05V3487.4H1833.68V3493.27H1816.14Z" fill="white"/>
<path id="Vector_59" d="M1849.88 3493.27V3452.22H1858.59C1861.95 3452.22 1864.55 3453.14 1866.28 3455.01C1868.01 3456.84 1868.92 3459.48 1868.92 3462.85V3482.07C1868.92 3485.91 1868.01 3488.75 1866.13 3490.58C1864.26 3492.4 1861.57 3493.32 1858.1 3493.32H1849.93L1849.88 3493.27ZM1855.75 3457.75V3487.74H1858.44C1860.08 3487.74 1861.28 3487.31 1861.95 3486.49C1862.62 3485.67 1863.01 3484.38 1863.01 3482.6V3462.8C1863.01 3461.16 1862.67 3459.91 1862.05 3459.05C1861.37 3458.18 1860.22 3457.7 1858.49 3457.7H1855.8L1855.75 3457.75Z" fill="white"/>
<path id="Vector_60" d="M1909.98 3493.27V3452.22H1918.59C1920.46 3452.22 1922.1 3452.51 1923.39 3453.09C1924.74 3453.67 1925.8 3454.44 1926.66 3455.4C1927.53 3456.36 1928.11 3457.46 1928.49 3458.71C1928.87 3459.96 1929.02 3461.26 1929.02 3462.61V3464.1C1929.02 3465.2 1928.92 3466.16 1928.78 3466.93C1928.59 3467.7 1928.35 3468.37 1928.01 3468.95C1927.34 3470.01 1926.37 3470.97 1925.03 3471.74C1926.42 3472.41 1927.43 3473.37 1928.11 3474.62C1928.78 3475.87 1929.07 3477.6 1929.07 3479.81V3482.12C1929.07 3485.72 1928.2 3488.51 1926.42 3490.43C1924.69 3492.35 1921.86 3493.32 1918.01 3493.32H1909.98V3493.27ZM1915.89 3457.75V3469.05H1918.54C1920.51 3469.05 1921.81 3468.56 1922.48 3467.56C1923.15 3466.55 1923.49 3465.15 1923.49 3463.28C1923.49 3461.4 1923.11 3460.06 1922.38 3459.15C1921.62 3458.23 1920.27 3457.75 1918.3 3457.75H1915.89ZM1915.89 3474.24V3487.4H1918.44C1919.64 3487.4 1920.56 3487.21 1921.23 3486.88C1921.9 3486.54 1922.43 3486.06 1922.77 3485.43C1923.11 3484.81 1923.35 3484.09 1923.39 3483.22C1923.49 3482.36 1923.49 3481.44 1923.49 3480.44C1923.49 3479.43 1923.44 3478.51 1923.3 3477.74C1923.2 3476.98 1922.96 3476.3 1922.62 3475.77C1922.24 3475.25 1921.71 3474.86 1921.09 3474.57C1920.46 3474.28 1919.55 3474.19 1918.49 3474.19H1915.89V3474.24Z" fill="white"/>
<path id="Vector_61" d="M1952.43 3493.27V3475.92L1944.36 3452.22H1950.61L1955.32 3468.56H1955.41L1960.13 3452.22H1966.38L1958.3 3475.92V3493.27H1952.43Z" fill="white"/>
<g id="Layer_1-2">
<path id="Vector_62" d="M1532.34 3661H1370.37C1349.12 3661 1331.81 3643.7 1331.81 3622.46V3460.54C1331.81 3439.3 1349.12 3422 1370.37 3422H1532.34C1553.59 3422 1570.89 3439.3 1570.89 3460.54V3622.46C1570.89 3643.7 1553.59 3661 1532.34 3661ZM1370.37 3426.47C1351.57 3426.47 1336.28 3441.75 1336.28 3460.54V3622.46C1336.28 3641.25 1351.57 3656.53 1370.41 3656.53H1532.38C1551.18 3656.53 1566.52 3641.25 1566.52 3622.46V3460.54C1566.52 3441.75 1551.23 3426.47 1532.38 3426.47H1370.37Z" fill="white"/>
<path id="Vector_63" d="M1451.38 3453.82C1413.39 3453.82 1382.53 3484.91 1382.53 3523.17C1382.53 3536.72 1386.42 3549.84 1393.78 3561.13L1393.97 3561.42C1394.79 3562.67 1395.7 3563.97 1396.62 3565.17L1443.49 3625.96C1443.49 3625.96 1443.49 3625.96 1443.49 3626.01L1445.85 3629.23V3625.92C1445.85 3602.46 1438.78 3593.24 1436.28 3589.39C1435.8 3588.62 1435.94 3587.32 1435.89 3586.22C1435.89 3585.64 1436.38 3585.21 1436.9 3585.26C1441.62 3586.51 1446.47 3587.13 1451.42 3587.13C1456.38 3587.13 1461.28 3586.51 1465.99 3585.26C1466.47 3585.26 1466.86 3585.69 1466.86 3586.22C1466.86 3587.28 1467 3588.62 1466.47 3589.39C1463.97 3593.24 1456.9 3602.46 1456.9 3625.92V3628.99L1460.22 3624.67L1505.7 3565.6C1515.17 3553.35 1520.17 3538.64 1520.17 3523.12C1520.17 3484.91 1489.31 3453.77 1451.33 3453.77L1451.38 3453.82ZM1485.22 3568.25C1475.32 3575.55 1463.64 3579.4 1451.42 3579.4C1433.15 3579.4 1415.8 3570.5 1405.03 3555.65C1386.38 3529.94 1392 3493.71 1417.53 3474.91C1427.43 3467.61 1439.12 3463.76 1451.33 3463.76C1469.6 3463.76 1486.95 3472.65 1497.72 3487.51C1516.38 3513.22 1510.75 3549.45 1485.22 3568.25Z" fill="white"/>
</g>
</g>
<g id="Front - Light Tag">
<path id="Vector_64" d="M1625.56 3580.98C1625.56 3553.3 1647.77 3531.24 1675.46 3531.24C1687.24 3531.24 1697.24 3533.45 1706.57 3539.17C1709.16 3540.81 1709.74 3543.16 1708.2 3546.04L1706.81 3548.35C1705.32 3551.38 1702.96 3551.76 1699.93 3550.13C1689.26 3544.36 1682.67 3544.22 1675.41 3544.22C1655.94 3544.22 1640.32 3560.37 1640.32 3580.79C1640.32 3599.15 1652.67 3617.08 1677.33 3617.08C1685.7 3617.08 1692.82 3615.01 1699.26 3610.92V3591.89H1677.62C1674.45 3591.89 1672.67 3589.97 1672.67 3586.85V3585.21C1672.67 3582.04 1674.45 3580.26 1677.62 3580.26H1707.62C1710.8 3580.26 1712.57 3582.04 1712.57 3585.21V3612.9C1712.57 3615.49 1711.47 3617.7 1708.34 3620.15C1697.38 3628.23 1685.46 3630.15 1676.71 3630.15C1646.95 3630.15 1625.6 3607.95 1625.6 3580.98" fill="black"/>
<path id="Vector_65" d="M1726.28 3580.7C1726.28 3553.45 1748.49 3531.24 1776.18 3531.24C1803.87 3531.24 1826.09 3553.45 1826.09 3580.7C1826.09 3607.95 1803.87 3630.15 1776.18 3630.15C1748.49 3630.15 1726.28 3607.95 1726.28 3580.7ZM1811.23 3580.7C1811.23 3560.03 1795.46 3544.27 1776.13 3544.27C1756.81 3544.27 1741.04 3560.03 1741.04 3580.7C1741.04 3601.36 1756.81 3617.12 1776.13 3617.12C1795.46 3617.12 1811.23 3601.36 1811.23 3580.7Z" fill="black"/>
<path id="Vector_66" d="M1842.48 3623.76V3537.73C1842.48 3534.56 1844.26 3532.78 1847.43 3532.78H1852.09C1855.27 3532.78 1857.05 3534.56 1857.05 3537.73V3616.79H1895.84C1899.02 3616.79 1900.89 3618.57 1900.89 3621.74V3623.81C1900.89 3626.98 1898.97 3628.76 1895.84 3628.76H1847.48C1844.31 3628.76 1842.53 3626.98 1842.53 3623.81" fill="black"/>
<path id="Vector_67" d="M1974.74 3537.67V3539.74C1974.74 3542.91 1972.96 3544.69 1969.79 3544.69H1927.87V3575.79H1963.78C1966.95 3575.79 1968.83 3577.56 1968.83 3580.74V3582.51C1968.83 3585.69 1966.91 3587.56 1963.78 3587.56H1927.87V3623.7C1927.87 3626.87 1926.09 3628.65 1922.92 3628.65H1918.25C1915.08 3628.65 1913.3 3626.87 1913.3 3623.7V3537.67C1913.3 3534.5 1915.08 3532.72 1918.25 3532.72H1969.79C1972.96 3532.72 1974.74 3534.5 1974.74 3537.67Z" fill="black"/>
<path id="Vector_68" d="M1984.31 3610.73C1982.96 3607.7 1984.6 3605.4 1987.58 3604.58L1991.57 3603.62C1994.6 3602.95 1996.23 3604.05 1997.72 3606.89C2001.14 3612.8 2008.4 3617.41 2018.01 3617.41C2030.37 3617.41 2037.87 3611.41 2037.87 3603.19C2037.87 3595.93 2031.86 3591.41 2024.02 3588.53L2009.79 3583.72C1991.71 3577.72 1987.34 3566.85 1987.34 3557.96C1987.34 3541.38 2001.86 3531.24 2018.44 3531.24C2033.54 3531.24 2044.21 3538.5 2048.59 3549.31C2049.84 3552.34 2048.3 3554.65 2045.32 3555.46L2041.91 3556.57C2038.88 3557.39 2036.95 3556.28 2035.61 3553.4C2032.43 3547.1 2026.57 3544.07 2018.64 3544.07C2009.6 3544.07 2002.05 3549.02 2002.05 3557.48C2002.05 3561.47 2003.3 3566.66 2014.26 3570.8L2028.49 3576.13C2044.65 3581.18 2052.05 3591.89 2052.05 3602.18C2052.05 3619.43 2038.35 3630.1 2018.35 3630.1C2001.38 3630.1 1989.31 3621.88 1984.36 3610.64" fill="black"/>
<path id="Vector_69" d="M2138.2 3537.67V3539.74C2138.2 3542.91 2136.42 3544.69 2133.25 3544.69H2106.52V3623.75C2106.52 3626.92 2104.74 3628.7 2101.57 3628.7H2097.05C2093.87 3628.7 2092.1 3626.92 2092.1 3623.75V3544.69H2065.37C2062.34 3544.69 2060.41 3542.91 2060.41 3539.74V3537.67C2060.41 3534.5 2062.34 3532.72 2065.37 3532.72H2133.2C2136.37 3532.72 2138.15 3534.5 2138.15 3537.67" fill="black"/>
<path id="Vector_70" d="M2134.21 3622.88L2167.24 3536.71C2168.2 3534.12 2170.27 3532.72 2173.01 3532.72H2180.94C2183.83 3532.72 2185.75 3534.12 2186.71 3536.71L2220.03 3622.88C2221.28 3626.3 2219.88 3628.65 2216.18 3628.65H2211.81C2208.92 3628.65 2207 3627.4 2205.89 3624.66L2199.98 3609.04H2154.21L2148.3 3624.66C2147.19 3627.4 2145.41 3628.65 2142.53 3628.65H2138.01C2134.31 3628.65 2132.82 3626.34 2134.16 3622.88M2195.89 3597.27L2177 3546.85L2158.34 3597.27H2195.89Z" fill="black"/>
<path id="Vector_71" d="M2293.59 3537.67V3539.74C2293.59 3542.91 2291.81 3544.69 2288.64 3544.69H2261.9V3623.75C2261.9 3626.92 2260.13 3628.7 2256.95 3628.7H2252.43C2249.26 3628.7 2247.48 3626.92 2247.48 3623.75V3544.69H2220.75C2217.72 3544.69 2215.8 3542.91 2215.8 3539.74V3537.67C2215.8 3534.5 2217.72 3532.72 2220.75 3532.72H2288.59C2291.76 3532.72 2293.54 3534.5 2293.54 3537.67" fill="black"/>
<path id="Vector_72" d="M2307.86 3593.04V3537.67C2307.86 3534.5 2309.79 3532.72 2312.82 3532.72H2317.48C2320.65 3532.72 2322.43 3534.5 2322.43 3537.67V3593.04C2322.43 3609.19 2333.39 3617.17 2345.99 3617.17C2358.58 3617.17 2369.69 3609.24 2369.69 3593.04V3537.67C2369.69 3534.5 2371.47 3532.72 2374.64 3532.72H2379.16C2382.33 3532.72 2384.26 3534.5 2384.26 3537.67V3593.04C2384.26 3617.41 2366.71 3630.19 2346.04 3630.19C2325.36 3630.19 2307.96 3617.45 2307.96 3593.04" fill="black"/>
<path id="Vector_73" d="M2399.26 3610.73C2397.91 3607.7 2399.55 3605.4 2402.53 3604.58L2406.52 3603.62C2409.55 3602.95 2411.18 3604.05 2412.67 3606.89C2416.09 3612.8 2423.35 3617.41 2432.96 3617.41C2445.32 3617.41 2452.82 3611.41 2452.82 3603.19C2452.82 3595.93 2446.81 3591.41 2438.97 3588.53L2424.74 3583.72C2406.66 3577.72 2402.29 3566.85 2402.29 3557.96C2402.29 3541.38 2416.81 3531.24 2433.39 3531.24C2448.49 3531.24 2459.16 3538.5 2463.54 3549.31C2464.79 3552.34 2463.25 3554.65 2460.27 3555.46L2456.86 3556.57C2453.83 3557.39 2451.9 3556.28 2450.56 3553.4C2447.38 3547.1 2441.52 3544.07 2433.59 3544.07C2424.55 3544.07 2417 3549.02 2417 3557.48C2417 3561.47 2418.25 3566.66 2429.21 3570.8L2443.44 3576.13C2459.6 3581.18 2467 3591.89 2467 3602.18C2467 3619.43 2453.3 3630.1 2433.3 3630.1C2416.33 3630.1 2404.26 3621.88 2399.31 3610.64" fill="black"/>
<path id="Vector_74" d="M1626.62 3493.27V3452.22H1635.46C1637.1 3452.22 1638.49 3452.42 1639.74 3452.85C1640.99 3453.28 1642.1 3454 1643.11 3455.11C1644.12 3456.17 1644.79 3457.46 1645.17 3458.9C1645.56 3460.35 1645.75 3462.32 1645.75 3464.77C1645.75 3466.59 1645.66 3468.18 1645.42 3469.43C1645.22 3470.68 1644.74 3471.88 1644.07 3472.99C1643.25 3474.33 1642.19 3475.39 1640.85 3476.11C1639.5 3476.88 1637.72 3477.22 1635.56 3477.22H1632.58V3493.27H1626.71H1626.62ZM1632.48 3457.75V3471.69H1635.32C1636.52 3471.69 1637.43 3471.5 1638.11 3471.16C1638.78 3470.82 1639.26 3470.34 1639.55 3469.72C1639.84 3469.14 1640.03 3468.42 1640.08 3467.6C1640.13 3466.74 1640.17 3465.83 1640.17 3464.77C1640.17 3463.81 1640.17 3462.89 1640.13 3462.03C1640.13 3461.16 1639.93 3460.39 1639.6 3459.77C1639.31 3459.1 1638.83 3458.62 1638.2 3458.28C1637.58 3457.94 1636.71 3457.75 1635.56 3457.75H1632.48Z" fill="black"/>
<path id="Vector_75" d="M1662.14 3461.94C1662.14 3460.31 1662.43 3458.82 1663.01 3457.57C1663.59 3456.32 1664.36 3455.26 1665.32 3454.39C1666.23 3453.58 1667.29 3452.95 1668.44 3452.57C1669.6 3452.14 1670.8 3451.94 1672 3451.94C1673.2 3451.94 1674.36 3452.14 1675.56 3452.57C1676.71 3453 1677.82 3453.63 1678.78 3454.39C1679.69 3455.26 1680.46 3456.32 1681.04 3457.57C1681.62 3458.82 1681.9 3460.31 1681.9 3461.94V3483.61C1681.9 3485.34 1681.62 3486.83 1681.04 3488.04C1680.46 3489.24 1679.69 3490.29 1678.78 3491.11C1677.82 3491.98 1676.76 3492.6 1675.56 3493.03C1674.36 3493.47 1673.2 3493.66 1672 3493.66C1670.8 3493.66 1669.64 3493.47 1668.44 3493.03C1667.29 3492.6 1666.23 3491.98 1665.32 3491.11C1664.36 3490.29 1663.59 3489.29 1663.01 3488.04C1662.43 3486.79 1662.14 3485.34 1662.14 3483.61V3461.94ZM1668.01 3483.61C1668.01 3485.06 1668.39 3486.07 1669.21 3486.74C1669.98 3487.41 1670.94 3487.75 1672 3487.75C1673.06 3487.75 1674.02 3487.41 1674.79 3486.74C1675.56 3486.07 1675.99 3485.01 1675.99 3483.61V3461.94C1675.99 3460.5 1675.61 3459.49 1674.79 3458.82C1674.02 3458.14 1673.06 3457.81 1672 3457.81C1670.94 3457.81 1669.98 3458.14 1669.21 3458.82C1668.44 3459.49 1668.01 3460.55 1668.01 3461.94V3483.61Z" fill="black"/>
<path id="Vector_76" d="M1729.31 3452.22L1723.2 3493.27H1717.67L1713.15 3466.64H1713.06L1708.63 3493.27H1703.11L1697 3452.22H1703.25L1706.18 3478.27H1706.28L1710.89 3452.22H1715.41L1720.22 3478.95H1720.32L1723.15 3452.22H1729.4H1729.31Z" fill="black"/>
<path id="Vector_77" d="M1745.42 3493.27V3452.22H1762.96V3457.75H1751.33V3469.81H1761.47V3475.34H1751.33V3487.4H1762.96V3493.27H1745.42Z" fill="black"/>
<path id="Vector_78" d="M1779.16 3493.27V3452.22H1788.63C1795.56 3452.22 1799.02 3456.26 1799.02 3464.29C1799.02 3466.69 1798.63 3468.76 1797.91 3470.44C1797.14 3472.12 1795.85 3473.51 1793.97 3474.52L1800.32 3493.27H1794.07L1788.59 3475.73H1785.08V3493.27H1779.21H1779.16ZM1785.03 3457.75V3470.54H1788.39C1789.45 3470.54 1790.27 3470.39 1790.89 3470.1C1791.52 3469.81 1792 3469.38 1792.34 3468.85C1792.62 3468.32 1792.86 3467.65 1792.96 3466.88C1793.06 3466.11 1793.15 3465.2 1793.15 3464.14C1793.15 3463.09 1793.11 3462.17 1792.96 3461.4C1792.86 3460.64 1792.62 3459.91 1792.29 3459.34C1791.57 3458.28 1790.17 3457.7 1788.15 3457.7H1785.08L1785.03 3457.75Z" fill="black"/>
<path id="Vector_79" d="M1816.14 3493.27V3452.22H1833.68V3457.75H1822.05V3469.81H1832.19V3475.34H1822.05V3487.4H1833.68V3493.27H1816.14Z" fill="black"/>
<path id="Vector_80" d="M1849.88 3493.27V3452.22H1858.59C1861.95 3452.22 1864.55 3453.14 1866.28 3455.01C1868.01 3456.84 1868.92 3459.48 1868.92 3462.85V3482.07C1868.92 3485.91 1868.01 3488.75 1866.13 3490.58C1864.26 3492.4 1861.57 3493.32 1858.1 3493.32H1849.93L1849.88 3493.27ZM1855.75 3457.75V3487.74H1858.44C1860.08 3487.74 1861.28 3487.31 1861.95 3486.49C1862.62 3485.67 1863.01 3484.38 1863.01 3482.6V3462.8C1863.01 3461.16 1862.67 3459.91 1862.05 3459.05C1861.37 3458.18 1860.22 3457.7 1858.49 3457.7H1855.8L1855.75 3457.75Z" fill="black"/>
<path id="Vector_81" d="M1909.98 3493.27V3452.22H1918.59C1920.46 3452.22 1922.1 3452.51 1923.39 3453.09C1924.74 3453.67 1925.8 3454.44 1926.66 3455.4C1927.53 3456.36 1928.11 3457.46 1928.49 3458.71C1928.87 3459.96 1929.02 3461.26 1929.02 3462.61V3464.1C1929.02 3465.2 1928.92 3466.16 1928.78 3466.93C1928.59 3467.7 1928.35 3468.37 1928.01 3468.95C1927.34 3470.01 1926.37 3470.97 1925.03 3471.74C1926.42 3472.41 1927.43 3473.37 1928.11 3474.62C1928.78 3475.87 1929.07 3477.6 1929.07 3479.81V3482.12C1929.07 3485.72 1928.2 3488.51 1926.42 3490.43C1924.69 3492.35 1921.86 3493.32 1918.01 3493.32H1909.98V3493.27ZM1915.89 3457.75V3469.05H1918.54C1920.51 3469.05 1921.81 3468.56 1922.48 3467.56C1923.15 3466.55 1923.49 3465.15 1923.49 3463.28C1923.49 3461.4 1923.11 3460.06 1922.38 3459.15C1921.62 3458.23 1920.27 3457.75 1918.3 3457.75H1915.89ZM1915.89 3474.24V3487.4H1918.44C1919.64 3487.4 1920.56 3487.21 1921.23 3486.88C1921.9 3486.54 1922.43 3486.06 1922.77 3485.43C1923.11 3484.81 1923.35 3484.09 1923.39 3483.22C1923.49 3482.36 1923.49 3481.44 1923.49 3480.44C1923.49 3479.43 1923.44 3478.51 1923.3 3477.74C1923.2 3476.98 1922.96 3476.3 1922.62 3475.77C1922.24 3475.25 1921.71 3474.86 1921.09 3474.57C1920.46 3474.28 1919.55 3474.19 1918.49 3474.19H1915.89V3474.24Z" fill="black"/>
<path id="Vector_82" d="M1952.43 3493.27V3475.92L1944.36 3452.22H1950.61L1955.32 3468.56H1955.41L1960.13 3452.22H1966.38L1958.3 3475.92V3493.27H1952.43Z" fill="black"/>
<g id="Layer_1-2_2">
<path id="Vector_83" d="M1532.34 3661H1370.37C1349.12 3661 1331.81 3643.7 1331.81 3622.46V3460.54C1331.81 3439.3 1349.12 3422 1370.37 3422H1532.34C1553.59 3422 1570.89 3439.3 1570.89 3460.54V3622.46C1570.89 3643.7 1553.59 3661 1532.34 3661ZM1370.37 3426.47C1351.57 3426.47 1336.28 3441.75 1336.28 3460.54V3622.46C1336.28 3641.25 1351.57 3656.53 1370.41 3656.53H1532.38C1551.18 3656.53 1566.52 3641.25 1566.52 3622.46V3460.54C1566.52 3441.75 1551.23 3426.47 1532.38 3426.47H1370.37Z" fill="black"/>
<path id="Vector_84" d="M1451.38 3453.82C1413.39 3453.82 1382.53 3484.91 1382.53 3523.17C1382.53 3536.72 1386.42 3549.84 1393.78 3561.13L1393.97 3561.42C1394.79 3562.67 1395.7 3563.97 1396.62 3565.17L1443.49 3625.96C1443.49 3625.96 1443.49 3625.96 1443.49 3626.01L1445.85 3629.23V3625.92C1445.85 3602.46 1438.78 3593.24 1436.28 3589.39C1435.8 3588.62 1435.94 3587.32 1435.89 3586.22C1435.89 3585.64 1436.38 3585.21 1436.9 3585.26C1441.62 3586.51 1446.47 3587.13 1451.42 3587.13C1456.38 3587.13 1461.28 3586.51 1465.99 3585.26C1466.47 3585.26 1466.86 3585.69 1466.86 3586.22C1466.86 3587.28 1467 3588.62 1466.47 3589.39C1463.97 3593.24 1456.9 3602.46 1456.9 3625.92V3628.99L1460.22 3624.67L1505.7 3565.6C1515.17 3553.35 1520.17 3538.64 1520.17 3523.12C1520.17 3484.91 1489.31 3453.77 1451.33 3453.77L1451.38 3453.82ZM1485.22 3568.25C1475.32 3575.55 1463.64 3579.4 1451.42 3579.4C1433.15 3579.4 1415.8 3570.5 1405.03 3555.65C1386.38 3529.94 1392 3493.71 1417.53 3474.91C1427.43 3467.61 1439.12 3463.76 1451.33 3463.76C1469.6 3463.76 1486.95 3472.65 1497.72 3487.51C1516.38 3513.22 1510.75 3549.45 1485.22 3568.25Z" fill="black"/>
</g>
</g>
</g>
</g>
<g id="#logo-placement">
<g id="Area">
<rect width="5710" height="3604" transform="translate(1278 532)" fill="#2063D6"/>
</g>
</g>
</g>
</svg>
