<svg width="7522" height="4670" viewBox="0 0 7522 4670" fill="none" xmlns="http://www.w3.org/2000/svg">
<g id="Pennant">
<rect id="zone-primary" width="7519" height="4669" fill="white"/>
<g id="Border">
<path id="zone-border" d="M0.5 2H7519V2591L0.5 51.5V2Z" fill="#373737"/>
<path id="zone-border_2" d="M0.5 4670H7521.95L7519 2070L0.5 4609.5V4670Z" fill="#373737"/>
<rect id="zone-border_3" y="4669" width="4669" height="1352" transform="rotate(-90 0 4669)" fill="#373737"/>
</g>
<g id="Bleed">
<g id="Bleed_2">
<path id="Bleed_3" d="M7518.5 0.5V2433.8L306.154 0.5H7518.5Z" fill="#9A9A9A" stroke="#9A9A9A"/>
<rect id="Bleed_4" x="0.5" y="4668.5" width="4668" height="1205" transform="rotate(-90 0.5 4668.5)" fill="#9A9A9A" stroke="#9A9A9A"/>
<path id="Bleed_5" d="M7518.5 4668.5V2235.2L306.154 4668.5H7518.5Z" fill="#9A9A9A" stroke="#9A9A9A"/>
<path id="Bleed_6" d="M1207 460L6744.5 2331L1207 4209" stroke="#9A9A9A" stroke-width="8" stroke-dasharray="20 20"/>
</g>
<g id="GolfStatus Tag">
<g id="Back - Dark Tag">
<path id="Vector" d="M1470.81 3564.98C1470.81 3537.3 1493.02 3515.24 1520.71 3515.24C1532.49 3515.24 1542.49 3517.45 1551.82 3523.17C1554.41 3524.81 1554.99 3527.16 1553.45 3530.04L1552.06 3532.35C1550.57 3535.38 1548.21 3535.76 1545.18 3534.13C1534.51 3528.36 1527.92 3528.22 1520.66 3528.22C1501.19 3528.22 1485.57 3544.37 1485.57 3564.79C1485.57 3583.15 1497.92 3601.08 1522.59 3601.08C1530.95 3601.08 1538.07 3599.01 1544.51 3594.92V3575.89H1522.87C1519.7 3575.89 1517.92 3573.97 1517.92 3570.85V3569.21C1517.92 3566.04 1519.7 3564.26 1522.87 3564.26H1552.88C1556.05 3564.26 1557.83 3566.04 1557.83 3569.21V3596.9C1557.83 3599.49 1556.72 3601.7 1553.6 3604.15C1542.63 3612.23 1530.71 3614.15 1521.96 3614.15C1492.2 3614.15 1470.86 3591.95 1470.86 3564.98" fill="white"/>
<path id="Vector_2" d="M1571.53 3564.7C1571.53 3537.45 1593.74 3515.24 1621.43 3515.24C1649.13 3515.24 1671.34 3537.45 1671.34 3564.7C1671.34 3591.95 1649.13 3614.15 1621.43 3614.15C1593.74 3614.15 1571.53 3591.95 1571.53 3564.7ZM1656.53 3564.7C1656.53 3544.03 1640.76 3528.27 1621.43 3528.27C1602.11 3528.27 1586.34 3544.03 1586.34 3564.7C1586.34 3585.36 1602.11 3601.12 1621.43 3601.12C1640.76 3601.12 1656.53 3585.36 1656.53 3564.7Z" fill="white"/>
<path id="Vector_3" d="M1687.73 3607.76V3521.73C1687.73 3518.56 1689.51 3516.78 1692.68 3516.78H1697.35C1700.52 3516.78 1702.3 3518.56 1702.3 3521.73V3600.79H1741.1C1744.27 3600.79 1746.14 3602.57 1746.14 3605.74V3607.81C1746.14 3610.98 1744.22 3612.76 1741.1 3612.76H1692.73C1689.56 3612.76 1687.78 3610.98 1687.78 3607.81" fill="white"/>
<path id="Vector_4" d="M1819.99 3521.67V3523.74C1819.99 3526.91 1818.21 3528.69 1815.04 3528.69H1773.12V3559.79H1809.03C1812.2 3559.79 1814.08 3561.56 1814.08 3564.74V3566.51C1814.08 3569.69 1812.16 3571.56 1809.03 3571.56H1773.12V3607.7C1773.12 3610.87 1771.34 3612.65 1768.17 3612.65H1763.5C1760.33 3612.65 1758.55 3610.87 1758.55 3607.7V3521.67C1758.55 3518.5 1760.33 3516.72 1763.5 3516.72H1815.04C1818.21 3516.72 1819.99 3518.5 1819.99 3521.67Z" fill="white"/>
<path id="Vector_5" d="M1829.56 3594.73C1828.21 3591.7 1829.85 3589.4 1832.83 3588.58L1836.82 3587.62C1839.85 3586.95 1841.48 3588.05 1842.97 3590.89C1846.39 3596.8 1853.65 3601.41 1863.26 3601.41C1875.62 3601.41 1883.12 3595.41 1883.12 3587.19C1883.12 3579.93 1877.11 3575.41 1869.27 3572.53L1855.04 3567.72C1836.96 3561.72 1832.59 3550.85 1832.59 3541.96C1832.59 3525.38 1847.11 3515.24 1863.7 3515.24C1878.79 3515.24 1889.46 3522.5 1893.84 3533.31C1895.09 3536.34 1893.55 3538.65 1890.57 3539.46L1887.16 3540.57C1884.13 3541.39 1882.21 3540.28 1880.86 3537.4C1877.69 3531.1 1871.82 3528.07 1863.89 3528.07C1854.85 3528.07 1847.3 3533.02 1847.3 3541.48C1847.3 3545.47 1848.55 3550.66 1859.51 3554.8L1873.74 3560.13C1889.9 3565.18 1897.3 3575.89 1897.3 3586.18C1897.3 3603.43 1883.6 3614.1 1863.6 3614.1C1846.63 3614.1 1834.56 3605.88 1829.61 3594.64" fill="white"/>
<path id="Vector_6" d="M1983.45 3521.67V3523.74C1983.45 3526.91 1981.67 3528.69 1978.5 3528.69H1951.77V3607.75C1951.77 3610.92 1949.99 3612.7 1946.82 3612.7H1942.3C1939.13 3612.7 1937.35 3610.92 1937.35 3607.75V3528.69H1910.62C1907.59 3528.69 1905.67 3526.91 1905.67 3523.74V3521.67C1905.67 3518.5 1907.59 3516.72 1910.62 3516.72H1978.45C1981.63 3516.72 1983.41 3518.5 1983.41 3521.67" fill="white"/>
<path id="Vector_7" d="M1979.51 3606.88L2012.54 3520.71C2013.5 3518.12 2015.57 3516.72 2018.31 3516.72H2026.24C2029.13 3516.72 2031.05 3518.12 2032.01 3520.71L2065.33 3606.88C2066.58 3610.3 2065.19 3612.65 2061.48 3612.65H2057.11C2054.23 3612.65 2052.3 3611.4 2051.2 3608.66L2045.28 3593.04H1999.51L1993.6 3608.66C1992.49 3611.4 1990.72 3612.65 1987.83 3612.65H1983.31C1979.61 3612.65 1978.12 3610.34 1979.47 3606.88M2041.15 3581.27L2022.25 3530.85L2003.6 3581.27H2041.15Z" fill="white"/>
<path id="Vector_8" d="M2138.89 3521.67V3523.74C2138.89 3526.91 2137.11 3528.69 2133.93 3528.69H2107.2V3607.75C2107.2 3610.92 2105.42 3612.7 2102.25 3612.7H2097.73C2094.56 3612.7 2092.78 3610.92 2092.78 3607.75V3528.69H2066.05C2063.02 3528.69 2061.1 3526.91 2061.1 3523.74V3521.67C2061.1 3518.5 2063.02 3516.72 2066.05 3516.72H2133.89C2137.06 3516.72 2138.84 3518.5 2138.84 3521.67" fill="white"/>
<path id="Vector_9" d="M2153.12 3577.04V3521.67C2153.12 3518.5 2155.04 3516.72 2158.07 3516.72H2162.73C2165.9 3516.72 2167.68 3518.5 2167.68 3521.67V3577.04C2167.68 3593.19 2178.64 3601.17 2191.24 3601.17C2203.84 3601.17 2214.94 3593.24 2214.94 3577.04V3521.67C2214.94 3518.5 2216.72 3516.72 2219.89 3516.72H2224.41C2227.59 3516.72 2229.51 3518.5 2229.51 3521.67V3577.04C2229.51 3601.41 2211.96 3614.19 2191.29 3614.19C2170.62 3614.19 2153.21 3601.45 2153.21 3577.04" fill="white"/>
<path id="Vector_10" d="M2244.51 3594.73C2243.16 3591.7 2244.8 3589.4 2247.78 3588.58L2251.77 3587.62C2254.8 3586.95 2256.43 3588.05 2257.92 3590.89C2261.34 3596.8 2268.6 3601.41 2278.21 3601.41C2290.57 3601.41 2298.07 3595.41 2298.07 3587.19C2298.07 3579.93 2292.06 3575.41 2284.22 3572.53L2269.99 3567.72C2251.91 3561.72 2247.54 3550.85 2247.54 3541.96C2247.54 3525.38 2262.06 3515.24 2278.65 3515.24C2293.74 3515.24 2304.41 3522.5 2308.79 3533.31C2310.04 3536.34 2308.5 3538.65 2305.52 3539.46L2302.11 3540.57C2299.08 3541.39 2297.16 3540.28 2295.81 3537.4C2292.64 3531.1 2286.77 3528.07 2278.84 3528.07C2269.8 3528.07 2262.25 3533.02 2262.25 3541.48C2262.25 3545.47 2263.5 3550.66 2274.46 3554.8L2288.69 3560.13C2304.85 3565.18 2312.25 3575.89 2312.25 3586.18C2312.25 3603.43 2298.55 3614.1 2278.55 3614.1C2261.58 3614.1 2249.51 3605.88 2244.56 3594.64" fill="white"/>
<path id="Vector_11" d="M1972.45 3477.27V3436.22H1981.29C1982.93 3436.22 1984.32 3436.42 1985.57 3436.85C1986.82 3437.28 1987.93 3438 1988.94 3439.11C1989.95 3440.17 1990.62 3441.46 1991 3442.9C1991.39 3444.35 1991.58 3446.32 1991.58 3448.77C1991.58 3450.59 1991.48 3452.18 1991.24 3453.43C1991.05 3454.68 1990.57 3455.88 1989.9 3456.99C1989.08 3458.33 1988.02 3459.39 1986.68 3460.11C1985.33 3460.88 1983.55 3461.22 1981.39 3461.22H1978.41V3477.27H1972.54H1972.45ZM1978.31 3441.75V3455.69H1981.15C1982.35 3455.69 1983.26 3455.5 1983.94 3455.16C1984.61 3454.82 1985.09 3454.34 1985.38 3453.72C1985.67 3453.14 1985.86 3452.42 1985.91 3451.6C1985.96 3450.74 1986 3449.83 1986 3448.77C1986 3447.81 1986 3446.89 1985.96 3446.03C1985.96 3445.16 1985.76 3444.39 1985.43 3443.77C1985.14 3443.1 1984.66 3442.62 1984.03 3442.28C1983.41 3441.94 1982.54 3441.75 1981.39 3441.75H1978.31Z" fill="white"/>
<path id="Vector_12" d="M2007.97 3445.94C2007.97 3444.31 2008.26 3442.82 2008.84 3441.57C2009.42 3440.32 2010.19 3439.26 2011.15 3438.39C2012.06 3437.58 2013.12 3436.95 2014.27 3436.57C2015.43 3436.14 2016.63 3435.94 2017.83 3435.94C2019.03 3435.94 2020.19 3436.14 2021.39 3436.57C2022.54 3437 2023.65 3437.63 2024.61 3438.39C2025.52 3439.26 2026.29 3440.32 2026.87 3441.57C2027.44 3442.82 2027.73 3444.31 2027.73 3445.94V3467.61C2027.73 3469.34 2027.44 3470.83 2026.87 3472.04C2026.29 3473.24 2025.52 3474.29 2024.61 3475.11C2023.65 3475.98 2022.59 3476.6 2021.39 3477.03C2020.19 3477.47 2019.03 3477.66 2017.83 3477.66C2016.63 3477.66 2015.47 3477.47 2014.27 3477.03C2013.12 3476.6 2012.06 3475.98 2011.15 3475.11C2010.19 3474.29 2009.42 3473.29 2008.84 3472.04C2008.26 3470.79 2007.97 3469.34 2007.97 3467.61V3445.94ZM2013.84 3467.61C2013.84 3469.06 2014.22 3470.07 2015.04 3470.74C2015.81 3471.41 2016.77 3471.75 2017.83 3471.75C2018.89 3471.75 2019.85 3471.41 2020.62 3470.74C2021.39 3470.07 2021.82 3469.01 2021.82 3467.61V3445.94C2021.82 3444.5 2021.44 3443.49 2020.62 3442.82C2019.85 3442.14 2018.89 3441.81 2017.83 3441.81C2016.77 3441.81 2015.81 3442.14 2015.04 3442.82C2014.27 3443.49 2013.84 3444.55 2013.84 3445.94V3467.61Z" fill="white"/>
<path id="Vector_13" d="M2075.14 3436.22L2069.03 3477.27H2063.5L2058.98 3450.64H2058.89L2054.46 3477.27H2048.93L2042.83 3436.22H2049.08L2052.01 3462.27H2052.11L2056.72 3436.22H2061.24L2066.05 3462.95H2066.15L2068.98 3436.22H2075.23H2075.14Z" fill="white"/>
<path id="Vector_14" d="M2091.19 3477.27V3436.22H2108.74V3441.75H2097.11V3453.81H2107.25V3459.34H2097.11V3471.4H2108.74V3477.27H2091.19Z" fill="white"/>
<path id="Vector_15" d="M2124.95 3477.27V3436.22H2134.42C2141.34 3436.22 2144.8 3440.26 2144.8 3448.29C2144.8 3450.69 2144.42 3452.76 2143.7 3454.44C2142.93 3456.12 2141.63 3457.51 2139.75 3458.52L2146.1 3477.27H2139.85L2134.37 3459.73H2130.86V3477.27H2124.99H2124.95ZM2130.86 3441.75V3454.54H2134.22C2135.28 3454.54 2136.1 3454.39 2136.72 3454.1C2137.35 3453.81 2137.83 3453.38 2138.17 3452.85C2138.45 3452.32 2138.7 3451.65 2138.79 3450.88C2138.89 3450.11 2138.98 3449.2 2138.98 3448.14C2138.98 3447.09 2138.94 3446.17 2138.79 3445.4C2138.7 3444.64 2138.45 3443.91 2138.12 3443.34C2137.4 3442.28 2136 3441.7 2133.98 3441.7H2130.91L2130.86 3441.75Z" fill="white"/>
<path id="Vector_16" d="M2161.97 3477.27V3436.22H2179.51V3441.75H2167.88V3453.81H2178.02V3459.34H2167.88V3471.4H2179.51V3477.27H2161.97Z" fill="white"/>
<path id="Vector_17" d="M2195.71 3477.27V3436.22H2204.41C2207.78 3436.22 2210.38 3437.14 2212.11 3439.01C2213.84 3440.84 2214.75 3443.48 2214.75 3446.85V3466.07C2214.75 3469.91 2213.84 3472.75 2211.96 3474.58C2210.09 3476.4 2207.4 3477.32 2203.93 3477.32H2195.76L2195.71 3477.27ZM2201.58 3441.75V3471.74H2204.27C2205.91 3471.74 2207.11 3471.31 2207.78 3470.49C2208.45 3469.67 2208.84 3468.38 2208.84 3466.6V3446.8C2208.84 3445.16 2208.5 3443.91 2207.88 3443.05C2207.2 3442.18 2206.05 3441.7 2204.32 3441.7H2201.63L2201.58 3441.75Z" fill="white"/>
<path id="Vector_18" d="M2255.81 3477.27V3436.22H2264.42C2266.29 3436.22 2267.93 3436.51 2269.22 3437.09C2270.57 3437.67 2271.63 3438.44 2272.49 3439.4C2273.36 3440.36 2273.93 3441.46 2274.32 3442.71C2274.7 3443.96 2274.85 3445.26 2274.85 3446.61V3448.1C2274.85 3449.2 2274.75 3450.16 2274.61 3450.93C2274.42 3451.7 2274.17 3452.37 2273.84 3452.95C2273.17 3454.01 2272.2 3454.97 2270.86 3455.74C2272.25 3456.41 2273.26 3457.37 2273.93 3458.62C2274.61 3459.87 2274.9 3461.6 2274.9 3463.81V3466.12C2274.9 3469.72 2274.03 3472.51 2272.25 3474.43C2270.52 3476.35 2267.68 3477.32 2263.84 3477.32H2255.81V3477.27ZM2261.67 3441.75V3453.05H2264.32C2266.29 3453.05 2267.59 3452.56 2268.26 3451.56C2268.93 3450.55 2269.27 3449.15 2269.27 3447.28C2269.27 3445.4 2268.89 3444.06 2268.17 3443.15C2267.4 3442.23 2266.05 3441.75 2264.08 3441.75H2261.67ZM2261.67 3458.24V3471.4H2264.22C2265.42 3471.4 2266.34 3471.21 2267.01 3470.88C2267.68 3470.54 2268.21 3470.06 2268.55 3469.43C2268.89 3468.81 2269.13 3468.09 2269.17 3467.22C2269.27 3466.36 2269.27 3465.44 2269.27 3464.44C2269.27 3463.43 2269.22 3462.51 2269.08 3461.74C2268.98 3460.98 2268.74 3460.3 2268.41 3459.77C2268.02 3459.25 2267.49 3458.86 2266.87 3458.57C2266.24 3458.28 2265.33 3458.19 2264.27 3458.19H2261.67V3458.24Z" fill="white"/>
<path id="Vector_19" d="M2298.26 3477.27V3459.92L2290.19 3436.22H2296.44L2301.15 3452.56H2301.24L2305.96 3436.22H2312.21L2304.13 3459.92V3477.27H2298.26Z" fill="white"/>
<g id="Layer_1">
<path id="Vector_20" d="M2568.79 3645H2406.82C2385.57 3645 2368.26 3627.7 2368.26 3606.46V3444.54C2368.26 3423.3 2385.57 3406 2406.82 3406H2568.79C2590.04 3406 2607.35 3423.3 2607.35 3444.54V3606.46C2607.35 3627.7 2590.04 3645 2568.79 3645ZM2406.87 3410.47C2388.07 3410.47 2372.73 3425.75 2372.73 3444.54V3606.46C2372.73 3625.25 2388.02 3640.53 2406.87 3640.53H2568.84C2587.63 3640.53 2602.97 3625.25 2602.97 3606.46V3444.54C2602.97 3425.75 2587.68 3410.47 2568.84 3410.47H2406.87Z" fill="white"/>
<path id="Vector_21" d="M2487.83 3437.82C2449.85 3437.82 2418.98 3468.91 2418.98 3507.17C2418.98 3520.72 2422.88 3533.84 2430.23 3545.13L2430.42 3545.42C2431.24 3546.67 2432.15 3547.97 2433.07 3549.17L2479.94 3609.96C2479.94 3609.96 2479.94 3609.96 2479.94 3610.01L2482.3 3613.23V3609.92C2482.3 3586.46 2475.23 3577.24 2472.73 3573.39C2472.25 3572.62 2472.39 3571.32 2472.35 3570.22C2472.35 3569.64 2472.83 3569.21 2473.36 3569.26C2478.07 3570.51 2482.92 3571.13 2487.88 3571.13C2492.83 3571.13 2497.73 3570.51 2502.44 3569.26C2502.92 3569.26 2503.31 3569.69 2503.31 3570.22C2503.31 3571.28 2503.45 3572.62 2502.92 3573.39C2500.42 3577.24 2493.36 3586.46 2493.36 3609.92V3612.99L2496.67 3608.67L2542.15 3549.6C2551.63 3537.35 2556.63 3522.64 2556.63 3507.12C2556.63 3468.91 2525.76 3437.77 2487.78 3437.77L2487.83 3437.82ZM2521.67 3552.25C2511.77 3559.55 2500.09 3563.4 2487.88 3563.4C2469.61 3563.4 2452.25 3554.5 2441.48 3539.65C2422.83 3513.94 2428.45 3477.71 2453.98 3458.91C2463.89 3451.61 2475.57 3447.76 2487.78 3447.76C2506.05 3447.76 2523.4 3456.65 2534.17 3471.51C2552.83 3497.22 2547.2 3533.45 2521.67 3552.25Z" fill="white"/>
</g>
</g>
<g id="Front - Dark Tag">
<path id="Vector_22" d="M1764.56 3564.98C1764.56 3537.3 1786.77 3515.24 1814.46 3515.24C1826.24 3515.24 1836.24 3517.45 1845.57 3523.17C1848.16 3524.81 1848.74 3527.16 1847.2 3530.04L1845.81 3532.35C1844.32 3535.38 1841.96 3535.76 1838.93 3534.13C1828.26 3528.36 1821.67 3528.22 1814.41 3528.22C1794.94 3528.22 1779.32 3544.37 1779.32 3564.79C1779.32 3583.15 1791.67 3601.08 1816.33 3601.08C1824.7 3601.08 1831.82 3599.01 1838.26 3594.92V3575.89H1816.62C1813.45 3575.89 1811.67 3573.97 1811.67 3570.85V3569.21C1811.67 3566.04 1813.45 3564.26 1816.62 3564.26H1846.62C1849.8 3564.26 1851.57 3566.04 1851.57 3569.21V3596.9C1851.57 3599.49 1850.47 3601.7 1847.34 3604.15C1836.38 3612.23 1824.46 3614.15 1815.71 3614.15C1785.95 3614.15 1764.6 3591.95 1764.6 3564.98" fill="white"/>
<path id="Vector_23" d="M1865.28 3564.7C1865.28 3537.45 1887.49 3515.24 1915.18 3515.24C1942.87 3515.24 1965.09 3537.45 1965.09 3564.7C1965.09 3591.95 1942.87 3614.15 1915.18 3614.15C1887.49 3614.15 1865.28 3591.95 1865.28 3564.7ZM1950.23 3564.7C1950.23 3544.03 1934.46 3528.27 1915.13 3528.27C1895.81 3528.27 1880.04 3544.03 1880.04 3564.7C1880.04 3585.36 1895.81 3601.12 1915.13 3601.12C1934.46 3601.12 1950.23 3585.36 1950.23 3564.7Z" fill="white"/>
<path id="Vector_24" d="M1981.48 3607.76V3521.73C1981.48 3518.56 1983.26 3516.78 1986.43 3516.78H1991.09C1994.27 3516.78 1996.05 3518.56 1996.05 3521.73V3600.79H2034.84C2038.02 3600.79 2039.89 3602.57 2039.89 3605.74V3607.81C2039.89 3610.98 2037.97 3612.76 2034.84 3612.76H1986.48C1983.31 3612.76 1981.53 3610.98 1981.53 3607.81" fill="white"/>
<path id="Vector_25" d="M2113.74 3521.67V3523.74C2113.74 3526.91 2111.96 3528.69 2108.79 3528.69H2066.87V3559.79H2102.78C2105.95 3559.79 2107.83 3561.56 2107.83 3564.74V3566.51C2107.83 3569.69 2105.91 3571.56 2102.78 3571.56H2066.87V3607.7C2066.87 3610.87 2065.09 3612.65 2061.92 3612.65H2057.25C2054.08 3612.65 2052.3 3610.87 2052.3 3607.7V3521.67C2052.3 3518.5 2054.08 3516.72 2057.25 3516.72H2108.79C2111.96 3516.72 2113.74 3518.5 2113.74 3521.67Z" fill="white"/>
<path id="Vector_26" d="M2123.31 3594.73C2121.96 3591.7 2123.6 3589.4 2126.58 3588.58L2130.57 3587.62C2133.6 3586.95 2135.23 3588.05 2136.72 3590.89C2140.14 3596.8 2147.4 3601.41 2157.01 3601.41C2169.37 3601.41 2176.87 3595.41 2176.87 3587.19C2176.87 3579.93 2170.86 3575.41 2163.02 3572.53L2148.79 3567.72C2130.71 3561.72 2126.34 3550.85 2126.34 3541.96C2126.34 3525.38 2140.86 3515.24 2157.44 3515.24C2172.54 3515.24 2183.21 3522.5 2187.59 3533.31C2188.84 3536.34 2187.3 3538.65 2184.32 3539.46L2180.91 3540.57C2177.88 3541.39 2175.95 3540.28 2174.61 3537.4C2171.43 3531.1 2165.57 3528.07 2157.64 3528.07C2148.6 3528.07 2141.05 3533.02 2141.05 3541.48C2141.05 3545.47 2142.3 3550.66 2153.26 3554.8L2167.49 3560.13C2183.65 3565.18 2191.05 3575.89 2191.05 3586.18C2191.05 3603.43 2177.35 3614.1 2157.35 3614.1C2140.38 3614.1 2128.31 3605.88 2123.36 3594.64" fill="white"/>
<path id="Vector_27" d="M2277.2 3521.67V3523.74C2277.2 3526.91 2275.42 3528.69 2272.25 3528.69H2245.52V3607.75C2245.52 3610.92 2243.74 3612.7 2240.57 3612.7H2236.05C2232.87 3612.7 2231.1 3610.92 2231.1 3607.75V3528.69H2204.37C2201.34 3528.69 2199.41 3526.91 2199.41 3523.74V3521.67C2199.41 3518.5 2201.34 3516.72 2204.37 3516.72H2272.2C2275.37 3516.72 2277.15 3518.5 2277.15 3521.67" fill="white"/>
<path id="Vector_28" d="M2273.21 3606.88L2306.24 3520.71C2307.2 3518.12 2309.27 3516.72 2312.01 3516.72H2319.94C2322.83 3516.72 2324.75 3518.12 2325.71 3520.71L2359.03 3606.88C2360.28 3610.3 2358.88 3612.65 2355.18 3612.65H2350.81C2347.92 3612.65 2346 3611.4 2344.89 3608.66L2338.98 3593.04H2293.21L2287.3 3608.66C2286.19 3611.4 2284.41 3612.65 2281.53 3612.65H2277.01C2273.31 3612.65 2271.82 3610.34 2273.16 3606.88M2334.89 3581.27L2316 3530.85L2297.34 3581.27H2334.89Z" fill="white"/>
<path id="Vector_29" d="M2432.59 3521.67V3523.74C2432.59 3526.91 2430.81 3528.69 2427.64 3528.69H2400.9V3607.75C2400.9 3610.92 2399.13 3612.7 2395.95 3612.7H2391.43C2388.26 3612.7 2386.48 3610.92 2386.48 3607.75V3528.69H2359.75C2356.72 3528.69 2354.8 3526.91 2354.8 3523.74V3521.67C2354.8 3518.5 2356.72 3516.72 2359.75 3516.72H2427.59C2430.76 3516.72 2432.54 3518.5 2432.54 3521.67" fill="white"/>
<path id="Vector_30" d="M2446.86 3577.04V3521.67C2446.86 3518.5 2448.79 3516.72 2451.82 3516.72H2456.48C2459.65 3516.72 2461.43 3518.5 2461.43 3521.67V3577.04C2461.43 3593.19 2472.39 3601.17 2484.99 3601.17C2497.58 3601.17 2508.69 3593.24 2508.69 3577.04V3521.67C2508.69 3518.5 2510.47 3516.72 2513.64 3516.72H2518.16C2521.33 3516.72 2523.26 3518.5 2523.26 3521.67V3577.04C2523.26 3601.41 2505.71 3614.19 2485.04 3614.19C2464.36 3614.19 2446.96 3601.45 2446.96 3577.04" fill="white"/>
<path id="Vector_31" d="M2538.26 3594.73C2536.91 3591.7 2538.55 3589.4 2541.53 3588.58L2545.52 3587.62C2548.55 3586.95 2550.18 3588.05 2551.67 3590.89C2555.09 3596.8 2562.35 3601.41 2571.96 3601.41C2584.32 3601.41 2591.82 3595.41 2591.82 3587.19C2591.82 3579.93 2585.81 3575.41 2577.97 3572.53L2563.74 3567.72C2545.66 3561.72 2541.29 3550.85 2541.29 3541.96C2541.29 3525.38 2555.81 3515.24 2572.39 3515.24C2587.49 3515.24 2598.16 3522.5 2602.54 3533.31C2603.79 3536.34 2602.25 3538.65 2599.27 3539.46L2595.86 3540.57C2592.83 3541.39 2590.9 3540.28 2589.56 3537.4C2586.38 3531.1 2580.52 3528.07 2572.59 3528.07C2563.55 3528.07 2556 3533.02 2556 3541.48C2556 3545.47 2557.25 3550.66 2568.21 3554.8L2582.44 3560.13C2598.6 3565.18 2606 3575.89 2606 3586.18C2606 3603.43 2592.3 3614.1 2572.3 3614.1C2555.33 3614.1 2543.26 3605.88 2538.31 3594.64" fill="white"/>
<path id="Vector_32" d="M1765.62 3477.27V3436.22H1774.46C1776.1 3436.22 1777.49 3436.42 1778.74 3436.85C1779.99 3437.28 1781.1 3438 1782.11 3439.11C1783.12 3440.17 1783.79 3441.46 1784.17 3442.9C1784.56 3444.35 1784.75 3446.32 1784.75 3448.77C1784.75 3450.59 1784.66 3452.18 1784.42 3453.43C1784.22 3454.68 1783.74 3455.88 1783.07 3456.99C1782.25 3458.33 1781.19 3459.39 1779.85 3460.11C1778.5 3460.88 1776.72 3461.22 1774.56 3461.22H1771.58V3477.27H1765.71H1765.62ZM1771.48 3441.75V3455.69H1774.32C1775.52 3455.69 1776.43 3455.5 1777.11 3455.16C1777.78 3454.82 1778.26 3454.34 1778.55 3453.72C1778.84 3453.14 1779.03 3452.42 1779.08 3451.6C1779.13 3450.74 1779.17 3449.83 1779.17 3448.77C1779.17 3447.81 1779.17 3446.89 1779.13 3446.03C1779.13 3445.16 1778.93 3444.39 1778.6 3443.77C1778.31 3443.1 1777.83 3442.62 1777.2 3442.28C1776.58 3441.94 1775.71 3441.75 1774.56 3441.75H1771.48Z" fill="white"/>
<path id="Vector_33" d="M1801.14 3445.94C1801.14 3444.31 1801.43 3442.82 1802.01 3441.57C1802.59 3440.32 1803.36 3439.26 1804.32 3438.39C1805.23 3437.58 1806.29 3436.95 1807.44 3436.57C1808.6 3436.14 1809.8 3435.94 1811 3435.94C1812.2 3435.94 1813.36 3436.14 1814.56 3436.57C1815.71 3437 1816.82 3437.63 1817.78 3438.39C1818.69 3439.26 1819.46 3440.32 1820.04 3441.57C1820.62 3442.82 1820.9 3444.31 1820.9 3445.94V3467.61C1820.9 3469.34 1820.62 3470.83 1820.04 3472.04C1819.46 3473.24 1818.69 3474.29 1817.78 3475.11C1816.82 3475.98 1815.76 3476.6 1814.56 3477.03C1813.36 3477.47 1812.2 3477.66 1811 3477.66C1809.8 3477.66 1808.64 3477.47 1807.44 3477.03C1806.29 3476.6 1805.23 3475.98 1804.32 3475.11C1803.36 3474.29 1802.59 3473.29 1802.01 3472.04C1801.43 3470.79 1801.14 3469.34 1801.14 3467.61V3445.94ZM1807.01 3467.61C1807.01 3469.06 1807.39 3470.07 1808.21 3470.74C1808.98 3471.41 1809.94 3471.75 1811 3471.75C1812.06 3471.75 1813.02 3471.41 1813.79 3470.74C1814.56 3470.07 1814.99 3469.01 1814.99 3467.61V3445.94C1814.99 3444.5 1814.61 3443.49 1813.79 3442.82C1813.02 3442.14 1812.06 3441.81 1811 3441.81C1809.94 3441.81 1808.98 3442.14 1808.21 3442.82C1807.44 3443.49 1807.01 3444.55 1807.01 3445.94V3467.61Z" fill="white"/>
<path id="Vector_34" d="M1868.31 3436.22L1862.2 3477.27H1856.67L1852.15 3450.64H1852.06L1847.63 3477.27H1842.11L1836 3436.22H1842.25L1845.18 3462.27H1845.28L1849.89 3436.22H1854.41L1859.22 3462.95H1859.32L1862.15 3436.22H1868.4H1868.31Z" fill="white"/>
<path id="Vector_35" d="M1884.42 3477.27V3436.22H1901.96V3441.75H1890.33V3453.81H1900.47V3459.34H1890.33V3471.4H1901.96V3477.27H1884.42Z" fill="white"/>
<path id="Vector_36" d="M1918.16 3477.27V3436.22H1927.63C1934.56 3436.22 1938.02 3440.26 1938.02 3448.29C1938.02 3450.69 1937.63 3452.76 1936.91 3454.44C1936.14 3456.12 1934.85 3457.51 1932.97 3458.52L1939.32 3477.27H1933.07L1927.59 3459.73H1924.08V3477.27H1918.21H1918.16ZM1924.03 3441.75V3454.54H1927.39C1928.45 3454.54 1929.27 3454.39 1929.89 3454.1C1930.52 3453.81 1931 3453.38 1931.34 3452.85C1931.62 3452.32 1931.86 3451.65 1931.96 3450.88C1932.06 3450.11 1932.15 3449.2 1932.15 3448.14C1932.15 3447.09 1932.11 3446.17 1931.96 3445.4C1931.86 3444.64 1931.62 3443.91 1931.29 3443.34C1930.57 3442.28 1929.17 3441.7 1927.15 3441.7H1924.08L1924.03 3441.75Z" fill="white"/>
<path id="Vector_37" d="M1955.14 3477.27V3436.22H1972.68V3441.75H1961.05V3453.81H1971.19V3459.34H1961.05V3471.4H1972.68V3477.27H1955.14Z" fill="white"/>
<path id="Vector_38" d="M1988.88 3477.27V3436.22H1997.59C2000.95 3436.22 2003.55 3437.14 2005.28 3439.01C2007.01 3440.84 2007.92 3443.48 2007.92 3446.85V3466.07C2007.92 3469.91 2007.01 3472.75 2005.13 3474.58C2003.26 3476.4 2000.57 3477.32 1997.1 3477.32H1988.93L1988.88 3477.27ZM1994.75 3441.75V3471.74H1997.44C1999.08 3471.74 2000.28 3471.31 2000.95 3470.49C2001.62 3469.67 2002.01 3468.38 2002.01 3466.6V3446.8C2002.01 3445.16 2001.67 3443.91 2001.05 3443.05C2000.37 3442.18 1999.22 3441.7 1997.49 3441.7H1994.8L1994.75 3441.75Z" fill="white"/>
<path id="Vector_39" d="M2048.98 3477.27V3436.22H2057.59C2059.46 3436.22 2061.1 3436.51 2062.39 3437.09C2063.74 3437.67 2064.8 3438.44 2065.66 3439.4C2066.53 3440.36 2067.11 3441.46 2067.49 3442.71C2067.87 3443.96 2068.02 3445.26 2068.02 3446.61V3448.1C2068.02 3449.2 2067.92 3450.16 2067.78 3450.93C2067.59 3451.7 2067.35 3452.37 2067.01 3452.95C2066.34 3454.01 2065.37 3454.97 2064.03 3455.74C2065.42 3456.41 2066.43 3457.37 2067.11 3458.62C2067.78 3459.87 2068.07 3461.6 2068.07 3463.81V3466.12C2068.07 3469.72 2067.2 3472.51 2065.42 3474.43C2063.69 3476.35 2060.86 3477.32 2057.01 3477.32H2048.98V3477.27ZM2054.89 3441.75V3453.05H2057.54C2059.51 3453.05 2060.81 3452.56 2061.48 3451.56C2062.15 3450.55 2062.49 3449.15 2062.49 3447.28C2062.49 3445.4 2062.11 3444.06 2061.38 3443.15C2060.62 3442.23 2059.27 3441.75 2057.3 3441.75H2054.89ZM2054.89 3458.24V3471.4H2057.44C2058.64 3471.4 2059.56 3471.21 2060.23 3470.88C2060.9 3470.54 2061.43 3470.06 2061.77 3469.43C2062.11 3468.81 2062.35 3468.09 2062.39 3467.22C2062.49 3466.36 2062.49 3465.44 2062.49 3464.44C2062.49 3463.43 2062.44 3462.51 2062.3 3461.74C2062.2 3460.98 2061.96 3460.3 2061.62 3459.77C2061.24 3459.25 2060.71 3458.86 2060.09 3458.57C2059.46 3458.28 2058.55 3458.19 2057.49 3458.19H2054.89V3458.24Z" fill="white"/>
<path id="Vector_40" d="M2091.43 3477.27V3459.92L2083.36 3436.22H2089.61L2094.32 3452.56H2094.41L2099.13 3436.22H2105.38L2097.3 3459.92V3477.27H2091.43Z" fill="white"/>
<g id="Layer_1-2">
<path id="Vector_41" d="M1671.34 3645H1509.37C1488.12 3645 1470.81 3627.7 1470.81 3606.46V3444.54C1470.81 3423.3 1488.12 3406 1509.37 3406H1671.34C1692.59 3406 1709.89 3423.3 1709.89 3444.54V3606.46C1709.89 3627.7 1692.59 3645 1671.34 3645ZM1509.37 3410.47C1490.57 3410.47 1475.28 3425.75 1475.28 3444.54V3606.46C1475.28 3625.25 1490.57 3640.53 1509.41 3640.53H1671.38C1690.18 3640.53 1705.52 3625.25 1705.52 3606.46V3444.54C1705.52 3425.75 1690.23 3410.47 1671.38 3410.47H1509.37Z" fill="white"/>
<path id="Vector_42" d="M1590.38 3437.82C1552.39 3437.82 1521.53 3468.91 1521.53 3507.17C1521.53 3520.72 1525.42 3533.84 1532.78 3545.13L1532.97 3545.42C1533.79 3546.67 1534.7 3547.97 1535.62 3549.17L1582.49 3609.96C1582.49 3609.96 1582.49 3609.96 1582.49 3610.01L1584.85 3613.23V3609.92C1584.85 3586.46 1577.78 3577.24 1575.28 3573.39C1574.8 3572.62 1574.94 3571.32 1574.89 3570.22C1574.89 3569.64 1575.38 3569.21 1575.9 3569.26C1580.62 3570.51 1585.47 3571.13 1590.42 3571.13C1595.38 3571.13 1600.28 3570.51 1604.99 3569.26C1605.47 3569.26 1605.86 3569.69 1605.86 3570.22C1605.86 3571.28 1606 3572.62 1605.47 3573.39C1602.97 3577.24 1595.9 3586.46 1595.9 3609.92V3612.99L1599.22 3608.67L1644.7 3549.6C1654.17 3537.35 1659.17 3522.64 1659.17 3507.12C1659.17 3468.91 1628.31 3437.77 1590.33 3437.77L1590.38 3437.82ZM1624.22 3552.25C1614.32 3559.55 1602.64 3563.4 1590.42 3563.4C1572.15 3563.4 1554.8 3554.5 1544.03 3539.65C1525.38 3513.94 1531 3477.71 1556.53 3458.91C1566.43 3451.61 1578.12 3447.76 1590.33 3447.76C1608.6 3447.76 1625.95 3456.65 1636.72 3471.51C1655.38 3497.22 1649.75 3533.45 1624.22 3552.25Z" fill="white"/>
</g>
</g>
</g>
<g id="#logo-placement">
<path id="Area" d="M1446.5 659.5L6446.5 2331.5L1446.5 4028.76V659.5Z" fill="#2063D6"/>
</g>
</g>
</g>
</svg>
