<svg width="7519" height="4669" viewBox="0 0 7519 4669" fill="none" xmlns="http://www.w3.org/2000/svg">
<g id="Plain">
<rect id="zone-primary" x="0.000244141" width="7519" height="4669" fill="#D9D9D9"/>
<g id="Bleed">
<g id="Bleed_2">
<rect id="Bleed_3" x="0.500244" y="0.5" width="7518" height="309" fill="#9A9A9A" stroke="#9A9A9A"/>
<rect id="Bleed_4" x="0.500244" y="4668.5" width="4668" height="1205" transform="rotate(-90 0.500244 4668.5)" fill="#9A9A9A" stroke="#9A9A9A"/>
<rect id="Bleed_5" x="7209.5" y="4668.5" width="4668" height="309" transform="rotate(-90 7209.5 4668.5)" fill="#9A9A9A" stroke="#9A9A9A"/>
<rect id="Bleed_6" x="0.500244" y="4359.5" width="7518" height="309" fill="#9A9A9A" stroke="#9A9A9A"/>
<path id="Bleed_7" d="M7060 460H7064V456H7060V460ZM7060 4209V4213H7064V4209H7060ZM1206 4209V4213H1216.02V4209V4205H1206V4209ZM1236.07 4209V4213H1256.12V4209V4205H1236.07V4209ZM1276.17 4209V4213H1296.22V4209V4205H1276.17V4209ZM1316.26 4209V4213H1336.31V4209V4205H1316.26V4209ZM1356.36 4209V4213H1376.41V4209V4205H1356.36V4209ZM1396.46 4209V4213H1416.5V4209V4205H1396.46V4209ZM1436.55 4209V4213H1456.6V4209V4205H1436.55V4209ZM1476.65 4209V4213H1496.7V4209V4205H1476.65V4209ZM1516.74 4209V4213H1536.79V4209V4205H1516.74V4209ZM1556.84 4209V4213H1576.89V4209V4205H1556.84V4209ZM1596.94 4209V4213H1616.98V4209V4205H1596.94V4209ZM1637.03 4209V4213H1657.08V4209V4205H1637.03V4209ZM1677.13 4209V4213H1697.17V4209V4205H1677.13V4209ZM1717.22 4209V4213H1737.27V4209V4205H1717.22V4209ZM1757.32 4209V4213H1777.37V4209V4205H1757.32V4209ZM1797.41 4209V4213H1817.46V4209V4205H1797.41V4209ZM1837.51 4209V4213H1857.56V4209V4205H1837.51V4209ZM1877.61 4209V4213H1897.65V4209V4205H1877.61V4209ZM1917.7 4209V4213H1937.75V4209V4205H1917.7V4209ZM1957.8 4209V4213H1977.85V4209V4205H1957.8V4209ZM1997.89 4209V4213H2017.94V4209V4205H1997.89V4209ZM2037.99 4209V4213H2058.04V4209V4205H2037.99V4209ZM2078.09 4209V4213H2098.13V4209V4205H2078.09V4209ZM2118.18 4209V4213H2138.23V4209V4205H2118.18V4209ZM2158.28 4209V4213H2178.33V4209V4205H2158.28V4209ZM2198.37 4209V4213H2218.42V4209V4205H2198.37V4209ZM2238.47 4209V4213H2258.52V4209V4205H2238.47V4209ZM2278.57 4209V4213H2298.61V4209V4205H2278.57V4209ZM2318.66 4209V4213H2338.71V4209V4205H2318.66V4209ZM2358.76 4209V4213H2378.81V4209V4205H2358.76V4209ZM2398.85 4209V4213H2418.9V4209V4205H2398.85V4209ZM2438.95 4209V4213H2459V4209V4205H2438.95V4209ZM2479.05 4209V4213H2499.09V4209V4205H2479.05V4209ZM2519.14 4209V4213H2539.19V4209V4205H2519.14V4209ZM2559.24 4209V4213H2579.29V4209V4205H2559.24V4209ZM2599.33 4209V4213H2619.38V4209V4205H2599.33V4209ZM2639.43 4209V4213H2659.48V4209V4205H2639.43V4209ZM2679.53 4209V4213H2699.57V4209V4205H2679.53V4209ZM2719.62 4209V4213H2739.67V4209V4205H2719.62V4209ZM2759.72 4209V4213H2779.77V4209V4205H2759.72V4209ZM2799.81 4209V4213H2819.86V4209V4205H2799.81V4209ZM2839.91 4209V4213H2859.96V4209V4205H2839.91V4209ZM2880.01 4209V4213H2900.05V4209V4205H2880.01V4209ZM2920.1 4209V4213H2940.15V4209V4205H2920.1V4209ZM2960.2 4209V4213H2980.25V4209V4205H2960.2V4209ZM3000.29 4209V4213H3020.34V4209V4205H3000.29V4209ZM3040.39 4209V4213H3060.44V4209V4205H3040.39V4209ZM3080.48 4209V4213H3100.53V4209V4205H3080.48V4209ZM3120.58 4209V4213H3140.63V4209V4205H3120.58V4209ZM3160.68 4209V4213H3180.72V4209V4205H3160.68V4209ZM3200.77 4209V4213H3220.82V4209V4205H3200.77V4209ZM3240.87 4209V4213H3260.92V4209V4205H3240.87V4209ZM3280.96 4209V4213H3301.01V4209V4205H3280.96V4209ZM3321.06 4209V4213H3341.11V4209V4205H3321.06V4209ZM3361.16 4209V4213H3381.2V4209V4205H3361.16V4209ZM3401.25 4209V4213H3421.3V4209V4205H3401.25V4209ZM3441.35 4209V4213H3461.4V4209V4205H3441.35V4209ZM3481.44 4209V4213H3501.49V4209V4205H3481.44V4209ZM3521.54 4209V4213H3541.59V4209V4205H3521.54V4209ZM3561.63 4209V4213H3581.68V4209V4205H3561.63V4209ZM3601.73 4209V4213H3621.78V4209V4205H3601.73V4209ZM3641.83 4209V4213H3661.87V4209V4205H3641.83V4209ZM3681.92 4209V4213H3701.97V4209V4205H3681.92V4209ZM3722.02 4209V4213H3742.07V4209V4205H3722.02V4209ZM3762.11 4209V4213H3782.16V4209V4205H3762.11V4209ZM3802.21 4209V4213H3822.26V4209V4205H3802.21V4209ZM3842.3 4209V4213H3862.35V4209V4205H3842.3V4209ZM3882.4 4209V4213H3902.45V4209V4205H3882.4V4209ZM3922.5 4209V4213H3942.54V4209V4205H3922.5V4209ZM3962.59 4209V4213H3982.64V4209V4205H3962.59V4209ZM4002.69 4209V4213H4022.74V4209V4205H4002.69V4209ZM4042.78 4209V4213H4062.83V4209V4205H4042.78V4209ZM4082.88 4209V4213H4102.93V4209V4205H4082.88V4209ZM4122.97 4209V4213H4143.02V4209V4205H4122.97V4209ZM4163.07 4209V4213H4183.12V4209V4205H4163.07V4209ZM4203.17 4209V4213H4223.21V4209V4205H4203.17V4209ZM4243.26 4209V4213H4263.31V4209V4205H4243.26V4209ZM4283.36 4209V4213H4303.41V4209V4205H4283.36V4209ZM4323.45 4209V4213H4343.5V4209V4205H4323.45V4209ZM4363.55 4209V4213H4383.6V4209V4205H4363.55V4209ZM4403.64 4209V4213H4423.69V4209V4205H4403.64V4209ZM4443.74 4209V4213H4463.79V4209V4205H4443.74V4209ZM4483.84 4209V4213H4503.88V4209V4205H4483.84V4209ZM4523.93 4209V4213H4543.98V4209V4205H4523.93V4209ZM4564.03 4209V4213H4584.07V4209V4205H4564.03V4209ZM4604.12 4209V4213H4624.17V4209V4205H4604.12V4209ZM4644.22 4209V4213H4664.27V4209V4205H4644.22V4209ZM4684.31 4209V4213H4704.36V4209V4205H4684.31V4209ZM4724.41 4209V4213H4744.46V4209V4205H4724.41V4209ZM4764.51 4209V4213H4784.55V4209V4205H4764.51V4209ZM4804.6 4209V4213H4824.65V4209V4205H4804.6V4209ZM4844.7 4209V4213H4864.75V4209V4205H4844.7V4209ZM4884.79 4209V4213H4904.84V4209V4205H4884.79V4209ZM4924.89 4209V4213H4944.94V4209V4205H4924.89V4209ZM4964.98 4209V4213H4985.03V4209V4205H4964.98V4209ZM5005.08 4209V4213H5025.13V4209V4205H5005.08V4209ZM5045.18 4209V4213H5065.22V4209V4205H5045.18V4209ZM5085.27 4209V4213H5105.32V4209V4205H5085.27V4209ZM5125.37 4209V4213H5145.41V4209V4205H5125.37V4209ZM5165.46 4209V4213H5185.51V4209V4205H5165.46V4209ZM5205.56 4209V4213H5225.61V4209V4205H5205.56V4209ZM5245.65 4209V4213H5265.7V4209V4205H5245.65V4209ZM5285.75 4209V4213H5305.8V4209V4205H5285.75V4209ZM5325.85 4209V4213H5345.89V4209V4205H5325.85V4209ZM5365.94 4209V4213H5385.99V4209V4205H5365.94V4209ZM5406.04 4209V4213H5426.08V4209V4205H5406.04V4209ZM5446.13 4209V4213H5466.18V4209V4205H5446.13V4209ZM5486.23 4209V4213H5506.28V4209V4205H5486.23V4209ZM5526.32 4209V4213H5546.37V4209V4205H5526.32V4209ZM5566.42 4209V4213H5586.47V4209V4205H5566.42V4209ZM5606.52 4209V4213H5626.56V4209V4205H5606.52V4209ZM5646.61 4209V4213H5666.66V4209V4205H5646.61V4209ZM5686.71 4209V4213H5706.75V4209V4205H5686.71V4209ZM5726.8 4209V4213H5746.85V4209V4205H5726.8V4209ZM5766.9 4209V4213H5786.95V4209V4205H5766.9V4209ZM5806.99 4209V4213H5827.04V4209V4205H5806.99V4209ZM5847.09 4209V4213H5867.14V4209V4205H5847.09V4209ZM5887.19 4209V4213H5907.23V4209V4205H5887.19V4209ZM5927.28 4209V4213H5947.33V4209V4205H5927.28V4209ZM5967.38 4209V4213H5987.42V4209V4205H5967.38V4209ZM6007.47 4209V4213H6027.52V4209V4205H6007.47V4209ZM6047.57 4209V4213H6067.62V4209V4205H6047.57V4209ZM6087.66 4209V4213H6107.71V4209V4205H6087.66V4209ZM6127.76 4209V4213H6147.81V4209V4205H6127.76V4209ZM6167.86 4209V4213H6187.9V4209V4205H6167.86V4209ZM6207.95 4209V4213H6228V4209V4205H6207.95V4209ZM6248.05 4209V4213H6268.09V4209V4205H6248.05V4209ZM6288.14 4209V4213H6308.19V4209V4205H6288.14V4209ZM6328.24 4209V4213H6348.29V4209V4205H6328.24V4209ZM6368.33 4209V4213H6388.38V4209V4205H6368.33V4209ZM6408.43 4209V4213H6428.48V4209V4205H6408.43V4209ZM6448.53 4209V4213H6468.57V4209V4205H6448.53V4209ZM6488.62 4209V4213H6508.67V4209V4205H6488.62V4209ZM6528.72 4209V4213H6548.76V4209V4205H6528.72V4209ZM6568.81 4209V4213H6588.86V4209V4205H6568.81V4209ZM6608.91 4209V4213H6628.96V4209V4205H6608.91V4209ZM6649 4209V4213H6669.05V4209V4205H6649V4209ZM6689.1 4209V4213H6709.15V4209V4205H6689.1V4209ZM6729.2 4209V4213H6749.24V4209V4205H6729.2V4209ZM6769.29 4209V4213H6789.34V4209V4205H6769.29V4209ZM6809.39 4209V4213H6829.43V4209V4205H6809.39V4209ZM6849.48 4209V4213H6869.53V4209V4205H6849.48V4209ZM6889.58 4209V4213H6909.63V4209V4205H6889.58V4209ZM6929.67 4209V4213H6949.72V4209V4205H6929.67V4209ZM6969.77 4209V4213H6989.82V4209V4205H6969.77V4209ZM7009.86 4209V4213H7029.91V4209V4205H7009.86V4209ZM7049.96 4209V4213H7060V4209V4205H7049.96V4209ZM7060 4209H7064V4199.03H7060H7056V4209H7060ZM7060 4179.09H7064V4159.15H7060H7056V4179.09H7060ZM7060 4139.2H7064V4119.26H7060H7056V4139.2H7060ZM7060 4099.32H7064V4079.38H7060H7056V4099.32H7060ZM7060 4059.44H7064V4039.5H7060H7056V4059.44H7060ZM7060 4019.56H7064V3999.61H7060H7056V4019.56H7060ZM7060 3979.67H7064V3959.73H7060H7056V3979.67H7060ZM7060 3939.79H7064V3919.85H7060H7056V3939.79H7060ZM7060 3899.91H7064V3879.97H7060H7056V3899.91H7060ZM7060 3860.02H7064V3840.08H7060H7056V3860.02H7060ZM7060 3820.14H7064V3800.2H7060H7056V3820.14H7060ZM7060 3780.26H7064V3760.32H7060H7056V3780.26H7060ZM7060 3740.37H7064V3720.43H7060H7056V3740.37H7060ZM7060 3700.49H7064V3680.55H7060H7056V3700.49H7060ZM7060 3660.61H7064V3640.67H7060H7056V3660.61H7060ZM7060 3620.73H7064V3600.78H7060H7056V3620.73H7060ZM7060 3580.84H7064V3560.9H7060H7056V3580.84H7060ZM7060 3540.96H7064V3521.02H7060H7056V3540.96H7060ZM7060 3501.08H7064V3481.14H7060H7056V3501.08H7060ZM7060 3461.19H7064V3441.25H7060H7056V3461.19H7060ZM7060 3421.31H7064V3401.37H7060H7056V3421.31H7060ZM7060 3381.43H7064V3361.49H7060H7056V3381.43H7060ZM7060 3341.55H7064V3321.6H7060H7056V3341.55H7060ZM7060 3301.66H7064V3281.72H7060H7056V3301.66H7060ZM7060 3261.78H7064V3241.84H7060H7056V3261.78H7060ZM7060 3221.9H7064V3201.96H7060H7056V3221.9H7060ZM7060 3182.01H7064V3162.07H7060H7056V3182.01H7060ZM7060 3142.13H7064V3122.19H7060H7056V3142.13H7060ZM7060 3102.25H7064V3082.31H7060H7056V3102.25H7060ZM7060 3062.36H7064V3042.42H7060H7056V3062.36H7060ZM7060 3022.48H7064V3002.54H7060H7056V3022.48H7060ZM7060 2982.6H7064V2962.66H7060H7056V2982.6H7060ZM7060 2942.72H7064V2922.77H7060H7056V2942.72H7060ZM7060 2902.83H7064V2882.89H7060H7056V2902.83H7060ZM7060 2862.95H7064V2843.01H7060H7056V2862.95H7060ZM7060 2823.07H7064V2803.12H7060H7056V2823.07H7060ZM7060 2783.18H7064V2763.24H7060H7056V2783.18H7060ZM7060 2743.3H7064V2723.36H7060H7056V2743.3H7060ZM7060 2703.42H7064V2683.48H7060H7056V2703.42H7060ZM7060 2663.53H7064V2643.59H7060H7056V2663.53H7060ZM7060 2623.65H7064V2603.71H7060H7056V2623.65H7060ZM7060 2583.77H7064V2563.83H7060H7056V2583.77H7060ZM7060 2543.88H7064V2523.94H7060H7056V2543.88H7060ZM7060 2504H7064V2484.06H7060H7056V2504H7060ZM7060 2464.12H7064V2444.18H7060H7056V2464.12H7060ZM7060 2424.24H7064V2404.29H7060H7056V2424.24H7060ZM7060 2384.35H7064V2364.41H7060H7056V2384.35H7060ZM7060 2344.47H7064V2324.53H7060H7056V2344.47H7060ZM7060 2304.59H7064V2284.65H7060H7056V2304.59H7060ZM7060 2264.7H7064V2244.76H7060H7056V2264.7H7060ZM7060 2224.82H7064V2204.88H7060H7056V2224.82H7060ZM7060 2184.94H7064V2165H7060H7056V2184.94H7060ZM7060 2145.05H7064V2125.11H7060H7056V2145.05H7060ZM7060 2105.17H7064V2085.23H7060H7056V2105.17H7060ZM7060 2065.29H7064V2045.35H7060H7056V2065.29H7060ZM7060 2025.41H7064V2005.46H7060H7056V2025.41H7060ZM7060 1985.52H7064V1965.58H7060H7056V1985.52H7060ZM7060 1945.64H7064V1925.7H7060H7056V1945.64H7060ZM7060 1905.76H7064V1885.82H7060H7056V1905.76H7060ZM7060 1865.87H7064V1845.93H7060H7056V1865.87H7060ZM7060 1825.99H7064V1806.05H7060H7056V1825.99H7060ZM7060 1786.11H7064V1766.17H7060H7056V1786.11H7060ZM7060 1746.23H7064V1726.28H7060H7056V1746.23H7060ZM7060 1706.34H7064V1686.4H7060H7056V1706.34H7060ZM7060 1666.46H7064V1646.52H7060H7056V1666.46H7060ZM7060 1626.58H7064V1606.64H7060H7056V1626.58H7060ZM7060 1586.69H7064V1566.75H7060H7056V1586.69H7060ZM7060 1546.81H7064V1526.87H7060H7056V1546.81H7060ZM7060 1506.93H7064V1486.99H7060H7056V1506.93H7060ZM7060 1467.05H7064V1447.1H7060H7056V1467.05H7060ZM7060 1427.16H7064V1407.22H7060H7056V1427.16H7060ZM7060 1387.28H7064V1367.34H7060H7056V1387.28H7060ZM7060 1347.4H7064V1327.46H7060H7056V1347.4H7060ZM7060 1307.52H7064V1287.57H7060H7056V1307.52H7060ZM7060 1267.63H7064V1247.69H7060H7056V1267.63H7060ZM7060 1227.75H7064V1207.81H7060H7056V1227.75H7060ZM7060 1187.87H7064V1167.93H7060H7056V1187.87H7060ZM7060 1147.98H7064V1128.04H7060H7056V1147.98H7060ZM7060 1108.1H7064V1088.16H7060H7056V1108.1H7060ZM7060 1068.22H7064V1048.28H7060H7056V1068.22H7060ZM7060 1028.34H7064V1008.39H7060H7056V1028.34H7060ZM7060 988.453H7064V968.511H7060H7056V988.453H7060ZM7060 948.57H7064V928.628H7060H7056V948.57H7060ZM7060 908.687H7064V888.746H7060H7056V908.687H7060ZM7060 868.804H7064V848.863H7060H7056V868.804H7060ZM7060 828.921H7064V808.98H7060H7056V828.921H7060ZM7060 789.039H7064V769.097H7060H7056V789.039H7060ZM7060 749.156H7064V729.214H7060H7056V749.156H7060ZM7060 709.273H7064V689.332H7060H7056V709.273H7060ZM7060 669.39H7064V649.449H7060H7056V669.39H7060ZM7060 629.507H7064V609.566H7060H7056V629.507H7060ZM7060 589.625H7064V569.683H7060H7056V589.625H7060ZM7060 549.742H7064V529.8H7060H7056V549.742H7060ZM7060 509.859H7064V489.917H7060H7056V509.859H7060ZM7060 469.976H7064V460H7060H7056V469.976H7060ZM7060 460V456H7049.98V460V464H7060V460ZM7029.93 460V456H7009.88V460V464H7029.93V460ZM6989.83 460V456H6969.78V460V464H6989.83V460ZM6949.74 460V456H6929.69V460V464H6949.74V460ZM6909.64 460V456H6889.59V460V464H6909.64V460ZM6869.54 460V456H6849.5V460V464H6869.54V460ZM6829.45 460V456H6809.4V460V464H6829.45V460ZM6789.35 460V456H6769.3V460V464H6789.35V460ZM6749.26 460V456H6729.21V460V464H6749.26V460ZM6709.16 460V456H6689.11V460V464H6709.16V460ZM6669.07 460V456H6649.02V460V464H6669.07V460ZM6628.97 460V456H6608.92V460V464H6628.97V460ZM6588.87 460V456H6568.83V460V464H6588.87V460ZM6548.78 460V456H6528.73V460V464H6548.78V460ZM6508.68 460V456H6488.63V460V464H6508.68V460ZM6468.59 460V456H6448.54V460V464H6468.59V460ZM6428.49 460V456H6408.44V460V464H6428.49V460ZM6388.39 460V456H6368.35V460V464H6388.39V460ZM6348.3 460V456H6328.25V460V464H6348.3V460ZM6308.2 460V456H6288.15V460V464H6308.2V460ZM6268.11 460V456H6248.06V460V464H6268.11V460ZM6228.01 460V456H6207.96V460V464H6228.01V460ZM6187.91 460V456H6167.87V460V464H6187.91V460ZM6147.82 460V456H6127.77V460V464H6147.82V460ZM6107.72 460V456H6087.67V460V464H6107.72V460ZM6067.63 460V456H6047.58V460V464H6067.63V460ZM6027.53 460V456H6007.48V460V464H6027.53V460ZM5987.43 460V456H5967.39V460V464H5987.43V460ZM5947.34 460V456H5927.29V460V464H5947.34V460ZM5907.24 460V456H5887.19V460V464H5907.24V460ZM5867.15 460V456H5847.1V460V464H5867.15V460ZM5827.05 460V456H5807V460V464H5827.05V460ZM5786.95 460V456H5766.91V460V464H5786.95V460ZM5746.86 460V456H5726.81V460V464H5746.86V460ZM5706.76 460V456H5686.72V460V464H5706.76V460ZM5666.67 460V456H5646.62V460V464H5666.67V460ZM5626.57 460V456H5606.52V460V464H5626.57V460ZM5586.47 460V456H5566.43V460V464H5586.47V460ZM5546.38 460V456H5526.33V460V464H5546.38V460ZM5506.28 460V456H5486.24V460V464H5506.28V460ZM5466.19 460V456H5446.14V460V464H5466.19V460ZM5426.09 460V456H5406.04V460V464H5426.09V460ZM5386 460V456H5365.95V460V464H5386V460ZM5345.9 460V456H5325.85V460V464H5345.9V460ZM5305.8 460V456H5285.76V460V464H5305.8V460ZM5265.71 460V456H5245.66V460V464H5265.71V460ZM5225.61 460V456H5205.56V460V464H5225.61V460ZM5185.52 460V456H5165.47V460V464H5185.52V460ZM5145.42 460V456H5125.37V460V464H5145.42V460ZM5105.32 460V456H5085.28V460V464H5105.32V460ZM5065.23 460V456H5045.18V460V464H5065.23V460ZM5025.13 460V456H5005.08V460V464H5025.13V460ZM4985.04 460V456H4964.99V460V464H4985.04V460ZM4944.94 460V456H4924.89V460V464H4944.94V460ZM4904.84 460V456H4884.8V460V464H4904.84V460ZM4864.75 460V456H4844.7V460V464H4864.75V460ZM4824.65 460V456H4804.61V460V464H4824.65V460ZM4784.56 460V456H4764.51V460V464H4784.56V460ZM4744.46 460V456H4724.41V460V464H4744.46V460ZM4704.37 460V456H4684.32V460V464H4704.37V460ZM4664.27 460V456H4644.22V460V464H4664.27V460ZM4624.17 460V456H4604.13V460V464H4624.17V460ZM4584.08 460V456H4564.03V460V464H4584.08V460ZM4543.98 460V456H4523.94V460V464H4543.98V460ZM4503.89 460V456H4483.84V460V464H4503.89V460ZM4463.79 460V456H4443.74V460V464H4463.79V460ZM4423.7 460V456H4403.65V460V464H4423.7V460ZM4383.6 460V456H4363.55V460V464H4383.6V460ZM4343.5 460V456H4323.46V460V464H4343.5V460ZM4303.41 460V456H4283.36V460V464H4303.41V460ZM4263.31 460V456H4243.27V460V464H4263.31V460ZM4223.22 460V456H4203.17V460V464H4223.22V460ZM4183.12 460V456H4163.07V460V464H4183.12V460ZM4143.03 460V456H4122.98V460V464H4143.03V460ZM4102.93 460V456H4082.88V460V464H4102.93V460ZM4062.83 460V456H4042.79V460V464H4062.83V460ZM4022.74 460V456H4002.69V460V464H4022.74V460ZM3982.64 460V456H3962.6V460V464H3982.64V460ZM3942.55 460V456H3922.5V460V464H3942.55V460ZM3902.45 460V456H3882.4V460V464H3902.45V460ZM3862.36 460V456H3842.31V460V464H3862.36V460ZM3822.26 460V456H3802.21V460V464H3822.26V460ZM3782.16 460V456H3762.12V460V464H3782.16V460ZM3742.07 460V456H3722.02V460V464H3742.07V460ZM3701.97 460V456H3681.93V460V464H3701.97V460ZM3661.88 460V456H3641.83V460V464H3661.88V460ZM3621.78 460V456H3601.73V460V464H3621.78V460ZM3581.69 460V456H3561.64V460V464H3581.69V460ZM3541.59 460V456H3521.54V460V464H3541.59V460ZM3501.49 460V456H3481.45V460V464H3501.49V460ZM3461.4 460V456H3441.35V460V464H3461.4V460ZM3421.3 460V456H3401.26V460V464H3421.3V460ZM3381.21 460V456H3361.16V460V464H3381.21V460ZM3341.11 460V456H3321.06V460V464H3341.11V460ZM3301.02 460V456H3280.97V460V464H3301.02V460ZM3260.92 460V456H3240.87V460V464H3260.92V460ZM3220.82 460V456H3200.78V460V464H3220.82V460ZM3180.73 460V456H3160.68V460V464H3180.73V460ZM3140.63 460V456H3120.59V460V464H3140.63V460ZM3100.54 460V456H3080.49V460V464H3100.54V460ZM3060.44 460V456H3040.39V460V464H3060.44V460ZM3020.35 460V456H3000.3V460V464H3020.35V460ZM2980.25 460V456H2960.2V460V464H2980.25V460ZM2940.16 460V456H2920.11V460V464H2940.16V460ZM2900.06 460V456H2880.01V460V464H2900.06V460ZM2859.96 460V456H2839.92V460V464H2859.96V460ZM2819.87 460V456H2799.82V460V464H2819.87V460ZM2779.77 460V456H2759.72V460V464H2779.77V460ZM2739.68 460V456H2719.63V460V464H2739.68V460ZM2699.58 460V456H2679.53V460V464H2699.58V460ZM2659.48 460V456H2639.44V460V464H2659.48V460ZM2619.39 460V456H2599.34V460V464H2619.39V460ZM2579.29 460V456H2559.25V460V464H2579.29V460ZM2539.2 460V456H2519.15V460V464H2539.2V460ZM2499.1 460V456H2479.05V460V464H2499.1V460ZM2459.01 460V456H2438.96V460V464H2459.01V460ZM2418.91 460V456H2398.86V460V464H2418.91V460ZM2378.82 460V456H2358.77V460V464H2378.82V460ZM2338.72 460V456H2318.67V460V464H2338.72V460ZM2298.62 460V456H2278.58V460V464H2298.62V460ZM2258.53 460V456H2238.48V460V464H2258.53V460ZM2218.43 460V456H2198.38V460V464H2218.43V460ZM2178.34 460V456H2158.29V460V464H2178.34V460ZM2138.24 460V456H2118.19V460V464H2138.24V460ZM2098.15 460V456H2078.1V460V464H2098.15V460ZM2058.05 460V456H2038V460V464H2058.05V460ZM2017.95 460V456H1997.91V460V464H2017.95V460ZM1977.86 460V456H1957.81V460V464H1977.86V460ZM1937.76 460V456H1917.71V460V464H1937.76V460ZM1897.67 460V456H1877.62V460V464H1897.67V460ZM1857.57 460V456H1837.52V460V464H1857.57V460ZM1817.48 460V456H1797.43V460V464H1817.48V460ZM1777.38 460V456H1757.33V460V464H1777.38V460ZM1737.28 460V456H1717.24V460V464H1737.28V460ZM1697.19 460V456H1677.14V460V464H1697.19V460ZM1657.09 460V456H1637.04V460V464H1657.09V460ZM1617 460V456H1596.95V460V464H1617V460ZM1576.9 460V456H1556.85V460V464H1576.9V460ZM1536.81 460V456H1516.76V460V464H1536.81V460ZM1496.71 460V456H1476.66V460V464H1496.71V460ZM1456.61 460V456H1436.57V460V464H1456.61V460ZM1416.52 460V456H1396.47V460V464H1416.52V460ZM1376.42 460V456H1356.37V460V464H1376.42V460ZM1336.33 460V456H1316.28V460V464H1336.33V460ZM1296.23 460V456H1276.18V460V464H1296.23V460ZM1256.14 460V456H1236.09V460V464H1256.14V460ZM1216.04 460V456H1206V460V464H1216.04V460Z" fill="#9A9A9A"/>
</g>
</g>
<g id="logo-placement">
<rect id="Logo 1" x="1278" y="4136" width="3604" height="5710" transform="rotate(-90 1278 4136)" fill="#2063D6"/>
</g>
</g>
</svg>
