<svg width="3900" height="2400" viewBox="0 0 3900 2400" fill="none" xmlns="http://www.w3.org/2000/svg">
<g id="Putting Green Flag">
<rect id="zone-primary" width="3900" height="2400" fill="white"/>
<g id="zone-border">
<rect id="zone-border_2" width="3900" height="311" fill="#373737"/>
<rect id="zone-border_3" y="2400" width="2400" height="1343" transform="rotate(-90 0 2400)" fill="#373737"/>
<rect id="zone-border_4" x="3452" y="2400" width="2400" height="448" transform="rotate(-90 3452 2400)" fill="#373737"/>
<rect id="zone-border_5" y="2091" width="3900" height="309" fill="#373737"/>
</g>
<g id="Bleed">
<g id="Bleed_2">
<rect id="Bleed_3" x="0.26385" y="0.257014" width="3865.01" height="158.835" fill="#9A9A9A" stroke="#9A9A9A" stroke-width="0.514029"/>
<rect id="Bleed_4" x="0.257014" y="2399.74" width="2399.49" height="1190.11" transform="rotate(-90 0.257014 2399.74)" fill="#9A9A9A" stroke="#9A9A9A" stroke-width="0.514029"/>
<rect id="Bleed_5" x="3603.84" y="2399.74" width="2399.49" height="295.902" transform="rotate(-90 3603.84 2399.74)" fill="#9A9A9A" stroke="#9A9A9A" stroke-width="0.514029"/>
<rect id="Bleed_6" x="17.3596" y="2240.9" width="3865.01" height="158.835" fill="#9A9A9A" stroke="#9A9A9A" stroke-width="0.514029"/>
<path id="Bleed_7" d="M3452 311H3454.06V308.944H3452V311ZM3452 2091V2093.06H3454.06V2091H3452ZM1143 2091V2093.06H1148.15V2091V2088.94H1143V2091ZM1158.46 2091V2093.06H1168.77V2091V2088.94H1158.46V2091ZM1179.08 2091V2093.06H1189.39V2091V2088.94H1179.08V2091ZM1199.69 2091V2093.06H1210V2091V2088.94H1199.69V2091ZM1220.31 2091V2093.06H1230.62V2091V2088.94H1220.31V2091ZM1240.93 2091V2093.06H1251.23V2091V2088.94H1240.93V2091ZM1261.54 2091V2093.06H1271.85V2091V2088.94H1261.54V2091ZM1282.16 2091V2093.06H1292.47V2091V2088.94H1282.16V2091ZM1302.77 2091V2093.06H1313.08V2091V2088.94H1302.77V2091ZM1323.39 2091V2093.06H1333.7V2091V2088.94H1323.39V2091ZM1344.01 2091V2093.06H1354.31V2091V2088.94H1344.01V2091ZM1364.62 2091V2093.06H1374.93V2091V2088.94H1364.62V2091ZM1385.24 2091V2093.06H1395.55V2091V2088.94H1385.24V2091ZM1405.85 2091V2093.06H1416.16V2091V2088.94H1405.85V2091ZM1426.47 2091V2093.06H1436.78V2091V2088.94H1426.47V2091ZM1447.09 2091V2093.06H1457.4V2091V2088.94H1447.09V2091ZM1467.7 2091V2093.06H1478.01V2091V2088.94H1467.7V2091ZM1488.32 2091V2093.06H1498.63V2091V2088.94H1488.32V2091ZM1508.94 2091V2093.06H1519.24V2091V2088.94H1508.94V2091ZM1529.55 2091V2093.06H1539.86V2091V2088.94H1529.55V2091ZM1550.17 2091V2093.06H1560.48V2091V2088.94H1550.17V2091ZM1570.78 2091V2093.06H1581.09V2091V2088.94H1570.78V2091ZM1591.4 2091V2093.06H1601.71V2091V2088.94H1591.4V2091ZM1612.02 2091V2093.06H1622.32V2091V2088.94H1612.02V2091ZM1632.63 2091V2093.06H1642.94V2091V2088.94H1632.63V2091ZM1653.25 2091V2093.06H1663.56V2091V2088.94H1653.25V2091ZM1673.86 2091V2093.06H1684.17V2091V2088.94H1673.86V2091ZM1694.48 2091V2093.06H1704.79V2091V2088.94H1694.48V2091ZM1715.1 2091V2093.06H1725.4V2091V2088.94H1715.1V2091ZM1735.71 2091V2093.06H1746.02V2091V2088.94H1735.71V2091ZM1756.33 2091V2093.06H1766.64V2091V2088.94H1756.33V2091ZM1776.94 2091V2093.06H1787.25V2091V2088.94H1776.94V2091ZM1797.56 2091V2093.06H1807.87V2091V2088.94H1797.56V2091ZM1818.18 2091V2093.06H1828.48V2091V2088.94H1818.18V2091ZM1838.79 2091V2093.06H1849.1V2091V2088.94H1838.79V2091ZM1859.41 2091V2093.06H1869.72V2091V2088.94H1859.41V2091ZM1880.02 2091V2093.06H1890.33V2091V2088.94H1880.02V2091ZM1900.64 2091V2093.06H1910.95V2091V2088.94H1900.64V2091ZM1921.26 2091V2093.06H1931.57V2091V2088.94H1921.26V2091ZM1941.87 2091V2093.06H1952.18V2091V2088.94H1941.87V2091ZM1962.49 2091V2093.06H1972.8V2091V2088.94H1962.49V2091ZM1983.11 2091V2093.06H1993.41V2091V2088.94H1983.11V2091ZM2003.72 2091V2093.06H2014.03V2091V2088.94H2003.72V2091ZM2024.34 2091V2093.06H2034.65V2091V2088.94H2024.34V2091ZM2044.95 2091V2093.06H2055.26V2091V2088.94H2044.95V2091ZM2065.57 2091V2093.06H2075.88V2091V2088.94H2065.57V2091ZM2086.19 2091V2093.06H2096.49V2091V2088.94H2086.19V2091ZM2106.8 2091V2093.06H2117.11V2091V2088.94H2106.8V2091ZM2127.42 2091V2093.06H2137.73V2091V2088.94H2127.42V2091ZM2148.03 2091V2093.06H2158.34V2091V2088.94H2148.03V2091ZM2168.65 2091V2093.06H2178.96V2091V2088.94H2168.65V2091ZM2189.27 2091V2093.06H2199.57V2091V2088.94H2189.27V2091ZM2209.88 2091V2093.06H2220.19V2091V2088.94H2209.88V2091ZM2230.5 2091V2093.06H2240.81V2091V2088.94H2230.5V2091ZM2251.11 2091V2093.06H2261.42V2091V2088.94H2251.11V2091ZM2271.73 2091V2093.06H2282.04V2091V2088.94H2271.73V2091ZM2292.35 2091V2093.06H2302.65V2091V2088.94H2292.35V2091ZM2312.96 2091V2093.06H2323.27V2091V2088.94H2312.96V2091ZM2333.58 2091V2093.06H2343.89V2091V2088.94H2333.58V2091ZM2354.19 2091V2093.06H2364.5V2091V2088.94H2354.19V2091ZM2374.81 2091V2093.06H2385.12V2091V2088.94H2374.81V2091ZM2395.43 2091V2093.06H2405.73V2091V2088.94H2395.43V2091ZM2416.04 2091V2093.06H2426.35V2091V2088.94H2416.04V2091ZM2436.66 2091V2093.06H2446.97V2091V2088.94H2436.66V2091ZM2457.27 2091V2093.06H2467.58V2091V2088.94H2457.27V2091ZM2477.89 2091V2093.06H2488.2V2091V2088.94H2477.89V2091ZM2498.51 2091V2093.06H2508.81V2091V2088.94H2498.51V2091ZM2519.12 2091V2093.06H2529.43V2091V2088.94H2519.12V2091ZM2539.74 2091V2093.06H2550.05V2091V2088.94H2539.74V2091ZM2560.35 2091V2093.06H2570.66V2091V2088.94H2560.35V2091ZM2580.97 2091V2093.06H2591.28V2091V2088.94H2580.97V2091ZM2601.59 2091V2093.06H2611.89V2091V2088.94H2601.59V2091ZM2622.2 2091V2093.06H2632.51V2091V2088.94H2622.2V2091ZM2642.82 2091V2093.06H2653.13V2091V2088.94H2642.82V2091ZM2663.43 2091V2093.06H2673.74V2091V2088.94H2663.43V2091ZM2684.05 2091V2093.06H2694.36V2091V2088.94H2684.05V2091ZM2704.67 2091V2093.06H2714.97V2091V2088.94H2704.67V2091ZM2725.28 2091V2093.06H2735.59V2091V2088.94H2725.28V2091ZM2745.9 2091V2093.06H2756.2V2091V2088.94H2745.9V2091ZM2766.51 2091V2093.06H2776.82V2091V2088.94H2766.51V2091ZM2787.13 2091V2093.06H2797.44V2091V2088.94H2787.13V2091ZM2807.74 2091V2093.06H2818.05V2091V2088.94H2807.74V2091ZM2828.36 2091V2093.06H2838.67V2091V2088.94H2828.36V2091ZM2848.98 2091V2093.06H2859.29V2091V2088.94H2848.98V2091ZM2869.59 2091V2093.06H2879.9V2091V2088.94H2869.59V2091ZM2890.21 2091V2093.06H2900.52V2091V2088.94H2890.21V2091ZM2910.82 2091V2093.06H2921.13V2091V2088.94H2910.82V2091ZM2931.44 2091V2093.06H2941.75V2091V2088.94H2931.44V2091ZM2952.06 2091V2093.06H2962.36V2091V2088.94H2952.06V2091ZM2972.67 2091V2093.06H2982.98V2091V2088.94H2972.67V2091ZM2993.29 2091V2093.06H3003.6V2091V2088.94H2993.29V2091ZM3013.9 2091V2093.06H3024.21V2091V2088.94H3013.9V2091ZM3034.52 2091V2093.06H3044.83V2091V2088.94H3034.52V2091ZM3055.14 2091V2093.06H3065.44V2091V2088.94H3055.14V2091ZM3075.75 2091V2093.06H3086.06V2091V2088.94H3075.75V2091ZM3096.37 2091V2093.06H3106.68V2091V2088.94H3096.37V2091ZM3116.98 2091V2093.06H3127.29V2091V2088.94H3116.98V2091ZM3137.6 2091V2093.06H3147.91V2091V2088.94H3137.6V2091ZM3158.22 2091V2093.06H3168.52V2091V2088.94H3158.22V2091ZM3178.83 2091V2093.06H3189.14V2091V2088.94H3178.83V2091ZM3199.45 2091V2093.06H3209.76V2091V2088.94H3199.45V2091ZM3220.06 2091V2093.06H3230.37V2091V2088.94H3220.06V2091ZM3240.68 2091V2093.06H3250.99V2091V2088.94H3240.68V2091ZM3261.3 2091V2093.06H3271.61V2091V2088.94H3261.3V2091ZM3281.91 2091V2093.06H3292.22V2091V2088.94H3281.91V2091ZM3302.53 2091V2093.06H3312.84V2091V2088.94H3302.53V2091ZM3323.15 2091V2093.06H3333.45V2091V2088.94H3323.15V2091ZM3343.76 2091V2093.06H3354.07V2091V2088.94H3343.76V2091ZM3364.38 2091V2093.06H3374.69V2091V2088.94H3364.38V2091ZM3384.99 2091V2093.06H3395.3V2091V2088.94H3384.99V2091ZM3405.61 2091V2093.06H3415.92V2091V2088.94H3405.61V2091ZM3426.23 2091V2093.06H3436.53V2091V2088.94H3426.23V2091ZM3446.84 2091V2093.06H3452V2091V2088.94H3446.84V2091ZM3452 2091H3454.06V2085.89H3452H3449.94V2091H3452ZM3452 2075.66H3454.06V2065.43H3452H3449.94V2075.66H3452ZM3452 2055.2H3454.06V2044.97H3452H3449.94V2055.2H3452ZM3452 2034.74H3454.06V2024.51H3452H3449.94V2034.74H3452ZM3452 2014.28H3454.06V2004.05H3452H3449.94V2014.28H3452ZM3452 1993.82H3454.06V1983.59H3452H3449.94V1993.82H3452ZM3452 1973.36H3454.06V1963.13H3452H3449.94V1973.36H3452ZM3452 1952.9H3454.06V1942.67H3452H3449.94V1952.9H3452ZM3452 1932.44H3454.06V1922.21H3452H3449.94V1932.44H3452ZM3452 1911.98H3454.06V1901.75H3452H3449.94V1911.98H3452ZM3452 1891.52H3454.06V1881.29H3452H3449.94V1891.52H3452ZM3452 1871.06H3454.06V1860.83H3452H3449.94V1871.06H3452ZM3452 1850.6H3454.06V1840.37H3452H3449.94V1850.6H3452ZM3452 1830.14H3454.06V1819.91H3452H3449.94V1830.14H3452ZM3452 1809.68H3454.06V1799.45H3452H3449.94V1809.68H3452ZM3452 1789.22H3454.06V1778.99H3452H3449.94V1789.22H3452ZM3452 1768.76H3454.06V1758.53H3452H3449.94V1768.76H3452ZM3452 1748.3H3454.06V1738.07H3452H3449.94V1748.3H3452ZM3452 1727.84H3454.06V1717.61H3452H3449.94V1727.84H3452ZM3452 1707.38H3454.06V1697.15H3452H3449.94V1707.38H3452ZM3452 1686.92H3454.06V1676.69H3452H3449.94V1686.92H3452ZM3452 1666.46H3454.06V1656.23H3452H3449.94V1666.46H3452ZM3452 1646H3454.06V1635.77H3452H3449.94V1646H3452ZM3452 1625.54H3454.06V1615.31H3452H3449.94V1625.54H3452ZM3452 1605.08H3454.06V1594.85H3452H3449.94V1605.08H3452ZM3452 1584.62H3454.06V1574.39H3452H3449.94V1584.62H3452ZM3452 1564.16H3454.06V1553.93H3452H3449.94V1564.16H3452ZM3452 1543.7H3454.06V1533.47H3452H3449.94V1543.7H3452ZM3452 1523.24H3454.06V1513.01H3452H3449.94V1523.24H3452ZM3452 1502.78H3454.06V1492.55H3452H3449.94V1502.78H3452ZM3452 1482.32H3454.06V1472.09H3452H3449.94V1482.32H3452ZM3452 1461.86H3454.06V1451.63H3452H3449.94V1461.86H3452ZM3452 1441.4H3454.06V1431.17H3452H3449.94V1441.4H3452ZM3452 1420.94H3454.06V1410.71H3452H3449.94V1420.94H3452ZM3452 1400.48H3454.06V1390.25H3452H3449.94V1400.48H3452ZM3452 1380.02H3454.06V1369.79H3452H3449.94V1380.02H3452ZM3452 1359.56H3454.06V1349.33H3452H3449.94V1359.56H3452ZM3452 1339.1H3454.06V1328.87H3452H3449.94V1339.1H3452ZM3452 1318.64H3454.06V1308.41H3452H3449.94V1318.64H3452ZM3452 1298.18H3454.06V1287.95H3452H3449.94V1298.18H3452ZM3452 1277.72H3454.06V1267.49H3452H3449.94V1277.72H3452ZM3452 1257.27H3454.06V1247.04H3452H3449.94V1257.27H3452ZM3452 1236.81H3454.06V1226.58H3452H3449.94V1236.81H3452ZM3452 1216.35H3454.06V1206.12H3452H3449.94V1216.35H3452ZM3452 1195.89H3454.06V1185.66H3452H3449.94V1195.89H3452ZM3452 1175.43H3454.06V1165.2H3452H3449.94V1175.43H3452ZM3452 1154.97H3454.06V1144.74H3452H3449.94V1154.97H3452ZM3452 1134.51H3454.06V1124.28H3452H3449.94V1134.51H3452ZM3452 1114.05H3454.06V1103.82H3452H3449.94V1114.05H3452ZM3452 1093.59H3454.06V1083.36H3452H3449.94V1093.59H3452ZM3452 1073.13H3454.06V1062.9H3452H3449.94V1073.13H3452ZM3452 1052.67H3454.06V1042.44H3452H3449.94V1052.67H3452ZM3452 1032.21H3454.06V1021.98H3452H3449.94V1032.21H3452ZM3452 1011.75H3454.06V1001.52H3452H3449.94V1011.75H3452ZM3452 991.289H3454.06V981.059H3452H3449.94V991.289H3452ZM3452 970.829H3454.06V960.599H3452H3449.94V970.829H3452ZM3452 950.369H3454.06V940.139H3452H3449.94V950.369H3452ZM3452 929.909H3454.06V919.68H3452H3449.94V929.909H3452ZM3452 909.45H3454.06V899.22H3452H3449.94V909.45H3452ZM3452 888.99H3454.06V878.76H3452H3449.94V888.99H3452ZM3452 868.53H3454.06V858.301H3452H3449.94V868.53H3452ZM3452 848.071H3454.06V837.841H3452H3449.94V848.071H3452ZM3452 827.611H3454.06V817.381H3452H3449.94V827.611H3452ZM3452 807.151H3454.06V796.921H3452H3449.94V807.151H3452ZM3452 786.692H3454.06V776.462H3452H3449.94V786.692H3452ZM3452 766.232H3454.06V756.002H3452H3449.94V766.232H3452ZM3452 745.772H3454.06V735.542H3452H3449.94V745.772H3452ZM3452 725.312H3454.06V715.082H3452H3449.94V725.312H3452ZM3452 704.853H3454.06V694.623H3452H3449.94V704.853H3452ZM3452 684.393H3454.06V674.163H3452H3449.94V684.393H3452ZM3452 663.933H3454.06V653.703H3452H3449.94V663.933H3452ZM3452 643.474H3454.06V633.244H3452H3449.94V643.474H3452ZM3452 623.014H3454.06V612.784H3452H3449.94V623.014H3452ZM3452 602.554H3454.06V592.324H3452H3449.94V602.554H3452ZM3452 582.094H3454.06V571.865H3452H3449.94V582.094H3452ZM3452 561.635H3454.06V551.405H3452H3449.94V561.635H3452ZM3452 541.175H3454.06V530.945H3452H3449.94V541.175H3452ZM3452 520.715H3454.06V510.485H3452H3449.94V520.715H3452ZM3452 500.255H3454.06V490.026H3452H3449.94V500.255H3452ZM3452 479.796H3454.06V469.566H3452H3449.94V479.796H3452ZM3452 459.336H3454.06V449.106H3452H3449.94V459.336H3452ZM3452 438.876H3454.06V428.646H3452H3449.94V438.876H3452ZM3452 418.417H3454.06V408.187H3452H3449.94V418.417H3452ZM3452 397.957H3454.06V387.727H3452H3449.94V397.957H3452ZM3452 377.497H3454.06V367.267H3452H3449.94V377.497H3452ZM3452 357.038H3454.06V346.808H3452H3449.94V357.038H3452ZM3452 336.578H3454.06V326.348H3452H3449.94V336.578H3452ZM3452 316.118H3454.06V311H3452H3449.94V316.118H3452ZM3452 311V308.944H3446.85V311V313.056H3452V311ZM3436.54 311V308.944H3426.23V311V313.056H3436.54V311ZM3415.92 311V308.944H3405.61V311V313.056H3415.92V311ZM3395.31 311V308.944H3385V311V313.056H3395.31V311ZM3374.69 311V308.944H3364.38V311V313.056H3374.69V311ZM3354.07 311V308.944H3343.77V311V313.056H3354.07V311ZM3333.46 311V308.944H3323.15V311V313.056H3333.46V311ZM3312.84 311V308.944H3302.53V311V313.056H3312.84V311ZM3292.23 311V308.944H3281.92V311V313.056H3292.23V311ZM3271.61 311V308.944H3261.3V311V313.056H3271.61V311ZM3250.99 311V308.944H3240.69V311V313.056H3250.99V311ZM3230.38 311V308.944H3220.07V311V313.056H3230.38V311ZM3209.76 311V308.944H3199.45V311V313.056H3209.76V311ZM3189.15 311V308.944H3178.84V311V313.056H3189.15V311ZM3168.53 311V308.944H3158.22V311V313.056H3168.53V311ZM3147.91 311V308.944H3137.6V311V313.056H3147.91V311ZM3127.3 311V308.944H3116.99V311V313.056H3127.3V311ZM3106.68 311V308.944H3096.37V311V313.056H3106.68V311ZM3086.06 311V308.944H3075.76V311V313.056H3086.06V311ZM3065.45 311V308.944H3055.14V311V313.056H3065.45V311ZM3044.83 311V308.944H3034.52V311V313.056H3044.83V311ZM3024.22 311V308.944H3013.91V311V313.056H3024.22V311ZM3003.6 311V308.944H2993.29V311V313.056H3003.6V311ZM2982.98 311V308.944H2972.68V311V313.056H2982.98V311ZM2962.37 311V308.944H2952.06V311V313.056H2962.37V311ZM2941.75 311V308.944H2931.44V311V313.056H2941.75V311ZM2921.14 311V308.944H2910.83V311V313.056H2921.14V311ZM2900.52 311V308.944H2890.21V311V313.056H2900.52V311ZM2879.9 311V308.944H2869.6V311V313.056H2879.9V311ZM2859.29 311V308.944H2848.98V311V313.056H2859.29V311ZM2838.67 311V308.944H2828.36V311V313.056H2838.67V311ZM2818.06 311V308.944H2807.75V311V313.056H2818.06V311ZM2797.44 311V308.944H2787.13V311V313.056H2797.44V311ZM2776.82 311V308.944H2766.52V311V313.056H2776.82V311ZM2756.21 311V308.944H2745.9V311V313.056H2756.21V311ZM2735.59 311V308.944H2725.28V311V313.056H2735.59V311ZM2714.98 311V308.944H2704.67V311V313.056H2714.98V311ZM2694.36 311V308.944H2684.05V311V313.056H2694.36V311ZM2673.74 311V308.944H2663.43V311V313.056H2673.74V311ZM2653.13 311V308.944H2642.82V311V313.056H2653.13V311ZM2632.51 311V308.944H2622.2V311V313.056H2632.51V311ZM2611.89 311V308.944H2601.59V311V313.056H2611.89V311ZM2591.28 311V308.944H2580.97V311V313.056H2591.28V311ZM2570.66 311V308.944H2560.35V311V313.056H2570.66V311ZM2550.05 311V308.944H2539.74V311V313.056H2550.05V311ZM2529.43 311V308.944H2519.12V311V313.056H2529.43V311ZM2508.81 311V308.944H2498.51V311V313.056H2508.81V311ZM2488.2 311V308.944H2477.89V311V313.056H2488.2V311ZM2467.58 311V308.944H2457.27V311V313.056H2467.58V311ZM2446.97 311V308.944H2436.66V311V313.056H2446.97V311ZM2426.35 311V308.944H2416.04V311V313.056H2426.35V311ZM2405.73 311V308.944H2395.43V311V313.056H2405.73V311ZM2385.12 311V308.944H2374.81V311V313.056H2385.12V311ZM2364.5 311V308.944H2354.19V311V313.056H2364.5V311ZM2343.89 311V308.944H2333.58V311V313.056H2343.89V311ZM2323.27 311V308.944H2312.96V311V313.056H2323.27V311ZM2302.65 311V308.944H2292.35V311V313.056H2302.65V311ZM2282.04 311V308.944H2271.73V311V313.056H2282.04V311ZM2261.42 311V308.944H2251.11V311V313.056H2261.42V311ZM2240.81 311V308.944H2230.5V311V313.056H2240.81V311ZM2220.19 311V308.944H2209.88V311V313.056H2220.19V311ZM2199.57 311V308.944H2189.27V311V313.056H2199.57V311ZM2178.96 311V308.944H2168.65V311V313.056H2178.96V311ZM2158.34 311V308.944H2148.03V311V313.056H2158.34V311ZM2137.73 311V308.944H2127.42V311V313.056H2137.73V311ZM2117.11 311V308.944H2106.8V311V313.056H2117.11V311ZM2096.49 311V308.944H2086.19V311V313.056H2096.49V311ZM2075.88 311V308.944H2065.57V311V313.056H2075.88V311ZM2055.26 311V308.944H2044.95V311V313.056H2055.26V311ZM2034.65 311V308.944H2024.34V311V313.056H2034.65V311ZM2014.03 311V308.944H2003.72V311V313.056H2014.03V311ZM1993.41 311V308.944H1983.11V311V313.056H1993.41V311ZM1972.8 311V308.944H1962.49V311V313.056H1972.8V311ZM1952.18 311V308.944H1941.87V311V313.056H1952.18V311ZM1931.57 311V308.944H1921.26V311V313.056H1931.57V311ZM1910.95 311V308.944H1900.64V311V313.056H1910.95V311ZM1890.33 311V308.944H1880.03V311V313.056H1890.33V311ZM1869.72 311V308.944H1859.41V311V313.056H1869.72V311ZM1849.1 311V308.944H1838.79V311V313.056H1849.1V311ZM1828.49 311V308.944H1818.18V311V313.056H1828.49V311ZM1807.87 311V308.944H1797.56V311V313.056H1807.87V311ZM1787.26 311V308.944H1776.95V311V313.056H1787.26V311ZM1766.64 311V308.944H1756.33V311V313.056H1766.64V311ZM1746.02 311V308.944H1735.72V311V313.056H1746.02V311ZM1725.41 311V308.944H1715.1V311V313.056H1725.41V311ZM1704.79 311V308.944H1694.48V311V313.056H1704.79V311ZM1684.18 311V308.944H1673.87V311V313.056H1684.18V311ZM1663.56 311V308.944H1653.25V311V313.056H1663.56V311ZM1642.94 311V308.944H1632.64V311V313.056H1642.94V311ZM1622.33 311V308.944H1612.02V311V313.056H1622.33V311ZM1601.71 311V308.944H1591.4V311V313.056H1601.71V311ZM1581.1 311V308.944H1570.79V311V313.056H1581.1V311ZM1560.48 311V308.944H1550.17V311V313.056H1560.48V311ZM1539.86 311V308.944H1529.56V311V313.056H1539.86V311ZM1519.25 311V308.944H1508.94V311V313.056H1519.25V311ZM1498.63 311V308.944H1488.32V311V313.056H1498.63V311ZM1478.02 311V308.944H1467.71V311V313.056H1478.02V311ZM1457.4 311V308.944H1447.09V311V313.056H1457.4V311ZM1436.78 311V308.944H1426.48V311V313.056H1436.78V311ZM1416.17 311V308.944H1405.86V311V313.056H1416.17V311ZM1395.55 311V308.944H1385.24V311V313.056H1395.55V311ZM1374.94 311V308.944H1364.63V311V313.056H1374.94V311ZM1354.32 311V308.944H1344.01V311V313.056H1354.32V311ZM1333.7 311V308.944H1323.39V311V313.056H1333.7V311ZM1313.09 311V308.944H1302.78V311V313.056H1313.09V311ZM1292.47 311V308.944H1282.16V311V313.056H1292.47V311ZM1271.85 311V308.944H1261.55V311V313.056H1271.85V311ZM1251.24 311V308.944H1240.93V311V313.056H1251.24V311ZM1230.62 311V308.944H1220.31V311V313.056H1230.62V311ZM1210.01 311V308.944H1199.7V311V313.056H1210.01V311ZM1189.39 311V308.944H1179.08V311V313.056H1189.39V311ZM1168.77 311V308.944H1158.47V311V313.056H1168.77V311ZM1148.16 311V308.944H1143V311V313.056H1148.16V311Z" fill="#9A9A9A"/>
</g>
</g>
<g id="#logo-placement">
<g id="Area">
<rect width="1965" height="1636" transform="translate(1415 383)" fill="#2063D6"/>
</g>
</g>
</g>
</svg>
