<svg width="7519" height="4670" viewBox="0 0 7519 4670" fill="none" xmlns="http://www.w3.org/2000/svg">
<g id="Shefield">
<rect id="zone-primary" y="1.00586" width="7519" height="4669" fill="white"/>
<g id="zone-secondary">
<rect id="zone-secondary_2" y="4210" width="7507" height="460" fill="#373737"/>
<rect id="zone-secondary_3" x="7060" y="4662" width="4662" height="459" transform="rotate(-90 7060 4662)" fill="#373737"/>
<rect id="zone-secondary_4" y="2334.01" width="2333" height="4131" transform="rotate(-90 0 2334.01)" fill="#373737"/>
<rect id="zone-secondary_5" x="4131" y="4670.01" width="2336" height="3376" transform="rotate(-90 4131 4670.01)" fill="#373737"/>
<rect id="zone-secondary_6" y="1.00586" width="7507" height="460" fill="#373737"/>
</g>
<g id="#logo-placement">
<g id="Area">
<rect width="5710" height="3604" transform="translate(1278 533.006)" fill="#2063D6"/>
</g>
</g>
<g id="Bleed">
<g id="Bleed_2">
<rect id="Bleed_3" x="0.5" y="1.50586" width="7518" height="309" fill="#9A9A9A" stroke="#9A9A9A"/>
<rect id="Bleed_4" x="0.5" y="4669.51" width="4668" height="1205" transform="rotate(-90 0.5 4669.51)" fill="#9A9A9A" stroke="#9A9A9A"/>
<rect id="Bleed_5" x="7209.5" y="4669.51" width="4668" height="309" transform="rotate(-90 7209.5 4669.51)" fill="#9A9A9A" stroke="#9A9A9A"/>
<rect id="Bleed_6" x="0.5" y="4360.51" width="7518" height="309" fill="#9A9A9A" stroke="#9A9A9A"/>
<path id="Bleed_7" d="M7060 461.006H7064V457.006H7060V461.006ZM7060 4210.01V4214.01H7064V4210.01H7060ZM1206 4210.01V4214.01H1216.02V4210.01V4206.01H1206V4210.01ZM1236.07 4210.01V4214.01H1256.12V4210.01V4206.01H1236.07V4210.01ZM1276.17 4210.01V4214.01H1296.22V4210.01V4206.01H1276.17V4210.01ZM1316.26 4210.01V4214.01H1336.31V4210.01V4206.01H1316.26V4210.01ZM1356.36 4210.01V4214.01H1376.41V4210.01V4206.01H1356.36V4210.01ZM1396.46 4210.01V4214.01H1416.5V4210.01V4206.01H1396.46V4210.01ZM1436.55 4210.01V4214.01H1456.6V4210.01V4206.01H1436.55V4210.01ZM1476.65 4210.01V4214.01H1496.7V4210.01V4206.01H1476.65V4210.01ZM1516.74 4210.01V4214.01H1536.79V4210.01V4206.01H1516.74V4210.01ZM1556.84 4210.01V4214.01H1576.89V4210.01V4206.01H1556.84V4210.01ZM1596.93 4210.01V4214.01H1616.98V4210.01V4206.01H1596.93V4210.01ZM1637.03 4210.01V4214.01H1657.08V4210.01V4206.01H1637.03V4210.01ZM1677.13 4210.01V4214.01H1697.17V4210.01V4206.01H1677.13V4210.01ZM1717.22 4210.01V4214.01H1737.27V4210.01V4206.01H1717.22V4210.01ZM1757.32 4210.01V4214.01H1777.37V4210.01V4206.01H1757.32V4210.01ZM1797.41 4210.01V4214.01H1817.46V4210.01V4206.01H1797.41V4210.01ZM1837.51 4210.01V4214.01H1857.56V4210.01V4206.01H1837.51V4210.01ZM1877.61 4210.01V4214.01H1897.65V4210.01V4206.01H1877.61V4210.01ZM1917.7 4210.01V4214.01H1937.75V4210.01V4206.01H1917.7V4210.01ZM1957.8 4210.01V4214.01H1977.85V4210.01V4206.01H1957.8V4210.01ZM1997.89 4210.01V4214.01H2017.94V4210.01V4206.01H1997.89V4210.01ZM2037.99 4210.01V4214.01H2058.04V4210.01V4206.01H2037.99V4210.01ZM2078.09 4210.01V4214.01H2098.13V4210.01V4206.01H2078.09V4210.01ZM2118.18 4210.01V4214.01H2138.23V4210.01V4206.01H2118.18V4210.01ZM2158.28 4210.01V4214.01H2178.33V4210.01V4206.01H2158.28V4210.01ZM2198.37 4210.01V4214.01H2218.42V4210.01V4206.01H2198.37V4210.01ZM2238.47 4210.01V4214.01H2258.52V4210.01V4206.01H2238.47V4210.01ZM2278.57 4210.01V4214.01H2298.61V4210.01V4206.01H2278.57V4210.01ZM2318.66 4210.01V4214.01H2338.71V4210.01V4206.01H2318.66V4210.01ZM2358.76 4210.01V4214.01H2378.81V4210.01V4206.01H2358.76V4210.01ZM2398.85 4210.01V4214.01H2418.9V4210.01V4206.01H2398.85V4210.01ZM2438.95 4210.01V4214.01H2459V4210.01V4206.01H2438.95V4210.01ZM2479.05 4210.01V4214.01H2499.09V4210.01V4206.01H2479.05V4210.01ZM2519.14 4210.01V4214.01H2539.19V4210.01V4206.01H2519.14V4210.01ZM2559.24 4210.01V4214.01H2579.29V4210.01V4206.01H2559.24V4210.01ZM2599.33 4210.01V4214.01H2619.38V4210.01V4206.01H2599.33V4210.01ZM2639.43 4210.01V4214.01H2659.48V4210.01V4206.01H2639.43V4210.01ZM2679.53 4210.01V4214.01H2699.57V4210.01V4206.01H2679.53V4210.01ZM2719.62 4210.01V4214.01H2739.67V4210.01V4206.01H2719.62V4210.01ZM2759.72 4210.01V4214.01H2779.77V4210.01V4206.01H2759.72V4210.01ZM2799.81 4210.01V4214.01H2819.86V4210.01V4206.01H2799.81V4210.01ZM2839.91 4210.01V4214.01H2859.96V4210.01V4206.01H2839.91V4210.01ZM2880.01 4210.01V4214.01H2900.05V4210.01V4206.01H2880.01V4210.01ZM2920.1 4210.01V4214.01H2940.15V4210.01V4206.01H2920.1V4210.01ZM2960.2 4210.01V4214.01H2980.24V4210.01V4206.01H2960.2V4210.01ZM3000.29 4210.01V4214.01H3020.34V4210.01V4206.01H3000.29V4210.01ZM3040.39 4210.01V4214.01H3060.44V4210.01V4206.01H3040.39V4210.01ZM3080.48 4210.01V4214.01H3100.53V4210.01V4206.01H3080.48V4210.01ZM3120.58 4210.01V4214.01H3140.63V4210.01V4206.01H3120.58V4210.01ZM3160.68 4210.01V4214.01H3180.72V4210.01V4206.01H3160.68V4210.01ZM3200.77 4210.01V4214.01H3220.82V4210.01V4206.01H3200.77V4210.01ZM3240.87 4210.01V4214.01H3260.92V4210.01V4206.01H3240.87V4210.01ZM3280.96 4210.01V4214.01H3301.01V4210.01V4206.01H3280.96V4210.01ZM3321.06 4210.01V4214.01H3341.11V4210.01V4206.01H3321.06V4210.01ZM3361.16 4210.01V4214.01H3381.2V4210.01V4206.01H3361.16V4210.01ZM3401.25 4210.01V4214.01H3421.3V4210.01V4206.01H3401.25V4210.01ZM3441.35 4210.01V4214.01H3461.4V4210.01V4206.01H3441.35V4210.01ZM3481.44 4210.01V4214.01H3501.49V4210.01V4206.01H3481.44V4210.01ZM3521.54 4210.01V4214.01H3541.59V4210.01V4206.01H3521.54V4210.01ZM3561.63 4210.01V4214.01H3581.68V4210.01V4206.01H3561.63V4210.01ZM3601.73 4210.01V4214.01H3621.78V4210.01V4206.01H3601.73V4210.01ZM3641.83 4210.01V4214.01H3661.87V4210.01V4206.01H3641.83V4210.01ZM3681.92 4210.01V4214.01H3701.97V4210.01V4206.01H3681.92V4210.01ZM3722.02 4210.01V4214.01H3742.06V4210.01V4206.01H3722.02V4210.01ZM3762.11 4210.01V4214.01H3782.16V4210.01V4206.01H3762.11V4210.01ZM3802.21 4210.01V4214.01H3822.26V4210.01V4206.01H3802.21V4210.01ZM3842.3 4210.01V4214.01H3862.35V4210.01V4206.01H3842.3V4210.01ZM3882.4 4210.01V4214.01H3902.45V4210.01V4206.01H3882.4V4210.01ZM3922.5 4210.01V4214.01H3942.54V4210.01V4206.01H3922.5V4210.01ZM3962.59 4210.01V4214.01H3982.64V4210.01V4206.01H3962.59V4210.01ZM4002.69 4210.01V4214.01H4022.73V4210.01V4206.01H4002.69V4210.01ZM4042.78 4210.01V4214.01H4062.83V4210.01V4206.01H4042.78V4210.01ZM4082.88 4210.01V4214.01H4102.93V4210.01V4206.01H4082.88V4210.01ZM4122.97 4210.01V4214.01H4143.02V4210.01V4206.01H4122.97V4210.01ZM4163.07 4210.01V4214.01H4183.12V4210.01V4206.01H4163.07V4210.01ZM4203.17 4210.01V4214.01H4223.21V4210.01V4206.01H4203.17V4210.01ZM4243.26 4210.01V4214.01H4263.31V4210.01V4206.01H4243.26V4210.01ZM4283.36 4210.01V4214.01H4303.4V4210.01V4206.01H4283.36V4210.01ZM4323.45 4210.01V4214.01H4343.5V4210.01V4206.01H4323.45V4210.01ZM4363.55 4210.01V4214.01H4383.6V4210.01V4206.01H4363.55V4210.01ZM4403.64 4210.01V4214.01H4423.69V4210.01V4206.01H4403.64V4210.01ZM4443.74 4210.01V4214.01H4463.79V4210.01V4206.01H4443.74V4210.01ZM4483.84 4210.01V4214.01H4503.88V4210.01V4206.01H4483.84V4210.01ZM4523.93 4210.01V4214.01H4543.98V4210.01V4206.01H4523.93V4210.01ZM4564.03 4210.01V4214.01H4584.07V4210.01V4206.01H4564.03V4210.01ZM4604.12 4210.01V4214.01H4624.17V4210.01V4206.01H4604.12V4210.01ZM4644.22 4210.01V4214.01H4664.27V4210.01V4206.01H4644.22V4210.01ZM4684.31 4210.01V4214.01H4704.36V4210.01V4206.01H4684.31V4210.01ZM4724.41 4210.01V4214.01H4744.46V4210.01V4206.01H4724.41V4210.01ZM4764.51 4210.01V4214.01H4784.55V4210.01V4206.01H4764.51V4210.01ZM4804.6 4210.01V4214.01H4824.65V4210.01V4206.01H4804.6V4210.01ZM4844.7 4210.01V4214.01H4864.74V4210.01V4206.01H4844.7V4210.01ZM4884.79 4210.01V4214.01H4904.84V4210.01V4206.01H4884.79V4210.01ZM4924.89 4210.01V4214.01H4944.94V4210.01V4206.01H4924.89V4210.01ZM4964.98 4210.01V4214.01H4985.03V4210.01V4206.01H4964.98V4210.01ZM5005.08 4210.01V4214.01H5025.13V4210.01V4206.01H5005.08V4210.01ZM5045.18 4210.01V4214.01H5065.22V4210.01V4206.01H5045.18V4210.01ZM5085.27 4210.01V4214.01H5105.32V4210.01V4206.01H5085.27V4210.01ZM5125.37 4210.01V4214.01H5145.41V4210.01V4206.01H5125.37V4210.01ZM5165.46 4210.01V4214.01H5185.51V4210.01V4206.01H5165.46V4210.01ZM5205.56 4210.01V4214.01H5225.61V4210.01V4206.01H5205.56V4210.01ZM5245.65 4210.01V4214.01H5265.7V4210.01V4206.01H5245.65V4210.01ZM5285.75 4210.01V4214.01H5305.8V4210.01V4206.01H5285.75V4210.01ZM5325.85 4210.01V4214.01H5345.89V4210.01V4206.01H5325.85V4210.01ZM5365.94 4210.01V4214.01H5385.99V4210.01V4206.01H5365.94V4210.01ZM5406.04 4210.01V4214.01H5426.08V4210.01V4206.01H5406.04V4210.01ZM5446.13 4210.01V4214.01H5466.18V4210.01V4206.01H5446.13V4210.01ZM5486.23 4210.01V4214.01H5506.28V4210.01V4206.01H5486.23V4210.01ZM5526.32 4210.01V4214.01H5546.37V4210.01V4206.01H5526.32V4210.01ZM5566.42 4210.01V4214.01H5586.47V4210.01V4206.01H5566.42V4210.01ZM5606.52 4210.01V4214.01H5626.56V4210.01V4206.01H5606.52V4210.01ZM5646.61 4210.01V4214.01H5666.66V4210.01V4206.01H5646.61V4210.01ZM5686.71 4210.01V4214.01H5706.75V4210.01V4206.01H5686.71V4210.01ZM5726.8 4210.01V4214.01H5746.85V4210.01V4206.01H5726.8V4210.01ZM5766.9 4210.01V4214.01H5786.95V4210.01V4206.01H5766.9V4210.01ZM5806.99 4210.01V4214.01H5827.04V4210.01V4206.01H5806.99V4210.01ZM5847.09 4210.01V4214.01H5867.14V4210.01V4206.01H5847.09V4210.01ZM5887.19 4210.01V4214.01H5907.23V4210.01V4206.01H5887.19V4210.01ZM5927.28 4210.01V4214.01H5947.33V4210.01V4206.01H5927.28V4210.01ZM5967.38 4210.01V4214.01H5987.42V4210.01V4206.01H5967.38V4210.01ZM6007.47 4210.01V4214.01H6027.52V4210.01V4206.01H6007.47V4210.01ZM6047.57 4210.01V4214.01H6067.62V4210.01V4206.01H6047.57V4210.01ZM6087.66 4210.01V4214.01H6107.71V4210.01V4206.01H6087.66V4210.01ZM6127.76 4210.01V4214.01H6147.81V4210.01V4206.01H6127.76V4210.01ZM6167.85 4210.01V4214.01H6187.9V4210.01V4206.01H6167.85V4210.01ZM6207.95 4210.01V4214.01H6228V4210.01V4206.01H6207.95V4210.01ZM6248.05 4210.01V4214.01H6268.09V4210.01V4206.01H6248.05V4210.01ZM6288.14 4210.01V4214.01H6308.19V4210.01V4206.01H6288.14V4210.01ZM6328.24 4210.01V4214.01H6348.29V4210.01V4206.01H6328.24V4210.01ZM6368.33 4210.01V4214.01H6388.38V4210.01V4206.01H6368.33V4210.01ZM6408.43 4210.01V4214.01H6428.48V4210.01V4206.01H6408.43V4210.01ZM6448.52 4210.01V4214.01H6468.57V4210.01V4206.01H6448.52V4210.01ZM6488.62 4210.01V4214.01H6508.67V4210.01V4206.01H6488.62V4210.01ZM6528.72 4210.01V4214.01H6548.76V4210.01V4206.01H6528.72V4210.01ZM6568.81 4210.01V4214.01H6588.86V4210.01V4206.01H6568.81V4210.01ZM6608.91 4210.01V4214.01H6628.96V4210.01V4206.01H6608.91V4210.01ZM6649 4210.01V4214.01H6669.05V4210.01V4206.01H6649V4210.01ZM6689.1 4210.01V4214.01H6709.15V4210.01V4206.01H6689.1V4210.01ZM6729.19 4210.01V4214.01H6749.24V4210.01V4206.01H6729.19V4210.01ZM6769.29 4210.01V4214.01H6789.34V4210.01V4206.01H6769.29V4210.01ZM6809.39 4210.01V4214.01H6829.43V4210.01V4206.01H6809.39V4210.01ZM6849.48 4210.01V4214.01H6869.53V4210.01V4206.01H6849.48V4210.01ZM6889.58 4210.01V4214.01H6909.63V4210.01V4206.01H6889.58V4210.01ZM6929.67 4210.01V4214.01H6949.72V4210.01V4206.01H6929.67V4210.01ZM6969.77 4210.01V4214.01H6989.82V4210.01V4206.01H6969.77V4210.01ZM7009.86 4210.01V4214.01H7029.91V4210.01V4206.01H7009.86V4210.01ZM7049.96 4210.01V4214.01H7060V4210.01V4206.01H7049.96V4210.01ZM7060 4210.01H7064V4200.04H7060H7056V4210.01H7060ZM7060 4180.09H7064V4160.15H7060H7056V4180.09H7060ZM7060 4140.21H7064V4120.27H7060H7056V4140.21H7060ZM7060 4100.33H7064V4080.39H7060H7056V4100.33H7060ZM7060 4060.44H7064V4040.5H7060H7056V4060.44H7060ZM7060 4020.56H7064V4000.62H7060H7056V4020.56H7060ZM7060 3980.68H7064V3960.74H7060H7056V3980.68H7060ZM7060 3940.8H7064V3920.85H7060H7056V3940.8H7060ZM7060 3900.91H7064V3880.97H7060H7056V3900.91H7060ZM7060 3861.03H7064V3841.09H7060H7056V3861.03H7060ZM7060 3821.15H7064V3801.21H7060H7056V3821.15H7060ZM7060 3781.26H7064V3761.32H7060H7056V3781.26H7060ZM7060 3741.38H7064V3721.44H7060H7056V3741.38H7060ZM7060 3701.5H7064V3681.56H7060H7056V3701.5H7060ZM7060 3661.61H7064V3641.67H7060H7056V3661.61H7060ZM7060 3621.73H7064V3601.79H7060H7056V3621.73H7060ZM7060 3581.85H7064V3561.91H7060H7056V3581.85H7060ZM7060 3541.97H7064V3522.02H7060H7056V3541.97H7060ZM7060 3502.08H7064V3482.14H7060H7056V3502.08H7060ZM7060 3462.2H7064V3442.26H7060H7056V3462.2H7060ZM7060 3422.32H7064V3402.38H7060H7056V3422.32H7060ZM7060 3382.43H7064V3362.49H7060H7056V3382.43H7060ZM7060 3342.55H7064V3322.61H7060H7056V3342.55H7060ZM7060 3302.67H7064V3282.73H7060H7056V3302.67H7060ZM7060 3262.79H7064V3242.84H7060H7056V3262.79H7060ZM7060 3222.9H7064V3202.96H7060H7056V3222.9H7060ZM7060 3183.02H7064V3163.08H7060H7056V3183.02H7060ZM7060 3143.14H7064V3123.2H7060H7056V3143.14H7060ZM7060 3103.25H7064V3083.31H7060H7056V3103.25H7060ZM7060 3063.37H7064V3043.43H7060H7056V3063.37H7060ZM7060 3023.49H7064V3003.55H7060H7056V3023.49H7060ZM7060 2983.6H7064V2963.66H7060H7056V2983.6H7060ZM7060 2943.72H7064V2923.78H7060H7056V2943.72H7060ZM7060 2903.84H7064V2883.9H7060H7056V2903.84H7060ZM7060 2863.96H7064V2844.01H7060H7056V2863.96H7060ZM7060 2824.07H7064V2804.13H7060H7056V2824.07H7060ZM7060 2784.19H7064V2764.25H7060H7056V2784.19H7060ZM7060 2744.31H7064V2724.36H7060H7056V2744.31H7060ZM7060 2704.42H7064V2684.48H7060H7056V2704.42H7060ZM7060 2664.54H7064V2644.6H7060H7056V2664.54H7060ZM7060 2624.66H7064V2604.72H7060H7056V2624.66H7060ZM7060 2584.77H7064V2564.83H7060H7056V2584.77H7060ZM7060 2544.89H7064V2524.95H7060H7056V2544.89H7060ZM7060 2505.01H7064V2485.07H7060H7056V2505.01H7060ZM7060 2465.12H7064V2445.18H7060H7056V2465.12H7060ZM7060 2425.24H7064V2405.3H7060H7056V2425.24H7060ZM7060 2385.36H7064V2365.42H7060H7056V2385.36H7060ZM7060 2345.48H7064V2325.53H7060H7056V2345.48H7060ZM7060 2305.59H7064V2285.65H7060H7056V2305.59H7060ZM7060 2265.71H7064V2245.77H7060H7056V2265.71H7060ZM7060 2225.83H7064V2205.88H7060H7056V2225.83H7060ZM7060 2185.94H7064V2166H7060H7056V2185.94H7060ZM7060 2146.06H7064V2126.12H7060H7056V2146.06H7060ZM7060 2106.18H7064V2086.24H7060H7056V2106.18H7060ZM7060 2066.29H7064V2046.35H7060H7056V2066.29H7060ZM7060 2026.41H7064V2006.47H7060H7056V2026.41H7060ZM7060 1986.53H7064V1966.59H7060H7056V1986.53H7060ZM7060 1946.65H7064V1926.7H7060H7056V1946.65H7060ZM7060 1906.76H7064V1886.82H7060H7056V1906.76H7060ZM7060 1866.88H7064V1846.94H7060H7056V1866.88H7060ZM7060 1827H7064V1807.06H7060H7056V1827H7060ZM7060 1787.11H7064V1767.17H7060H7056V1787.11H7060ZM7060 1747.23H7064V1727.29H7060H7056V1747.23H7060ZM7060 1707.35H7064V1687.41H7060H7056V1707.35H7060ZM7060 1667.47H7064V1647.52H7060H7056V1667.47H7060ZM7060 1627.58H7064V1607.64H7060H7056V1627.58H7060ZM7060 1587.7H7064V1567.76H7060H7056V1587.7H7060ZM7060 1547.82H7064V1527.88H7060H7056V1547.82H7060ZM7060 1507.93H7064V1487.99H7060H7056V1507.93H7060ZM7060 1468.05H7064V1448.11H7060H7056V1468.05H7060ZM7060 1428.17H7064V1408.23H7060H7056V1428.17H7060ZM7060 1388.29H7064V1368.35H7060H7056V1388.29H7060ZM7060 1348.4H7064V1328.46H7060H7056V1348.4H7060ZM7060 1308.52H7064V1288.58H7060H7056V1308.52H7060ZM7060 1268.64H7064V1248.7H7060H7056V1268.64H7060ZM7060 1228.76H7064V1208.81H7060H7056V1228.76H7060ZM7060 1188.87H7064V1168.93H7060H7056V1188.87H7060ZM7060 1148.99H7064V1129.05H7060H7056V1148.99H7060ZM7060 1109.11H7064V1089.17H7060H7056V1109.11H7060ZM7060 1069.22H7064V1049.28H7060H7056V1069.22H7060ZM7060 1029.34H7064V1009.4H7060H7056V1029.34H7060ZM7060 989.459H7064V969.517H7060H7056V989.459H7060ZM7060 949.576H7064V929.634H7060H7056V949.576H7060ZM7060 909.693H7064V889.751H7060H7056V909.693H7060ZM7060 869.81H7064V849.869H7060H7056V869.81H7060ZM7060 829.927H7064V809.986H7060H7056V829.927H7060ZM7060 790.044H7064V770.103H7060H7056V790.044H7060ZM7060 750.162H7064V730.22H7060H7056V750.162H7060ZM7060 710.279H7064V690.337H7060H7056V710.279H7060ZM7060 670.396H7064V650.455H7060H7056V670.396H7060ZM7060 630.513H7064V610.572H7060H7056V630.513H7060ZM7060 590.63H7064V570.689H7060H7056V590.63H7060ZM7060 550.748H7064V530.806H7060H7056V550.748H7060ZM7060 510.865H7064V490.923H7060H7056V510.865H7060ZM7060 470.982H7064V461.006H7060H7056V470.982H7060ZM7060 461.006V457.006H7049.98V461.006V465.006H7060V461.006ZM7029.93 461.006V457.006H7009.88V461.006V465.006H7029.93V461.006ZM6989.83 461.006V457.006H6969.78V461.006V465.006H6989.83V461.006ZM6949.74 461.006V457.006H6929.69V461.006V465.006H6949.74V461.006ZM6909.64 461.006V457.006H6889.59V461.006V465.006H6909.64V461.006ZM6869.54 461.006V457.006H6849.5V461.006V465.006H6869.54V461.006ZM6829.45 461.006V457.006H6809.4V461.006V465.006H6829.45V461.006ZM6789.35 461.006V457.006H6769.3V461.006V465.006H6789.35V461.006ZM6749.26 461.006V457.006H6729.21V461.006V465.006H6749.26V461.006ZM6709.16 461.006V457.006H6689.11V461.006V465.006H6709.16V461.006ZM6669.06 461.006V457.006H6649.02V461.006V465.006H6669.06V461.006ZM6628.97 461.006V457.006H6608.92V461.006V465.006H6628.97V461.006ZM6588.87 461.006V457.006H6568.83V461.006V465.006H6588.87V461.006ZM6548.78 461.006V457.006H6528.73V461.006V465.006H6548.78V461.006ZM6508.68 461.006V457.006H6488.63V461.006V465.006H6508.68V461.006ZM6468.59 461.006V457.006H6448.54V461.006V465.006H6468.59V461.006ZM6428.49 461.006V457.006H6408.44V461.006V465.006H6428.49V461.006ZM6388.39 461.006V457.006H6368.35V461.006V465.006H6388.39V461.006ZM6348.3 461.006V457.006H6328.25V461.006V465.006H6348.3V461.006ZM6308.2 461.006V457.006H6288.15V461.006V465.006H6308.2V461.006ZM6268.11 461.006V457.006H6248.06V461.006V465.006H6268.11V461.006ZM6228.01 461.006V457.006H6207.96V461.006V465.006H6228.01V461.006ZM6187.91 461.006V457.006H6167.87V461.006V465.006H6187.91V461.006ZM6147.82 461.006V457.006H6127.77V461.006V465.006H6147.82V461.006ZM6107.72 461.006V457.006H6087.67V461.006V465.006H6107.72V461.006ZM6067.63 461.006V457.006H6047.58V461.006V465.006H6067.63V461.006ZM6027.53 461.006V457.006H6007.48V461.006V465.006H6027.53V461.006ZM5987.43 461.006V457.006H5967.39V461.006V465.006H5987.43V461.006ZM5947.34 461.006V457.006H5927.29V461.006V465.006H5947.34V461.006ZM5907.24 461.006V457.006H5887.19V461.006V465.006H5907.24V461.006ZM5867.15 461.006V457.006H5847.1V461.006V465.006H5867.15V461.006ZM5827.05 461.006V457.006H5807V461.006V465.006H5827.05V461.006ZM5786.95 461.006V457.006H5766.91V461.006V465.006H5786.95V461.006ZM5746.86 461.006V457.006H5726.81V461.006V465.006H5746.86V461.006ZM5706.76 461.006V457.006H5686.71V461.006V465.006H5706.76V461.006ZM5666.67 461.006V457.006H5646.62V461.006V465.006H5666.67V461.006ZM5626.57 461.006V457.006H5606.52V461.006V465.006H5626.57V461.006ZM5586.47 461.006V457.006H5566.43V461.006V465.006H5586.47V461.006ZM5546.38 461.006V457.006H5526.33V461.006V465.006H5546.38V461.006ZM5506.28 461.006V457.006H5486.23V461.006V465.006H5506.28V461.006ZM5466.19 461.006V457.006H5446.14V461.006V465.006H5466.19V461.006ZM5426.09 461.006V457.006H5406.04V461.006V465.006H5426.09V461.006ZM5386 461.006V457.006H5365.95V461.006V465.006H5386V461.006ZM5345.9 461.006V457.006H5325.85V461.006V465.006H5345.9V461.006ZM5305.8 461.006V457.006H5285.76V461.006V465.006H5305.8V461.006ZM5265.71 461.006V457.006H5245.66V461.006V465.006H5265.71V461.006ZM5225.61 461.006V457.006H5205.56V461.006V465.006H5225.61V461.006ZM5185.52 461.006V457.006H5165.47V461.006V465.006H5185.52V461.006ZM5145.42 461.006V457.006H5125.37V461.006V465.006H5145.42V461.006ZM5105.32 461.006V457.006H5085.28V461.006V465.006H5105.32V461.006ZM5065.23 461.006V457.006H5045.18V461.006V465.006H5065.23V461.006ZM5025.13 461.006V457.006H5005.08V461.006V465.006H5025.13V461.006ZM4985.04 461.006V457.006H4964.99V461.006V465.006H4985.04V461.006ZM4944.94 461.006V457.006H4924.89V461.006V465.006H4944.94V461.006ZM4904.84 461.006V457.006H4884.8V461.006V465.006H4904.84V461.006ZM4864.75 461.006V457.006H4844.7V461.006V465.006H4864.75V461.006ZM4824.65 461.006V457.006H4804.6V461.006V465.006H4824.65V461.006ZM4784.56 461.006V457.006H4764.51V461.006V465.006H4784.56V461.006ZM4744.46 461.006V457.006H4724.41V461.006V465.006H4744.46V461.006ZM4704.37 461.006V457.006H4684.32V461.006V465.006H4704.37V461.006ZM4664.27 461.006V457.006H4644.22V461.006V465.006H4664.27V461.006ZM4624.17 461.006V457.006H4604.13V461.006V465.006H4624.17V461.006ZM4584.08 461.006V457.006H4564.03V461.006V465.006H4584.08V461.006ZM4543.98 461.006V457.006H4523.94V461.006V465.006H4543.98V461.006ZM4503.89 461.006V457.006H4483.84V461.006V465.006H4503.89V461.006ZM4463.79 461.006V457.006H4443.74V461.006V465.006H4463.79V461.006ZM4423.7 461.006V457.006H4403.65V461.006V465.006H4423.7V461.006ZM4383.6 461.006V457.006H4363.55V461.006V465.006H4383.6V461.006ZM4343.5 461.006V457.006H4323.46V461.006V465.006H4343.5V461.006ZM4303.41 461.006V457.006H4283.36V461.006V465.006H4303.41V461.006ZM4263.31 461.006V457.006H4243.27V461.006V465.006H4263.31V461.006ZM4223.22 461.006V457.006H4203.17V461.006V465.006H4223.22V461.006ZM4183.12 461.006V457.006H4163.07V461.006V465.006H4183.12V461.006ZM4143.03 461.006V457.006H4122.98V461.006V465.006H4143.03V461.006ZM4102.93 461.006V457.006H4082.88V461.006V465.006H4102.93V461.006ZM4062.83 461.006V457.006H4042.79V461.006V465.006H4062.83V461.006ZM4022.74 461.006V457.006H4002.69V461.006V465.006H4022.74V461.006ZM3982.64 461.006V457.006H3962.6V461.006V465.006H3982.64V461.006ZM3942.55 461.006V457.006H3922.5V461.006V465.006H3942.55V461.006ZM3902.45 461.006V457.006H3882.4V461.006V465.006H3902.45V461.006ZM3862.36 461.006V457.006H3842.31V461.006V465.006H3862.36V461.006ZM3822.26 461.006V457.006H3802.21V461.006V465.006H3822.26V461.006ZM3782.16 461.006V457.006H3762.12V461.006V465.006H3782.16V461.006ZM3742.07 461.006V457.006H3722.02V461.006V465.006H3742.07V461.006ZM3701.97 461.006V457.006H3681.93V461.006V465.006H3701.97V461.006ZM3661.88 461.006V457.006H3641.83V461.006V465.006H3661.88V461.006ZM3621.78 461.006V457.006H3601.73V461.006V465.006H3621.78V461.006ZM3581.69 461.006V457.006H3561.64V461.006V465.006H3581.69V461.006ZM3541.59 461.006V457.006H3521.54V461.006V465.006H3541.59V461.006ZM3501.49 461.006V457.006H3481.45V461.006V465.006H3501.49V461.006ZM3461.4 461.006V457.006H3441.35V461.006V465.006H3461.4V461.006ZM3421.3 461.006V457.006H3401.26V461.006V465.006H3421.3V461.006ZM3381.21 461.006V457.006H3361.16V461.006V465.006H3381.21V461.006ZM3341.11 461.006V457.006H3321.06V461.006V465.006H3341.11V461.006ZM3301.02 461.006V457.006H3280.97V461.006V465.006H3301.02V461.006ZM3260.92 461.006V457.006H3240.87V461.006V465.006H3260.92V461.006ZM3220.82 461.006V457.006H3200.78V461.006V465.006H3220.82V461.006ZM3180.73 461.006V457.006H3160.68V461.006V465.006H3180.73V461.006ZM3140.63 461.006V457.006H3120.59V461.006V465.006H3140.63V461.006ZM3100.54 461.006V457.006H3080.49V461.006V465.006H3100.54V461.006ZM3060.44 461.006V457.006H3040.39V461.006V465.006H3060.44V461.006ZM3020.35 461.006V457.006H3000.3V461.006V465.006H3020.35V461.006ZM2980.25 461.006V457.006H2960.2V461.006V465.006H2980.25V461.006ZM2940.15 461.006V457.006H2920.11V461.006V465.006H2940.15V461.006ZM2900.06 461.006V457.006H2880.01V461.006V465.006H2900.06V461.006ZM2859.96 461.006V457.006H2839.92V461.006V465.006H2859.96V461.006ZM2819.87 461.006V457.006H2799.82V461.006V465.006H2819.87V461.006ZM2779.77 461.006V457.006H2759.72V461.006V465.006H2779.77V461.006ZM2739.68 461.006V457.006H2719.63V461.006V465.006H2739.68V461.006ZM2699.58 461.006V457.006H2679.53V461.006V465.006H2699.58V461.006ZM2659.48 461.006V457.006H2639.44V461.006V465.006H2659.48V461.006ZM2619.39 461.006V457.006H2599.34V461.006V465.006H2619.39V461.006ZM2579.29 461.006V457.006H2559.25V461.006V465.006H2579.29V461.006ZM2539.2 461.006V457.006H2519.15V461.006V465.006H2539.2V461.006ZM2499.1 461.006V457.006H2479.05V461.006V465.006H2499.1V461.006ZM2459.01 461.006V457.006H2438.96V461.006V465.006H2459.01V461.006ZM2418.91 461.006V457.006H2398.86V461.006V465.006H2418.91V461.006ZM2378.81 461.006V457.006H2358.77V461.006V465.006H2378.81V461.006ZM2338.72 461.006V457.006H2318.67V461.006V465.006H2338.72V461.006ZM2298.62 461.006V457.006H2278.58V461.006V465.006H2298.62V461.006ZM2258.53 461.006V457.006H2238.48V461.006V465.006H2258.53V461.006ZM2218.43 461.006V457.006H2198.38V461.006V465.006H2218.43V461.006ZM2178.34 461.006V457.006H2158.29V461.006V465.006H2178.34V461.006ZM2138.24 461.006V457.006H2118.19V461.006V465.006H2138.24V461.006ZM2098.15 461.006V457.006H2078.1V461.006V465.006H2098.15V461.006ZM2058.05 461.006V457.006H2038V461.006V465.006H2058.05V461.006ZM2017.95 461.006V457.006H1997.91V461.006V465.006H2017.95V461.006ZM1977.86 461.006V457.006H1957.81V461.006V465.006H1977.86V461.006ZM1937.76 461.006V457.006H1917.71V461.006V465.006H1937.76V461.006ZM1897.67 461.006V457.006H1877.62V461.006V465.006H1897.67V461.006ZM1857.57 461.006V457.006H1837.52V461.006V465.006H1857.57V461.006ZM1817.47 461.006V457.006H1797.43V461.006V465.006H1817.47V461.006ZM1777.38 461.006V457.006H1757.33V461.006V465.006H1777.38V461.006ZM1737.28 461.006V457.006H1717.24V461.006V465.006H1737.28V461.006ZM1697.19 461.006V457.006H1677.14V461.006V465.006H1697.19V461.006ZM1657.09 461.006V457.006H1637.04V461.006V465.006H1657.09V461.006ZM1617 461.006V457.006H1596.95V461.006V465.006H1617V461.006ZM1576.9 461.006V457.006H1556.85V461.006V465.006H1576.9V461.006ZM1536.81 461.006V457.006H1516.76V461.006V465.006H1536.81V461.006ZM1496.71 461.006V457.006H1476.66V461.006V465.006H1496.71V461.006ZM1456.61 461.006V457.006H1436.57V461.006V465.006H1456.61V461.006ZM1416.52 461.006V457.006H1396.47V461.006V465.006H1416.52V461.006ZM1376.42 461.006V457.006H1356.37V461.006V465.006H1376.42V461.006ZM1336.33 461.006V457.006H1316.28V461.006V465.006H1336.33V461.006ZM1296.23 461.006V457.006H1276.18V461.006V465.006H1296.23V461.006ZM1256.14 461.006V457.006H1236.09V461.006V465.006H1256.14V461.006ZM1216.04 461.006V457.006H1206V461.006V465.006H1216.04V461.006Z" fill="#9A9A9A"/>
</g>
<g id="GolfStatus Tag">
<g id="Front - Dark Tag">
<path id="Vector" d="M6011.04 4052.71C6011.04 4029.43 6029.71 4010.88 6052.98 4010.88C6062.88 4010.88 6071.28 4012.74 6079.12 4017.55C6081.3 4018.92 6081.78 4020.9 6080.49 4023.33L6079.32 4025.27C6078.07 4027.81 6076.09 4028.14 6073.54 4026.76C6064.57 4021.91 6059.04 4021.79 6052.94 4021.79C6036.57 4021.79 6023.44 4035.37 6023.44 4052.55C6023.44 4067.99 6033.83 4083.07 6054.55 4083.07C6061.58 4083.07 6067.56 4081.33 6072.98 4077.89V4061.89H6054.8C6052.13 4061.89 6050.63 4060.27 6050.63 4057.64V4056.27C6050.63 4053.6 6052.13 4052.11 6054.8 4052.11H6080.01C6082.67 4052.11 6084.17 4053.6 6084.17 4056.27V4079.55C6084.17 4081.73 6083.24 4083.59 6080.61 4085.65C6071.4 4092.44 6061.38 4094.06 6054.03 4094.06C6029.02 4094.06 6011.08 4075.39 6011.08 4052.71" fill="white"/>
<path id="Vector_2" d="M6095.68 4052.47C6095.68 4029.55 6114.35 4010.88 6137.62 4010.88C6160.89 4010.88 6179.56 4029.55 6179.56 4052.47C6179.56 4075.39 6160.89 4094.06 6137.62 4094.06C6114.35 4094.06 6095.68 4075.39 6095.68 4052.47ZM6167.11 4052.47C6167.11 4035.09 6153.86 4021.83 6137.62 4021.83C6121.38 4021.83 6108.13 4035.09 6108.13 4052.47C6108.13 4069.85 6121.38 4083.11 6137.62 4083.11C6153.86 4083.11 6167.11 4069.85 6167.11 4052.47Z" fill="white"/>
<path id="Vector_3" d="M6193.33 4088.68V4016.34C6193.33 4013.67 6194.83 4012.17 6197.5 4012.17H6201.41C6204.08 4012.17 6205.58 4013.67 6205.58 4016.34V4082.82H6238.18C6240.85 4082.82 6242.42 4084.32 6242.42 4086.99V4088.73C6242.42 4091.39 6240.81 4092.89 6238.18 4092.89H6197.54C6194.87 4092.89 6193.37 4091.39 6193.37 4088.73" fill="white"/>
<path id="Vector_4" d="M6304.48 4016.29V4018.03C6304.48 4020.69 6302.98 4022.19 6300.32 4022.19H6265.09V4048.34H6295.27C6297.93 4048.34 6299.51 4049.84 6299.51 4052.5V4054C6299.51 4056.67 6297.89 4058.24 6295.27 4058.24H6265.09V4088.64C6265.09 4091.31 6263.59 4092.8 6260.93 4092.8H6257.01C6254.34 4092.8 6252.85 4091.31 6252.85 4088.64V4016.29C6252.85 4013.62 6254.34 4012.13 6257.01 4012.13H6300.32C6302.98 4012.13 6304.48 4013.62 6304.48 4016.29Z" fill="white"/>
<path id="Vector_5" d="M6312.52 4077.73C6311.39 4075.18 6312.76 4073.24 6315.27 4072.56L6318.62 4071.75C6321.17 4071.18 6322.54 4072.11 6323.79 4074.5C6326.66 4079.47 6332.76 4083.35 6340.84 4083.35C6351.22 4083.35 6357.53 4078.3 6357.53 4071.39C6357.53 4065.28 6352.48 4061.48 6345.89 4059.06L6333.93 4055.02C6318.74 4049.96 6315.07 4040.83 6315.07 4033.35C6315.07 4019.41 6327.27 4010.88 6341.2 4010.88C6353.89 4010.88 6362.86 4016.98 6366.54 4026.08C6367.59 4028.62 6366.29 4030.56 6363.79 4031.25L6360.92 4032.18C6358.38 4032.87 6356.76 4031.94 6355.63 4029.51C6352.96 4024.22 6348.03 4021.67 6341.37 4021.67C6333.77 4021.67 6327.43 4025.83 6327.43 4032.95C6327.43 4036.3 6328.48 4040.67 6337.69 4044.14L6349.65 4048.63C6363.22 4052.87 6369.45 4061.89 6369.45 4070.54C6369.45 4085.05 6357.93 4094.02 6341.12 4094.02C6326.86 4094.02 6316.72 4087.11 6312.56 4077.65" fill="white"/>
<path id="Vector_6" d="M6441.84 4016.29V4018.03C6441.84 4020.69 6440.35 4022.19 6437.68 4022.19H6415.22V4088.68C6415.22 4091.35 6413.72 4092.84 6411.06 4092.84H6407.26C6404.59 4092.84 6403.1 4091.35 6403.1 4088.68V4022.19H6380.63C6378.09 4022.19 6376.47 4020.69 6376.47 4018.03V4016.29C6376.47 4013.62 6378.09 4012.13 6380.63 4012.13H6437.64C6440.31 4012.13 6441.8 4013.62 6441.8 4016.29" fill="white"/>
<path id="Vector_7" d="M6438.53 4087.95L6466.29 4015.48C6467.1 4013.3 6468.83 4012.13 6471.14 4012.13H6477.8C6480.23 4012.13 6481.84 4013.3 6482.65 4015.48L6510.65 4087.95C6511.7 4090.82 6510.53 4092.8 6507.42 4092.8H6503.74C6501.32 4092.8 6499.7 4091.75 6498.77 4089.45L6493.8 4076.31H6455.34L6450.37 4089.45C6449.44 4091.75 6447.95 4092.8 6445.52 4092.8H6441.72C6438.61 4092.8 6437.36 4090.86 6438.49 4087.95M6490.33 4066.41L6474.45 4024.01L6458.77 4066.41H6490.33Z" fill="white"/>
<path id="Vector_8" d="M6572.46 4016.29V4018.03C6572.46 4020.69 6570.97 4022.19 6568.3 4022.19H6545.84V4088.68C6545.84 4091.35 6544.34 4092.84 6541.68 4092.84H6537.88C6535.21 4092.84 6533.72 4091.35 6533.72 4088.68V4022.19H6511.25C6508.71 4022.19 6507.09 4020.69 6507.09 4018.03V4016.29C6507.09 4013.62 6508.71 4012.13 6511.25 4012.13H6568.26C6570.93 4012.13 6572.42 4013.62 6572.42 4016.29" fill="white"/>
<path id="Vector_9" d="M6584.42 4062.85V4016.29C6584.42 4013.62 6586.04 4012.13 6588.58 4012.13H6592.5C6595.17 4012.13 6596.66 4013.62 6596.66 4016.29V4062.85C6596.66 4076.43 6605.87 4083.14 6616.46 4083.14C6627.04 4083.14 6636.38 4076.47 6636.38 4062.85V4016.29C6636.38 4013.62 6637.87 4012.13 6640.54 4012.13H6644.34C6647 4012.13 6648.62 4013.62 6648.62 4016.29V4062.85C6648.62 4083.34 6633.87 4094.09 6616.5 4094.09C6599.13 4094.09 6584.5 4083.38 6584.5 4062.85" fill="white"/>
<path id="Vector_10" d="M6661.22 4077.73C6660.09 4075.18 6661.47 4073.24 6663.97 4072.56L6667.32 4071.75C6669.87 4071.18 6671.24 4072.11 6672.49 4074.5C6675.36 4079.47 6681.46 4083.35 6689.54 4083.35C6699.93 4083.35 6706.23 4078.3 6706.23 4071.39C6706.23 4065.28 6701.18 4061.48 6694.59 4059.06L6682.64 4055.02C6667.44 4049.96 6663.77 4040.83 6663.77 4033.35C6663.77 4019.41 6675.97 4010.88 6689.91 4010.88C6702.59 4010.88 6711.56 4016.98 6715.24 4026.08C6716.29 4028.62 6715 4030.56 6712.49 4031.25L6709.62 4032.18C6707.08 4032.87 6705.46 4031.94 6704.33 4029.51C6701.66 4024.22 6696.74 4021.67 6690.07 4021.67C6682.47 4021.67 6676.13 4025.83 6676.13 4032.95C6676.13 4036.3 6677.18 4040.67 6686.39 4044.14L6698.35 4048.63C6711.93 4052.87 6718.15 4061.89 6718.15 4070.54C6718.15 4085.05 6706.63 4094.02 6689.83 4094.02C6675.57 4094.02 6665.42 4087.11 6661.26 4077.65" fill="white"/>
<path id="Vector_11" d="M6432.59 3978.94V3944.42H6440.03C6441.4 3944.42 6442.57 3944.59 6443.62 3944.95C6444.67 3945.31 6445.6 3945.92 6446.45 3946.85C6447.3 3947.74 6447.87 3948.83 6448.19 3950.04C6448.51 3951.26 6448.67 3952.91 6448.67 3954.97C6448.67 3956.51 6448.59 3957.84 6448.39 3958.89C6448.23 3959.95 6447.83 3960.96 6447.26 3961.89C6446.57 3963.02 6445.68 3963.91 6444.55 3964.51C6443.42 3965.16 6441.93 3965.44 6440.11 3965.44H6437.6V3978.94H6432.67H6432.59ZM6437.52 3949.07V3960.79H6439.91C6440.92 3960.79 6441.68 3960.63 6442.25 3960.35C6442.82 3960.07 6443.22 3959.66 6443.46 3959.14C6443.7 3958.65 6443.87 3958.05 6443.91 3957.36C6443.95 3956.63 6443.99 3955.86 6443.99 3954.97C6443.99 3954.17 6443.99 3953.4 6443.95 3952.67C6443.95 3951.94 6443.79 3951.3 6443.5 3950.77C6443.26 3950.2 6442.86 3949.8 6442.33 3949.52C6441.81 3949.23 6441.08 3949.07 6440.11 3949.07H6437.52Z" fill="white"/>
<path id="Vector_12" d="M6462.45 3952.6C6462.45 3951.22 6462.69 3949.97 6463.18 3948.92C6463.66 3947.87 6464.31 3946.98 6465.12 3946.25C6465.88 3945.56 6466.77 3945.04 6467.74 3944.71C6468.71 3944.35 6469.72 3944.19 6470.73 3944.19C6471.74 3944.19 6472.71 3944.35 6473.72 3944.71C6474.69 3945.08 6475.62 3945.6 6476.43 3946.25C6477.2 3946.98 6477.84 3947.87 6478.33 3948.92C6478.81 3949.97 6479.05 3951.22 6479.05 3952.6V3970.82C6479.05 3972.28 6478.81 3973.53 6478.33 3974.54C6477.84 3975.55 6477.2 3976.44 6476.43 3977.13C6475.62 3977.86 6474.73 3978.38 6473.72 3978.75C6472.71 3979.11 6471.74 3979.27 6470.73 3979.27C6469.72 3979.27 6468.75 3979.11 6467.74 3978.75C6466.77 3978.38 6465.88 3977.86 6465.12 3977.13C6464.31 3976.44 6463.66 3975.59 6463.18 3974.54C6462.69 3973.49 6462.45 3972.28 6462.45 3970.82V3952.6ZM6467.38 3970.82C6467.38 3972.04 6467.7 3972.89 6468.39 3973.45C6469.03 3974.02 6469.84 3974.3 6470.73 3974.3C6471.62 3974.3 6472.43 3974.02 6473.07 3973.45C6473.72 3972.89 6474.08 3972 6474.08 3970.82V3952.6C6474.08 3951.38 6473.76 3950.53 6473.07 3949.97C6472.43 3949.4 6471.62 3949.12 6470.73 3949.12C6469.84 3949.12 6469.03 3949.4 6468.39 3949.97C6467.74 3950.53 6467.38 3951.42 6467.38 3952.6V3970.82Z" fill="white"/>
<path id="Vector_13" d="M6518.89 3944.42L6513.76 3978.94H6509.11L6505.32 3956.55H6505.23L6501.52 3978.94H6496.87L6491.74 3944.42H6496.99L6499.46 3966.33H6499.54L6503.42 3944.42H6507.21L6511.25 3966.9H6511.33L6513.72 3944.42H6518.97H6518.89Z" fill="white"/>
<path id="Vector_14" d="M6532.38 3978.94V3944.42H6547.13V3949.07H6537.35V3959.22H6545.88V3963.87H6537.35V3974.01H6547.13V3978.94H6532.38Z" fill="white"/>
<path id="Vector_15" d="M6560.75 3978.94V3944.42H6568.71C6574.52 3944.42 6577.43 3947.82 6577.43 3954.57C6577.43 3956.59 6577.11 3958.33 6576.5 3959.74C6575.86 3961.16 6574.77 3962.33 6573.19 3963.18L6578.52 3978.94H6573.27L6568.66 3964.19H6565.72V3978.94H6560.79H6560.75ZM6565.72 3949.07V3959.82H6568.54C6569.43 3959.82 6570.12 3959.7 6570.64 3959.46C6571.17 3959.22 6571.57 3958.85 6571.86 3958.41C6572.1 3957.96 6572.3 3957.4 6572.38 3956.75C6572.46 3956.11 6572.54 3955.34 6572.54 3954.45C6572.54 3953.56 6572.5 3952.79 6572.38 3952.14C6572.3 3951.5 6572.1 3950.89 6571.82 3950.41C6571.21 3949.52 6570.04 3949.03 6568.34 3949.03H6565.76L6565.72 3949.07Z" fill="white"/>
<path id="Vector_16" d="M6591.86 3978.94V3944.42H6606.6V3949.07H6596.82V3959.22H6605.35V3963.87H6596.82V3974.01H6606.6V3978.94H6591.86Z" fill="white"/>
<path id="Vector_17" d="M6620.22 3978.94V3944.42H6627.53C6630.36 3944.42 6632.54 3945.19 6633.99 3946.77C6635.45 3948.3 6636.22 3950.53 6636.22 3953.36V3969.52C6636.22 3972.76 6635.45 3975.14 6633.87 3976.68C6632.3 3978.21 6630.03 3978.98 6627.13 3978.98H6620.26L6620.22 3978.94ZM6625.15 3949.07V3974.29H6627.41C6628.78 3974.29 6629.79 3973.93 6630.36 3973.24C6630.92 3972.56 6631.25 3971.46 6631.25 3969.97V3953.32C6631.25 3951.94 6630.96 3950.89 6630.44 3950.16C6629.87 3949.44 6628.9 3949.03 6627.45 3949.03H6625.19L6625.15 3949.07Z" fill="white"/>
<path id="Vector_18" d="M6670.72 3978.94V3944.42H6677.95C6679.53 3944.42 6680.9 3944.67 6681.99 3945.15C6683.12 3945.64 6684.01 3946.28 6684.74 3947.09C6685.47 3947.9 6685.95 3948.83 6686.27 3949.88C6686.6 3950.93 6686.72 3952.02 6686.72 3953.16V3954.41C6686.72 3955.34 6686.64 3956.15 6686.52 3956.79C6686.35 3957.44 6686.15 3958.01 6685.87 3958.49C6685.3 3959.38 6684.5 3960.19 6683.36 3960.83C6684.54 3961.4 6685.38 3962.21 6685.95 3963.26C6686.52 3964.31 6686.76 3965.77 6686.76 3967.62V3969.56C6686.76 3972.6 6686.03 3974.94 6684.54 3976.56C6683.08 3978.17 6680.7 3978.98 6677.47 3978.98H6670.72V3978.94ZM6675.65 3949.07V3958.57H6677.87C6679.53 3958.57 6680.62 3958.17 6681.18 3957.32C6681.75 3956.47 6682.03 3955.3 6682.03 3953.72C6682.03 3952.14 6681.71 3951.01 6681.1 3950.25C6680.46 3949.48 6679.32 3949.07 6677.67 3949.07H6675.65ZM6675.65 3962.94V3974.01H6677.79C6678.8 3974.01 6679.57 3973.85 6680.13 3973.57C6680.7 3973.28 6681.14 3972.88 6681.43 3972.35C6681.71 3971.83 6681.91 3971.22 6681.95 3970.49C6682.03 3969.77 6682.03 3969 6682.03 3968.15C6682.03 3967.3 6681.99 3966.53 6681.87 3965.89C6681.79 3965.24 6681.59 3964.67 6681.3 3964.23C6680.98 3963.79 6680.54 3963.46 6680.01 3963.22C6679.49 3962.98 6678.72 3962.9 6677.83 3962.9H6675.65V3962.94Z" fill="white"/>
<path id="Vector_19" d="M6706.39 3978.94V3964.35L6699.61 3944.42H6704.86L6708.82 3958.17H6708.9L6712.86 3944.42H6718.11L6711.32 3964.35V3978.94H6706.39Z" fill="white"/>
<g id="Layer_1">
<path id="Vector_20" d="M6933.73 4120.01H6797.62C6779.76 4120.01 6765.21 4105.46 6765.21 4087.59V3951.42C6765.21 3933.56 6779.76 3919.01 6797.62 3919.01H6933.73C6951.59 3919.01 6966.13 3933.56 6966.13 3951.42V4087.59C6966.13 4105.46 6951.59 4120.01 6933.73 4120.01ZM6797.66 3922.76C6781.86 3922.76 6768.97 3935.62 6768.97 3951.42V4087.59C6768.97 4103.39 6781.82 4116.25 6797.66 4116.25H6933.77C6949.57 4116.25 6962.46 4103.39 6962.46 4087.59V3951.42C6962.46 3935.62 6949.61 3922.76 6933.77 3922.76H6797.66Z" fill="white"/>
<path id="Vector_21" d="M6865.69 3945.76C6833.78 3945.76 6807.84 3971.91 6807.84 4004.09C6807.84 4015.48 6811.11 4026.52 6817.29 4036.02L6817.45 4036.26C6818.14 4037.31 6818.91 4038.4 6819.68 4039.41L6859.07 4090.54C6859.07 4090.54 6859.07 4090.54 6859.07 4090.58L6861.05 4093.29V4090.5C6861.05 4070.78 6855.11 4063.02 6853.01 4059.78C6852.6 4059.14 6852.72 4058.04 6852.68 4057.12C6852.68 4056.63 6853.09 4056.27 6853.53 4056.31C6857.49 4057.36 6861.57 4057.88 6865.73 4057.88C6869.89 4057.88 6874.02 4057.36 6877.97 4056.31C6878.38 4056.31 6878.7 4056.67 6878.7 4057.12C6878.7 4058 6878.82 4059.14 6878.38 4059.78C6876.28 4063.02 6870.34 4070.78 6870.34 4090.5V4093.09L6873.13 4089.45L6911.35 4039.78C6919.31 4029.47 6923.51 4017.1 6923.51 4004.05C6923.51 3971.91 6897.57 3945.72 6865.65 3945.72L6865.69 3945.76ZM6894.14 4042C6885.81 4048.14 6876 4051.38 6865.73 4051.38C6850.38 4051.38 6835.8 4043.9 6826.75 4031.41C6811.07 4009.79 6815.8 3979.31 6837.25 3963.51C6845.57 3957.36 6855.39 3954.13 6865.65 3954.13C6881.01 3954.13 6895.59 3961.61 6904.64 3974.1C6920.32 3995.72 6915.59 4026.2 6894.14 4042Z" fill="white"/>
</g>
</g>
<g id="Front - Light Tag">
<path id="Vector_22" d="M6011.04 4048.67C6011.04 4025.39 6029.71 4006.84 6052.98 4006.84C6062.88 4006.84 6071.28 4008.7 6079.12 4013.51C6081.3 4014.88 6081.78 4016.86 6080.49 4019.29L6079.32 4021.23C6078.07 4023.77 6076.09 4024.1 6073.54 4022.72C6064.57 4017.87 6059.04 4017.75 6052.94 4017.75C6036.57 4017.75 6023.44 4031.33 6023.44 4048.51C6023.44 4063.95 6033.83 4079.02 6054.55 4079.02C6061.58 4079.02 6067.56 4077.29 6072.98 4073.85V4057.84H6054.8C6052.13 4057.84 6050.63 4056.23 6050.63 4053.6V4052.23C6050.63 4049.56 6052.13 4048.06 6054.8 4048.06H6080.01C6082.67 4048.06 6084.17 4049.56 6084.17 4052.23V4075.51C6084.17 4077.69 6083.24 4079.55 6080.61 4081.61C6071.4 4088.4 6061.38 4090.02 6054.03 4090.02C6029.02 4090.02 6011.08 4071.34 6011.08 4048.67" fill="black"/>
<path id="Vector_23" d="M6095.68 4048.43C6095.68 4025.51 6114.35 4006.84 6137.62 4006.84C6160.89 4006.84 6179.56 4025.51 6179.56 4048.43C6179.56 4071.34 6160.89 4090.02 6137.62 4090.02C6114.35 4090.02 6095.68 4071.34 6095.68 4048.43ZM6167.11 4048.43C6167.11 4031.05 6153.86 4017.79 6137.62 4017.79C6121.38 4017.79 6108.13 4031.05 6108.13 4048.43C6108.13 4065.81 6121.38 4079.06 6137.62 4079.06C6153.86 4079.06 6167.11 4065.81 6167.11 4048.43Z" fill="black"/>
<path id="Vector_24" d="M6193.33 4084.64V4012.29C6193.33 4009.63 6194.83 4008.13 6197.5 4008.13H6201.41C6204.08 4008.13 6205.58 4009.63 6205.58 4012.29V4078.78H6238.18C6240.85 4078.78 6242.42 4080.28 6242.42 4082.95V4084.68C6242.42 4087.35 6240.81 4088.85 6238.18 4088.85H6197.54C6194.87 4088.85 6193.37 4087.35 6193.37 4084.68" fill="black"/>
<path id="Vector_25" d="M6304.48 4012.25V4013.99C6304.48 4016.65 6302.98 4018.15 6300.32 4018.15H6265.09V4044.3H6295.27C6297.93 4044.3 6299.51 4045.79 6299.51 4048.46V4049.96C6299.51 4052.62 6297.89 4054.2 6295.27 4054.2H6265.09V4084.6C6265.09 4087.26 6263.59 4088.76 6260.93 4088.76H6257.01C6254.34 4088.76 6252.85 4087.26 6252.85 4084.6V4012.25C6252.85 4009.58 6254.34 4008.08 6257.01 4008.08H6300.32C6302.98 4008.08 6304.48 4009.58 6304.48 4012.25Z" fill="black"/>
<path id="Vector_26" d="M6312.52 4073.69C6311.39 4071.14 6312.76 4069.2 6315.27 4068.52L6318.62 4067.71C6321.17 4067.14 6322.54 4068.07 6323.79 4070.46C6326.66 4075.43 6332.76 4079.31 6340.84 4079.31C6351.22 4079.31 6357.53 4074.25 6357.53 4067.34C6357.53 4061.24 6352.48 4057.44 6345.89 4055.02L6333.93 4050.97C6318.74 4045.92 6315.07 4036.79 6315.07 4029.31C6315.07 4015.37 6327.27 4006.84 6341.2 4006.84C6353.89 4006.84 6362.86 4012.94 6366.54 4022.03C6367.59 4024.58 6366.29 4026.52 6363.79 4027.21L6360.92 4028.14C6358.38 4028.82 6356.76 4027.89 6355.63 4025.47C6352.96 4020.17 6348.03 4017.63 6341.37 4017.63C6333.77 4017.63 6327.43 4021.79 6327.43 4028.91C6327.43 4032.26 6328.48 4036.63 6337.69 4040.1L6349.65 4044.59C6363.22 4048.83 6369.45 4057.84 6369.45 4066.49C6369.45 4081 6357.93 4089.98 6341.12 4089.98C6326.86 4089.98 6316.72 4083.07 6312.56 4073.61" fill="black"/>
<path id="Vector_27" d="M6441.84 4012.25V4013.99C6441.84 4016.65 6440.35 4018.15 6437.68 4018.15H6415.22V4084.64C6415.22 4087.3 6413.72 4088.8 6411.06 4088.8H6407.26C6404.59 4088.8 6403.1 4087.3 6403.1 4084.64V4018.15H6380.63C6378.09 4018.15 6376.47 4016.65 6376.47 4013.99V4012.25C6376.47 4009.58 6378.09 4008.08 6380.63 4008.08H6437.64C6440.31 4008.08 6441.8 4009.58 6441.8 4012.25" fill="black"/>
<path id="Vector_28" d="M6438.53 4083.91L6466.29 4011.44C6467.1 4009.26 6468.83 4008.08 6471.14 4008.08H6477.8C6480.23 4008.08 6481.84 4009.26 6482.65 4011.44L6510.65 4083.91C6511.7 4086.78 6510.53 4088.76 6507.42 4088.76H6503.74C6501.32 4088.76 6499.7 4087.71 6498.77 4085.4L6493.8 4072.27H6455.34L6450.37 4085.4C6449.44 4087.71 6447.95 4088.76 6445.52 4088.76H6441.72C6438.61 4088.76 6437.36 4086.82 6438.49 4083.91M6490.33 4062.37L6474.45 4019.97L6458.77 4062.37H6490.33Z" fill="black"/>
<path id="Vector_29" d="M6572.46 4012.25V4013.99C6572.46 4016.65 6570.97 4018.15 6568.3 4018.15H6545.84V4084.64C6545.84 4087.3 6544.34 4088.8 6541.68 4088.8H6537.88C6535.21 4088.8 6533.72 4087.3 6533.72 4084.64V4018.15H6511.25C6508.71 4018.15 6507.09 4016.65 6507.09 4013.99V4012.25C6507.09 4009.58 6508.71 4008.08 6511.25 4008.08H6568.26C6570.93 4008.08 6572.42 4009.58 6572.42 4012.25" fill="black"/>
<path id="Vector_30" d="M6584.42 4058.81V4012.25C6584.42 4009.58 6586.04 4008.08 6588.58 4008.08H6592.5C6595.17 4008.08 6596.66 4009.58 6596.66 4012.25V4058.81C6596.66 4072.39 6605.87 4079.1 6616.46 4079.1C6627.04 4079.1 6636.38 4072.43 6636.38 4058.81V4012.25C6636.38 4009.58 6637.87 4008.08 6640.54 4008.08H6644.34C6647 4008.08 6648.62 4009.58 6648.62 4012.25V4058.81C6648.62 4079.3 6633.87 4090.05 6616.5 4090.05C6599.13 4090.05 6584.5 4079.34 6584.5 4058.81" fill="black"/>
<path id="Vector_31" d="M6661.22 4073.69C6660.09 4071.14 6661.47 4069.2 6663.97 4068.52L6667.32 4067.71C6669.87 4067.14 6671.24 4068.07 6672.49 4070.46C6675.36 4075.43 6681.46 4079.31 6689.54 4079.31C6699.93 4079.31 6706.23 4074.25 6706.23 4067.34C6706.23 4061.24 6701.18 4057.44 6694.59 4055.02L6682.64 4050.97C6667.44 4045.92 6663.77 4036.79 6663.77 4029.31C6663.77 4015.37 6675.97 4006.84 6689.91 4006.84C6702.59 4006.84 6711.56 4012.94 6715.24 4022.03C6716.29 4024.58 6715 4026.52 6712.49 4027.21L6709.62 4028.14C6707.08 4028.82 6705.46 4027.89 6704.33 4025.47C6701.66 4020.17 6696.74 4017.63 6690.07 4017.63C6682.47 4017.63 6676.13 4021.79 6676.13 4028.91C6676.13 4032.26 6677.18 4036.63 6686.39 4040.1L6698.35 4044.59C6711.93 4048.83 6718.15 4057.84 6718.15 4066.49C6718.15 4081 6706.63 4089.98 6689.83 4089.98C6675.57 4089.98 6665.42 4083.07 6661.26 4073.61" fill="black"/>
<path id="Vector_32" d="M6432.59 3974.9V3940.38H6440.03C6441.4 3940.38 6442.57 3940.54 6443.62 3940.91C6444.67 3941.27 6445.6 3941.88 6446.45 3942.81C6447.3 3943.7 6447.87 3944.79 6448.19 3946C6448.51 3947.21 6448.67 3948.87 6448.67 3950.93C6448.67 3952.47 6448.59 3953.8 6448.39 3954.85C6448.23 3955.9 6447.83 3956.91 6447.26 3957.84C6446.57 3958.98 6445.68 3959.86 6444.55 3960.47C6443.42 3961.12 6441.93 3961.4 6440.11 3961.4H6437.6V3974.9H6432.67H6432.59ZM6437.52 3945.03V3956.75H6439.91C6440.92 3956.75 6441.68 3956.59 6442.25 3956.31C6442.82 3956.02 6443.22 3955.62 6443.46 3955.1C6443.7 3954.61 6443.87 3954 6443.91 3953.32C6443.95 3952.59 6443.99 3951.82 6443.99 3950.93C6443.99 3950.12 6443.99 3949.36 6443.95 3948.63C6443.95 3947.9 6443.79 3947.25 6443.5 3946.73C6443.26 3946.16 6442.86 3945.76 6442.33 3945.48C6441.81 3945.19 6441.08 3945.03 6440.11 3945.03H6437.52Z" fill="black"/>
<path id="Vector_33" d="M6462.45 3948.55C6462.45 3947.18 6462.69 3945.93 6463.18 3944.88C6463.66 3943.82 6464.31 3942.94 6465.12 3942.21C6465.88 3941.52 6466.77 3941 6467.74 3940.67C6468.71 3940.31 6469.72 3940.15 6470.73 3940.15C6471.74 3940.15 6472.71 3940.31 6473.72 3940.67C6474.69 3941.04 6475.62 3941.56 6476.43 3942.21C6477.2 3942.94 6477.84 3943.82 6478.33 3944.88C6478.81 3945.93 6479.05 3947.18 6479.05 3948.55V3966.78C6479.05 3968.24 6478.81 3969.49 6478.33 3970.5C6477.84 3971.51 6477.2 3972.4 6476.43 3973.09C6475.62 3973.81 6474.73 3974.34 6473.72 3974.7C6472.71 3975.07 6471.74 3975.23 6470.73 3975.23C6469.72 3975.23 6468.75 3975.07 6467.74 3974.7C6466.77 3974.34 6465.88 3973.81 6465.12 3973.09C6464.31 3972.4 6463.66 3971.55 6463.18 3970.5C6462.69 3969.45 6462.45 3968.24 6462.45 3966.78V3948.55ZM6467.38 3966.78C6467.38 3967.99 6467.7 3968.84 6468.39 3969.41C6469.03 3969.98 6469.84 3970.26 6470.73 3970.26C6471.62 3970.26 6472.43 3969.98 6473.07 3969.41C6473.72 3968.84 6474.08 3967.95 6474.08 3966.78V3948.55C6474.08 3947.34 6473.76 3946.49 6473.07 3945.93C6472.43 3945.36 6471.62 3945.08 6470.73 3945.08C6469.84 3945.08 6469.03 3945.36 6468.39 3945.93C6467.74 3946.49 6467.38 3947.38 6467.38 3948.55V3966.78Z" fill="black"/>
<path id="Vector_34" d="M6518.89 3940.38L6513.76 3974.9H6509.11L6505.32 3952.51H6505.23L6501.52 3974.9H6496.87L6491.74 3940.38H6496.99L6499.46 3962.29H6499.54L6503.42 3940.38H6507.21L6511.25 3962.86H6511.33L6513.72 3940.38H6518.97H6518.89Z" fill="black"/>
<path id="Vector_35" d="M6532.38 3974.9V3940.38H6547.13V3945.03H6537.35V3955.18H6545.88V3959.82H6537.35V3969.97H6547.13V3974.9H6532.38Z" fill="black"/>
<path id="Vector_36" d="M6560.75 3974.9V3940.38H6568.71C6574.52 3940.38 6577.43 3943.78 6577.43 3950.53C6577.43 3952.55 6577.11 3954.29 6576.5 3955.7C6575.86 3957.12 6574.77 3958.29 6573.19 3959.14L6578.52 3974.9H6573.27L6568.66 3960.15H6565.72V3974.9H6560.79H6560.75ZM6565.72 3945.03V3955.78H6568.54C6569.43 3955.78 6570.12 3955.66 6570.64 3955.42C6571.17 3955.18 6571.57 3954.81 6571.86 3954.37C6572.1 3953.92 6572.3 3953.36 6572.38 3952.71C6572.46 3952.06 6572.54 3951.3 6572.54 3950.41C6572.54 3949.52 6572.5 3948.75 6572.38 3948.1C6572.3 3947.46 6572.1 3946.85 6571.82 3946.36C6571.21 3945.48 6570.04 3944.99 6568.34 3944.99H6565.76L6565.72 3945.03Z" fill="black"/>
<path id="Vector_37" d="M6591.86 3974.9V3940.38H6606.6V3945.03H6596.82V3955.18H6605.35V3959.82H6596.82V3969.97H6606.6V3974.9H6591.86Z" fill="black"/>
<path id="Vector_38" d="M6620.22 3974.9V3940.38H6627.53C6630.36 3940.38 6632.54 3941.15 6633.99 3942.73C6635.45 3944.26 6636.22 3946.49 6636.22 3949.32V3965.48C6636.22 3968.72 6635.45 3971.1 6633.87 3972.64C6632.3 3974.17 6630.03 3974.94 6627.13 3974.94H6620.26L6620.22 3974.9ZM6625.15 3945.03V3970.25H6627.41C6628.78 3970.25 6629.79 3969.89 6630.36 3969.2C6630.92 3968.51 6631.25 3967.42 6631.25 3965.93V3949.27C6631.25 3947.9 6630.96 3946.85 6630.44 3946.12C6629.87 3945.39 6628.9 3944.99 6627.45 3944.99H6625.19L6625.15 3945.03Z" fill="black"/>
<path id="Vector_39" d="M6670.72 3974.9V3940.38H6677.95C6679.53 3940.38 6680.9 3940.63 6681.99 3941.11C6683.12 3941.6 6684.01 3942.24 6684.74 3943.05C6685.47 3943.86 6685.95 3944.79 6686.27 3945.84C6686.6 3946.89 6686.72 3947.98 6686.72 3949.11V3950.37C6686.72 3951.3 6686.64 3952.1 6686.52 3952.75C6686.35 3953.4 6686.15 3953.96 6685.87 3954.45C6685.3 3955.34 6684.5 3956.15 6683.36 3956.79C6684.54 3957.36 6685.38 3958.17 6685.95 3959.22C6686.52 3960.27 6686.76 3961.72 6686.76 3963.58V3965.52C6686.76 3968.55 6686.03 3970.9 6684.54 3972.52C6683.08 3974.13 6680.7 3974.94 6677.47 3974.94H6670.72V3974.9ZM6675.65 3945.03V3954.53H6677.87C6679.53 3954.53 6680.62 3954.13 6681.18 3953.28C6681.75 3952.43 6682.03 3951.26 6682.03 3949.68C6682.03 3948.1 6681.71 3946.97 6681.1 3946.2C6680.46 3945.44 6679.32 3945.03 6677.67 3945.03H6675.65ZM6675.65 3958.89V3969.97H6677.79C6678.8 3969.97 6679.57 3969.81 6680.13 3969.52C6680.7 3969.24 6681.14 3968.84 6681.43 3968.31C6681.71 3967.79 6681.91 3967.18 6681.95 3966.45C6682.03 3965.73 6682.03 3964.96 6682.03 3964.11C6682.03 3963.26 6681.99 3962.49 6681.87 3961.84C6681.79 3961.2 6681.59 3960.63 6681.3 3960.19C6680.98 3959.74 6680.54 3959.42 6680.01 3959.18C6679.49 3958.93 6678.72 3958.85 6677.83 3958.85H6675.65V3958.89Z" fill="black"/>
<path id="Vector_40" d="M6706.39 3974.9V3960.31L6699.61 3940.38H6704.86L6708.82 3954.13H6708.9L6712.86 3940.38H6718.11L6711.32 3960.31V3974.9H6706.39Z" fill="black"/>
<g id="Layer_1_2">
<path id="Vector_41" d="M6933.73 4115.96H6797.62C6779.76 4115.96 6765.21 4101.41 6765.21 4083.55V3947.38C6765.21 3929.51 6779.76 3914.96 6797.62 3914.96H6933.73C6951.59 3914.96 6966.13 3929.51 6966.13 3947.38V4083.55C6966.13 4101.41 6951.59 4115.96 6933.73 4115.96ZM6797.66 3918.72C6781.86 3918.72 6768.97 3931.58 6768.97 3947.38V4083.55C6768.97 4099.35 6781.82 4112.2 6797.66 4112.2H6933.77C6949.57 4112.2 6962.46 4099.35 6962.46 4083.55V3947.38C6962.46 3931.58 6949.61 3918.72 6933.77 3918.72H6797.66Z" fill="black"/>
<path id="Vector_42" d="M6865.69 3941.72C6833.78 3941.72 6807.84 3967.87 6807.84 4000.04C6807.84 4011.44 6811.11 4022.48 6817.29 4031.98L6817.45 4032.22C6818.14 4033.27 6818.91 4034.36 6819.68 4035.37L6859.07 4086.5C6859.07 4086.5 6859.07 4086.5 6859.07 4086.54L6861.05 4089.25V4086.46C6861.05 4066.73 6855.11 4058.97 6853.01 4055.74C6852.6 4055.09 6852.72 4054 6852.68 4053.07C6852.68 4052.59 6853.09 4052.22 6853.53 4052.27C6857.49 4053.32 6861.57 4053.84 6865.73 4053.84C6869.89 4053.84 6874.02 4053.32 6877.97 4052.27C6878.38 4052.27 6878.7 4052.63 6878.7 4053.07C6878.7 4053.96 6878.82 4055.09 6878.38 4055.74C6876.28 4058.97 6870.34 4066.73 6870.34 4086.46V4089.05L6873.13 4085.41L6911.35 4035.73C6919.31 4025.43 6923.51 4013.06 6923.51 4000C6923.51 3967.87 6897.57 3941.68 6865.65 3941.68L6865.69 3941.72ZM6894.14 4037.96C6885.81 4044.1 6876 4047.33 6865.73 4047.33C6850.38 4047.33 6835.8 4039.86 6826.75 4027.37C6811.07 4005.74 6815.8 3975.27 6837.25 3959.46C6845.57 3953.32 6855.39 3950.09 6865.65 3950.09C6881.01 3950.09 6895.59 3957.57 6904.64 3970.05C6920.32 3991.68 6915.59 4022.15 6894.14 4037.96Z" fill="black"/>
</g>
</g>
<g id="Back - Dark Tag">
<path id="Vector_43" d="M6257.89 4052.71C6257.89 4029.43 6276.56 4010.88 6299.83 4010.88C6309.73 4010.88 6318.13 4012.74 6325.97 4017.55C6328.15 4018.92 6328.64 4020.9 6327.34 4023.33L6326.17 4025.27C6324.92 4027.81 6322.94 4028.14 6320.39 4026.76C6311.42 4021.91 6305.89 4021.79 6299.79 4021.79C6283.43 4021.79 6270.3 4035.37 6270.3 4052.55C6270.3 4067.99 6280.68 4083.07 6301.41 4083.07C6308.43 4083.07 6314.41 4081.33 6319.83 4077.89V4061.89H6301.65C6298.98 4061.89 6297.49 4060.27 6297.49 4057.64V4056.27C6297.49 4053.6 6298.98 4052.11 6301.65 4052.11H6326.86C6329.52 4052.11 6331.02 4053.6 6331.02 4056.27V4079.55C6331.02 4081.73 6330.09 4083.59 6327.46 4085.65C6318.25 4092.44 6308.23 4094.06 6300.88 4094.06C6275.87 4094.06 6257.93 4075.39 6257.93 4052.71" fill="white"/>
<path id="Vector_44" d="M6342.54 4052.47C6342.54 4029.55 6361.2 4010.88 6384.47 4010.88C6407.74 4010.88 6426.41 4029.55 6426.41 4052.47C6426.41 4075.39 6407.74 4094.06 6384.47 4094.06C6361.2 4094.06 6342.54 4075.39 6342.54 4052.47ZM6413.92 4052.47C6413.92 4035.09 6400.67 4021.83 6384.43 4021.83C6368.19 4021.83 6354.94 4035.09 6354.94 4052.47C6354.94 4069.85 6368.19 4083.11 6384.43 4083.11C6400.67 4083.11 6413.92 4069.85 6413.92 4052.47Z" fill="white"/>
<path id="Vector_45" d="M6440.19 4088.68V4016.34C6440.19 4013.67 6441.68 4012.17 6444.35 4012.17H6448.27C6450.93 4012.17 6452.43 4013.67 6452.43 4016.34V4082.82H6485.03C6487.7 4082.82 6489.27 4084.32 6489.27 4086.99V4088.73C6489.27 4091.39 6487.66 4092.89 6485.03 4092.89H6444.39C6441.72 4092.89 6440.23 4091.39 6440.23 4088.73" fill="white"/>
<path id="Vector_46" d="M6551.33 4016.29V4018.03C6551.33 4020.69 6549.84 4022.19 6547.17 4022.19H6511.94V4048.34H6542.12C6544.79 4048.34 6546.36 4049.84 6546.36 4052.5V4054C6546.36 4056.67 6544.74 4058.24 6542.12 4058.24H6511.94V4088.64C6511.94 4091.31 6510.44 4092.8 6507.78 4092.8H6503.86C6501.19 4092.8 6499.7 4091.31 6499.7 4088.64V4016.29C6499.7 4013.62 6501.19 4012.13 6503.86 4012.13H6547.17C6549.84 4012.13 6551.33 4013.62 6551.33 4016.29Z" fill="white"/>
<path id="Vector_47" d="M6559.37 4077.73C6558.24 4075.18 6559.61 4073.24 6562.12 4072.56L6565.47 4071.75C6568.02 4071.18 6569.39 4072.11 6570.64 4074.5C6573.51 4079.47 6579.61 4083.35 6587.69 4083.35C6598.08 4083.35 6604.38 4078.3 6604.38 4071.39C6604.38 4065.28 6599.33 4061.48 6592.74 4059.06L6580.78 4055.02C6565.59 4049.96 6561.92 4040.83 6561.92 4033.35C6561.92 4019.41 6574.12 4010.88 6588.06 4010.88C6600.74 4010.88 6609.71 4016.98 6613.39 4026.08C6614.44 4028.62 6613.15 4030.56 6610.64 4031.25L6607.77 4032.18C6605.23 4032.87 6603.61 4031.94 6602.48 4029.51C6599.81 4024.22 6594.88 4021.67 6588.22 4021.67C6580.62 4021.67 6574.28 4025.83 6574.28 4032.95C6574.28 4036.3 6575.33 4040.67 6584.54 4044.14L6596.5 4048.63C6610.08 4052.87 6616.3 4061.89 6616.3 4070.54C6616.3 4085.05 6604.78 4094.02 6587.98 4094.02C6573.71 4094.02 6563.57 4087.11 6559.41 4077.65" fill="white"/>
<path id="Vector_48" d="M6688.69 4016.29V4018.03C6688.69 4020.69 6687.2 4022.19 6684.53 4022.19H6662.07V4088.68C6662.07 4091.35 6660.57 4092.84 6657.91 4092.84H6654.11C6651.44 4092.84 6649.95 4091.35 6649.95 4088.68V4022.19H6627.49C6624.94 4022.19 6623.32 4020.69 6623.32 4018.03V4016.29C6623.32 4013.62 6624.94 4012.13 6627.49 4012.13H6684.49C6687.16 4012.13 6688.65 4013.62 6688.65 4016.29" fill="white"/>
<path id="Vector_49" d="M6685.34 4087.95L6713.1 4015.48C6713.9 4013.3 6715.64 4012.13 6717.95 4012.13H6724.61C6727.04 4012.13 6728.65 4013.3 6729.46 4015.48L6757.46 4087.95C6758.51 4090.82 6757.34 4092.8 6754.23 4092.8H6750.55C6748.12 4092.8 6746.51 4091.75 6745.58 4089.45L6740.61 4076.31H6702.15L6697.18 4089.45C6696.25 4091.75 6694.75 4092.8 6692.33 4092.8H6688.53C6685.42 4092.8 6684.17 4090.86 6685.3 4087.95M6737.18 4066.41L6721.3 4024.01L6705.62 4066.41H6737.18Z" fill="white"/>
<path id="Vector_50" d="M6819.27 4016.29V4018.03C6819.27 4020.69 6817.78 4022.19 6815.11 4022.19H6792.65V4088.68C6792.65 4091.35 6791.15 4092.84 6788.49 4092.84H6784.69C6782.02 4092.84 6780.53 4091.35 6780.53 4088.68V4022.19H6758.07C6755.52 4022.19 6753.9 4020.69 6753.9 4018.03V4016.29C6753.9 4013.62 6755.52 4012.13 6758.07 4012.13H6815.07C6817.74 4012.13 6819.23 4013.62 6819.23 4016.29" fill="white"/>
<path id="Vector_51" d="M6831.27 4062.85V4016.29C6831.27 4013.62 6832.89 4012.13 6835.43 4012.13H6839.35C6842.02 4012.13 6843.51 4013.62 6843.51 4016.29V4062.85C6843.51 4076.43 6852.72 4083.14 6863.31 4083.14C6873.9 4083.14 6883.23 4076.47 6883.23 4062.85V4016.29C6883.23 4013.62 6884.72 4012.13 6887.39 4012.13H6891.19C6893.85 4012.13 6895.47 4013.62 6895.47 4016.29V4062.85C6895.47 4083.34 6880.72 4094.09 6863.35 4094.09C6845.98 4094.09 6831.35 4083.38 6831.35 4062.85" fill="white"/>
<path id="Vector_52" d="M6908.07 4077.73C6906.94 4075.18 6908.32 4073.24 6910.82 4072.56L6914.18 4071.75C6916.72 4071.18 6918.09 4072.11 6919.35 4074.5C6922.22 4079.47 6928.32 4083.35 6936.4 4083.35C6946.78 4083.35 6953.08 4078.3 6953.08 4071.39C6953.08 4065.28 6948.03 4061.48 6941.45 4059.06L6929.49 4055.02C6914.3 4049.96 6910.62 4040.83 6910.62 4033.35C6910.62 4019.41 6922.82 4010.88 6936.76 4010.88C6949.45 4010.88 6958.41 4016.98 6962.09 4026.08C6963.14 4028.62 6961.85 4030.56 6959.34 4031.25L6956.48 4032.18C6953.93 4032.87 6952.31 4031.94 6951.18 4029.51C6948.52 4024.22 6943.59 4021.67 6936.92 4021.67C6929.33 4021.67 6922.98 4025.83 6922.98 4032.95C6922.98 4036.3 6924.03 4040.67 6933.24 4044.14L6945.2 4048.63C6958.78 4052.87 6965 4061.89 6965 4070.54C6965 4085.05 6953.49 4094.02 6936.68 4094.02C6922.42 4094.02 6912.28 4087.11 6908.11 4077.65" fill="white"/>
<path id="Vector_53" d="M6258.79 3978.94V3944.42H6266.22C6267.59 3944.42 6268.76 3944.59 6269.81 3944.95C6270.87 3945.31 6271.79 3945.92 6272.64 3946.85C6273.49 3947.74 6274.06 3948.83 6274.38 3950.04C6274.7 3951.26 6274.86 3952.91 6274.86 3954.97C6274.86 3956.51 6274.78 3957.84 6274.58 3958.89C6274.42 3959.95 6274.02 3960.96 6273.45 3961.89C6272.76 3963.02 6271.88 3963.91 6270.74 3964.51C6269.61 3965.16 6268.12 3965.44 6266.3 3965.44H6263.79V3978.94H6258.87H6258.79ZM6263.71 3949.07V3960.79H6266.1C6267.11 3960.79 6267.88 3960.63 6268.44 3960.35C6269.01 3960.07 6269.41 3959.66 6269.65 3959.14C6269.9 3958.65 6270.06 3958.05 6270.1 3957.36C6270.14 3956.63 6270.18 3955.86 6270.18 3954.97C6270.18 3954.17 6270.18 3953.4 6270.14 3952.67C6270.14 3951.94 6269.98 3951.3 6269.69 3950.77C6269.45 3950.2 6269.05 3949.8 6268.52 3949.52C6268 3949.23 6267.27 3949.07 6266.3 3949.07H6263.71Z" fill="white"/>
<path id="Vector_54" d="M6288.64 3952.6C6288.64 3951.22 6288.88 3949.97 6289.37 3948.92C6289.85 3947.87 6290.5 3946.98 6291.31 3946.25C6292.07 3945.56 6292.96 3945.04 6293.93 3944.71C6294.9 3944.35 6295.91 3944.19 6296.92 3944.19C6297.93 3944.19 6298.9 3944.35 6299.91 3944.71C6300.88 3945.08 6301.81 3945.6 6302.62 3946.25C6303.39 3946.98 6304.03 3947.87 6304.52 3948.92C6305 3949.97 6305.25 3951.22 6305.25 3952.6V3970.82C6305.25 3972.28 6305 3973.53 6304.52 3974.54C6304.03 3975.55 6303.39 3976.44 6302.62 3977.13C6301.81 3977.86 6300.92 3978.38 6299.91 3978.75C6298.9 3979.11 6297.93 3979.27 6296.92 3979.27C6295.91 3979.27 6294.94 3979.11 6293.93 3978.75C6292.96 3978.38 6292.07 3977.86 6291.31 3977.13C6290.5 3976.44 6289.85 3975.59 6289.37 3974.54C6288.88 3973.49 6288.64 3972.28 6288.64 3970.82V3952.6ZM6293.57 3970.82C6293.57 3972.04 6293.89 3972.89 6294.58 3973.45C6295.23 3974.02 6296.03 3974.3 6296.92 3974.3C6297.81 3974.3 6298.62 3974.02 6299.27 3973.45C6299.91 3972.89 6300.28 3972 6300.28 3970.82V3952.6C6300.28 3951.38 6299.95 3950.53 6299.27 3949.97C6298.62 3949.4 6297.81 3949.12 6296.92 3949.12C6296.03 3949.12 6295.23 3949.4 6294.58 3949.97C6293.93 3950.53 6293.57 3951.42 6293.57 3952.6V3970.82Z" fill="white"/>
<path id="Vector_55" d="M6345.08 3944.42L6339.95 3978.94H6335.3L6331.51 3956.55H6331.43L6327.71 3978.94H6323.06L6317.93 3944.42H6323.18L6325.65 3966.33H6325.73L6329.61 3944.42H6333.41L6337.45 3966.9H6337.53L6339.91 3944.42H6345.16H6345.08Z" fill="white"/>
<path id="Vector_56" d="M6358.62 3978.94V3944.42H6373.36V3949.07H6363.59V3959.22H6372.11V3963.87H6363.59V3974.01H6373.36V3978.94H6358.62Z" fill="white"/>
<path id="Vector_57" d="M6386.98 3978.94V3944.42H6394.94C6400.75 3944.42 6403.66 3947.82 6403.66 3954.57C6403.66 3956.59 6403.34 3958.33 6402.73 3959.74C6402.09 3961.16 6401 3962.33 6399.42 3963.18L6404.75 3978.94H6399.5L6394.9 3964.19H6391.95V3978.94H6387.02H6386.98ZM6391.91 3949.07V3959.82H6394.73C6395.62 3959.82 6396.31 3959.7 6396.83 3959.46C6397.36 3959.22 6397.76 3958.85 6398.05 3958.41C6398.29 3957.96 6398.49 3957.4 6398.57 3956.75C6398.65 3956.11 6398.73 3955.34 6398.73 3954.45C6398.73 3953.56 6398.69 3952.79 6398.57 3952.14C6398.49 3951.5 6398.29 3950.89 6398.01 3950.41C6397.4 3949.52 6396.23 3949.03 6394.53 3949.03H6391.95L6391.91 3949.07Z" fill="white"/>
<path id="Vector_58" d="M6418.05 3978.94V3944.42H6432.79V3949.07H6423.02V3959.22H6431.54V3963.87H6423.02V3974.01H6432.79V3978.94H6418.05Z" fill="white"/>
<path id="Vector_59" d="M6446.41 3978.94V3944.42H6453.72C6456.55 3944.42 6458.73 3945.19 6460.18 3946.77C6461.64 3948.3 6462.41 3950.53 6462.41 3953.36V3969.52C6462.41 3972.76 6461.64 3975.14 6460.06 3976.68C6458.49 3978.21 6456.22 3978.98 6453.31 3978.98H6446.45L6446.41 3978.94ZM6451.34 3949.07V3974.29H6453.6C6454.97 3974.29 6455.98 3973.93 6456.55 3973.24C6457.11 3972.56 6457.44 3971.46 6457.44 3969.97V3953.32C6457.44 3951.94 6457.15 3950.89 6456.63 3950.16C6456.06 3949.44 6455.09 3949.03 6453.64 3949.03H6451.38L6451.34 3949.07Z" fill="white"/>
<path id="Vector_60" d="M6496.91 3978.94V3944.42H6504.14C6505.72 3944.42 6507.09 3944.67 6508.18 3945.15C6509.31 3945.64 6510.2 3946.28 6510.93 3947.09C6511.65 3947.9 6512.14 3948.83 6512.46 3949.88C6512.79 3950.93 6512.91 3952.02 6512.91 3953.16V3954.41C6512.91 3955.34 6512.83 3956.15 6512.71 3956.79C6512.54 3957.44 6512.34 3958.01 6512.06 3958.49C6511.49 3959.38 6510.69 3960.19 6509.55 3960.83C6510.73 3961.4 6511.57 3962.21 6512.14 3963.26C6512.71 3964.31 6512.95 3965.77 6512.95 3967.62V3969.56C6512.95 3972.6 6512.22 3974.94 6510.73 3976.56C6509.27 3978.17 6506.89 3978.98 6503.66 3978.98H6496.91V3978.94ZM6501.88 3949.07V3958.57H6504.1C6505.76 3958.57 6506.85 3958.17 6507.41 3957.32C6507.98 3956.47 6508.26 3955.3 6508.26 3953.72C6508.26 3952.14 6507.94 3951.01 6507.33 3950.25C6506.69 3949.48 6505.55 3949.07 6503.9 3949.07H6501.88ZM6501.88 3962.94V3974.01H6504.02C6505.03 3974.01 6505.8 3973.85 6506.36 3973.57C6506.93 3973.28 6507.37 3972.88 6507.65 3972.35C6507.94 3971.83 6508.14 3971.22 6508.18 3970.49C6508.26 3969.77 6508.26 3969 6508.26 3968.15C6508.26 3967.3 6508.22 3966.53 6508.1 3965.89C6508.02 3965.24 6507.82 3964.67 6507.53 3964.23C6507.21 3963.79 6506.77 3963.46 6506.24 3963.22C6505.72 3962.98 6504.95 3962.9 6504.06 3962.9H6501.88V3962.94Z" fill="white"/>
<path id="Vector_61" d="M6532.58 3978.94V3964.35L6525.8 3944.42H6531.05L6535.01 3958.17H6535.09L6539.05 3944.42H6544.3L6537.51 3964.35V3978.94H6532.58Z" fill="white"/>
<g id="Layer_1-2">
<path id="Vector_62" d="M6179.56 4120.01H6043.44C6025.59 4120.01 6011.04 4105.46 6011.04 4087.59V3951.42C6011.04 3933.56 6025.59 3919.01 6043.44 3919.01H6179.56C6197.41 3919.01 6211.96 3933.56 6211.96 3951.42V4087.59C6211.96 4105.46 6197.41 4120.01 6179.56 4120.01ZM6043.44 3922.76C6027.65 3922.76 6014.8 3935.62 6014.8 3951.42V4087.59C6014.8 4103.39 6027.65 4116.25 6043.48 4116.25H6179.6C6195.39 4116.25 6208.28 4103.39 6208.28 4087.59V3951.42C6208.28 3935.62 6195.43 3922.76 6179.6 3922.76H6043.44Z" fill="white"/>
<path id="Vector_63" d="M6111.52 3945.76C6079.6 3945.76 6053.66 3971.91 6053.66 4004.09C6053.66 4015.48 6056.94 4026.52 6063.12 4036.02L6063.28 4036.26C6063.97 4037.31 6064.73 4038.4 6065.5 4039.41L6104.89 4090.54C6104.89 4090.54 6104.89 4090.54 6104.89 4090.58L6106.87 4093.29V4090.5C6106.87 4070.78 6100.93 4063.02 6098.83 4059.78C6098.43 4059.14 6098.55 4058.04 6098.51 4057.12C6098.51 4056.63 6098.91 4056.27 6099.36 4056.31C6103.32 4057.36 6107.4 4057.88 6111.56 4057.88C6115.72 4057.88 6119.84 4057.36 6123.8 4056.31C6124.21 4056.31 6124.53 4056.67 6124.53 4057.12C6124.53 4058 6124.65 4059.14 6124.21 4059.78C6122.1 4063.02 6116.17 4070.78 6116.17 4090.5V4093.09L6118.95 4089.45L6157.17 4039.78C6165.13 4029.47 6169.33 4017.1 6169.33 4004.05C6169.33 3971.91 6143.4 3945.72 6111.48 3945.72L6111.52 3945.76ZM6139.96 4042C6131.64 4048.14 6121.82 4051.38 6111.56 4051.38C6096.21 4051.38 6081.62 4043.9 6072.57 4031.41C6056.9 4009.79 6061.62 3979.31 6083.08 3963.51C6091.4 3957.36 6101.22 3954.13 6111.48 3954.13C6126.83 3954.13 6141.42 3961.61 6150.47 3974.1C6166.14 3995.72 6161.41 4026.2 6139.96 4042Z" fill="white"/>
</g>
</g>
<g id="Back - Light Tag">
<path id="Vector_64" d="M6257.89 4052.71C6257.89 4029.43 6276.56 4010.88 6299.83 4010.88C6309.73 4010.88 6318.13 4012.74 6325.97 4017.55C6328.15 4018.92 6328.64 4020.9 6327.34 4023.33L6326.17 4025.27C6324.92 4027.81 6322.94 4028.14 6320.39 4026.76C6311.42 4021.91 6305.89 4021.79 6299.79 4021.79C6283.43 4021.79 6270.3 4035.37 6270.3 4052.55C6270.3 4067.99 6280.68 4083.07 6301.41 4083.07C6308.43 4083.07 6314.41 4081.33 6319.83 4077.89V4061.89H6301.65C6298.98 4061.89 6297.49 4060.27 6297.49 4057.64V4056.27C6297.49 4053.6 6298.98 4052.11 6301.65 4052.11H6326.86C6329.52 4052.11 6331.02 4053.6 6331.02 4056.27V4079.55C6331.02 4081.73 6330.09 4083.59 6327.46 4085.65C6318.25 4092.44 6308.23 4094.06 6300.88 4094.06C6275.87 4094.06 6257.93 4075.39 6257.93 4052.71" fill="black"/>
<path id="Vector_65" d="M6342.54 4052.47C6342.54 4029.55 6361.2 4010.88 6384.47 4010.88C6407.74 4010.88 6426.41 4029.55 6426.41 4052.47C6426.41 4075.39 6407.74 4094.06 6384.47 4094.06C6361.2 4094.06 6342.54 4075.39 6342.54 4052.47ZM6413.92 4052.47C6413.92 4035.09 6400.67 4021.83 6384.43 4021.83C6368.19 4021.83 6354.94 4035.09 6354.94 4052.47C6354.94 4069.85 6368.19 4083.11 6384.43 4083.11C6400.67 4083.11 6413.92 4069.85 6413.92 4052.47Z" fill="black"/>
<path id="Vector_66" d="M6440.19 4088.68V4016.34C6440.19 4013.67 6441.68 4012.17 6444.35 4012.17H6448.27C6450.93 4012.17 6452.43 4013.67 6452.43 4016.34V4082.82H6485.03C6487.7 4082.82 6489.27 4084.32 6489.27 4086.99V4088.73C6489.27 4091.39 6487.66 4092.89 6485.03 4092.89H6444.39C6441.72 4092.89 6440.23 4091.39 6440.23 4088.73" fill="black"/>
<path id="Vector_67" d="M6551.33 4016.29V4018.03C6551.33 4020.69 6549.84 4022.19 6547.17 4022.19H6511.94V4048.34H6542.12C6544.79 4048.34 6546.36 4049.84 6546.36 4052.5V4054C6546.36 4056.67 6544.74 4058.24 6542.12 4058.24H6511.94V4088.64C6511.94 4091.31 6510.44 4092.8 6507.78 4092.8H6503.86C6501.19 4092.8 6499.7 4091.31 6499.7 4088.64V4016.29C6499.7 4013.62 6501.19 4012.13 6503.86 4012.13H6547.17C6549.84 4012.13 6551.33 4013.62 6551.33 4016.29Z" fill="black"/>
<path id="Vector_68" d="M6559.37 4077.73C6558.24 4075.18 6559.61 4073.24 6562.12 4072.56L6565.47 4071.75C6568.02 4071.18 6569.39 4072.11 6570.64 4074.5C6573.51 4079.47 6579.61 4083.35 6587.69 4083.35C6598.08 4083.35 6604.38 4078.3 6604.38 4071.39C6604.38 4065.28 6599.33 4061.48 6592.74 4059.06L6580.78 4055.02C6565.59 4049.96 6561.92 4040.83 6561.92 4033.35C6561.92 4019.41 6574.12 4010.88 6588.06 4010.88C6600.74 4010.88 6609.71 4016.98 6613.39 4026.08C6614.44 4028.62 6613.15 4030.56 6610.64 4031.25L6607.77 4032.18C6605.23 4032.87 6603.61 4031.94 6602.48 4029.51C6599.81 4024.22 6594.88 4021.67 6588.22 4021.67C6580.62 4021.67 6574.28 4025.83 6574.28 4032.95C6574.28 4036.3 6575.33 4040.67 6584.54 4044.14L6596.5 4048.63C6610.08 4052.87 6616.3 4061.89 6616.3 4070.54C6616.3 4085.05 6604.78 4094.02 6587.98 4094.02C6573.71 4094.02 6563.57 4087.11 6559.41 4077.65" fill="black"/>
<path id="Vector_69" d="M6688.69 4016.29V4018.03C6688.69 4020.69 6687.2 4022.19 6684.53 4022.19H6662.07V4088.68C6662.07 4091.35 6660.57 4092.84 6657.91 4092.84H6654.11C6651.44 4092.84 6649.95 4091.35 6649.95 4088.68V4022.19H6627.49C6624.94 4022.19 6623.32 4020.69 6623.32 4018.03V4016.29C6623.32 4013.62 6624.94 4012.13 6627.49 4012.13H6684.49C6687.16 4012.13 6688.65 4013.62 6688.65 4016.29" fill="black"/>
<path id="Vector_70" d="M6685.34 4087.95L6713.1 4015.48C6713.9 4013.3 6715.64 4012.13 6717.95 4012.13H6724.61C6727.04 4012.13 6728.65 4013.3 6729.46 4015.48L6757.46 4087.95C6758.51 4090.82 6757.34 4092.8 6754.23 4092.8H6750.55C6748.12 4092.8 6746.51 4091.75 6745.58 4089.45L6740.61 4076.31H6702.15L6697.18 4089.45C6696.25 4091.75 6694.75 4092.8 6692.33 4092.8H6688.53C6685.42 4092.8 6684.17 4090.86 6685.3 4087.95M6737.18 4066.41L6721.3 4024.01L6705.62 4066.41H6737.18Z" fill="black"/>
<path id="Vector_71" d="M6819.27 4016.29V4018.03C6819.27 4020.69 6817.78 4022.19 6815.11 4022.19H6792.65V4088.68C6792.65 4091.35 6791.15 4092.84 6788.49 4092.84H6784.69C6782.02 4092.84 6780.53 4091.35 6780.53 4088.68V4022.19H6758.07C6755.52 4022.19 6753.9 4020.69 6753.9 4018.03V4016.29C6753.9 4013.62 6755.52 4012.13 6758.07 4012.13H6815.07C6817.74 4012.13 6819.23 4013.62 6819.23 4016.29" fill="black"/>
<path id="Vector_72" d="M6831.27 4062.85V4016.29C6831.27 4013.62 6832.89 4012.13 6835.43 4012.13H6839.35C6842.02 4012.13 6843.51 4013.62 6843.51 4016.29V4062.85C6843.51 4076.43 6852.72 4083.14 6863.31 4083.14C6873.9 4083.14 6883.23 4076.47 6883.23 4062.85V4016.29C6883.23 4013.62 6884.72 4012.13 6887.39 4012.13H6891.19C6893.85 4012.13 6895.47 4013.62 6895.47 4016.29V4062.85C6895.47 4083.34 6880.72 4094.09 6863.35 4094.09C6845.98 4094.09 6831.35 4083.38 6831.35 4062.85" fill="black"/>
<path id="Vector_73" d="M6908.07 4077.73C6906.94 4075.18 6908.32 4073.24 6910.82 4072.56L6914.18 4071.75C6916.72 4071.18 6918.09 4072.11 6919.35 4074.5C6922.22 4079.47 6928.32 4083.35 6936.4 4083.35C6946.78 4083.35 6953.08 4078.3 6953.08 4071.39C6953.08 4065.28 6948.03 4061.48 6941.45 4059.06L6929.49 4055.02C6914.3 4049.96 6910.62 4040.83 6910.62 4033.35C6910.62 4019.41 6922.82 4010.88 6936.76 4010.88C6949.45 4010.88 6958.41 4016.98 6962.09 4026.08C6963.14 4028.62 6961.85 4030.56 6959.34 4031.25L6956.48 4032.18C6953.93 4032.87 6952.31 4031.94 6951.18 4029.51C6948.52 4024.22 6943.59 4021.67 6936.92 4021.67C6929.33 4021.67 6922.98 4025.83 6922.98 4032.95C6922.98 4036.3 6924.03 4040.67 6933.24 4044.14L6945.2 4048.63C6958.78 4052.87 6965 4061.89 6965 4070.54C6965 4085.05 6953.49 4094.02 6936.68 4094.02C6922.42 4094.02 6912.28 4087.11 6908.11 4077.65" fill="black"/>
<path id="Vector_74" d="M6258.79 3978.94V3944.42H6266.22C6267.59 3944.42 6268.76 3944.59 6269.81 3944.95C6270.87 3945.31 6271.79 3945.92 6272.64 3946.85C6273.49 3947.74 6274.06 3948.83 6274.38 3950.04C6274.7 3951.26 6274.86 3952.91 6274.86 3954.97C6274.86 3956.51 6274.78 3957.84 6274.58 3958.89C6274.42 3959.95 6274.02 3960.96 6273.45 3961.89C6272.76 3963.02 6271.88 3963.91 6270.74 3964.51C6269.61 3965.16 6268.12 3965.44 6266.3 3965.44H6263.79V3978.94H6258.87H6258.79ZM6263.71 3949.07V3960.79H6266.1C6267.11 3960.79 6267.88 3960.63 6268.44 3960.35C6269.01 3960.07 6269.41 3959.66 6269.65 3959.14C6269.9 3958.65 6270.06 3958.05 6270.1 3957.36C6270.14 3956.63 6270.18 3955.86 6270.18 3954.97C6270.18 3954.17 6270.18 3953.4 6270.14 3952.67C6270.14 3951.94 6269.98 3951.3 6269.69 3950.77C6269.45 3950.2 6269.05 3949.8 6268.52 3949.52C6268 3949.23 6267.27 3949.07 6266.3 3949.07H6263.71Z" fill="black"/>
<path id="Vector_75" d="M6288.64 3952.6C6288.64 3951.22 6288.88 3949.97 6289.37 3948.92C6289.85 3947.87 6290.5 3946.98 6291.31 3946.25C6292.07 3945.56 6292.96 3945.04 6293.93 3944.71C6294.9 3944.35 6295.91 3944.19 6296.92 3944.19C6297.93 3944.19 6298.9 3944.35 6299.91 3944.71C6300.88 3945.08 6301.81 3945.6 6302.62 3946.25C6303.39 3946.98 6304.03 3947.87 6304.52 3948.92C6305 3949.97 6305.25 3951.22 6305.25 3952.6V3970.82C6305.25 3972.28 6305 3973.53 6304.52 3974.54C6304.03 3975.55 6303.39 3976.44 6302.62 3977.13C6301.81 3977.86 6300.92 3978.38 6299.91 3978.75C6298.9 3979.11 6297.93 3979.27 6296.92 3979.27C6295.91 3979.27 6294.94 3979.11 6293.93 3978.75C6292.96 3978.38 6292.07 3977.86 6291.31 3977.13C6290.5 3976.44 6289.85 3975.59 6289.37 3974.54C6288.88 3973.49 6288.64 3972.28 6288.64 3970.82V3952.6ZM6293.57 3970.82C6293.57 3972.04 6293.89 3972.89 6294.58 3973.45C6295.23 3974.02 6296.03 3974.3 6296.92 3974.3C6297.81 3974.3 6298.62 3974.02 6299.27 3973.45C6299.91 3972.89 6300.28 3972 6300.28 3970.82V3952.6C6300.28 3951.38 6299.95 3950.53 6299.27 3949.97C6298.62 3949.4 6297.81 3949.12 6296.92 3949.12C6296.03 3949.12 6295.23 3949.4 6294.58 3949.97C6293.93 3950.53 6293.57 3951.42 6293.57 3952.6V3970.82Z" fill="black"/>
<path id="Vector_76" d="M6345.08 3944.42L6339.95 3978.94H6335.3L6331.51 3956.55H6331.43L6327.71 3978.94H6323.06L6317.93 3944.42H6323.18L6325.65 3966.33H6325.73L6329.61 3944.42H6333.41L6337.45 3966.9H6337.53L6339.91 3944.42H6345.16H6345.08Z" fill="black"/>
<path id="Vector_77" d="M6358.62 3978.94V3944.42H6373.36V3949.07H6363.59V3959.22H6372.11V3963.87H6363.59V3974.01H6373.36V3978.94H6358.62Z" fill="black"/>
<path id="Vector_78" d="M6386.98 3978.94V3944.42H6394.94C6400.75 3944.42 6403.66 3947.82 6403.66 3954.57C6403.66 3956.59 6403.34 3958.33 6402.73 3959.74C6402.09 3961.16 6401 3962.33 6399.42 3963.18L6404.75 3978.94H6399.5L6394.9 3964.19H6391.95V3978.94H6387.02H6386.98ZM6391.91 3949.07V3959.82H6394.73C6395.62 3959.82 6396.31 3959.7 6396.83 3959.46C6397.36 3959.22 6397.76 3958.85 6398.05 3958.41C6398.29 3957.96 6398.49 3957.4 6398.57 3956.75C6398.65 3956.11 6398.73 3955.34 6398.73 3954.45C6398.73 3953.56 6398.69 3952.79 6398.57 3952.14C6398.49 3951.5 6398.29 3950.89 6398.01 3950.41C6397.4 3949.52 6396.23 3949.03 6394.53 3949.03H6391.95L6391.91 3949.07Z" fill="black"/>
<path id="Vector_79" d="M6418.05 3978.94V3944.42H6432.79V3949.07H6423.02V3959.22H6431.54V3963.87H6423.02V3974.01H6432.79V3978.94H6418.05Z" fill="black"/>
<path id="Vector_80" d="M6446.41 3978.94V3944.42H6453.72C6456.55 3944.42 6458.73 3945.19 6460.18 3946.77C6461.64 3948.3 6462.41 3950.53 6462.41 3953.36V3969.52C6462.41 3972.76 6461.64 3975.14 6460.06 3976.68C6458.49 3978.21 6456.22 3978.98 6453.31 3978.98H6446.45L6446.41 3978.94ZM6451.34 3949.07V3974.29H6453.6C6454.97 3974.29 6455.98 3973.93 6456.55 3973.24C6457.11 3972.56 6457.44 3971.46 6457.44 3969.97V3953.32C6457.44 3951.94 6457.15 3950.89 6456.63 3950.16C6456.06 3949.44 6455.09 3949.03 6453.64 3949.03H6451.38L6451.34 3949.07Z" fill="black"/>
<path id="Vector_81" d="M6496.91 3978.94V3944.42H6504.14C6505.72 3944.42 6507.09 3944.67 6508.18 3945.15C6509.31 3945.64 6510.2 3946.28 6510.93 3947.09C6511.65 3947.9 6512.14 3948.83 6512.46 3949.88C6512.79 3950.93 6512.91 3952.02 6512.91 3953.16V3954.41C6512.91 3955.34 6512.83 3956.15 6512.71 3956.79C6512.54 3957.44 6512.34 3958.01 6512.06 3958.49C6511.49 3959.38 6510.69 3960.19 6509.55 3960.83C6510.73 3961.4 6511.57 3962.21 6512.14 3963.26C6512.71 3964.31 6512.95 3965.77 6512.95 3967.62V3969.56C6512.95 3972.6 6512.22 3974.94 6510.73 3976.56C6509.27 3978.17 6506.89 3978.98 6503.66 3978.98H6496.91V3978.94ZM6501.88 3949.07V3958.57H6504.1C6505.76 3958.57 6506.85 3958.17 6507.41 3957.32C6507.98 3956.47 6508.26 3955.3 6508.26 3953.72C6508.26 3952.14 6507.94 3951.01 6507.33 3950.25C6506.69 3949.48 6505.55 3949.07 6503.9 3949.07H6501.88ZM6501.88 3962.94V3974.01H6504.02C6505.03 3974.01 6505.8 3973.85 6506.36 3973.57C6506.93 3973.28 6507.37 3972.88 6507.65 3972.35C6507.94 3971.83 6508.14 3971.22 6508.18 3970.49C6508.26 3969.77 6508.26 3969 6508.26 3968.15C6508.26 3967.3 6508.22 3966.53 6508.1 3965.89C6508.02 3965.24 6507.82 3964.67 6507.53 3964.23C6507.21 3963.79 6506.77 3963.46 6506.24 3963.22C6505.72 3962.98 6504.95 3962.9 6504.06 3962.9H6501.88V3962.94Z" fill="black"/>
<path id="Vector_82" d="M6532.58 3978.94V3964.35L6525.8 3944.42H6531.05L6535.01 3958.17H6535.09L6539.05 3944.42H6544.3L6537.51 3964.35V3978.94H6532.58Z" fill="black"/>
<g id="Layer_1-2_2">
<path id="Vector_83" d="M6179.56 4120.01H6043.44C6025.59 4120.01 6011.04 4105.46 6011.04 4087.59V3951.42C6011.04 3933.56 6025.59 3919.01 6043.44 3919.01H6179.56C6197.41 3919.01 6211.96 3933.56 6211.96 3951.42V4087.59C6211.96 4105.46 6197.41 4120.01 6179.56 4120.01ZM6043.44 3922.76C6027.65 3922.76 6014.8 3935.62 6014.8 3951.42V4087.59C6014.8 4103.39 6027.65 4116.25 6043.48 4116.25H6179.6C6195.39 4116.25 6208.28 4103.39 6208.28 4087.59V3951.42C6208.28 3935.62 6195.43 3922.76 6179.6 3922.76H6043.44Z" fill="black"/>
<path id="Vector_84" d="M6111.52 3945.76C6079.6 3945.76 6053.66 3971.91 6053.66 4004.09C6053.66 4015.48 6056.94 4026.52 6063.12 4036.02L6063.28 4036.26C6063.97 4037.31 6064.73 4038.4 6065.5 4039.41L6104.89 4090.54C6104.89 4090.54 6104.89 4090.54 6104.89 4090.58L6106.87 4093.29V4090.5C6106.87 4070.78 6100.93 4063.02 6098.83 4059.78C6098.43 4059.14 6098.55 4058.04 6098.51 4057.12C6098.51 4056.63 6098.91 4056.27 6099.36 4056.31C6103.32 4057.36 6107.4 4057.88 6111.56 4057.88C6115.72 4057.88 6119.84 4057.36 6123.8 4056.31C6124.21 4056.31 6124.53 4056.67 6124.53 4057.12C6124.53 4058 6124.65 4059.14 6124.21 4059.78C6122.1 4063.02 6116.17 4070.78 6116.17 4090.5V4093.09L6118.95 4089.45L6157.17 4039.78C6165.13 4029.47 6169.33 4017.1 6169.33 4004.05C6169.33 3971.91 6143.4 3945.72 6111.48 3945.72L6111.52 3945.76ZM6139.96 4042C6131.64 4048.14 6121.82 4051.38 6111.56 4051.38C6096.21 4051.38 6081.62 4043.9 6072.57 4031.41C6056.9 4009.79 6061.62 3979.31 6083.08 3963.51C6091.4 3957.36 6101.22 3954.13 6111.48 3954.13C6126.83 3954.13 6141.42 3961.61 6150.47 3974.1C6166.14 3995.72 6161.41 4026.2 6139.96 4042Z" fill="black"/>
</g>
</g>
</g>
</g>
</g>
</svg>
