<svg width="7519" height="4670" viewBox="0 0 7519 4670" fill="none" xmlns="http://www.w3.org/2000/svg">
<g id="Shefield">
<rect id="zone-primary" y="1.00586" width="7519" height="4669" fill="#D9D9D9"/>
<g id="zone-secondary">
<rect id="zone-secondary_2" y="4210" width="7507" height="460" fill="#FC0101"/>
<rect id="zone-secondary_3" x="7060" y="4662" width="4662" height="459" transform="rotate(-90 7060 4662)" fill="#FC0101"/>
<rect id="zone-secondary_4" y="2334.01" width="2333" height="4131" transform="rotate(-90 0 2334.01)" fill="#FC0101"/>
<rect id="zone-secondary_5" x="4131" y="4670.01" width="2336" height="3376" transform="rotate(-90 4131 4670.01)" fill="#FC0101"/>
<rect id="zone-secondary_6" y="1.00586" width="7507" height="460" fill="#FC0101"/>
</g>
<g id="#logo-placement-2">
<g id="Row 1">
<rect id="Logo 1" x="1278" y="2263.01" width="1730" height="2783" transform="rotate(-90 1278 2263.01)" fill="#2063D6"/>
<rect id="Logo 2" x="4205" y="2263.01" width="1730" height="2783" transform="rotate(-90 4205 2263.01)" fill="#2063D6"/>
</g>
<g id="Row 2">
<rect id="Logo 3" x="1278" y="4137.01" width="1730" height="2783" transform="rotate(-90 1278 4137.01)" fill="#2063D6"/>
<rect id="Logo 4" x="4205" y="4137.01" width="1730" height="2783" transform="rotate(-90 4205 4137.01)" fill="#2063D6"/>
</g>
</g>
<g id="#logo-placement">
<rect id="Logo 1_2" x="1278" y="4137.01" width="3604" height="5710" transform="rotate(-90 1278 4137.01)" fill="#2063D6"/>
</g>
<g id="Bleed">
<g id="Bleed_2">
<rect id="Bleed_3" x="0.5" y="1.50586" width="7518" height="309" fill="#9A9A9A" stroke="#9A9A9A"/>
<rect id="Bleed_4" x="0.5" y="4669.51" width="4668" height="1205" transform="rotate(-90 0.5 4669.51)" fill="#9A9A9A" stroke="#9A9A9A"/>
<rect id="Bleed_5" x="7209.5" y="4669.51" width="4668" height="309" transform="rotate(-90 7209.5 4669.51)" fill="#9A9A9A" stroke="#9A9A9A"/>
<rect id="Bleed_6" x="0.5" y="4360.51" width="7518" height="309" fill="#9A9A9A" stroke="#9A9A9A"/>
<path id="Bleed_7" d="M7060 461.006H7064V457.006H7060V461.006ZM7060 4210.01V4214.01H7064V4210.01H7060ZM1206 4210.01V4214.01H1216.02V4210.01V4206.01H1206V4210.01ZM1236.07 4210.01V4214.01H1256.12V4210.01V4206.01H1236.07V4210.01ZM1276.17 4210.01V4214.01H1296.22V4210.01V4206.01H1276.17V4210.01ZM1316.26 4210.01V4214.01H1336.31V4210.01V4206.01H1316.26V4210.01ZM1356.36 4210.01V4214.01H1376.41V4210.01V4206.01H1356.36V4210.01ZM1396.46 4210.01V4214.01H1416.5V4210.01V4206.01H1396.46V4210.01ZM1436.55 4210.01V4214.01H1456.6V4210.01V4206.01H1436.55V4210.01ZM1476.65 4210.01V4214.01H1496.7V4210.01V4206.01H1476.65V4210.01ZM1516.74 4210.01V4214.01H1536.79V4210.01V4206.01H1516.74V4210.01ZM1556.84 4210.01V4214.01H1576.89V4210.01V4206.01H1556.84V4210.01ZM1596.93 4210.01V4214.01H1616.98V4210.01V4206.01H1596.93V4210.01ZM1637.03 4210.01V4214.01H1657.08V4210.01V4206.01H1637.03V4210.01ZM1677.13 4210.01V4214.01H1697.17V4210.01V4206.01H1677.13V4210.01ZM1717.22 4210.01V4214.01H1737.27V4210.01V4206.01H1717.22V4210.01ZM1757.32 4210.01V4214.01H1777.37V4210.01V4206.01H1757.32V4210.01ZM1797.41 4210.01V4214.01H1817.46V4210.01V4206.01H1797.41V4210.01ZM1837.51 4210.01V4214.01H1857.56V4210.01V4206.01H1837.51V4210.01ZM1877.61 4210.01V4214.01H1897.65V4210.01V4206.01H1877.61V4210.01ZM1917.7 4210.01V4214.01H1937.75V4210.01V4206.01H1917.7V4210.01ZM1957.8 4210.01V4214.01H1977.85V4210.01V4206.01H1957.8V4210.01ZM1997.89 4210.01V4214.01H2017.94V4210.01V4206.01H1997.89V4210.01ZM2037.99 4210.01V4214.01H2058.04V4210.01V4206.01H2037.99V4210.01ZM2078.09 4210.01V4214.01H2098.13V4210.01V4206.01H2078.09V4210.01ZM2118.18 4210.01V4214.01H2138.23V4210.01V4206.01H2118.18V4210.01ZM2158.28 4210.01V4214.01H2178.33V4210.01V4206.01H2158.28V4210.01ZM2198.37 4210.01V4214.01H2218.42V4210.01V4206.01H2198.37V4210.01ZM2238.47 4210.01V4214.01H2258.52V4210.01V4206.01H2238.47V4210.01ZM2278.57 4210.01V4214.01H2298.61V4210.01V4206.01H2278.57V4210.01ZM2318.66 4210.01V4214.01H2338.71V4210.01V4206.01H2318.66V4210.01ZM2358.76 4210.01V4214.01H2378.81V4210.01V4206.01H2358.76V4210.01ZM2398.85 4210.01V4214.01H2418.9V4210.01V4206.01H2398.85V4210.01ZM2438.95 4210.01V4214.01H2459V4210.01V4206.01H2438.95V4210.01ZM2479.05 4210.01V4214.01H2499.09V4210.01V4206.01H2479.05V4210.01ZM2519.14 4210.01V4214.01H2539.19V4210.01V4206.01H2519.14V4210.01ZM2559.24 4210.01V4214.01H2579.29V4210.01V4206.01H2559.24V4210.01ZM2599.33 4210.01V4214.01H2619.38V4210.01V4206.01H2599.33V4210.01ZM2639.43 4210.01V4214.01H2659.48V4210.01V4206.01H2639.43V4210.01ZM2679.53 4210.01V4214.01H2699.57V4210.01V4206.01H2679.53V4210.01ZM2719.62 4210.01V4214.01H2739.67V4210.01V4206.01H2719.62V4210.01ZM2759.72 4210.01V4214.01H2779.77V4210.01V4206.01H2759.72V4210.01ZM2799.81 4210.01V4214.01H2819.86V4210.01V4206.01H2799.81V4210.01ZM2839.91 4210.01V4214.01H2859.96V4210.01V4206.01H2839.91V4210.01ZM2880.01 4210.01V4214.01H2900.05V4210.01V4206.01H2880.01V4210.01ZM2920.1 4210.01V4214.01H2940.15V4210.01V4206.01H2920.1V4210.01ZM2960.2 4210.01V4214.01H2980.24V4210.01V4206.01H2960.2V4210.01ZM3000.29 4210.01V4214.01H3020.34V4210.01V4206.01H3000.29V4210.01ZM3040.39 4210.01V4214.01H3060.44V4210.01V4206.01H3040.39V4210.01ZM3080.48 4210.01V4214.01H3100.53V4210.01V4206.01H3080.48V4210.01ZM3120.58 4210.01V4214.01H3140.63V4210.01V4206.01H3120.58V4210.01ZM3160.68 4210.01V4214.01H3180.72V4210.01V4206.01H3160.68V4210.01ZM3200.77 4210.01V4214.01H3220.82V4210.01V4206.01H3200.77V4210.01ZM3240.87 4210.01V4214.01H3260.92V4210.01V4206.01H3240.87V4210.01ZM3280.96 4210.01V4214.01H3301.01V4210.01V4206.01H3280.96V4210.01ZM3321.06 4210.01V4214.01H3341.11V4210.01V4206.01H3321.06V4210.01ZM3361.16 4210.01V4214.01H3381.2V4210.01V4206.01H3361.16V4210.01ZM3401.25 4210.01V4214.01H3421.3V4210.01V4206.01H3401.25V4210.01ZM3441.35 4210.01V4214.01H3461.4V4210.01V4206.01H3441.35V4210.01ZM3481.44 4210.01V4214.01H3501.49V4210.01V4206.01H3481.44V4210.01ZM3521.54 4210.01V4214.01H3541.59V4210.01V4206.01H3521.54V4210.01ZM3561.63 4210.01V4214.01H3581.68V4210.01V4206.01H3561.63V4210.01ZM3601.73 4210.01V4214.01H3621.78V4210.01V4206.01H3601.73V4210.01ZM3641.83 4210.01V4214.01H3661.87V4210.01V4206.01H3641.83V4210.01ZM3681.92 4210.01V4214.01H3701.97V4210.01V4206.01H3681.92V4210.01ZM3722.02 4210.01V4214.01H3742.06V4210.01V4206.01H3722.02V4210.01ZM3762.11 4210.01V4214.01H3782.16V4210.01V4206.01H3762.11V4210.01ZM3802.21 4210.01V4214.01H3822.26V4210.01V4206.01H3802.21V4210.01ZM3842.3 4210.01V4214.01H3862.35V4210.01V4206.01H3842.3V4210.01ZM3882.4 4210.01V4214.01H3902.45V4210.01V4206.01H3882.4V4210.01ZM3922.5 4210.01V4214.01H3942.54V4210.01V4206.01H3922.5V4210.01ZM3962.59 4210.01V4214.01H3982.64V4210.01V4206.01H3962.59V4210.01ZM4002.69 4210.01V4214.01H4022.73V4210.01V4206.01H4002.69V4210.01ZM4042.78 4210.01V4214.01H4062.83V4210.01V4206.01H4042.78V4210.01ZM4082.88 4210.01V4214.01H4102.93V4210.01V4206.01H4082.88V4210.01ZM4122.97 4210.01V4214.01H4143.02V4210.01V4206.01H4122.97V4210.01ZM4163.07 4210.01V4214.01H4183.12V4210.01V4206.01H4163.07V4210.01ZM4203.17 4210.01V4214.01H4223.21V4210.01V4206.01H4203.17V4210.01ZM4243.26 4210.01V4214.01H4263.31V4210.01V4206.01H4243.26V4210.01ZM4283.36 4210.01V4214.01H4303.4V4210.01V4206.01H4283.36V4210.01ZM4323.45 4210.01V4214.01H4343.5V4210.01V4206.01H4323.45V4210.01ZM4363.55 4210.01V4214.01H4383.6V4210.01V4206.01H4363.55V4210.01ZM4403.64 4210.01V4214.01H4423.69V4210.01V4206.01H4403.64V4210.01ZM4443.74 4210.01V4214.01H4463.79V4210.01V4206.01H4443.74V4210.01ZM4483.84 4210.01V4214.01H4503.88V4210.01V4206.01H4483.84V4210.01ZM4523.93 4210.01V4214.01H4543.98V4210.01V4206.01H4523.93V4210.01ZM4564.03 4210.01V4214.01H4584.07V4210.01V4206.01H4564.03V4210.01ZM4604.12 4210.01V4214.01H4624.17V4210.01V4206.01H4604.12V4210.01ZM4644.22 4210.01V4214.01H4664.27V4210.01V4206.01H4644.22V4210.01ZM4684.31 4210.01V4214.01H4704.36V4210.01V4206.01H4684.31V4210.01ZM4724.41 4210.01V4214.01H4744.46V4210.01V4206.01H4724.41V4210.01ZM4764.51 4210.01V4214.01H4784.55V4210.01V4206.01H4764.51V4210.01ZM4804.6 4210.01V4214.01H4824.65V4210.01V4206.01H4804.6V4210.01ZM4844.7 4210.01V4214.01H4864.74V4210.01V4206.01H4844.7V4210.01ZM4884.79 4210.01V4214.01H4904.84V4210.01V4206.01H4884.79V4210.01ZM4924.89 4210.01V4214.01H4944.94V4210.01V4206.01H4924.89V4210.01ZM4964.98 4210.01V4214.01H4985.03V4210.01V4206.01H4964.98V4210.01ZM5005.08 4210.01V4214.01H5025.13V4210.01V4206.01H5005.08V4210.01ZM5045.18 4210.01V4214.01H5065.22V4210.01V4206.01H5045.18V4210.01ZM5085.27 4210.01V4214.01H5105.32V4210.01V4206.01H5085.27V4210.01ZM5125.37 4210.01V4214.01H5145.41V4210.01V4206.01H5125.37V4210.01ZM5165.46 4210.01V4214.01H5185.51V4210.01V4206.01H5165.46V4210.01ZM5205.56 4210.01V4214.01H5225.61V4210.01V4206.01H5205.56V4210.01ZM5245.65 4210.01V4214.01H5265.7V4210.01V4206.01H5245.65V4210.01ZM5285.75 4210.01V4214.01H5305.8V4210.01V4206.01H5285.75V4210.01ZM5325.85 4210.01V4214.01H5345.89V4210.01V4206.01H5325.85V4210.01ZM5365.94 4210.01V4214.01H5385.99V4210.01V4206.01H5365.94V4210.01ZM5406.04 4210.01V4214.01H5426.08V4210.01V4206.01H5406.04V4210.01ZM5446.13 4210.01V4214.01H5466.18V4210.01V4206.01H5446.13V4210.01ZM5486.23 4210.01V4214.01H5506.28V4210.01V4206.01H5486.23V4210.01ZM5526.32 4210.01V4214.01H5546.37V4210.01V4206.01H5526.32V4210.01ZM5566.42 4210.01V4214.01H5586.47V4210.01V4206.01H5566.42V4210.01ZM5606.52 4210.01V4214.01H5626.56V4210.01V4206.01H5606.52V4210.01ZM5646.61 4210.01V4214.01H5666.66V4210.01V4206.01H5646.61V4210.01ZM5686.71 4210.01V4214.01H5706.75V4210.01V4206.01H5686.71V4210.01ZM5726.8 4210.01V4214.01H5746.85V4210.01V4206.01H5726.8V4210.01ZM5766.9 4210.01V4214.01H5786.95V4210.01V4206.01H5766.9V4210.01ZM5806.99 4210.01V4214.01H5827.04V4210.01V4206.01H5806.99V4210.01ZM5847.09 4210.01V4214.01H5867.14V4210.01V4206.01H5847.09V4210.01ZM5887.19 4210.01V4214.01H5907.23V4210.01V4206.01H5887.19V4210.01ZM5927.28 4210.01V4214.01H5947.33V4210.01V4206.01H5927.28V4210.01ZM5967.38 4210.01V4214.01H5987.42V4210.01V4206.01H5967.38V4210.01ZM6007.47 4210.01V4214.01H6027.52V4210.01V4206.01H6007.47V4210.01ZM6047.57 4210.01V4214.01H6067.62V4210.01V4206.01H6047.57V4210.01ZM6087.66 4210.01V4214.01H6107.71V4210.01V4206.01H6087.66V4210.01ZM6127.76 4210.01V4214.01H6147.81V4210.01V4206.01H6127.76V4210.01ZM6167.85 4210.01V4214.01H6187.9V4210.01V4206.01H6167.85V4210.01ZM6207.95 4210.01V4214.01H6228V4210.01V4206.01H6207.95V4210.01ZM6248.05 4210.01V4214.01H6268.09V4210.01V4206.01H6248.05V4210.01ZM6288.14 4210.01V4214.01H6308.19V4210.01V4206.01H6288.14V4210.01ZM6328.24 4210.01V4214.01H6348.29V4210.01V4206.01H6328.24V4210.01ZM6368.33 4210.01V4214.01H6388.38V4210.01V4206.01H6368.33V4210.01ZM6408.43 4210.01V4214.01H6428.48V4210.01V4206.01H6408.43V4210.01ZM6448.52 4210.01V4214.01H6468.57V4210.01V4206.01H6448.52V4210.01ZM6488.62 4210.01V4214.01H6508.67V4210.01V4206.01H6488.62V4210.01ZM6528.72 4210.01V4214.01H6548.76V4210.01V4206.01H6528.72V4210.01ZM6568.81 4210.01V4214.01H6588.86V4210.01V4206.01H6568.81V4210.01ZM6608.91 4210.01V4214.01H6628.96V4210.01V4206.01H6608.91V4210.01ZM6649 4210.01V4214.01H6669.05V4210.01V4206.01H6649V4210.01ZM6689.1 4210.01V4214.01H6709.15V4210.01V4206.01H6689.1V4210.01ZM6729.19 4210.01V4214.01H6749.24V4210.01V4206.01H6729.19V4210.01ZM6769.29 4210.01V4214.01H6789.34V4210.01V4206.01H6769.29V4210.01ZM6809.39 4210.01V4214.01H6829.43V4210.01V4206.01H6809.39V4210.01ZM6849.48 4210.01V4214.01H6869.53V4210.01V4206.01H6849.48V4210.01ZM6889.58 4210.01V4214.01H6909.63V4210.01V4206.01H6889.58V4210.01ZM6929.67 4210.01V4214.01H6949.72V4210.01V4206.01H6929.67V4210.01ZM6969.77 4210.01V4214.01H6989.82V4210.01V4206.01H6969.77V4210.01ZM7009.86 4210.01V4214.01H7029.91V4210.01V4206.01H7009.86V4210.01ZM7049.96 4210.01V4214.01H7060V4210.01V4206.01H7049.96V4210.01ZM7060 4210.01H7064V4200.04H7060H7056V4210.01H7060ZM7060 4180.09H7064V4160.15H7060H7056V4180.09H7060ZM7060 4140.21H7064V4120.27H7060H7056V4140.21H7060ZM7060 4100.33H7064V4080.39H7060H7056V4100.33H7060ZM7060 4060.44H7064V4040.5H7060H7056V4060.44H7060ZM7060 4020.56H7064V4000.62H7060H7056V4020.56H7060ZM7060 3980.68H7064V3960.74H7060H7056V3980.68H7060ZM7060 3940.8H7064V3920.85H7060H7056V3940.8H7060ZM7060 3900.91H7064V3880.97H7060H7056V3900.91H7060ZM7060 3861.03H7064V3841.09H7060H7056V3861.03H7060ZM7060 3821.15H7064V3801.21H7060H7056V3821.15H7060ZM7060 3781.26H7064V3761.32H7060H7056V3781.26H7060ZM7060 3741.38H7064V3721.44H7060H7056V3741.38H7060ZM7060 3701.5H7064V3681.56H7060H7056V3701.5H7060ZM7060 3661.61H7064V3641.67H7060H7056V3661.61H7060ZM7060 3621.73H7064V3601.79H7060H7056V3621.73H7060ZM7060 3581.85H7064V3561.91H7060H7056V3581.85H7060ZM7060 3541.97H7064V3522.02H7060H7056V3541.97H7060ZM7060 3502.08H7064V3482.14H7060H7056V3502.08H7060ZM7060 3462.2H7064V3442.26H7060H7056V3462.2H7060ZM7060 3422.32H7064V3402.38H7060H7056V3422.32H7060ZM7060 3382.43H7064V3362.49H7060H7056V3382.43H7060ZM7060 3342.55H7064V3322.61H7060H7056V3342.55H7060ZM7060 3302.67H7064V3282.73H7060H7056V3302.67H7060ZM7060 3262.79H7064V3242.84H7060H7056V3262.79H7060ZM7060 3222.9H7064V3202.96H7060H7056V3222.9H7060ZM7060 3183.02H7064V3163.08H7060H7056V3183.02H7060ZM7060 3143.14H7064V3123.2H7060H7056V3143.14H7060ZM7060 3103.25H7064V3083.31H7060H7056V3103.25H7060ZM7060 3063.37H7064V3043.43H7060H7056V3063.37H7060ZM7060 3023.49H7064V3003.55H7060H7056V3023.49H7060ZM7060 2983.6H7064V2963.66H7060H7056V2983.6H7060ZM7060 2943.72H7064V2923.78H7060H7056V2943.72H7060ZM7060 2903.84H7064V2883.9H7060H7056V2903.84H7060ZM7060 2863.96H7064V2844.01H7060H7056V2863.96H7060ZM7060 2824.07H7064V2804.13H7060H7056V2824.07H7060ZM7060 2784.19H7064V2764.25H7060H7056V2784.19H7060ZM7060 2744.31H7064V2724.36H7060H7056V2744.31H7060ZM7060 2704.42H7064V2684.48H7060H7056V2704.42H7060ZM7060 2664.54H7064V2644.6H7060H7056V2664.54H7060ZM7060 2624.66H7064V2604.72H7060H7056V2624.66H7060ZM7060 2584.77H7064V2564.83H7060H7056V2584.77H7060ZM7060 2544.89H7064V2524.95H7060H7056V2544.89H7060ZM7060 2505.01H7064V2485.07H7060H7056V2505.01H7060ZM7060 2465.12H7064V2445.18H7060H7056V2465.12H7060ZM7060 2425.24H7064V2405.3H7060H7056V2425.24H7060ZM7060 2385.36H7064V2365.42H7060H7056V2385.36H7060ZM7060 2345.48H7064V2325.53H7060H7056V2345.48H7060ZM7060 2305.59H7064V2285.65H7060H7056V2305.59H7060ZM7060 2265.71H7064V2245.77H7060H7056V2265.71H7060ZM7060 2225.83H7064V2205.88H7060H7056V2225.83H7060ZM7060 2185.94H7064V2166H7060H7056V2185.94H7060ZM7060 2146.06H7064V2126.12H7060H7056V2146.06H7060ZM7060 2106.18H7064V2086.24H7060H7056V2106.18H7060ZM7060 2066.29H7064V2046.35H7060H7056V2066.29H7060ZM7060 2026.41H7064V2006.47H7060H7056V2026.41H7060ZM7060 1986.53H7064V1966.59H7060H7056V1986.53H7060ZM7060 1946.65H7064V1926.7H7060H7056V1946.65H7060ZM7060 1906.76H7064V1886.82H7060H7056V1906.76H7060ZM7060 1866.88H7064V1846.94H7060H7056V1866.88H7060ZM7060 1827H7064V1807.06H7060H7056V1827H7060ZM7060 1787.11H7064V1767.17H7060H7056V1787.11H7060ZM7060 1747.23H7064V1727.29H7060H7056V1747.23H7060ZM7060 1707.35H7064V1687.41H7060H7056V1707.35H7060ZM7060 1667.47H7064V1647.52H7060H7056V1667.47H7060ZM7060 1627.58H7064V1607.64H7060H7056V1627.58H7060ZM7060 1587.7H7064V1567.76H7060H7056V1587.7H7060ZM7060 1547.82H7064V1527.88H7060H7056V1547.82H7060ZM7060 1507.93H7064V1487.99H7060H7056V1507.93H7060ZM7060 1468.05H7064V1448.11H7060H7056V1468.05H7060ZM7060 1428.17H7064V1408.23H7060H7056V1428.17H7060ZM7060 1388.29H7064V1368.35H7060H7056V1388.29H7060ZM7060 1348.4H7064V1328.46H7060H7056V1348.4H7060ZM7060 1308.52H7064V1288.58H7060H7056V1308.52H7060ZM7060 1268.64H7064V1248.7H7060H7056V1268.64H7060ZM7060 1228.76H7064V1208.81H7060H7056V1228.76H7060ZM7060 1188.87H7064V1168.93H7060H7056V1188.87H7060ZM7060 1148.99H7064V1129.05H7060H7056V1148.99H7060ZM7060 1109.11H7064V1089.17H7060H7056V1109.11H7060ZM7060 1069.22H7064V1049.28H7060H7056V1069.22H7060ZM7060 1029.34H7064V1009.4H7060H7056V1029.34H7060ZM7060 989.459H7064V969.517H7060H7056V989.459H7060ZM7060 949.576H7064V929.634H7060H7056V949.576H7060ZM7060 909.693H7064V889.751H7060H7056V909.693H7060ZM7060 869.81H7064V849.869H7060H7056V869.81H7060ZM7060 829.927H7064V809.986H7060H7056V829.927H7060ZM7060 790.044H7064V770.103H7060H7056V790.044H7060ZM7060 750.162H7064V730.22H7060H7056V750.162H7060ZM7060 710.279H7064V690.337H7060H7056V710.279H7060ZM7060 670.396H7064V650.455H7060H7056V670.396H7060ZM7060 630.513H7064V610.572H7060H7056V630.513H7060ZM7060 590.63H7064V570.689H7060H7056V590.63H7060ZM7060 550.748H7064V530.806H7060H7056V550.748H7060ZM7060 510.865H7064V490.923H7060H7056V510.865H7060ZM7060 470.982H7064V461.006H7060H7056V470.982H7060ZM7060 461.006V457.006H7049.98V461.006V465.006H7060V461.006ZM7029.93 461.006V457.006H7009.88V461.006V465.006H7029.93V461.006ZM6989.83 461.006V457.006H6969.78V461.006V465.006H6989.83V461.006ZM6949.74 461.006V457.006H6929.69V461.006V465.006H6949.74V461.006ZM6909.64 461.006V457.006H6889.59V461.006V465.006H6909.64V461.006ZM6869.54 461.006V457.006H6849.5V461.006V465.006H6869.54V461.006ZM6829.45 461.006V457.006H6809.4V461.006V465.006H6829.45V461.006ZM6789.35 461.006V457.006H6769.3V461.006V465.006H6789.35V461.006ZM6749.26 461.006V457.006H6729.21V461.006V465.006H6749.26V461.006ZM6709.16 461.006V457.006H6689.11V461.006V465.006H6709.16V461.006ZM6669.06 461.006V457.006H6649.02V461.006V465.006H6669.06V461.006ZM6628.97 461.006V457.006H6608.92V461.006V465.006H6628.97V461.006ZM6588.87 461.006V457.006H6568.83V461.006V465.006H6588.87V461.006ZM6548.78 461.006V457.006H6528.73V461.006V465.006H6548.78V461.006ZM6508.68 461.006V457.006H6488.63V461.006V465.006H6508.68V461.006ZM6468.59 461.006V457.006H6448.54V461.006V465.006H6468.59V461.006ZM6428.49 461.006V457.006H6408.44V461.006V465.006H6428.49V461.006ZM6388.39 461.006V457.006H6368.35V461.006V465.006H6388.39V461.006ZM6348.3 461.006V457.006H6328.25V461.006V465.006H6348.3V461.006ZM6308.2 461.006V457.006H6288.15V461.006V465.006H6308.2V461.006ZM6268.11 461.006V457.006H6248.06V461.006V465.006H6268.11V461.006ZM6228.01 461.006V457.006H6207.96V461.006V465.006H6228.01V461.006ZM6187.91 461.006V457.006H6167.87V461.006V465.006H6187.91V461.006ZM6147.82 461.006V457.006H6127.77V461.006V465.006H6147.82V461.006ZM6107.72 461.006V457.006H6087.67V461.006V465.006H6107.72V461.006ZM6067.63 461.006V457.006H6047.58V461.006V465.006H6067.63V461.006ZM6027.53 461.006V457.006H6007.48V461.006V465.006H6027.53V461.006ZM5987.43 461.006V457.006H5967.39V461.006V465.006H5987.43V461.006ZM5947.34 461.006V457.006H5927.29V461.006V465.006H5947.34V461.006ZM5907.24 461.006V457.006H5887.19V461.006V465.006H5907.24V461.006ZM5867.15 461.006V457.006H5847.1V461.006V465.006H5867.15V461.006ZM5827.05 461.006V457.006H5807V461.006V465.006H5827.05V461.006ZM5786.95 461.006V457.006H5766.91V461.006V465.006H5786.95V461.006ZM5746.86 461.006V457.006H5726.81V461.006V465.006H5746.86V461.006ZM5706.76 461.006V457.006H5686.71V461.006V465.006H5706.76V461.006ZM5666.67 461.006V457.006H5646.62V461.006V465.006H5666.67V461.006ZM5626.57 461.006V457.006H5606.52V461.006V465.006H5626.57V461.006ZM5586.47 461.006V457.006H5566.43V461.006V465.006H5586.47V461.006ZM5546.38 461.006V457.006H5526.33V461.006V465.006H5546.38V461.006ZM5506.28 461.006V457.006H5486.23V461.006V465.006H5506.28V461.006ZM5466.19 461.006V457.006H5446.14V461.006V465.006H5466.19V461.006ZM5426.09 461.006V457.006H5406.04V461.006V465.006H5426.09V461.006ZM5386 461.006V457.006H5365.95V461.006V465.006H5386V461.006ZM5345.9 461.006V457.006H5325.85V461.006V465.006H5345.9V461.006ZM5305.8 461.006V457.006H5285.76V461.006V465.006H5305.8V461.006ZM5265.71 461.006V457.006H5245.66V461.006V465.006H5265.71V461.006ZM5225.61 461.006V457.006H5205.56V461.006V465.006H5225.61V461.006ZM5185.52 461.006V457.006H5165.47V461.006V465.006H5185.52V461.006ZM5145.42 461.006V457.006H5125.37V461.006V465.006H5145.42V461.006ZM5105.32 461.006V457.006H5085.28V461.006V465.006H5105.32V461.006ZM5065.23 461.006V457.006H5045.18V461.006V465.006H5065.23V461.006ZM5025.13 461.006V457.006H5005.08V461.006V465.006H5025.13V461.006ZM4985.04 461.006V457.006H4964.99V461.006V465.006H4985.04V461.006ZM4944.94 461.006V457.006H4924.89V461.006V465.006H4944.94V461.006ZM4904.84 461.006V457.006H4884.8V461.006V465.006H4904.84V461.006ZM4864.75 461.006V457.006H4844.7V461.006V465.006H4864.75V461.006ZM4824.65 461.006V457.006H4804.6V461.006V465.006H4824.65V461.006ZM4784.56 461.006V457.006H4764.51V461.006V465.006H4784.56V461.006ZM4744.46 461.006V457.006H4724.41V461.006V465.006H4744.46V461.006ZM4704.37 461.006V457.006H4684.32V461.006V465.006H4704.37V461.006ZM4664.27 461.006V457.006H4644.22V461.006V465.006H4664.27V461.006ZM4624.17 461.006V457.006H4604.13V461.006V465.006H4624.17V461.006ZM4584.08 461.006V457.006H4564.03V461.006V465.006H4584.08V461.006ZM4543.98 461.006V457.006H4523.94V461.006V465.006H4543.98V461.006ZM4503.89 461.006V457.006H4483.84V461.006V465.006H4503.89V461.006ZM4463.79 461.006V457.006H4443.74V461.006V465.006H4463.79V461.006ZM4423.7 461.006V457.006H4403.65V461.006V465.006H4423.7V461.006ZM4383.6 461.006V457.006H4363.55V461.006V465.006H4383.6V461.006ZM4343.5 461.006V457.006H4323.46V461.006V465.006H4343.5V461.006ZM4303.41 461.006V457.006H4283.36V461.006V465.006H4303.41V461.006ZM4263.31 461.006V457.006H4243.27V461.006V465.006H4263.31V461.006ZM4223.22 461.006V457.006H4203.17V461.006V465.006H4223.22V461.006ZM4183.12 461.006V457.006H4163.07V461.006V465.006H4183.12V461.006ZM4143.03 461.006V457.006H4122.98V461.006V465.006H4143.03V461.006ZM4102.93 461.006V457.006H4082.88V461.006V465.006H4102.93V461.006ZM4062.83 461.006V457.006H4042.79V461.006V465.006H4062.83V461.006ZM4022.74 461.006V457.006H4002.69V461.006V465.006H4022.74V461.006ZM3982.64 461.006V457.006H3962.6V461.006V465.006H3982.64V461.006ZM3942.55 461.006V457.006H3922.5V461.006V465.006H3942.55V461.006ZM3902.45 461.006V457.006H3882.4V461.006V465.006H3902.45V461.006ZM3862.36 461.006V457.006H3842.31V461.006V465.006H3862.36V461.006ZM3822.26 461.006V457.006H3802.21V461.006V465.006H3822.26V461.006ZM3782.16 461.006V457.006H3762.12V461.006V465.006H3782.16V461.006ZM3742.07 461.006V457.006H3722.02V461.006V465.006H3742.07V461.006ZM3701.97 461.006V457.006H3681.93V461.006V465.006H3701.97V461.006ZM3661.88 461.006V457.006H3641.83V461.006V465.006H3661.88V461.006ZM3621.78 461.006V457.006H3601.73V461.006V465.006H3621.78V461.006ZM3581.69 461.006V457.006H3561.64V461.006V465.006H3581.69V461.006ZM3541.59 461.006V457.006H3521.54V461.006V465.006H3541.59V461.006ZM3501.49 461.006V457.006H3481.45V461.006V465.006H3501.49V461.006ZM3461.4 461.006V457.006H3441.35V461.006V465.006H3461.4V461.006ZM3421.3 461.006V457.006H3401.26V461.006V465.006H3421.3V461.006ZM3381.21 461.006V457.006H3361.16V461.006V465.006H3381.21V461.006ZM3341.11 461.006V457.006H3321.06V461.006V465.006H3341.11V461.006ZM3301.02 461.006V457.006H3280.97V461.006V465.006H3301.02V461.006ZM3260.92 461.006V457.006H3240.87V461.006V465.006H3260.92V461.006ZM3220.82 461.006V457.006H3200.78V461.006V465.006H3220.82V461.006ZM3180.73 461.006V457.006H3160.68V461.006V465.006H3180.73V461.006ZM3140.63 461.006V457.006H3120.59V461.006V465.006H3140.63V461.006ZM3100.54 461.006V457.006H3080.49V461.006V465.006H3100.54V461.006ZM3060.44 461.006V457.006H3040.39V461.006V465.006H3060.44V461.006ZM3020.35 461.006V457.006H3000.3V461.006V465.006H3020.35V461.006ZM2980.25 461.006V457.006H2960.2V461.006V465.006H2980.25V461.006ZM2940.15 461.006V457.006H2920.11V461.006V465.006H2940.15V461.006ZM2900.06 461.006V457.006H2880.01V461.006V465.006H2900.06V461.006ZM2859.96 461.006V457.006H2839.92V461.006V465.006H2859.96V461.006ZM2819.87 461.006V457.006H2799.82V461.006V465.006H2819.87V461.006ZM2779.77 461.006V457.006H2759.72V461.006V465.006H2779.77V461.006ZM2739.68 461.006V457.006H2719.63V461.006V465.006H2739.68V461.006ZM2699.58 461.006V457.006H2679.53V461.006V465.006H2699.58V461.006ZM2659.48 461.006V457.006H2639.44V461.006V465.006H2659.48V461.006ZM2619.39 461.006V457.006H2599.34V461.006V465.006H2619.39V461.006ZM2579.29 461.006V457.006H2559.25V461.006V465.006H2579.29V461.006ZM2539.2 461.006V457.006H2519.15V461.006V465.006H2539.2V461.006ZM2499.1 461.006V457.006H2479.05V461.006V465.006H2499.1V461.006ZM2459.01 461.006V457.006H2438.96V461.006V465.006H2459.01V461.006ZM2418.91 461.006V457.006H2398.86V461.006V465.006H2418.91V461.006ZM2378.81 461.006V457.006H2358.77V461.006V465.006H2378.81V461.006ZM2338.72 461.006V457.006H2318.67V461.006V465.006H2338.72V461.006ZM2298.62 461.006V457.006H2278.58V461.006V465.006H2298.62V461.006ZM2258.53 461.006V457.006H2238.48V461.006V465.006H2258.53V461.006ZM2218.43 461.006V457.006H2198.38V461.006V465.006H2218.43V461.006ZM2178.34 461.006V457.006H2158.29V461.006V465.006H2178.34V461.006ZM2138.24 461.006V457.006H2118.19V461.006V465.006H2138.24V461.006ZM2098.15 461.006V457.006H2078.1V461.006V465.006H2098.15V461.006ZM2058.05 461.006V457.006H2038V461.006V465.006H2058.05V461.006ZM2017.95 461.006V457.006H1997.91V461.006V465.006H2017.95V461.006ZM1977.86 461.006V457.006H1957.81V461.006V465.006H1977.86V461.006ZM1937.76 461.006V457.006H1917.71V461.006V465.006H1937.76V461.006ZM1897.67 461.006V457.006H1877.62V461.006V465.006H1897.67V461.006ZM1857.57 461.006V457.006H1837.52V461.006V465.006H1857.57V461.006ZM1817.47 461.006V457.006H1797.43V461.006V465.006H1817.47V461.006ZM1777.38 461.006V457.006H1757.33V461.006V465.006H1777.38V461.006ZM1737.28 461.006V457.006H1717.24V461.006V465.006H1737.28V461.006ZM1697.19 461.006V457.006H1677.14V461.006V465.006H1697.19V461.006ZM1657.09 461.006V457.006H1637.04V461.006V465.006H1657.09V461.006ZM1617 461.006V457.006H1596.95V461.006V465.006H1617V461.006ZM1576.9 461.006V457.006H1556.85V461.006V465.006H1576.9V461.006ZM1536.81 461.006V457.006H1516.76V461.006V465.006H1536.81V461.006ZM1496.71 461.006V457.006H1476.66V461.006V465.006H1496.71V461.006ZM1456.61 461.006V457.006H1436.57V461.006V465.006H1456.61V461.006ZM1416.52 461.006V457.006H1396.47V461.006V465.006H1416.52V461.006ZM1376.42 461.006V457.006H1356.37V461.006V465.006H1376.42V461.006ZM1336.33 461.006V457.006H1316.28V461.006V465.006H1336.33V461.006ZM1296.23 461.006V457.006H1276.18V461.006V465.006H1296.23V461.006ZM1256.14 461.006V457.006H1236.09V461.006V465.006H1256.14V461.006ZM1216.04 461.006V457.006H1206V461.006V465.006H1216.04V461.006Z" fill="#9A9A9A"/>
</g>
</g>
</g>
</svg>
