<svg width="7520" height="4669" viewBox="0 0 7520 4669" fill="none" xmlns="http://www.w3.org/2000/svg">
<g id="Swallow Tail">
<rect id="zone-primary" x="0.000244141" width="7519" height="4669" fill="white"/>
<g id="Bleed">
<g id="Bleed_2">
<path id="Bleed_3" d="M7518.5 0.5V998.941L0.500244 174.552V0.5H7518.5Z" fill="#9A9A9A" stroke="#9A9A9A"/>
<rect id="Bleed_4" x="0.500244" y="4668.5" width="4668" height="1205" transform="rotate(-90 0.500244 4668.5)" fill="#9A9A9A" stroke="#9A9A9A"/>
<path id="Bleed_5" d="M5873.71 2334.66L7518.67 689.697V3979.62L5873.71 2334.66Z" fill="#9A9A9A" stroke="#9A9A9A"/>
<path id="Bleed_6" d="M7518.5 4668.5V3670.06L0.500244 4494.45V4668.5H7518.5Z" fill="#9A9A9A" stroke="#9A9A9A"/>
<path id="thread" d="M1206 460L6892 1085L5664.5 2331L6892 3577L1206 4209" stroke="#9A9A9A" stroke-width="8" stroke-dasharray="20 20"/>
</g>
<g id="GolfStatus Tag">
<g id="Back - Dark Tag">
<path id="Vector" d="M1331.81 3850.98C1331.81 3823.3 1354.02 3801.24 1381.71 3801.24C1393.49 3801.24 1403.49 3803.45 1412.82 3809.17C1415.41 3810.81 1415.99 3813.16 1414.45 3816.04L1413.06 3818.35C1411.57 3821.38 1409.21 3821.76 1406.18 3820.13C1395.51 3814.36 1388.92 3814.22 1381.66 3814.22C1362.19 3814.22 1346.57 3830.37 1346.57 3850.79C1346.57 3869.15 1358.92 3887.08 1383.59 3887.08C1391.95 3887.08 1399.07 3885.01 1405.51 3880.92V3861.89H1383.88C1380.7 3861.89 1378.92 3859.97 1378.92 3856.85V3855.21C1378.92 3852.04 1380.7 3850.26 1383.88 3850.26H1413.88C1417.05 3850.26 1418.83 3852.04 1418.83 3855.21V3882.9C1418.83 3885.49 1417.72 3887.7 1414.6 3890.15C1403.63 3898.23 1391.71 3900.15 1382.96 3900.15C1353.2 3900.15 1331.86 3877.95 1331.86 3850.98" fill="white"/>
<path id="Vector_2" d="M1432.53 3850.7C1432.53 3823.45 1454.74 3801.24 1482.43 3801.24C1510.13 3801.24 1532.34 3823.45 1532.34 3850.7C1532.34 3877.95 1510.13 3900.15 1482.43 3900.15C1454.74 3900.15 1432.53 3877.95 1432.53 3850.7ZM1517.53 3850.7C1517.53 3830.03 1501.76 3814.27 1482.43 3814.27C1463.11 3814.27 1447.34 3830.03 1447.34 3850.7C1447.34 3871.36 1463.11 3887.12 1482.43 3887.12C1501.76 3887.12 1517.53 3871.36 1517.53 3850.7Z" fill="white"/>
<path id="Vector_3" d="M1548.73 3893.76V3807.73C1548.73 3804.56 1550.51 3802.78 1553.68 3802.78H1558.35C1561.52 3802.78 1563.3 3804.56 1563.3 3807.73V3886.79H1602.1C1605.27 3886.79 1607.15 3888.57 1607.15 3891.74V3893.81C1607.15 3896.98 1605.22 3898.76 1602.1 3898.76H1553.73C1550.56 3898.76 1548.78 3896.98 1548.78 3893.81" fill="white"/>
<path id="Vector_4" d="M1680.99 3807.67V3809.74C1680.99 3812.91 1679.21 3814.69 1676.04 3814.69H1634.12V3845.79H1670.03C1673.2 3845.79 1675.08 3847.56 1675.08 3850.74V3852.51C1675.08 3855.69 1673.16 3857.56 1670.03 3857.56H1634.12V3893.7C1634.12 3896.87 1632.34 3898.65 1629.17 3898.65H1624.5C1621.33 3898.65 1619.55 3896.87 1619.55 3893.7V3807.67C1619.55 3804.5 1621.33 3802.72 1624.5 3802.72H1676.04C1679.21 3802.72 1680.99 3804.5 1680.99 3807.67Z" fill="white"/>
<path id="Vector_5" d="M1690.56 3880.73C1689.22 3877.7 1690.85 3875.4 1693.83 3874.58L1697.82 3873.62C1700.85 3872.95 1702.48 3874.05 1703.98 3876.89C1707.39 3882.8 1714.65 3887.41 1724.26 3887.41C1736.62 3887.41 1744.12 3881.41 1744.12 3873.19C1744.12 3865.93 1738.11 3861.41 1730.27 3858.53L1716.04 3853.72C1697.97 3847.72 1693.59 3836.85 1693.59 3827.96C1693.59 3811.38 1708.11 3801.24 1724.7 3801.24C1739.79 3801.24 1750.47 3808.5 1754.84 3819.31C1756.09 3822.34 1754.55 3824.65 1751.57 3825.46L1748.16 3826.57C1745.13 3827.39 1743.21 3826.28 1741.86 3823.4C1738.69 3817.1 1732.82 3814.07 1724.89 3814.07C1715.85 3814.07 1708.3 3819.02 1708.3 3827.48C1708.3 3831.47 1709.55 3836.66 1720.51 3840.8L1734.74 3846.13C1750.9 3851.18 1758.3 3861.89 1758.3 3872.18C1758.3 3889.43 1744.6 3900.1 1724.6 3900.1C1707.63 3900.1 1695.56 3891.88 1690.61 3880.64" fill="white"/>
<path id="Vector_6" d="M1844.45 3807.67V3809.74C1844.45 3812.91 1842.67 3814.69 1839.5 3814.69H1812.77V3893.75C1812.77 3896.92 1810.99 3898.7 1807.82 3898.7H1803.3C1800.13 3898.7 1798.35 3896.92 1798.35 3893.75V3814.69H1771.62C1768.59 3814.69 1766.66 3812.91 1766.66 3809.74V3807.67C1766.66 3804.5 1768.59 3802.72 1771.62 3802.72H1839.45C1842.63 3802.72 1844.41 3804.5 1844.41 3807.67" fill="white"/>
<path id="Vector_7" d="M1840.51 3892.88L1873.54 3806.71C1874.5 3804.12 1876.57 3802.72 1879.31 3802.72H1887.24C1890.13 3802.72 1892.05 3804.12 1893.01 3806.71L1926.33 3892.88C1927.58 3896.3 1926.19 3898.65 1922.48 3898.65H1918.11C1915.23 3898.65 1913.3 3897.4 1912.2 3894.66L1906.28 3879.04H1860.51L1854.6 3894.66C1853.49 3897.4 1851.72 3898.65 1848.83 3898.65H1844.31C1840.61 3898.65 1839.12 3896.34 1840.47 3892.88M1902.15 3867.27L1883.25 3816.85L1864.6 3867.27H1902.15Z" fill="white"/>
<path id="Vector_8" d="M1999.89 3807.67V3809.74C1999.89 3812.91 1998.11 3814.69 1994.93 3814.69H1968.2V3893.75C1968.2 3896.92 1966.42 3898.7 1963.25 3898.7H1958.73C1955.56 3898.7 1953.78 3896.92 1953.78 3893.75V3814.69H1927.05C1924.02 3814.69 1922.1 3812.91 1922.1 3809.74V3807.67C1922.1 3804.5 1924.02 3802.72 1927.05 3802.72H1994.89C1998.06 3802.72 1999.84 3804.5 1999.84 3807.67" fill="white"/>
<path id="Vector_9" d="M2014.12 3863.04V3807.67C2014.12 3804.5 2016.04 3802.72 2019.07 3802.72H2023.73C2026.9 3802.72 2028.68 3804.5 2028.68 3807.67V3863.04C2028.68 3879.19 2039.64 3887.17 2052.24 3887.17C2064.84 3887.17 2075.94 3879.24 2075.94 3863.04V3807.67C2075.94 3804.5 2077.72 3802.72 2080.89 3802.72H2085.41C2088.59 3802.72 2090.51 3804.5 2090.51 3807.67V3863.04C2090.51 3887.41 2072.96 3900.19 2052.29 3900.19C2031.62 3900.19 2014.21 3887.45 2014.21 3863.04" fill="white"/>
<path id="Vector_10" d="M2105.51 3880.73C2104.17 3877.7 2105.8 3875.4 2108.78 3874.58L2112.77 3873.62C2115.8 3872.95 2117.43 3874.05 2118.92 3876.89C2122.34 3882.8 2129.6 3887.41 2139.21 3887.41C2151.57 3887.41 2159.07 3881.41 2159.07 3873.19C2159.07 3865.93 2153.06 3861.41 2145.22 3858.53L2130.99 3853.72C2112.91 3847.72 2108.54 3836.85 2108.54 3827.96C2108.54 3811.38 2123.06 3801.24 2139.65 3801.24C2154.74 3801.24 2165.42 3808.5 2169.79 3819.31C2171.04 3822.34 2169.5 3824.65 2166.52 3825.46L2163.11 3826.57C2160.08 3827.39 2158.16 3826.28 2156.81 3823.4C2153.64 3817.1 2147.77 3814.07 2139.84 3814.07C2130.8 3814.07 2123.25 3819.02 2123.25 3827.48C2123.25 3831.47 2124.5 3836.66 2135.46 3840.8L2149.69 3846.13C2165.85 3851.18 2173.25 3861.89 2173.25 3872.18C2173.25 3889.43 2159.55 3900.1 2139.55 3900.1C2122.58 3900.1 2110.51 3891.88 2105.56 3880.64" fill="white"/>
<path id="Vector_11" d="M1833.45 3763.27V3722.22H1842.29C1843.93 3722.22 1845.32 3722.42 1846.57 3722.85C1847.82 3723.28 1848.93 3724 1849.94 3725.11C1850.95 3726.17 1851.62 3727.46 1852 3728.9C1852.39 3730.35 1852.58 3732.32 1852.58 3734.77C1852.58 3736.59 1852.49 3738.18 1852.24 3739.43C1852.05 3740.68 1851.57 3741.88 1850.9 3742.99C1850.08 3744.33 1849.02 3745.39 1847.68 3746.11C1846.33 3746.88 1844.55 3747.22 1842.39 3747.22H1839.41V3763.27H1833.54H1833.45ZM1839.31 3727.75V3741.69H1842.15C1843.35 3741.69 1844.26 3741.5 1844.94 3741.16C1845.61 3740.82 1846.09 3740.34 1846.38 3739.72C1846.67 3739.14 1846.86 3738.42 1846.91 3737.6C1846.96 3736.74 1847 3735.83 1847 3734.77C1847 3733.81 1847 3732.89 1846.96 3732.03C1846.96 3731.16 1846.76 3730.39 1846.43 3729.77C1846.14 3729.1 1845.66 3728.62 1845.03 3728.28C1844.41 3727.94 1843.54 3727.75 1842.39 3727.75H1839.31Z" fill="white"/>
<path id="Vector_12" d="M1868.97 3731.94C1868.97 3730.31 1869.26 3728.82 1869.84 3727.57C1870.42 3726.32 1871.19 3725.26 1872.15 3724.39C1873.06 3723.58 1874.12 3722.95 1875.27 3722.57C1876.43 3722.14 1877.63 3721.94 1878.83 3721.94C1880.03 3721.94 1881.19 3722.14 1882.39 3722.57C1883.54 3723 1884.65 3723.63 1885.61 3724.39C1886.52 3725.26 1887.29 3726.32 1887.87 3727.57C1888.45 3728.82 1888.73 3730.31 1888.73 3731.94V3753.61C1888.73 3755.34 1888.45 3756.83 1887.87 3758.04C1887.29 3759.24 1886.52 3760.29 1885.61 3761.11C1884.65 3761.98 1883.59 3762.6 1882.39 3763.03C1881.19 3763.47 1880.03 3763.66 1878.83 3763.66C1877.63 3763.66 1876.47 3763.47 1875.27 3763.03C1874.12 3762.6 1873.06 3761.98 1872.15 3761.11C1871.19 3760.29 1870.42 3759.29 1869.84 3758.04C1869.26 3756.79 1868.97 3755.34 1868.97 3753.61V3731.94ZM1874.84 3753.61C1874.84 3755.06 1875.22 3756.07 1876.04 3756.74C1876.81 3757.41 1877.77 3757.75 1878.83 3757.75C1879.89 3757.75 1880.85 3757.41 1881.62 3756.74C1882.39 3756.07 1882.82 3755.01 1882.82 3753.61V3731.94C1882.82 3730.5 1882.44 3729.49 1881.62 3728.82C1880.85 3728.14 1879.89 3727.81 1878.83 3727.81C1877.77 3727.81 1876.81 3728.14 1876.04 3728.82C1875.27 3729.49 1874.84 3730.55 1874.84 3731.94V3753.61Z" fill="white"/>
<path id="Vector_13" d="M1936.14 3722.22L1930.03 3763.27H1924.5L1919.98 3736.64H1919.89L1915.46 3763.27H1909.94L1903.83 3722.22H1910.08L1913.01 3748.27H1913.11L1917.72 3722.22H1922.24L1927.05 3748.95H1927.15L1929.98 3722.22H1936.23H1936.14Z" fill="white"/>
<path id="Vector_14" d="M1952.19 3763.27V3722.22H1969.74V3727.75H1958.11V3739.81H1968.25V3745.34H1958.11V3757.4H1969.74V3763.27H1952.19Z" fill="white"/>
<path id="Vector_15" d="M1985.95 3763.27V3722.22H1995.42C2002.34 3722.22 2005.8 3726.26 2005.8 3734.29C2005.8 3736.69 2005.42 3738.76 2004.7 3740.44C2003.93 3742.12 2002.63 3743.51 2000.75 3744.52L2007.1 3763.27H2000.85L1995.37 3745.73H1991.86V3763.27H1985.99H1985.95ZM1991.86 3727.75V3740.54H1995.22C1996.28 3740.54 1997.1 3740.39 1997.72 3740.1C1998.35 3739.81 1998.83 3739.38 1999.17 3738.85C1999.46 3738.32 1999.7 3737.65 1999.79 3736.88C1999.89 3736.11 1999.98 3735.2 1999.98 3734.14C1999.98 3733.09 1999.94 3732.17 1999.79 3731.4C1999.7 3730.64 1999.46 3729.91 1999.12 3729.34C1998.4 3728.28 1997 3727.7 1994.98 3727.7H1991.91L1991.86 3727.75Z" fill="white"/>
<path id="Vector_16" d="M2022.97 3763.27V3722.22H2040.51V3727.75H2028.88V3739.81H2039.02V3745.34H2028.88V3757.4H2040.51V3763.27H2022.97Z" fill="white"/>
<path id="Vector_17" d="M2056.71 3763.27V3722.22H2065.42C2068.78 3722.22 2071.38 3723.14 2073.11 3725.01C2074.84 3726.84 2075.75 3729.48 2075.75 3732.85V3752.07C2075.75 3755.91 2074.84 3758.75 2072.96 3760.58C2071.09 3762.4 2068.4 3763.32 2064.93 3763.32H2056.76L2056.71 3763.27ZM2062.58 3727.75V3757.74H2065.27C2066.91 3757.74 2068.11 3757.31 2068.78 3756.49C2069.45 3755.67 2069.84 3754.38 2069.84 3752.6V3732.8C2069.84 3731.16 2069.5 3729.91 2068.88 3729.05C2068.2 3728.18 2067.05 3727.7 2065.32 3727.7H2062.63L2062.58 3727.75Z" fill="white"/>
<path id="Vector_18" d="M2116.81 3763.27V3722.22H2125.42C2127.29 3722.22 2128.93 3722.51 2130.22 3723.09C2131.57 3723.67 2132.63 3724.44 2133.49 3725.4C2134.36 3726.36 2134.93 3727.46 2135.32 3728.71C2135.7 3729.96 2135.85 3731.26 2135.85 3732.61V3734.1C2135.85 3735.2 2135.75 3736.16 2135.61 3736.93C2135.42 3737.7 2135.18 3738.37 2134.84 3738.95C2134.17 3740.01 2133.2 3740.97 2131.86 3741.74C2133.25 3742.41 2134.26 3743.37 2134.93 3744.62C2135.61 3745.87 2135.9 3747.6 2135.9 3749.81V3752.12C2135.9 3755.72 2135.03 3758.51 2133.25 3760.43C2131.52 3762.35 2128.68 3763.32 2124.84 3763.32H2116.81V3763.27ZM2122.68 3727.75V3739.05H2125.32C2127.29 3739.05 2128.59 3738.56 2129.26 3737.56C2129.93 3736.55 2130.27 3735.15 2130.27 3733.28C2130.27 3731.4 2129.89 3730.06 2129.17 3729.15C2128.4 3728.23 2127.05 3727.75 2125.08 3727.75H2122.68ZM2122.68 3744.24V3757.4H2125.22C2126.43 3757.4 2127.34 3757.21 2128.01 3756.88C2128.68 3756.54 2129.21 3756.06 2129.55 3755.43C2129.89 3754.81 2130.13 3754.09 2130.18 3753.22C2130.27 3752.36 2130.27 3751.44 2130.27 3750.44C2130.27 3749.43 2130.22 3748.51 2130.08 3747.74C2129.98 3746.98 2129.74 3746.3 2129.41 3745.77C2129.02 3745.25 2128.49 3744.86 2127.87 3744.57C2127.24 3744.28 2126.33 3744.19 2125.27 3744.19H2122.68V3744.24Z" fill="white"/>
<path id="Vector_19" d="M2159.26 3763.27V3745.92L2151.19 3722.22H2157.44L2162.15 3738.56H2162.24L2166.96 3722.22H2173.21L2165.13 3745.92V3763.27H2159.26Z" fill="white"/>
<g id="Layer_1">
<path id="Vector_20" d="M2429.79 3931H2267.82C2246.57 3931 2229.26 3913.7 2229.26 3892.46V3730.54C2229.26 3709.3 2246.57 3692 2267.82 3692H2429.79C2451.04 3692 2468.35 3709.3 2468.35 3730.54V3892.46C2468.35 3913.7 2451.04 3931 2429.79 3931ZM2267.87 3696.47C2249.07 3696.47 2233.73 3711.75 2233.73 3730.54V3892.46C2233.73 3911.25 2249.02 3926.53 2267.87 3926.53H2429.84C2448.64 3926.53 2463.97 3911.25 2463.97 3892.46V3730.54C2463.97 3711.75 2448.68 3696.47 2429.84 3696.47H2267.87Z" fill="white"/>
<path id="Vector_21" d="M2348.83 3723.82C2310.85 3723.82 2279.98 3754.91 2279.98 3793.17C2279.98 3806.72 2283.88 3819.84 2291.23 3831.13L2291.42 3831.42C2292.24 3832.67 2293.15 3833.97 2294.07 3835.17L2340.94 3895.96C2340.94 3895.96 2340.94 3895.96 2340.94 3896.01L2343.3 3899.23V3895.92C2343.3 3872.46 2336.23 3863.24 2333.73 3859.39C2333.25 3858.62 2333.39 3857.32 2333.35 3856.22C2333.35 3855.64 2333.83 3855.21 2334.36 3855.26C2339.07 3856.51 2343.92 3857.13 2348.88 3857.13C2353.83 3857.13 2358.73 3856.51 2363.44 3855.26C2363.92 3855.26 2364.31 3855.69 2364.31 3856.22C2364.31 3857.28 2364.45 3858.62 2363.92 3859.39C2361.42 3863.24 2354.36 3872.46 2354.36 3895.92V3898.99L2357.67 3894.67L2403.15 3835.6C2412.63 3823.35 2417.63 3808.64 2417.63 3793.12C2417.63 3754.91 2386.76 3723.77 2348.78 3723.77L2348.83 3723.82ZM2382.67 3838.25C2372.77 3845.55 2361.09 3849.4 2348.88 3849.4C2330.61 3849.4 2313.25 3840.5 2302.48 3825.65C2283.83 3799.94 2289.45 3763.71 2314.98 3744.91C2324.88 3737.61 2336.57 3733.76 2348.78 3733.76C2367.05 3733.76 2384.4 3742.65 2395.17 3757.51C2413.83 3783.22 2408.2 3819.45 2382.67 3838.25Z" fill="white"/>
</g>
</g>
<g id="Back - Light Tag">
<path id="Vector_22" d="M1331.81 3846.18C1331.81 3818.49 1354.02 3796.44 1381.71 3796.44C1393.49 3796.44 1403.49 3798.65 1412.82 3804.37C1415.41 3806 1415.99 3808.35 1414.45 3811.24L1413.06 3813.54C1411.57 3816.57 1409.21 3816.96 1406.18 3815.32C1395.51 3809.56 1388.92 3809.41 1381.66 3809.41C1362.19 3809.41 1346.57 3825.56 1346.57 3845.98C1346.57 3864.34 1358.92 3882.27 1383.59 3882.27C1391.95 3882.27 1399.07 3880.2 1405.51 3876.12V3857.09H1383.88C1380.7 3857.09 1378.92 3855.16 1378.92 3852.04V3850.41C1378.92 3847.23 1380.7 3845.46 1383.88 3845.46H1413.88C1417.05 3845.46 1418.83 3847.23 1418.83 3850.41V3878.09C1418.83 3880.68 1417.72 3882.89 1414.6 3885.35C1403.63 3893.42 1391.71 3895.34 1382.96 3895.34C1353.2 3895.34 1331.86 3873.14 1331.86 3846.18" fill="black"/>
<path id="Vector_23" d="M1432.53 3845.89C1432.53 3818.64 1454.74 3796.44 1482.43 3796.44C1510.13 3796.44 1532.34 3818.64 1532.34 3845.89C1532.34 3873.14 1510.13 3895.34 1482.43 3895.34C1454.74 3895.34 1432.53 3873.14 1432.53 3845.89ZM1517.53 3845.89C1517.53 3825.22 1501.76 3809.46 1482.43 3809.46C1463.11 3809.46 1447.34 3825.22 1447.34 3845.89C1447.34 3866.55 1463.11 3882.32 1482.43 3882.32C1501.76 3882.32 1517.53 3866.55 1517.53 3845.89Z" fill="black"/>
<path id="Vector_24" d="M1548.73 3888.95V3802.92C1548.73 3799.75 1550.51 3797.97 1553.68 3797.97H1558.35C1561.52 3797.97 1563.3 3799.75 1563.3 3802.92V3881.98H1602.1C1605.27 3881.98 1607.15 3883.76 1607.15 3886.93V3889C1607.15 3892.17 1605.22 3893.95 1602.1 3893.95H1553.73C1550.56 3893.95 1548.78 3892.17 1548.78 3889" fill="black"/>
<path id="Vector_25" d="M1680.99 3802.87V3804.93C1680.99 3808.11 1679.21 3809.88 1676.04 3809.88H1634.12V3840.98H1670.03C1673.2 3840.98 1675.08 3842.76 1675.08 3845.93V3847.71C1675.08 3850.88 1673.16 3852.75 1670.03 3852.75H1634.12V3888.89C1634.12 3892.07 1632.34 3893.84 1629.17 3893.84H1624.5C1621.33 3893.84 1619.55 3892.07 1619.55 3888.89V3802.87C1619.55 3799.7 1621.33 3797.92 1624.5 3797.92H1676.04C1679.21 3797.92 1680.99 3799.7 1680.99 3802.87Z" fill="black"/>
<path id="Vector_26" d="M1690.56 3875.93C1689.22 3872.9 1690.85 3870.59 1693.83 3869.77L1697.82 3868.81C1700.85 3868.14 1702.48 3869.25 1703.98 3872.08C1707.39 3877.99 1714.65 3882.61 1724.26 3882.61C1736.62 3882.61 1744.12 3876.6 1744.12 3868.38C1744.12 3861.12 1738.11 3856.61 1730.27 3853.72L1716.04 3848.92C1697.97 3842.91 1693.59 3832.05 1693.59 3823.16C1693.59 3806.58 1708.11 3796.44 1724.7 3796.44C1739.79 3796.44 1750.47 3803.69 1754.84 3814.51C1756.09 3817.53 1754.55 3819.84 1751.57 3820.66L1748.16 3821.76C1745.13 3822.58 1743.21 3821.47 1741.86 3818.59C1738.69 3812.3 1732.82 3809.27 1724.89 3809.27C1715.85 3809.27 1708.3 3814.22 1708.3 3822.68C1708.3 3826.66 1709.55 3831.86 1720.51 3835.99L1734.74 3841.32C1750.9 3846.37 1758.3 3857.09 1758.3 3867.37C1758.3 3884.62 1744.6 3895.29 1724.6 3895.29C1707.63 3895.29 1695.56 3887.08 1690.61 3875.83" fill="black"/>
<path id="Vector_27" d="M1844.45 3802.87V3804.93C1844.45 3808.11 1842.67 3809.88 1839.5 3809.88H1812.77V3888.94C1812.77 3892.11 1810.99 3893.89 1807.82 3893.89H1803.3C1800.13 3893.89 1798.35 3892.11 1798.35 3888.94V3809.88H1771.62C1768.59 3809.88 1766.66 3808.11 1766.66 3804.93V3802.87C1766.66 3799.7 1768.59 3797.92 1771.62 3797.92H1839.45C1842.63 3797.92 1844.41 3799.7 1844.41 3802.87" fill="black"/>
<path id="Vector_28" d="M1840.51 3888.08L1873.54 3801.91C1874.5 3799.31 1876.57 3797.92 1879.31 3797.92H1887.24C1890.13 3797.92 1892.05 3799.31 1893.01 3801.91L1926.33 3888.08C1927.58 3891.49 1926.19 3893.84 1922.48 3893.84H1918.11C1915.23 3893.84 1913.3 3892.6 1912.2 3889.86L1906.28 3874.24H1860.51L1854.6 3889.86C1853.49 3892.6 1851.72 3893.84 1848.83 3893.84H1844.31C1840.61 3893.84 1839.12 3891.54 1840.47 3888.08M1902.15 3862.46L1883.25 3812.05L1864.6 3862.46H1902.15Z" fill="black"/>
<path id="Vector_29" d="M1999.89 3802.87V3804.93C1999.89 3808.11 1998.11 3809.88 1994.93 3809.88H1968.2V3888.94C1968.2 3892.11 1966.42 3893.89 1963.25 3893.89H1958.73C1955.56 3893.89 1953.78 3892.11 1953.78 3888.94V3809.88H1927.05C1924.02 3809.88 1922.1 3808.11 1922.1 3804.93V3802.87C1922.1 3799.7 1924.02 3797.92 1927.05 3797.92H1994.89C1998.06 3797.92 1999.84 3799.7 1999.84 3802.87" fill="black"/>
<path id="Vector_30" d="M2014.12 3858.23V3802.87C2014.12 3799.7 2016.04 3797.92 2019.07 3797.92H2023.73C2026.9 3797.92 2028.68 3799.7 2028.68 3802.87V3858.23C2028.68 3874.38 2039.64 3882.36 2052.24 3882.36C2064.84 3882.36 2075.94 3874.43 2075.94 3858.23V3802.87C2075.94 3799.7 2077.72 3797.92 2080.89 3797.92H2085.41C2088.59 3797.92 2090.51 3799.7 2090.51 3802.87V3858.23C2090.51 3882.6 2072.96 3895.38 2052.29 3895.38C2031.62 3895.38 2014.21 3882.65 2014.21 3858.23" fill="black"/>
<path id="Vector_31" d="M2105.51 3875.93C2104.17 3872.9 2105.8 3870.59 2108.78 3869.77L2112.77 3868.81C2115.8 3868.14 2117.43 3869.25 2118.92 3872.08C2122.34 3877.99 2129.6 3882.61 2139.21 3882.61C2151.57 3882.61 2159.07 3876.6 2159.07 3868.38C2159.07 3861.12 2153.06 3856.61 2145.22 3853.72L2130.99 3848.92C2112.91 3842.91 2108.54 3832.05 2108.54 3823.16C2108.54 3806.58 2123.06 3796.44 2139.65 3796.44C2154.74 3796.44 2165.42 3803.69 2169.79 3814.51C2171.04 3817.53 2169.5 3819.84 2166.52 3820.66L2163.11 3821.76C2160.08 3822.58 2158.16 3821.47 2156.81 3818.59C2153.64 3812.3 2147.77 3809.27 2139.84 3809.27C2130.8 3809.27 2123.25 3814.22 2123.25 3822.68C2123.25 3826.66 2124.5 3831.86 2135.46 3835.99L2149.69 3841.32C2165.85 3846.37 2173.25 3857.09 2173.25 3867.37C2173.25 3884.62 2159.55 3895.29 2139.55 3895.29C2122.58 3895.29 2110.51 3887.08 2105.56 3875.83" fill="black"/>
<path id="Vector_32" d="M1833.45 3758.46V3717.42H1842.29C1843.93 3717.42 1845.32 3717.61 1846.57 3718.04C1847.82 3718.48 1848.93 3719.2 1849.94 3720.3C1850.95 3721.36 1851.62 3722.66 1852 3724.1C1852.39 3725.54 1852.58 3727.51 1852.58 3729.96C1852.58 3731.79 1852.49 3733.37 1852.24 3734.62C1852.05 3735.87 1851.57 3737.07 1850.9 3738.18C1850.08 3739.53 1849.02 3740.58 1847.68 3741.3C1846.33 3742.07 1844.55 3742.41 1842.39 3742.41H1839.41V3758.46H1833.54H1833.45ZM1839.31 3722.94V3736.88H1842.15C1843.35 3736.88 1844.26 3736.69 1844.94 3736.35C1845.61 3736.02 1846.09 3735.54 1846.38 3734.91C1846.67 3734.33 1846.86 3733.61 1846.91 3732.8C1846.96 3731.93 1847 3731.02 1847 3729.96C1847 3729 1847 3728.09 1846.96 3727.22C1846.96 3726.36 1846.76 3725.59 1846.43 3724.96C1846.14 3724.29 1845.66 3723.81 1845.03 3723.47C1844.41 3723.14 1843.54 3722.94 1842.39 3722.94H1839.31Z" fill="black"/>
<path id="Vector_33" d="M1868.97 3727.13C1868.97 3725.5 1869.26 3724.01 1869.84 3722.76C1870.42 3721.51 1871.19 3720.45 1872.15 3719.59C1873.06 3718.77 1874.12 3718.15 1875.27 3717.76C1876.43 3717.33 1877.63 3717.14 1878.83 3717.14C1880.03 3717.14 1881.19 3717.33 1882.39 3717.76C1883.54 3718.19 1884.65 3718.82 1885.61 3719.59C1886.52 3720.45 1887.29 3721.51 1887.87 3722.76C1888.45 3724.01 1888.73 3725.5 1888.73 3727.13V3748.81C1888.73 3750.54 1888.45 3752.03 1887.87 3753.23C1887.29 3754.43 1886.52 3755.49 1885.61 3756.31C1884.65 3757.17 1883.59 3757.8 1882.39 3758.23C1881.19 3758.66 1880.03 3758.85 1878.83 3758.85C1877.63 3758.85 1876.47 3758.66 1875.27 3758.23C1874.12 3757.8 1873.06 3757.17 1872.15 3756.31C1871.19 3755.49 1870.42 3754.48 1869.84 3753.23C1869.26 3751.98 1868.97 3750.54 1868.97 3748.81V3727.13ZM1874.84 3748.81C1874.84 3750.25 1875.22 3751.26 1876.04 3751.93C1876.81 3752.6 1877.77 3752.94 1878.83 3752.94C1879.89 3752.94 1880.85 3752.6 1881.62 3751.93C1882.39 3751.26 1882.82 3750.2 1882.82 3748.81V3727.13C1882.82 3725.69 1882.44 3724.68 1881.62 3724.01C1880.85 3723.34 1879.89 3723 1878.83 3723C1877.77 3723 1876.81 3723.34 1876.04 3724.01C1875.27 3724.68 1874.84 3725.74 1874.84 3727.13V3748.81Z" fill="black"/>
<path id="Vector_34" d="M1936.14 3717.42L1930.03 3758.46H1924.5L1919.98 3731.84H1919.89L1915.46 3758.46H1909.94L1903.83 3717.42H1910.08L1913.01 3743.47H1913.11L1917.72 3717.42H1922.24L1927.05 3744.14H1927.15L1929.98 3717.42H1936.23H1936.14Z" fill="black"/>
<path id="Vector_35" d="M1952.19 3758.46V3717.42H1969.74V3722.94H1958.11V3735.01H1968.25V3740.53H1958.11V3752.6H1969.74V3758.46H1952.19Z" fill="black"/>
<path id="Vector_36" d="M1985.95 3758.46V3717.42H1995.42C2002.34 3717.42 2005.8 3721.45 2005.8 3729.48C2005.8 3731.88 2005.42 3733.95 2004.7 3735.63C2003.93 3737.31 2002.63 3738.71 2000.75 3739.72L2007.1 3758.46H2000.85L1995.37 3740.92H1991.86V3758.46H1985.99H1985.95ZM1991.86 3722.94V3735.73H1995.22C1996.28 3735.73 1997.1 3735.58 1997.72 3735.3C1998.35 3735.01 1998.83 3734.58 1999.17 3734.05C1999.46 3733.52 1999.7 3732.85 1999.79 3732.08C1999.89 3731.31 1999.98 3730.39 1999.98 3729.34C1999.98 3728.28 1999.94 3727.37 1999.79 3726.6C1999.7 3725.83 1999.46 3725.11 1999.12 3724.53C1998.4 3723.47 1997 3722.9 1994.98 3722.9H1991.91L1991.86 3722.94Z" fill="black"/>
<path id="Vector_37" d="M2022.97 3758.46V3717.42H2040.51V3722.94H2028.88V3735.01H2039.02V3740.53H2028.88V3752.6H2040.51V3758.46H2022.97Z" fill="black"/>
<path id="Vector_38" d="M2056.71 3758.46V3717.42H2065.42C2068.78 3717.42 2071.38 3718.33 2073.11 3720.21C2074.84 3722.03 2075.75 3724.67 2075.75 3728.04V3747.26C2075.75 3751.11 2074.84 3753.94 2072.96 3755.77C2071.09 3757.6 2068.4 3758.51 2064.93 3758.51H2056.76L2056.71 3758.46ZM2062.58 3722.94V3752.93H2065.27C2066.91 3752.93 2068.11 3752.5 2068.78 3751.68C2069.45 3750.87 2069.84 3749.57 2069.84 3747.79V3727.99C2069.84 3726.36 2069.5 3725.11 2068.88 3724.24C2068.2 3723.38 2067.05 3722.9 2065.32 3722.9H2062.63L2062.58 3722.94Z" fill="black"/>
<path id="Vector_39" d="M2116.81 3758.46V3717.42H2125.42C2127.29 3717.42 2128.93 3717.71 2130.22 3718.28C2131.57 3718.86 2132.63 3719.63 2133.49 3720.59C2134.36 3721.55 2134.93 3722.66 2135.32 3723.91C2135.7 3725.16 2135.85 3726.45 2135.85 3727.8V3729.29C2135.85 3730.39 2135.75 3731.36 2135.61 3732.12C2135.42 3732.89 2135.18 3733.57 2134.84 3734.14C2134.17 3735.2 2133.2 3736.16 2131.86 3736.93C2133.25 3737.6 2134.26 3738.56 2134.93 3739.81C2135.61 3741.06 2135.9 3742.79 2135.9 3745V3747.31C2135.9 3750.92 2135.03 3753.7 2133.25 3755.63C2131.52 3757.55 2128.68 3758.51 2124.84 3758.51H2116.81V3758.46ZM2122.68 3722.94V3734.24H2125.32C2127.29 3734.24 2128.59 3733.76 2129.26 3732.75C2129.93 3731.74 2130.27 3730.35 2130.27 3728.47C2130.27 3726.6 2129.89 3725.25 2129.17 3724.34C2128.4 3723.43 2127.05 3722.94 2125.08 3722.94H2122.68ZM2122.68 3739.43V3752.6H2125.22C2126.43 3752.6 2127.34 3752.41 2128.01 3752.07C2128.68 3751.73 2129.21 3751.25 2129.55 3750.63C2129.89 3750 2130.13 3749.28 2130.18 3748.42C2130.27 3747.55 2130.27 3746.64 2130.27 3745.63C2130.27 3744.62 2130.22 3743.71 2130.08 3742.94C2129.98 3742.17 2129.74 3741.5 2129.41 3740.97C2129.02 3740.44 2128.49 3740.05 2127.87 3739.77C2127.24 3739.48 2126.33 3739.38 2125.27 3739.38H2122.68V3739.43Z" fill="black"/>
<path id="Vector_40" d="M2159.26 3758.46V3741.11L2151.19 3717.42H2157.44L2162.15 3733.76H2162.24L2166.96 3717.42H2173.21L2165.13 3741.11V3758.46H2159.26Z" fill="black"/>
<g id="Layer_1_2">
<path id="Vector_41" d="M2429.79 3926.19H2267.82C2246.57 3926.19 2229.26 3908.89 2229.26 3887.65V3725.74C2229.26 3704.49 2246.57 3687.19 2267.82 3687.19H2429.79C2451.04 3687.19 2468.35 3704.49 2468.35 3725.74V3887.65C2468.35 3908.89 2451.04 3926.19 2429.79 3926.19ZM2267.87 3691.66C2249.07 3691.66 2233.73 3706.95 2233.73 3725.74V3887.65C2233.73 3906.44 2249.02 3921.72 2267.87 3921.72H2429.84C2448.64 3921.72 2463.97 3906.44 2463.97 3887.65V3725.74C2463.97 3706.95 2448.68 3691.66 2429.84 3691.66H2267.87Z" fill="black"/>
<path id="Vector_42" d="M2348.83 3719.01C2310.85 3719.01 2279.98 3750.1 2279.98 3788.36C2279.98 3801.91 2283.88 3815.03 2291.23 3826.33L2291.42 3826.61C2292.24 3827.86 2293.15 3829.16 2294.07 3830.36L2340.94 3891.16C2340.94 3891.16 2340.94 3891.16 2340.94 3891.21L2343.3 3894.43V3891.11C2343.3 3867.66 2336.23 3858.43 2333.73 3854.58C2333.25 3853.82 2333.39 3852.52 2333.35 3851.41C2333.35 3850.84 2333.83 3850.4 2334.36 3850.45C2339.07 3851.7 2343.92 3852.33 2348.88 3852.33C2353.83 3852.33 2358.73 3851.7 2363.44 3850.45C2363.92 3850.45 2364.31 3850.88 2364.31 3851.41C2364.31 3852.47 2364.45 3853.82 2363.92 3854.58C2361.42 3858.43 2354.36 3867.66 2354.36 3891.11V3894.19L2357.67 3889.86L2403.15 3830.8C2412.63 3818.54 2417.63 3803.83 2417.63 3788.31C2417.63 3750.1 2386.76 3718.96 2348.78 3718.96L2348.83 3719.01ZM2382.67 3833.44C2372.77 3840.74 2361.09 3844.59 2348.88 3844.59C2330.61 3844.59 2313.25 3835.7 2302.48 3820.85C2283.83 3795.14 2289.45 3758.9 2314.98 3740.11C2324.88 3732.8 2336.57 3728.96 2348.78 3728.96C2367.05 3728.96 2384.4 3737.85 2395.17 3752.7C2413.83 3778.41 2408.2 3814.65 2382.67 3833.44Z" fill="black"/>
</g>
</g>
<g id="Front - Dark Tag">
<path id="Vector_43" d="M1625.56 3850.98C1625.56 3823.3 1647.77 3801.24 1675.46 3801.24C1687.24 3801.24 1697.24 3803.45 1706.57 3809.17C1709.16 3810.81 1709.74 3813.16 1708.2 3816.04L1706.81 3818.35C1705.32 3821.38 1702.96 3821.76 1699.93 3820.13C1689.26 3814.36 1682.67 3814.22 1675.41 3814.22C1655.94 3814.22 1640.32 3830.37 1640.32 3850.79C1640.32 3869.15 1652.67 3887.08 1677.34 3887.08C1685.7 3887.08 1692.82 3885.01 1699.26 3880.92V3861.89H1677.62C1674.45 3861.89 1672.67 3859.97 1672.67 3856.85V3855.21C1672.67 3852.04 1674.45 3850.26 1677.62 3850.26H1707.62C1710.8 3850.26 1712.58 3852.04 1712.58 3855.21V3882.9C1712.58 3885.49 1711.47 3887.7 1708.34 3890.15C1697.38 3898.23 1685.46 3900.15 1676.71 3900.15C1646.95 3900.15 1625.6 3877.95 1625.6 3850.98" fill="white"/>
<path id="Vector_44" d="M1726.28 3850.7C1726.28 3823.45 1748.49 3801.24 1776.18 3801.24C1803.87 3801.24 1826.09 3823.45 1826.09 3850.7C1826.09 3877.95 1803.87 3900.15 1776.18 3900.15C1748.49 3900.15 1726.28 3877.95 1726.28 3850.7ZM1811.23 3850.7C1811.23 3830.03 1795.46 3814.27 1776.13 3814.27C1756.81 3814.27 1741.04 3830.03 1741.04 3850.7C1741.04 3871.36 1756.81 3887.12 1776.13 3887.12C1795.46 3887.12 1811.23 3871.36 1811.23 3850.7Z" fill="white"/>
<path id="Vector_45" d="M1842.48 3893.76V3807.73C1842.48 3804.56 1844.26 3802.78 1847.43 3802.78H1852.1C1855.27 3802.78 1857.05 3804.56 1857.05 3807.73V3886.79H1895.85C1899.02 3886.79 1900.89 3888.57 1900.89 3891.74V3893.81C1900.89 3896.98 1898.97 3898.76 1895.85 3898.76H1847.48C1844.31 3898.76 1842.53 3896.98 1842.53 3893.81" fill="white"/>
<path id="Vector_46" d="M1974.74 3807.67V3809.74C1974.74 3812.91 1972.96 3814.69 1969.79 3814.69H1927.87V3845.79H1963.78C1966.95 3845.79 1968.83 3847.56 1968.83 3850.74V3852.51C1968.83 3855.69 1966.91 3857.56 1963.78 3857.56H1927.87V3893.7C1927.87 3896.87 1926.09 3898.65 1922.91 3898.65H1918.25C1915.08 3898.65 1913.3 3896.87 1913.3 3893.7V3807.67C1913.3 3804.5 1915.08 3802.72 1918.25 3802.72H1969.79C1972.96 3802.72 1974.74 3804.5 1974.74 3807.67Z" fill="white"/>
<path id="Vector_47" d="M1984.31 3880.73C1982.96 3877.7 1984.6 3875.4 1987.58 3874.58L1991.57 3873.62C1994.6 3872.95 1996.23 3874.05 1997.72 3876.89C2001.14 3882.8 2008.4 3887.41 2018.01 3887.41C2030.37 3887.41 2037.87 3881.41 2037.87 3873.19C2037.87 3865.93 2031.86 3861.41 2024.02 3858.53L2009.79 3853.72C1991.71 3847.72 1987.34 3836.85 1987.34 3827.96C1987.34 3811.38 2001.86 3801.24 2018.44 3801.24C2033.54 3801.24 2044.21 3808.5 2048.59 3819.31C2049.84 3822.34 2048.3 3824.65 2045.32 3825.46L2041.91 3826.57C2038.88 3827.39 2036.95 3826.28 2035.61 3823.4C2032.43 3817.1 2026.57 3814.07 2018.64 3814.07C2009.6 3814.07 2002.05 3819.02 2002.05 3827.48C2002.05 3831.47 2003.3 3836.66 2014.26 3840.8L2028.49 3846.13C2044.65 3851.18 2052.05 3861.89 2052.05 3872.18C2052.05 3889.43 2038.35 3900.1 2018.35 3900.1C2001.38 3900.1 1989.31 3891.88 1984.36 3880.64" fill="white"/>
<path id="Vector_48" d="M2138.2 3807.67V3809.74C2138.2 3812.91 2136.42 3814.69 2133.25 3814.69H2106.52V3893.75C2106.52 3896.92 2104.74 3898.7 2101.57 3898.7H2097.05C2093.87 3898.7 2092.1 3896.92 2092.1 3893.75V3814.69H2065.37C2062.34 3814.69 2060.41 3812.91 2060.41 3809.74V3807.67C2060.41 3804.5 2062.34 3802.72 2065.37 3802.72H2133.2C2136.37 3802.72 2138.15 3804.5 2138.15 3807.67" fill="white"/>
<path id="Vector_49" d="M2134.21 3892.88L2167.24 3806.71C2168.2 3804.12 2170.27 3802.72 2173.01 3802.72H2180.94C2183.83 3802.72 2185.75 3804.12 2186.71 3806.71L2220.03 3892.88C2221.28 3896.3 2219.88 3898.65 2216.18 3898.65H2211.81C2208.92 3898.65 2207 3897.4 2205.89 3894.66L2199.98 3879.04H2154.21L2148.3 3894.66C2147.19 3897.4 2145.41 3898.65 2142.53 3898.65H2138.01C2134.31 3898.65 2132.82 3896.34 2134.16 3892.88M2195.89 3867.27L2177 3816.85L2158.34 3867.27H2195.89Z" fill="white"/>
<path id="Vector_50" d="M2293.59 3807.67V3809.74C2293.59 3812.91 2291.81 3814.69 2288.64 3814.69H2261.91V3893.75C2261.91 3896.92 2260.13 3898.7 2256.95 3898.7H2252.43C2249.26 3898.7 2247.48 3896.92 2247.48 3893.75V3814.69H2220.75C2217.72 3814.69 2215.8 3812.91 2215.8 3809.74V3807.67C2215.8 3804.5 2217.72 3802.72 2220.75 3802.72H2288.59C2291.76 3802.72 2293.54 3804.5 2293.54 3807.67" fill="white"/>
<path id="Vector_51" d="M2307.86 3863.04V3807.67C2307.86 3804.5 2309.79 3802.72 2312.82 3802.72H2317.48C2320.65 3802.72 2322.43 3804.5 2322.43 3807.67V3863.04C2322.43 3879.19 2333.39 3887.17 2345.99 3887.17C2358.59 3887.17 2369.69 3879.24 2369.69 3863.04V3807.67C2369.69 3804.5 2371.47 3802.72 2374.64 3802.72H2379.16C2382.34 3802.72 2384.26 3804.5 2384.26 3807.67V3863.04C2384.26 3887.41 2366.71 3900.19 2346.04 3900.19C2325.36 3900.19 2307.96 3887.45 2307.96 3863.04" fill="white"/>
<path id="Vector_52" d="M2399.26 3880.73C2397.91 3877.7 2399.55 3875.4 2402.53 3874.58L2406.52 3873.62C2409.55 3872.95 2411.18 3874.05 2412.67 3876.89C2416.09 3882.8 2423.35 3887.41 2432.96 3887.41C2445.32 3887.41 2452.82 3881.41 2452.82 3873.19C2452.82 3865.93 2446.81 3861.41 2438.97 3858.53L2424.74 3853.72C2406.66 3847.72 2402.29 3836.85 2402.29 3827.96C2402.29 3811.38 2416.81 3801.24 2433.39 3801.24C2448.49 3801.24 2459.16 3808.5 2463.54 3819.31C2464.79 3822.34 2463.25 3824.65 2460.27 3825.46L2456.86 3826.57C2453.83 3827.39 2451.9 3826.28 2450.56 3823.4C2447.38 3817.1 2441.52 3814.07 2433.59 3814.07C2424.55 3814.07 2417 3819.02 2417 3827.48C2417 3831.47 2418.25 3836.66 2429.21 3840.8L2443.44 3846.13C2459.6 3851.18 2467 3861.89 2467 3872.18C2467 3889.43 2453.3 3900.1 2433.3 3900.1C2416.33 3900.1 2404.26 3891.88 2399.31 3880.64" fill="white"/>
<path id="Vector_53" d="M1626.62 3763.27V3722.22H1635.46C1637.1 3722.22 1638.49 3722.42 1639.74 3722.85C1640.99 3723.28 1642.1 3724 1643.11 3725.11C1644.12 3726.17 1644.79 3727.46 1645.18 3728.9C1645.56 3730.35 1645.75 3732.32 1645.75 3734.77C1645.75 3736.59 1645.66 3738.18 1645.42 3739.43C1645.22 3740.68 1644.74 3741.88 1644.07 3742.99C1643.25 3744.33 1642.19 3745.39 1640.85 3746.11C1639.5 3746.88 1637.72 3747.22 1635.56 3747.22H1632.58V3763.27H1626.71H1626.62ZM1632.48 3727.75V3741.69H1635.32C1636.52 3741.69 1637.43 3741.5 1638.11 3741.16C1638.78 3740.82 1639.26 3740.34 1639.55 3739.72C1639.84 3739.14 1640.03 3738.42 1640.08 3737.6C1640.13 3736.74 1640.18 3735.83 1640.18 3734.77C1640.18 3733.81 1640.18 3732.89 1640.13 3732.03C1640.13 3731.16 1639.93 3730.39 1639.6 3729.77C1639.31 3729.1 1638.83 3728.62 1638.2 3728.28C1637.58 3727.94 1636.71 3727.75 1635.56 3727.75H1632.48Z" fill="white"/>
<path id="Vector_54" d="M1662.14 3731.94C1662.14 3730.31 1662.43 3728.82 1663.01 3727.57C1663.59 3726.32 1664.36 3725.26 1665.32 3724.39C1666.23 3723.58 1667.29 3722.95 1668.44 3722.57C1669.6 3722.14 1670.8 3721.94 1672 3721.94C1673.2 3721.94 1674.36 3722.14 1675.56 3722.57C1676.71 3723 1677.82 3723.63 1678.78 3724.39C1679.69 3725.26 1680.46 3726.32 1681.04 3727.57C1681.62 3728.82 1681.9 3730.31 1681.9 3731.94V3753.61C1681.9 3755.34 1681.62 3756.83 1681.04 3758.04C1680.46 3759.24 1679.69 3760.29 1678.78 3761.11C1677.82 3761.98 1676.76 3762.6 1675.56 3763.03C1674.36 3763.47 1673.2 3763.66 1672 3763.66C1670.8 3763.66 1669.64 3763.47 1668.44 3763.03C1667.29 3762.6 1666.23 3761.98 1665.32 3761.11C1664.36 3760.29 1663.59 3759.29 1663.01 3758.04C1662.43 3756.79 1662.14 3755.34 1662.14 3753.61V3731.94ZM1668.01 3753.61C1668.01 3755.06 1668.39 3756.07 1669.21 3756.74C1669.98 3757.41 1670.94 3757.75 1672 3757.75C1673.06 3757.75 1674.02 3757.41 1674.79 3756.74C1675.56 3756.07 1675.99 3755.01 1675.99 3753.61V3731.94C1675.99 3730.5 1675.61 3729.49 1674.79 3728.82C1674.02 3728.14 1673.06 3727.81 1672 3727.81C1670.94 3727.81 1669.98 3728.14 1669.21 3728.82C1668.44 3729.49 1668.01 3730.55 1668.01 3731.94V3753.61Z" fill="white"/>
<path id="Vector_55" d="M1729.31 3722.22L1723.2 3763.27H1717.67L1713.15 3736.64H1713.06L1708.63 3763.27H1703.11L1697 3722.22H1703.25L1706.18 3748.27H1706.28L1710.89 3722.22H1715.41L1720.22 3748.95H1720.32L1723.15 3722.22H1729.4H1729.31Z" fill="white"/>
<path id="Vector_56" d="M1745.42 3763.27V3722.22H1762.96V3727.75H1751.33V3739.81H1761.47V3745.34H1751.33V3757.4H1762.96V3763.27H1745.42Z" fill="white"/>
<path id="Vector_57" d="M1779.16 3763.27V3722.22H1788.63C1795.56 3722.22 1799.02 3726.26 1799.02 3734.29C1799.02 3736.69 1798.63 3738.76 1797.91 3740.44C1797.14 3742.12 1795.85 3743.51 1793.97 3744.52L1800.32 3763.27H1794.07L1788.59 3745.73H1785.08V3763.27H1779.21H1779.16ZM1785.03 3727.75V3740.54H1788.39C1789.45 3740.54 1790.27 3740.39 1790.89 3740.1C1791.52 3739.81 1792 3739.38 1792.34 3738.85C1792.62 3738.32 1792.86 3737.65 1792.96 3736.88C1793.06 3736.11 1793.15 3735.2 1793.15 3734.14C1793.15 3733.09 1793.11 3732.17 1792.96 3731.4C1792.86 3730.64 1792.62 3729.91 1792.29 3729.34C1791.57 3728.28 1790.17 3727.7 1788.15 3727.7H1785.08L1785.03 3727.75Z" fill="white"/>
<path id="Vector_58" d="M1816.14 3763.27V3722.22H1833.68V3727.75H1822.05V3739.81H1832.19V3745.34H1822.05V3757.4H1833.68V3763.27H1816.14Z" fill="white"/>
<path id="Vector_59" d="M1849.88 3763.27V3722.22H1858.59C1861.95 3722.22 1864.55 3723.14 1866.28 3725.01C1868.01 3726.84 1868.92 3729.48 1868.92 3732.85V3752.07C1868.92 3755.91 1868.01 3758.75 1866.13 3760.58C1864.26 3762.4 1861.57 3763.32 1858.11 3763.32H1849.93L1849.88 3763.27ZM1855.75 3727.75V3757.74H1858.44C1860.08 3757.74 1861.28 3757.31 1861.95 3756.49C1862.62 3755.67 1863.01 3754.38 1863.01 3752.6V3732.8C1863.01 3731.16 1862.67 3729.91 1862.05 3729.05C1861.37 3728.18 1860.22 3727.7 1858.49 3727.7H1855.8L1855.75 3727.75Z" fill="white"/>
<path id="Vector_60" d="M1909.98 3763.27V3722.22H1918.59C1920.46 3722.22 1922.1 3722.51 1923.39 3723.09C1924.74 3723.67 1925.8 3724.44 1926.66 3725.4C1927.53 3726.36 1928.11 3727.46 1928.49 3728.71C1928.87 3729.96 1929.02 3731.26 1929.02 3732.61V3734.1C1929.02 3735.2 1928.92 3736.16 1928.78 3736.93C1928.59 3737.7 1928.35 3738.37 1928.01 3738.95C1927.34 3740.01 1926.37 3740.97 1925.03 3741.74C1926.42 3742.41 1927.43 3743.37 1928.11 3744.62C1928.78 3745.87 1929.07 3747.6 1929.07 3749.81V3752.12C1929.07 3755.72 1928.2 3758.51 1926.42 3760.43C1924.69 3762.35 1921.86 3763.32 1918.01 3763.32H1909.98V3763.27ZM1915.89 3727.75V3739.05H1918.54C1920.51 3739.05 1921.81 3738.56 1922.48 3737.56C1923.15 3736.55 1923.49 3735.15 1923.49 3733.28C1923.49 3731.4 1923.11 3730.06 1922.38 3729.15C1921.61 3728.23 1920.27 3727.75 1918.3 3727.75H1915.89ZM1915.89 3744.24V3757.4H1918.44C1919.64 3757.4 1920.56 3757.21 1921.23 3756.88C1921.9 3756.54 1922.43 3756.06 1922.77 3755.43C1923.11 3754.81 1923.35 3754.09 1923.39 3753.22C1923.49 3752.36 1923.49 3751.44 1923.49 3750.44C1923.49 3749.43 1923.44 3748.51 1923.3 3747.74C1923.2 3746.98 1922.96 3746.3 1922.62 3745.77C1922.24 3745.25 1921.71 3744.86 1921.09 3744.57C1920.46 3744.28 1919.55 3744.19 1918.49 3744.19H1915.89V3744.24Z" fill="white"/>
<path id="Vector_61" d="M1952.43 3763.27V3745.92L1944.36 3722.22H1950.61L1955.32 3738.56H1955.41L1960.13 3722.22H1966.38L1958.3 3745.92V3763.27H1952.43Z" fill="white"/>
<g id="Layer_1-2">
<path id="Vector_62" d="M1532.34 3931H1370.37C1349.12 3931 1331.81 3913.7 1331.81 3892.46V3730.54C1331.81 3709.3 1349.12 3692 1370.37 3692H1532.34C1553.59 3692 1570.89 3709.3 1570.89 3730.54V3892.46C1570.89 3913.7 1553.59 3931 1532.34 3931ZM1370.37 3696.47C1351.57 3696.47 1336.28 3711.75 1336.28 3730.54V3892.46C1336.28 3911.25 1351.57 3926.53 1370.41 3926.53H1532.38C1551.18 3926.53 1566.52 3911.25 1566.52 3892.46V3730.54C1566.52 3711.75 1551.23 3696.47 1532.38 3696.47H1370.37Z" fill="white"/>
<path id="Vector_63" d="M1451.38 3723.82C1413.39 3723.82 1382.53 3754.91 1382.53 3793.17C1382.53 3806.72 1386.42 3819.84 1393.78 3831.13L1393.97 3831.42C1394.79 3832.67 1395.7 3833.97 1396.62 3835.17L1443.49 3895.96C1443.49 3895.96 1443.49 3895.96 1443.49 3896.01L1445.85 3899.23V3895.92C1445.85 3872.46 1438.78 3863.24 1436.28 3859.39C1435.8 3858.62 1435.94 3857.32 1435.89 3856.22C1435.89 3855.64 1436.38 3855.21 1436.9 3855.26C1441.62 3856.51 1446.47 3857.13 1451.42 3857.13C1456.38 3857.13 1461.28 3856.51 1465.99 3855.26C1466.47 3855.26 1466.86 3855.69 1466.86 3856.22C1466.86 3857.28 1467 3858.62 1466.47 3859.39C1463.97 3863.24 1456.9 3872.46 1456.9 3895.92V3898.99L1460.22 3894.67L1505.7 3835.6C1515.17 3823.35 1520.17 3808.64 1520.17 3793.12C1520.17 3754.91 1489.31 3723.77 1451.33 3723.77L1451.38 3723.82ZM1485.22 3838.25C1475.32 3845.55 1463.63 3849.4 1451.42 3849.4C1433.15 3849.4 1415.8 3840.5 1405.03 3825.65C1386.38 3799.94 1392 3763.71 1417.53 3744.91C1427.43 3737.61 1439.12 3733.76 1451.33 3733.76C1469.6 3733.76 1486.95 3742.65 1497.72 3757.51C1516.38 3783.22 1510.75 3819.45 1485.22 3838.25Z" fill="white"/>
</g>
</g>
<g id="Front - Light Tag">
<path id="Vector_64" d="M1625.56 3850.98C1625.56 3823.3 1647.77 3801.24 1675.46 3801.24C1687.24 3801.24 1697.24 3803.45 1706.57 3809.17C1709.16 3810.81 1709.74 3813.16 1708.2 3816.04L1706.81 3818.35C1705.32 3821.38 1702.96 3821.76 1699.93 3820.13C1689.26 3814.36 1682.67 3814.22 1675.41 3814.22C1655.94 3814.22 1640.32 3830.37 1640.32 3850.79C1640.32 3869.15 1652.67 3887.08 1677.34 3887.08C1685.7 3887.08 1692.82 3885.01 1699.26 3880.92V3861.89H1677.62C1674.45 3861.89 1672.67 3859.97 1672.67 3856.85V3855.21C1672.67 3852.04 1674.45 3850.26 1677.62 3850.26H1707.62C1710.8 3850.26 1712.58 3852.04 1712.58 3855.21V3882.9C1712.58 3885.49 1711.47 3887.7 1708.34 3890.15C1697.38 3898.23 1685.46 3900.15 1676.71 3900.15C1646.95 3900.15 1625.6 3877.95 1625.6 3850.98" fill="black"/>
<path id="Vector_65" d="M1726.28 3850.7C1726.28 3823.45 1748.49 3801.24 1776.18 3801.24C1803.87 3801.24 1826.09 3823.45 1826.09 3850.7C1826.09 3877.95 1803.87 3900.15 1776.18 3900.15C1748.49 3900.15 1726.28 3877.95 1726.28 3850.7ZM1811.23 3850.7C1811.23 3830.03 1795.46 3814.27 1776.13 3814.27C1756.81 3814.27 1741.04 3830.03 1741.04 3850.7C1741.04 3871.36 1756.81 3887.12 1776.13 3887.12C1795.46 3887.12 1811.23 3871.36 1811.23 3850.7Z" fill="black"/>
<path id="Vector_66" d="M1842.48 3893.76V3807.73C1842.48 3804.56 1844.26 3802.78 1847.43 3802.78H1852.1C1855.27 3802.78 1857.05 3804.56 1857.05 3807.73V3886.79H1895.85C1899.02 3886.79 1900.89 3888.57 1900.89 3891.74V3893.81C1900.89 3896.98 1898.97 3898.76 1895.85 3898.76H1847.48C1844.31 3898.76 1842.53 3896.98 1842.53 3893.81" fill="black"/>
<path id="Vector_67" d="M1974.74 3807.67V3809.74C1974.74 3812.91 1972.96 3814.69 1969.79 3814.69H1927.87V3845.79H1963.78C1966.95 3845.79 1968.83 3847.56 1968.83 3850.74V3852.51C1968.83 3855.69 1966.91 3857.56 1963.78 3857.56H1927.87V3893.7C1927.87 3896.87 1926.09 3898.65 1922.91 3898.65H1918.25C1915.08 3898.65 1913.3 3896.87 1913.3 3893.7V3807.67C1913.3 3804.5 1915.08 3802.72 1918.25 3802.72H1969.79C1972.96 3802.72 1974.74 3804.5 1974.74 3807.67Z" fill="black"/>
<path id="Vector_68" d="M1984.31 3880.73C1982.96 3877.7 1984.6 3875.4 1987.58 3874.58L1991.57 3873.62C1994.6 3872.95 1996.23 3874.05 1997.72 3876.89C2001.14 3882.8 2008.4 3887.41 2018.01 3887.41C2030.37 3887.41 2037.87 3881.41 2037.87 3873.19C2037.87 3865.93 2031.86 3861.41 2024.02 3858.53L2009.79 3853.72C1991.71 3847.72 1987.34 3836.85 1987.34 3827.96C1987.34 3811.38 2001.86 3801.24 2018.44 3801.24C2033.54 3801.24 2044.21 3808.5 2048.59 3819.31C2049.84 3822.34 2048.3 3824.65 2045.32 3825.46L2041.91 3826.57C2038.88 3827.39 2036.95 3826.28 2035.61 3823.4C2032.43 3817.1 2026.57 3814.07 2018.64 3814.07C2009.6 3814.07 2002.05 3819.02 2002.05 3827.48C2002.05 3831.47 2003.3 3836.66 2014.26 3840.8L2028.49 3846.13C2044.65 3851.18 2052.05 3861.89 2052.05 3872.18C2052.05 3889.43 2038.35 3900.1 2018.35 3900.1C2001.38 3900.1 1989.31 3891.88 1984.36 3880.64" fill="black"/>
<path id="Vector_69" d="M2138.2 3807.67V3809.74C2138.2 3812.91 2136.42 3814.69 2133.25 3814.69H2106.52V3893.75C2106.52 3896.92 2104.74 3898.7 2101.57 3898.7H2097.05C2093.87 3898.7 2092.1 3896.92 2092.1 3893.75V3814.69H2065.37C2062.34 3814.69 2060.41 3812.91 2060.41 3809.74V3807.67C2060.41 3804.5 2062.34 3802.72 2065.37 3802.72H2133.2C2136.37 3802.72 2138.15 3804.5 2138.15 3807.67" fill="black"/>
<path id="Vector_70" d="M2134.21 3892.88L2167.24 3806.71C2168.2 3804.12 2170.27 3802.72 2173.01 3802.72H2180.94C2183.83 3802.72 2185.75 3804.12 2186.71 3806.71L2220.03 3892.88C2221.28 3896.3 2219.88 3898.65 2216.18 3898.65H2211.81C2208.92 3898.65 2207 3897.4 2205.89 3894.66L2199.98 3879.04H2154.21L2148.3 3894.66C2147.19 3897.4 2145.41 3898.65 2142.53 3898.65H2138.01C2134.31 3898.65 2132.82 3896.34 2134.16 3892.88M2195.89 3867.27L2177 3816.85L2158.34 3867.27H2195.89Z" fill="black"/>
<path id="Vector_71" d="M2293.59 3807.67V3809.74C2293.59 3812.91 2291.81 3814.69 2288.64 3814.69H2261.91V3893.75C2261.91 3896.92 2260.13 3898.7 2256.95 3898.7H2252.43C2249.26 3898.7 2247.48 3896.92 2247.48 3893.75V3814.69H2220.75C2217.72 3814.69 2215.8 3812.91 2215.8 3809.74V3807.67C2215.8 3804.5 2217.72 3802.72 2220.75 3802.72H2288.59C2291.76 3802.72 2293.54 3804.5 2293.54 3807.67" fill="black"/>
<path id="Vector_72" d="M2307.86 3863.04V3807.67C2307.86 3804.5 2309.79 3802.72 2312.82 3802.72H2317.48C2320.65 3802.72 2322.43 3804.5 2322.43 3807.67V3863.04C2322.43 3879.19 2333.39 3887.17 2345.99 3887.17C2358.59 3887.17 2369.69 3879.24 2369.69 3863.04V3807.67C2369.69 3804.5 2371.47 3802.72 2374.64 3802.72H2379.16C2382.34 3802.72 2384.26 3804.5 2384.26 3807.67V3863.04C2384.26 3887.41 2366.71 3900.19 2346.04 3900.19C2325.36 3900.19 2307.96 3887.45 2307.96 3863.04" fill="black"/>
<path id="Vector_73" d="M2399.26 3880.73C2397.91 3877.7 2399.55 3875.4 2402.53 3874.58L2406.52 3873.62C2409.55 3872.95 2411.18 3874.05 2412.67 3876.89C2416.09 3882.8 2423.35 3887.41 2432.96 3887.41C2445.32 3887.41 2452.82 3881.41 2452.82 3873.19C2452.82 3865.93 2446.81 3861.41 2438.97 3858.53L2424.74 3853.72C2406.66 3847.72 2402.29 3836.85 2402.29 3827.96C2402.29 3811.38 2416.81 3801.24 2433.39 3801.24C2448.49 3801.24 2459.16 3808.5 2463.54 3819.31C2464.79 3822.34 2463.25 3824.65 2460.27 3825.46L2456.86 3826.57C2453.83 3827.39 2451.9 3826.28 2450.56 3823.4C2447.38 3817.1 2441.52 3814.07 2433.59 3814.07C2424.55 3814.07 2417 3819.02 2417 3827.48C2417 3831.47 2418.25 3836.66 2429.21 3840.8L2443.44 3846.13C2459.6 3851.18 2467 3861.89 2467 3872.18C2467 3889.43 2453.3 3900.1 2433.3 3900.1C2416.33 3900.1 2404.26 3891.88 2399.31 3880.64" fill="black"/>
<path id="Vector_74" d="M1626.62 3763.27V3722.22H1635.46C1637.1 3722.22 1638.49 3722.42 1639.74 3722.85C1640.99 3723.28 1642.1 3724 1643.11 3725.11C1644.12 3726.17 1644.79 3727.46 1645.18 3728.9C1645.56 3730.35 1645.75 3732.32 1645.75 3734.77C1645.75 3736.59 1645.66 3738.18 1645.42 3739.43C1645.22 3740.68 1644.74 3741.88 1644.07 3742.99C1643.25 3744.33 1642.19 3745.39 1640.85 3746.11C1639.5 3746.88 1637.72 3747.22 1635.56 3747.22H1632.58V3763.27H1626.71H1626.62ZM1632.48 3727.75V3741.69H1635.32C1636.52 3741.69 1637.43 3741.5 1638.11 3741.16C1638.78 3740.82 1639.26 3740.34 1639.55 3739.72C1639.84 3739.14 1640.03 3738.42 1640.08 3737.6C1640.13 3736.74 1640.18 3735.83 1640.18 3734.77C1640.18 3733.81 1640.18 3732.89 1640.13 3732.03C1640.13 3731.16 1639.93 3730.39 1639.6 3729.77C1639.31 3729.1 1638.83 3728.62 1638.2 3728.28C1637.58 3727.94 1636.71 3727.75 1635.56 3727.75H1632.48Z" fill="black"/>
<path id="Vector_75" d="M1662.14 3731.94C1662.14 3730.31 1662.43 3728.82 1663.01 3727.57C1663.59 3726.32 1664.36 3725.26 1665.32 3724.39C1666.23 3723.58 1667.29 3722.95 1668.44 3722.57C1669.6 3722.14 1670.8 3721.94 1672 3721.94C1673.2 3721.94 1674.36 3722.14 1675.56 3722.57C1676.71 3723 1677.82 3723.63 1678.78 3724.39C1679.69 3725.26 1680.46 3726.32 1681.04 3727.57C1681.62 3728.82 1681.9 3730.31 1681.9 3731.94V3753.61C1681.9 3755.34 1681.62 3756.83 1681.04 3758.04C1680.46 3759.24 1679.69 3760.29 1678.78 3761.11C1677.82 3761.98 1676.76 3762.6 1675.56 3763.03C1674.36 3763.47 1673.2 3763.66 1672 3763.66C1670.8 3763.66 1669.64 3763.47 1668.44 3763.03C1667.29 3762.6 1666.23 3761.98 1665.32 3761.11C1664.36 3760.29 1663.59 3759.29 1663.01 3758.04C1662.43 3756.79 1662.14 3755.34 1662.14 3753.61V3731.94ZM1668.01 3753.61C1668.01 3755.06 1668.39 3756.07 1669.21 3756.74C1669.98 3757.41 1670.94 3757.75 1672 3757.75C1673.06 3757.75 1674.02 3757.41 1674.79 3756.74C1675.56 3756.07 1675.99 3755.01 1675.99 3753.61V3731.94C1675.99 3730.5 1675.61 3729.49 1674.79 3728.82C1674.02 3728.14 1673.06 3727.81 1672 3727.81C1670.94 3727.81 1669.98 3728.14 1669.21 3728.82C1668.44 3729.49 1668.01 3730.55 1668.01 3731.94V3753.61Z" fill="black"/>
<path id="Vector_76" d="M1729.31 3722.22L1723.2 3763.27H1717.67L1713.15 3736.64H1713.06L1708.63 3763.27H1703.11L1697 3722.22H1703.25L1706.18 3748.27H1706.28L1710.89 3722.22H1715.41L1720.22 3748.95H1720.32L1723.15 3722.22H1729.4H1729.31Z" fill="black"/>
<path id="Vector_77" d="M1745.42 3763.27V3722.22H1762.96V3727.75H1751.33V3739.81H1761.47V3745.34H1751.33V3757.4H1762.96V3763.27H1745.42Z" fill="black"/>
<path id="Vector_78" d="M1779.16 3763.27V3722.22H1788.63C1795.56 3722.22 1799.02 3726.26 1799.02 3734.29C1799.02 3736.69 1798.63 3738.76 1797.91 3740.44C1797.14 3742.12 1795.85 3743.51 1793.97 3744.52L1800.32 3763.27H1794.07L1788.59 3745.73H1785.08V3763.27H1779.21H1779.16ZM1785.03 3727.75V3740.54H1788.39C1789.45 3740.54 1790.27 3740.39 1790.89 3740.1C1791.52 3739.81 1792 3739.38 1792.34 3738.85C1792.62 3738.32 1792.86 3737.65 1792.96 3736.88C1793.06 3736.11 1793.15 3735.2 1793.15 3734.14C1793.15 3733.09 1793.11 3732.17 1792.96 3731.4C1792.86 3730.64 1792.62 3729.91 1792.29 3729.34C1791.57 3728.28 1790.17 3727.7 1788.15 3727.7H1785.08L1785.03 3727.75Z" fill="black"/>
<path id="Vector_79" d="M1816.14 3763.27V3722.22H1833.68V3727.75H1822.05V3739.81H1832.19V3745.34H1822.05V3757.4H1833.68V3763.27H1816.14Z" fill="black"/>
<path id="Vector_80" d="M1849.88 3763.27V3722.22H1858.59C1861.95 3722.22 1864.55 3723.14 1866.28 3725.01C1868.01 3726.84 1868.92 3729.48 1868.92 3732.85V3752.07C1868.92 3755.91 1868.01 3758.75 1866.13 3760.58C1864.26 3762.4 1861.57 3763.32 1858.11 3763.32H1849.93L1849.88 3763.27ZM1855.75 3727.75V3757.74H1858.44C1860.08 3757.74 1861.28 3757.31 1861.95 3756.49C1862.62 3755.67 1863.01 3754.38 1863.01 3752.6V3732.8C1863.01 3731.16 1862.67 3729.91 1862.05 3729.05C1861.37 3728.18 1860.22 3727.7 1858.49 3727.7H1855.8L1855.75 3727.75Z" fill="black"/>
<path id="Vector_81" d="M1909.98 3763.27V3722.22H1918.59C1920.46 3722.22 1922.1 3722.51 1923.39 3723.09C1924.74 3723.67 1925.8 3724.44 1926.66 3725.4C1927.53 3726.36 1928.11 3727.46 1928.49 3728.71C1928.87 3729.96 1929.02 3731.26 1929.02 3732.61V3734.1C1929.02 3735.2 1928.92 3736.16 1928.78 3736.93C1928.59 3737.7 1928.35 3738.37 1928.01 3738.95C1927.34 3740.01 1926.37 3740.97 1925.03 3741.74C1926.42 3742.41 1927.43 3743.37 1928.11 3744.62C1928.78 3745.87 1929.07 3747.6 1929.07 3749.81V3752.12C1929.07 3755.72 1928.2 3758.51 1926.42 3760.43C1924.69 3762.35 1921.86 3763.32 1918.01 3763.32H1909.98V3763.27ZM1915.89 3727.75V3739.05H1918.54C1920.51 3739.05 1921.81 3738.56 1922.48 3737.56C1923.15 3736.55 1923.49 3735.15 1923.49 3733.28C1923.49 3731.4 1923.11 3730.06 1922.38 3729.15C1921.61 3728.23 1920.27 3727.75 1918.3 3727.75H1915.89ZM1915.89 3744.24V3757.4H1918.44C1919.64 3757.4 1920.56 3757.21 1921.23 3756.88C1921.9 3756.54 1922.43 3756.06 1922.77 3755.43C1923.11 3754.81 1923.35 3754.09 1923.39 3753.22C1923.49 3752.36 1923.49 3751.44 1923.49 3750.44C1923.49 3749.43 1923.44 3748.51 1923.3 3747.74C1923.2 3746.98 1922.96 3746.3 1922.62 3745.77C1922.24 3745.25 1921.71 3744.86 1921.09 3744.57C1920.46 3744.28 1919.55 3744.19 1918.49 3744.19H1915.89V3744.24Z" fill="black"/>
<path id="Vector_82" d="M1952.43 3763.27V3745.92L1944.36 3722.22H1950.61L1955.32 3738.56H1955.41L1960.13 3722.22H1966.38L1958.3 3745.92V3763.27H1952.43Z" fill="black"/>
<g id="Layer_1-2_2">
<path id="Vector_83" d="M1532.34 3931H1370.37C1349.12 3931 1331.81 3913.7 1331.81 3892.46V3730.54C1331.81 3709.3 1349.12 3692 1370.37 3692H1532.34C1553.59 3692 1570.89 3709.3 1570.89 3730.54V3892.46C1570.89 3913.7 1553.59 3931 1532.34 3931ZM1370.37 3696.47C1351.57 3696.47 1336.28 3711.75 1336.28 3730.54V3892.46C1336.28 3911.25 1351.57 3926.53 1370.41 3926.53H1532.38C1551.18 3926.53 1566.52 3911.25 1566.52 3892.46V3730.54C1566.52 3711.75 1551.23 3696.47 1532.38 3696.47H1370.37Z" fill="black"/>
<path id="Vector_84" d="M1451.38 3723.82C1413.39 3723.82 1382.53 3754.91 1382.53 3793.17C1382.53 3806.72 1386.42 3819.84 1393.78 3831.13L1393.97 3831.42C1394.79 3832.67 1395.7 3833.97 1396.62 3835.17L1443.49 3895.96C1443.49 3895.96 1443.49 3895.96 1443.49 3896.01L1445.85 3899.23V3895.92C1445.85 3872.46 1438.78 3863.24 1436.28 3859.39C1435.8 3858.62 1435.94 3857.32 1435.89 3856.22C1435.89 3855.64 1436.38 3855.21 1436.9 3855.26C1441.62 3856.51 1446.47 3857.13 1451.42 3857.13C1456.38 3857.13 1461.28 3856.51 1465.99 3855.26C1466.47 3855.26 1466.86 3855.69 1466.86 3856.22C1466.86 3857.28 1467 3858.62 1466.47 3859.39C1463.97 3863.24 1456.9 3872.46 1456.9 3895.92V3898.99L1460.22 3894.67L1505.7 3835.6C1515.17 3823.35 1520.17 3808.64 1520.17 3793.12C1520.17 3754.91 1489.31 3723.77 1451.33 3723.77L1451.38 3723.82ZM1485.22 3838.25C1475.32 3845.55 1463.63 3849.4 1451.42 3849.4C1433.15 3849.4 1415.8 3840.5 1405.03 3825.65C1386.38 3799.94 1392 3763.71 1417.53 3744.91C1427.43 3737.61 1439.12 3733.76 1451.33 3733.76C1469.6 3733.76 1486.95 3742.65 1497.72 3757.51C1516.38 3783.22 1510.75 3819.45 1485.22 3838.25Z" fill="black"/>
</g>
</g>
</g>
</g>
<g id="#logo-placement">
<g id="Area">
<rect width="5710" height="3604" transform="translate(1278 532)" fill="#2063D6"/>
</g>
</g>
</g>
</svg>
