<svg width="7522" height="4670" viewBox="0 0 7522 4670" fill="none" xmlns="http://www.w3.org/2000/svg">
<g id="Swallow Tail">
<rect id="zone-primary" x="2" y="1" width="7519" height="4669" fill="white"/>
<g id="zone-border">
<path id="zone-border_2" d="M0 0H7519V1153.5L0 328.998V0Z" fill="#373737"/>
<path id="zone-border_3" d="M0 4670H7519V3509L0 4344V4670Z" fill="#373737"/>
<rect id="zone-border_4" x="2" y="4670" width="4669" height="1353" transform="rotate(-90 2 4670)" fill="#373737"/>
<path id="zone-border_5" d="M7519.41 4214L5667 2331.17L7519.41 451.996L7519.41 2331.17L7519.41 4214Z" fill="#373737"/>
</g>
<g id="Bleed">
<g id="Bleed_2">
<path id="Bleed_3" d="M7520.5 1.5V999.941L2.5 175.552V1.5H7520.5Z" fill="#9A9A9A" stroke="#9A9A9A"/>
<rect id="Bleed_4" x="2.5" y="4669.5" width="4668" height="1205" transform="rotate(-90 2.5 4669.5)" fill="#9A9A9A" stroke="#9A9A9A"/>
<path id="Bleed_5" d="M5875.71 2335.66L7520.67 690.697V3980.62L5875.71 2335.66Z" fill="#9A9A9A" stroke="#9A9A9A"/>
<path id="Bleed_6" d="M7520.5 4669.5V3671.06L2.5 4495.45V4669.5H7520.5Z" fill="#9A9A9A" stroke="#9A9A9A"/>
<path id="zone-border_6" d="M1208 461L6894 1086L5666.5 2332L6894 3578L1208 4210" stroke="#9A9A9A" stroke-width="8" stroke-dasharray="20 20"/>
</g>
<g id="GolfStatus Tag">
<g id="Back - Dark Tag">
<path id="Vector" d="M1476.81 3851.98C1476.81 3824.3 1499.02 3802.24 1526.71 3802.24C1538.49 3802.24 1548.49 3804.45 1557.82 3810.17C1560.41 3811.81 1560.99 3814.16 1559.45 3817.04L1558.06 3819.35C1556.57 3822.38 1554.21 3822.76 1551.18 3821.13C1540.51 3815.36 1533.92 3815.22 1526.66 3815.22C1507.19 3815.22 1491.57 3831.37 1491.57 3851.79C1491.57 3870.15 1503.92 3888.08 1528.59 3888.08C1536.95 3888.08 1544.07 3886.01 1550.51 3881.92V3862.89H1528.87C1525.7 3862.89 1523.92 3860.97 1523.92 3857.85V3856.21C1523.92 3853.04 1525.7 3851.26 1528.87 3851.26H1558.88C1562.05 3851.26 1563.83 3853.04 1563.83 3856.21V3883.9C1563.83 3886.49 1562.72 3888.7 1559.6 3891.15C1548.63 3899.23 1536.71 3901.15 1527.96 3901.15C1498.2 3901.15 1476.86 3878.95 1476.86 3851.98" fill="white"/>
<path id="Vector_2" d="M1577.53 3851.7C1577.53 3824.45 1599.74 3802.24 1627.43 3802.24C1655.13 3802.24 1677.34 3824.45 1677.34 3851.7C1677.34 3878.95 1655.13 3901.15 1627.43 3901.15C1599.74 3901.15 1577.53 3878.95 1577.53 3851.7ZM1662.53 3851.7C1662.53 3831.03 1646.76 3815.27 1627.43 3815.27C1608.11 3815.27 1592.34 3831.03 1592.34 3851.7C1592.34 3872.36 1608.11 3888.12 1627.43 3888.12C1646.76 3888.12 1662.53 3872.36 1662.53 3851.7Z" fill="white"/>
<path id="Vector_3" d="M1693.73 3894.76V3808.73C1693.73 3805.56 1695.51 3803.78 1698.68 3803.78H1703.35C1706.52 3803.78 1708.3 3805.56 1708.3 3808.73V3887.79H1747.1C1750.27 3887.79 1752.14 3889.57 1752.14 3892.74V3894.81C1752.14 3897.98 1750.22 3899.76 1747.1 3899.76H1698.73C1695.56 3899.76 1693.78 3897.98 1693.78 3894.81" fill="white"/>
<path id="Vector_4" d="M1825.99 3808.67V3810.74C1825.99 3813.91 1824.21 3815.69 1821.04 3815.69H1779.12V3846.79H1815.03C1818.2 3846.79 1820.08 3848.56 1820.08 3851.74V3853.51C1820.08 3856.69 1818.16 3858.56 1815.03 3858.56H1779.12V3894.7C1779.12 3897.87 1777.34 3899.65 1774.17 3899.65H1769.5C1766.33 3899.65 1764.55 3897.87 1764.55 3894.7V3808.67C1764.55 3805.5 1766.33 3803.72 1769.5 3803.72H1821.04C1824.21 3803.72 1825.99 3805.5 1825.99 3808.67Z" fill="white"/>
<path id="Vector_5" d="M1835.56 3881.73C1834.22 3878.7 1835.85 3876.4 1838.83 3875.58L1842.82 3874.62C1845.85 3873.95 1847.48 3875.05 1848.97 3877.89C1852.39 3883.8 1859.65 3888.41 1869.26 3888.41C1881.62 3888.41 1889.12 3882.41 1889.12 3874.19C1889.12 3866.93 1883.11 3862.41 1875.27 3859.53L1861.04 3854.72C1842.97 3848.72 1838.59 3837.85 1838.59 3828.96C1838.59 3812.38 1853.11 3802.24 1869.7 3802.24C1884.79 3802.24 1895.47 3809.5 1899.84 3820.31C1901.09 3823.34 1899.55 3825.65 1896.57 3826.46L1893.16 3827.57C1890.13 3828.39 1888.21 3827.28 1886.86 3824.4C1883.69 3818.1 1877.82 3815.07 1869.89 3815.07C1860.85 3815.07 1853.3 3820.02 1853.3 3828.48C1853.3 3832.47 1854.55 3837.66 1865.51 3841.8L1879.74 3847.13C1895.9 3852.18 1903.3 3862.89 1903.3 3873.18C1903.3 3890.43 1889.6 3901.1 1869.6 3901.1C1852.63 3901.1 1840.56 3892.88 1835.61 3881.64" fill="white"/>
<path id="Vector_6" d="M1989.45 3808.67V3810.74C1989.45 3813.91 1987.67 3815.69 1984.5 3815.69H1957.77V3894.75C1957.77 3897.92 1955.99 3899.7 1952.82 3899.7H1948.3C1945.13 3899.7 1943.35 3897.92 1943.35 3894.75V3815.69H1916.62C1913.59 3815.69 1911.66 3813.91 1911.66 3810.74V3808.67C1911.66 3805.5 1913.59 3803.72 1916.62 3803.72H1984.45C1987.63 3803.72 1989.41 3805.5 1989.41 3808.67" fill="white"/>
<path id="Vector_7" d="M1985.51 3893.88L2018.54 3807.71C2019.5 3805.12 2021.57 3803.72 2024.31 3803.72H2032.24C2035.13 3803.72 2037.05 3805.12 2038.01 3807.71L2071.33 3893.88C2072.58 3897.3 2071.19 3899.65 2067.48 3899.65H2063.11C2060.23 3899.65 2058.3 3898.4 2057.2 3895.66L2051.28 3880.04H2005.51L1999.6 3895.66C1998.49 3898.4 1996.72 3899.65 1993.83 3899.65H1989.31C1985.61 3899.65 1984.12 3897.34 1985.47 3893.88M2047.15 3868.27L2028.25 3817.85L2009.6 3868.27H2047.15Z" fill="white"/>
<path id="Vector_8" d="M2144.89 3808.67V3810.74C2144.89 3813.91 2143.11 3815.69 2139.93 3815.69H2113.2V3894.75C2113.2 3897.92 2111.42 3899.7 2108.25 3899.7H2103.73C2100.56 3899.7 2098.78 3897.92 2098.78 3894.75V3815.69H2072.05C2069.02 3815.69 2067.1 3813.91 2067.1 3810.74V3808.67C2067.1 3805.5 2069.02 3803.72 2072.05 3803.72H2139.89C2143.06 3803.72 2144.84 3805.5 2144.84 3808.67" fill="white"/>
<path id="Vector_9" d="M2159.12 3864.04V3808.67C2159.12 3805.5 2161.04 3803.72 2164.07 3803.72H2168.73C2171.9 3803.72 2173.68 3805.5 2173.68 3808.67V3864.04C2173.68 3880.19 2184.64 3888.17 2197.24 3888.17C2209.84 3888.17 2220.94 3880.24 2220.94 3864.04V3808.67C2220.94 3805.5 2222.72 3803.72 2225.89 3803.72H2230.41C2233.59 3803.72 2235.51 3805.5 2235.51 3808.67V3864.04C2235.51 3888.41 2217.96 3901.19 2197.29 3901.19C2176.62 3901.19 2159.21 3888.45 2159.21 3864.04" fill="white"/>
<path id="Vector_10" d="M2250.51 3881.73C2249.16 3878.7 2250.8 3876.4 2253.78 3875.58L2257.77 3874.62C2260.8 3873.95 2262.43 3875.05 2263.92 3877.89C2267.34 3883.8 2274.6 3888.41 2284.21 3888.41C2296.57 3888.41 2304.07 3882.41 2304.07 3874.19C2304.07 3866.93 2298.06 3862.41 2290.22 3859.53L2275.99 3854.72C2257.91 3848.72 2253.54 3837.85 2253.54 3828.96C2253.54 3812.38 2268.06 3802.24 2284.65 3802.24C2299.74 3802.24 2310.41 3809.5 2314.79 3820.31C2316.04 3823.34 2314.5 3825.65 2311.52 3826.46L2308.11 3827.57C2305.08 3828.39 2303.16 3827.28 2301.81 3824.4C2298.64 3818.1 2292.77 3815.07 2284.84 3815.07C2275.8 3815.07 2268.25 3820.02 2268.25 3828.48C2268.25 3832.47 2269.5 3837.66 2280.46 3841.8L2294.69 3847.13C2310.85 3852.18 2318.25 3862.89 2318.25 3873.18C2318.25 3890.43 2304.55 3901.1 2284.55 3901.1C2267.58 3901.1 2255.51 3892.88 2250.56 3881.64" fill="white"/>
<path id="Vector_11" d="M1978.45 3764.27V3723.22H1987.29C1988.93 3723.22 1990.32 3723.42 1991.57 3723.85C1992.82 3724.28 1993.93 3725 1994.94 3726.11C1995.95 3727.17 1996.62 3728.46 1997 3729.9C1997.39 3731.35 1997.58 3733.32 1997.58 3735.77C1997.58 3737.59 1997.48 3739.18 1997.24 3740.43C1997.05 3741.68 1996.57 3742.88 1995.9 3743.99C1995.08 3745.33 1994.02 3746.39 1992.68 3747.11C1991.33 3747.88 1989.55 3748.22 1987.39 3748.22H1984.41V3764.27H1978.54H1978.45ZM1984.31 3728.75V3742.69H1987.15C1988.35 3742.69 1989.26 3742.5 1989.94 3742.16C1990.61 3741.82 1991.09 3741.34 1991.38 3740.72C1991.67 3740.14 1991.86 3739.42 1991.91 3738.6C1991.96 3737.74 1992 3736.83 1992 3735.77C1992 3734.81 1992 3733.89 1991.96 3733.03C1991.96 3732.16 1991.76 3731.39 1991.43 3730.77C1991.14 3730.1 1990.66 3729.62 1990.03 3729.28C1989.41 3728.94 1988.54 3728.75 1987.39 3728.75H1984.31Z" fill="white"/>
<path id="Vector_12" d="M2013.97 3732.94C2013.97 3731.31 2014.26 3729.82 2014.84 3728.57C2015.42 3727.32 2016.19 3726.26 2017.15 3725.39C2018.06 3724.58 2019.12 3723.95 2020.27 3723.57C2021.43 3723.14 2022.63 3722.94 2023.83 3722.94C2025.03 3722.94 2026.19 3723.14 2027.39 3723.57C2028.54 3724 2029.65 3724.63 2030.61 3725.39C2031.52 3726.26 2032.29 3727.32 2032.87 3728.57C2033.44 3729.82 2033.73 3731.31 2033.73 3732.94V3754.61C2033.73 3756.34 2033.44 3757.83 2032.87 3759.04C2032.29 3760.24 2031.52 3761.29 2030.61 3762.11C2029.65 3762.98 2028.59 3763.6 2027.39 3764.03C2026.19 3764.47 2025.03 3764.66 2023.83 3764.66C2022.63 3764.66 2021.47 3764.47 2020.27 3764.03C2019.12 3763.6 2018.06 3762.98 2017.15 3762.11C2016.19 3761.29 2015.42 3760.29 2014.84 3759.04C2014.26 3757.79 2013.97 3756.34 2013.97 3754.61V3732.94ZM2019.84 3754.61C2019.84 3756.06 2020.22 3757.07 2021.04 3757.74C2021.81 3758.41 2022.77 3758.75 2023.83 3758.75C2024.89 3758.75 2025.85 3758.41 2026.62 3757.74C2027.39 3757.07 2027.82 3756.01 2027.82 3754.61V3732.94C2027.82 3731.5 2027.44 3730.49 2026.62 3729.82C2025.85 3729.14 2024.89 3728.81 2023.83 3728.81C2022.77 3728.81 2021.81 3729.14 2021.04 3729.82C2020.27 3730.49 2019.84 3731.55 2019.84 3732.94V3754.61Z" fill="white"/>
<path id="Vector_13" d="M2081.14 3723.22L2075.03 3764.27H2069.5L2064.98 3737.64H2064.89L2060.46 3764.27H2054.94L2048.83 3723.22H2055.08L2058.01 3749.27H2058.11L2062.72 3723.22H2067.24L2072.05 3749.95H2072.15L2074.98 3723.22H2081.23H2081.14Z" fill="white"/>
<path id="Vector_14" d="M2097.19 3764.27V3723.22H2114.74V3728.75H2103.11V3740.81H2113.25V3746.34H2103.11V3758.4H2114.74V3764.27H2097.19Z" fill="white"/>
<path id="Vector_15" d="M2130.95 3764.27V3723.22H2140.42C2147.34 3723.22 2150.8 3727.26 2150.8 3735.29C2150.8 3737.69 2150.42 3739.76 2149.7 3741.44C2148.93 3743.12 2147.63 3744.51 2145.75 3745.52L2152.1 3764.27H2145.85L2140.37 3746.73H2136.86V3764.27H2130.99H2130.95ZM2136.86 3728.75V3741.54H2140.22C2141.28 3741.54 2142.1 3741.39 2142.72 3741.1C2143.35 3740.81 2143.83 3740.38 2144.17 3739.85C2144.45 3739.32 2144.7 3738.65 2144.79 3737.88C2144.89 3737.11 2144.98 3736.2 2144.98 3735.14C2144.98 3734.09 2144.94 3733.17 2144.79 3732.4C2144.7 3731.64 2144.45 3730.91 2144.12 3730.34C2143.4 3729.28 2142 3728.7 2139.98 3728.7H2136.91L2136.86 3728.75Z" fill="white"/>
<path id="Vector_16" d="M2167.97 3764.27V3723.22H2185.51V3728.75H2173.88V3740.81H2184.02V3746.34H2173.88V3758.4H2185.51V3764.27H2167.97Z" fill="white"/>
<path id="Vector_17" d="M2201.71 3764.27V3723.22H2210.42C2213.78 3723.22 2216.38 3724.14 2218.11 3726.01C2219.84 3727.84 2220.75 3730.48 2220.75 3733.85V3753.07C2220.75 3756.91 2219.84 3759.75 2217.96 3761.58C2216.09 3763.4 2213.4 3764.32 2209.93 3764.32H2201.76L2201.71 3764.27ZM2207.58 3728.75V3758.74H2210.27C2211.91 3758.74 2213.11 3758.31 2213.78 3757.49C2214.45 3756.67 2214.84 3755.38 2214.84 3753.6V3733.8C2214.84 3732.16 2214.5 3730.91 2213.88 3730.05C2213.2 3729.18 2212.05 3728.7 2210.32 3728.7H2207.63L2207.58 3728.75Z" fill="white"/>
<path id="Vector_18" d="M2261.81 3764.27V3723.22H2270.42C2272.29 3723.22 2273.93 3723.51 2275.22 3724.09C2276.57 3724.67 2277.63 3725.44 2278.49 3726.4C2279.36 3727.36 2279.93 3728.46 2280.32 3729.71C2280.7 3730.96 2280.85 3732.26 2280.85 3733.61V3735.1C2280.85 3736.2 2280.75 3737.16 2280.61 3737.93C2280.42 3738.7 2280.17 3739.37 2279.84 3739.95C2279.17 3741.01 2278.2 3741.97 2276.86 3742.74C2278.25 3743.41 2279.26 3744.37 2279.93 3745.62C2280.61 3746.87 2280.9 3748.6 2280.9 3750.81V3753.12C2280.9 3756.72 2280.03 3759.51 2278.25 3761.43C2276.52 3763.35 2273.68 3764.32 2269.84 3764.32H2261.81V3764.27ZM2267.67 3728.75V3740.05H2270.32C2272.29 3740.05 2273.59 3739.56 2274.26 3738.56C2274.93 3737.55 2275.27 3736.15 2275.27 3734.28C2275.27 3732.4 2274.89 3731.06 2274.17 3730.15C2273.4 3729.23 2272.05 3728.75 2270.08 3728.75H2267.67ZM2267.67 3745.24V3758.4H2270.22C2271.42 3758.4 2272.34 3758.21 2273.01 3757.88C2273.68 3757.54 2274.21 3757.06 2274.55 3756.43C2274.89 3755.81 2275.13 3755.09 2275.17 3754.22C2275.27 3753.36 2275.27 3752.44 2275.27 3751.44C2275.27 3750.43 2275.22 3749.51 2275.08 3748.74C2274.98 3747.98 2274.74 3747.3 2274.41 3746.77C2274.02 3746.25 2273.49 3745.86 2272.87 3745.57C2272.24 3745.28 2271.33 3745.19 2270.27 3745.19H2267.67V3745.24Z" fill="white"/>
<path id="Vector_19" d="M2304.26 3764.27V3746.92L2296.19 3723.22H2302.44L2307.15 3739.56H2307.24L2311.96 3723.22H2318.21L2310.13 3746.92V3764.27H2304.26Z" fill="white"/>
<g id="Layer_1">
<path id="Vector_20" d="M2574.79 3932H2412.82C2391.57 3932 2374.26 3914.7 2374.26 3893.46V3731.54C2374.26 3710.3 2391.57 3693 2412.82 3693H2574.79C2596.04 3693 2613.35 3710.3 2613.35 3731.54V3893.46C2613.35 3914.7 2596.04 3932 2574.79 3932ZM2412.87 3697.47C2394.07 3697.47 2378.73 3712.75 2378.73 3731.54V3893.46C2378.73 3912.25 2394.02 3927.53 2412.87 3927.53H2574.84C2593.63 3927.53 2608.97 3912.25 2608.97 3893.46V3731.54C2608.97 3712.75 2593.68 3697.47 2574.84 3697.47H2412.87Z" fill="white"/>
<path id="Vector_21" d="M2493.83 3724.82C2455.85 3724.82 2424.98 3755.91 2424.98 3794.17C2424.98 3807.72 2428.88 3820.84 2436.23 3832.13L2436.42 3832.42C2437.24 3833.67 2438.15 3834.97 2439.07 3836.17L2485.94 3896.96C2485.94 3896.96 2485.94 3896.96 2485.94 3897.01L2488.3 3900.23V3896.92C2488.3 3873.46 2481.23 3864.24 2478.73 3860.39C2478.25 3859.62 2478.39 3858.32 2478.35 3857.22C2478.35 3856.64 2478.83 3856.21 2479.36 3856.26C2484.07 3857.51 2488.92 3858.13 2493.88 3858.13C2498.83 3858.13 2503.73 3857.51 2508.44 3856.26C2508.92 3856.26 2509.31 3856.69 2509.31 3857.22C2509.31 3858.28 2509.45 3859.62 2508.92 3860.39C2506.42 3864.24 2499.36 3873.46 2499.36 3896.92V3899.99L2502.67 3895.67L2548.15 3836.6C2557.63 3824.35 2562.63 3809.64 2562.63 3794.12C2562.63 3755.91 2531.76 3724.77 2493.78 3724.77L2493.83 3724.82ZM2527.67 3839.25C2517.77 3846.55 2506.09 3850.4 2493.88 3850.4C2475.61 3850.4 2458.25 3841.5 2447.48 3826.65C2428.83 3800.94 2434.45 3764.71 2459.98 3745.91C2469.88 3738.61 2481.57 3734.76 2493.78 3734.76C2512.05 3734.76 2529.4 3743.65 2540.17 3758.51C2558.83 3784.22 2553.2 3820.45 2527.67 3839.25Z" fill="white"/>
</g>
</g>
<g id="Front - Dark Tag">
<path id="Vector_22" d="M1770.56 3851.98C1770.56 3824.3 1792.77 3802.24 1820.46 3802.24C1832.24 3802.24 1842.24 3804.45 1851.57 3810.17C1854.16 3811.81 1854.74 3814.16 1853.2 3817.04L1851.81 3819.35C1850.32 3822.38 1847.96 3822.76 1844.93 3821.13C1834.26 3815.36 1827.67 3815.22 1820.41 3815.22C1800.94 3815.22 1785.32 3831.37 1785.32 3851.79C1785.32 3870.15 1797.67 3888.08 1822.34 3888.08C1830.7 3888.08 1837.82 3886.01 1844.26 3881.92V3862.89H1822.62C1819.45 3862.89 1817.67 3860.97 1817.67 3857.85V3856.21C1817.67 3853.04 1819.45 3851.26 1822.62 3851.26H1852.62C1855.8 3851.26 1857.58 3853.04 1857.58 3856.21V3883.9C1857.58 3886.49 1856.47 3888.7 1853.34 3891.15C1842.38 3899.23 1830.46 3901.15 1821.71 3901.15C1791.95 3901.15 1770.6 3878.95 1770.6 3851.98" fill="white"/>
<path id="Vector_23" d="M1871.28 3851.7C1871.28 3824.45 1893.49 3802.24 1921.18 3802.24C1948.87 3802.24 1971.09 3824.45 1971.09 3851.7C1971.09 3878.95 1948.87 3901.15 1921.18 3901.15C1893.49 3901.15 1871.28 3878.95 1871.28 3851.7ZM1956.23 3851.7C1956.23 3831.03 1940.46 3815.27 1921.13 3815.27C1901.81 3815.27 1886.04 3831.03 1886.04 3851.7C1886.04 3872.36 1901.81 3888.12 1921.13 3888.12C1940.46 3888.12 1956.23 3872.36 1956.23 3851.7Z" fill="white"/>
<path id="Vector_24" d="M1987.48 3894.76V3808.73C1987.48 3805.56 1989.26 3803.78 1992.43 3803.78H1997.09C2000.27 3803.78 2002.05 3805.56 2002.05 3808.73V3887.79H2040.84C2044.02 3887.79 2045.89 3889.57 2045.89 3892.74V3894.81C2045.89 3897.98 2043.97 3899.76 2040.84 3899.76H1992.48C1989.31 3899.76 1987.53 3897.98 1987.53 3894.81" fill="white"/>
<path id="Vector_25" d="M2119.74 3808.67V3810.74C2119.74 3813.91 2117.96 3815.69 2114.79 3815.69H2072.87V3846.79H2108.78C2111.95 3846.79 2113.83 3848.56 2113.83 3851.74V3853.51C2113.83 3856.69 2111.91 3858.56 2108.78 3858.56H2072.87V3894.7C2072.87 3897.87 2071.09 3899.65 2067.91 3899.65H2063.25C2060.08 3899.65 2058.3 3897.87 2058.3 3894.7V3808.67C2058.3 3805.5 2060.08 3803.72 2063.25 3803.72H2114.79C2117.96 3803.72 2119.74 3805.5 2119.74 3808.67Z" fill="white"/>
<path id="Vector_26" d="M2129.31 3881.73C2127.96 3878.7 2129.6 3876.4 2132.58 3875.58L2136.57 3874.62C2139.6 3873.95 2141.23 3875.05 2142.72 3877.89C2146.14 3883.8 2153.4 3888.41 2163.01 3888.41C2175.37 3888.41 2182.87 3882.41 2182.87 3874.19C2182.87 3866.93 2176.86 3862.41 2169.02 3859.53L2154.79 3854.72C2136.71 3848.72 2132.34 3837.85 2132.34 3828.96C2132.34 3812.38 2146.86 3802.24 2163.44 3802.24C2178.54 3802.24 2189.21 3809.5 2193.59 3820.31C2194.84 3823.34 2193.3 3825.65 2190.32 3826.46L2186.91 3827.57C2183.88 3828.39 2181.95 3827.28 2180.61 3824.4C2177.43 3818.1 2171.57 3815.07 2163.64 3815.07C2154.6 3815.07 2147.05 3820.02 2147.05 3828.48C2147.05 3832.47 2148.3 3837.66 2159.26 3841.8L2173.49 3847.13C2189.65 3852.18 2197.05 3862.89 2197.05 3873.18C2197.05 3890.43 2183.35 3901.1 2163.35 3901.1C2146.38 3901.1 2134.31 3892.88 2129.36 3881.64" fill="white"/>
<path id="Vector_27" d="M2283.2 3808.67V3810.74C2283.2 3813.91 2281.42 3815.69 2278.25 3815.69H2251.52V3894.75C2251.52 3897.92 2249.74 3899.7 2246.57 3899.7H2242.05C2238.87 3899.7 2237.1 3897.92 2237.1 3894.75V3815.69H2210.37C2207.34 3815.69 2205.41 3813.91 2205.41 3810.74V3808.67C2205.41 3805.5 2207.34 3803.72 2210.37 3803.72H2278.2C2281.37 3803.72 2283.15 3805.5 2283.15 3808.67" fill="white"/>
<path id="Vector_28" d="M2279.21 3893.88L2312.24 3807.71C2313.2 3805.12 2315.27 3803.72 2318.01 3803.72H2325.94C2328.83 3803.72 2330.75 3805.12 2331.71 3807.71L2365.03 3893.88C2366.28 3897.3 2364.88 3899.65 2361.18 3899.65H2356.81C2353.92 3899.65 2352 3898.4 2350.89 3895.66L2344.98 3880.04H2299.21L2293.3 3895.66C2292.19 3898.4 2290.41 3899.65 2287.53 3899.65H2283.01C2279.31 3899.65 2277.82 3897.34 2279.16 3893.88M2340.89 3868.27L2322 3817.85L2303.34 3868.27H2340.89Z" fill="white"/>
<path id="Vector_29" d="M2438.59 3808.67V3810.74C2438.59 3813.91 2436.81 3815.69 2433.64 3815.69H2406.91V3894.75C2406.91 3897.92 2405.13 3899.7 2401.95 3899.7H2397.43C2394.26 3899.7 2392.48 3897.92 2392.48 3894.75V3815.69H2365.75C2362.72 3815.69 2360.8 3813.91 2360.8 3810.74V3808.67C2360.8 3805.5 2362.72 3803.72 2365.75 3803.72H2433.59C2436.76 3803.72 2438.54 3805.5 2438.54 3808.67" fill="white"/>
<path id="Vector_30" d="M2452.86 3864.04V3808.67C2452.86 3805.5 2454.79 3803.72 2457.82 3803.72H2462.48C2465.65 3803.72 2467.43 3805.5 2467.43 3808.67V3864.04C2467.43 3880.19 2478.39 3888.17 2490.99 3888.17C2503.58 3888.17 2514.69 3880.24 2514.69 3864.04V3808.67C2514.69 3805.5 2516.47 3803.72 2519.64 3803.72H2524.16C2527.33 3803.72 2529.26 3805.5 2529.26 3808.67V3864.04C2529.26 3888.41 2511.71 3901.19 2491.04 3901.19C2470.36 3901.19 2452.96 3888.45 2452.96 3864.04" fill="white"/>
<path id="Vector_31" d="M2544.26 3881.73C2542.91 3878.7 2544.55 3876.4 2547.53 3875.58L2551.52 3874.62C2554.55 3873.95 2556.18 3875.05 2557.67 3877.89C2561.09 3883.8 2568.35 3888.41 2577.96 3888.41C2590.32 3888.41 2597.82 3882.41 2597.82 3874.19C2597.82 3866.93 2591.81 3862.41 2583.97 3859.53L2569.74 3854.72C2551.66 3848.72 2547.29 3837.85 2547.29 3828.96C2547.29 3812.38 2561.81 3802.24 2578.39 3802.24C2593.49 3802.24 2604.16 3809.5 2608.54 3820.31C2609.79 3823.34 2608.25 3825.65 2605.27 3826.46L2601.86 3827.57C2598.83 3828.39 2596.9 3827.28 2595.56 3824.4C2592.38 3818.1 2586.52 3815.07 2578.59 3815.07C2569.55 3815.07 2562 3820.02 2562 3828.48C2562 3832.47 2563.25 3837.66 2574.21 3841.8L2588.44 3847.13C2604.6 3852.18 2612 3862.89 2612 3873.18C2612 3890.43 2598.3 3901.1 2578.3 3901.1C2561.33 3901.1 2549.26 3892.88 2544.31 3881.64" fill="white"/>
<path id="Vector_32" d="M1771.62 3764.27V3723.22H1780.46C1782.1 3723.22 1783.49 3723.42 1784.74 3723.85C1785.99 3724.28 1787.1 3725 1788.11 3726.11C1789.12 3727.17 1789.79 3728.46 1790.17 3729.9C1790.56 3731.35 1790.75 3733.32 1790.75 3735.77C1790.75 3737.59 1790.66 3739.18 1790.42 3740.43C1790.22 3741.68 1789.74 3742.88 1789.07 3743.99C1788.25 3745.33 1787.19 3746.39 1785.85 3747.11C1784.5 3747.88 1782.72 3748.22 1780.56 3748.22H1777.58V3764.27H1771.71H1771.62ZM1777.48 3728.75V3742.69H1780.32C1781.52 3742.69 1782.43 3742.5 1783.11 3742.16C1783.78 3741.82 1784.26 3741.34 1784.55 3740.72C1784.84 3740.14 1785.03 3739.42 1785.08 3738.6C1785.13 3737.74 1785.17 3736.83 1785.17 3735.77C1785.17 3734.81 1785.17 3733.89 1785.13 3733.03C1785.13 3732.16 1784.93 3731.39 1784.6 3730.77C1784.31 3730.1 1783.83 3729.62 1783.2 3729.28C1782.58 3728.94 1781.71 3728.75 1780.56 3728.75H1777.48Z" fill="white"/>
<path id="Vector_33" d="M1807.14 3732.94C1807.14 3731.31 1807.43 3729.82 1808.01 3728.57C1808.59 3727.32 1809.36 3726.26 1810.32 3725.39C1811.23 3724.58 1812.29 3723.95 1813.44 3723.57C1814.6 3723.14 1815.8 3722.94 1817 3722.94C1818.2 3722.94 1819.36 3723.14 1820.56 3723.57C1821.71 3724 1822.82 3724.63 1823.78 3725.39C1824.69 3726.26 1825.46 3727.32 1826.04 3728.57C1826.62 3729.82 1826.9 3731.31 1826.9 3732.94V3754.61C1826.9 3756.34 1826.62 3757.83 1826.04 3759.04C1825.46 3760.24 1824.69 3761.29 1823.78 3762.11C1822.82 3762.98 1821.76 3763.6 1820.56 3764.03C1819.36 3764.47 1818.2 3764.66 1817 3764.66C1815.8 3764.66 1814.64 3764.47 1813.44 3764.03C1812.29 3763.6 1811.23 3762.98 1810.32 3762.11C1809.36 3761.29 1808.59 3760.29 1808.01 3759.04C1807.43 3757.79 1807.14 3756.34 1807.14 3754.61V3732.94ZM1813.01 3754.61C1813.01 3756.06 1813.39 3757.07 1814.21 3757.74C1814.98 3758.41 1815.94 3758.75 1817 3758.75C1818.06 3758.75 1819.02 3758.41 1819.79 3757.74C1820.56 3757.07 1820.99 3756.01 1820.99 3754.61V3732.94C1820.99 3731.5 1820.61 3730.49 1819.79 3729.82C1819.02 3729.14 1818.06 3728.81 1817 3728.81C1815.94 3728.81 1814.98 3729.14 1814.21 3729.82C1813.44 3730.49 1813.01 3731.55 1813.01 3732.94V3754.61Z" fill="white"/>
<path id="Vector_34" d="M1874.31 3723.22L1868.2 3764.27H1862.67L1858.15 3737.64H1858.06L1853.63 3764.27H1848.11L1842 3723.22H1848.25L1851.18 3749.27H1851.28L1855.89 3723.22H1860.41L1865.22 3749.95H1865.32L1868.15 3723.22H1874.4H1874.31Z" fill="white"/>
<path id="Vector_35" d="M1890.42 3764.27V3723.22H1907.96V3728.75H1896.33V3740.81H1906.47V3746.34H1896.33V3758.4H1907.96V3764.27H1890.42Z" fill="white"/>
<path id="Vector_36" d="M1924.16 3764.27V3723.22H1933.63C1940.56 3723.22 1944.02 3727.26 1944.02 3735.29C1944.02 3737.69 1943.63 3739.76 1942.91 3741.44C1942.14 3743.12 1940.85 3744.51 1938.97 3745.52L1945.32 3764.27H1939.07L1933.59 3746.73H1930.08V3764.27H1924.21H1924.16ZM1930.03 3728.75V3741.54H1933.39C1934.45 3741.54 1935.27 3741.39 1935.89 3741.1C1936.52 3740.81 1937 3740.38 1937.34 3739.85C1937.62 3739.32 1937.86 3738.65 1937.96 3737.88C1938.06 3737.11 1938.15 3736.2 1938.15 3735.14C1938.15 3734.09 1938.1 3733.17 1937.96 3732.4C1937.86 3731.64 1937.62 3730.91 1937.29 3730.34C1936.57 3729.28 1935.17 3728.7 1933.15 3728.7H1930.08L1930.03 3728.75Z" fill="white"/>
<path id="Vector_37" d="M1961.14 3764.27V3723.22H1978.68V3728.75H1967.05V3740.81H1977.19V3746.34H1967.05V3758.4H1978.68V3764.27H1961.14Z" fill="white"/>
<path id="Vector_38" d="M1994.88 3764.27V3723.22H2003.59C2006.95 3723.22 2009.55 3724.14 2011.28 3726.01C2013.01 3727.84 2013.92 3730.48 2013.92 3733.85V3753.07C2013.92 3756.91 2013.01 3759.75 2011.13 3761.58C2009.26 3763.4 2006.57 3764.32 2003.1 3764.32H1994.93L1994.88 3764.27ZM2000.75 3728.75V3758.74H2003.44C2005.08 3758.74 2006.28 3758.31 2006.95 3757.49C2007.62 3756.67 2008.01 3755.38 2008.01 3753.6V3733.8C2008.01 3732.16 2007.67 3730.91 2007.05 3730.05C2006.37 3729.18 2005.22 3728.7 2003.49 3728.7H2000.8L2000.75 3728.75Z" fill="white"/>
<path id="Vector_39" d="M2054.98 3764.27V3723.22H2063.59C2065.46 3723.22 2067.1 3723.51 2068.39 3724.09C2069.74 3724.67 2070.8 3725.44 2071.66 3726.4C2072.53 3727.36 2073.1 3728.46 2073.49 3729.71C2073.87 3730.96 2074.02 3732.26 2074.02 3733.61V3735.1C2074.02 3736.2 2073.92 3737.16 2073.78 3737.93C2073.59 3738.7 2073.35 3739.37 2073.01 3739.95C2072.34 3741.01 2071.37 3741.97 2070.03 3742.74C2071.42 3743.41 2072.43 3744.37 2073.1 3745.62C2073.78 3746.87 2074.07 3748.6 2074.07 3750.81V3753.12C2074.07 3756.72 2073.2 3759.51 2071.42 3761.43C2069.69 3763.35 2066.85 3764.32 2063.01 3764.32H2054.98V3764.27ZM2060.89 3728.75V3740.05H2063.54C2065.51 3740.05 2066.81 3739.56 2067.48 3738.56C2068.15 3737.55 2068.49 3736.15 2068.49 3734.28C2068.49 3732.4 2068.1 3731.06 2067.38 3730.15C2066.61 3729.23 2065.27 3728.75 2063.3 3728.75H2060.89ZM2060.89 3745.24V3758.4H2063.44C2064.64 3758.4 2065.56 3758.21 2066.23 3757.88C2066.9 3757.54 2067.43 3757.06 2067.77 3756.43C2068.1 3755.81 2068.35 3755.09 2068.39 3754.22C2068.49 3753.36 2068.49 3752.44 2068.49 3751.44C2068.49 3750.43 2068.44 3749.51 2068.3 3748.74C2068.2 3747.98 2067.96 3747.3 2067.62 3746.77C2067.24 3746.25 2066.71 3745.86 2066.09 3745.57C2065.46 3745.28 2064.55 3745.19 2063.49 3745.19H2060.89V3745.24Z" fill="white"/>
<path id="Vector_40" d="M2097.43 3764.27V3746.92L2089.36 3723.22H2095.61L2100.32 3739.56H2100.41L2105.13 3723.22H2111.38L2103.3 3746.92V3764.27H2097.43Z" fill="white"/>
<g id="Layer_1-2">
<path id="Vector_41" d="M1677.34 3932H1515.37C1494.12 3932 1476.81 3914.7 1476.81 3893.46V3731.54C1476.81 3710.3 1494.12 3693 1515.37 3693H1677.34C1698.59 3693 1715.89 3710.3 1715.89 3731.54V3893.46C1715.89 3914.7 1698.59 3932 1677.34 3932ZM1515.37 3697.47C1496.57 3697.47 1481.28 3712.75 1481.28 3731.54V3893.46C1481.28 3912.25 1496.57 3927.53 1515.41 3927.53H1677.38C1696.18 3927.53 1711.52 3912.25 1711.52 3893.46V3731.54C1711.52 3712.75 1696.23 3697.47 1677.38 3697.47H1515.37Z" fill="white"/>
<path id="Vector_42" d="M1596.38 3724.82C1558.39 3724.82 1527.53 3755.91 1527.53 3794.17C1527.53 3807.72 1531.42 3820.84 1538.78 3832.13L1538.97 3832.42C1539.79 3833.67 1540.7 3834.97 1541.62 3836.17L1588.49 3896.96C1588.49 3896.96 1588.49 3896.96 1588.49 3897.01L1590.85 3900.23V3896.92C1590.85 3873.46 1583.78 3864.24 1581.28 3860.39C1580.8 3859.62 1580.94 3858.32 1580.89 3857.22C1580.89 3856.64 1581.38 3856.21 1581.9 3856.26C1586.62 3857.51 1591.47 3858.13 1596.42 3858.13C1601.38 3858.13 1606.28 3857.51 1610.99 3856.26C1611.47 3856.26 1611.86 3856.69 1611.86 3857.22C1611.86 3858.28 1612 3859.62 1611.47 3860.39C1608.97 3864.24 1601.9 3873.46 1601.9 3896.92V3899.99L1605.22 3895.67L1650.7 3836.6C1660.17 3824.35 1665.17 3809.64 1665.17 3794.12C1665.17 3755.91 1634.31 3724.77 1596.33 3724.77L1596.38 3724.82ZM1630.22 3839.25C1620.32 3846.55 1608.63 3850.4 1596.42 3850.4C1578.15 3850.4 1560.8 3841.5 1550.03 3826.65C1531.37 3800.94 1537 3764.71 1562.53 3745.91C1572.43 3738.61 1584.12 3734.76 1596.33 3734.76C1614.6 3734.76 1631.95 3743.65 1642.72 3758.51C1661.38 3784.22 1655.75 3820.45 1630.22 3839.25Z" fill="white"/>
</g>
</g>
</g>
</g>
</g>
</svg>
