<svg width="7519" height="4669" viewBox="0 0 7519 4669" fill="none" xmlns="http://www.w3.org/2000/svg">
<g id="Triple Triangle">
<rect id="zone-primary" width="7519" height="4669" fill="white"/>
<g id="zone-secondary">
<path id="zone-secondary_2" d="M7210 310H4091.75L7210 4388.5V310Z" fill="#373737"/>
<path id="zone-secondary_3" d="M1206 310H4324.25L1206 4388.5V310Z" fill="#373737"/>
</g>
<g id="zone-border">
<rect id="Border" width="7519" height="460" fill="#373737"/>
<rect id="Border_2" y="4669" width="4669" height="1356" transform="rotate(-90 0 4669)" fill="#373737"/>
<rect id="Border_3" x="7059" y="4669" width="4669" height="460" transform="rotate(-90 7059 4669)" fill="#373737"/>
<rect id="Border_4" y="4209" width="7519" height="460" fill="#373737"/>
</g>
<g id="Bleed">
<g id="Bleed_2">
<rect id="Bleed_3" x="0.5" y="0.5" width="7518" height="309" fill="#9A9A9A" stroke="#9A9A9A"/>
<rect id="Bleed_4" x="0.5" y="4668.5" width="4668" height="1205" transform="rotate(-90 0.5 4668.5)" fill="#9A9A9A" stroke="#9A9A9A"/>
<rect id="Bleed_5" x="7209.5" y="4668.5" width="4668" height="309" transform="rotate(-90 7209.5 4668.5)" fill="#9A9A9A" stroke="#9A9A9A"/>
<rect id="Bleed_6" x="0.5" y="4359.5" width="7518" height="309" fill="#9A9A9A" stroke="#9A9A9A"/>
<path id="Bleed_7" d="M7060 460H7064V456H7060V460ZM7060 4209V4213H7064V4209H7060ZM1206 4209V4213H1216.02V4209V4205H1206V4209ZM1236.07 4209V4213H1256.12V4209V4205H1236.07V4209ZM1276.17 4209V4213H1296.22V4209V4205H1276.17V4209ZM1316.26 4209V4213H1336.31V4209V4205H1316.26V4209ZM1356.36 4209V4213H1376.41V4209V4205H1356.36V4209ZM1396.46 4209V4213H1416.5V4209V4205H1396.46V4209ZM1436.55 4209V4213H1456.6V4209V4205H1436.55V4209ZM1476.65 4209V4213H1496.7V4209V4205H1476.65V4209ZM1516.74 4209V4213H1536.79V4209V4205H1516.74V4209ZM1556.84 4209V4213H1576.89V4209V4205H1556.84V4209ZM1596.93 4209V4213H1616.98V4209V4205H1596.93V4209ZM1637.03 4209V4213H1657.08V4209V4205H1637.03V4209ZM1677.13 4209V4213H1697.17V4209V4205H1677.13V4209ZM1717.22 4209V4213H1737.27V4209V4205H1717.22V4209ZM1757.32 4209V4213H1777.37V4209V4205H1757.32V4209ZM1797.41 4209V4213H1817.46V4209V4205H1797.41V4209ZM1837.51 4209V4213H1857.56V4209V4205H1837.51V4209ZM1877.61 4209V4213H1897.65V4209V4205H1877.61V4209ZM1917.7 4209V4213H1937.75V4209V4205H1917.7V4209ZM1957.8 4209V4213H1977.85V4209V4205H1957.8V4209ZM1997.89 4209V4213H2017.94V4209V4205H1997.89V4209ZM2037.99 4209V4213H2058.04V4209V4205H2037.99V4209ZM2078.09 4209V4213H2098.13V4209V4205H2078.09V4209ZM2118.18 4209V4213H2138.23V4209V4205H2118.18V4209ZM2158.28 4209V4213H2178.33V4209V4205H2158.28V4209ZM2198.37 4209V4213H2218.42V4209V4205H2198.37V4209ZM2238.47 4209V4213H2258.52V4209V4205H2238.47V4209ZM2278.57 4209V4213H2298.61V4209V4205H2278.57V4209ZM2318.66 4209V4213H2338.71V4209V4205H2318.66V4209ZM2358.76 4209V4213H2378.81V4209V4205H2358.76V4209ZM2398.85 4209V4213H2418.9V4209V4205H2398.85V4209ZM2438.95 4209V4213H2459V4209V4205H2438.95V4209ZM2479.05 4209V4213H2499.09V4209V4205H2479.05V4209ZM2519.14 4209V4213H2539.19V4209V4205H2519.14V4209ZM2559.24 4209V4213H2579.29V4209V4205H2559.24V4209ZM2599.33 4209V4213H2619.38V4209V4205H2599.33V4209ZM2639.43 4209V4213H2659.48V4209V4205H2639.43V4209ZM2679.53 4209V4213H2699.57V4209V4205H2679.53V4209ZM2719.62 4209V4213H2739.67V4209V4205H2719.62V4209ZM2759.72 4209V4213H2779.77V4209V4205H2759.72V4209ZM2799.81 4209V4213H2819.86V4209V4205H2799.81V4209ZM2839.91 4209V4213H2859.96V4209V4205H2839.91V4209ZM2880.01 4209V4213H2900.05V4209V4205H2880.01V4209ZM2920.1 4209V4213H2940.15V4209V4205H2920.1V4209ZM2960.2 4209V4213H2980.24V4209V4205H2960.2V4209ZM3000.29 4209V4213H3020.34V4209V4205H3000.29V4209ZM3040.39 4209V4213H3060.44V4209V4205H3040.39V4209ZM3080.48 4209V4213H3100.53V4209V4205H3080.48V4209ZM3120.58 4209V4213H3140.63V4209V4205H3120.58V4209ZM3160.68 4209V4213H3180.72V4209V4205H3160.68V4209ZM3200.77 4209V4213H3220.82V4209V4205H3200.77V4209ZM3240.87 4209V4213H3260.92V4209V4205H3240.87V4209ZM3280.96 4209V4213H3301.01V4209V4205H3280.96V4209ZM3321.06 4209V4213H3341.11V4209V4205H3321.06V4209ZM3361.16 4209V4213H3381.2V4209V4205H3361.16V4209ZM3401.25 4209V4213H3421.3V4209V4205H3401.25V4209ZM3441.35 4209V4213H3461.4V4209V4205H3441.35V4209ZM3481.44 4209V4213H3501.49V4209V4205H3481.44V4209ZM3521.54 4209V4213H3541.59V4209V4205H3521.54V4209ZM3561.63 4209V4213H3581.68V4209V4205H3561.63V4209ZM3601.73 4209V4213H3621.78V4209V4205H3601.73V4209ZM3641.83 4209V4213H3661.87V4209V4205H3641.83V4209ZM3681.92 4209V4213H3701.97V4209V4205H3681.92V4209ZM3722.02 4209V4213H3742.06V4209V4205H3722.02V4209ZM3762.11 4209V4213H3782.16V4209V4205H3762.11V4209ZM3802.21 4209V4213H3822.26V4209V4205H3802.21V4209ZM3842.3 4209V4213H3862.35V4209V4205H3842.3V4209ZM3882.4 4209V4213H3902.45V4209V4205H3882.4V4209ZM3922.5 4209V4213H3942.54V4209V4205H3922.5V4209ZM3962.59 4209V4213H3982.64V4209V4205H3962.59V4209ZM4002.69 4209V4213H4022.73V4209V4205H4002.69V4209ZM4042.78 4209V4213H4062.83V4209V4205H4042.78V4209ZM4082.88 4209V4213H4102.93V4209V4205H4082.88V4209ZM4122.97 4209V4213H4143.02V4209V4205H4122.97V4209ZM4163.07 4209V4213H4183.12V4209V4205H4163.07V4209ZM4203.17 4209V4213H4223.21V4209V4205H4203.17V4209ZM4243.26 4209V4213H4263.31V4209V4205H4243.26V4209ZM4283.36 4209V4213H4303.4V4209V4205H4283.36V4209ZM4323.45 4209V4213H4343.5V4209V4205H4323.45V4209ZM4363.55 4209V4213H4383.6V4209V4205H4363.55V4209ZM4403.64 4209V4213H4423.69V4209V4205H4403.64V4209ZM4443.74 4209V4213H4463.79V4209V4205H4443.74V4209ZM4483.84 4209V4213H4503.88V4209V4205H4483.84V4209ZM4523.93 4209V4213H4543.98V4209V4205H4523.93V4209ZM4564.03 4209V4213H4584.07V4209V4205H4564.03V4209ZM4604.12 4209V4213H4624.17V4209V4205H4604.12V4209ZM4644.22 4209V4213H4664.27V4209V4205H4644.22V4209ZM4684.31 4209V4213H4704.36V4209V4205H4684.31V4209ZM4724.41 4209V4213H4744.46V4209V4205H4724.41V4209ZM4764.51 4209V4213H4784.55V4209V4205H4764.51V4209ZM4804.6 4209V4213H4824.65V4209V4205H4804.6V4209ZM4844.7 4209V4213H4864.74V4209V4205H4844.7V4209ZM4884.79 4209V4213H4904.84V4209V4205H4884.79V4209ZM4924.89 4209V4213H4944.94V4209V4205H4924.89V4209ZM4964.98 4209V4213H4985.03V4209V4205H4964.98V4209ZM5005.08 4209V4213H5025.13V4209V4205H5005.08V4209ZM5045.18 4209V4213H5065.22V4209V4205H5045.18V4209ZM5085.27 4209V4213H5105.32V4209V4205H5085.27V4209ZM5125.37 4209V4213H5145.41V4209V4205H5125.37V4209ZM5165.46 4209V4213H5185.51V4209V4205H5165.46V4209ZM5205.56 4209V4213H5225.61V4209V4205H5205.56V4209ZM5245.65 4209V4213H5265.7V4209V4205H5245.65V4209ZM5285.75 4209V4213H5305.8V4209V4205H5285.75V4209ZM5325.85 4209V4213H5345.89V4209V4205H5325.85V4209ZM5365.94 4209V4213H5385.99V4209V4205H5365.94V4209ZM5406.04 4209V4213H5426.08V4209V4205H5406.04V4209ZM5446.13 4209V4213H5466.18V4209V4205H5446.13V4209ZM5486.23 4209V4213H5506.28V4209V4205H5486.23V4209ZM5526.32 4209V4213H5546.37V4209V4205H5526.32V4209ZM5566.42 4209V4213H5586.47V4209V4205H5566.42V4209ZM5606.52 4209V4213H5626.56V4209V4205H5606.52V4209ZM5646.61 4209V4213H5666.66V4209V4205H5646.61V4209ZM5686.71 4209V4213H5706.75V4209V4205H5686.71V4209ZM5726.8 4209V4213H5746.85V4209V4205H5726.8V4209ZM5766.9 4209V4213H5786.95V4209V4205H5766.9V4209ZM5806.99 4209V4213H5827.04V4209V4205H5806.99V4209ZM5847.09 4209V4213H5867.14V4209V4205H5847.09V4209ZM5887.19 4209V4213H5907.23V4209V4205H5887.19V4209ZM5927.28 4209V4213H5947.33V4209V4205H5927.28V4209ZM5967.38 4209V4213H5987.42V4209V4205H5967.38V4209ZM6007.47 4209V4213H6027.52V4209V4205H6007.47V4209ZM6047.57 4209V4213H6067.62V4209V4205H6047.57V4209ZM6087.66 4209V4213H6107.71V4209V4205H6087.66V4209ZM6127.76 4209V4213H6147.81V4209V4205H6127.76V4209ZM6167.85 4209V4213H6187.9V4209V4205H6167.85V4209ZM6207.95 4209V4213H6228V4209V4205H6207.95V4209ZM6248.05 4209V4213H6268.09V4209V4205H6248.05V4209ZM6288.14 4209V4213H6308.19V4209V4205H6288.14V4209ZM6328.24 4209V4213H6348.29V4209V4205H6328.24V4209ZM6368.33 4209V4213H6388.38V4209V4205H6368.33V4209ZM6408.43 4209V4213H6428.48V4209V4205H6408.43V4209ZM6448.52 4209V4213H6468.57V4209V4205H6448.52V4209ZM6488.62 4209V4213H6508.67V4209V4205H6488.62V4209ZM6528.72 4209V4213H6548.76V4209V4205H6528.72V4209ZM6568.81 4209V4213H6588.86V4209V4205H6568.81V4209ZM6608.91 4209V4213H6628.96V4209V4205H6608.91V4209ZM6649 4209V4213H6669.05V4209V4205H6649V4209ZM6689.1 4209V4213H6709.15V4209V4205H6689.1V4209ZM6729.19 4209V4213H6749.24V4209V4205H6729.19V4209ZM6769.29 4209V4213H6789.34V4209V4205H6769.29V4209ZM6809.39 4209V4213H6829.43V4209V4205H6809.39V4209ZM6849.48 4209V4213H6869.53V4209V4205H6849.48V4209ZM6889.58 4209V4213H6909.63V4209V4205H6889.58V4209ZM6929.67 4209V4213H6949.72V4209V4205H6929.67V4209ZM6969.77 4209V4213H6989.82V4209V4205H6969.77V4209ZM7009.86 4209V4213H7029.91V4209V4205H7009.86V4209ZM7049.96 4209V4213H7060V4209V4205H7049.96V4209ZM7060 4209H7064V4199.03H7060H7056V4209H7060ZM7060 4179.09H7064V4159.15H7060H7056V4179.09H7060ZM7060 4139.2H7064V4119.26H7060H7056V4139.2H7060ZM7060 4099.32H7064V4079.38H7060H7056V4099.32H7060ZM7060 4059.44H7064V4039.5H7060H7056V4059.44H7060ZM7060 4019.56H7064V3999.61H7060H7056V4019.56H7060ZM7060 3979.67H7064V3959.73H7060H7056V3979.67H7060ZM7060 3939.79H7064V3919.85H7060H7056V3939.79H7060ZM7060 3899.91H7064V3879.97H7060H7056V3899.91H7060ZM7060 3860.02H7064V3840.08H7060H7056V3860.02H7060ZM7060 3820.14H7064V3800.2H7060H7056V3820.14H7060ZM7060 3780.26H7064V3760.32H7060H7056V3780.26H7060ZM7060 3740.37H7064V3720.43H7060H7056V3740.37H7060ZM7060 3700.49H7064V3680.55H7060H7056V3700.49H7060ZM7060 3660.61H7064V3640.67H7060H7056V3660.61H7060ZM7060 3620.73H7064V3600.78H7060H7056V3620.73H7060ZM7060 3580.84H7064V3560.9H7060H7056V3580.84H7060ZM7060 3540.96H7064V3521.02H7060H7056V3540.96H7060ZM7060 3501.08H7064V3481.14H7060H7056V3501.08H7060ZM7060 3461.19H7064V3441.25H7060H7056V3461.19H7060ZM7060 3421.31H7064V3401.37H7060H7056V3421.31H7060ZM7060 3381.43H7064V3361.49H7060H7056V3381.43H7060ZM7060 3341.55H7064V3321.6H7060H7056V3341.55H7060ZM7060 3301.66H7064V3281.72H7060H7056V3301.66H7060ZM7060 3261.78H7064V3241.84H7060H7056V3261.78H7060ZM7060 3221.9H7064V3201.96H7060H7056V3221.9H7060ZM7060 3182.01H7064V3162.07H7060H7056V3182.01H7060ZM7060 3142.13H7064V3122.19H7060H7056V3142.13H7060ZM7060 3102.25H7064V3082.31H7060H7056V3102.25H7060ZM7060 3062.36H7064V3042.42H7060H7056V3062.36H7060ZM7060 3022.48H7064V3002.54H7060H7056V3022.48H7060ZM7060 2982.6H7064V2962.66H7060H7056V2982.6H7060ZM7060 2942.72H7064V2922.77H7060H7056V2942.72H7060ZM7060 2902.83H7064V2882.89H7060H7056V2902.83H7060ZM7060 2862.95H7064V2843.01H7060H7056V2862.95H7060ZM7060 2823.07H7064V2803.12H7060H7056V2823.07H7060ZM7060 2783.18H7064V2763.24H7060H7056V2783.18H7060ZM7060 2743.3H7064V2723.36H7060H7056V2743.3H7060ZM7060 2703.42H7064V2683.48H7060H7056V2703.42H7060ZM7060 2663.53H7064V2643.59H7060H7056V2663.53H7060ZM7060 2623.65H7064V2603.71H7060H7056V2623.65H7060ZM7060 2583.77H7064V2563.83H7060H7056V2583.77H7060ZM7060 2543.88H7064V2523.94H7060H7056V2543.88H7060ZM7060 2504H7064V2484.06H7060H7056V2504H7060ZM7060 2464.12H7064V2444.18H7060H7056V2464.12H7060ZM7060 2424.24H7064V2404.29H7060H7056V2424.24H7060ZM7060 2384.35H7064V2364.41H7060H7056V2384.35H7060ZM7060 2344.47H7064V2324.53H7060H7056V2344.47H7060ZM7060 2304.59H7064V2284.65H7060H7056V2304.59H7060ZM7060 2264.7H7064V2244.76H7060H7056V2264.7H7060ZM7060 2224.82H7064V2204.88H7060H7056V2224.82H7060ZM7060 2184.94H7064V2165H7060H7056V2184.94H7060ZM7060 2145.05H7064V2125.11H7060H7056V2145.05H7060ZM7060 2105.17H7064V2085.23H7060H7056V2105.17H7060ZM7060 2065.29H7064V2045.35H7060H7056V2065.29H7060ZM7060 2025.41H7064V2005.46H7060H7056V2025.41H7060ZM7060 1985.52H7064V1965.58H7060H7056V1985.52H7060ZM7060 1945.64H7064V1925.7H7060H7056V1945.64H7060ZM7060 1905.76H7064V1885.82H7060H7056V1905.76H7060ZM7060 1865.87H7064V1845.93H7060H7056V1865.87H7060ZM7060 1825.99H7064V1806.05H7060H7056V1825.99H7060ZM7060 1786.11H7064V1766.17H7060H7056V1786.11H7060ZM7060 1746.23H7064V1726.28H7060H7056V1746.23H7060ZM7060 1706.34H7064V1686.4H7060H7056V1706.34H7060ZM7060 1666.46H7064V1646.52H7060H7056V1666.46H7060ZM7060 1626.58H7064V1606.64H7060H7056V1626.58H7060ZM7060 1586.69H7064V1566.75H7060H7056V1586.69H7060ZM7060 1546.81H7064V1526.87H7060H7056V1546.81H7060ZM7060 1506.93H7064V1486.99H7060H7056V1506.93H7060ZM7060 1467.05H7064V1447.1H7060H7056V1467.05H7060ZM7060 1427.16H7064V1407.22H7060H7056V1427.16H7060ZM7060 1387.28H7064V1367.34H7060H7056V1387.28H7060ZM7060 1347.4H7064V1327.46H7060H7056V1347.4H7060ZM7060 1307.52H7064V1287.57H7060H7056V1307.52H7060ZM7060 1267.63H7064V1247.69H7060H7056V1267.63H7060ZM7060 1227.75H7064V1207.81H7060H7056V1227.75H7060ZM7060 1187.87H7064V1167.93H7060H7056V1187.87H7060ZM7060 1147.98H7064V1128.04H7060H7056V1147.98H7060ZM7060 1108.1H7064V1088.16H7060H7056V1108.1H7060ZM7060 1068.22H7064V1048.28H7060H7056V1068.22H7060ZM7060 1028.34H7064V1008.39H7060H7056V1028.34H7060ZM7060 988.453H7064V968.511H7060H7056V988.453H7060ZM7060 948.57H7064V928.628H7060H7056V948.57H7060ZM7060 908.687H7064V888.746H7060H7056V908.687H7060ZM7060 868.804H7064V848.863H7060H7056V868.804H7060ZM7060 828.921H7064V808.98H7060H7056V828.921H7060ZM7060 789.039H7064V769.097H7060H7056V789.039H7060ZM7060 749.156H7064V729.214H7060H7056V749.156H7060ZM7060 709.273H7064V689.332H7060H7056V709.273H7060ZM7060 669.39H7064V649.449H7060H7056V669.39H7060ZM7060 629.507H7064V609.566H7060H7056V629.507H7060ZM7060 589.625H7064V569.683H7060H7056V589.625H7060ZM7060 549.742H7064V529.8H7060H7056V549.742H7060ZM7060 509.859H7064V489.917H7060H7056V509.859H7060ZM7060 469.976H7064V460H7060H7056V469.976H7060ZM7060 460V456H7049.98V460V464H7060V460ZM7029.93 460V456H7009.88V460V464H7029.93V460ZM6989.83 460V456H6969.78V460V464H6989.83V460ZM6949.74 460V456H6929.69V460V464H6949.74V460ZM6909.64 460V456H6889.59V460V464H6909.64V460ZM6869.54 460V456H6849.5V460V464H6869.54V460ZM6829.45 460V456H6809.4V460V464H6829.45V460ZM6789.35 460V456H6769.3V460V464H6789.35V460ZM6749.26 460V456H6729.21V460V464H6749.26V460ZM6709.16 460V456H6689.11V460V464H6709.16V460ZM6669.06 460V456H6649.02V460V464H6669.06V460ZM6628.97 460V456H6608.92V460V464H6628.97V460ZM6588.87 460V456H6568.83V460V464H6588.87V460ZM6548.78 460V456H6528.73V460V464H6548.78V460ZM6508.68 460V456H6488.63V460V464H6508.68V460ZM6468.59 460V456H6448.54V460V464H6468.59V460ZM6428.49 460V456H6408.44V460V464H6428.49V460ZM6388.39 460V456H6368.35V460V464H6388.39V460ZM6348.3 460V456H6328.25V460V464H6348.3V460ZM6308.2 460V456H6288.15V460V464H6308.2V460ZM6268.11 460V456H6248.06V460V464H6268.11V460ZM6228.01 460V456H6207.96V460V464H6228.01V460ZM6187.91 460V456H6167.87V460V464H6187.91V460ZM6147.82 460V456H6127.77V460V464H6147.82V460ZM6107.72 460V456H6087.67V460V464H6107.72V460ZM6067.63 460V456H6047.58V460V464H6067.63V460ZM6027.53 460V456H6007.48V460V464H6027.53V460ZM5987.43 460V456H5967.39V460V464H5987.43V460ZM5947.34 460V456H5927.29V460V464H5947.34V460ZM5907.24 460V456H5887.19V460V464H5907.24V460ZM5867.15 460V456H5847.1V460V464H5867.15V460ZM5827.05 460V456H5807V460V464H5827.05V460ZM5786.95 460V456H5766.91V460V464H5786.95V460ZM5746.86 460V456H5726.81V460V464H5746.86V460ZM5706.76 460V456H5686.71V460V464H5706.76V460ZM5666.67 460V456H5646.62V460V464H5666.67V460ZM5626.57 460V456H5606.52V460V464H5626.57V460ZM5586.47 460V456H5566.43V460V464H5586.47V460ZM5546.38 460V456H5526.33V460V464H5546.38V460ZM5506.28 460V456H5486.23V460V464H5506.28V460ZM5466.19 460V456H5446.14V460V464H5466.19V460ZM5426.09 460V456H5406.04V460V464H5426.09V460ZM5386 460V456H5365.95V460V464H5386V460ZM5345.9 460V456H5325.85V460V464H5345.9V460ZM5305.8 460V456H5285.76V460V464H5305.8V460ZM5265.71 460V456H5245.66V460V464H5265.71V460ZM5225.61 460V456H5205.56V460V464H5225.61V460ZM5185.52 460V456H5165.47V460V464H5185.52V460ZM5145.42 460V456H5125.37V460V464H5145.42V460ZM5105.32 460V456H5085.28V460V464H5105.32V460ZM5065.23 460V456H5045.18V460V464H5065.23V460ZM5025.13 460V456H5005.08V460V464H5025.13V460ZM4985.04 460V456H4964.99V460V464H4985.04V460ZM4944.94 460V456H4924.89V460V464H4944.94V460ZM4904.84 460V456H4884.8V460V464H4904.84V460ZM4864.75 460V456H4844.7V460V464H4864.75V460ZM4824.65 460V456H4804.6V460V464H4824.65V460ZM4784.56 460V456H4764.51V460V464H4784.56V460ZM4744.46 460V456H4724.41V460V464H4744.46V460ZM4704.37 460V456H4684.32V460V464H4704.37V460ZM4664.27 460V456H4644.22V460V464H4664.27V460ZM4624.17 460V456H4604.13V460V464H4624.17V460ZM4584.08 460V456H4564.03V460V464H4584.08V460ZM4543.98 460V456H4523.94V460V464H4543.98V460ZM4503.89 460V456H4483.84V460V464H4503.89V460ZM4463.79 460V456H4443.74V460V464H4463.79V460ZM4423.7 460V456H4403.65V460V464H4423.7V460ZM4383.6 460V456H4363.55V460V464H4383.6V460ZM4343.5 460V456H4323.46V460V464H4343.5V460ZM4303.41 460V456H4283.36V460V464H4303.41V460ZM4263.31 460V456H4243.27V460V464H4263.31V460ZM4223.22 460V456H4203.17V460V464H4223.22V460ZM4183.12 460V456H4163.07V460V464H4183.12V460ZM4143.03 460V456H4122.98V460V464H4143.03V460ZM4102.93 460V456H4082.88V460V464H4102.93V460ZM4062.83 460V456H4042.79V460V464H4062.83V460ZM4022.74 460V456H4002.69V460V464H4022.74V460ZM3982.64 460V456H3962.6V460V464H3982.64V460ZM3942.55 460V456H3922.5V460V464H3942.55V460ZM3902.45 460V456H3882.4V460V464H3902.45V460ZM3862.36 460V456H3842.31V460V464H3862.36V460ZM3822.26 460V456H3802.21V460V464H3822.26V460ZM3782.16 460V456H3762.12V460V464H3782.16V460ZM3742.07 460V456H3722.02V460V464H3742.07V460ZM3701.97 460V456H3681.93V460V464H3701.97V460ZM3661.88 460V456H3641.83V460V464H3661.88V460ZM3621.78 460V456H3601.73V460V464H3621.78V460ZM3581.69 460V456H3561.64V460V464H3581.69V460ZM3541.59 460V456H3521.54V460V464H3541.59V460ZM3501.49 460V456H3481.45V460V464H3501.49V460ZM3461.4 460V456H3441.35V460V464H3461.4V460ZM3421.3 460V456H3401.26V460V464H3421.3V460ZM3381.21 460V456H3361.16V460V464H3381.21V460ZM3341.11 460V456H3321.06V460V464H3341.11V460ZM3301.02 460V456H3280.97V460V464H3301.02V460ZM3260.92 460V456H3240.87V460V464H3260.92V460ZM3220.82 460V456H3200.78V460V464H3220.82V460ZM3180.73 460V456H3160.68V460V464H3180.73V460ZM3140.63 460V456H3120.59V460V464H3140.63V460ZM3100.54 460V456H3080.49V460V464H3100.54V460ZM3060.44 460V456H3040.39V460V464H3060.44V460ZM3020.35 460V456H3000.3V460V464H3020.35V460ZM2980.25 460V456H2960.2V460V464H2980.25V460ZM2940.15 460V456H2920.11V460V464H2940.15V460ZM2900.06 460V456H2880.01V460V464H2900.06V460ZM2859.96 460V456H2839.92V460V464H2859.96V460ZM2819.87 460V456H2799.82V460V464H2819.87V460ZM2779.77 460V456H2759.72V460V464H2779.77V460ZM2739.68 460V456H2719.63V460V464H2739.68V460ZM2699.58 460V456H2679.53V460V464H2699.58V460ZM2659.48 460V456H2639.44V460V464H2659.48V460ZM2619.39 460V456H2599.34V460V464H2619.39V460ZM2579.29 460V456H2559.25V460V464H2579.29V460ZM2539.2 460V456H2519.15V460V464H2539.2V460ZM2499.1 460V456H2479.05V460V464H2499.1V460ZM2459.01 460V456H2438.96V460V464H2459.01V460ZM2418.91 460V456H2398.86V460V464H2418.91V460ZM2378.81 460V456H2358.77V460V464H2378.81V460ZM2338.72 460V456H2318.67V460V464H2338.72V460ZM2298.62 460V456H2278.58V460V464H2298.62V460ZM2258.53 460V456H2238.48V460V464H2258.53V460ZM2218.43 460V456H2198.38V460V464H2218.43V460ZM2178.34 460V456H2158.29V460V464H2178.34V460ZM2138.24 460V456H2118.19V460V464H2138.24V460ZM2098.15 460V456H2078.1V460V464H2098.15V460ZM2058.05 460V456H2038V460V464H2058.05V460ZM2017.95 460V456H1997.91V460V464H2017.95V460ZM1977.86 460V456H1957.81V460V464H1977.86V460ZM1937.76 460V456H1917.71V460V464H1937.76V460ZM1897.67 460V456H1877.62V460V464H1897.67V460ZM1857.57 460V456H1837.52V460V464H1857.57V460ZM1817.47 460V456H1797.43V460V464H1817.47V460ZM1777.38 460V456H1757.33V460V464H1777.38V460ZM1737.28 460V456H1717.24V460V464H1737.28V460ZM1697.19 460V456H1677.14V460V464H1697.19V460ZM1657.09 460V456H1637.04V460V464H1657.09V460ZM1617 460V456H1596.95V460V464H1617V460ZM1576.9 460V456H1556.85V460V464H1576.9V460ZM1536.81 460V456H1516.76V460V464H1536.81V460ZM1496.71 460V456H1476.66V460V464H1496.71V460ZM1456.61 460V456H1436.57V460V464H1456.61V460ZM1416.52 460V456H1396.47V460V464H1416.52V460ZM1376.42 460V456H1356.37V460V464H1376.42V460ZM1336.33 460V456H1316.28V460V464H1336.33V460ZM1296.23 460V456H1276.18V460V464H1296.23V460ZM1256.14 460V456H1236.09V460V464H1256.14V460ZM1216.04 460V456H1206V460V464H1216.04V460Z" fill="#9A9A9A"/>
</g>
<g id="GolfStatus Tag">
<g id="Front - Dark Tag">
<path id="Vector" d="M5784.04 4067.7C5784.04 4044.42 5802.71 4025.87 5825.98 4025.87C5835.88 4025.87 5844.28 4027.73 5852.12 4032.54C5854.3 4033.91 5854.78 4035.89 5853.49 4038.32L5852.32 4040.26C5851.07 4042.81 5849.09 4043.13 5846.54 4041.76C5837.57 4036.91 5832.04 4036.78 5825.94 4036.78C5809.57 4036.78 5796.44 4050.36 5796.44 4067.54C5796.44 4082.98 5806.83 4098.06 5827.55 4098.06C5834.58 4098.06 5840.56 4096.32 5845.98 4092.88V4076.88H5827.8C5825.13 4076.88 5823.63 4075.26 5823.63 4072.64V4071.26C5823.63 4068.59 5825.13 4067.1 5827.8 4067.1H5853.01C5855.67 4067.1 5857.17 4068.59 5857.17 4071.26V4094.54C5857.17 4096.72 5856.24 4098.58 5853.61 4100.64C5844.4 4107.44 5834.38 4109.05 5827.03 4109.05C5802.02 4109.05 5784.08 4090.38 5784.08 4067.7" fill="white"/>
<path id="Vector_2" d="M5868.68 4067.46C5868.68 4044.54 5887.35 4025.87 5910.62 4025.87C5933.89 4025.87 5952.56 4044.54 5952.56 4067.46C5952.56 4090.38 5933.89 4109.05 5910.62 4109.05C5887.35 4109.05 5868.68 4090.38 5868.68 4067.46ZM5940.11 4067.46C5940.11 4050.08 5926.86 4036.82 5910.62 4036.82C5894.38 4036.82 5881.13 4050.08 5881.13 4067.46C5881.13 4084.84 5894.38 4098.1 5910.62 4098.1C5926.86 4098.1 5940.11 4084.84 5940.11 4067.46Z" fill="white"/>
<path id="Vector_3" d="M5966.33 4103.68V4031.33C5966.33 4028.66 5967.83 4027.17 5970.5 4027.17H5974.41C5977.08 4027.17 5978.58 4028.66 5978.58 4031.33V4097.82H6011.18C6013.85 4097.82 6015.42 4099.31 6015.42 4101.98V4103.72C6015.42 4106.39 6013.81 4107.88 6011.18 4107.88H5970.54C5967.87 4107.88 5966.37 4106.39 5966.37 4103.72" fill="white"/>
<path id="Vector_4" d="M6077.48 4031.28V4033.02C6077.48 4035.69 6075.98 4037.19 6073.32 4037.19H6038.09V4063.34H6068.27C6070.93 4063.34 6072.51 4064.83 6072.51 4067.5V4068.99C6072.51 4071.66 6070.89 4073.24 6068.27 4073.24H6038.09V4103.63C6038.09 4106.3 6036.59 4107.8 6033.93 4107.8H6030.01C6027.34 4107.8 6025.85 4106.3 6025.85 4103.63V4031.28C6025.85 4028.62 6027.34 4027.12 6030.01 4027.12H6073.32C6075.98 4027.12 6077.48 4028.62 6077.48 4031.28Z" fill="white"/>
<path id="Vector_5" d="M6085.52 4092.72C6084.39 4090.18 6085.76 4088.24 6088.27 4087.55L6091.62 4086.74C6094.17 4086.18 6095.54 4087.1 6096.79 4089.49C6099.66 4094.46 6105.76 4098.34 6113.84 4098.34C6124.22 4098.34 6130.53 4093.29 6130.53 4086.38C6130.53 4080.27 6125.48 4076.47 6118.89 4074.05L6106.93 4070.01C6091.74 4064.96 6088.07 4055.82 6088.07 4048.34C6088.07 4034.4 6100.27 4025.87 6114.2 4025.87C6126.89 4025.87 6135.86 4031.97 6139.54 4041.07C6140.59 4043.61 6139.29 4045.55 6136.79 4046.24L6133.92 4047.17C6131.38 4047.86 6129.76 4046.93 6128.63 4044.5C6125.96 4039.21 6121.03 4036.66 6114.37 4036.66C6106.77 4036.66 6100.43 4040.83 6100.43 4047.94C6100.43 4051.29 6101.48 4055.66 6110.69 4059.14L6122.65 4063.62C6136.22 4067.87 6142.45 4076.88 6142.45 4085.53C6142.45 4100.04 6130.93 4109.01 6114.12 4109.01C6099.86 4109.01 6089.72 4102.1 6085.56 4092.64" fill="white"/>
<path id="Vector_6" d="M6214.84 4031.28V4033.02C6214.84 4035.69 6213.35 4037.19 6210.68 4037.19H6188.22V4103.67C6188.22 4106.34 6186.72 4107.84 6184.06 4107.84H6180.26C6177.59 4107.84 6176.1 4106.34 6176.1 4103.67V4037.19H6153.63C6151.09 4037.19 6149.47 4035.69 6149.47 4033.02V4031.28C6149.47 4028.62 6151.09 4027.12 6153.63 4027.12H6210.64C6213.31 4027.12 6214.8 4028.62 6214.8 4031.28" fill="white"/>
<path id="Vector_7" d="M6211.53 4102.95L6239.29 4030.48C6240.1 4028.29 6241.83 4027.12 6244.14 4027.12H6250.8C6253.23 4027.12 6254.84 4028.29 6255.65 4030.48L6283.65 4102.95C6284.7 4105.82 6283.53 4107.8 6280.42 4107.8H6276.74C6274.32 4107.8 6272.7 4106.75 6271.77 4104.44L6266.8 4091.31H6228.34L6223.37 4104.44C6222.44 4106.75 6220.95 4107.8 6218.52 4107.8H6214.72C6211.61 4107.8 6210.36 4105.86 6211.49 4102.95M6263.33 4081.4L6247.45 4039L6231.77 4081.4H6263.33Z" fill="white"/>
<path id="Vector_8" d="M6345.46 4031.28V4033.02C6345.46 4035.69 6343.97 4037.19 6341.3 4037.19H6318.84V4103.67C6318.84 4106.34 6317.34 4107.84 6314.68 4107.84H6310.88C6308.21 4107.84 6306.72 4106.34 6306.72 4103.67V4037.19H6284.25C6281.71 4037.19 6280.09 4035.69 6280.09 4033.02V4031.28C6280.09 4028.62 6281.71 4027.12 6284.25 4027.12H6341.26C6343.93 4027.12 6345.42 4028.62 6345.42 4031.28" fill="white"/>
<path id="Vector_9" d="M6357.42 4077.85V4031.28C6357.42 4028.62 6359.04 4027.12 6361.58 4027.12H6365.5C6368.17 4027.12 6369.66 4028.62 6369.66 4031.28V4077.85C6369.66 4091.43 6378.87 4098.14 6389.46 4098.14C6400.04 4098.14 6409.38 4091.47 6409.38 4077.85V4031.28C6409.38 4028.62 6410.87 4027.12 6413.54 4027.12H6417.34C6420 4027.12 6421.62 4028.62 6421.62 4031.28V4077.85C6421.62 4098.34 6406.87 4109.09 6389.5 4109.09C6372.13 4109.09 6357.5 4098.38 6357.5 4077.85" fill="white"/>
<path id="Vector_10" d="M6434.22 4092.72C6433.09 4090.18 6434.47 4088.24 6436.97 4087.55L6440.32 4086.74C6442.87 4086.18 6444.24 4087.1 6445.49 4089.49C6448.36 4094.46 6454.46 4098.34 6462.54 4098.34C6472.93 4098.34 6479.23 4093.29 6479.23 4086.38C6479.23 4080.27 6474.18 4076.47 6467.59 4074.05L6455.64 4070.01C6440.44 4064.96 6436.77 4055.82 6436.77 4048.34C6436.77 4034.4 6448.97 4025.87 6462.91 4025.87C6475.59 4025.87 6484.56 4031.97 6488.24 4041.07C6489.29 4043.61 6488 4045.55 6485.49 4046.24L6482.62 4047.17C6480.08 4047.86 6478.46 4046.93 6477.33 4044.5C6474.66 4039.21 6469.74 4036.66 6463.07 4036.66C6455.47 4036.66 6449.13 4040.83 6449.13 4047.94C6449.13 4051.29 6450.18 4055.66 6459.39 4059.14L6471.35 4063.62C6484.93 4067.87 6491.15 4076.88 6491.15 4085.53C6491.15 4100.04 6479.63 4109.01 6462.83 4109.01C6448.57 4109.01 6438.42 4102.1 6434.26 4092.64" fill="white"/>
<path id="Vector_11" d="M6205.59 3993.94V3959.42H6213.03C6214.4 3959.42 6215.57 3959.58 6216.62 3959.94C6217.67 3960.31 6218.6 3960.91 6219.45 3961.84C6220.3 3962.73 6220.87 3963.82 6221.19 3965.04C6221.51 3966.25 6221.67 3967.91 6221.67 3969.97C6221.67 3971.5 6221.59 3972.84 6221.39 3973.89C6221.23 3974.94 6220.83 3975.95 6220.26 3976.88C6219.57 3978.01 6218.68 3978.9 6217.55 3979.51C6216.42 3980.15 6214.93 3980.44 6213.11 3980.44H6210.6V3993.94H6205.67H6205.59ZM6210.52 3964.07V3975.79H6212.91C6213.92 3975.79 6214.68 3975.63 6215.25 3975.34C6215.82 3975.06 6216.22 3974.66 6216.46 3974.13C6216.7 3973.65 6216.87 3973.04 6216.91 3972.35C6216.95 3971.62 6216.99 3970.86 6216.99 3969.97C6216.99 3969.16 6216.99 3968.39 6216.95 3967.66C6216.95 3966.94 6216.79 3966.29 6216.5 3965.76C6216.26 3965.2 6215.86 3964.79 6215.33 3964.51C6214.81 3964.23 6214.08 3964.07 6213.11 3964.07H6210.52Z" fill="white"/>
<path id="Vector_12" d="M6235.45 3967.59C6235.45 3966.22 6235.69 3964.96 6236.18 3963.91C6236.66 3962.86 6237.31 3961.97 6238.12 3961.24C6238.88 3960.56 6239.77 3960.03 6240.74 3959.71C6241.71 3959.35 6242.72 3959.18 6243.73 3959.18C6244.74 3959.18 6245.71 3959.35 6246.72 3959.71C6247.69 3960.07 6248.62 3960.6 6249.43 3961.24C6250.2 3961.97 6250.84 3962.86 6251.33 3963.91C6251.81 3964.96 6252.05 3966.22 6252.05 3967.59V3985.82C6252.05 3987.27 6251.81 3988.53 6251.33 3989.54C6250.84 3990.55 6250.2 3991.44 6249.43 3992.12C6248.62 3992.85 6247.73 3993.38 6246.72 3993.74C6245.71 3994.1 6244.74 3994.27 6243.73 3994.27C6242.72 3994.27 6241.75 3994.1 6240.74 3993.74C6239.77 3993.38 6238.88 3992.85 6238.12 3992.12C6237.31 3991.44 6236.66 3990.59 6236.18 3989.54C6235.69 3988.49 6235.45 3987.27 6235.45 3985.82V3967.59ZM6240.38 3985.82C6240.38 3987.03 6240.7 3987.88 6241.39 3988.45C6242.03 3989.01 6242.84 3989.3 6243.73 3989.3C6244.62 3989.3 6245.43 3989.01 6246.07 3988.45C6246.72 3987.88 6247.08 3986.99 6247.08 3985.82V3967.59C6247.08 3966.38 6246.76 3965.53 6246.07 3964.96C6245.43 3964.4 6244.62 3964.11 6243.73 3964.11C6242.84 3964.11 6242.03 3964.4 6241.39 3964.96C6240.74 3965.53 6240.38 3966.42 6240.38 3967.59V3985.82Z" fill="white"/>
<path id="Vector_13" d="M6291.89 3959.42L6286.76 3993.94H6282.11L6278.32 3971.54H6278.23L6274.52 3993.94H6269.87L6264.74 3959.42H6269.99L6272.46 3981.32H6272.54L6276.42 3959.42H6280.21L6284.25 3981.89H6284.33L6286.72 3959.42H6291.97H6291.89Z" fill="white"/>
<path id="Vector_14" d="M6305.38 3993.94V3959.42H6320.13V3964.07H6310.35V3974.21H6318.88V3978.86H6310.35V3989H6320.13V3993.94H6305.38Z" fill="white"/>
<path id="Vector_15" d="M6333.75 3993.94V3959.42H6341.71C6347.52 3959.42 6350.43 3962.81 6350.43 3969.56C6350.43 3971.58 6350.11 3973.32 6349.5 3974.74C6348.86 3976.15 6347.77 3977.32 6346.19 3978.17L6351.52 3993.94H6346.27L6341.66 3979.18H6338.72V3993.94H6333.79H6333.75ZM6338.72 3964.07V3974.82H6341.54C6342.43 3974.82 6343.12 3974.7 6343.64 3974.45C6344.17 3974.21 6344.57 3973.85 6344.86 3973.4C6345.1 3972.96 6345.3 3972.39 6345.38 3971.75C6345.46 3971.1 6345.54 3970.33 6345.54 3969.44C6345.54 3968.55 6345.5 3967.78 6345.38 3967.14C6345.3 3966.49 6345.1 3965.88 6344.82 3965.4C6344.21 3964.51 6343.04 3964.03 6341.34 3964.03H6338.76L6338.72 3964.07Z" fill="white"/>
<path id="Vector_16" d="M6364.86 3993.94V3959.42H6379.6V3964.07H6369.82V3974.21H6378.35V3978.86H6369.82V3989H6379.6V3993.94H6364.86Z" fill="white"/>
<path id="Vector_17" d="M6393.22 3993.94V3959.42H6400.53C6403.36 3959.42 6405.54 3960.19 6406.99 3961.76C6408.45 3963.3 6409.22 3965.52 6409.22 3968.35V3984.52C6409.22 3987.75 6408.45 3990.14 6406.87 3991.67C6405.3 3993.21 6403.03 3993.98 6400.13 3993.98H6393.26L6393.22 3993.94ZM6398.15 3964.07V3989.29H6400.41C6401.78 3989.29 6402.79 3988.92 6403.36 3988.24C6403.92 3987.55 6404.25 3986.46 6404.25 3984.96V3968.31C6404.25 3966.94 6403.96 3965.88 6403.44 3965.16C6402.87 3964.43 6401.9 3964.03 6400.45 3964.03H6398.19L6398.15 3964.07Z" fill="white"/>
<path id="Vector_18" d="M6443.72 3993.94V3959.42H6450.95C6452.53 3959.42 6453.9 3959.66 6454.99 3960.15C6456.12 3960.63 6457.01 3961.28 6457.74 3962.09C6458.47 3962.89 6458.95 3963.82 6459.27 3964.87C6459.6 3965.93 6459.72 3967.02 6459.72 3968.15V3969.4C6459.72 3970.33 6459.64 3971.14 6459.52 3971.79C6459.35 3972.43 6459.15 3973 6458.87 3973.48C6458.3 3974.37 6457.5 3975.18 6456.36 3975.83C6457.54 3976.39 6458.38 3977.2 6458.95 3978.25C6459.52 3979.3 6459.76 3980.76 6459.76 3982.62V3984.56C6459.76 3987.59 6459.03 3989.93 6457.54 3991.55C6456.08 3993.17 6453.7 3993.98 6450.47 3993.98H6443.72V3993.94ZM6448.65 3964.07V3973.56H6450.87C6452.53 3973.56 6453.62 3973.16 6454.18 3972.31C6454.75 3971.46 6455.03 3970.29 6455.03 3968.71C6455.03 3967.14 6454.71 3966.01 6454.1 3965.24C6453.46 3964.47 6452.32 3964.07 6450.67 3964.07H6448.65ZM6448.65 3977.93V3989H6450.79C6451.8 3989 6452.57 3988.84 6453.13 3988.56C6453.7 3988.28 6454.14 3987.87 6454.43 3987.35C6454.71 3986.82 6454.91 3986.22 6454.95 3985.49C6455.03 3984.76 6455.03 3983.99 6455.03 3983.14C6455.03 3982.29 6454.99 3981.53 6454.87 3980.88C6454.79 3980.23 6454.59 3979.67 6454.3 3979.22C6453.98 3978.78 6453.54 3978.45 6453.01 3978.21C6452.49 3977.97 6451.72 3977.89 6450.83 3977.89H6448.65V3977.93Z" fill="white"/>
<path id="Vector_19" d="M6479.39 3993.94V3979.34L6472.61 3959.42H6477.86L6481.82 3973.16H6481.9L6485.86 3959.42H6491.11L6484.32 3979.34V3993.94H6479.39Z" fill="white"/>
<g id="Layer_1">
<path id="Vector_20" d="M6706.73 4135H6570.62C6552.76 4135 6538.21 4120.45 6538.21 4102.58V3966.42C6538.21 3948.55 6552.76 3934 6570.62 3934H6706.73C6724.59 3934 6739.13 3948.55 6739.13 3966.42V4102.58C6739.13 4120.45 6724.59 4135 6706.73 4135ZM6570.66 3937.76C6554.86 3937.76 6541.97 3950.61 6541.97 3966.42V4102.58C6541.97 4118.39 6554.82 4131.24 6570.66 4131.24H6706.77C6722.57 4131.24 6735.46 4118.39 6735.46 4102.58V3966.42C6735.46 3950.61 6722.61 3937.76 6706.77 3937.76H6570.66Z" fill="white"/>
<path id="Vector_21" d="M6638.69 3960.76C6606.78 3960.76 6580.84 3986.91 6580.84 4019.08C6580.84 4030.48 6584.11 4041.51 6590.29 4051.01L6590.45 4051.25C6591.14 4052.3 6591.91 4053.39 6592.68 4054.4L6632.07 4105.53C6632.07 4105.53 6632.07 4105.53 6632.07 4105.57L6634.05 4108.28V4105.49C6634.05 4085.77 6628.11 4078.01 6626.01 4074.78C6625.6 4074.13 6625.72 4073.04 6625.68 4072.11C6625.68 4071.62 6626.09 4071.26 6626.53 4071.3C6630.49 4072.35 6634.57 4072.88 6638.73 4072.88C6642.89 4072.88 6647.02 4072.35 6650.97 4071.3C6651.38 4071.3 6651.7 4071.66 6651.7 4072.11C6651.7 4073 6651.82 4074.13 6651.38 4074.78C6649.28 4078.01 6643.34 4085.77 6643.34 4105.49V4108.08L6646.13 4104.44L6684.35 4054.77C6692.31 4044.46 6696.51 4032.09 6696.51 4019.04C6696.51 3986.91 6670.57 3960.71 6638.65 3960.71L6638.69 3960.76ZM6667.14 4056.99C6658.81 4063.13 6649 4066.37 6638.73 4066.37C6623.38 4066.37 6608.8 4058.89 6599.75 4046.4C6584.07 4024.78 6588.8 3994.3 6610.25 3978.5C6618.57 3972.36 6628.39 3969.12 6638.65 3969.12C6654.01 3969.12 6668.59 3976.6 6677.64 3989.09C6693.32 4010.71 6688.59 4041.19 6667.14 4056.99Z" fill="white"/>
</g>
</g>
<g id="Back - Dark Tag">
<path id="Vector_22" d="M6030.89 4067.7C6030.89 4044.42 6049.56 4025.87 6072.83 4025.87C6082.73 4025.87 6091.13 4027.73 6098.97 4032.54C6101.15 4033.91 6101.64 4035.89 6100.34 4038.32L6099.17 4040.26C6097.92 4042.81 6095.94 4043.13 6093.39 4041.76C6084.42 4036.91 6078.89 4036.78 6072.79 4036.78C6056.43 4036.78 6043.3 4050.36 6043.3 4067.54C6043.3 4082.98 6053.68 4098.06 6074.41 4098.06C6081.43 4098.06 6087.41 4096.32 6092.83 4092.88V4076.88H6074.65C6071.98 4076.88 6070.49 4075.26 6070.49 4072.64V4071.26C6070.49 4068.59 6071.98 4067.1 6074.65 4067.1H6099.86C6102.52 4067.1 6104.02 4068.59 6104.02 4071.26V4094.54C6104.02 4096.72 6103.09 4098.58 6100.46 4100.64C6091.25 4107.44 6081.23 4109.05 6073.88 4109.05C6048.87 4109.05 6030.93 4090.38 6030.93 4067.7" fill="white"/>
<path id="Vector_23" d="M6115.54 4067.46C6115.54 4044.54 6134.2 4025.87 6157.47 4025.87C6180.74 4025.87 6199.41 4044.54 6199.41 4067.46C6199.41 4090.38 6180.74 4109.05 6157.47 4109.05C6134.2 4109.05 6115.54 4090.38 6115.54 4067.46ZM6186.92 4067.46C6186.92 4050.08 6173.67 4036.82 6157.43 4036.82C6141.19 4036.82 6127.94 4050.08 6127.94 4067.46C6127.94 4084.84 6141.19 4098.1 6157.43 4098.1C6173.67 4098.1 6186.92 4084.84 6186.92 4067.46Z" fill="white"/>
<path id="Vector_24" d="M6213.19 4103.68V4031.33C6213.19 4028.66 6214.68 4027.17 6217.35 4027.17H6221.27C6223.93 4027.17 6225.43 4028.66 6225.43 4031.33V4097.82H6258.03C6260.7 4097.82 6262.27 4099.31 6262.27 4101.98V4103.72C6262.27 4106.39 6260.66 4107.88 6258.03 4107.88H6217.39C6214.72 4107.88 6213.23 4106.39 6213.23 4103.72" fill="white"/>
<path id="Vector_25" d="M6324.33 4031.28V4033.02C6324.33 4035.69 6322.84 4037.19 6320.17 4037.19H6284.94V4063.34H6315.12C6317.79 4063.34 6319.36 4064.83 6319.36 4067.5V4068.99C6319.36 4071.66 6317.74 4073.24 6315.12 4073.24H6284.94V4103.63C6284.94 4106.3 6283.44 4107.8 6280.78 4107.8H6276.86C6274.19 4107.8 6272.7 4106.3 6272.7 4103.63V4031.28C6272.7 4028.62 6274.19 4027.12 6276.86 4027.12H6320.17C6322.84 4027.12 6324.33 4028.62 6324.33 4031.28Z" fill="white"/>
<path id="Vector_26" d="M6332.37 4092.72C6331.24 4090.18 6332.61 4088.24 6335.12 4087.55L6338.47 4086.74C6341.02 4086.18 6342.39 4087.1 6343.64 4089.49C6346.51 4094.46 6352.61 4098.34 6360.69 4098.34C6371.08 4098.34 6377.38 4093.29 6377.38 4086.38C6377.38 4080.27 6372.33 4076.47 6365.74 4074.05L6353.78 4070.01C6338.59 4064.96 6334.92 4055.82 6334.92 4048.34C6334.92 4034.4 6347.12 4025.87 6361.06 4025.87C6373.74 4025.87 6382.71 4031.97 6386.39 4041.07C6387.44 4043.61 6386.15 4045.55 6383.64 4046.24L6380.77 4047.17C6378.23 4047.86 6376.61 4046.93 6375.48 4044.5C6372.81 4039.21 6367.88 4036.66 6361.22 4036.66C6353.62 4036.66 6347.28 4040.83 6347.28 4047.94C6347.28 4051.29 6348.33 4055.66 6357.54 4059.14L6369.5 4063.62C6383.08 4067.87 6389.3 4076.88 6389.3 4085.53C6389.3 4100.04 6377.78 4109.01 6360.98 4109.01C6346.71 4109.01 6336.57 4102.1 6332.41 4092.64" fill="white"/>
<path id="Vector_27" d="M6461.69 4031.28V4033.02C6461.69 4035.69 6460.2 4037.19 6457.53 4037.19H6435.07V4103.67C6435.07 4106.34 6433.57 4107.84 6430.91 4107.84H6427.11C6424.44 4107.84 6422.95 4106.34 6422.95 4103.67V4037.19H6400.49C6397.94 4037.19 6396.32 4035.69 6396.32 4033.02V4031.28C6396.32 4028.62 6397.94 4027.12 6400.49 4027.12H6457.49C6460.16 4027.12 6461.65 4028.62 6461.65 4031.28" fill="white"/>
<path id="Vector_28" d="M6458.34 4102.95L6486.1 4030.48C6486.9 4028.29 6488.64 4027.12 6490.95 4027.12H6497.61C6500.04 4027.12 6501.65 4028.29 6502.46 4030.48L6530.46 4102.95C6531.51 4105.82 6530.34 4107.8 6527.23 4107.8H6523.55C6521.12 4107.8 6519.51 4106.75 6518.58 4104.44L6513.61 4091.31H6475.15L6470.18 4104.44C6469.25 4106.75 6467.75 4107.8 6465.33 4107.8H6461.53C6458.42 4107.8 6457.17 4105.86 6458.3 4102.95M6510.18 4081.4L6494.3 4039L6478.62 4081.4H6510.18Z" fill="white"/>
<path id="Vector_29" d="M6592.27 4031.28V4033.02C6592.27 4035.69 6590.78 4037.19 6588.11 4037.19H6565.65V4103.67C6565.65 4106.34 6564.15 4107.84 6561.49 4107.84H6557.69C6555.02 4107.84 6553.53 4106.34 6553.53 4103.67V4037.19H6531.07C6528.52 4037.19 6526.9 4035.69 6526.9 4033.02V4031.28C6526.9 4028.62 6528.52 4027.12 6531.07 4027.12H6588.07C6590.74 4027.12 6592.23 4028.62 6592.23 4031.28" fill="white"/>
<path id="Vector_30" d="M6604.27 4077.85V4031.28C6604.27 4028.62 6605.89 4027.12 6608.43 4027.12H6612.35C6615.02 4027.12 6616.51 4028.62 6616.51 4031.28V4077.85C6616.51 4091.43 6625.72 4098.14 6636.31 4098.14C6646.9 4098.14 6656.23 4091.47 6656.23 4077.85V4031.28C6656.23 4028.62 6657.72 4027.12 6660.39 4027.12H6664.19C6666.85 4027.12 6668.47 4028.62 6668.47 4031.28V4077.85C6668.47 4098.34 6653.72 4109.09 6636.35 4109.09C6618.98 4109.09 6604.35 4098.38 6604.35 4077.85" fill="white"/>
<path id="Vector_31" d="M6681.07 4092.72C6679.94 4090.18 6681.32 4088.24 6683.82 4087.55L6687.18 4086.74C6689.72 4086.18 6691.09 4087.1 6692.35 4089.49C6695.22 4094.46 6701.32 4098.34 6709.4 4098.34C6719.78 4098.34 6726.08 4093.29 6726.08 4086.38C6726.08 4080.27 6721.03 4076.47 6714.45 4074.05L6702.49 4070.01C6687.3 4064.96 6683.62 4055.82 6683.62 4048.34C6683.62 4034.4 6695.82 4025.87 6709.76 4025.87C6722.45 4025.87 6731.41 4031.97 6735.09 4041.07C6736.14 4043.61 6734.85 4045.55 6732.34 4046.24L6729.48 4047.17C6726.93 4047.86 6725.31 4046.93 6724.18 4044.5C6721.52 4039.21 6716.59 4036.66 6709.92 4036.66C6702.33 4036.66 6695.98 4040.83 6695.98 4047.94C6695.98 4051.29 6697.03 4055.66 6706.24 4059.14L6718.2 4063.62C6731.78 4067.87 6738 4076.88 6738 4085.53C6738 4100.04 6726.49 4109.01 6709.68 4109.01C6695.42 4109.01 6685.28 4102.1 6681.11 4092.64" fill="white"/>
<path id="Vector_32" d="M6031.79 3993.94V3959.42H6039.22C6040.59 3959.42 6041.76 3959.58 6042.81 3959.94C6043.87 3960.31 6044.79 3960.91 6045.64 3961.84C6046.49 3962.73 6047.06 3963.82 6047.38 3965.04C6047.7 3966.25 6047.86 3967.91 6047.86 3969.97C6047.86 3971.5 6047.78 3972.84 6047.58 3973.89C6047.42 3974.94 6047.02 3975.95 6046.45 3976.88C6045.76 3978.01 6044.88 3978.9 6043.74 3979.51C6042.61 3980.15 6041.12 3980.44 6039.3 3980.44H6036.79V3993.94H6031.87H6031.79ZM6036.71 3964.07V3975.79H6039.1C6040.11 3975.79 6040.88 3975.63 6041.44 3975.34C6042.01 3975.06 6042.41 3974.66 6042.65 3974.13C6042.9 3973.65 6043.06 3973.04 6043.1 3972.35C6043.14 3971.62 6043.18 3970.86 6043.18 3969.97C6043.18 3969.16 6043.18 3968.39 6043.14 3967.66C6043.14 3966.94 6042.98 3966.29 6042.69 3965.76C6042.45 3965.2 6042.05 3964.79 6041.52 3964.51C6041 3964.23 6040.27 3964.07 6039.3 3964.07H6036.71Z" fill="white"/>
<path id="Vector_33" d="M6061.64 3967.59C6061.64 3966.22 6061.88 3964.96 6062.37 3963.91C6062.85 3962.86 6063.5 3961.97 6064.31 3961.24C6065.07 3960.56 6065.96 3960.03 6066.93 3959.71C6067.9 3959.35 6068.91 3959.18 6069.92 3959.18C6070.93 3959.18 6071.9 3959.35 6072.91 3959.71C6073.88 3960.07 6074.81 3960.6 6075.62 3961.24C6076.39 3961.97 6077.03 3962.86 6077.52 3963.91C6078 3964.96 6078.25 3966.22 6078.25 3967.59V3985.82C6078.25 3987.27 6078 3988.53 6077.52 3989.54C6077.03 3990.55 6076.39 3991.44 6075.62 3992.12C6074.81 3992.85 6073.92 3993.38 6072.91 3993.74C6071.9 3994.1 6070.93 3994.27 6069.92 3994.27C6068.91 3994.27 6067.94 3994.1 6066.93 3993.74C6065.96 3993.38 6065.07 3992.85 6064.31 3992.12C6063.5 3991.44 6062.85 3990.59 6062.37 3989.54C6061.88 3988.49 6061.64 3987.27 6061.64 3985.82V3967.59ZM6066.57 3985.82C6066.57 3987.03 6066.89 3987.88 6067.58 3988.45C6068.23 3989.01 6069.03 3989.3 6069.92 3989.3C6070.81 3989.3 6071.62 3989.01 6072.27 3988.45C6072.91 3987.88 6073.28 3986.99 6073.28 3985.82V3967.59C6073.28 3966.38 6072.95 3965.53 6072.27 3964.96C6071.62 3964.4 6070.81 3964.11 6069.92 3964.11C6069.03 3964.11 6068.23 3964.4 6067.58 3964.96C6066.93 3965.53 6066.57 3966.42 6066.57 3967.59V3985.82Z" fill="white"/>
<path id="Vector_34" d="M6118.08 3959.42L6112.95 3993.94H6108.3L6104.51 3971.54H6104.43L6100.71 3993.94H6096.06L6090.93 3959.42H6096.18L6098.65 3981.32H6098.73L6102.61 3959.42H6106.41L6110.45 3981.89H6110.53L6112.91 3959.42H6118.16H6118.08Z" fill="white"/>
<path id="Vector_35" d="M6131.62 3993.94V3959.42H6146.36V3964.07H6136.59V3974.21H6145.11V3978.86H6136.59V3989H6146.36V3993.94H6131.62Z" fill="white"/>
<path id="Vector_36" d="M6159.98 3993.94V3959.42H6167.94C6173.75 3959.42 6176.66 3962.81 6176.66 3969.56C6176.66 3971.58 6176.34 3973.32 6175.73 3974.74C6175.09 3976.15 6174 3977.32 6172.42 3978.17L6177.75 3993.94H6172.5L6167.9 3979.18H6164.95V3993.94H6160.02H6159.98ZM6164.91 3964.07V3974.82H6167.73C6168.62 3974.82 6169.31 3974.7 6169.83 3974.45C6170.36 3974.21 6170.76 3973.85 6171.05 3973.4C6171.29 3972.96 6171.49 3972.39 6171.57 3971.75C6171.65 3971.1 6171.73 3970.33 6171.73 3969.44C6171.73 3968.55 6171.69 3967.78 6171.57 3967.14C6171.49 3966.49 6171.29 3965.88 6171.01 3965.4C6170.4 3964.51 6169.23 3964.03 6167.53 3964.03H6164.95L6164.91 3964.07Z" fill="white"/>
<path id="Vector_37" d="M6191.05 3993.94V3959.42H6205.79V3964.07H6196.02V3974.21H6204.54V3978.86H6196.02V3989H6205.79V3993.94H6191.05Z" fill="white"/>
<path id="Vector_38" d="M6219.41 3993.94V3959.42H6226.72C6229.55 3959.42 6231.73 3960.19 6233.18 3961.76C6234.64 3963.3 6235.41 3965.52 6235.41 3968.35V3984.52C6235.41 3987.75 6234.64 3990.14 6233.06 3991.67C6231.49 3993.21 6229.22 3993.98 6226.31 3993.98H6219.45L6219.41 3993.94ZM6224.34 3964.07V3989.29H6226.6C6227.97 3989.29 6228.98 3988.92 6229.55 3988.24C6230.11 3987.55 6230.44 3986.46 6230.44 3984.96V3968.31C6230.44 3966.94 6230.15 3965.88 6229.63 3965.16C6229.06 3964.43 6228.09 3964.03 6226.64 3964.03H6224.38L6224.34 3964.07Z" fill="white"/>
<path id="Vector_39" d="M6269.91 3993.94V3959.42H6277.14C6278.72 3959.42 6280.09 3959.66 6281.18 3960.15C6282.31 3960.63 6283.2 3961.28 6283.93 3962.09C6284.65 3962.89 6285.14 3963.82 6285.46 3964.87C6285.79 3965.93 6285.91 3967.02 6285.91 3968.15V3969.4C6285.91 3970.33 6285.83 3971.14 6285.71 3971.79C6285.54 3972.43 6285.34 3973 6285.06 3973.48C6284.49 3974.37 6283.69 3975.18 6282.55 3975.83C6283.73 3976.39 6284.57 3977.2 6285.14 3978.25C6285.71 3979.3 6285.95 3980.76 6285.95 3982.62V3984.56C6285.95 3987.59 6285.22 3989.93 6283.73 3991.55C6282.27 3993.17 6279.89 3993.98 6276.66 3993.98H6269.91V3993.94ZM6274.88 3964.07V3973.56H6277.1C6278.76 3973.56 6279.85 3973.16 6280.41 3972.31C6280.98 3971.46 6281.26 3970.29 6281.26 3968.71C6281.26 3967.14 6280.94 3966.01 6280.33 3965.24C6279.69 3964.47 6278.55 3964.07 6276.9 3964.07H6274.88ZM6274.88 3977.93V3989H6277.02C6278.03 3989 6278.8 3988.84 6279.36 3988.56C6279.93 3988.28 6280.37 3987.87 6280.65 3987.35C6280.94 3986.82 6281.14 3986.22 6281.18 3985.49C6281.26 3984.76 6281.26 3983.99 6281.26 3983.14C6281.26 3982.29 6281.22 3981.53 6281.1 3980.88C6281.02 3980.23 6280.82 3979.67 6280.53 3979.22C6280.21 3978.78 6279.77 3978.45 6279.24 3978.21C6278.72 3977.97 6277.95 3977.89 6277.06 3977.89H6274.88V3977.93Z" fill="white"/>
<path id="Vector_40" d="M6305.58 3993.94V3979.34L6298.8 3959.42H6304.05L6308.01 3973.16H6308.09L6312.05 3959.42H6317.3L6310.51 3979.34V3993.94H6305.58Z" fill="white"/>
<g id="Layer_1-2">
<path id="Vector_41" d="M5952.56 4135H5816.44C5798.59 4135 5784.04 4120.45 5784.04 4102.58V3966.42C5784.04 3948.55 5798.59 3934 5816.44 3934H5952.56C5970.41 3934 5984.96 3948.55 5984.96 3966.42V4102.58C5984.96 4120.45 5970.41 4135 5952.56 4135ZM5816.44 3937.76C5800.65 3937.76 5787.8 3950.61 5787.8 3966.42V4102.58C5787.8 4118.39 5800.65 4131.24 5816.48 4131.24H5952.6C5968.39 4131.24 5981.28 4118.39 5981.28 4102.58V3966.42C5981.28 3950.61 5968.43 3937.76 5952.6 3937.76H5816.44Z" fill="white"/>
<path id="Vector_42" d="M5884.52 3960.76C5852.6 3960.76 5826.66 3986.91 5826.66 4019.08C5826.66 4030.48 5829.94 4041.51 5836.12 4051.01L5836.28 4051.25C5836.97 4052.3 5837.73 4053.39 5838.5 4054.4L5877.89 4105.53C5877.89 4105.53 5877.89 4105.53 5877.89 4105.57L5879.87 4108.28V4105.49C5879.87 4085.77 5873.93 4078.01 5871.83 4074.78C5871.43 4074.13 5871.55 4073.04 5871.51 4072.11C5871.51 4071.62 5871.91 4071.26 5872.36 4071.3C5876.32 4072.35 5880.4 4072.88 5884.56 4072.88C5888.72 4072.88 5892.84 4072.35 5896.8 4071.3C5897.21 4071.3 5897.53 4071.66 5897.53 4072.11C5897.53 4073 5897.65 4074.13 5897.21 4074.78C5895.1 4078.01 5889.17 4085.77 5889.17 4105.49V4108.08L5891.95 4104.44L5930.17 4054.77C5938.13 4044.46 5942.33 4032.09 5942.33 4019.04C5942.33 3986.91 5916.4 3960.71 5884.48 3960.71L5884.52 3960.76ZM5912.96 4056.99C5904.64 4063.13 5894.82 4066.37 5884.56 4066.37C5869.21 4066.37 5854.62 4058.89 5845.57 4046.4C5829.9 4024.78 5834.62 3994.3 5856.08 3978.5C5864.4 3972.36 5874.22 3969.12 5884.48 3969.12C5899.83 3969.12 5914.42 3976.6 5923.47 3989.09C5939.14 4010.71 5934.41 4041.19 5912.96 4056.99Z" fill="white"/>
</g>
</g>
</g>
</g>
<g id="#logo-placement">
<g id="Area">
<rect width="5560" height="3604" transform="translate(1428 532)" fill="#2063D6"/>
</g>
</g>
</g>
</svg>
