<svg width="7519" height="4672" viewBox="0 0 7519 4672" fill="none" xmlns="http://www.w3.org/2000/svg">
<g id="Triple Triangle">
<rect id="zone-primary" y="2.01172" width="7519" height="4669" fill="white"/>
<g id="zone-secondary">
<rect id="zone-secondary_2" y="4210.99" width="7507" height="460" fill="#373737"/>
<rect id="zone-secondary_3" x="7060" y="4662.99" width="4662" height="459" transform="rotate(-90 7060 4662.99)" fill="#373737"/>
<rect id="zone-secondary_4" y="4671" width="4671" height="1206" transform="rotate(-90 0 4671)" fill="#373737"/>
<rect id="zone-secondary_5" y="2.01172" width="7507" height="460" fill="#373737"/>
<path id="zone-secondary_6" d="M1068.99 312.012H4244.99L1068.99 4388.51V312.012Z" fill="#373737"/>
<path id="zone-secondary_7" d="M7183 312.012H4007L7202 4390.51L7183 312.012Z" fill="#373737"/>
</g>
<g id="Bleed">
<g id="Bleed_2">
<rect id="Bleed_3" x="0.5" y="2.51172" width="7518" height="309" fill="#9A9A9A" stroke="#9A9A9A"/>
<rect id="Bleed_4" x="0.5" y="4670.51" width="4668" height="1205" transform="rotate(-90 0.5 4670.51)" fill="#9A9A9A" stroke="#9A9A9A"/>
<rect id="Bleed_5" x="7209.5" y="4670.51" width="4668" height="309" transform="rotate(-90 7209.5 4670.51)" fill="#9A9A9A" stroke="#9A9A9A"/>
<rect id="Bleed_6" x="0.5" y="4361.51" width="7518" height="309" fill="#9A9A9A" stroke="#9A9A9A"/>
<path id="Bleed_7" d="M7060 462.012H7064V458.012H7060V462.012ZM7060 4211.01V4215.01H7064V4211.01H7060ZM1206 4211.01V4215.01H1216.02V4211.01V4207.01H1206V4211.01ZM1236.07 4211.01V4215.01H1256.12V4211.01V4207.01H1236.07V4211.01ZM1276.17 4211.01V4215.01H1296.22V4211.01V4207.01H1276.17V4211.01ZM1316.26 4211.01V4215.01H1336.31V4211.01V4207.01H1316.26V4211.01ZM1356.36 4211.01V4215.01H1376.41V4211.01V4207.01H1356.36V4211.01ZM1396.46 4211.01V4215.01H1416.5V4211.01V4207.01H1396.46V4211.01ZM1436.55 4211.01V4215.01H1456.6V4211.01V4207.01H1436.55V4211.01ZM1476.65 4211.01V4215.01H1496.7V4211.01V4207.01H1476.65V4211.01ZM1516.74 4211.01V4215.01H1536.79V4211.01V4207.01H1516.74V4211.01ZM1556.84 4211.01V4215.01H1576.89V4211.01V4207.01H1556.84V4211.01ZM1596.93 4211.01V4215.01H1616.98V4211.01V4207.01H1596.93V4211.01ZM1637.03 4211.01V4215.01H1657.08V4211.01V4207.01H1637.03V4211.01ZM1677.13 4211.01V4215.01H1697.17V4211.01V4207.01H1677.13V4211.01ZM1717.22 4211.01V4215.01H1737.27V4211.01V4207.01H1717.22V4211.01ZM1757.32 4211.01V4215.01H1777.37V4211.01V4207.01H1757.32V4211.01ZM1797.41 4211.01V4215.01H1817.46V4211.01V4207.01H1797.41V4211.01ZM1837.51 4211.01V4215.01H1857.56V4211.01V4207.01H1837.51V4211.01ZM1877.61 4211.01V4215.01H1897.65V4211.01V4207.01H1877.61V4211.01ZM1917.7 4211.01V4215.01H1937.75V4211.01V4207.01H1917.7V4211.01ZM1957.8 4211.01V4215.01H1977.85V4211.01V4207.01H1957.8V4211.01ZM1997.89 4211.01V4215.01H2017.94V4211.01V4207.01H1997.89V4211.01ZM2037.99 4211.01V4215.01H2058.04V4211.01V4207.01H2037.99V4211.01ZM2078.09 4211.01V4215.01H2098.13V4211.01V4207.01H2078.09V4211.01ZM2118.18 4211.01V4215.01H2138.23V4211.01V4207.01H2118.18V4211.01ZM2158.28 4211.01V4215.01H2178.33V4211.01V4207.01H2158.28V4211.01ZM2198.37 4211.01V4215.01H2218.42V4211.01V4207.01H2198.37V4211.01ZM2238.47 4211.01V4215.01H2258.52V4211.01V4207.01H2238.47V4211.01ZM2278.57 4211.01V4215.01H2298.61V4211.01V4207.01H2278.57V4211.01ZM2318.66 4211.01V4215.01H2338.71V4211.01V4207.01H2318.66V4211.01ZM2358.76 4211.01V4215.01H2378.81V4211.01V4207.01H2358.76V4211.01ZM2398.85 4211.01V4215.01H2418.9V4211.01V4207.01H2398.85V4211.01ZM2438.95 4211.01V4215.01H2459V4211.01V4207.01H2438.95V4211.01ZM2479.05 4211.01V4215.01H2499.09V4211.01V4207.01H2479.05V4211.01ZM2519.14 4211.01V4215.01H2539.19V4211.01V4207.01H2519.14V4211.01ZM2559.24 4211.01V4215.01H2579.29V4211.01V4207.01H2559.24V4211.01ZM2599.33 4211.01V4215.01H2619.38V4211.01V4207.01H2599.33V4211.01ZM2639.43 4211.01V4215.01H2659.48V4211.01V4207.01H2639.43V4211.01ZM2679.53 4211.01V4215.01H2699.57V4211.01V4207.01H2679.53V4211.01ZM2719.62 4211.01V4215.01H2739.67V4211.01V4207.01H2719.62V4211.01ZM2759.72 4211.01V4215.01H2779.77V4211.01V4207.01H2759.72V4211.01ZM2799.81 4211.01V4215.01H2819.86V4211.01V4207.01H2799.81V4211.01ZM2839.91 4211.01V4215.01H2859.96V4211.01V4207.01H2839.91V4211.01ZM2880.01 4211.01V4215.01H2900.05V4211.01V4207.01H2880.01V4211.01ZM2920.1 4211.01V4215.01H2940.15V4211.01V4207.01H2920.1V4211.01ZM2960.2 4211.01V4215.01H2980.24V4211.01V4207.01H2960.2V4211.01ZM3000.29 4211.01V4215.01H3020.34V4211.01V4207.01H3000.29V4211.01ZM3040.39 4211.01V4215.01H3060.44V4211.01V4207.01H3040.39V4211.01ZM3080.48 4211.01V4215.01H3100.53V4211.01V4207.01H3080.48V4211.01ZM3120.58 4211.01V4215.01H3140.63V4211.01V4207.01H3120.58V4211.01ZM3160.68 4211.01V4215.01H3180.72V4211.01V4207.01H3160.68V4211.01ZM3200.77 4211.01V4215.01H3220.82V4211.01V4207.01H3200.77V4211.01ZM3240.87 4211.01V4215.01H3260.92V4211.01V4207.01H3240.87V4211.01ZM3280.96 4211.01V4215.01H3301.01V4211.01V4207.01H3280.96V4211.01ZM3321.06 4211.01V4215.01H3341.11V4211.01V4207.01H3321.06V4211.01ZM3361.16 4211.01V4215.01H3381.2V4211.01V4207.01H3361.16V4211.01ZM3401.25 4211.01V4215.01H3421.3V4211.01V4207.01H3401.25V4211.01ZM3441.35 4211.01V4215.01H3461.4V4211.01V4207.01H3441.35V4211.01ZM3481.44 4211.01V4215.01H3501.49V4211.01V4207.01H3481.44V4211.01ZM3521.54 4211.01V4215.01H3541.59V4211.01V4207.01H3521.54V4211.01ZM3561.63 4211.01V4215.01H3581.68V4211.01V4207.01H3561.63V4211.01ZM3601.73 4211.01V4215.01H3621.78V4211.01V4207.01H3601.73V4211.01ZM3641.83 4211.01V4215.01H3661.87V4211.01V4207.01H3641.83V4211.01ZM3681.92 4211.01V4215.01H3701.97V4211.01V4207.01H3681.92V4211.01ZM3722.02 4211.01V4215.01H3742.06V4211.01V4207.01H3722.02V4211.01ZM3762.11 4211.01V4215.01H3782.16V4211.01V4207.01H3762.11V4211.01ZM3802.21 4211.01V4215.01H3822.26V4211.01V4207.01H3802.21V4211.01ZM3842.3 4211.01V4215.01H3862.35V4211.01V4207.01H3842.3V4211.01ZM3882.4 4211.01V4215.01H3902.45V4211.01V4207.01H3882.4V4211.01ZM3922.5 4211.01V4215.01H3942.54V4211.01V4207.01H3922.5V4211.01ZM3962.59 4211.01V4215.01H3982.64V4211.01V4207.01H3962.59V4211.01ZM4002.69 4211.01V4215.01H4022.73V4211.01V4207.01H4002.69V4211.01ZM4042.78 4211.01V4215.01H4062.83V4211.01V4207.01H4042.78V4211.01ZM4082.88 4211.01V4215.01H4102.93V4211.01V4207.01H4082.88V4211.01ZM4122.97 4211.01V4215.01H4143.02V4211.01V4207.01H4122.97V4211.01ZM4163.07 4211.01V4215.01H4183.12V4211.01V4207.01H4163.07V4211.01ZM4203.17 4211.01V4215.01H4223.21V4211.01V4207.01H4203.17V4211.01ZM4243.26 4211.01V4215.01H4263.31V4211.01V4207.01H4243.26V4211.01ZM4283.36 4211.01V4215.01H4303.4V4211.01V4207.01H4283.36V4211.01ZM4323.45 4211.01V4215.01H4343.5V4211.01V4207.01H4323.45V4211.01ZM4363.55 4211.01V4215.01H4383.6V4211.01V4207.01H4363.55V4211.01ZM4403.64 4211.01V4215.01H4423.69V4211.01V4207.01H4403.64V4211.01ZM4443.74 4211.01V4215.01H4463.79V4211.01V4207.01H4443.74V4211.01ZM4483.84 4211.01V4215.01H4503.88V4211.01V4207.01H4483.84V4211.01ZM4523.93 4211.01V4215.01H4543.98V4211.01V4207.01H4523.93V4211.01ZM4564.03 4211.01V4215.01H4584.07V4211.01V4207.01H4564.03V4211.01ZM4604.12 4211.01V4215.01H4624.17V4211.01V4207.01H4604.12V4211.01ZM4644.22 4211.01V4215.01H4664.27V4211.01V4207.01H4644.22V4211.01ZM4684.31 4211.01V4215.01H4704.36V4211.01V4207.01H4684.31V4211.01ZM4724.41 4211.01V4215.01H4744.46V4211.01V4207.01H4724.41V4211.01ZM4764.51 4211.01V4215.01H4784.55V4211.01V4207.01H4764.51V4211.01ZM4804.6 4211.01V4215.01H4824.65V4211.01V4207.01H4804.6V4211.01ZM4844.7 4211.01V4215.01H4864.74V4211.01V4207.01H4844.7V4211.01ZM4884.79 4211.01V4215.01H4904.84V4211.01V4207.01H4884.79V4211.01ZM4924.89 4211.01V4215.01H4944.94V4211.01V4207.01H4924.89V4211.01ZM4964.98 4211.01V4215.01H4985.03V4211.01V4207.01H4964.98V4211.01ZM5005.08 4211.01V4215.01H5025.13V4211.01V4207.01H5005.08V4211.01ZM5045.18 4211.01V4215.01H5065.22V4211.01V4207.01H5045.18V4211.01ZM5085.27 4211.01V4215.01H5105.32V4211.01V4207.01H5085.27V4211.01ZM5125.37 4211.01V4215.01H5145.41V4211.01V4207.01H5125.37V4211.01ZM5165.46 4211.01V4215.01H5185.51V4211.01V4207.01H5165.46V4211.01ZM5205.56 4211.01V4215.01H5225.61V4211.01V4207.01H5205.56V4211.01ZM5245.65 4211.01V4215.01H5265.7V4211.01V4207.01H5245.65V4211.01ZM5285.75 4211.01V4215.01H5305.8V4211.01V4207.01H5285.75V4211.01ZM5325.85 4211.01V4215.01H5345.89V4211.01V4207.01H5325.85V4211.01ZM5365.94 4211.01V4215.01H5385.99V4211.01V4207.01H5365.94V4211.01ZM5406.04 4211.01V4215.01H5426.08V4211.01V4207.01H5406.04V4211.01ZM5446.13 4211.01V4215.01H5466.18V4211.01V4207.01H5446.13V4211.01ZM5486.23 4211.01V4215.01H5506.28V4211.01V4207.01H5486.23V4211.01ZM5526.32 4211.01V4215.01H5546.37V4211.01V4207.01H5526.32V4211.01ZM5566.42 4211.01V4215.01H5586.47V4211.01V4207.01H5566.42V4211.01ZM5606.52 4211.01V4215.01H5626.56V4211.01V4207.01H5606.52V4211.01ZM5646.61 4211.01V4215.01H5666.66V4211.01V4207.01H5646.61V4211.01ZM5686.71 4211.01V4215.01H5706.75V4211.01V4207.01H5686.71V4211.01ZM5726.8 4211.01V4215.01H5746.85V4211.01V4207.01H5726.8V4211.01ZM5766.9 4211.01V4215.01H5786.95V4211.01V4207.01H5766.9V4211.01ZM5806.99 4211.01V4215.01H5827.04V4211.01V4207.01H5806.99V4211.01ZM5847.09 4211.01V4215.01H5867.14V4211.01V4207.01H5847.09V4211.01ZM5887.19 4211.01V4215.01H5907.23V4211.01V4207.01H5887.19V4211.01ZM5927.28 4211.01V4215.01H5947.33V4211.01V4207.01H5927.28V4211.01ZM5967.38 4211.01V4215.01H5987.42V4211.01V4207.01H5967.38V4211.01ZM6007.47 4211.01V4215.01H6027.52V4211.01V4207.01H6007.47V4211.01ZM6047.57 4211.01V4215.01H6067.62V4211.01V4207.01H6047.57V4211.01ZM6087.66 4211.01V4215.01H6107.71V4211.01V4207.01H6087.66V4211.01ZM6127.76 4211.01V4215.01H6147.81V4211.01V4207.01H6127.76V4211.01ZM6167.85 4211.01V4215.01H6187.9V4211.01V4207.01H6167.85V4211.01ZM6207.95 4211.01V4215.01H6228V4211.01V4207.01H6207.95V4211.01ZM6248.05 4211.01V4215.01H6268.09V4211.01V4207.01H6248.05V4211.01ZM6288.14 4211.01V4215.01H6308.19V4211.01V4207.01H6288.14V4211.01ZM6328.24 4211.01V4215.01H6348.29V4211.01V4207.01H6328.24V4211.01ZM6368.33 4211.01V4215.01H6388.38V4211.01V4207.01H6368.33V4211.01ZM6408.43 4211.01V4215.01H6428.48V4211.01V4207.01H6408.43V4211.01ZM6448.52 4211.01V4215.01H6468.57V4211.01V4207.01H6448.52V4211.01ZM6488.62 4211.01V4215.01H6508.67V4211.01V4207.01H6488.62V4211.01ZM6528.72 4211.01V4215.01H6548.76V4211.01V4207.01H6528.72V4211.01ZM6568.81 4211.01V4215.01H6588.86V4211.01V4207.01H6568.81V4211.01ZM6608.91 4211.01V4215.01H6628.96V4211.01V4207.01H6608.91V4211.01ZM6649 4211.01V4215.01H6669.05V4211.01V4207.01H6649V4211.01ZM6689.1 4211.01V4215.01H6709.15V4211.01V4207.01H6689.1V4211.01ZM6729.19 4211.01V4215.01H6749.24V4211.01V4207.01H6729.19V4211.01ZM6769.29 4211.01V4215.01H6789.34V4211.01V4207.01H6769.29V4211.01ZM6809.39 4211.01V4215.01H6829.43V4211.01V4207.01H6809.39V4211.01ZM6849.48 4211.01V4215.01H6869.53V4211.01V4207.01H6849.48V4211.01ZM6889.58 4211.01V4215.01H6909.63V4211.01V4207.01H6889.58V4211.01ZM6929.67 4211.01V4215.01H6949.72V4211.01V4207.01H6929.67V4211.01ZM6969.77 4211.01V4215.01H6989.82V4211.01V4207.01H6969.77V4211.01ZM7009.86 4211.01V4215.01H7029.91V4211.01V4207.01H7009.86V4211.01ZM7049.96 4211.01V4215.01H7060V4211.01V4207.01H7049.96V4211.01ZM7060 4211.01H7064V4201.04H7060H7056V4211.01H7060ZM7060 4181.1H7064V4161.16H7060H7056V4181.1H7060ZM7060 4141.22H7064V4121.27H7060H7056V4141.22H7060ZM7060 4101.33H7064V4081.39H7060H7056V4101.33H7060ZM7060 4061.45H7064V4041.51H7060H7056V4061.45H7060ZM7060 4021.57H7064V4001.63H7060H7056V4021.57H7060ZM7060 3981.68H7064V3961.74H7060H7056V3981.68H7060ZM7060 3941.8H7064V3921.86H7060H7056V3941.8H7060ZM7060 3901.92H7064V3881.98H7060H7056V3901.92H7060ZM7060 3862.04H7064V3842.09H7060H7056V3862.04H7060ZM7060 3822.15H7064V3802.21H7060H7056V3822.15H7060ZM7060 3782.27H7064V3762.33H7060H7056V3782.27H7060ZM7060 3742.39H7064V3722.45H7060H7056V3742.39H7060ZM7060 3702.5H7064V3682.56H7060H7056V3702.5H7060ZM7060 3662.62H7064V3642.68H7060H7056V3662.62H7060ZM7060 3622.74H7064V3602.8H7060H7056V3622.74H7060ZM7060 3582.85H7064V3562.91H7060H7056V3582.85H7060ZM7060 3542.97H7064V3523.03H7060H7056V3542.97H7060ZM7060 3503.09H7064V3483.15H7060H7056V3503.09H7060ZM7060 3463.21H7064V3443.26H7060H7056V3463.21H7060ZM7060 3423.32H7064V3403.38H7060H7056V3423.32H7060ZM7060 3383.44H7064V3363.5H7060H7056V3383.44H7060ZM7060 3343.56H7064V3323.62H7060H7056V3343.56H7060ZM7060 3303.67H7064V3283.73H7060H7056V3303.67H7060ZM7060 3263.79H7064V3243.85H7060H7056V3263.79H7060ZM7060 3223.91H7064V3203.97H7060H7056V3223.91H7060ZM7060 3184.03H7064V3164.08H7060H7056V3184.03H7060ZM7060 3144.14H7064V3124.2H7060H7056V3144.14H7060ZM7060 3104.26H7064V3084.32H7060H7056V3104.26H7060ZM7060 3064.38H7064V3044.43H7060H7056V3064.38H7060ZM7060 3024.49H7064V3004.55H7060H7056V3024.49H7060ZM7060 2984.61H7064V2964.67H7060H7056V2984.61H7060ZM7060 2944.73H7064V2924.79H7060H7056V2944.73H7060ZM7060 2904.84H7064V2884.9H7060H7056V2904.84H7060ZM7060 2864.96H7064V2845.02H7060H7056V2864.96H7060ZM7060 2825.08H7064V2805.14H7060H7056V2825.08H7060ZM7060 2785.19H7064V2765.25H7060H7056V2785.19H7060ZM7060 2745.31H7064V2725.37H7060H7056V2745.31H7060ZM7060 2705.43H7064V2685.49H7060H7056V2705.43H7060ZM7060 2665.55H7064V2645.6H7060H7056V2665.55H7060ZM7060 2625.66H7064V2605.72H7060H7056V2625.66H7060ZM7060 2585.78H7064V2565.84H7060H7056V2585.78H7060ZM7060 2545.9H7064V2525.96H7060H7056V2545.9H7060ZM7060 2506.01H7064V2486.07H7060H7056V2506.01H7060ZM7060 2466.13H7064V2446.19H7060H7056V2466.13H7060ZM7060 2426.25H7064V2406.31H7060H7056V2426.25H7060ZM7060 2386.36H7064V2366.42H7060H7056V2386.36H7060ZM7060 2346.48H7064V2326.54H7060H7056V2346.48H7060ZM7060 2306.6H7064V2286.66H7060H7056V2306.6H7060ZM7060 2266.72H7064V2246.77H7060H7056V2266.72H7060ZM7060 2226.83H7064V2206.89H7060H7056V2226.83H7060ZM7060 2186.95H7064V2167.01H7060H7056V2186.95H7060ZM7060 2147.07H7064V2127.12H7060H7056V2147.07H7060ZM7060 2107.18H7064V2087.24H7060H7056V2107.18H7060ZM7060 2067.3H7064V2047.36H7060H7056V2067.3H7060ZM7060 2027.42H7064V2007.48H7060H7056V2027.42H7060ZM7060 1987.53H7064V1967.59H7060H7056V1987.53H7060ZM7060 1947.65H7064V1927.71H7060H7056V1947.65H7060ZM7060 1907.77H7064V1887.83H7060H7056V1907.77H7060ZM7060 1867.89H7064V1847.94H7060H7056V1867.89H7060ZM7060 1828H7064V1808.06H7060H7056V1828H7060ZM7060 1788.12H7064V1768.18H7060H7056V1788.12H7060ZM7060 1748.24H7064V1728.3H7060H7056V1748.24H7060ZM7060 1708.36H7064V1688.41H7060H7056V1708.36H7060ZM7060 1668.47H7064V1648.53H7060H7056V1668.47H7060ZM7060 1628.59H7064V1608.65H7060H7056V1628.59H7060ZM7060 1588.71H7064V1568.77H7060H7056V1588.71H7060ZM7060 1548.82H7064V1528.88H7060H7056V1548.82H7060ZM7060 1508.94H7064V1489H7060H7056V1508.94H7060ZM7060 1469.06H7064V1449.12H7060H7056V1469.06H7060ZM7060 1429.18H7064V1409.23H7060H7056V1429.18H7060ZM7060 1389.29H7064V1369.35H7060H7056V1389.29H7060ZM7060 1349.41H7064V1329.47H7060H7056V1349.41H7060ZM7060 1309.53H7064V1289.59H7060H7056V1309.53H7060ZM7060 1269.64H7064V1249.7H7060H7056V1269.64H7060ZM7060 1229.76H7064V1209.82H7060H7056V1229.76H7060ZM7060 1189.88H7064V1169.94H7060H7056V1189.88H7060ZM7060 1150H7064V1130.05H7060H7056V1150H7060ZM7060 1110.11H7064V1090.17H7060H7056V1110.11H7060ZM7060 1070.23H7064V1050.29H7060H7056V1070.23H7060ZM7060 1030.35H7064V1010.41H7060H7056V1030.35H7060ZM7060 990.464H7064V970.523H7060H7056V990.464H7060ZM7060 950.581H7064V930.64H7060H7056V950.581H7060ZM7060 910.699H7064V890.757H7060H7056V910.699H7060ZM7060 870.816H7064V850.875H7060H7056V870.816H7060ZM7060 830.933H7064V810.992H7060H7056V830.933H7060ZM7060 791.05H7064V771.109H7060H7056V791.05H7060ZM7060 751.167H7064V731.226H7060H7056V751.167H7060ZM7060 711.285H7064V691.343H7060H7056V711.285H7060ZM7060 671.402H7064V651.46H7060H7056V671.402H7060ZM7060 631.519H7064V611.578H7060H7056V631.519H7060ZM7060 591.636H7064V571.695H7060H7056V591.636H7060ZM7060 551.753H7064V531.812H7060H7056V551.753H7060ZM7060 511.871H7064V491.929H7060H7056V511.871H7060ZM7060 471.988H7064V462.012H7060H7056V471.988H7060ZM7060 462.012V458.012H7049.98V462.012V466.012H7060V462.012ZM7029.93 462.012V458.012H7009.88V462.012V466.012H7029.93V462.012ZM6989.83 462.012V458.012H6969.78V462.012V466.012H6989.83V462.012ZM6949.74 462.012V458.012H6929.69V462.012V466.012H6949.74V462.012ZM6909.64 462.012V458.012H6889.59V462.012V466.012H6909.64V462.012ZM6869.54 462.012V458.012H6849.5V462.012V466.012H6869.54V462.012ZM6829.45 462.012V458.012H6809.4V462.012V466.012H6829.45V462.012ZM6789.35 462.012V458.012H6769.3V462.012V466.012H6789.35V462.012ZM6749.26 462.012V458.012H6729.21V462.012V466.012H6749.26V462.012ZM6709.16 462.012V458.012H6689.11V462.012V466.012H6709.16V462.012ZM6669.06 462.012V458.012H6649.02V462.012V466.012H6669.06V462.012ZM6628.97 462.012V458.012H6608.92V462.012V466.012H6628.97V462.012ZM6588.87 462.012V458.012H6568.83V462.012V466.012H6588.87V462.012ZM6548.78 462.012V458.012H6528.73V462.012V466.012H6548.78V462.012ZM6508.68 462.012V458.012H6488.63V462.012V466.012H6508.68V462.012ZM6468.59 462.012V458.012H6448.54V462.012V466.012H6468.59V462.012ZM6428.49 462.012V458.012H6408.44V462.012V466.012H6428.49V462.012ZM6388.39 462.012V458.012H6368.35V462.012V466.012H6388.39V462.012ZM6348.3 462.012V458.012H6328.25V462.012V466.012H6348.3V462.012ZM6308.2 462.012V458.012H6288.15V462.012V466.012H6308.2V462.012ZM6268.11 462.012V458.012H6248.06V462.012V466.012H6268.11V462.012ZM6228.01 462.012V458.012H6207.96V462.012V466.012H6228.01V462.012ZM6187.91 462.012V458.012H6167.87V462.012V466.012H6187.91V462.012ZM6147.82 462.012V458.012H6127.77V462.012V466.012H6147.82V462.012ZM6107.72 462.012V458.012H6087.67V462.012V466.012H6107.72V462.012ZM6067.63 462.012V458.012H6047.58V462.012V466.012H6067.63V462.012ZM6027.53 462.012V458.012H6007.48V462.012V466.012H6027.53V462.012ZM5987.43 462.012V458.012H5967.39V462.012V466.012H5987.43V462.012ZM5947.34 462.012V458.012H5927.29V462.012V466.012H5947.34V462.012ZM5907.24 462.012V458.012H5887.19V462.012V466.012H5907.24V462.012ZM5867.15 462.012V458.012H5847.1V462.012V466.012H5867.15V462.012ZM5827.05 462.012V458.012H5807V462.012V466.012H5827.05V462.012ZM5786.95 462.012V458.012H5766.91V462.012V466.012H5786.95V462.012ZM5746.86 462.012V458.012H5726.81V462.012V466.012H5746.86V462.012ZM5706.76 462.012V458.012H5686.71V462.012V466.012H5706.76V462.012ZM5666.67 462.012V458.012H5646.62V462.012V466.012H5666.67V462.012ZM5626.57 462.012V458.012H5606.52V462.012V466.012H5626.57V462.012ZM5586.47 462.012V458.012H5566.43V462.012V466.012H5586.47V462.012ZM5546.38 462.012V458.012H5526.33V462.012V466.012H5546.38V462.012ZM5506.28 462.012V458.012H5486.23V462.012V466.012H5506.28V462.012ZM5466.19 462.012V458.012H5446.14V462.012V466.012H5466.19V462.012ZM5426.09 462.012V458.012H5406.04V462.012V466.012H5426.09V462.012ZM5386 462.012V458.012H5365.95V462.012V466.012H5386V462.012ZM5345.9 462.012V458.012H5325.85V462.012V466.012H5345.9V462.012ZM5305.8 462.012V458.012H5285.76V462.012V466.012H5305.8V462.012ZM5265.71 462.012V458.012H5245.66V462.012V466.012H5265.71V462.012ZM5225.61 462.012V458.012H5205.56V462.012V466.012H5225.61V462.012ZM5185.52 462.012V458.012H5165.47V462.012V466.012H5185.52V462.012ZM5145.42 462.012V458.012H5125.37V462.012V466.012H5145.42V462.012ZM5105.32 462.012V458.012H5085.28V462.012V466.012H5105.32V462.012ZM5065.23 462.012V458.012H5045.18V462.012V466.012H5065.23V462.012ZM5025.13 462.012V458.012H5005.08V462.012V466.012H5025.13V462.012ZM4985.04 462.012V458.012H4964.99V462.012V466.012H4985.04V462.012ZM4944.94 462.012V458.012H4924.89V462.012V466.012H4944.94V462.012ZM4904.84 462.012V458.012H4884.8V462.012V466.012H4904.84V462.012ZM4864.75 462.012V458.012H4844.7V462.012V466.012H4864.75V462.012ZM4824.65 462.012V458.012H4804.6V462.012V466.012H4824.65V462.012ZM4784.56 462.012V458.012H4764.51V462.012V466.012H4784.56V462.012ZM4744.46 462.012V458.012H4724.41V462.012V466.012H4744.46V462.012ZM4704.37 462.012V458.012H4684.32V462.012V466.012H4704.37V462.012ZM4664.27 462.012V458.012H4644.22V462.012V466.012H4664.27V462.012ZM4624.17 462.012V458.012H4604.13V462.012V466.012H4624.17V462.012ZM4584.08 462.012V458.012H4564.03V462.012V466.012H4584.08V462.012ZM4543.98 462.012V458.012H4523.94V462.012V466.012H4543.98V462.012ZM4503.89 462.012V458.012H4483.84V462.012V466.012H4503.89V462.012ZM4463.79 462.012V458.012H4443.74V462.012V466.012H4463.79V462.012ZM4423.7 462.012V458.012H4403.65V462.012V466.012H4423.7V462.012ZM4383.6 462.012V458.012H4363.55V462.012V466.012H4383.6V462.012ZM4343.5 462.012V458.012H4323.46V462.012V466.012H4343.5V462.012ZM4303.41 462.012V458.012H4283.36V462.012V466.012H4303.41V462.012ZM4263.31 462.012V458.012H4243.27V462.012V466.012H4263.31V462.012ZM4223.22 462.012V458.012H4203.17V462.012V466.012H4223.22V462.012ZM4183.12 462.012V458.012H4163.07V462.012V466.012H4183.12V462.012ZM4143.03 462.012V458.012H4122.98V462.012V466.012H4143.03V462.012ZM4102.93 462.012V458.012H4082.88V462.012V466.012H4102.93V462.012ZM4062.83 462.012V458.012H4042.79V462.012V466.012H4062.83V462.012ZM4022.74 462.012V458.012H4002.69V462.012V466.012H4022.74V462.012ZM3982.64 462.012V458.012H3962.6V462.012V466.012H3982.64V462.012ZM3942.55 462.012V458.012H3922.5V462.012V466.012H3942.55V462.012ZM3902.45 462.012V458.012H3882.4V462.012V466.012H3902.45V462.012ZM3862.36 462.012V458.012H3842.31V462.012V466.012H3862.36V462.012ZM3822.26 462.012V458.012H3802.21V462.012V466.012H3822.26V462.012ZM3782.16 462.012V458.012H3762.12V462.012V466.012H3782.16V462.012ZM3742.07 462.012V458.012H3722.02V462.012V466.012H3742.07V462.012ZM3701.97 462.012V458.012H3681.93V462.012V466.012H3701.97V462.012ZM3661.88 462.012V458.012H3641.83V462.012V466.012H3661.88V462.012ZM3621.78 462.012V458.012H3601.73V462.012V466.012H3621.78V462.012ZM3581.69 462.012V458.012H3561.64V462.012V466.012H3581.69V462.012ZM3541.59 462.012V458.012H3521.54V462.012V466.012H3541.59V462.012ZM3501.49 462.012V458.012H3481.45V462.012V466.012H3501.49V462.012ZM3461.4 462.012V458.012H3441.35V462.012V466.012H3461.4V462.012ZM3421.3 462.012V458.012H3401.26V462.012V466.012H3421.3V462.012ZM3381.21 462.012V458.012H3361.16V462.012V466.012H3381.21V462.012ZM3341.11 462.012V458.012H3321.06V462.012V466.012H3341.11V462.012ZM3301.02 462.012V458.012H3280.97V462.012V466.012H3301.02V462.012ZM3260.92 462.012V458.012H3240.87V462.012V466.012H3260.92V462.012ZM3220.82 462.012V458.012H3200.78V462.012V466.012H3220.82V462.012ZM3180.73 462.012V458.012H3160.68V462.012V466.012H3180.73V462.012ZM3140.63 462.012V458.012H3120.59V462.012V466.012H3140.63V462.012ZM3100.54 462.012V458.012H3080.49V462.012V466.012H3100.54V462.012ZM3060.44 462.012V458.012H3040.39V462.012V466.012H3060.44V462.012ZM3020.35 462.012V458.012H3000.3V462.012V466.012H3020.35V462.012ZM2980.25 462.012V458.012H2960.2V462.012V466.012H2980.25V462.012ZM2940.15 462.012V458.012H2920.11V462.012V466.012H2940.15V462.012ZM2900.06 462.012V458.012H2880.01V462.012V466.012H2900.06V462.012ZM2859.96 462.012V458.012H2839.92V462.012V466.012H2859.96V462.012ZM2819.87 462.012V458.012H2799.82V462.012V466.012H2819.87V462.012ZM2779.77 462.012V458.012H2759.72V462.012V466.012H2779.77V462.012ZM2739.68 462.012V458.012H2719.63V462.012V466.012H2739.68V462.012ZM2699.58 462.012V458.012H2679.53V462.012V466.012H2699.58V462.012ZM2659.48 462.012V458.012H2639.44V462.012V466.012H2659.48V462.012ZM2619.39 462.012V458.012H2599.34V462.012V466.012H2619.39V462.012ZM2579.29 462.012V458.012H2559.25V462.012V466.012H2579.29V462.012ZM2539.2 462.012V458.012H2519.15V462.012V466.012H2539.2V462.012ZM2499.1 462.012V458.012H2479.05V462.012V466.012H2499.1V462.012ZM2459.01 462.012V458.012H2438.96V462.012V466.012H2459.01V462.012ZM2418.91 462.012V458.012H2398.86V462.012V466.012H2418.91V462.012ZM2378.81 462.012V458.012H2358.77V462.012V466.012H2378.81V462.012ZM2338.72 462.012V458.012H2318.67V462.012V466.012H2338.72V462.012ZM2298.62 462.012V458.012H2278.58V462.012V466.012H2298.62V462.012ZM2258.53 462.012V458.012H2238.48V462.012V466.012H2258.53V462.012ZM2218.43 462.012V458.012H2198.38V462.012V466.012H2218.43V462.012ZM2178.34 462.012V458.012H2158.29V462.012V466.012H2178.34V462.012ZM2138.24 462.012V458.012H2118.19V462.012V466.012H2138.24V462.012ZM2098.15 462.012V458.012H2078.1V462.012V466.012H2098.15V462.012ZM2058.05 462.012V458.012H2038V462.012V466.012H2058.05V462.012ZM2017.95 462.012V458.012H1997.91V462.012V466.012H2017.95V462.012ZM1977.86 462.012V458.012H1957.81V462.012V466.012H1977.86V462.012ZM1937.76 462.012V458.012H1917.71V462.012V466.012H1937.76V462.012ZM1897.67 462.012V458.012H1877.62V462.012V466.012H1897.67V462.012ZM1857.57 462.012V458.012H1837.52V462.012V466.012H1857.57V462.012ZM1817.47 462.012V458.012H1797.43V462.012V466.012H1817.47V462.012ZM1777.38 462.012V458.012H1757.33V462.012V466.012H1777.38V462.012ZM1737.28 462.012V458.012H1717.24V462.012V466.012H1737.28V462.012ZM1697.19 462.012V458.012H1677.14V462.012V466.012H1697.19V462.012ZM1657.09 462.012V458.012H1637.04V462.012V466.012H1657.09V462.012ZM1617 462.012V458.012H1596.95V462.012V466.012H1617V462.012ZM1576.9 462.012V458.012H1556.85V462.012V466.012H1576.9V462.012ZM1536.81 462.012V458.012H1516.76V462.012V466.012H1536.81V462.012ZM1496.71 462.012V458.012H1476.66V462.012V466.012H1496.71V462.012ZM1456.61 462.012V458.012H1436.57V462.012V466.012H1456.61V462.012ZM1416.52 462.012V458.012H1396.47V462.012V466.012H1416.52V462.012ZM1376.42 462.012V458.012H1356.37V462.012V466.012H1376.42V462.012ZM1336.33 462.012V458.012H1316.28V462.012V466.012H1336.33V462.012ZM1296.23 462.012V458.012H1276.18V462.012V466.012H1296.23V462.012ZM1256.14 462.012V458.012H1236.09V462.012V466.012H1256.14V462.012ZM1216.04 462.012V458.012H1206V462.012V466.012H1216.04V462.012Z" fill="#9A9A9A"/>
</g>
<g id="GolfStatus Tag">
<g id="Front - Dark Tag">
<path id="Vector" d="M5784.04 4069.72C5784.04 4046.43 5802.71 4027.88 5825.98 4027.88C5835.88 4027.88 5844.28 4029.74 5852.12 4034.55C5854.3 4035.93 5854.78 4037.91 5853.49 4040.33L5852.32 4042.27C5851.07 4044.82 5849.09 4045.14 5846.54 4043.77C5837.57 4038.92 5832.04 4038.8 5825.94 4038.8C5809.57 4038.8 5796.44 4052.38 5796.44 4069.55C5796.44 4084.99 5806.83 4100.07 5827.55 4100.07C5834.58 4100.07 5840.56 4098.33 5845.98 4094.9V4078.89H5827.8C5825.13 4078.89 5823.63 4077.27 5823.63 4074.65V4073.27C5823.63 4070.6 5825.13 4069.11 5827.8 4069.11H5853.01C5855.67 4069.11 5857.17 4070.6 5857.17 4073.27V4096.55C5857.17 4098.74 5856.24 4100.6 5853.61 4102.66C5844.4 4109.45 5834.38 4111.06 5827.03 4111.06C5802.02 4111.06 5784.08 4092.39 5784.08 4069.72" fill="white"/>
<path id="Vector_2" d="M5868.68 4069.47C5868.68 4046.56 5887.35 4027.88 5910.62 4027.88C5933.89 4027.88 5952.56 4046.56 5952.56 4069.47C5952.56 4092.39 5933.89 4111.06 5910.62 4111.06C5887.35 4111.06 5868.68 4092.39 5868.68 4069.47ZM5940.11 4069.47C5940.11 4052.09 5926.86 4038.84 5910.62 4038.84C5894.38 4038.84 5881.13 4052.09 5881.13 4069.47C5881.13 4086.85 5894.38 4100.11 5910.62 4100.11C5926.86 4100.11 5940.11 4086.85 5940.11 4069.47Z" fill="white"/>
<path id="Vector_3" d="M5966.33 4105.69V4033.34C5966.33 4030.68 5967.83 4029.18 5970.5 4029.18H5974.41C5977.08 4029.18 5978.58 4030.68 5978.58 4033.34V4099.83H6011.18C6013.85 4099.83 6015.42 4101.33 6015.42 4103.99V4105.73C6015.42 4108.4 6013.81 4109.89 6011.18 4109.89H5970.54C5967.87 4109.89 5966.37 4108.4 5966.37 4105.73" fill="white"/>
<path id="Vector_4" d="M6077.48 4033.3V4035.03C6077.48 4037.7 6075.98 4039.2 6073.32 4039.2H6038.09V4065.35H6068.27C6070.93 4065.35 6072.51 4066.84 6072.51 4069.51V4071.01C6072.51 4073.67 6070.89 4075.25 6068.27 4075.25H6038.09V4105.64C6038.09 4108.31 6036.59 4109.81 6033.93 4109.81H6030.01C6027.34 4109.81 6025.85 4108.31 6025.85 4105.64V4033.3C6025.85 4030.63 6027.34 4029.13 6030.01 4029.13H6073.32C6075.98 4029.13 6077.48 4030.63 6077.48 4033.3Z" fill="white"/>
<path id="Vector_5" d="M6085.52 4094.73C6084.39 4092.19 6085.76 4090.25 6088.27 4089.56L6091.62 4088.75C6094.17 4088.19 6095.54 4089.12 6096.79 4091.5C6099.66 4096.47 6105.76 4100.35 6113.84 4100.35C6124.22 4100.35 6130.53 4095.3 6130.53 4088.39C6130.53 4082.29 6125.48 4078.49 6118.89 4076.06L6106.93 4072.02C6091.74 4066.97 6088.07 4057.83 6088.07 4050.36C6088.07 4036.41 6100.27 4027.88 6114.2 4027.88C6126.89 4027.88 6135.86 4033.99 6139.54 4043.08C6140.59 4045.63 6139.29 4047.57 6136.79 4048.25L6133.92 4049.18C6131.38 4049.87 6129.76 4048.94 6128.63 4046.52C6125.96 4041.22 6121.03 4038.67 6114.37 4038.67C6106.77 4038.67 6100.43 4042.84 6100.43 4049.95C6100.43 4053.31 6101.48 4057.67 6110.69 4061.15L6122.65 4065.63C6136.22 4069.88 6142.45 4078.89 6142.45 4087.54C6142.45 4102.05 6130.93 4111.02 6114.12 4111.02C6099.86 4111.02 6089.72 4104.11 6085.56 4094.65" fill="white"/>
<path id="Vector_6" d="M6214.84 4033.3V4035.03C6214.84 4037.7 6213.35 4039.2 6210.68 4039.2H6188.22V4105.68C6188.22 4108.35 6186.72 4109.85 6184.06 4109.85H6180.26C6177.59 4109.85 6176.1 4108.35 6176.1 4105.68V4039.2H6153.63C6151.09 4039.2 6149.47 4037.7 6149.47 4035.03V4033.3C6149.47 4030.63 6151.09 4029.13 6153.63 4029.13H6210.64C6213.31 4029.13 6214.8 4030.63 6214.8 4033.3" fill="white"/>
<path id="Vector_7" d="M6211.53 4104.96L6239.29 4032.49C6240.1 4030.3 6241.83 4029.13 6244.14 4029.13H6250.8C6253.23 4029.13 6254.84 4030.3 6255.65 4032.49L6283.65 4104.96C6284.7 4107.83 6283.53 4109.81 6280.42 4109.81H6276.74C6274.32 4109.81 6272.7 4108.76 6271.77 4106.45L6266.8 4093.32H6228.34L6223.37 4106.45C6222.44 4108.76 6220.95 4109.81 6218.52 4109.81H6214.72C6211.61 4109.81 6210.36 4107.87 6211.49 4104.96M6263.33 4083.41L6247.45 4041.02L6231.77 4083.41H6263.33Z" fill="white"/>
<path id="Vector_8" d="M6345.46 4033.3V4035.03C6345.46 4037.7 6343.97 4039.2 6341.3 4039.2H6318.84V4105.68C6318.84 4108.35 6317.34 4109.85 6314.68 4109.85H6310.88C6308.21 4109.85 6306.72 4108.35 6306.72 4105.68V4039.2H6284.25C6281.71 4039.2 6280.09 4037.7 6280.09 4035.03V4033.3C6280.09 4030.63 6281.71 4029.13 6284.25 4029.13H6341.26C6343.93 4029.13 6345.42 4030.63 6345.42 4033.3" fill="white"/>
<path id="Vector_9" d="M6357.42 4079.86V4033.3C6357.42 4030.63 6359.04 4029.13 6361.58 4029.13H6365.5C6368.17 4029.13 6369.66 4030.63 6369.66 4033.3V4079.86C6369.66 4093.44 6378.87 4100.15 6389.46 4100.15C6400.04 4100.15 6409.38 4093.48 6409.38 4079.86V4033.3C6409.38 4030.63 6410.87 4029.13 6413.54 4029.13H6417.34C6420 4029.13 6421.62 4030.63 6421.62 4033.3V4079.86C6421.62 4100.35 6406.87 4111.1 6389.5 4111.1C6372.13 4111.1 6357.5 4100.39 6357.5 4079.86" fill="white"/>
<path id="Vector_10" d="M6434.22 4094.73C6433.09 4092.19 6434.47 4090.25 6436.97 4089.56L6440.32 4088.75C6442.87 4088.19 6444.24 4089.12 6445.49 4091.5C6448.36 4096.47 6454.46 4100.35 6462.54 4100.35C6472.93 4100.35 6479.23 4095.3 6479.23 4088.39C6479.23 4082.29 6474.18 4078.49 6467.59 4076.06L6455.64 4072.02C6440.44 4066.97 6436.77 4057.83 6436.77 4050.36C6436.77 4036.41 6448.97 4027.88 6462.91 4027.88C6475.59 4027.88 6484.56 4033.99 6488.24 4043.08C6489.29 4045.63 6488 4047.57 6485.49 4048.25L6482.62 4049.18C6480.08 4049.87 6478.46 4048.94 6477.33 4046.52C6474.66 4041.22 6469.74 4038.67 6463.07 4038.67C6455.47 4038.67 6449.13 4042.84 6449.13 4049.95C6449.13 4053.31 6450.18 4057.67 6459.39 4061.15L6471.35 4065.63C6484.93 4069.88 6491.15 4078.89 6491.15 4087.54C6491.15 4102.05 6479.63 4111.02 6462.83 4111.02C6448.57 4111.02 6438.42 4104.11 6434.26 4094.65" fill="white"/>
<path id="Vector_11" d="M6205.59 3995.95V3961.43H6213.03C6214.4 3961.43 6215.57 3961.59 6216.62 3961.96C6217.67 3962.32 6218.6 3962.93 6219.45 3963.85C6220.3 3964.74 6220.87 3965.84 6221.19 3967.05C6221.51 3968.26 6221.67 3969.92 6221.67 3971.98C6221.67 3973.51 6221.59 3974.85 6221.39 3975.9C6221.23 3976.95 6220.83 3977.96 6220.26 3978.89C6219.57 3980.02 6218.68 3980.91 6217.55 3981.52C6216.42 3982.16 6214.93 3982.45 6213.11 3982.45H6210.6V3995.95H6205.67H6205.59ZM6210.52 3966.08V3977.8H6212.91C6213.92 3977.8 6214.68 3977.64 6215.25 3977.35C6215.82 3977.07 6216.22 3976.67 6216.46 3976.14C6216.7 3975.66 6216.87 3975.05 6216.91 3974.36C6216.95 3973.64 6216.99 3972.87 6216.99 3971.98C6216.99 3971.17 6216.99 3970.4 6216.95 3969.68C6216.95 3968.95 6216.79 3968.3 6216.5 3967.78C6216.26 3967.21 6215.86 3966.81 6215.33 3966.52C6214.81 3966.24 6214.08 3966.08 6213.11 3966.08H6210.52Z" fill="white"/>
<path id="Vector_12" d="M6235.45 3969.6C6235.45 3968.23 6235.69 3966.98 6236.18 3965.92C6236.66 3964.87 6237.31 3963.98 6238.12 3963.26C6238.88 3962.57 6239.77 3962.04 6240.74 3961.72C6241.71 3961.36 6242.72 3961.2 6243.73 3961.2C6244.74 3961.2 6245.71 3961.36 6246.72 3961.72C6247.69 3962.08 6248.62 3962.61 6249.43 3963.26C6250.2 3963.98 6250.84 3964.87 6251.33 3965.92C6251.81 3966.98 6252.05 3968.23 6252.05 3969.6V3987.83C6252.05 3989.29 6251.81 3990.54 6251.33 3991.55C6250.84 3992.56 6250.2 3993.45 6249.43 3994.14C6248.62 3994.86 6247.73 3995.39 6246.72 3995.75C6245.71 3996.12 6244.74 3996.28 6243.73 3996.28C6242.72 3996.28 6241.75 3996.12 6240.74 3995.75C6239.77 3995.39 6238.88 3994.86 6238.12 3994.14C6237.31 3993.45 6236.66 3992.6 6236.18 3991.55C6235.69 3990.5 6235.45 3989.29 6235.45 3987.83V3969.6ZM6240.38 3987.83C6240.38 3989.04 6240.7 3989.89 6241.39 3990.46C6242.03 3991.02 6242.84 3991.31 6243.73 3991.31C6244.62 3991.31 6245.43 3991.02 6246.07 3990.46C6246.72 3989.89 6247.08 3989 6247.08 3987.83V3969.6C6247.08 3968.39 6246.76 3967.54 6246.07 3966.98C6245.43 3966.41 6244.62 3966.13 6243.73 3966.13C6242.84 3966.13 6242.03 3966.41 6241.39 3966.98C6240.74 3967.54 6240.38 3968.43 6240.38 3969.6V3987.83Z" fill="white"/>
<path id="Vector_13" d="M6291.89 3961.43L6286.76 3995.95H6282.11L6278.32 3973.56H6278.23L6274.52 3995.95H6269.87L6264.74 3961.43H6269.99L6272.46 3983.34H6272.54L6276.42 3961.43H6280.21L6284.25 3983.9H6284.33L6286.72 3961.43H6291.97H6291.89Z" fill="white"/>
<path id="Vector_14" d="M6305.38 3995.95V3961.43H6320.13V3966.08H6310.35V3976.22H6318.88V3980.87H6310.35V3991.02H6320.13V3995.95H6305.38Z" fill="white"/>
<path id="Vector_15" d="M6333.75 3995.95V3961.43H6341.71C6347.52 3961.43 6350.43 3964.82 6350.43 3971.57C6350.43 3973.6 6350.11 3975.33 6349.5 3976.75C6348.86 3978.16 6347.77 3979.33 6346.19 3980.18L6351.52 3995.95H6346.27L6341.66 3981.19H6338.72V3995.95H6333.79H6333.75ZM6338.72 3966.08V3976.83H6341.54C6342.43 3976.83 6343.12 3976.71 6343.64 3976.47C6344.17 3976.22 6344.57 3975.86 6344.86 3975.41C6345.1 3974.97 6345.3 3974.4 6345.38 3973.76C6345.46 3973.11 6345.54 3972.34 6345.54 3971.45C6345.54 3970.56 6345.5 3969.8 6345.38 3969.15C6345.3 3968.5 6345.1 3967.9 6344.82 3967.41C6344.21 3966.52 6343.04 3966.04 6341.34 3966.04H6338.76L6338.72 3966.08Z" fill="white"/>
<path id="Vector_16" d="M6364.86 3995.95V3961.43H6379.6V3966.08H6369.82V3976.22H6378.35V3980.87H6369.82V3991.02H6379.6V3995.95H6364.86Z" fill="white"/>
<path id="Vector_17" d="M6393.22 3995.95V3961.43H6400.53C6403.36 3961.43 6405.54 3962.2 6406.99 3963.77C6408.45 3965.31 6409.22 3967.53 6409.22 3970.36V3986.53C6409.22 3989.76 6408.45 3992.15 6406.87 3993.68C6405.3 3995.22 6403.03 3995.99 6400.13 3995.99H6393.26L6393.22 3995.95ZM6398.15 3966.08V3991.3H6400.41C6401.78 3991.3 6402.79 3990.94 6403.36 3990.25C6403.92 3989.56 6404.25 3988.47 6404.25 3986.97V3970.32C6404.25 3968.95 6403.96 3967.9 6403.44 3967.17C6402.87 3966.44 6401.9 3966.04 6400.45 3966.04H6398.19L6398.15 3966.08Z" fill="white"/>
<path id="Vector_18" d="M6443.72 3995.95V3961.43H6450.95C6452.53 3961.43 6453.9 3961.67 6454.99 3962.16C6456.12 3962.64 6457.01 3963.29 6457.74 3964.1C6458.47 3964.91 6458.95 3965.84 6459.27 3966.89C6459.6 3967.94 6459.72 3969.03 6459.72 3970.16V3971.41C6459.72 3972.34 6459.64 3973.15 6459.52 3973.8C6459.35 3974.44 6459.15 3975.01 6458.87 3975.5C6458.3 3976.38 6457.5 3977.19 6456.36 3977.84C6457.54 3978.41 6458.38 3979.21 6458.95 3980.26C6459.52 3981.32 6459.76 3982.77 6459.76 3984.63V3986.57C6459.76 3989.6 6459.03 3991.95 6457.54 3993.56C6456.08 3995.18 6453.7 3995.99 6450.47 3995.99H6443.72V3995.95ZM6448.65 3966.08V3975.58H6450.87C6452.53 3975.58 6453.62 3975.17 6454.18 3974.32C6454.75 3973.47 6455.03 3972.3 6455.03 3970.73C6455.03 3969.15 6454.71 3968.02 6454.1 3967.25C6453.46 3966.48 6452.32 3966.08 6450.67 3966.08H6448.65ZM6448.65 3979.94V3991.02H6450.79C6451.8 3991.02 6452.57 3990.85 6453.13 3990.57C6453.7 3990.29 6454.14 3989.88 6454.43 3989.36C6454.71 3988.83 6454.91 3988.23 6454.95 3987.5C6455.03 3986.77 6455.03 3986 6455.03 3985.16C6455.03 3984.31 6454.99 3983.54 6454.87 3982.89C6454.79 3982.25 6454.59 3981.68 6454.3 3981.23C6453.98 3980.79 6453.54 3980.47 6453.01 3980.22C6452.49 3979.98 6451.72 3979.9 6450.83 3979.9H6448.65V3979.94Z" fill="white"/>
<path id="Vector_19" d="M6479.39 3995.95V3981.36L6472.61 3961.43H6477.86L6481.82 3975.17H6481.9L6485.86 3961.43H6491.11L6484.32 3981.36V3995.95H6479.39Z" fill="white"/>
<g id="Layer_1">
<path id="Vector_20" d="M6706.73 4137.01H6570.62C6552.76 4137.01 6538.21 4122.46 6538.21 4104.6V3968.43C6538.21 3950.56 6552.76 3936.01 6570.62 3936.01H6706.73C6724.59 3936.01 6739.13 3950.56 6739.13 3968.43V4104.6C6739.13 4122.46 6724.59 4137.01 6706.73 4137.01ZM6570.66 3939.77C6554.86 3939.77 6541.97 3952.62 6541.97 3968.43V4104.6C6541.97 4120.4 6554.82 4133.25 6570.66 4133.25H6706.77C6722.57 4133.25 6735.46 4120.4 6735.46 4104.6V3968.43C6735.46 3952.62 6722.61 3939.77 6706.77 3939.77H6570.66Z" fill="white"/>
<path id="Vector_21" d="M6638.69 3962.77C6606.78 3962.77 6580.84 3988.92 6580.84 4021.09C6580.84 4032.49 6584.11 4043.52 6590.29 4053.02L6590.45 4053.26C6591.14 4054.31 6591.91 4055.41 6592.68 4056.42L6632.07 4107.55C6632.07 4107.55 6632.07 4107.55 6632.07 4107.59L6634.05 4110.29V4107.5C6634.05 4087.78 6628.11 4080.02 6626.01 4076.79C6625.6 4076.14 6625.72 4075.05 6625.68 4074.12C6625.68 4073.63 6626.09 4073.27 6626.53 4073.31C6630.49 4074.36 6634.57 4074.89 6638.73 4074.89C6642.89 4074.89 6647.02 4074.36 6650.97 4073.31C6651.38 4073.31 6651.7 4073.67 6651.7 4074.12C6651.7 4075.01 6651.82 4076.14 6651.38 4076.79C6649.28 4080.02 6643.34 4087.78 6643.34 4107.5V4110.09L6646.13 4106.45L6684.35 4056.78C6692.31 4046.47 6696.51 4034.11 6696.51 4021.05C6696.51 3988.92 6670.57 3962.73 6638.65 3962.73L6638.69 3962.77ZM6667.14 4059C6658.81 4065.15 6649 4068.38 6638.73 4068.38C6623.38 4068.38 6608.8 4060.9 6599.75 4048.41C6584.07 4026.79 6588.8 3996.31 6610.25 3980.51C6618.57 3974.37 6628.39 3971.13 6638.65 3971.13C6654.01 3971.13 6668.59 3978.61 6677.64 3991.1C6693.32 4012.72 6688.59 4043.2 6667.14 4059Z" fill="white"/>
</g>
</g>
<g id="Front - Light Tag">
<path id="Vector_22" d="M5784.04 4065.67C5784.04 4042.39 5802.71 4023.84 5825.98 4023.84C5835.88 4023.84 5844.28 4025.7 5852.12 4030.51C5854.3 4031.88 5854.78 4033.86 5853.49 4036.29L5852.32 4038.23C5851.07 4040.78 5849.09 4041.1 5846.54 4039.72C5837.57 4034.87 5832.04 4034.75 5825.94 4034.75C5809.57 4034.75 5796.44 4048.33 5796.44 4065.51C5796.44 4080.95 5806.83 4096.03 5827.55 4096.03C5834.58 4096.03 5840.56 4094.29 5845.98 4090.85V4074.85H5827.8C5825.13 4074.85 5823.63 4073.23 5823.63 4070.6V4069.23C5823.63 4066.56 5825.13 4065.07 5827.8 4065.07H5853.01C5855.67 4065.07 5857.17 4066.56 5857.17 4069.23V4092.51C5857.17 4094.69 5856.24 4096.55 5853.61 4098.61C5844.4 4105.4 5834.38 4107.02 5827.03 4107.02C5802.02 4107.02 5784.08 4088.35 5784.08 4065.67" fill="black"/>
<path id="Vector_23" d="M5868.68 4065.43C5868.68 4042.51 5887.35 4023.84 5910.62 4023.84C5933.89 4023.84 5952.56 4042.51 5952.56 4065.43C5952.56 4088.35 5933.89 4107.02 5910.62 4107.02C5887.35 4107.02 5868.68 4088.35 5868.68 4065.43ZM5940.11 4065.43C5940.11 4048.05 5926.86 4034.79 5910.62 4034.79C5894.38 4034.79 5881.13 4048.05 5881.13 4065.43C5881.13 4082.81 5894.38 4096.07 5910.62 4096.07C5926.86 4096.07 5940.11 4082.81 5940.11 4065.43Z" fill="black"/>
<path id="Vector_24" d="M5966.33 4101.65V4029.3C5966.33 4026.63 5967.83 4025.14 5970.5 4025.14H5974.41C5977.08 4025.14 5978.58 4026.63 5978.58 4029.3V4095.79H6011.18C6013.85 4095.79 6015.42 4097.28 6015.42 4099.95V4101.69C6015.42 4104.36 6013.81 4105.85 6011.18 4105.85H5970.54C5967.87 4105.85 5966.37 4104.36 5966.37 4101.69" fill="black"/>
<path id="Vector_25" d="M6077.48 4029.25V4030.99C6077.48 4033.66 6075.98 4035.15 6073.32 4035.15H6038.09V4061.3H6068.27C6070.93 4061.3 6072.51 4062.8 6072.51 4065.47V4066.96C6072.51 4069.63 6070.89 4071.21 6068.27 4071.21H6038.09V4101.6C6038.09 4104.27 6036.59 4105.76 6033.93 4105.76H6030.01C6027.34 4105.76 6025.85 4104.27 6025.85 4101.6V4029.25C6025.85 4026.59 6027.34 4025.09 6030.01 4025.09H6073.32C6075.98 4025.09 6077.48 4026.59 6077.48 4029.25Z" fill="black"/>
<path id="Vector_26" d="M6085.52 4090.69C6084.39 4088.15 6085.76 4086.21 6088.27 4085.52L6091.62 4084.71C6094.17 4084.14 6095.54 4085.07 6096.79 4087.46C6099.66 4092.43 6105.76 4096.31 6113.84 4096.31C6124.22 4096.31 6130.53 4091.26 6130.53 4084.35C6130.53 4078.24 6125.48 4074.44 6118.89 4072.02L6106.93 4067.98C6091.74 4062.92 6088.07 4053.79 6088.07 4046.31C6088.07 4032.37 6100.27 4023.84 6114.2 4023.84C6126.89 4023.84 6135.86 4029.94 6139.54 4039.04C6140.59 4041.58 6139.29 4043.52 6136.79 4044.21L6133.92 4045.14C6131.38 4045.83 6129.76 4044.9 6128.63 4042.47C6125.96 4037.18 6121.03 4034.63 6114.37 4034.63C6106.77 4034.63 6100.43 4038.79 6100.43 4045.91C6100.43 4049.26 6101.48 4053.63 6110.69 4057.1L6122.65 4061.59C6136.22 4065.83 6142.45 4074.85 6142.45 4083.5C6142.45 4098.01 6130.93 4106.98 6114.12 4106.98C6099.86 4106.98 6089.72 4100.07 6085.56 4090.61" fill="black"/>
<path id="Vector_27" d="M6214.84 4029.25V4030.99C6214.84 4033.66 6213.35 4035.15 6210.68 4035.15H6188.22V4101.64C6188.22 4104.31 6186.72 4105.81 6184.06 4105.81H6180.26C6177.59 4105.81 6176.1 4104.31 6176.1 4101.64V4035.15H6153.63C6151.09 4035.15 6149.47 4033.66 6149.47 4030.99V4029.25C6149.47 4026.59 6151.09 4025.09 6153.63 4025.09H6210.64C6213.31 4025.09 6214.8 4026.59 6214.8 4029.25" fill="black"/>
<path id="Vector_28" d="M6211.53 4100.91L6239.29 4028.44C6240.1 4026.26 6241.83 4025.09 6244.14 4025.09H6250.8C6253.23 4025.09 6254.84 4026.26 6255.65 4028.44L6283.65 4100.91C6284.7 4103.78 6283.53 4105.76 6280.42 4105.76H6276.74C6274.32 4105.76 6272.7 4104.71 6271.77 4102.41L6266.8 4089.27H6228.34L6223.37 4102.41C6222.44 4104.71 6220.95 4105.76 6218.52 4105.76H6214.72C6211.61 4105.76 6210.36 4103.82 6211.49 4100.91M6263.33 4079.37L6247.45 4036.97L6231.77 4079.37H6263.33Z" fill="black"/>
<path id="Vector_29" d="M6345.46 4029.25V4030.99C6345.46 4033.66 6343.97 4035.15 6341.3 4035.15H6318.84V4101.64C6318.84 4104.31 6317.34 4105.81 6314.68 4105.81H6310.88C6308.21 4105.81 6306.72 4104.31 6306.72 4101.64V4035.15H6284.25C6281.71 4035.15 6280.09 4033.66 6280.09 4030.99V4029.25C6280.09 4026.59 6281.71 4025.09 6284.25 4025.09H6341.26C6343.93 4025.09 6345.42 4026.59 6345.42 4029.25" fill="black"/>
<path id="Vector_30" d="M6357.42 4075.81V4029.25C6357.42 4026.59 6359.04 4025.09 6361.58 4025.09H6365.5C6368.17 4025.09 6369.66 4026.59 6369.66 4029.25V4075.81C6369.66 4089.4 6378.87 4096.1 6389.46 4096.1C6400.04 4096.1 6409.38 4089.44 6409.38 4075.81V4029.25C6409.38 4026.59 6410.87 4025.09 6413.54 4025.09H6417.34C6420 4025.09 6421.62 4026.59 6421.62 4029.25V4075.81C6421.62 4096.31 6406.87 4107.06 6389.5 4107.06C6372.13 4107.06 6357.5 4096.35 6357.5 4075.81" fill="black"/>
<path id="Vector_31" d="M6434.22 4090.69C6433.09 4088.15 6434.47 4086.21 6436.97 4085.52L6440.32 4084.71C6442.87 4084.14 6444.24 4085.07 6445.49 4087.46C6448.36 4092.43 6454.46 4096.31 6462.54 4096.31C6472.93 4096.31 6479.23 4091.26 6479.23 4084.35C6479.23 4078.24 6474.18 4074.44 6467.59 4072.02L6455.64 4067.98C6440.44 4062.92 6436.77 4053.79 6436.77 4046.31C6436.77 4032.37 6448.97 4023.84 6462.91 4023.84C6475.59 4023.84 6484.56 4029.94 6488.24 4039.04C6489.29 4041.58 6488 4043.52 6485.49 4044.21L6482.62 4045.14C6480.08 4045.83 6478.46 4044.9 6477.33 4042.47C6474.66 4037.18 6469.74 4034.63 6463.07 4034.63C6455.47 4034.63 6449.13 4038.79 6449.13 4045.91C6449.13 4049.26 6450.18 4053.63 6459.39 4057.1L6471.35 4061.59C6484.93 4065.83 6491.15 4074.85 6491.15 4083.5C6491.15 4098.01 6479.63 4106.98 6462.83 4106.98C6448.57 4106.98 6438.42 4100.07 6434.26 4090.61" fill="black"/>
<path id="Vector_32" d="M6205.59 3991.9V3957.39H6213.03C6214.4 3957.39 6215.57 3957.55 6216.62 3957.91C6217.67 3958.28 6218.6 3958.88 6219.45 3959.81C6220.3 3960.7 6220.87 3961.79 6221.19 3963C6221.51 3964.22 6221.67 3965.87 6221.67 3967.94C6221.67 3969.47 6221.59 3970.81 6221.39 3971.86C6221.23 3972.91 6220.83 3973.92 6220.26 3974.85C6219.57 3975.98 6218.68 3976.87 6217.55 3977.47C6216.42 3978.12 6214.93 3978.4 6213.11 3978.4H6210.6V3991.9H6205.67H6205.59ZM6210.52 3962.03V3973.76H6212.91C6213.92 3973.76 6214.68 3973.59 6215.25 3973.31C6215.82 3973.03 6216.22 3972.62 6216.46 3972.1C6216.7 3971.61 6216.87 3971.01 6216.91 3970.32C6216.95 3969.59 6216.99 3968.83 6216.99 3967.94C6216.99 3967.13 6216.99 3966.36 6216.95 3965.63C6216.95 3964.9 6216.79 3964.26 6216.5 3963.73C6216.26 3963.17 6215.86 3962.76 6215.33 3962.48C6214.81 3962.2 6214.08 3962.03 6213.11 3962.03H6210.52Z" fill="black"/>
<path id="Vector_33" d="M6235.45 3965.56C6235.45 3964.19 6235.69 3962.93 6236.18 3961.88C6236.66 3960.83 6237.31 3959.94 6238.12 3959.21C6238.88 3958.53 6239.77 3958 6240.74 3957.68C6241.71 3957.31 6242.72 3957.15 6243.73 3957.15C6244.74 3957.15 6245.71 3957.31 6246.72 3957.68C6247.69 3958.04 6248.62 3958.57 6249.43 3959.21C6250.2 3959.94 6250.84 3960.83 6251.33 3961.88C6251.81 3962.93 6252.05 3964.19 6252.05 3965.56V3983.79C6252.05 3985.24 6251.81 3986.5 6251.33 3987.51C6250.84 3988.52 6250.2 3989.41 6249.43 3990.09C6248.62 3990.82 6247.73 3991.35 6246.72 3991.71C6245.71 3992.07 6244.74 3992.24 6243.73 3992.24C6242.72 3992.24 6241.75 3992.07 6240.74 3991.71C6239.77 3991.35 6238.88 3990.82 6238.12 3990.09C6237.31 3989.41 6236.66 3988.56 6236.18 3987.51C6235.69 3986.46 6235.45 3985.24 6235.45 3983.79V3965.56ZM6240.38 3983.79C6240.38 3985 6240.7 3985.85 6241.39 3986.42C6242.03 3986.98 6242.84 3987.26 6243.73 3987.26C6244.62 3987.26 6245.43 3986.98 6246.07 3986.42C6246.72 3985.85 6247.08 3984.96 6247.08 3983.79V3965.56C6247.08 3964.35 6246.76 3963.5 6246.07 3962.93C6245.43 3962.37 6244.62 3962.08 6243.73 3962.08C6242.84 3962.08 6242.03 3962.37 6241.39 3962.93C6240.74 3963.5 6240.38 3964.39 6240.38 3965.56V3983.79Z" fill="black"/>
<path id="Vector_34" d="M6291.89 3957.39L6286.76 3991.9H6282.11L6278.32 3969.51H6278.23L6274.52 3991.9H6269.87L6264.74 3957.39H6269.99L6272.46 3979.29H6272.54L6276.42 3957.39H6280.21L6284.25 3979.86H6284.33L6286.72 3957.39H6291.97H6291.89Z" fill="black"/>
<path id="Vector_35" d="M6305.38 3991.9V3957.39H6320.13V3962.03H6310.35V3972.18H6318.88V3976.83H6310.35V3986.97H6320.13V3991.9H6305.38Z" fill="black"/>
<path id="Vector_36" d="M6333.75 3991.9V3957.39H6341.71C6347.52 3957.39 6350.43 3960.78 6350.43 3967.53C6350.43 3969.55 6350.11 3971.29 6349.5 3972.71C6348.86 3974.12 6347.77 3975.29 6346.19 3976.14L6351.52 3991.9H6346.27L6341.66 3977.15H6338.72V3991.9H6333.79H6333.75ZM6338.72 3962.03V3972.79H6341.54C6342.43 3972.79 6343.12 3972.66 6343.64 3972.42C6344.17 3972.18 6344.57 3971.82 6344.86 3971.37C6345.1 3970.93 6345.3 3970.36 6345.38 3969.71C6345.46 3969.07 6345.54 3968.3 6345.54 3967.41C6345.54 3966.52 6345.5 3965.75 6345.38 3965.11C6345.3 3964.46 6345.1 3963.85 6344.82 3963.37C6344.21 3962.48 6343.04 3961.99 6341.34 3961.99H6338.76L6338.72 3962.03Z" fill="black"/>
<path id="Vector_37" d="M6364.86 3991.9V3957.39H6379.6V3962.03H6369.82V3972.18H6378.35V3976.83H6369.82V3986.97H6379.6V3991.9H6364.86Z" fill="black"/>
<path id="Vector_38" d="M6393.22 3991.9V3957.39H6400.53C6403.36 3957.39 6405.54 3958.15 6406.99 3959.73C6408.45 3961.27 6409.22 3963.49 6409.22 3966.32V3982.49C6409.22 3985.72 6408.45 3988.1 6406.87 3989.64C6405.3 3991.18 6403.03 3991.94 6400.13 3991.94H6393.26L6393.22 3991.9ZM6398.15 3962.03V3987.26H6400.41C6401.78 3987.26 6402.79 3986.89 6403.36 3986.2C6403.92 3985.52 6404.25 3984.43 6404.25 3982.93V3966.28C6404.25 3964.9 6403.96 3963.85 6403.44 3963.13C6402.87 3962.4 6401.9 3961.99 6400.45 3961.99H6398.19L6398.15 3962.03Z" fill="black"/>
<path id="Vector_39" d="M6443.72 3991.9V3957.39H6450.95C6452.53 3957.39 6453.9 3957.63 6454.99 3958.11C6456.12 3958.6 6457.01 3959.25 6457.74 3960.05C6458.47 3960.86 6458.95 3961.79 6459.27 3962.84C6459.6 3963.89 6459.72 3964.99 6459.72 3966.12V3967.37C6459.72 3968.3 6459.64 3969.11 6459.52 3969.75C6459.35 3970.4 6459.15 3970.97 6458.87 3971.45C6458.3 3972.34 6457.5 3973.15 6456.36 3973.8C6457.54 3974.36 6458.38 3975.17 6458.95 3976.22C6459.52 3977.27 6459.76 3978.73 6459.76 3980.59V3982.53C6459.76 3985.56 6459.03 3987.9 6457.54 3989.52C6456.08 3991.14 6453.7 3991.94 6450.47 3991.94H6443.72V3991.9ZM6448.65 3962.03V3971.53H6450.87C6452.53 3971.53 6453.62 3971.13 6454.18 3970.28C6454.75 3969.43 6455.03 3968.26 6455.03 3966.68C6455.03 3965.11 6454.71 3963.97 6454.1 3963.21C6453.46 3962.44 6452.32 3962.03 6450.67 3962.03H6448.65ZM6448.65 3975.9V3986.97H6450.79C6451.8 3986.97 6452.57 3986.81 6453.13 3986.53C6453.7 3986.25 6454.14 3985.84 6454.43 3985.32C6454.71 3984.79 6454.91 3984.18 6454.95 3983.46C6455.03 3982.73 6455.03 3981.96 6455.03 3981.11C6455.03 3980.26 6454.99 3979.5 6454.87 3978.85C6454.79 3978.2 6454.59 3977.64 6454.3 3977.19C6453.98 3976.75 6453.54 3976.42 6453.01 3976.18C6452.49 3975.94 6451.72 3975.86 6450.83 3975.86H6448.65V3975.9Z" fill="black"/>
<path id="Vector_40" d="M6479.39 3991.9V3977.31L6472.61 3957.39H6477.86L6481.82 3971.13H6481.9L6485.86 3957.39H6491.11L6484.32 3977.31V3991.9H6479.39Z" fill="black"/>
<g id="Layer_1_2">
<path id="Vector_41" d="M6706.73 4132.97H6570.62C6552.76 4132.97 6538.21 4118.42 6538.21 4100.55V3964.38C6538.21 3946.52 6552.76 3931.97 6570.62 3931.97H6706.73C6724.59 3931.97 6739.13 3946.52 6739.13 3964.38V4100.55C6739.13 4118.42 6724.59 4132.97 6706.73 4132.97ZM6570.66 3935.73C6554.86 3935.73 6541.97 3948.58 6541.97 3964.38V4100.55C6541.97 4116.36 6554.82 4129.21 6570.66 4129.21H6706.77C6722.57 4129.21 6735.46 4116.36 6735.46 4100.55V3964.38C6735.46 3948.58 6722.61 3935.73 6706.77 3935.73H6570.66Z" fill="black"/>
<path id="Vector_42" d="M6638.69 3958.72C6606.78 3958.72 6580.84 3984.87 6580.84 4017.05C6580.84 4028.45 6584.11 4039.48 6590.29 4048.98L6590.45 4049.22C6591.14 4050.27 6591.91 4051.36 6592.68 4052.37L6632.07 4103.5C6632.07 4103.5 6632.07 4103.5 6632.07 4103.54L6634.05 4106.25V4103.46C6634.05 4083.74 6628.11 4075.98 6626.01 4072.74C6625.6 4072.1 6625.72 4071.01 6625.68 4070.08C6625.68 4069.59 6626.09 4069.23 6626.53 4069.27C6630.49 4070.32 6634.57 4070.84 6638.73 4070.84C6642.89 4070.84 6647.02 4070.32 6650.97 4069.27C6651.38 4069.27 6651.7 4069.63 6651.7 4070.08C6651.7 4070.97 6651.82 4072.1 6651.38 4072.74C6649.28 4075.98 6643.34 4083.74 6643.34 4103.46V4106.05L6646.13 4102.41L6684.35 4052.74C6692.31 4042.43 6696.51 4030.06 6696.51 4017.01C6696.51 3984.87 6670.57 3958.68 6638.65 3958.68L6638.69 3958.72ZM6667.14 4054.96C6658.81 4061.1 6649 4064.34 6638.73 4064.34C6623.38 4064.34 6608.8 4056.86 6599.75 4044.37C6584.07 4022.75 6588.8 3992.27 6610.25 3976.47C6618.57 3970.32 6628.39 3967.09 6638.65 3967.09C6654.01 3967.09 6668.59 3974.57 6677.64 3987.06C6693.32 4008.68 6688.59 4039.16 6667.14 4054.96Z" fill="black"/>
</g>
</g>
<g id="Back - Dark Tag">
<path id="Vector_43" d="M6030.89 4069.72C6030.89 4046.43 6049.56 4027.88 6072.83 4027.88C6082.73 4027.88 6091.13 4029.74 6098.97 4034.55C6101.15 4035.93 6101.64 4037.91 6100.34 4040.33L6099.17 4042.27C6097.92 4044.82 6095.94 4045.14 6093.39 4043.77C6084.42 4038.92 6078.89 4038.8 6072.79 4038.8C6056.43 4038.8 6043.3 4052.38 6043.3 4069.55C6043.3 4084.99 6053.68 4100.07 6074.41 4100.07C6081.43 4100.07 6087.41 4098.33 6092.83 4094.9V4078.89H6074.65C6071.98 4078.89 6070.49 4077.27 6070.49 4074.65V4073.27C6070.49 4070.6 6071.98 4069.11 6074.65 4069.11H6099.86C6102.52 4069.11 6104.02 4070.6 6104.02 4073.27V4096.55C6104.02 4098.74 6103.09 4100.6 6100.46 4102.66C6091.25 4109.45 6081.23 4111.06 6073.88 4111.06C6048.87 4111.06 6030.93 4092.39 6030.93 4069.72" fill="white"/>
<path id="Vector_44" d="M6115.54 4069.47C6115.54 4046.56 6134.2 4027.88 6157.47 4027.88C6180.74 4027.88 6199.41 4046.56 6199.41 4069.47C6199.41 4092.39 6180.74 4111.06 6157.47 4111.06C6134.2 4111.06 6115.54 4092.39 6115.54 4069.47ZM6186.92 4069.47C6186.92 4052.09 6173.67 4038.84 6157.43 4038.84C6141.19 4038.84 6127.94 4052.09 6127.94 4069.47C6127.94 4086.85 6141.19 4100.11 6157.43 4100.11C6173.67 4100.11 6186.92 4086.85 6186.92 4069.47Z" fill="white"/>
<path id="Vector_45" d="M6213.19 4105.69V4033.34C6213.19 4030.68 6214.68 4029.18 6217.35 4029.18H6221.27C6223.93 4029.18 6225.43 4030.68 6225.43 4033.34V4099.83H6258.03C6260.7 4099.83 6262.27 4101.33 6262.27 4103.99V4105.73C6262.27 4108.4 6260.66 4109.89 6258.03 4109.89H6217.39C6214.72 4109.89 6213.23 4108.4 6213.23 4105.73" fill="white"/>
<path id="Vector_46" d="M6324.33 4033.3V4035.03C6324.33 4037.7 6322.84 4039.2 6320.17 4039.2H6284.94V4065.35H6315.12C6317.79 4065.35 6319.36 4066.84 6319.36 4069.51V4071.01C6319.36 4073.67 6317.74 4075.25 6315.12 4075.25H6284.94V4105.64C6284.94 4108.31 6283.44 4109.81 6280.78 4109.81H6276.86C6274.19 4109.81 6272.7 4108.31 6272.7 4105.64V4033.3C6272.7 4030.63 6274.19 4029.13 6276.86 4029.13H6320.17C6322.84 4029.13 6324.33 4030.63 6324.33 4033.3Z" fill="white"/>
<path id="Vector_47" d="M6332.37 4094.73C6331.24 4092.19 6332.61 4090.25 6335.12 4089.56L6338.47 4088.75C6341.02 4088.19 6342.39 4089.12 6343.64 4091.5C6346.51 4096.47 6352.61 4100.35 6360.69 4100.35C6371.08 4100.35 6377.38 4095.3 6377.38 4088.39C6377.38 4082.29 6372.33 4078.49 6365.74 4076.06L6353.78 4072.02C6338.59 4066.97 6334.92 4057.83 6334.92 4050.36C6334.92 4036.41 6347.12 4027.88 6361.06 4027.88C6373.74 4027.88 6382.71 4033.99 6386.39 4043.08C6387.44 4045.63 6386.15 4047.57 6383.64 4048.25L6380.77 4049.18C6378.23 4049.87 6376.61 4048.94 6375.48 4046.52C6372.81 4041.22 6367.88 4038.67 6361.22 4038.67C6353.62 4038.67 6347.28 4042.84 6347.28 4049.95C6347.28 4053.31 6348.33 4057.67 6357.54 4061.15L6369.5 4065.63C6383.08 4069.88 6389.3 4078.89 6389.3 4087.54C6389.3 4102.05 6377.78 4111.02 6360.98 4111.02C6346.71 4111.02 6336.57 4104.11 6332.41 4094.65" fill="white"/>
<path id="Vector_48" d="M6461.69 4033.3V4035.03C6461.69 4037.7 6460.2 4039.2 6457.53 4039.2H6435.07V4105.68C6435.07 4108.35 6433.57 4109.85 6430.91 4109.85H6427.11C6424.44 4109.85 6422.95 4108.35 6422.95 4105.68V4039.2H6400.49C6397.94 4039.2 6396.32 4037.7 6396.32 4035.03V4033.3C6396.32 4030.63 6397.94 4029.13 6400.49 4029.13H6457.49C6460.16 4029.13 6461.65 4030.63 6461.65 4033.3" fill="white"/>
<path id="Vector_49" d="M6458.34 4104.96L6486.1 4032.49C6486.9 4030.3 6488.64 4029.13 6490.95 4029.13H6497.61C6500.04 4029.13 6501.65 4030.3 6502.46 4032.49L6530.46 4104.96C6531.51 4107.83 6530.34 4109.81 6527.23 4109.81H6523.55C6521.12 4109.81 6519.51 4108.76 6518.58 4106.45L6513.61 4093.32H6475.15L6470.18 4106.45C6469.25 4108.76 6467.75 4109.81 6465.33 4109.81H6461.53C6458.42 4109.81 6457.17 4107.87 6458.3 4104.96M6510.18 4083.41L6494.3 4041.02L6478.62 4083.41H6510.18Z" fill="white"/>
<path id="Vector_50" d="M6592.27 4033.3V4035.03C6592.27 4037.7 6590.78 4039.2 6588.11 4039.2H6565.65V4105.68C6565.65 4108.35 6564.15 4109.85 6561.49 4109.85H6557.69C6555.02 4109.85 6553.53 4108.35 6553.53 4105.68V4039.2H6531.07C6528.52 4039.2 6526.9 4037.7 6526.9 4035.03V4033.3C6526.9 4030.63 6528.52 4029.13 6531.07 4029.13H6588.07C6590.74 4029.13 6592.23 4030.63 6592.23 4033.3" fill="white"/>
<path id="Vector_51" d="M6604.27 4079.86V4033.3C6604.27 4030.63 6605.89 4029.13 6608.43 4029.13H6612.35C6615.02 4029.13 6616.51 4030.63 6616.51 4033.3V4079.86C6616.51 4093.44 6625.72 4100.15 6636.31 4100.15C6646.9 4100.15 6656.23 4093.48 6656.23 4079.86V4033.3C6656.23 4030.63 6657.72 4029.13 6660.39 4029.13H6664.19C6666.85 4029.13 6668.47 4030.63 6668.47 4033.3V4079.86C6668.47 4100.35 6653.72 4111.1 6636.35 4111.1C6618.98 4111.1 6604.35 4100.39 6604.35 4079.86" fill="white"/>
<path id="Vector_52" d="M6681.07 4094.73C6679.94 4092.19 6681.32 4090.25 6683.82 4089.56L6687.18 4088.75C6689.72 4088.19 6691.09 4089.12 6692.35 4091.5C6695.22 4096.47 6701.32 4100.35 6709.4 4100.35C6719.78 4100.35 6726.08 4095.3 6726.08 4088.39C6726.08 4082.29 6721.03 4078.49 6714.45 4076.06L6702.49 4072.02C6687.3 4066.97 6683.62 4057.83 6683.62 4050.36C6683.62 4036.41 6695.82 4027.88 6709.76 4027.88C6722.45 4027.88 6731.41 4033.99 6735.09 4043.08C6736.14 4045.63 6734.85 4047.57 6732.34 4048.25L6729.48 4049.18C6726.93 4049.87 6725.31 4048.94 6724.18 4046.52C6721.52 4041.22 6716.59 4038.67 6709.92 4038.67C6702.33 4038.67 6695.98 4042.84 6695.98 4049.95C6695.98 4053.31 6697.03 4057.67 6706.24 4061.15L6718.2 4065.63C6731.78 4069.88 6738 4078.89 6738 4087.54C6738 4102.05 6726.49 4111.02 6709.68 4111.02C6695.42 4111.02 6685.28 4104.11 6681.11 4094.65" fill="white"/>
<path id="Vector_53" d="M6031.79 3995.95V3961.43H6039.22C6040.59 3961.43 6041.76 3961.59 6042.81 3961.96C6043.87 3962.32 6044.79 3962.93 6045.64 3963.85C6046.49 3964.74 6047.06 3965.84 6047.38 3967.05C6047.7 3968.26 6047.86 3969.92 6047.86 3971.98C6047.86 3973.51 6047.78 3974.85 6047.58 3975.9C6047.42 3976.95 6047.02 3977.96 6046.45 3978.89C6045.76 3980.02 6044.88 3980.91 6043.74 3981.52C6042.61 3982.16 6041.12 3982.45 6039.3 3982.45H6036.79V3995.95H6031.87H6031.79ZM6036.71 3966.08V3977.8H6039.1C6040.11 3977.8 6040.88 3977.64 6041.44 3977.35C6042.01 3977.07 6042.41 3976.67 6042.65 3976.14C6042.9 3975.66 6043.06 3975.05 6043.1 3974.36C6043.14 3973.64 6043.18 3972.87 6043.18 3971.98C6043.18 3971.17 6043.18 3970.4 6043.14 3969.68C6043.14 3968.95 6042.98 3968.3 6042.69 3967.78C6042.45 3967.21 6042.05 3966.81 6041.52 3966.52C6041 3966.24 6040.27 3966.08 6039.3 3966.08H6036.71Z" fill="white"/>
<path id="Vector_54" d="M6061.64 3969.6C6061.64 3968.23 6061.88 3966.98 6062.37 3965.92C6062.85 3964.87 6063.5 3963.98 6064.31 3963.26C6065.07 3962.57 6065.96 3962.04 6066.93 3961.72C6067.9 3961.36 6068.91 3961.2 6069.92 3961.2C6070.93 3961.2 6071.9 3961.36 6072.91 3961.72C6073.88 3962.08 6074.81 3962.61 6075.62 3963.26C6076.39 3963.98 6077.03 3964.87 6077.52 3965.92C6078 3966.98 6078.25 3968.23 6078.25 3969.6V3987.83C6078.25 3989.29 6078 3990.54 6077.52 3991.55C6077.03 3992.56 6076.39 3993.45 6075.62 3994.14C6074.81 3994.86 6073.92 3995.39 6072.91 3995.75C6071.9 3996.12 6070.93 3996.28 6069.92 3996.28C6068.91 3996.28 6067.94 3996.12 6066.93 3995.75C6065.96 3995.39 6065.07 3994.86 6064.31 3994.14C6063.5 3993.45 6062.85 3992.6 6062.37 3991.55C6061.88 3990.5 6061.64 3989.29 6061.64 3987.83V3969.6ZM6066.57 3987.83C6066.57 3989.04 6066.89 3989.89 6067.58 3990.46C6068.23 3991.02 6069.03 3991.31 6069.92 3991.31C6070.81 3991.31 6071.62 3991.02 6072.27 3990.46C6072.91 3989.89 6073.28 3989 6073.28 3987.83V3969.6C6073.28 3968.39 6072.95 3967.54 6072.27 3966.98C6071.62 3966.41 6070.81 3966.13 6069.92 3966.13C6069.03 3966.13 6068.23 3966.41 6067.58 3966.98C6066.93 3967.54 6066.57 3968.43 6066.57 3969.6V3987.83Z" fill="white"/>
<path id="Vector_55" d="M6118.08 3961.43L6112.95 3995.95H6108.3L6104.51 3973.56H6104.43L6100.71 3995.95H6096.06L6090.93 3961.43H6096.18L6098.65 3983.34H6098.73L6102.61 3961.43H6106.41L6110.45 3983.9H6110.53L6112.91 3961.43H6118.16H6118.08Z" fill="white"/>
<path id="Vector_56" d="M6131.62 3995.95V3961.43H6146.36V3966.08H6136.59V3976.22H6145.11V3980.87H6136.59V3991.02H6146.36V3995.95H6131.62Z" fill="white"/>
<path id="Vector_57" d="M6159.98 3995.95V3961.43H6167.94C6173.75 3961.43 6176.66 3964.82 6176.66 3971.57C6176.66 3973.6 6176.34 3975.33 6175.73 3976.75C6175.09 3978.16 6174 3979.33 6172.42 3980.18L6177.75 3995.95H6172.5L6167.9 3981.19H6164.95V3995.95H6160.02H6159.98ZM6164.91 3966.08V3976.83H6167.73C6168.62 3976.83 6169.31 3976.71 6169.83 3976.47C6170.36 3976.22 6170.76 3975.86 6171.05 3975.41C6171.29 3974.97 6171.49 3974.4 6171.57 3973.76C6171.65 3973.11 6171.73 3972.34 6171.73 3971.45C6171.73 3970.56 6171.69 3969.8 6171.57 3969.15C6171.49 3968.5 6171.29 3967.9 6171.01 3967.41C6170.4 3966.52 6169.23 3966.04 6167.53 3966.04H6164.95L6164.91 3966.08Z" fill="white"/>
<path id="Vector_58" d="M6191.05 3995.95V3961.43H6205.79V3966.08H6196.02V3976.22H6204.54V3980.87H6196.02V3991.02H6205.79V3995.95H6191.05Z" fill="white"/>
<path id="Vector_59" d="M6219.41 3995.95V3961.43H6226.72C6229.55 3961.43 6231.73 3962.2 6233.18 3963.77C6234.64 3965.31 6235.41 3967.53 6235.41 3970.36V3986.53C6235.41 3989.76 6234.64 3992.15 6233.06 3993.68C6231.49 3995.22 6229.22 3995.99 6226.31 3995.99H6219.45L6219.41 3995.95ZM6224.34 3966.08V3991.3H6226.6C6227.97 3991.3 6228.98 3990.94 6229.55 3990.25C6230.11 3989.56 6230.44 3988.47 6230.44 3986.97V3970.32C6230.44 3968.95 6230.15 3967.9 6229.63 3967.17C6229.06 3966.44 6228.09 3966.04 6226.64 3966.04H6224.38L6224.34 3966.08Z" fill="white"/>
<path id="Vector_60" d="M6269.91 3995.95V3961.43H6277.14C6278.72 3961.43 6280.09 3961.67 6281.18 3962.16C6282.31 3962.64 6283.2 3963.29 6283.93 3964.1C6284.65 3964.91 6285.14 3965.84 6285.46 3966.89C6285.79 3967.94 6285.91 3969.03 6285.91 3970.16V3971.41C6285.91 3972.34 6285.83 3973.15 6285.71 3973.8C6285.54 3974.44 6285.34 3975.01 6285.06 3975.5C6284.49 3976.38 6283.69 3977.19 6282.55 3977.84C6283.73 3978.41 6284.57 3979.21 6285.14 3980.26C6285.71 3981.32 6285.95 3982.77 6285.95 3984.63V3986.57C6285.95 3989.6 6285.22 3991.95 6283.73 3993.56C6282.27 3995.18 6279.89 3995.99 6276.66 3995.99H6269.91V3995.95ZM6274.88 3966.08V3975.58H6277.1C6278.76 3975.58 6279.85 3975.17 6280.41 3974.32C6280.98 3973.47 6281.26 3972.3 6281.26 3970.73C6281.26 3969.15 6280.94 3968.02 6280.33 3967.25C6279.69 3966.48 6278.55 3966.08 6276.9 3966.08H6274.88ZM6274.88 3979.94V3991.02H6277.02C6278.03 3991.02 6278.8 3990.85 6279.36 3990.57C6279.93 3990.29 6280.37 3989.88 6280.65 3989.36C6280.94 3988.83 6281.14 3988.23 6281.18 3987.5C6281.26 3986.77 6281.26 3986 6281.26 3985.16C6281.26 3984.31 6281.22 3983.54 6281.1 3982.89C6281.02 3982.25 6280.82 3981.68 6280.53 3981.23C6280.21 3980.79 6279.77 3980.47 6279.24 3980.22C6278.72 3979.98 6277.95 3979.9 6277.06 3979.9H6274.88V3979.94Z" fill="white"/>
<path id="Vector_61" d="M6305.58 3995.95V3981.36L6298.8 3961.43H6304.05L6308.01 3975.17H6308.09L6312.05 3961.43H6317.3L6310.51 3981.36V3995.95H6305.58Z" fill="white"/>
<g id="Layer_1-2">
<path id="Vector_62" d="M5952.56 4137.01H5816.44C5798.59 4137.01 5784.04 4122.46 5784.04 4104.6V3968.43C5784.04 3950.56 5798.59 3936.01 5816.44 3936.01H5952.56C5970.41 3936.01 5984.96 3950.56 5984.96 3968.43V4104.6C5984.96 4122.46 5970.41 4137.01 5952.56 4137.01ZM5816.44 3939.77C5800.65 3939.77 5787.8 3952.62 5787.8 3968.43V4104.6C5787.8 4120.4 5800.65 4133.25 5816.48 4133.25H5952.6C5968.39 4133.25 5981.28 4120.4 5981.28 4104.6V3968.43C5981.28 3952.62 5968.43 3939.77 5952.6 3939.77H5816.44Z" fill="white"/>
<path id="Vector_63" d="M5884.52 3962.77C5852.6 3962.77 5826.66 3988.92 5826.66 4021.09C5826.66 4032.49 5829.94 4043.52 5836.12 4053.02L5836.28 4053.26C5836.97 4054.31 5837.73 4055.41 5838.5 4056.42L5877.89 4107.55C5877.89 4107.55 5877.89 4107.55 5877.89 4107.59L5879.87 4110.29V4107.5C5879.87 4087.78 5873.93 4080.02 5871.83 4076.79C5871.43 4076.14 5871.55 4075.05 5871.51 4074.12C5871.51 4073.63 5871.91 4073.27 5872.36 4073.31C5876.32 4074.36 5880.4 4074.89 5884.56 4074.89C5888.72 4074.89 5892.84 4074.36 5896.8 4073.31C5897.21 4073.31 5897.53 4073.67 5897.53 4074.12C5897.53 4075.01 5897.65 4076.14 5897.21 4076.79C5895.1 4080.02 5889.17 4087.78 5889.17 4107.5V4110.09L5891.95 4106.45L5930.17 4056.78C5938.13 4046.47 5942.33 4034.11 5942.33 4021.05C5942.33 3988.92 5916.4 3962.73 5884.48 3962.73L5884.52 3962.77ZM5912.96 4059C5904.64 4065.15 5894.82 4068.38 5884.56 4068.38C5869.21 4068.38 5854.62 4060.9 5845.57 4048.41C5829.9 4026.79 5834.62 3996.31 5856.08 3980.51C5864.4 3974.37 5874.22 3971.13 5884.48 3971.13C5899.83 3971.13 5914.42 3978.61 5923.47 3991.1C5939.14 4012.72 5934.41 4043.2 5912.96 4059Z" fill="white"/>
</g>
</g>
<g id="Back - Light Tag">
<path id="Vector_64" d="M6030.89 4069.72C6030.89 4046.43 6049.56 4027.88 6072.83 4027.88C6082.73 4027.88 6091.13 4029.74 6098.97 4034.55C6101.15 4035.93 6101.64 4037.91 6100.34 4040.33L6099.17 4042.27C6097.92 4044.82 6095.94 4045.14 6093.39 4043.77C6084.42 4038.92 6078.89 4038.8 6072.79 4038.8C6056.43 4038.8 6043.3 4052.38 6043.3 4069.55C6043.3 4084.99 6053.68 4100.07 6074.41 4100.07C6081.43 4100.07 6087.41 4098.33 6092.83 4094.9V4078.89H6074.65C6071.98 4078.89 6070.49 4077.27 6070.49 4074.65V4073.27C6070.49 4070.6 6071.98 4069.11 6074.65 4069.11H6099.86C6102.52 4069.11 6104.02 4070.6 6104.02 4073.27V4096.55C6104.02 4098.74 6103.09 4100.6 6100.46 4102.66C6091.25 4109.45 6081.23 4111.06 6073.88 4111.06C6048.87 4111.06 6030.93 4092.39 6030.93 4069.72" fill="black"/>
<path id="Vector_65" d="M6115.54 4069.47C6115.54 4046.56 6134.2 4027.88 6157.47 4027.88C6180.74 4027.88 6199.41 4046.56 6199.41 4069.47C6199.41 4092.39 6180.74 4111.06 6157.47 4111.06C6134.2 4111.06 6115.54 4092.39 6115.54 4069.47ZM6186.92 4069.47C6186.92 4052.09 6173.67 4038.84 6157.43 4038.84C6141.19 4038.84 6127.94 4052.09 6127.94 4069.47C6127.94 4086.85 6141.19 4100.11 6157.43 4100.11C6173.67 4100.11 6186.92 4086.85 6186.92 4069.47Z" fill="black"/>
<path id="Vector_66" d="M6213.19 4105.69V4033.34C6213.19 4030.68 6214.68 4029.18 6217.35 4029.18H6221.27C6223.93 4029.18 6225.43 4030.68 6225.43 4033.34V4099.83H6258.03C6260.7 4099.83 6262.27 4101.33 6262.27 4103.99V4105.73C6262.27 4108.4 6260.66 4109.89 6258.03 4109.89H6217.39C6214.72 4109.89 6213.23 4108.4 6213.23 4105.73" fill="black"/>
<path id="Vector_67" d="M6324.33 4033.3V4035.03C6324.33 4037.7 6322.84 4039.2 6320.17 4039.2H6284.94V4065.35H6315.12C6317.79 4065.35 6319.36 4066.84 6319.36 4069.51V4071.01C6319.36 4073.67 6317.74 4075.25 6315.12 4075.25H6284.94V4105.64C6284.94 4108.31 6283.44 4109.81 6280.78 4109.81H6276.86C6274.19 4109.81 6272.7 4108.31 6272.7 4105.64V4033.3C6272.7 4030.63 6274.19 4029.13 6276.86 4029.13H6320.17C6322.84 4029.13 6324.33 4030.63 6324.33 4033.3Z" fill="black"/>
<path id="Vector_68" d="M6332.37 4094.73C6331.24 4092.19 6332.61 4090.25 6335.12 4089.56L6338.47 4088.75C6341.02 4088.19 6342.39 4089.12 6343.64 4091.5C6346.51 4096.47 6352.61 4100.35 6360.69 4100.35C6371.08 4100.35 6377.38 4095.3 6377.38 4088.39C6377.38 4082.29 6372.33 4078.49 6365.74 4076.06L6353.78 4072.02C6338.59 4066.97 6334.92 4057.83 6334.92 4050.36C6334.92 4036.41 6347.12 4027.88 6361.06 4027.88C6373.74 4027.88 6382.71 4033.99 6386.39 4043.08C6387.44 4045.63 6386.15 4047.57 6383.64 4048.25L6380.77 4049.18C6378.23 4049.87 6376.61 4048.94 6375.48 4046.52C6372.81 4041.22 6367.88 4038.67 6361.22 4038.67C6353.62 4038.67 6347.28 4042.84 6347.28 4049.95C6347.28 4053.31 6348.33 4057.67 6357.54 4061.15L6369.5 4065.63C6383.08 4069.88 6389.3 4078.89 6389.3 4087.54C6389.3 4102.05 6377.78 4111.02 6360.98 4111.02C6346.71 4111.02 6336.57 4104.11 6332.41 4094.65" fill="black"/>
<path id="Vector_69" d="M6461.69 4033.3V4035.03C6461.69 4037.7 6460.2 4039.2 6457.53 4039.2H6435.07V4105.68C6435.07 4108.35 6433.57 4109.85 6430.91 4109.85H6427.11C6424.44 4109.85 6422.95 4108.35 6422.95 4105.68V4039.2H6400.49C6397.94 4039.2 6396.32 4037.7 6396.32 4035.03V4033.3C6396.32 4030.63 6397.94 4029.13 6400.49 4029.13H6457.49C6460.16 4029.13 6461.65 4030.63 6461.65 4033.3" fill="black"/>
<path id="Vector_70" d="M6458.34 4104.96L6486.1 4032.49C6486.9 4030.3 6488.64 4029.13 6490.95 4029.13H6497.61C6500.04 4029.13 6501.65 4030.3 6502.46 4032.49L6530.46 4104.96C6531.51 4107.83 6530.34 4109.81 6527.23 4109.81H6523.55C6521.12 4109.81 6519.51 4108.76 6518.58 4106.45L6513.61 4093.32H6475.15L6470.18 4106.45C6469.25 4108.76 6467.75 4109.81 6465.33 4109.81H6461.53C6458.42 4109.81 6457.17 4107.87 6458.3 4104.96M6510.18 4083.41L6494.3 4041.02L6478.62 4083.41H6510.18Z" fill="black"/>
<path id="Vector_71" d="M6592.27 4033.3V4035.03C6592.27 4037.7 6590.78 4039.2 6588.11 4039.2H6565.65V4105.68C6565.65 4108.35 6564.15 4109.85 6561.49 4109.85H6557.69C6555.02 4109.85 6553.53 4108.35 6553.53 4105.68V4039.2H6531.07C6528.52 4039.2 6526.9 4037.7 6526.9 4035.03V4033.3C6526.9 4030.63 6528.52 4029.13 6531.07 4029.13H6588.07C6590.74 4029.13 6592.23 4030.63 6592.23 4033.3" fill="black"/>
<path id="Vector_72" d="M6604.27 4079.86V4033.3C6604.27 4030.63 6605.89 4029.13 6608.43 4029.13H6612.35C6615.02 4029.13 6616.51 4030.63 6616.51 4033.3V4079.86C6616.51 4093.44 6625.72 4100.15 6636.31 4100.15C6646.9 4100.15 6656.23 4093.48 6656.23 4079.86V4033.3C6656.23 4030.63 6657.72 4029.13 6660.39 4029.13H6664.19C6666.85 4029.13 6668.47 4030.63 6668.47 4033.3V4079.86C6668.47 4100.35 6653.72 4111.1 6636.35 4111.1C6618.98 4111.1 6604.35 4100.39 6604.35 4079.86" fill="black"/>
<path id="Vector_73" d="M6681.07 4094.73C6679.94 4092.19 6681.32 4090.25 6683.82 4089.56L6687.18 4088.75C6689.72 4088.19 6691.09 4089.12 6692.35 4091.5C6695.22 4096.47 6701.32 4100.35 6709.4 4100.35C6719.78 4100.35 6726.08 4095.3 6726.08 4088.39C6726.08 4082.29 6721.03 4078.49 6714.45 4076.06L6702.49 4072.02C6687.3 4066.97 6683.62 4057.83 6683.62 4050.36C6683.62 4036.41 6695.82 4027.88 6709.76 4027.88C6722.45 4027.88 6731.41 4033.99 6735.09 4043.08C6736.14 4045.63 6734.85 4047.57 6732.34 4048.25L6729.48 4049.18C6726.93 4049.87 6725.31 4048.94 6724.18 4046.52C6721.52 4041.22 6716.59 4038.67 6709.92 4038.67C6702.33 4038.67 6695.98 4042.84 6695.98 4049.95C6695.98 4053.31 6697.03 4057.67 6706.24 4061.15L6718.2 4065.63C6731.78 4069.88 6738 4078.89 6738 4087.54C6738 4102.05 6726.49 4111.02 6709.68 4111.02C6695.42 4111.02 6685.28 4104.11 6681.11 4094.65" fill="black"/>
<path id="Vector_74" d="M6031.79 3995.95V3961.43H6039.22C6040.59 3961.43 6041.76 3961.59 6042.81 3961.96C6043.87 3962.32 6044.79 3962.93 6045.64 3963.85C6046.49 3964.74 6047.06 3965.84 6047.38 3967.05C6047.7 3968.26 6047.86 3969.92 6047.86 3971.98C6047.86 3973.51 6047.78 3974.85 6047.58 3975.9C6047.42 3976.95 6047.02 3977.96 6046.45 3978.89C6045.76 3980.02 6044.88 3980.91 6043.74 3981.52C6042.61 3982.16 6041.12 3982.45 6039.3 3982.45H6036.79V3995.95H6031.87H6031.79ZM6036.71 3966.08V3977.8H6039.1C6040.11 3977.8 6040.88 3977.64 6041.44 3977.35C6042.01 3977.07 6042.41 3976.67 6042.65 3976.14C6042.9 3975.66 6043.06 3975.05 6043.1 3974.36C6043.14 3973.64 6043.18 3972.87 6043.18 3971.98C6043.18 3971.17 6043.18 3970.4 6043.14 3969.68C6043.14 3968.95 6042.98 3968.3 6042.69 3967.78C6042.45 3967.21 6042.05 3966.81 6041.52 3966.52C6041 3966.24 6040.27 3966.08 6039.3 3966.08H6036.71Z" fill="black"/>
<path id="Vector_75" d="M6061.64 3969.6C6061.64 3968.23 6061.88 3966.98 6062.37 3965.92C6062.85 3964.87 6063.5 3963.98 6064.31 3963.26C6065.07 3962.57 6065.96 3962.04 6066.93 3961.72C6067.9 3961.36 6068.91 3961.2 6069.92 3961.2C6070.93 3961.2 6071.9 3961.36 6072.91 3961.72C6073.88 3962.08 6074.81 3962.61 6075.62 3963.26C6076.39 3963.98 6077.03 3964.87 6077.52 3965.92C6078 3966.98 6078.25 3968.23 6078.25 3969.6V3987.83C6078.25 3989.29 6078 3990.54 6077.52 3991.55C6077.03 3992.56 6076.39 3993.45 6075.62 3994.14C6074.81 3994.86 6073.92 3995.39 6072.91 3995.75C6071.9 3996.12 6070.93 3996.28 6069.92 3996.28C6068.91 3996.28 6067.94 3996.12 6066.93 3995.75C6065.96 3995.39 6065.07 3994.86 6064.31 3994.14C6063.5 3993.45 6062.85 3992.6 6062.37 3991.55C6061.88 3990.5 6061.64 3989.29 6061.64 3987.83V3969.6ZM6066.57 3987.83C6066.57 3989.04 6066.89 3989.89 6067.58 3990.46C6068.23 3991.02 6069.03 3991.31 6069.92 3991.31C6070.81 3991.31 6071.62 3991.02 6072.27 3990.46C6072.91 3989.89 6073.28 3989 6073.28 3987.83V3969.6C6073.28 3968.39 6072.95 3967.54 6072.27 3966.98C6071.62 3966.41 6070.81 3966.13 6069.92 3966.13C6069.03 3966.13 6068.23 3966.41 6067.58 3966.98C6066.93 3967.54 6066.57 3968.43 6066.57 3969.6V3987.83Z" fill="black"/>
<path id="Vector_76" d="M6118.08 3961.43L6112.95 3995.95H6108.3L6104.51 3973.56H6104.43L6100.71 3995.95H6096.06L6090.93 3961.43H6096.18L6098.65 3983.34H6098.73L6102.61 3961.43H6106.41L6110.45 3983.9H6110.53L6112.91 3961.43H6118.16H6118.08Z" fill="black"/>
<path id="Vector_77" d="M6131.62 3995.95V3961.43H6146.36V3966.08H6136.59V3976.22H6145.11V3980.87H6136.59V3991.02H6146.36V3995.95H6131.62Z" fill="black"/>
<path id="Vector_78" d="M6159.98 3995.95V3961.43H6167.94C6173.75 3961.43 6176.66 3964.82 6176.66 3971.57C6176.66 3973.6 6176.34 3975.33 6175.73 3976.75C6175.09 3978.16 6174 3979.33 6172.42 3980.18L6177.75 3995.95H6172.5L6167.9 3981.19H6164.95V3995.95H6160.02H6159.98ZM6164.91 3966.08V3976.83H6167.73C6168.62 3976.83 6169.31 3976.71 6169.83 3976.47C6170.36 3976.22 6170.76 3975.86 6171.05 3975.41C6171.29 3974.97 6171.49 3974.4 6171.57 3973.76C6171.65 3973.11 6171.73 3972.34 6171.73 3971.45C6171.73 3970.56 6171.69 3969.8 6171.57 3969.15C6171.49 3968.5 6171.29 3967.9 6171.01 3967.41C6170.4 3966.52 6169.23 3966.04 6167.53 3966.04H6164.95L6164.91 3966.08Z" fill="black"/>
<path id="Vector_79" d="M6191.05 3995.95V3961.43H6205.79V3966.08H6196.02V3976.22H6204.54V3980.87H6196.02V3991.02H6205.79V3995.95H6191.05Z" fill="black"/>
<path id="Vector_80" d="M6219.41 3995.95V3961.43H6226.72C6229.55 3961.43 6231.73 3962.2 6233.18 3963.77C6234.64 3965.31 6235.41 3967.53 6235.41 3970.36V3986.53C6235.41 3989.76 6234.64 3992.15 6233.06 3993.68C6231.49 3995.22 6229.22 3995.99 6226.31 3995.99H6219.45L6219.41 3995.95ZM6224.34 3966.08V3991.3H6226.6C6227.97 3991.3 6228.98 3990.94 6229.55 3990.25C6230.11 3989.56 6230.44 3988.47 6230.44 3986.97V3970.32C6230.44 3968.95 6230.15 3967.9 6229.63 3967.17C6229.06 3966.44 6228.09 3966.04 6226.64 3966.04H6224.38L6224.34 3966.08Z" fill="black"/>
<path id="Vector_81" d="M6269.91 3995.95V3961.43H6277.14C6278.72 3961.43 6280.09 3961.67 6281.18 3962.16C6282.31 3962.64 6283.2 3963.29 6283.93 3964.1C6284.65 3964.91 6285.14 3965.84 6285.46 3966.89C6285.79 3967.94 6285.91 3969.03 6285.91 3970.16V3971.41C6285.91 3972.34 6285.83 3973.15 6285.71 3973.8C6285.54 3974.44 6285.34 3975.01 6285.06 3975.5C6284.49 3976.38 6283.69 3977.19 6282.55 3977.84C6283.73 3978.41 6284.57 3979.21 6285.14 3980.26C6285.71 3981.32 6285.95 3982.77 6285.95 3984.63V3986.57C6285.95 3989.6 6285.22 3991.95 6283.73 3993.56C6282.27 3995.18 6279.89 3995.99 6276.66 3995.99H6269.91V3995.95ZM6274.88 3966.08V3975.58H6277.1C6278.76 3975.58 6279.85 3975.17 6280.41 3974.32C6280.98 3973.47 6281.26 3972.3 6281.26 3970.73C6281.26 3969.15 6280.94 3968.02 6280.33 3967.25C6279.69 3966.48 6278.55 3966.08 6276.9 3966.08H6274.88ZM6274.88 3979.94V3991.02H6277.02C6278.03 3991.02 6278.8 3990.85 6279.36 3990.57C6279.93 3990.29 6280.37 3989.88 6280.65 3989.36C6280.94 3988.83 6281.14 3988.23 6281.18 3987.5C6281.26 3986.77 6281.26 3986 6281.26 3985.16C6281.26 3984.31 6281.22 3983.54 6281.1 3982.89C6281.02 3982.25 6280.82 3981.68 6280.53 3981.23C6280.21 3980.79 6279.77 3980.47 6279.24 3980.22C6278.72 3979.98 6277.95 3979.9 6277.06 3979.9H6274.88V3979.94Z" fill="black"/>
<path id="Vector_82" d="M6305.58 3995.95V3981.36L6298.8 3961.43H6304.05L6308.01 3975.17H6308.09L6312.05 3961.43H6317.3L6310.51 3981.36V3995.95H6305.58Z" fill="black"/>
<g id="Layer_1-2_2">
<path id="Vector_83" d="M5952.56 4137.01H5816.44C5798.59 4137.01 5784.04 4122.46 5784.04 4104.6V3968.43C5784.04 3950.56 5798.59 3936.01 5816.44 3936.01H5952.56C5970.41 3936.01 5984.96 3950.56 5984.96 3968.43V4104.6C5984.96 4122.46 5970.41 4137.01 5952.56 4137.01ZM5816.44 3939.77C5800.65 3939.77 5787.8 3952.62 5787.8 3968.43V4104.6C5787.8 4120.4 5800.65 4133.25 5816.48 4133.25H5952.6C5968.39 4133.25 5981.28 4120.4 5981.28 4104.6V3968.43C5981.28 3952.62 5968.43 3939.77 5952.6 3939.77H5816.44Z" fill="black"/>
<path id="Vector_84" d="M5884.52 3962.77C5852.6 3962.77 5826.66 3988.92 5826.66 4021.09C5826.66 4032.49 5829.94 4043.52 5836.12 4053.02L5836.28 4053.26C5836.97 4054.31 5837.73 4055.41 5838.5 4056.42L5877.89 4107.55C5877.89 4107.55 5877.89 4107.55 5877.89 4107.59L5879.87 4110.29V4107.5C5879.87 4087.78 5873.93 4080.02 5871.83 4076.79C5871.43 4076.14 5871.55 4075.05 5871.51 4074.12C5871.51 4073.63 5871.91 4073.27 5872.36 4073.31C5876.32 4074.36 5880.4 4074.89 5884.56 4074.89C5888.72 4074.89 5892.84 4074.36 5896.8 4073.31C5897.21 4073.31 5897.53 4073.67 5897.53 4074.12C5897.53 4075.01 5897.65 4076.14 5897.21 4076.79C5895.1 4080.02 5889.17 4087.78 5889.17 4107.5V4110.09L5891.95 4106.45L5930.17 4056.78C5938.13 4046.47 5942.33 4034.11 5942.33 4021.05C5942.33 3988.92 5916.4 3962.73 5884.48 3962.73L5884.52 3962.77ZM5912.96 4059C5904.64 4065.15 5894.82 4068.38 5884.56 4068.38C5869.21 4068.38 5854.62 4060.9 5845.57 4048.41C5829.9 4026.79 5834.62 3996.31 5856.08 3980.51C5864.4 3974.37 5874.22 3971.13 5884.48 3971.13C5899.83 3971.13 5914.42 3978.61 5923.47 3991.1C5939.14 4012.72 5934.41 4043.2 5912.96 4059Z" fill="black"/>
</g>
</g>
</g>
</g>
<g id="#logo-placement">
<g id="Area">
<rect width="5710" height="3604" transform="translate(1278 534.012)" fill="#2063D6"/>
</g>
</g>
</g>
</svg>
